# Blender 5.1.0
# www.blender.org
mtllib birch.mtl
o Birch
v -0.343422 0.084044 0.875648
v -0.461459 4.494101 0.158916
v -1.539732 0.084044 0.597321
v -1.280898 4.523938 -0.036272
v -1.635963 0.084044 -0.621040
v -1.348043 4.500308 -0.888189
v -0.499121 0.084044 -1.095709
v -0.570092 4.455867 -1.219520
v 0.299708 0.084044 -0.170696
v -0.022158 4.452030 -0.572368
v -0.622446 1.675928 0.556162
v -0.713935 3.143030 0.452132
v -1.571042 3.135743 0.245875
v -1.621290 1.596375 0.323775
v -1.641277 2.996483 -0.621823
v -1.701636 1.466943 -0.693483
v -0.827569 2.917701 -0.951838
v -0.752439 1.466502 -1.089805
v -0.254442 3.008272 -0.288094
v -0.085468 1.595661 -0.317478
v -0.143628 7.752180 0.112605
v -0.974582 7.745116 -0.087357
v -1.042671 7.610104 -0.928585
v -0.253787 7.533727 -1.248536
v 0.301846 7.621534 -0.605039
v -0.520740 13.652487 -0.037709
v -1.163581 13.647022 -0.192403
v -1.216256 13.542574 -0.843193
v -0.605961 13.483486 -1.090713
v -0.176112 13.551416 -0.592892
v -0.394111 9.549562 -0.000225
v -0.725302 8.944496 -0.166207
v -0.655013 8.840508 -0.864487
v -0.280378 9.381313 -1.026129
v -0.119134 9.819529 -0.595921
v -5.742269 12.020532 -0.324798
v -5.878423 11.771784 -0.393034
v -5.849527 11.729034 -0.680102
v -5.695512 11.951363 -0.789285
v -5.629223 12.131516 -0.569693
v -2.962105 9.775661 -1.056521
v -2.821354 10.158180 -0.590260
v -3.350480 9.394361 -0.215161
v -3.289125 9.303590 -0.824693
v -3.061383 9.922525 -0.070275
v -4.318784 10.527643 -0.960470
v -4.633311 10.218847 -0.279093
v -4.204797 10.837427 -0.582868
v -4.583623 10.145335 -0.772724
v -4.399185 10.646582 -0.161757
v -0.160739 11.863113 -0.646125
v -0.295910 11.370363 -0.376412
v -0.864572 11.285678 -0.433653
v -1.080856 11.726096 -0.738748
v -0.645859 12.082968 -0.870060
v -0.425062 13.875410 3.709282
v -0.480632 13.672836 3.820163
v -0.714413 13.638021 3.796631
v -0.803329 13.819081 3.671205
v -0.624499 13.965794 3.617220
v -1.020959 12.047242 1.445185
v -0.641248 12.358757 1.330561
v -0.335776 11.736722 1.761469
v -0.832164 11.662800 1.711502
v -0.217785 12.166845 1.526034
v -0.942738 12.659638 2.550031
v -0.387841 12.408163 2.806175
v -0.635228 12.911920 2.457203
v -0.789842 12.348297 2.765710
v -0.292286 12.756499 2.615508
v -0.025212 8.522547 -0.126367
v -0.147408 8.077095 0.117457
v -0.661484 8.000540 0.065711
v -0.857007 8.398682 -0.210098
v -0.463766 8.721297 -0.328805
v -0.264163 11.165696 3.494576
v -0.314399 11.045630 3.665361
v -0.525740 11.007998 3.660167
v -0.606121 11.104809 3.486169
v -0.444456 11.202270 3.383829
v -0.802860 8.689001 1.764199
v -0.459597 8.970613 1.660578
v -0.183448 8.408288 2.050123
v -0.632187 8.341461 2.004953
v -0.076783 8.797123 1.837288
v -0.732148 9.716883 3.039447
v -0.230516 9.615122 3.347578
v -0.454155 9.884474 2.863467
v -0.593928 9.550412 3.338646
v -0.144132 9.821582 3.053903
v -1.127740 6.917049 -0.032557
v -1.195357 6.845101 -0.867956
v 0.139844 6.851192 -0.546652
v -0.302543 6.920814 0.166019
v -0.411940 6.804399 -1.185690
v -4.782321 12.490200 3.030676
v -4.782322 14.052221 2.444184
v -6.747251 12.490200 2.392232
v -6.402519 14.052221 1.917750
v -7.961643 12.490200 0.720764
v -7.403855 14.052221 0.539528
v -7.961643 12.490200 -1.345284
v -7.403855 14.052221 -1.164048
v -6.747250 12.490200 -3.016753
v -6.402518 14.052221 -2.542270
v -4.782322 12.490200 -3.655197
v -4.782321 14.052221 -3.068704
v -2.817393 12.490200 -3.016752
v -3.162125 14.052221 -2.542270
v -1.603000 12.490200 -1.345284
v -2.160788 14.052221 -1.164048
v -1.603000 12.490200 0.720765
v -2.160788 14.052221 0.539528
v -2.817394 12.490200 2.392233
v -3.162125 14.052221 1.917751
v -4.782322 14.773353 1.733119
v -5.984565 14.773353 1.342487
v -6.727592 14.773353 0.319797
v -6.727592 14.773353 -0.944317
v -5.984565 14.773353 -1.967006
v -4.782321 14.773353 -2.357639
v -3.580078 14.773353 -1.967007
v -2.837050 14.773353 -0.944317
v -2.837050 14.773353 0.319797
v -3.580079 14.773353 1.342487
v -4.782322 15.161654 0.890086
v -5.489043 15.161654 0.660458
v -5.925820 15.161654 0.059285
v -5.925820 15.161654 -0.683805
v -5.489042 15.161654 -1.284978
v -4.782321 15.161654 -1.514605
v -4.075601 15.161654 -1.284978
v -3.638824 15.161654 -0.683805
v -3.638824 15.161654 0.059285
v -4.075602 15.161654 0.660458
v -4.782321 11.602654 2.452257
v -6.407264 11.602654 1.924282
v -7.411534 11.602654 0.542023
v -7.411534 11.602654 -1.166543
v -6.407264 11.602654 -2.548801
v -4.782321 11.602654 -3.076778
v -3.157379 11.602654 -2.548801
v -2.153109 11.602654 -1.166543
v -2.153109 11.602654 0.542023
v -3.157380 11.602654 1.924283
v -4.782322 11.047938 1.184289
v -5.661971 11.047938 0.898474
v -6.205625 11.047938 0.150199
v -6.205624 11.047938 -0.774719
v -5.661971 11.047938 -1.522993
v -4.782321 11.047938 -1.808809
v -3.902672 11.047938 -1.522993
v -3.359019 11.047938 -0.774719
v -3.359019 11.047938 0.150199
v -3.902673 11.047938 0.898474
v -4.782322 10.992466 0.518431
v -5.270590 10.992466 0.359783
v -5.572356 10.992466 -0.055562
v -5.572356 10.992466 -0.568957
v -5.270590 10.992466 -0.984303
v -4.782321 10.992466 -1.142951
v -4.294054 10.992466 -0.984303
v -3.992287 10.992466 -0.568958
v -3.992288 10.992466 -0.055562
v -4.294054 10.992466 0.359784
v 4.001534 10.461758 2.993594
v 4.001534 12.118402 2.413607
v 2.058401 10.461758 2.362232
v 2.399308 12.118402 1.893013
v 0.857478 10.461758 0.709305
v 1.409079 12.118402 0.530079
v 0.857479 10.461758 -1.333826
v 1.409079 12.118402 -1.154600
v 2.058401 10.461758 -2.986754
v 2.399309 12.118402 -2.517534
v 4.001534 10.461758 -3.618116
v 4.001534 12.118402 -3.038129
v 5.944667 10.461758 -2.986754
v 5.603759 12.118402 -2.517534
v 7.145589 10.461758 -1.333827
v 6.593988 12.118402 -1.154601
v 7.145589 10.461758 0.709305
v 6.593988 12.118402 0.530080
v 5.944665 10.461758 2.362233
v 5.603758 12.118402 1.893014
v 4.001534 12.883217 1.710430
v 2.812626 12.883217 1.324130
v 2.077840 12.883217 0.312785
v 2.077840 12.883217 -0.937307
v 2.812626 12.883217 -1.948652
v 4.001534 12.883217 -2.334951
v 5.190442 12.883217 -1.948652
v 5.925227 12.883217 -0.937307
v 5.925227 12.883217 0.312785
v 5.190441 12.883217 1.324131
v 4.001534 13.295041 0.876747
v 3.302652 13.295041 0.649667
v 2.870720 13.295041 0.055163
v 2.870719 13.295041 -0.679684
v 3.302652 13.295041 -1.274188
v 4.001534 13.295041 -1.501269
v 4.700415 13.295041 -1.274188
v 5.132348 13.295041 -0.679685
v 5.132347 13.295041 0.055163
v 4.700415 13.295041 0.649667
v 4.001534 9.520447 2.421591
v 2.394615 9.520447 1.899472
v 1.401486 9.520447 0.532546
v 1.401486 9.520447 -1.157068
v 2.394616 9.520447 -2.523993
v 4.001534 9.520447 -3.046113
v 5.608452 9.520447 -2.523993
v 6.601582 9.520447 -1.157068
v 6.601582 9.520447 0.532547
v 5.608451 9.520447 1.899473
v 4.001534 8.932127 1.167688
v 3.131641 8.932127 0.885043
v 2.594019 8.932127 0.145068
v 2.594019 8.932127 -0.769590
v 3.131642 8.932127 -1.509564
v 4.001534 8.932127 -1.792209
v 4.871426 8.932127 -1.509564
v 5.409048 8.932127 -0.769590
v 5.409048 8.932127 0.145069
v 4.871425 8.932127 0.885043
v 4.001534 8.873295 0.509216
v 3.518682 8.873295 0.352328
v 3.220262 8.873295 -0.058410
v 3.220263 8.873295 -0.566111
v 3.518682 8.873295 -0.976849
v 4.001534 8.873295 -1.133737
v 4.484385 8.873295 -0.976849
v 4.782804 8.873295 -0.566111
v 4.782804 8.873295 -0.058410
v 4.484385 8.873295 0.352328
v 2.573548 11.960177 4.895720
v 2.573547 13.145546 4.506072
v 1.268108 11.960177 4.471557
v 1.497137 13.145546 4.156325
v 0.461302 11.960177 3.361084
v 0.831879 13.145546 3.240676
v 0.461302 11.960177 1.988464
v 0.831879 13.145546 2.108871
v 1.268108 11.960177 0.877990
v 1.497138 13.145546 1.193222
v 2.573548 11.960177 0.453828
v 2.573548 13.145546 0.843475
v 3.878987 11.960177 0.877991
v 3.649958 13.145546 1.193222
v 4.685793 11.960177 1.988463
v 4.315216 13.145546 2.108871
v 4.685793 11.960177 3.361084
v 4.315216 13.145546 3.240676
v 3.878986 11.960177 4.471557
v 3.649957 13.145546 4.156325
v 2.573547 13.692789 4.033662
v 1.774813 13.692789 3.774137
v 1.281168 13.692789 3.094693
v 1.281168 13.692789 2.254854
v 1.774813 13.692789 1.575410
v 2.573548 13.692789 1.315885
v 3.372282 13.692789 1.575410
v 3.865927 13.692789 2.254854
v 3.865927 13.692789 3.094693
v 3.372282 13.692789 3.774138
v 2.573548 13.987459 3.473576
v 2.104024 13.987459 3.321018
v 1.813842 13.987459 2.921617
v 1.813842 13.987459 2.427930
v 2.104023 13.987459 2.028529
v 2.573548 13.987459 1.875972
v 3.043072 13.987459 2.028529
v 3.333253 13.987459 2.427930
v 3.333253 13.987459 2.921617
v 3.043072 13.987459 3.321018
v 2.573547 11.286647 4.511436
v 1.493985 11.286647 4.160665
v 0.826778 11.286647 3.242334
v 0.826778 11.286647 2.107214
v 1.493985 11.286647 1.188883
v 2.573548 11.286647 0.838112
v 3.653110 11.286647 1.188883
v 4.320317 11.286647 2.107213
v 4.320317 11.286647 3.242334
v 3.653110 11.286647 4.160666
v 2.573548 10.865690 3.669035
v 1.989135 10.865690 3.479148
v 1.627948 10.865690 2.982018
v 1.627948 10.865690 2.367530
v 1.989135 10.865690 1.870399
v 2.573548 10.865690 1.680512
v 3.157960 10.865690 1.870399
v 3.519147 10.865690 2.367530
v 3.519147 10.865690 2.982018
v 3.157960 10.865690 3.479149
v 2.573548 10.823594 3.226660
v 2.249157 10.823594 3.121259
v 2.048673 10.823594 2.845316
v 2.048673 10.823594 2.504231
v 2.249157 10.823594 2.228288
v 2.573547 10.823594 2.122887
v 2.897938 10.823594 2.228289
v 3.098423 10.823594 2.504231
v 3.098423 10.823594 2.845316
v 2.897938 10.823594 3.121259
v -0.654709 11.780118 6.129384
v -0.654709 13.598927 5.531515
v -2.657753 11.780118 5.478556
v -2.306334 13.598927 4.994870
v -3.895703 11.780118 3.774664
v -3.327095 13.598927 3.589913
v -3.895703 11.780118 1.668539
v -3.327096 13.598927 1.853291
v -2.657753 11.780118 -0.035352
v -2.306334 13.598927 0.448334
v -0.654709 11.780118 -0.686181
v -0.654709 13.598927 -0.088312
v 1.348336 11.780118 -0.035352
v 0.996917 13.598927 0.448334
v 2.586285 11.780118 1.668539
v 2.017677 13.598927 1.853290
v 2.586285 11.780118 3.774665
v 2.017678 13.598927 3.589913
v 1.348335 11.780118 5.478557
v 0.996916 13.598927 4.994870
v -0.654709 14.438608 4.806657
v -1.880274 14.438608 4.408447
v -2.637714 14.438608 3.365919
v -2.637714 14.438608 2.077284
v -1.880273 14.438608 1.034757
v -0.654709 14.438608 0.636546
v 0.570856 14.438608 1.034757
v 1.328296 14.438608 2.077284
v 1.328296 14.438608 3.365920
v 0.570855 14.438608 4.408447
v -0.654709 14.890745 3.947270
v -1.375139 14.890745 3.713189
v -1.820389 14.890745 3.100354
v -1.820389 14.890745 2.342849
v -1.375138 14.890745 1.730016
v -0.654709 14.890745 1.495934
v 0.065721 14.890745 1.730016
v 0.510971 14.890745 2.342849
v 0.510970 14.890745 3.100354
v 0.065720 14.890745 3.713189
v -0.654709 10.746664 5.539745
v -2.311172 10.746664 5.001528
v -3.334923 10.746664 3.592456
v -3.334923 10.746664 1.850748
v -2.311172 10.746664 0.441676
v -0.654709 10.746664 -0.096542
v 1.001754 10.746664 0.441676
v 2.025505 10.746664 1.850747
v 2.025505 10.746664 3.592456
v 1.001753 10.746664 5.001529
v -0.654709 10.100755 4.247181
v -1.551422 10.100755 3.955821
v -2.105621 10.100755 3.193032
v -2.105621 10.100755 2.250172
v -1.551422 10.100755 1.487383
v -0.654709 10.100755 1.196023
v 0.242004 10.100755 1.487383
v 0.796203 10.100755 2.250172
v 0.796203 10.100755 3.193032
v 0.242003 10.100755 3.955822
v -0.654709 10.036164 3.568407
v -1.152449 10.036164 3.406682
v -1.460068 10.036164 2.983279
v -1.460069 10.036164 2.459925
v -1.152448 10.036164 2.036522
v -0.654709 10.036164 1.874797
v -0.156970 10.036164 2.036522
v 0.150650 10.036164 2.459925
v 0.150650 10.036164 2.983279
v -0.156970 10.036164 3.406682
v 1.918204 10.765898 -0.446964
v 1.918204 11.943686 -0.834120
v 0.621113 10.765898 -0.868414
v 0.848678 11.943686 -1.181630
v -0.180534 10.765898 -1.971786
v 0.187674 11.943686 -2.091424
v -0.180534 10.765898 -3.335629
v 0.187674 11.943686 -3.215991
v 0.621113 10.765898 -4.439001
v 0.848678 11.943686 -4.125785
v 1.918204 10.765898 -4.860452
v 1.918204 11.943686 -4.473295
v 3.215296 10.765898 -4.439001
v 2.987731 11.943686 -4.125785
v 4.016942 10.765898 -3.335629
v 3.648735 11.943686 -3.215991
v 4.016943 10.765898 -1.971786
v 3.648735 11.943686 -2.091424
v 3.215295 10.765898 -0.868414
v 2.987731 11.943686 -1.181630
v 1.918204 12.487430 -1.303509
v 1.124578 12.487430 -1.561374
v 0.634089 12.487430 -2.236473
v 0.634089 12.487430 -3.070942
v 1.124578 12.487430 -3.746041
v 1.918204 12.487430 -4.003906
v 2.711831 12.487430 -3.746041
v 3.202319 12.487430 -3.070942
v 3.202319 12.487430 -2.236473
v 2.711830 12.487430 -1.561374
v 1.918204 12.780215 -1.860013
v 1.451683 12.780215 -2.011596
v 1.163357 12.780215 -2.408443
v 1.163357 12.780215 -2.898972
v 1.451683 12.780215 -3.295819
v 1.918204 12.780215 -3.447401
v 2.384726 12.780215 -3.295819
v 2.673052 12.780215 -2.898972
v 2.673052 12.780215 -2.408442
v 2.384726 12.780215 -2.011595
v 1.918204 10.096674 -0.828791
v 0.845545 10.096674 -1.177318
v 0.182605 10.096674 -2.089777
v 0.182605 10.096674 -3.217638
v 0.845545 10.096674 -4.130096
v 1.918204 10.096674 -4.478625
v 2.990864 10.096674 -4.130096
v 3.653804 10.096674 -3.217638
v 3.653804 10.096674 -2.089777
v 2.990863 10.096674 -1.177318
v 1.918204 9.678410 -1.665803
v 1.337529 9.678410 -1.854476
v 0.978652 9.678410 -2.348428
v 0.978652 9.678410 -2.958987
v 1.337529 9.678410 -3.452938
v 1.918204 9.678410 -3.641612
v 2.498880 9.678410 -3.452939
v 2.857757 9.678410 -2.958987
v 2.857757 9.678410 -2.348428
v 2.498879 9.678410 -1.854476
v 1.918204 9.636583 -2.105350
v 1.595888 9.636583 -2.210077
v 1.396686 9.636583 -2.484256
v 1.396685 9.636583 -2.823159
v 1.595888 9.636583 -3.097338
v 1.918204 9.636583 -3.202064
v 2.240520 9.636583 -3.097337
v 2.439723 9.636583 -2.823159
v 2.439723 9.636583 -2.484256
v 2.240520 9.636583 -2.210077
v -1.661696 11.324803 -0.446964
v -1.661696 12.502591 -0.834120
v -2.958788 11.324803 -0.868415
v -2.731223 12.502591 -1.181630
v -3.760434 11.324803 -1.971786
v -3.392227 12.502591 -2.091424
v -3.760434 11.324803 -3.335629
v -3.392226 12.502591 -3.215991
v -2.958787 11.324803 -4.439001
v -2.731223 12.502591 -4.125785
v -1.661696 11.324803 -4.860452
v -1.661696 12.502591 -4.473295
v -0.364604 11.324803 -4.439001
v -0.592169 12.502591 -4.125785
v 0.437042 11.324803 -3.335629
v 0.068835 12.502591 -3.215991
v 0.437042 11.324803 -1.971786
v 0.068835 12.502591 -2.091424
v -0.364605 11.324803 -0.868414
v -0.592170 12.502591 -1.181630
v -1.661696 13.046335 -1.303509
v -2.455323 13.046335 -1.561374
v -2.945811 13.046335 -2.236474
v -2.945811 13.046335 -3.070942
v -2.455323 13.046335 -3.746041
v -1.661696 13.046335 -4.003906
v -0.868069 13.046335 -3.746041
v -0.377581 13.046335 -3.070942
v -0.377581 13.046335 -2.236474
v -0.868070 13.046335 -1.561374
v -1.661696 13.339121 -1.860014
v -2.128217 13.339121 -2.011596
v -2.416543 13.339121 -2.408443
v -2.416543 13.339121 -2.898973
v -2.128217 13.339121 -3.295819
v -1.661696 13.339121 -3.447401
v -1.195175 13.339121 -3.295819
v -0.906849 13.339121 -2.898973
v -0.906848 13.339121 -2.408443
v -1.195175 13.339121 -2.011596
v -1.661696 10.655580 -0.828791
v -2.734355 10.655580 -1.177319
v -3.397295 10.655580 -2.089777
v -3.397295 10.655580 -3.217638
v -2.734355 10.655580 -4.130096
v -1.661696 10.655580 -4.478625
v -0.589037 10.655580 -4.130096
v 0.073903 10.655580 -3.217638
v 0.073904 10.655580 -2.089777
v -0.589037 10.655580 -1.177318
v -1.661696 10.237315 -1.665804
v -2.242371 10.237315 -1.854477
v -2.601249 10.237315 -2.348429
v -2.601249 10.237315 -2.958987
v -2.242372 10.237315 -3.452939
v -1.661696 10.237315 -3.641612
v -1.081021 10.237315 -3.452939
v -0.722143 10.237315 -2.958987
v -0.722144 10.237315 -2.348429
v -1.081021 10.237315 -1.854476
v -1.661696 10.195489 -2.105351
v -1.984012 10.195489 -2.210078
v -2.183215 10.195489 -2.484256
v -2.183214 10.195489 -2.823159
v -1.984012 10.195489 -3.097338
v -1.661696 10.195489 -3.202065
v -1.339380 10.195489 -3.097338
v -1.140178 10.195489 -2.823159
v -1.140177 10.195489 -2.484256
v -1.339380 10.195489 -2.210077
v 0.325666 11.881064 3.320235
v 0.325665 13.819807 2.682941
v -1.809461 11.881064 2.626490
v -1.434870 13.819807 2.110909
v -3.129042 11.881064 0.810242
v -2.522941 13.819807 0.613308
v -3.129042 11.881064 -1.434763
v -2.522940 13.819807 -1.237829
v -1.809461 11.881064 -3.251011
v -1.434870 13.819807 -2.735430
v 0.325666 11.881064 -3.944755
v 0.325666 13.819807 -3.307462
v 2.460793 11.881064 -3.251010
v 2.086201 13.819807 -2.735429
v 3.780373 11.881064 -1.434763
v 3.174272 13.819807 -1.237829
v 3.780374 11.881064 0.810243
v 3.174272 13.819807 0.613308
v 2.460792 11.881064 2.626491
v 2.086200 13.819807 2.110909
v 0.325666 14.714858 1.910285
v -0.980714 14.714858 1.485817
v -1.788101 14.714858 0.374544
v -1.788101 14.714858 -0.999065
v -0.980713 14.714858 -2.110338
v 0.325666 14.714858 -2.534806
v 1.632045 14.714858 -2.110337
v 2.439432 14.714858 -0.999065
v 2.439432 14.714858 0.374544
v 1.632045 14.714858 1.485817
v 0.325666 15.196808 0.994229
v -0.442270 15.196808 0.744712
v -0.916880 15.196808 0.091467
v -0.916880 15.196808 -0.715988
v -0.442270 15.196808 -1.369233
v 0.325666 15.196808 -1.618750
v 1.093601 15.196808 -1.369233
v 1.568211 15.196808 -0.715988
v 1.568211 15.196808 0.091467
v 1.093601 15.196808 0.744712
v 0.325665 10.779464 2.691714
v -1.440027 10.779464 2.118006
v -2.531284 10.779464 0.616019
v -2.531284 10.779464 -1.240540
v -1.440026 10.779464 -2.742527
v 0.325666 10.779464 -3.316235
v 2.091357 10.779464 -2.742526
v 3.182615 10.779464 -1.240540
v 3.182615 10.779464 0.616019
v 2.091357 10.779464 2.118007
v 0.325666 10.090963 1.313916
v -0.630177 10.090963 1.003344
v -1.220920 10.090963 0.190256
v -1.220921 10.090963 -0.814777
v -0.630177 10.090963 -1.627865
v 0.325666 10.090963 -1.938437
v 1.281508 10.090963 -1.627865
v 1.872252 10.090963 -0.814777
v 1.872252 10.090963 0.190256
v 1.281508 10.090963 1.003345
v 0.325666 10.022113 0.590384
v -0.204895 10.022113 0.417994
v -0.532800 10.022113 -0.033328
v -0.532800 10.022113 -0.591193
v -0.204895 10.022113 -1.042515
v 0.325666 10.022113 -1.214904
v 0.856226 10.022113 -1.042514
v 1.184131 10.022113 -0.591193
v 1.184131 10.022113 -0.033328
v 0.856226 10.022113 0.417994
v -1.009239 7.379374 -0.088084
v 0.265187 7.255985 -0.604955
v -1.077222 7.244574 -0.927994
v -0.179588 7.386427 0.111564
v -0.289575 7.168315 -1.247443
v -1.224916 6.677293 -0.867450
v -0.333308 6.752903 0.165129
v -0.442557 6.636646 -1.184755
v -1.157390 6.749143 -0.033179
v 0.108482 6.683375 -0.546580
v -0.509903 4.101190 0.146175
v -1.336570 4.131289 -0.050735
v -1.404308 4.107450 -0.910165
v -0.619496 4.062617 -1.244417
v -0.066728 4.058746 -0.591558
v -0.695527 2.847847 0.473063
v -1.581152 2.826020 0.261548
v -1.653421 2.688735 -0.636241
v -0.812453 2.625716 -0.979598
v -0.220444 2.724051 -0.294006
v -1.602583 1.274794 0.386516
v -1.686573 1.139492 -0.676867
v -0.694337 1.139030 -1.091159
v 0.002877 1.274048 -0.283811
v -0.558448 1.357954 0.629440
v -3.040982 10.266014 -0.589087
v -3.494633 9.437221 -0.816442
v -3.273765 10.037473 -0.084798
v -3.177484 9.895041 -1.041272
v -3.554136 9.525252 -0.225311
v -4.443452 10.656567 -0.944969
v -4.746061 10.359472 -0.289411
v -4.333785 10.954613 -0.581675
v -4.698256 10.288746 -0.764336
v -4.520807 10.770999 -0.176521
v -0.460247 8.931735 1.350353
v -0.636756 8.288298 1.702546
v -0.068741 8.754306 1.531075
v -0.811304 8.643729 1.456326
v -0.177828 8.356642 1.748742
v -0.456876 9.408487 2.208375
v -0.613058 8.926880 2.618152
v -0.110458 9.290296 2.391948
v -0.767504 9.183885 2.348175
v -0.206982 8.992647 2.645203
v -0.765206 9.236348 2.443269
v -0.208511 9.050926 2.741018
v -0.456699 9.457244 2.301117
v -0.611814 8.985228 2.715145
v -0.112646 9.342648 2.485135
v -0.501821 5.832087 -0.699427
v -0.289173 5.443591 -0.592855
v -0.334303 5.376824 -0.144510
v -0.574845 5.724059 -0.040724
v -0.678375 6.005424 -0.316948
v 2.932074 7.418623 -0.491028
v 3.019495 7.258910 -0.447215
v 3.000942 7.231461 -0.262897
v 2.902052 7.374212 -0.192794
v 2.859490 7.489883 -0.333788
v 1.147012 5.977258 -0.021210
v 1.056640 6.222862 -0.320583
v 1.396376 5.732437 -0.561423
v 1.356982 5.674155 -0.170060
v 1.210756 6.071555 -0.654449
v 2.018096 6.460084 -0.082882
v 2.220045 6.261815 -0.520374
v 1.944908 6.658987 -0.325329
v 2.188142 6.214615 -0.203428
v 2.069719 6.536450 -0.595712
v 2.969612 7.424935 -0.427107
v 3.018622 7.335396 -0.402544
v 3.008221 7.320007 -0.299211
v 2.952781 7.400037 -0.259909
v 2.928919 7.464886 -0.338955
v 0.925080 6.206374 -0.320307
v 1.228738 5.651609 -0.168123
v 1.080897 6.053397 -0.657861
v 1.016449 5.958058 -0.022690
v 1.268567 5.710535 -0.563806
v 1.865658 6.620076 -0.324905
v 2.113986 6.166396 -0.200451
v 1.993083 6.494973 -0.600952
v 1.940379 6.417006 -0.077379
v 2.146558 6.214584 -0.524036
vn -0.2318 -0.0030 0.9728
vn -0.9878 0.1373 0.0740
vn -0.3845 0.1064 -0.9170
vn 0.8533 0.0905 0.5135
vn 0.7619 -0.0549 -0.6454
vn 0.8478 -0.1213 0.5163
vn 0.8294 0.2785 0.4842
vn 0.7389 0.1338 -0.6604
vn 0.7458 0.1020 -0.6583
vn -0.3845 -0.0644 -0.9209
vn -0.3715 0.0633 -0.9263
vn -0.9956 -0.0415 0.0839
vn -0.9965 0.0361 0.0748
vn -0.2362 0.1728 0.9562
vn -0.2336 0.0555 0.9707
vn -0.9934 0.0940 0.0653
vn 0.8397 -0.0841 0.5365
vn -0.2341 0.0202 0.9720
vn -0.3728 0.0337 -0.9273
vn 0.7598 -0.0763 -0.6456
vn 0.7512 0.0619 -0.6571
vn -0.9959 -0.0304 0.0855
vn 0.8531 0.0677 0.5173
vn -0.3756 0.0023 -0.9268
vn -0.2340 0.0098 0.9722
vn 0.5188 0.5775 -0.6304
vn -0.7806 -0.6248 0.0145
vn 0.5676 0.6192 0.5426
vn -0.3375 -0.2162 -0.9162
vn -0.2475 -0.1280 0.9604
vn -0.0583 -0.2343 0.9704
vn -0.0546 -0.3284 -0.9429
vn 0.1118 0.8847 0.4526
vn -0.1698 -0.9771 0.1284
vn 0.1007 0.7167 -0.6901
vn -0.1624 -0.1774 0.9707
vn -0.2298 -0.2961 -0.9271
vn 0.3783 0.7649 0.5213
vn -0.5418 -0.8376 0.0702
vn 0.3297 0.6787 -0.6563
vn -0.6304 0.5775 -0.5188
vn 0.0145 -0.6248 0.7806
vn 0.5426 0.6192 -0.5676
vn -0.9162 -0.2162 0.3375
vn 0.9604 -0.1280 0.2475
vn 0.9704 -0.2343 0.0583
vn -0.9160 -0.3925 0.0828
vn 0.4526 0.8847 -0.1118
vn 0.1284 -0.9771 0.1698
vn -0.6482 0.7557 -0.0934
vn 0.9707 -0.1774 0.1624
vn -0.9271 -0.2961 0.2298
vn 0.5213 0.7649 -0.3783
vn 0.0702 -0.8376 0.5418
vn -0.6563 0.6787 -0.3297
vn -0.6304 0.2891 -0.7204
vn 0.0145 -0.2160 0.9763
vn 0.5426 0.3050 -0.7826
vn -0.9162 -0.0450 0.3982
vn 0.9604 -0.0056 0.2786
vn 0.9711 -0.1549 0.1816
vn -0.9229 -0.2724 0.2721
vn 0.4929 0.6851 -0.5363
vn 0.0941 -0.7332 0.6735
vn -0.6500 0.6077 -0.4562
vn 0.7544 -0.1413 -0.6410
vn -0.3723 0.0628 -0.9260
vn -0.2340 0.0377 0.9715
vn 0.8324 -0.1553 0.5319
vn -0.9827 0.1733 0.0646
vn -0.2910 0.3363 0.8957
vn -0.7619 0.3363 0.5536
vn -0.9418 0.3363 -0.0000
vn -0.7619 0.3363 -0.5536
vn -0.2910 0.3363 -0.8957
vn 0.2910 0.3363 -0.8957
vn 0.7619 0.3363 -0.5536
vn 0.9418 0.3363 -0.0000
vn 0.7294 0.6840 -0.0000
vn 0.7619 0.3363 0.5536
vn 0.2910 0.3363 0.8957
vn 0.5901 0.6841 0.4288
vn 0.5901 0.6840 -0.4288
vn 0.2254 0.6841 -0.6937
vn -0.2254 0.6840 -0.6937
vn -0.5901 0.6840 -0.4288
vn -0.2254 0.6841 0.6937
vn -0.7294 0.6841 -0.0000
vn -0.5901 0.6840 0.4288
vn 0.2254 0.6841 0.6937
vn 0.3526 0.9000 -0.2562
vn -0.3526 0.9000 -0.2562
vn -0.1347 0.9000 0.4145
vn 0.4359 0.9000 -0.0000
vn -0.1347 0.9000 -0.4145
vn -0.3526 0.9000 0.2562
vn 0.3526 0.9000 0.2562
vn 0.1347 0.9000 -0.4145
vn -0.4359 0.9000 -0.0000
vn 0.1347 0.9000 0.4145
vn 0.6876 -0.5268 -0.4996
vn 0.2627 -0.5268 -0.8084
vn -0.2627 -0.5268 -0.8084
vn -0.6876 -0.5268 -0.4996
vn -0.2627 -0.5268 0.8084
vn -0.8500 -0.5268 -0.0000
vn -0.6876 -0.5268 0.4996
vn 0.2627 -0.5268 0.8084
vn 0.6876 -0.5268 0.4996
vn 0.8500 -0.5268 -0.0000
vn -0.1291 -0.9085 0.3975
vn 0.4179 -0.9085 -0.0000
vn -0.1291 -0.9085 -0.3975
vn -0.3381 -0.9085 0.2456
vn 0.3381 -0.9085 0.2456
vn 0.1291 -0.9085 -0.3975
vn -0.4179 -0.9085 -0.0000
vn 0.1291 -0.9085 0.3975
vn 0.3381 -0.9085 -0.2456
vn -0.3381 -0.9085 -0.2456
vn -0.0270 -0.9962 -0.0830
vn -0.0706 -0.9962 0.0513
vn 0.0706 -0.9962 0.0513
vn 0.0270 -0.9962 -0.0830
vn -0.0873 -0.9962 -0.0000
vn 0.0270 -0.9962 0.0830
vn 0.0706 -0.9962 -0.0513
vn -0.0706 -0.9962 -0.0513
vn -0.0270 -0.9962 0.0830
vn 0.0873 -0.9962 -0.0000
vn -0.0000 1.0000 -0.0000
vn -0.0000 -1.0000 -0.0000
vn -0.2932 0.3159 0.9024
vn -0.7676 0.3159 0.5577
vn -0.9488 0.3159 -0.0000
vn -0.7676 0.3159 -0.5577
vn -0.2932 0.3159 -0.9024
vn 0.2932 0.3159 -0.9024
vn 0.7676 0.3159 -0.5577
vn 0.9488 0.3159 -0.0000
vn 0.7528 0.6583 -0.0000
vn 0.7676 0.3159 0.5577
vn 0.2932 0.3159 0.9024
vn 0.6090 0.6583 0.4425
vn 0.6090 0.6583 -0.4425
vn 0.2326 0.6583 -0.7160
vn -0.2326 0.6583 -0.7160
vn -0.6090 0.6583 -0.4425
vn -0.2326 0.6583 0.7160
vn -0.7528 0.6583 -0.0000
vn -0.6090 0.6583 0.4425
vn 0.2326 0.6583 0.7160
vn 0.3729 0.8874 -0.2709
vn -0.3729 0.8874 -0.2709
vn -0.1424 0.8874 0.4384
vn 0.4609 0.8874 -0.0000
vn -0.1424 0.8874 -0.4384
vn -0.3729 0.8874 0.2709
vn 0.3729 0.8874 0.2709
vn 0.1424 0.8874 -0.4384
vn -0.4609 0.8874 -0.0000
vn 0.1424 0.8874 0.4384
vn 0.7005 -0.5004 -0.5089
vn 0.2676 -0.5004 -0.8234
vn -0.2676 -0.5004 -0.8234
vn -0.7005 -0.5004 -0.5089
vn -0.2675 -0.5004 0.8234
vn -0.8658 -0.5004 -0.0000
vn -0.7005 -0.5004 0.5089
vn 0.2675 -0.5004 0.8234
vn 0.7005 -0.5004 0.5089
vn 0.8658 -0.5004 -0.0000
vn -0.1367 -0.8968 0.4208
vn 0.4424 -0.8968 -0.0000
vn -0.1367 -0.8968 -0.4208
vn -0.3579 -0.8968 0.2601
vn 0.3579 -0.8968 0.2601
vn 0.1367 -0.8968 -0.4208
vn -0.4424 -0.8968 -0.0000
vn 0.1367 -0.8968 0.4208
vn 0.3579 -0.8968 -0.2601
vn -0.3579 -0.8968 -0.2601
vn -0.0289 -0.9956 -0.0890
vn -0.0757 -0.9956 0.0550
vn 0.0757 -0.9956 0.0550
vn 0.0289 -0.9956 -0.0890
vn -0.0935 -0.9956 -0.0000
vn 0.0289 -0.9956 0.0890
vn 0.0757 -0.9956 -0.0550
vn -0.0757 -0.9956 -0.0550
vn -0.0289 -0.9956 0.0890
vn 0.0935 -0.9956 -0.0000
vn -0.2949 0.2984 0.9077
vn -0.7722 0.2984 0.5610
vn -0.9544 0.2984 -0.0000
vn -0.7722 0.2984 -0.5610
vn -0.2949 0.2984 -0.9077
vn 0.2949 0.2984 -0.9077
vn 0.7722 0.2984 -0.5610
vn 0.9544 0.2984 -0.0000
vn 0.7729 0.6345 -0.0000
vn 0.7722 0.2984 0.5610
vn 0.2949 0.2984 0.9077
vn 0.6253 0.6345 0.4543
vn 0.6253 0.6345 -0.4543
vn 0.2388 0.6345 -0.7351
vn -0.2388 0.6345 -0.7351
vn -0.6253 0.6345 -0.4543
vn -0.2388 0.6345 0.7351
vn -0.7729 0.6345 -0.0000
vn -0.6253 0.6345 0.4543
vn 0.2388 0.6345 0.7351
vn 0.3916 0.8750 -0.2845
vn -0.3916 0.8750 -0.2845
vn -0.1496 0.8750 0.4604
vn 0.4841 0.8750 -0.0000
vn -0.1496 0.8750 -0.4604
vn -0.3916 0.8750 0.2845
vn 0.3916 0.8750 0.2845
vn 0.1496 0.8750 -0.4604
vn -0.4841 0.8750 -0.0000
vn 0.1496 0.8750 0.4604
vn 0.7111 -0.4769 -0.5166
vn 0.2716 -0.4769 -0.8359
vn -0.2716 -0.4769 -0.8359
vn -0.7111 -0.4769 -0.5166
vn -0.2716 -0.4769 0.8359
vn -0.8789 -0.4769 -0.0000
vn -0.7111 -0.4769 0.5166
vn 0.2716 -0.4769 0.8359
vn 0.7111 -0.4769 0.5166
vn 0.8789 -0.4769 -0.0000
vn -0.1437 -0.8852 0.4424
vn 0.4651 -0.8852 -0.0000
vn -0.1437 -0.8852 -0.4424
vn -0.3763 -0.8852 0.2734
vn 0.3763 -0.8852 0.2734
vn 0.1437 -0.8852 -0.4424
vn -0.4651 -0.8852 -0.0000
vn 0.1437 -0.8852 0.4424
vn 0.3763 -0.8852 -0.2734
vn -0.3763 -0.8852 -0.2734
vn -0.0308 -0.9950 -0.0947
vn -0.0805 -0.9950 0.0585
vn 0.0805 -0.9950 0.0585
vn 0.0308 -0.9950 -0.0947
vn -0.0996 -0.9950 -0.0000
vn 0.0308 -0.9950 0.0947
vn 0.0805 -0.9950 -0.0585
vn -0.0805 -0.9950 -0.0585
vn -0.0308 -0.9950 0.0947
vn 0.0996 -0.9950 -0.0000
vn 0.7316 -0.3290 -0.5971
vn -0.3775 -0.0287 -0.9256
vn -0.2315 0.1737 0.9572
vn 0.8272 -0.1664 0.5368
vn -0.9618 0.2701 0.0445
vn -0.9955 0.0554 0.0764
vn 0.8505 -0.0527 0.5234
vn -0.2327 0.0110 0.9725
vn -0.3821 0.0337 -0.9235
vn 0.7602 -0.0356 -0.6488
vn 0.8530 -0.0080 0.5219
vn 0.7351 -0.2979 -0.6090
vn -0.3893 -0.1569 -0.9076
vn -0.9710 0.2327 0.0556
vn -0.2154 0.3316 0.9185
vn -0.2318 0.0556 0.9712
vn -0.9966 0.0361 0.0744
vn -0.3792 0.0630 -0.9232
vn 0.7450 0.1020 -0.6592
vn 0.8526 0.0905 0.5147
vn -0.2293 0.1524 0.9613
vn -0.9959 -0.0407 0.0811
vn -0.3844 -0.0672 -0.9207
vn 0.7451 0.1317 -0.6538
vn 0.8305 0.2454 0.5000
vn -0.6425 0.6018 -0.4744
vn 0.0526 -0.7174 0.6947
vn 0.5286 0.6558 -0.5390
vn -0.9241 -0.2618 0.2783
vn 0.9687 -0.1552 0.1937
vn -0.6471 0.6747 -0.3550
vn 0.1045 -0.8509 0.5148
vn 0.4812 0.7723 -0.4148
vn -0.9192 -0.3336 0.2094
vn 0.9704 -0.1994 0.1358
vn -0.5188 0.5775 0.6304
vn 0.7806 -0.6248 -0.0145
vn -0.5676 0.6192 -0.5426
vn 0.3375 -0.2162 0.9162
vn 0.2475 -0.1280 -0.9604
vn 0.0583 -0.2343 -0.9704
vn 0.0656 -0.3966 0.9156
vn -0.1118 0.8847 -0.4526
vn 0.1698 -0.9771 -0.1284
vn -0.1051 0.7503 0.6527
vn 0.1624 -0.1774 -0.9707
vn 0.2298 -0.2961 0.9271
vn -0.3784 0.7649 -0.5213
vn 0.5418 -0.8376 -0.0702
vn -0.3297 0.6787 0.6563
vn 0.3202 0.7775 0.5412
vn 0.9947 -0.0434 0.0937
vn 0.3082 0.9119 -0.2710
vn 0.7428 0.2009 0.6387
vn 0.8081 0.3039 -0.5046
vn 0.8465 0.5075 0.1608
vn -0.1004 0.7139 0.6930
vn 0.0538 -0.3230 0.9449
vn -0.3783 0.7649 -0.5213
vt 0.816333 0.693686
vt 0.815981 0.672077
vt 0.821930 0.670436
vt 0.822334 0.692031
vt 0.822418 0.671736
vt 0.822826 0.693342
vt 0.816769 0.674180
vt 0.817128 0.695808
vt 0.814231 0.769425
vt 0.814478 0.753793
vt 0.817814 0.746382
vt 0.817680 0.762617
vt 0.562175 0.789765
vt 0.561933 0.771834
vt 0.559248 0.772008
vt 0.559467 0.789941
vt 0.561401 0.770090
vt 0.561638 0.788006
vt 0.812610 0.849171
vt 0.813251 0.831483
vt 0.817150 0.827069
vt 0.816685 0.844556
vt 0.562542 0.923077
vt 0.562827 0.908144
vt 0.559559 0.902255
vt 0.559126 0.916920
vt 0.818529 0.774833
vt 0.818639 0.758775
vt 0.824875 0.856571
vt 0.824985 0.838562
vt 0.818093 0.838587
vt 0.817672 0.856596
vt 0.567242 0.852412
vt 0.567183 0.838379
vt 0.563195 0.841972
vt 0.563121 0.855286
vt 0.566993 0.916886
vt 0.567085 0.902223
vt 0.567478 0.908124
vt 0.567405 0.923056
vt 0.566888 0.846152
vt 0.566839 0.832029
vt 0.561876 0.913094
vt 0.562190 0.898595
vt 0.824037 0.746783
vt 0.824110 0.763817
vt 0.820451 0.520809
vt 0.819958 0.513395
vt 0.819706 0.493280
vt 0.820201 0.500706
vt 0.813934 0.513007
vt 0.810705 0.520181
vt 0.810439 0.500077
vt 0.813673 0.492892
vt 0.814733 0.525003
vt 0.814473 0.504906
vt 0.817030 0.177686
vt 0.813909 0.173950
vt 0.821078 0.168692
vt 0.821461 0.174437
vt 0.816411 0.168391
vt 0.844095 0.316767
vt 0.844891 0.333159
vt 0.853981 0.261949
vt 0.853500 0.252041
vt 0.846741 0.353388
vt 0.847088 0.349498
vt 0.855309 0.271825
vt 0.855099 0.274176
vt 0.845452 0.326865
vt 0.854320 0.258145
vt 0.817896 0.427318
vt 0.815492 0.394041
vt 0.834857 0.373529
vt 0.836956 0.402576
vt 0.814666 0.403294
vt 0.817386 0.433037
vt 0.836510 0.407569
vt 0.834136 0.381606
vt 0.813496 0.379194
vt 0.833114 0.360569
vt 0.838434 0.395378
vt 0.836399 0.367207
vt 0.844570 0.333708
vt 0.846269 0.357232
vt 0.835700 0.375041
vt 0.838002 0.400220
vt 0.845909 0.361275
vt 0.843986 0.340249
vt 0.834709 0.354638
vt 0.843158 0.323212
vt 0.824700 0.150067
vt 0.823499 0.165245
vt 0.824043 0.095489
vt 0.824742 0.086662
vt 0.824096 0.183977
vt 0.825667 0.180375
vt 0.825304 0.104288
vt 0.824391 0.106382
vt 0.826040 0.159418
vt 0.825521 0.092100
vt 0.826026 0.242813
vt 0.826554 0.213167
vt 0.826331 0.194893
vt 0.825870 0.220771
vt 0.822959 0.221410
vt 0.823804 0.247907
vt 0.823931 0.225218
vt 0.823193 0.202089
vt 0.824659 0.199940
vt 0.824677 0.183347
vt 0.815928 0.375622
vt 0.817946 0.384839
vt 0.817031 0.308507
vt 0.815857 0.303147
vt 0.816943 0.393994
vt 0.814304 0.390435
vt 0.814913 0.311761
vt 0.816448 0.313831
vt 0.813677 0.379081
vt 0.814548 0.305158
vt 0.813922 0.459648
vt 0.813130 0.437778
vt 0.813188 0.435423
vt 0.813962 0.456808
vt 0.563115 0.580872
vt 0.562260 0.597079
vt 0.562238 0.594655
vt 0.563074 0.578808
vt 0.815972 0.428019
vt 0.815967 0.425881
vt 0.560011 0.593963
vt 0.560039 0.591608
vt 0.818521 0.443859
vt 0.818460 0.441369
vt 0.814144 0.421464
vt 0.813448 0.405421
vt 0.818186 0.411267
vt 0.817072 0.425078
vt 0.815946 0.399118
vt 0.811843 0.551673
vt 0.815844 0.554243
vt 0.815621 0.545017
vt 0.811615 0.542444
vt 0.561308 0.672393
vt 0.565142 0.670539
vt 0.564997 0.662887
vt 0.561158 0.664743
vt 0.564811 0.667263
vt 0.560773 0.667091
vt 0.560622 0.659435
vt 0.564666 0.659607
vt 0.815050 0.547849
vt 0.814827 0.538615
vt 0.443081 0.389264
vt 0.435752 0.712041
vt 0.448336 0.712041
vt 0.458343 0.389264
vt 0.456113 0.712041
vt 0.467775 0.389264
vt 0.423168 0.712041
vt 0.427820 0.389264
vt 0.415391 0.712041
vt 0.418388 0.389264
vt 0.420643 0.628603
vt 0.426414 0.628603
vt 0.435752 0.628603
vt 0.445090 0.628603
vt 0.450861 0.628603
vt 0.430263 0.653727
vt 0.426871 0.653727
vt 0.444633 0.653727
vt 0.441241 0.653727
vt 0.435752 0.653727
vt 0.415331 0.390473
vt 0.423131 0.390473
vt 0.435752 0.390473
vt 0.448373 0.390473
vt 0.456173 0.390473
vt 0.442584 0.387564
vt 0.435752 0.387564
vt 0.424697 0.387564
vt 0.446807 0.387564
vt 0.428920 0.387564
vt 0.435752 0.383975
vt 0.439544 0.383975
vt 0.441888 0.383975
vt 0.431960 0.383975
vt 0.429616 0.383975
vt 0.435148 0.414262
vt 0.433316 0.596229
vt 0.449380 0.596229
vt 0.454630 0.414262
vt 0.459308 0.596229
vt 0.466671 0.414262
vt 0.417252 0.596229
vt 0.415666 0.414262
vt 0.407323 0.596229
vt 0.403625 0.414262
vt 0.399370 0.721382
vt 0.406737 0.721382
vt 0.418657 0.721382
vt 0.430577 0.721382
vt 0.437944 0.721382
vt 0.426309 0.659099
vt 0.421978 0.659099
vt 0.444654 0.659099
vt 0.440323 0.659099
vt 0.433316 0.659099
vt 0.409080 0.418936
vt 0.419037 0.418936
vt 0.435148 0.418936
vt 0.451259 0.418936
vt 0.461217 0.418936
vt 0.443870 0.387501
vt 0.435148 0.387501
vt 0.421036 0.387501
vt 0.449260 0.387501
vt 0.426427 0.387501
vt 0.435148 0.384357
vt 0.439989 0.384357
vt 0.442981 0.384357
vt 0.439989 0.384357
vt 0.430307 0.384357
vt 0.427315 0.384357
vt 0.435969 0.424800
vt 0.430472 0.594396
vt 0.443617 0.594396
vt 0.451911 0.424800
vt 0.451741 0.594396
vt 0.461764 0.424800
vt 0.451741 0.594396
vt 0.461764 0.424800
vt 0.443617 0.594396
vt 0.451911 0.424800
vt 0.430472 0.594396
vt 0.435969 0.424800
vt 0.417327 0.594396
vt 0.420028 0.424800
vt 0.409203 0.594396
vt 0.410175 0.424800
vt 0.409203 0.594396
vt 0.410175 0.424800
vt 0.411025 0.712287
vt 0.417327 0.594396
vt 0.420028 0.424800
vt 0.417054 0.712287
vt 0.426808 0.712287
vt 0.436562 0.712287
vt 0.442590 0.712287
vt 0.424739 0.643275
vt 0.421195 0.643275
vt 0.439750 0.643275
vt 0.436206 0.643275
vt 0.430472 0.643275
vt 0.436206 0.643275
vt 0.430472 0.643275
vt 0.424739 0.643275
vt 0.409141 0.429674
vt 0.417289 0.429674
vt 0.430472 0.429674
vt 0.443656 0.429674
vt 0.451804 0.429674
vt 0.443106 0.423558
vt 0.435969 0.423558
vt 0.424422 0.423558
vt 0.447517 0.423558
vt 0.428833 0.423558
vt 0.435969 0.421114
vt 0.439931 0.421114
vt 0.442379 0.421114
vt 0.432008 0.421114
vt 0.429560 0.421114
vt 0.430332 0.411181
vt 0.424835 0.567151
vt 0.437125 0.567151
vt 0.445237 0.411181
vt 0.444721 0.567151
vt 0.454449 0.411181
vt 0.454449 0.411181
vt 0.445237 0.411181
vt 0.430332 0.411181
vt 0.412546 0.567151
vt 0.415428 0.411181
vt 0.404950 0.567151
vt 0.406216 0.411181
vt 0.406216 0.411181
vt 0.421074 0.696226
vt 0.421074 0.696226
vt 0.415428 0.411181
vt 0.426710 0.696226
vt 0.426710 0.696226
vt 0.435829 0.696226
vt 0.444949 0.696226
vt 0.450585 0.696226
vt 0.435829 0.696226
vt 0.444949 0.696226
vt 0.450585 0.696226
vt 0.419475 0.588132
vt 0.416162 0.588132
vt 0.433509 0.588132
vt 0.430196 0.588132
vt 0.424835 0.588132
vt 0.408557 0.412720
vt 0.416174 0.412720
vt 0.428500 0.412720
vt 0.440826 0.412720
vt 0.448444 0.412720
vt 0.431508 0.420553
vt 0.424835 0.420553
vt 0.414039 0.420553
vt 0.414039 0.420553
vt 0.424835 0.420553
vt 0.431508 0.420553
vt 0.435632 0.420553
vt 0.418163 0.420553
vt 0.418163 0.420553
vt 0.435632 0.420553
vt 0.424835 0.419504
vt 0.428539 0.419504
vt 0.430828 0.419504
vt 0.428539 0.419504
vt 0.421132 0.419504
vt 0.418843 0.419504
vt 0.421132 0.419504
vt 0.424835 0.419504
vt 0.436076 0.422962
vt 0.430790 0.606766
vt 0.437921 0.606766
vt 0.444725 0.422962
vt 0.442329 0.606766
vt 0.450071 0.422962
vt 0.423658 0.606766
vt 0.427428 0.422962
vt 0.419251 0.606766
vt 0.422082 0.422962
vt 0.425752 0.719944
vt 0.427428 0.422962
vt 0.429022 0.719944
vt 0.434314 0.719944
vt 0.439606 0.719944
vt 0.442877 0.719944
vt 0.439606 0.719944
vt 0.427679 0.685995
vt 0.425756 0.685995
vt 0.435823 0.685995
vt 0.433900 0.685995
vt 0.430790 0.685995
vt 0.419217 0.431830
vt 0.423637 0.431830
vt 0.430790 0.431830
vt 0.437942 0.431830
vt 0.442362 0.431830
vt 0.434662 0.392216
vt 0.430790 0.392216
vt 0.424525 0.392216
vt 0.437055 0.392216
vt 0.426918 0.392216
vt 0.430790 0.388254
vt 0.432939 0.388254
vt 0.434267 0.388254
vt 0.428641 0.388254
vt 0.427312 0.388254
vt 0.419893 0.417904
vt 0.420657 0.505390
vt 0.429851 0.505390
vt 0.431044 0.417904
vt 0.435534 0.505390
vt 0.437936 0.417904
vt 0.411462 0.505390
vt 0.408742 0.417904
vt 0.405779 0.505390
vt 0.401850 0.417904
vt 0.410380 0.637225
vt 0.414597 0.637225
vt 0.421420 0.637225
vt 0.428243 0.637225
vt 0.432460 0.637225
vt 0.416646 0.514377
vt 0.414167 0.514377
vt 0.427146 0.514377
vt 0.424667 0.514377
vt 0.420657 0.514377
vt 0.404972 0.410714
vt 0.410671 0.410714
vt 0.419893 0.410714
vt 0.429115 0.410714
vt 0.434814 0.410714
vt 0.424885 0.406220
vt 0.419893 0.406220
vt 0.411816 0.406220
vt 0.419893 0.406220
vt 0.424885 0.406220
vt 0.427970 0.406220
vt 0.414901 0.406220
vt 0.414901 0.406220
vt 0.419893 0.405771
vt 0.422664 0.405771
vt 0.424376 0.405771
vt 0.417122 0.405771
vt 0.415409 0.405771
vt 0.416396 0.394132
vt 0.423725 0.633442
vt 0.438944 0.633442
vt 0.425459 0.394132
vt 0.448349 0.633442
vt 0.431060 0.394132
vt 0.408507 0.633442
vt 0.407333 0.394132
vt 0.399102 0.633442
vt 0.401732 0.394132
vt 0.405454 0.727884
vt 0.407333 0.394132
vt 0.412433 0.727884
vt 0.423725 0.727884
vt 0.435018 0.727884
vt 0.441997 0.727884
vt 0.420752 0.643426
vt 0.416649 0.643426
vt 0.438131 0.643426
vt 0.434028 0.643426
vt 0.427390 0.643426
vt 0.404269 0.399897
vt 0.408901 0.399897
vt 0.416396 0.399897
vt 0.423891 0.399897
vt 0.428523 0.399897
vt 0.420453 0.379451
vt 0.416396 0.379451
vt 0.409831 0.379451
vt 0.422961 0.379451
vt 0.412339 0.379451
vt 0.416396 0.377406
vt 0.418648 0.377406
vt 0.420040 0.377406
vt 0.414144 0.377406
vt 0.412752 0.377406
vt 0.821309 0.542779
vt 0.820818 0.538822
vt 0.821033 0.548056
vt 0.821524 0.552008
vt 0.812791 0.674391
vt 0.813115 0.696020
vt 0.824547 0.754442
vt 0.824401 0.831444
vt 0.824635 0.771367
vt 0.815124 0.914618
vt 0.824266 0.849130
vt 0.823809 0.914618
vt 0.824508 0.914618
vt 0.816254 0.914618
vt 0.810455 0.914618
vt 0.572966 0.511815
vt 0.573655 0.529258
vt 0.574711 0.523814
vt 0.574042 0.506898
vt 0.575258 0.550783
vt 0.575559 0.546644
vt 0.576557 0.540676
vt 0.576265 0.544690
vt 0.581845 0.509049
vt 0.580698 0.489545
vt 0.581294 0.483871
vt 0.582398 0.502636
vt 0.579745 0.480842
vt 0.580377 0.475499
vt 0.815998 0.439593
vt 0.818853 0.457336
vt 0.817433 0.479233
vt 0.813701 0.475023
vt 0.817254 0.463407
vt 0.812814 0.450524
vt 0.818203 0.414152
vt 0.815948 0.401800
vt 0.817220 0.460483
vt 0.814133 0.424670
vt 0.817082 0.428287
vt 0.813433 0.408300
vt 0.561379 0.546000
vt 0.562901 0.556242
vt 0.562890 0.553850
vt 0.561378 0.543777
vt 0.559681 0.551390
vt 0.559692 0.549002
vt 0.796890 0.453896
vt 0.796248 0.467117
vt 0.788492 0.406355
vt 0.788865 0.398667
vt 0.794756 0.483433
vt 0.794476 0.480296
vt 0.787461 0.414019
vt 0.787624 0.415844
vt 0.795795 0.462041
vt 0.788228 0.403403
vt 0.802825 0.516939
vt 0.804471 0.494149
vt 0.803332 0.492942
vt 0.801703 0.515483
vt 0.805037 0.500486
vt 0.803174 0.520856
vt 0.802049 0.519357
vt 0.803891 0.499210
vt 0.805839 0.483981
vt 0.804684 0.482885
vt 0.554555 0.614137
vt 0.554014 0.627822
vt 0.553241 0.626764
vt 0.553776 0.613229
vt 0.795121 0.483435
vt 0.796467 0.464798
vt 0.548542 0.602529
vt 0.547514 0.616341
vt 0.547075 0.613683
vt 0.548082 0.600155
vt 0.797586 0.456482
vt 0.547321 0.613685
vt 0.546886 0.611082
vt 0.796930 0.469980
vt 0.788046 0.404639
vt 0.788256 0.400328
vt 0.787469 0.408935
vt 0.787560 0.409958
vt 0.787899 0.402984
vt 0.819909 0.497338
vt 0.819000 0.516040
vt 0.816890 0.539121
vt 0.816494 0.534683
vt 0.818359 0.508860
vt 0.795407 0.486638
s 0
usemtl Material.001
f 596/1/1 2/2/1 4/3/1 597/4/1
f 597/4/2 4/3/2 6/5/2 598/6/2
f 598/6/3 6/5/3 8/7/3 599/8/3
f 605/9/4 19/10/4 12/11/4 601/12/4
f 599/13/5 8/14/5 10/15/5 600/16/5
f 600/16/6 10/15/6 2/17/6 596/18/6
f 609/19/7 20/20/7 11/21/7 610/22/7
f 608/23/8 18/24/8 20/25/8 609/26/8
f 604/27/9 17/28/9 19/10/9 605/9/9
f 607/29/10 16/30/10 18/31/10 608/32/10
f 603/33/11 15/34/11 17/35/11 604/36/11
f 606/37/12 14/38/12 16/39/12 607/40/12
f 602/41/13 13/42/13 15/34/13 603/33/13
f 610/43/14 11/44/14 14/38/14 606/37/14
f 601/12/15 12/11/15 13/45/15 602/46/15
f 588/47/16 586/48/16 22/49/16 23/50/16
f 589/51/17 587/52/17 25/53/17 21/54/17
f 586/48/18 589/51/18 21/54/18 22/49/18
f 590/55/19 588/47/19 23/50/19 24/56/19
f 587/52/20 590/55/20 24/56/20 25/53/20
f 25/53/21 24/56/21 29/57/21 30/58/21
f 23/50/22 22/49/22 27/59/22 28/60/22
f 21/54/23 25/53/23 30/58/23 26/61/23
f 24/56/24 23/50/24 28/60/24 29/57/24
f 22/49/25 21/54/25 26/61/25 27/59/25
f 618/62/26 616/63/26 39/64/26 40/65/26
f 619/66/27 617/67/27 37/68/27 38/69/27
f 620/70/28 618/62/28 40/65/28 36/71/28
f 616/63/29 619/66/29 38/69/29 39/64/29
f 617/67/30 620/70/30 36/71/30 37/68/30
f 32/72/31 31/73/31 45/74/31 43/75/31
f 34/76/32 33/77/32 44/78/32 41/79/32
f 31/73/33 35/80/33 42/81/33 45/74/33
f 33/77/34 32/72/34 43/75/34 44/78/34
f 35/80/35 34/76/35 41/79/35 42/81/35
f 615/82/36 613/83/36 50/84/36 47/85/36
f 614/86/37 612/87/37 49/88/37 46/89/37
f 613/83/38 611/90/38 48/91/38 50/84/38
f 612/87/39 615/82/39 47/85/39 49/88/39
f 611/90/40 614/86/40 46/89/40 48/91/40
f 68/92/41 66/93/41 59/94/41 60/95/41
f 69/96/42 67/97/42 57/98/42 58/99/42
f 70/100/43 68/92/43 60/95/43 56/101/43
f 66/93/44 69/96/44 58/99/44 59/94/44
f 67/97/45 70/100/45 56/101/45 57/98/45
f 52/102/46 51/103/46 65/104/46 63/105/46
f 54/106/47 53/107/47 64/108/47 61/109/47
f 51/103/48 55/110/48 62/111/48 65/104/48
f 53/107/49 52/102/49 63/105/49 64/108/49
f 55/110/50 54/106/50 61/109/50 62/111/50
f 63/105/51 65/104/51 70/100/51 67/97/51
f 61/109/52 64/108/52 69/96/52 66/93/52
f 65/104/53 62/111/53 68/92/53 70/100/53
f 64/108/54 63/105/54 67/97/54 69/96/54
f 62/111/55 61/109/55 66/93/55 68/92/55
f 88/112/56 86/113/56 79/114/56 80/115/56
f 89/116/57 87/117/57 77/118/57 78/119/57
f 90/120/58 88/112/58 80/115/58 76/121/58
f 86/113/59 89/116/59 78/119/59 79/114/59
f 87/117/60 90/120/60 76/121/60 77/118/60
f 625/122/46 623/123/46 85/124/46 83/125/46
f 624/126/47 622/127/47 84/128/47 81/129/47
f 623/123/48 621/130/48 82/131/48 85/124/48
f 622/127/49 625/132/49 83/133/49 84/128/49
f 621/130/50 624/134/50 81/135/50 82/131/50
f 632/136/61 635/137/61 90/120/61 87/117/61
f 631/138/62 634/139/62 89/116/62 86/113/62
f 635/137/63 633/140/63 88/112/63 90/120/63
f 634/139/64 632/136/64 87/117/64 89/116/64
f 633/140/65 631/138/65 86/113/65 88/112/65
f 595/141/66 593/142/66 95/143/66 93/144/66
f 593/145/67 591/146/67 92/147/67 95/148/67
f 594/149/68 592/150/68 94/151/68 91/152/68
f 592/153/69 595/141/69 93/144/69 94/154/69
f 591/146/70 594/149/70 91/152/70 92/147/70
f 96/155/71 97/156/71 99/157/71 98/158/71
f 98/158/72 99/157/72 101/159/72 100/160/72
f 100/160/73 101/159/73 103/159/73 102/160/73
f 102/160/74 103/159/74 105/157/74 104/158/74
f 104/158/75 105/157/75 107/156/75 106/155/75
f 106/155/76 107/156/76 109/161/76 108/162/76
f 108/162/77 109/161/77 111/163/77 110/164/77
f 110/164/78 111/163/78 113/163/78 112/164/78
f 113/163/79 111/163/79 123/165/79 124/165/79
f 112/164/80 113/163/80 115/161/80 114/162/80
f 114/162/81 115/161/81 97/156/81 96/155/81
f 115/161/82 113/163/82 124/165/82 125/166/82
f 111/163/83 109/161/83 122/166/83 123/165/83
f 109/161/84 107/156/84 121/167/84 122/166/84
f 107/156/85 105/157/85 120/168/85 121/167/85
f 105/157/86 103/159/86 119/169/86 120/168/86
f 99/157/87 97/156/87 116/167/87 117/168/87
f 103/159/88 101/159/88 118/169/88 119/169/88
f 101/159/89 99/157/89 117/168/89 118/169/89
f 97/156/90 115/161/90 125/166/90 116/167/90
f 123/165/91 122/166/91 132/170/91 133/171/91
f 120/168/92 119/169/92 129/172/92 130/173/92
f 117/168/93 116/167/93 126/174/93 127/173/93
f 124/165/94 123/165/94 133/171/94 134/171/94
f 121/167/95 120/168/95 130/173/95 131/174/95
f 118/169/96 117/168/96 127/173/96 128/172/96
f 125/166/97 124/165/97 134/171/97 135/170/97
f 122/166/98 121/167/98 131/174/98 132/170/98
f 119/169/99 118/169/99 128/172/99 129/172/99
f 116/167/100 125/166/100 135/170/100 126/174/100
f 108/162/101 110/164/101 143/175/101 142/176/101
f 106/155/102 108/162/102 142/176/102 141/177/102
f 104/158/103 106/155/103 141/177/103 140/178/103
f 102/160/104 104/158/104 140/178/104 139/179/104
f 96/155/105 98/158/105 137/178/105 136/177/105
f 100/160/106 102/160/106 139/179/106 138/179/106
f 98/158/107 100/160/107 138/179/107 137/178/107
f 114/162/108 96/155/108 136/177/108 145/176/108
f 112/164/109 114/162/109 145/176/109 144/175/109
f 110/164/110 112/164/110 144/175/110 143/175/110
f 136/177/111 137/178/111 147/180/111 146/181/111
f 143/175/112 144/175/112 154/182/112 153/182/112
f 140/178/113 141/177/113 151/181/113 150/180/113
f 137/178/114 138/179/114 148/183/114 147/180/114
f 144/175/115 145/176/115 155/184/115 154/182/115
f 141/177/116 142/176/116 152/184/116 151/181/116
f 138/179/117 139/179/117 149/183/117 148/183/117
f 145/176/118 136/177/118 146/181/118 155/184/118
f 142/176/119 143/175/119 153/182/119 152/184/119
f 139/179/120 140/178/120 150/180/120 149/183/120
f 150/180/121 151/181/121 161/185/121 160/186/121
f 147/180/122 148/183/122 158/187/122 157/186/122
f 154/182/123 155/184/123 165/188/123 164/189/123
f 151/181/124 152/184/124 162/188/124 161/185/124
f 148/183/125 149/183/125 159/187/125 158/187/125
f 155/184/126 146/181/126 156/185/126 165/188/126
f 152/184/127 153/182/127 163/189/127 162/188/127
f 149/183/128 150/180/128 160/186/128 159/187/128
f 146/181/129 147/180/129 157/186/129 156/185/129
f 153/182/130 154/182/130 164/189/130 163/189/130
f 127/173/131 126/174/131 131/174/131 130/173/131
f 128/172/131 127/173/131 130/173/131 129/172/131
f 132/170/131 131/174/131 126/174/131 135/170/131
f 133/171/131 132/170/131 135/170/131 134/171/131
f 156/185/132 157/186/132 160/186/132 161/185/132
f 161/185/132 162/188/132 165/188/132 156/185/132
f 157/186/132 158/187/132 159/187/132 160/186/132
f 162/188/132 163/189/132 164/189/132 165/188/132
f 166/190/133 167/191/133 169/192/133 168/193/133
f 168/193/134 169/192/134 171/194/134 170/195/134
f 170/195/135 171/194/135 173/194/135 172/195/135
f 172/195/136 173/194/136 175/192/136 174/193/136
f 174/193/137 175/192/137 177/191/137 176/190/137
f 176/190/138 177/191/138 179/196/138 178/197/138
f 178/197/139 179/196/139 181/198/139 180/199/139
f 180/199/140 181/198/140 183/198/140 182/199/140
f 183/198/141 181/198/141 193/200/141 194/200/141
f 182/199/142 183/198/142 185/196/142 184/197/142
f 184/197/143 185/196/143 167/191/143 166/190/143
f 185/196/144 183/198/144 194/200/144 195/201/144
f 181/198/145 179/196/145 192/201/145 193/200/145
f 179/196/146 177/191/146 191/202/146 192/201/146
f 177/191/147 175/192/147 190/203/147 191/202/147
f 175/192/148 173/194/148 189/204/148 190/203/148
f 169/192/149 167/191/149 186/202/149 187/203/149
f 173/194/150 171/194/150 188/204/150 189/204/150
f 171/194/151 169/192/151 187/203/151 188/204/151
f 167/191/152 185/196/152 195/201/152 186/202/152
f 193/200/153 192/201/153 202/205/153 203/206/153
f 190/203/154 189/204/154 199/207/154 200/208/154
f 187/203/155 186/202/155 196/209/155 197/208/155
f 194/200/156 193/200/156 203/206/156 204/206/156
f 191/202/157 190/203/157 200/208/157 201/209/157
f 188/204/158 187/203/158 197/208/158 198/207/158
f 195/201/159 194/200/159 204/206/159 205/205/159
f 192/201/160 191/202/160 201/209/160 202/205/160
f 189/204/161 188/204/161 198/207/161 199/207/161
f 186/202/162 195/201/162 205/205/162 196/209/162
f 178/197/163 180/199/163 213/210/163 212/211/163
f 176/190/164 178/197/164 212/211/164 211/212/164
f 174/193/165 176/190/165 211/212/165 210/213/165
f 172/195/166 174/193/166 210/213/166 209/214/166
f 166/190/167 168/193/167 207/213/167 206/212/167
f 170/195/168 172/195/168 209/214/168 208/214/168
f 168/193/169 170/195/169 208/214/169 207/213/169
f 184/197/170 166/190/170 206/212/170 215/211/170
f 182/199/171 184/197/171 215/211/171 214/210/171
f 180/199/172 182/199/172 214/210/172 213/210/172
f 206/212/173 207/213/173 217/215/173 216/216/173
f 213/210/174 214/210/174 224/217/174 223/217/174
f 210/213/175 211/212/175 221/216/175 220/215/175
f 207/213/176 208/214/176 218/218/176 217/215/176
f 214/210/177 215/211/177 225/219/177 224/217/177
f 211/212/178 212/211/178 222/219/178 221/216/178
f 208/214/179 209/214/179 219/218/179 218/218/179
f 215/211/180 206/212/180 216/216/180 225/219/180
f 212/211/181 213/210/181 223/217/181 222/219/181
f 209/214/182 210/213/182 220/215/182 219/218/182
f 220/215/183 221/216/183 231/220/183 230/221/183
f 217/215/184 218/218/184 228/222/184 227/223/184
f 224/217/185 225/219/185 235/224/185 234/225/185
f 221/216/186 222/219/186 232/224/186 231/220/186
f 218/218/187 219/218/187 229/222/187 228/222/187
f 225/219/188 216/216/188 226/220/188 235/224/188
f 222/219/189 223/217/189 233/225/189 232/224/189
f 219/218/190 220/215/190 230/221/190 229/222/190
f 216/216/191 217/215/191 227/223/191 226/220/191
f 223/217/192 224/217/192 234/225/192 233/225/192
f 197/208/131 196/209/131 201/209/131 200/208/131
f 198/207/131 197/208/131 200/208/131 199/207/131
f 202/205/131 201/209/131 196/209/131 205/205/131
f 203/206/131 202/205/131 205/205/131 204/206/131
f 226/220/132 227/223/132 230/221/132 231/220/132
f 231/220/132 232/224/132 235/224/132 226/220/132
f 227/223/132 228/222/132 229/222/132 230/221/132
f 232/224/132 233/225/132 234/225/132 235/224/132
f 236/226/193 237/227/193 239/228/193 238/229/193
f 238/229/194 239/228/194 241/230/194 240/231/194
f 240/231/195 241/230/195 243/232/195 242/233/195
f 242/233/196 243/232/196 245/234/196 244/235/196
f 244/235/197 245/234/197 247/236/197 246/237/197
f 246/237/198 247/236/198 249/238/198 248/239/198
f 248/239/199 249/238/199 251/240/199 250/241/199
f 250/241/200 251/240/200 253/242/200 252/243/200
f 253/242/201 251/240/201 263/244/201 264/244/201
f 252/243/202 253/242/202 255/245/202 254/246/202
f 254/246/203 255/245/203 237/227/203 236/226/203
f 255/245/204 253/242/204 264/244/204 265/247/204
f 251/240/205 249/238/205 262/247/205 263/244/205
f 249/238/206 247/236/206 261/248/206 262/247/206
f 247/236/207 245/234/207 260/249/207 261/248/207
f 245/234/208 243/232/208 259/250/208 260/249/208
f 239/228/209 237/227/209 256/248/209 257/249/209
f 243/232/210 241/230/210 258/250/210 259/250/210
f 241/230/211 239/228/211 257/249/211 258/250/211
f 237/227/212 255/245/212 265/247/212 256/248/212
f 263/244/213 262/247/213 272/251/213 273/252/213
f 260/249/214 259/250/214 269/253/214 270/254/214
f 257/249/215 256/248/215 266/255/215 267/256/215
f 264/244/216 263/244/216 273/252/216 274/252/216
f 261/248/217 260/249/217 270/254/217 271/257/217
f 258/250/218 257/249/218 267/256/218 268/253/218
f 265/247/219 264/244/219 274/252/219 275/258/219
f 262/247/220 261/248/220 271/257/220 272/251/220
f 259/250/221 258/250/221 268/253/221 269/253/221
f 256/248/222 265/247/222 275/258/222 266/255/222
f 248/239/223 250/241/223 283/259/223 282/260/223
f 246/237/224 248/239/224 282/260/224 281/261/224
f 244/235/225 246/237/225 281/261/225 280/262/225
f 242/233/226 244/235/226 280/262/226 279/263/226
f 236/226/227 238/229/227 277/262/227 276/261/227
f 240/231/228 242/233/228 279/263/228 278/263/228
f 238/229/229 240/231/229 278/263/229 277/262/229
f 254/246/230 236/226/230 276/261/230 285/260/230
f 252/243/231 254/246/231 285/260/231 284/259/231
f 250/241/232 252/243/232 284/259/232 283/259/232
f 276/261/233 277/262/233 287/264/233 286/265/233
f 283/259/234 284/259/234 294/266/234 293/266/234
f 280/262/235 281/261/235 291/265/235 290/264/235
f 277/262/236 278/263/236 288/267/236 287/264/236
f 284/259/237 285/260/237 295/268/237 294/266/237
f 281/261/238 282/260/238 292/268/238 291/265/238
f 278/263/239 279/263/239 289/267/239 288/267/239
f 285/260/240 276/261/240 286/265/240 295/268/240
f 282/260/241 283/259/241 293/266/241 292/268/241
f 279/263/242 280/262/242 290/264/242 289/267/242
f 290/264/243 291/265/243 301/269/243 300/270/243
f 287/264/244 288/267/244 298/271/244 297/270/244
f 294/266/245 295/268/245 305/272/245 304/273/245
f 291/265/246 292/268/246 302/272/246 301/269/246
f 288/267/247 289/267/247 299/271/247 298/271/247
f 295/268/248 286/265/248 296/269/248 305/272/248
f 292/268/249 293/266/249 303/273/249 302/272/249
f 289/267/250 290/264/250 300/270/250 299/271/250
f 286/265/251 287/264/251 297/270/251 296/269/251
f 293/266/252 294/266/252 304/273/252 303/273/252
f 267/256/131 266/255/131 271/257/131 270/254/131
f 268/253/131 267/256/131 270/254/131 269/253/131
f 272/251/131 271/257/131 266/255/131 275/258/131
f 273/252/131 272/251/131 275/258/131 274/252/131
f 296/269/132 297/270/132 300/270/132 301/269/132
f 301/269/132 302/272/132 305/272/132 296/269/132
f 297/270/132 298/271/132 299/271/132 300/270/132
f 302/272/132 303/273/132 304/273/132 305/272/132
f 306/274/193 307/275/193 309/276/193 308/277/193
f 308/277/194 309/276/194 311/278/194 310/279/194
f 310/279/195 311/278/195 313/278/195 312/280/195
f 312/280/196 313/278/196 315/276/196 314/281/196
f 314/281/197 315/276/197 317/275/197 316/282/197
f 316/282/198 317/275/198 319/283/198 318/284/198
f 318/284/199 319/283/199 321/285/199 320/286/199
f 320/286/200 321/285/200 323/285/200 322/287/200
f 323/285/201 321/285/201 333/288/201 334/289/201
f 322/287/202 323/285/202 325/283/202 324/290/202
f 324/290/203 325/283/203 307/275/203 306/274/203
f 325/283/204 323/285/204 334/289/204 335/291/204
f 321/285/205 319/283/205 332/292/205 333/288/205
f 319/283/206 317/275/206 331/293/206 332/292/206
f 317/275/207 315/276/207 330/294/207 331/293/207
f 315/276/208 313/278/208 329/295/208 330/294/208
f 309/276/209 307/275/209 326/296/209 327/297/209
f 313/278/210 311/278/210 328/298/210 329/295/210
f 311/278/211 309/276/211 327/297/211 328/298/211
f 307/275/212 325/283/212 335/291/212 326/296/212
f 333/288/213 332/292/213 342/299/213 343/300/213
f 330/294/214 329/295/214 339/301/214 340/302/214
f 327/297/215 326/296/215 336/303/215 337/302/215
f 334/289/216 333/288/216 343/300/216 344/300/216
f 331/293/217 330/294/217 340/302/217 341/303/217
f 328/298/218 327/297/218 337/302/218 338/301/218
f 335/291/219 334/289/219 344/300/219 345/299/219
f 332/292/220 331/293/220 341/303/220 342/299/220
f 329/295/221 328/298/221 338/301/221 339/301/221
f 326/296/222 335/291/222 345/299/222 336/303/222
f 318/284/223 320/286/223 353/304/223 352/305/223
f 316/282/224 318/284/224 352/305/224 351/306/224
f 314/281/225 316/282/225 351/306/225 350/307/225
f 312/280/226 314/281/226 350/307/226 349/308/226
f 306/274/227 308/277/227 347/307/227 346/306/227
f 310/279/228 312/280/228 349/308/228 348/308/228
f 308/277/229 310/279/229 348/308/229 347/307/229
f 324/290/230 306/274/230 346/306/230 355/305/230
f 322/287/231 324/290/231 355/305/231 354/304/231
f 320/286/232 322/287/232 354/304/232 353/304/232
f 346/306/233 347/307/233 357/309/233 356/310/233
f 353/304/234 354/304/234 364/311/234 363/312/234
f 350/307/235 351/306/235 361/313/235 360/314/235
f 347/307/236 348/308/236 358/315/236 357/309/236
f 354/304/237 355/305/237 365/316/237 364/311/237
f 351/306/238 352/305/238 362/317/238 361/313/238
f 348/308/239 349/308/239 359/318/239 358/315/239
f 355/305/240 346/306/240 356/310/240 365/316/240
f 352/305/241 353/304/241 363/312/241 362/317/241
f 349/308/242 350/307/242 360/314/242 359/318/242
f 360/314/243 361/313/243 371/319/243 370/320/243
f 357/309/244 358/315/244 368/321/244 367/322/244
f 364/311/245 365/316/245 375/323/245 374/324/245
f 361/313/246 362/317/246 372/325/246 371/319/246
f 358/315/247 359/318/247 369/321/247 368/321/247
f 365/316/248 356/310/248 366/326/248 375/323/248
f 362/317/249 363/312/249 373/324/249 372/325/249
f 359/318/250 360/314/250 370/320/250 369/321/250
f 356/310/251 357/309/251 367/322/251 366/326/251
f 363/312/252 364/311/252 374/324/252 373/324/252
f 337/302/131 336/303/131 341/303/131 340/302/131
f 338/301/131 337/302/131 340/302/131 339/301/131
f 342/299/131 341/303/131 336/303/131 345/299/131
f 343/300/131 342/299/131 345/299/131 344/300/131
f 366/326/132 367/322/132 370/320/132 371/319/132
f 371/319/132 372/325/132 375/323/132 366/326/132
f 367/322/132 368/321/132 369/321/132 370/320/132
f 372/325/132 373/324/132 374/324/132 375/323/132
f 376/327/193 377/328/193 379/329/193 378/330/193
f 378/330/194 379/329/194 381/331/194 380/332/194
f 380/332/195 381/331/195 383/331/195 382/332/195
f 382/332/196 383/331/196 385/329/196 384/330/196
f 384/330/197 385/329/197 387/328/197 386/327/197
f 386/327/198 387/328/198 389/333/198 388/334/198
f 388/334/199 389/333/199 391/335/199 390/336/199
f 390/336/200 391/335/200 393/335/200 392/336/200
f 393/335/201 391/335/201 403/337/201 404/337/201
f 392/336/202 393/335/202 395/333/202 394/338/202
f 394/338/203 395/333/203 377/328/203 376/327/203
f 395/333/204 393/335/204 404/337/204 405/339/204
f 391/335/205 389/333/205 402/339/205 403/337/205
f 389/333/206 387/328/206 401/340/206 402/339/206
f 387/328/207 385/329/207 400/341/207 401/340/207
f 385/329/208 383/331/208 399/342/208 400/341/208
f 379/329/209 377/328/209 396/340/209 397/343/209
f 383/331/210 381/331/210 398/342/210 399/342/210
f 381/331/211 379/329/211 397/343/211 398/342/211
f 377/328/212 395/333/212 405/339/212 396/340/212
f 403/337/213 402/339/213 412/344/213 413/345/213
f 400/341/214 399/342/214 409/346/214 410/347/214
f 397/343/215 396/340/215 406/348/215 407/347/215
f 404/337/216 403/337/216 413/345/216 414/345/216
f 401/340/217 400/341/217 410/347/217 411/348/217
f 398/342/218 397/343/218 407/347/218 408/346/218
f 405/339/219 404/337/219 414/345/219 415/344/219
f 402/339/220 401/340/220 411/348/220 412/344/220
f 399/342/221 398/342/221 408/346/221 409/346/221
f 396/340/222 405/339/222 415/344/222 406/348/222
f 388/334/223 390/336/223 423/349/223 422/350/223
f 386/327/224 388/334/224 422/350/224 421/351/224
f 384/330/225 386/327/225 421/351/225 420/352/225
f 382/332/226 384/330/226 420/352/226 419/353/226
f 376/327/227 378/330/227 417/352/227 416/351/227
f 380/332/228 382/332/228 419/353/228 418/353/228
f 378/330/229 380/332/229 418/353/229 417/352/229
f 394/338/230 376/327/230 416/351/230 425/350/230
f 392/336/231 394/338/231 425/350/231 424/349/231
f 390/336/232 392/336/232 424/349/232 423/349/232
f 416/351/233 417/352/233 427/354/233 426/355/233
f 423/349/234 424/349/234 434/356/234 433/356/234
f 420/352/235 421/351/235 431/355/235 430/354/235
f 417/352/236 418/353/236 428/357/236 427/354/236
f 424/349/237 425/350/237 435/358/237 434/356/237
f 421/351/238 422/350/238 432/358/238 431/355/238
f 418/353/239 419/353/239 429/357/239 428/357/239
f 425/350/240 416/351/240 426/355/240 435/358/240
f 422/350/241 423/349/241 433/356/241 432/358/241
f 419/353/242 420/352/242 430/354/242 429/357/242
f 430/354/243 431/355/243 441/359/243 440/360/243
f 427/354/244 428/357/244 438/361/244 437/360/244
f 434/356/245 435/358/245 445/362/245 444/363/245
f 431/355/246 432/358/246 442/362/246 441/359/246
f 428/357/247 429/357/247 439/361/247 438/361/247
f 435/358/248 426/355/248 436/359/248 445/362/248
f 432/358/249 433/356/249 443/363/249 442/362/249
f 429/357/250 430/354/250 440/360/250 439/361/250
f 426/355/251 427/354/251 437/360/251 436/359/251
f 433/356/252 434/356/252 444/363/252 443/363/252
f 407/347/131 406/348/131 411/348/131 410/347/131
f 408/346/131 407/347/131 410/347/131 409/346/131
f 412/344/131 411/348/131 406/348/131 415/344/131
f 413/345/131 412/344/131 415/344/131 414/345/131
f 436/359/132 437/360/132 440/360/132 441/359/132
f 441/359/132 442/362/132 445/362/132 436/359/132
f 437/360/132 438/361/132 439/361/132 440/360/132
f 442/362/132 443/363/132 444/363/132 445/362/132
f 446/364/193 447/365/193 449/366/193 448/367/193
f 448/367/194 449/366/194 451/368/194 450/369/194
f 450/369/195 451/368/195 453/368/195 452/369/195
f 452/369/196 453/368/196 455/366/196 454/367/196
f 454/367/197 455/366/197 457/365/197 456/364/197
f 456/364/198 457/365/198 459/370/198 458/371/198
f 458/371/199 459/370/199 461/372/199 460/373/199
f 460/373/200 461/372/200 463/372/200 462/373/200
f 463/372/201 461/372/201 473/374/201 474/374/201
f 462/373/202 463/372/202 465/370/202 464/371/202
f 464/371/203 465/370/203 447/365/203 446/364/203
f 465/370/204 463/372/204 474/374/204 475/375/204
f 461/372/205 459/370/205 472/375/205 473/374/205
f 459/370/206 457/365/206 471/376/206 472/375/206
f 457/365/207 455/366/207 470/377/207 471/376/207
f 455/366/208 453/368/208 469/378/208 470/377/208
f 449/366/209 447/365/209 466/376/209 467/377/209
f 453/368/210 451/368/210 468/378/210 469/378/210
f 451/368/211 449/366/211 467/377/211 468/378/211
f 447/365/212 465/370/212 475/375/212 466/376/212
f 473/374/213 472/375/213 482/379/213 483/380/213
f 470/377/214 469/378/214 479/381/214 480/382/214
f 467/377/215 466/376/215 476/383/215 477/382/215
f 474/374/216 473/374/216 483/380/216 484/380/216
f 471/376/217 470/377/217 480/382/217 481/383/217
f 468/378/218 467/377/218 477/382/218 478/381/218
f 475/375/219 474/374/219 484/380/219 485/379/219
f 472/375/220 471/376/220 481/383/220 482/379/220
f 469/378/221 468/378/221 478/381/221 479/381/221
f 466/376/222 475/375/222 485/379/222 476/383/222
f 458/371/223 460/373/223 493/384/223 492/385/223
f 456/364/224 458/371/224 492/385/224 491/386/224
f 454/367/225 456/364/225 491/386/225 490/387/225
f 452/369/226 454/367/226 490/387/226 489/388/226
f 446/364/227 448/367/227 487/387/227 486/386/227
f 450/369/228 452/369/228 489/388/228 488/388/228
f 448/367/229 450/369/229 488/388/229 487/387/229
f 464/371/230 446/364/230 486/386/230 495/385/230
f 462/373/231 464/371/231 495/385/231 494/384/231
f 460/373/232 462/373/232 494/384/232 493/384/232
f 486/386/233 487/387/233 497/389/233 496/390/233
f 493/384/234 494/384/234 504/391/234 503/391/234
f 490/387/235 491/386/235 501/392/235 500/393/235
f 487/387/236 488/388/236 498/394/236 497/389/236
f 494/384/237 495/385/237 505/395/237 504/391/237
f 491/386/238 492/385/238 502/396/238 501/392/238
f 488/388/239 489/388/239 499/394/239 498/394/239
f 495/385/240 486/386/240 496/390/240 505/395/240
f 492/385/241 493/384/241 503/391/241 502/396/241
f 489/388/242 490/387/242 500/393/242 499/394/242
f 500/393/243 501/392/243 511/397/243 510/398/243
f 497/389/244 498/394/244 508/399/244 507/398/244
f 504/391/245 505/395/245 515/400/245 514/401/245
f 501/392/246 502/396/246 512/400/246 511/397/246
f 498/394/247 499/394/247 509/399/247 508/399/247
f 505/395/248 496/390/248 506/397/248 515/400/248
f 502/396/249 503/391/249 513/401/249 512/400/249
f 499/394/250 500/393/250 510/398/250 509/399/250
f 496/390/251 497/389/251 507/398/251 506/397/251
f 503/391/252 504/391/252 514/401/252 513/401/252
f 477/382/131 476/383/131 481/383/131 480/382/131
f 478/381/131 477/382/131 480/382/131 479/381/131
f 482/379/131 481/383/131 476/383/131 485/379/131
f 483/380/131 482/379/131 485/379/131 484/380/131
f 506/397/132 507/398/132 510/398/132 511/397/132
f 511/397/132 512/400/132 515/400/132 506/397/132
f 507/398/132 508/399/132 509/399/132 510/398/132
f 512/400/132 513/401/132 514/401/132 515/400/132
f 516/402/193 517/403/193 519/404/193 518/405/193
f 518/405/194 519/404/194 521/406/194 520/407/194
f 520/407/195 521/406/195 523/406/195 522/407/195
f 522/407/196 523/406/196 525/404/196 524/405/196
f 524/405/197 525/404/197 527/403/197 526/402/197
f 526/402/198 527/403/198 529/408/198 528/409/198
f 528/409/199 529/408/199 531/410/199 530/411/199
f 530/411/200 531/410/200 533/410/200 532/411/200
f 533/410/201 531/410/201 543/412/201 544/412/201
f 532/411/202 533/410/202 535/408/202 534/413/202
f 534/413/203 535/408/203 517/403/203 516/402/203
f 535/408/204 533/410/204 544/412/204 545/414/204
f 531/410/205 529/408/205 542/414/205 543/412/205
f 529/408/206 527/403/206 541/415/206 542/414/206
f 527/403/207 525/404/207 540/416/207 541/415/207
f 525/404/208 523/406/208 539/417/208 540/416/208
f 519/404/209 517/403/209 536/415/209 537/416/209
f 523/406/210 521/406/210 538/417/210 539/417/210
f 521/406/211 519/404/211 537/416/211 538/417/211
f 517/403/212 535/408/212 545/414/212 536/415/212
f 543/412/213 542/414/213 552/418/213 553/419/213
f 540/416/214 539/417/214 549/420/214 550/421/214
f 537/416/215 536/415/215 546/422/215 547/421/215
f 544/412/216 543/412/216 553/419/216 554/419/216
f 541/415/217 540/416/217 550/421/217 551/422/217
f 538/417/218 537/416/218 547/421/218 548/420/218
f 545/414/219 544/412/219 554/419/219 555/418/219
f 542/414/220 541/415/220 551/422/220 552/418/220
f 539/417/221 538/417/221 548/420/221 549/420/221
f 536/415/222 545/414/222 555/418/222 546/422/222
f 528/409/223 530/411/223 563/423/223 562/424/223
f 526/402/224 528/409/224 562/424/224 561/425/224
f 524/405/225 526/402/225 561/425/225 560/426/225
f 522/407/226 524/405/226 560/426/226 559/427/226
f 516/402/227 518/405/227 557/426/227 556/425/227
f 520/407/228 522/407/228 559/427/228 558/427/228
f 518/405/229 520/407/229 558/427/229 557/426/229
f 534/413/230 516/402/230 556/425/230 565/424/230
f 532/411/231 534/413/231 565/424/231 564/423/231
f 530/411/232 532/411/232 564/423/232 563/423/232
f 556/425/233 557/426/233 567/428/233 566/429/233
f 563/423/234 564/423/234 574/430/234 573/430/234
f 560/426/235 561/425/235 571/429/235 570/428/235
f 557/426/236 558/427/236 568/431/236 567/428/236
f 564/423/237 565/424/237 575/432/237 574/430/237
f 561/425/238 562/424/238 572/432/238 571/429/238
f 558/427/239 559/427/239 569/431/239 568/431/239
f 565/424/240 556/425/240 566/429/240 575/432/240
f 562/424/241 563/423/241 573/430/241 572/432/241
f 559/427/242 560/426/242 570/428/242 569/431/242
f 570/428/243 571/429/243 581/433/243 580/434/243
f 567/428/244 568/431/244 578/435/244 577/434/244
f 574/430/245 575/432/245 585/436/245 584/437/245
f 571/429/246 572/432/246 582/436/246 581/433/246
f 568/431/247 569/431/247 579/435/247 578/435/247
f 575/432/248 566/429/248 576/433/248 585/436/248
f 572/432/249 573/430/249 583/437/249 582/436/249
f 569/431/250 570/428/250 580/434/250 579/435/250
f 566/429/251 567/428/251 577/434/251 576/433/251
f 573/430/252 574/430/252 584/437/252 583/437/252
f 547/421/131 546/422/131 551/422/131 550/421/131
f 548/420/131 547/421/131 550/421/131 549/420/131
f 552/418/131 551/422/131 546/422/131 555/418/131
f 553/419/131 552/418/131 555/418/131 554/419/131
f 576/433/132 577/434/132 580/434/132 581/433/132
f 581/433/132 582/436/132 585/436/132 576/433/132
f 577/434/132 578/435/132 579/435/132 580/434/132
f 582/436/132 583/437/132 584/437/132 585/436/132
f 93/144/253 95/143/253 590/55/253 587/52/253
f 95/143/254 92/438/254 588/47/254 590/55/254
f 91/439/255 94/154/255 589/51/255 586/48/255
f 94/154/256 93/144/256 587/52/256 589/51/256
f 92/438/257 91/439/257 586/48/257 588/47/257
f 6/5/258 4/3/258 594/440/258 591/441/258
f 2/2/259 10/442/259 595/141/259 592/153/259
f 4/3/260 2/2/260 592/153/260 594/440/260
f 8/7/261 6/5/261 591/441/261 593/142/261
f 10/442/262 8/7/262 593/142/262 595/141/262
f 19/10/263 600/443/263 596/1/263 12/11/263
f 17/28/264 599/8/264 600/443/264 19/10/264
f 15/444/265 598/6/265 599/8/265 17/28/265
f 13/45/266 597/4/266 598/6/266 15/444/266
f 12/11/267 596/1/267 597/4/267 13/45/267
f 11/21/268 601/12/268 602/46/268 14/445/268
f 14/445/269 602/46/269 603/446/269 16/30/269
f 16/30/270 603/446/270 604/27/270 18/31/270
f 18/31/271 604/27/271 605/9/271 20/20/271
f 20/20/272 605/9/272 601/12/272 11/21/272
f 1/447/273 610/22/273 606/448/273 3/449/273
f 3/449/274 606/448/274 607/29/274 5/450/274
f 5/450/275 607/29/275 608/32/275 7/451/275
f 7/451/276 608/32/276 609/19/276 9/452/276
f 9/452/277 609/19/277 610/22/277 1/447/277
f 42/453/40 41/454/40 614/455/40 611/456/40
f 44/457/39 43/458/39 615/459/39 612/460/39
f 45/74/38 42/81/38 611/90/38 613/83/38
f 41/454/37 44/457/37 612/460/37 614/455/37
f 43/75/36 45/74/36 613/83/36 615/82/36
f 47/461/30 50/462/30 620/463/30 617/464/30
f 46/89/29 49/88/29 619/66/29 616/63/29
f 50/462/28 48/465/28 618/466/28 620/463/28
f 49/88/27 47/85/27 617/67/27 619/66/27
f 48/91/26 46/89/26 616/63/26 618/62/26
f 75/467/50 74/468/50 624/134/50 621/130/50
f 73/469/49 72/470/49 625/122/49 622/471/49
f 71/472/48 75/467/48 621/130/48 623/123/48
f 74/468/47 73/469/47 622/471/47 624/134/47
f 72/470/46 71/472/46 623/123/46 625/122/46
f 82/131/278 81/135/278 629/473/278 626/474/278
f 84/475/279 83/125/279 630/476/279 627/477/279
f 85/124/280 82/131/280 626/474/280 628/478/280
f 81/135/281 84/475/281 627/477/281 629/473/281
f 83/125/282 85/124/282 628/478/282 630/476/282
f 626/479/283 629/480/283 631/481/283 633/482/283
f 627/477/284 630/476/284 632/136/284 634/139/284
f 628/483/285 626/479/285 633/482/285 635/484/285
f 629/473/286 627/477/286 634/139/286 631/138/286
f 630/476/287 628/478/287 635/137/287 632/136/287
f 653/485/288 651/486/288 644/487/288 645/488/288
f 654/489/289 652/490/289 642/491/289 643/492/289
f 655/493/290 653/485/290 645/488/290 641/494/290
f 651/486/291 654/489/291 643/492/291 644/487/291
f 652/490/292 655/493/292 641/494/292 642/491/292
f 665/495/293 663/496/293 650/497/293 648/498/293
f 664/499/294 662/500/294 649/501/294 646/502/294
f 663/496/295 661/503/295 647/504/295 650/497/295
f 662/500/296 665/495/296 648/498/296 649/501/296
f 661/505/297 664/506/297 646/507/297 647/508/297
f 670/509/298 668/510/298 655/493/298 652/490/298
f 669/511/299 667/512/299 654/513/299 651/514/299
f 668/510/300 666/515/300 653/485/300 655/493/300
f 667/512/301 670/516/301 652/517/301 654/513/301
f 666/515/302 669/518/302 651/486/302 653/485/302
f 645/488/303 644/487/303 659/519/303 660/520/303
f 643/492/304 642/491/304 657/521/304 658/522/304
f 641/494/305 645/488/305 660/520/305 656/523/305
f 644/487/306 643/492/306 658/522/306 659/519/306
f 642/491/307 641/494/307 656/523/307 657/521/307
f 659/519/308 658/522/308 660/520/308
f 656/523/308 660/520/308 657/521/308
f 657/521/308 660/520/308 658/522/308
f 640/524/309 639/525/309 664/499/309 661/503/309
f 638/526/296 637/527/296 665/495/296 662/500/296
f 636/528/295 640/524/295 661/503/295 663/496/295
f 639/525/310 638/526/310 662/500/310 664/499/310
f 637/527/293 636/528/293 663/496/293 665/495/293
f 647/504/302 646/502/302 669/518/302 666/515/302
f 649/501/301 648/498/301 670/509/301 667/529/301
f 650/497/311 647/504/311 666/515/311 668/510/311
f 646/502/299 649/501/299 667/529/299 669/518/299
f 648/498/298 650/497/298 668/510/298 670/509/298
