# Blender 5.1.0
# www.blender.org
mtllib birch001.mtl
o Birch.001
v -0.359217 -0.036579 0.875648
v -0.477253 4.373478 0.158915
v -1.555526 -0.036579 0.597320
v -1.296693 4.403316 -0.036272
v -1.651758 -0.036579 -0.621041
v -1.363838 4.379685 -0.888190
v -0.514916 -0.036579 -1.095710
v -0.585887 4.335245 -1.219521
v 0.283914 -0.036579 -0.170697
v -0.037953 4.331408 -0.572369
v -0.638241 1.555305 0.556161
v -0.729730 3.022408 0.452131
v -1.586837 3.015121 0.245874
v -1.637084 1.475753 0.323774
v -1.657071 2.875860 -0.621824
v -1.717430 1.346320 -0.693484
v -0.843364 2.797078 -0.951839
v -0.768234 1.345880 -1.089806
v -0.270236 2.887650 -0.288095
v -0.101263 1.475039 -0.317478
v -0.159423 7.631557 0.112604
v -0.990376 7.624494 -0.087357
v -1.058466 7.489481 -0.928586
v -0.269582 7.413104 -1.248536
v 0.286052 7.500912 -0.605039
v -0.536535 13.531864 -0.037710
v -1.179376 13.526400 -0.192404
v -1.232051 13.421951 -0.843194
v -0.621756 13.362864 -1.090714
v -0.191907 13.430794 -0.592893
v -0.409905 9.428939 -0.000226
v -0.741096 8.823874 -0.166208
v -0.670808 8.719885 -0.864488
v -0.296172 9.260691 -1.026130
v -0.134929 9.698906 -0.595922
v -5.758063 11.899909 -0.324798
v -5.894217 11.651161 -0.393035
v -5.865322 11.608412 -0.680103
v -5.711306 11.830740 -0.789286
v -5.645017 12.010894 -0.569693
v -2.977899 9.655038 -1.056521
v -2.837149 10.037558 -0.590261
v -3.366275 9.273739 -0.215162
v -3.304919 9.182967 -0.824693
v -3.077177 9.801903 -0.070276
v -4.334579 10.407021 -0.960470
v -4.649106 10.098225 -0.279094
v -4.220592 10.716805 -0.582869
v -4.599417 10.024713 -0.772724
v -4.414979 10.525959 -0.161757
v -0.176533 11.742491 -0.646126
v -0.311705 11.249741 -0.376413
v -0.880366 11.165055 -0.433654
v -1.096650 11.605474 -0.738748
v -0.661654 11.962345 -0.870061
v -0.440856 13.754787 3.709281
v -0.496426 13.552214 3.820162
v -0.730207 13.517399 3.796630
v -0.819124 13.698459 3.671204
v -0.640293 13.845171 3.617219
v -1.036754 11.926620 1.445184
v -0.657042 12.238134 1.330561
v -0.351571 11.616099 1.761468
v -0.847959 11.542177 1.711502
v -0.233580 12.046223 1.526034
v -0.958533 12.539016 2.550030
v -0.403636 12.287540 2.806174
v -0.651023 12.791297 2.457202
v -0.805637 12.227674 2.765709
v -0.308080 12.635877 2.615507
v -0.041007 8.401924 -0.126367
v -0.163203 7.956473 0.117457
v -0.677279 7.879917 0.065710
v -0.872802 8.278059 -0.210098
v -0.479560 8.600675 -0.328806
v -0.279958 11.045074 3.494575
v -0.330194 10.925007 3.665361
v -0.541534 10.887376 3.660167
v -0.621915 10.984186 3.486168
v -0.460251 11.081647 3.383828
v -0.818655 8.568378 1.764198
v -0.475392 8.849991 1.660578
v -0.199243 8.287665 2.050122
v -0.647982 8.220839 2.004952
v -0.092578 8.676500 1.837287
v -0.747942 9.596260 3.039446
v -0.246310 9.494499 3.347578
v -0.469950 9.763851 2.863467
v -0.609723 9.429790 3.338645
v -0.159926 9.700959 3.053902
v -1.143534 6.796427 -0.032557
v -1.211152 6.724479 -0.867957
v 0.124049 6.730570 -0.546653
v -0.318338 6.800191 0.166019
v -0.427734 6.683777 -1.185691
v -4.798116 12.369577 3.030676
v -4.798116 13.931599 2.444183
v -6.763045 12.369577 2.392232
v -6.418314 13.931599 1.917749
v -7.977438 12.369577 0.720763
v -7.419650 13.931599 0.539527
v -7.977438 12.369577 -1.345285
v -7.419650 13.931599 -1.164049
v -6.763044 12.369577 -3.016753
v -6.418313 13.931599 -2.542271
v -4.798116 12.369577 -3.655198
v -4.798116 13.931599 -3.068705
v -2.833187 12.369577 -3.016753
v -3.177919 13.931599 -2.542270
v -1.618795 12.369577 -1.345285
v -2.176582 13.931599 -1.164049
v -1.618795 12.369577 0.720764
v -2.176582 13.931599 0.539528
v -2.833188 12.369577 2.392232
v -3.177920 13.931599 1.917750
v -4.798116 14.652730 1.733118
v -6.000360 14.652730 1.342486
v -6.743387 14.652730 0.319796
v -6.743387 14.652730 -0.944318
v -6.000360 14.652730 -1.967007
v -4.798116 14.652730 -2.357640
v -3.595872 14.652730 -1.967007
v -2.852845 14.652730 -0.944318
v -2.852845 14.652730 0.319796
v -3.595873 14.652730 1.342486
v -4.798116 15.041032 0.890085
v -5.504837 15.041032 0.660457
v -5.941614 15.041032 0.059284
v -5.941614 15.041032 -0.683806
v -5.504837 15.041032 -1.284978
v -4.798116 15.041032 -1.514606
v -4.091395 15.041032 -1.284978
v -3.654618 15.041032 -0.683806
v -3.654618 15.041032 0.059285
v -4.091396 15.041032 0.660457
v -4.798116 11.482032 2.452257
v -6.423059 11.482032 1.924281
v -7.427329 11.482032 0.542022
v -7.427329 11.482032 -1.166544
v -6.423059 11.482032 -2.548802
v -4.798116 11.482032 -3.076778
v -3.173174 11.482032 -2.548802
v -2.168904 11.482032 -1.166544
v -2.168904 11.482032 0.542022
v -3.173174 11.482032 1.924282
v -4.798116 10.927316 1.184288
v -5.677766 10.927316 0.898473
v -6.221419 10.927316 0.150198
v -6.221419 10.927316 -0.774719
v -5.677765 10.927316 -1.522994
v -4.798116 10.927316 -1.808810
v -3.918467 10.927316 -1.522994
v -3.374814 10.927316 -0.774720
v -3.374814 10.927316 0.150199
v -3.918467 10.927316 0.898474
v -4.798116 10.871843 0.518430
v -5.286385 10.871843 0.359783
v -5.588151 10.871843 -0.055563
v -5.588151 10.871843 -0.568958
v -5.286384 10.871843 -0.984304
v -4.798116 10.871843 -1.142952
v -4.309848 10.871843 -0.984304
v -4.008082 10.871843 -0.568958
v -4.008082 10.871843 -0.055563
v -4.309848 10.871843 0.359783
v 3.985739 10.341135 2.993594
v 3.985739 11.997779 2.413607
v 2.042606 10.341135 2.362231
v 2.383514 11.997779 1.893012
v 0.841684 10.341135 0.709304
v 1.393284 11.997779 0.530078
v 0.841684 10.341135 -1.333827
v 1.393284 11.997779 -1.154601
v 2.042607 10.341135 -2.986754
v 2.383514 11.997779 -2.517535
v 3.985740 10.341135 -3.618117
v 3.985739 11.997779 -3.038130
v 5.928872 10.341135 -2.986754
v 5.587964 11.997779 -2.517535
v 7.129794 10.341135 -1.333827
v 6.578194 11.997779 -1.154601
v 7.129794 10.341135 0.709304
v 6.578194 11.997779 0.530079
v 5.928871 10.341135 2.362232
v 5.587963 11.997779 1.893013
v 3.985739 12.762594 1.710429
v 2.796831 12.762594 1.324130
v 2.062046 12.762594 0.312784
v 2.062046 12.762594 -0.937307
v 2.796832 12.762594 -1.948653
v 3.985739 12.762594 -2.334952
v 5.174647 12.762594 -1.948653
v 5.909432 12.762594 -0.937308
v 5.909432 12.762594 0.312785
v 5.174646 12.762594 1.324130
v 3.985739 13.174418 0.876747
v 3.286858 13.174418 0.649666
v 2.854925 13.174418 0.055162
v 2.854925 13.174418 -0.679685
v 3.286858 13.174418 -1.274189
v 3.985739 13.174418 -1.501270
v 4.684620 13.174418 -1.274189
v 5.116553 13.174418 -0.679685
v 5.116553 13.174418 0.055162
v 4.684620 13.174418 0.649667
v 3.985739 9.399824 2.421591
v 2.378821 9.399824 1.899472
v 1.385691 9.399824 0.532545
v 1.385691 9.399824 -1.157068
v 2.378821 9.399824 -2.523994
v 3.985740 9.399824 -3.046114
v 5.592657 9.399824 -2.523995
v 6.585787 9.399824 -1.157069
v 6.585787 9.399824 0.532546
v 5.592656 9.399824 1.899473
v 3.985739 8.811504 1.167687
v 3.115847 8.811504 0.885042
v 2.578224 8.811504 0.145068
v 2.578224 8.811504 -0.769591
v 3.115847 8.811504 -1.509565
v 3.985739 8.811504 -1.792210
v 4.855631 8.811504 -1.509565
v 5.393253 8.811504 -0.769591
v 5.393254 8.811504 0.145068
v 4.855630 8.811504 0.885043
v 3.985739 8.752672 0.509215
v 3.502887 8.752672 0.352327
v 3.204468 8.752672 -0.058411
v 3.204468 8.752672 -0.566112
v 3.502887 8.752672 -0.976850
v 3.985739 8.752672 -1.133738
v 4.468591 8.752672 -0.976850
v 4.767010 8.752672 -0.566112
v 4.767010 8.752672 -0.058411
v 4.468591 8.752672 0.352327
v 2.557753 11.839555 4.895720
v 2.557753 13.024923 4.506071
v 1.252314 11.839555 4.471556
v 1.481343 13.024923 4.156324
v 0.445508 11.839555 3.361083
v 0.816085 13.024923 3.240675
v 0.445508 11.839555 1.988463
v 0.816085 13.024923 2.108871
v 1.252314 11.839555 0.877990
v 1.481343 13.024923 1.193222
v 2.557753 11.839555 0.453827
v 2.557753 13.024923 0.843475
v 3.863192 11.839555 0.877990
v 3.634163 13.024923 1.193222
v 4.669999 11.839555 1.988463
v 4.299421 13.024923 2.108871
v 4.669998 11.839555 3.361084
v 4.299421 13.024923 3.240675
v 3.863192 11.839555 4.471557
v 3.634162 13.024923 4.156325
v 2.557753 13.572166 4.033661
v 1.759019 13.572166 3.774137
v 1.265373 13.572166 3.094693
v 1.265373 13.572166 2.254853
v 1.759019 13.572166 1.575409
v 2.557753 13.572166 1.315885
v 3.356488 13.572166 1.575410
v 3.850132 13.572166 2.254853
v 3.850133 13.572166 3.094692
v 3.356487 13.572166 3.774137
v 2.557753 13.866837 3.473575
v 2.088229 13.866837 3.321018
v 1.798048 13.866837 2.921617
v 1.798047 13.866837 2.427930
v 2.088229 13.866837 2.028529
v 2.557753 13.866837 1.875971
v 3.027277 13.866837 2.028529
v 3.317459 13.866837 2.427929
v 3.317459 13.866837 2.921617
v 3.027277 13.866837 3.321018
v 2.557753 11.166024 4.511435
v 1.478190 11.166024 4.160664
v 0.810984 11.166024 3.242333
v 0.810983 11.166024 2.107213
v 1.478190 11.166024 1.188882
v 2.557753 11.166024 0.838111
v 3.637316 11.166024 1.188882
v 4.304523 11.166024 2.107213
v 4.304523 11.166024 3.242333
v 3.637316 11.166024 4.160665
v 2.557753 10.745068 3.669035
v 1.973340 10.745068 3.479148
v 1.612154 10.745068 2.982017
v 1.612154 10.745068 2.367529
v 1.973341 10.745068 1.870398
v 2.557753 10.745068 1.680511
v 3.142165 10.745068 1.870398
v 3.503353 10.745068 2.367529
v 3.503352 10.745068 2.982017
v 3.142165 10.745068 3.479148
v 2.557753 10.702971 3.226659
v 2.233363 10.702971 3.121258
v 2.032878 10.702971 2.845315
v 2.032878 10.702971 2.504231
v 2.233362 10.702971 2.228288
v 2.557753 10.702971 2.122887
v 2.882144 10.702971 2.228288
v 3.082628 10.702971 2.504231
v 3.082628 10.702971 2.845315
v 2.882143 10.702971 3.121259
v -0.670503 11.659495 6.129384
v -0.670503 13.478304 5.531514
v -2.673548 11.659495 5.478555
v -2.322129 13.478304 4.994868
v -3.911497 11.659495 3.774664
v -3.342890 13.478304 3.589912
v -3.911498 11.659495 1.668538
v -3.342890 13.478304 1.853290
v -2.673548 11.659495 -0.035353
v -2.322129 13.478304 0.448333
v -0.670503 11.659495 -0.686182
v -0.670503 13.478304 -0.088312
v 1.332541 11.659495 -0.035353
v 0.981122 13.478304 0.448334
v 2.570490 11.659495 1.668538
v 2.001883 13.478304 1.853290
v 2.570490 11.659495 3.774664
v 2.001883 13.478304 3.589912
v 1.332540 11.659495 5.478556
v 0.981122 13.478304 4.994870
v -0.670503 14.317986 4.806656
v -1.896068 14.317986 4.408446
v -2.653509 14.317986 3.365918
v -2.653509 14.317986 2.077283
v -1.896068 14.317986 1.034756
v -0.670503 14.317986 0.636546
v 0.555061 14.317986 1.034756
v 1.312502 14.317986 2.077283
v 1.312502 14.317986 3.365919
v 0.555061 14.317986 4.408447
v -0.670504 14.770123 3.947269
v -1.390933 14.770123 3.713188
v -1.836183 14.770123 3.100353
v -1.836183 14.770123 2.342849
v -1.390933 14.770123 1.730015
v -0.670503 14.770123 1.495933
v 0.049926 14.770123 1.730015
v 0.495176 14.770123 2.342849
v 0.495176 14.770123 3.100353
v 0.049926 14.770123 3.713188
v -0.670503 10.626041 5.539744
v -2.326967 10.626041 5.001527
v -3.350717 10.626041 3.592455
v -3.350718 10.626041 1.850747
v -2.326967 10.626041 0.441675
v -0.670503 10.626041 -0.096543
v 0.985960 10.626041 0.441675
v 2.009710 10.626041 1.850747
v 2.009711 10.626041 3.592456
v 0.985959 10.626041 5.001528
v -0.670504 9.980132 4.247180
v -1.567216 9.980132 3.955820
v -2.121415 9.980132 3.193031
v -2.121415 9.980132 2.250171
v -1.567216 9.980132 1.487382
v -0.670503 9.980132 1.196022
v 0.226209 9.980132 1.487382
v 0.780408 9.980132 2.250171
v 0.780408 9.980132 3.193031
v 0.226209 9.980132 3.955821
v -0.670503 9.915542 3.568406
v -1.168243 9.915542 3.406681
v -1.475863 9.915542 2.983278
v -1.475863 9.915542 2.459924
v -1.168243 9.915542 2.036521
v -0.670504 9.915542 1.874796
v -0.172764 9.915542 2.036522
v 0.134856 9.915542 2.459924
v 0.134856 9.915542 2.983279
v -0.172764 9.915542 3.406681
v 1.902410 10.645275 -0.446965
v 1.902410 11.823063 -0.834121
v 0.605318 10.645275 -0.868415
v 0.832883 11.823063 -1.181631
v -0.196329 10.645275 -1.971787
v 0.171879 11.823063 -2.091425
v -0.196328 10.645275 -3.335629
v 0.171879 11.823063 -3.215992
v 0.605319 10.645275 -4.439002
v 0.832883 11.823063 -4.125785
v 1.902410 10.645275 -4.860452
v 1.902410 11.823063 -4.473296
v 3.199502 10.645275 -4.439002
v 2.971936 11.823063 -4.125786
v 4.001148 10.645275 -3.335630
v 3.632940 11.823063 -3.215992
v 4.001148 10.645275 -1.971787
v 3.632940 11.823063 -2.091424
v 3.199501 10.645275 -0.868414
v 2.971936 11.823063 -1.181631
v 1.902410 12.366807 -1.303510
v 1.108783 12.366807 -1.561375
v 0.618295 12.366807 -2.236474
v 0.618295 12.366807 -3.070942
v 1.108783 12.366807 -3.746042
v 1.902410 12.366807 -4.003907
v 2.696037 12.366807 -3.746042
v 3.186525 12.366807 -3.070942
v 3.186525 12.366807 -2.236474
v 2.696036 12.366807 -1.561374
v 1.902410 12.659593 -1.860014
v 1.435888 12.659593 -2.011596
v 1.147562 12.659593 -2.408444
v 1.147562 12.659593 -2.898973
v 1.435889 12.659593 -3.295820
v 1.902410 12.659593 -3.447402
v 2.368931 12.659593 -3.295820
v 2.657257 12.659593 -2.898973
v 2.657257 12.659593 -2.408443
v 2.368931 12.659593 -2.011596
v 1.902410 9.976051 -0.828791
v 0.829750 9.976051 -1.177319
v 0.166810 9.976051 -2.089778
v 0.166810 9.976051 -3.217639
v 0.829750 9.976051 -4.130097
v 1.902410 9.976051 -4.478626
v 2.975069 9.976051 -4.130098
v 3.638009 9.976051 -3.217639
v 3.638009 9.976051 -2.089778
v 2.975069 9.976051 -1.177318
v 1.902410 9.557787 -1.665804
v 1.321734 9.557787 -1.854477
v 0.962857 9.557787 -2.348429
v 0.962857 9.557787 -2.958987
v 1.321734 9.557787 -3.452939
v 1.902410 9.557787 -3.641612
v 2.483085 9.557787 -3.452940
v 2.841962 9.557787 -2.958988
v 2.841962 9.557787 -2.348429
v 2.483085 9.557787 -1.854477
v 1.902410 9.515961 -2.105351
v 1.580093 9.515961 -2.210078
v 1.380891 9.515961 -2.484257
v 1.380891 9.515961 -2.823160
v 1.580093 9.515961 -3.097338
v 1.902410 9.515961 -3.202065
v 2.224726 9.515961 -3.097338
v 2.423928 9.515961 -2.823160
v 2.423928 9.515961 -2.484256
v 2.224726 9.515961 -2.210078
v -1.677490 11.204181 -0.446965
v -1.677490 12.381968 -0.834121
v -2.974582 11.204181 -0.868415
v -2.747017 12.381968 -1.181631
v -3.776229 11.204181 -1.971787
v -3.408021 12.381968 -2.091425
v -3.776229 11.204181 -3.335630
v -3.408021 12.381968 -3.215992
v -2.974582 11.204181 -4.439002
v -2.747017 12.381968 -4.125786
v -1.677490 11.204181 -4.860453
v -1.677490 12.381968 -4.473296
v -0.380399 11.204181 -4.439002
v -0.607964 12.381968 -4.125786
v 0.421247 11.204181 -3.335630
v 0.053040 12.381968 -3.215992
v 0.421248 11.204181 -1.971787
v 0.053040 12.381968 -2.091425
v -0.380400 11.204181 -0.868415
v -0.607964 12.381968 -1.181631
v -1.677490 12.925713 -1.303510
v -2.471117 12.925713 -1.561375
v -2.961606 12.925713 -2.236474
v -2.961606 12.925713 -3.070943
v -2.471117 12.925713 -3.746042
v -1.677491 12.925713 -4.003907
v -0.883864 12.925713 -3.746042
v -0.393376 12.925713 -3.070943
v -0.393376 12.925713 -2.236474
v -0.883864 12.925713 -1.561375
v -1.677491 13.218498 -1.860015
v -2.144012 13.218498 -2.011597
v -2.432338 13.218498 -2.408443
v -2.432338 13.218498 -2.898973
v -2.144012 13.218498 -3.295820
v -1.677491 13.218498 -3.447402
v -1.210969 13.218498 -3.295820
v -0.922643 13.218498 -2.898973
v -0.922643 13.218498 -2.408443
v -1.210969 13.218498 -2.011597
v -1.677490 10.534957 -0.828791
v -2.750150 10.534957 -1.177319
v -3.413090 10.534957 -2.089778
v -3.413090 10.534957 -3.217639
v -2.750150 10.534957 -4.130097
v -1.677490 10.534957 -4.478625
v -0.604831 10.534957 -4.130097
v 0.058109 10.534957 -3.217639
v 0.058109 10.534957 -2.089778
v -0.604832 10.534957 -1.177319
v -1.677490 10.116693 -1.665805
v -2.258166 10.116693 -1.854477
v -2.617043 10.116693 -2.348429
v -2.617043 10.116693 -2.958987
v -2.258166 10.116693 -3.452940
v -1.677490 10.116693 -3.641612
v -1.096815 10.116693 -3.452940
v -0.737938 10.116693 -2.958988
v -0.737938 10.116693 -2.348429
v -1.096816 10.116693 -1.854477
v -1.677490 10.074866 -2.105351
v -1.999807 10.074866 -2.210078
v -2.199009 10.074866 -2.484257
v -2.199009 10.074866 -2.823160
v -1.999807 10.074866 -3.097339
v -1.677491 10.074866 -3.202065
v -1.355174 10.074866 -3.097338
v -1.155972 10.074866 -2.823160
v -1.155972 10.074866 -2.484257
v -1.355175 10.074866 -2.210078
v 0.309871 11.760442 3.320234
v 0.309871 13.699184 2.682940
v -1.825256 11.760442 2.626489
v -1.450664 13.699184 2.110908
v -3.144837 11.760442 0.810242
v -2.538735 13.699184 0.613307
v -3.144837 11.760442 -1.434764
v -2.538735 13.699184 -1.237829
v -1.825256 11.760442 -3.251011
v -1.450664 13.699184 -2.735430
v 0.309871 11.760442 -3.944756
v 0.309871 13.699184 -3.307462
v 2.444999 11.760442 -3.251011
v 2.070406 13.699184 -2.735430
v 3.764579 11.760442 -1.434764
v 3.158477 13.699184 -1.237829
v 3.764579 11.760442 0.810242
v 3.158477 13.699184 0.613307
v 2.444997 11.760442 2.626490
v 2.070406 13.699184 2.110909
v 0.309871 14.594235 1.910285
v -0.996509 14.594235 1.485816
v -1.803896 14.594235 0.374543
v -1.803895 14.594235 -0.999065
v -0.996508 14.594235 -2.110338
v 0.309871 14.594235 -2.534807
v 1.616251 14.594235 -2.110338
v 2.423637 14.594235 -0.999066
v 2.423638 14.594235 0.374544
v 1.616250 14.594235 1.485817
v 0.309871 15.076185 0.994229
v -0.458064 15.076185 0.744712
v -0.932674 15.076185 0.091466
v -0.932675 15.076185 -0.715989
v -0.458064 15.076185 -1.369233
v 0.309871 15.076185 -1.618751
v 1.077806 15.076185 -1.369233
v 1.552416 15.076185 -0.715989
v 1.552417 15.076185 0.091467
v 1.077806 15.076185 0.744712
v 0.309871 10.658841 2.691713
v -1.455821 10.658841 2.118006
v -2.547079 10.658841 0.616018
v -2.547079 10.658841 -1.240540
v -1.455821 10.658841 -2.742527
v 0.309871 10.658841 -3.316236
v 2.075563 10.658841 -2.742527
v 3.166821 10.658841 -1.240541
v 3.166820 10.658841 0.616018
v 2.075562 10.658841 2.118006
v 0.309871 9.970341 1.313916
v -0.645972 9.970341 1.003344
v -1.236715 9.970341 0.190255
v -1.236715 9.970341 -0.814777
v -0.645972 9.970341 -1.627866
v 0.309871 9.970341 -1.938438
v 1.265714 9.970341 -1.627866
v 1.856457 9.970341 -0.814777
v 1.856457 9.970341 0.190255
v 1.265713 9.970341 1.003344
v 0.309871 9.901490 0.590383
v -0.220690 9.901490 0.417993
v -0.548595 9.901490 -0.033329
v -0.548595 9.901490 -0.591193
v -0.220690 9.901490 -1.042515
v 0.309871 9.901490 -1.214905
v 0.840432 9.901490 -1.042515
v 1.168336 9.901490 -0.591193
v 1.168336 9.901490 -0.033329
v 0.840432 9.901490 0.417994
v -1.025034 7.258751 -0.088085
v 0.249393 7.135363 -0.604955
v -1.093017 7.123951 -0.927994
v -0.195383 7.265804 0.111563
v -0.305370 7.047692 -1.247443
v -1.240710 6.556670 -0.867451
v -0.349102 6.632280 0.165128
v -0.458351 6.516023 -1.184756
v -1.173184 6.628520 -0.033180
v 0.092687 6.562753 -0.546581
v -0.525698 3.980567 0.146175
v -1.352365 4.010666 -0.050735
v -1.420103 3.986827 -0.910166
v -0.635291 3.941995 -1.244418
v -0.082523 3.938123 -0.591559
v -0.711322 2.727224 0.473062
v -1.596947 2.705397 0.261548
v -1.669216 2.568112 -0.636242
v -0.828247 2.505094 -0.979598
v -0.236238 2.603429 -0.294007
v -1.618378 1.154171 0.386515
v -1.702368 1.018869 -0.676868
v -0.710132 1.018408 -1.091160
v -0.012917 1.153425 -0.283812
v -0.574243 1.237331 0.629440
v -3.056777 10.145391 -0.589087
v -3.510427 9.316598 -0.816443
v -3.289560 9.916850 -0.084799
v -3.193279 9.774419 -1.041273
v -3.569930 9.404630 -0.225312
v -4.459247 10.535944 -0.944969
v -4.761856 10.238850 -0.289412
v -4.349579 10.833990 -0.581676
v -4.714050 10.168123 -0.764337
v -4.536601 10.650376 -0.176521
v -0.476042 8.811112 1.350352
v -0.652551 8.167675 1.702545
v -0.084536 8.633683 1.531074
v -0.827099 8.523107 1.456325
v -0.193623 8.236019 1.748741
v -0.472671 9.287865 2.208375
v -0.628852 8.806257 2.618151
v -0.126252 9.169673 2.391947
v -0.783299 9.063262 2.348174
v -0.222777 8.872025 2.645202
v -0.781000 9.115726 2.443268
v -0.224306 8.930304 2.741017
v -0.472494 9.336621 2.301116
v -0.627609 8.864605 2.715144
v -0.128441 9.222025 2.485135
v -0.557655 5.711464 -0.699423
v -0.345007 5.322968 -0.592851
v -0.390136 5.256201 -0.144507
v -0.630680 5.603436 -0.040721
v -0.734210 5.884802 -0.316944
v 3.275698 7.298000 -0.491026
v 3.363120 7.138287 -0.447212
v 3.344567 7.110838 -0.262895
v 3.245677 7.253590 -0.192792
v 3.203116 7.369261 -0.333786
v 1.490637 5.856635 -0.021208
v 1.400266 6.102240 -0.320580
v 1.740001 5.611814 -0.561419
v 1.700607 5.553532 -0.170058
v 1.554381 5.950933 -0.654447
v 2.361722 6.339461 -0.082880
v 2.563670 6.141192 -0.520372
v 2.288533 6.538364 -0.325326
v 2.531767 6.093992 -0.203426
v 2.413343 6.415828 -0.595709
v 3.313236 7.304313 -0.427104
v 3.362247 7.214773 -0.402542
v 3.351846 7.199385 -0.299209
v 3.296406 7.279415 -0.259907
v 3.272544 7.344263 -0.338952
v 1.268705 6.085752 -0.320305
v 1.572363 5.530987 -0.168121
v 1.424522 5.932774 -0.657858
v 1.360074 5.837436 -0.022687
v 1.612192 5.589912 -0.563802
v 2.209283 6.499453 -0.324903
v 2.457611 6.045773 -0.200449
v 2.336708 6.374350 -0.600949
v 2.284004 6.296383 -0.077376
v 2.490182 6.093961 -0.524032
vn -0.2318 -0.0030 0.9728
vn -0.9878 0.1373 0.0740
vn -0.3845 0.1064 -0.9170
vn 0.8533 0.0905 0.5135
vn 0.7619 -0.0549 -0.6454
vn 0.8478 -0.1213 0.5163
vn 0.8294 0.2785 0.4842
vn 0.7389 0.1338 -0.6604
vn 0.7458 0.1020 -0.6583
vn -0.3845 -0.0644 -0.9209
vn -0.3715 0.0633 -0.9263
vn -0.9956 -0.0415 0.0839
vn -0.9965 0.0361 0.0748
vn -0.2362 0.1728 0.9562
vn -0.2336 0.0555 0.9707
vn -0.9934 0.0940 0.0653
vn 0.8397 -0.0841 0.5365
vn -0.2341 0.0202 0.9720
vn -0.3728 0.0337 -0.9273
vn 0.7598 -0.0763 -0.6456
vn 0.7512 0.0619 -0.6571
vn -0.9959 -0.0304 0.0855
vn 0.8531 0.0677 0.5173
vn -0.3756 0.0023 -0.9268
vn -0.2340 0.0098 0.9722
vn 0.5188 0.5775 -0.6304
vn -0.7806 -0.6248 0.0145
vn 0.5676 0.6192 0.5426
vn -0.3375 -0.2162 -0.9162
vn -0.2475 -0.1280 0.9604
vn -0.0583 -0.2343 0.9704
vn -0.0546 -0.3284 -0.9429
vn 0.1118 0.8847 0.4526
vn -0.1698 -0.9771 0.1284
vn 0.1007 0.7167 -0.6901
vn -0.1624 -0.1774 0.9707
vn -0.2298 -0.2961 -0.9271
vn 0.3783 0.7649 0.5213
vn -0.5418 -0.8376 0.0702
vn 0.3297 0.6787 -0.6563
vn -0.6304 0.5775 -0.5188
vn 0.0145 -0.6248 0.7806
vn 0.5426 0.6192 -0.5676
vn -0.9162 -0.2162 0.3375
vn 0.9604 -0.1280 0.2475
vn 0.9704 -0.2343 0.0583
vn -0.9160 -0.3925 0.0828
vn 0.4526 0.8847 -0.1118
vn 0.1284 -0.9771 0.1698
vn -0.6482 0.7557 -0.0934
vn 0.9707 -0.1774 0.1624
vn -0.9271 -0.2961 0.2298
vn 0.5213 0.7649 -0.3783
vn 0.0702 -0.8376 0.5418
vn -0.6563 0.6787 -0.3297
vn -0.6304 0.2891 -0.7204
vn 0.0145 -0.2160 0.9763
vn 0.5426 0.3050 -0.7826
vn -0.9162 -0.0450 0.3982
vn 0.9604 -0.0056 0.2786
vn 0.9711 -0.1549 0.1816
vn -0.9229 -0.2724 0.2721
vn 0.4929 0.6851 -0.5363
vn 0.0941 -0.7332 0.6735
vn -0.6500 0.6077 -0.4562
vn 0.7544 -0.1413 -0.6410
vn -0.3723 0.0628 -0.9260
vn -0.2340 0.0377 0.9715
vn 0.8324 -0.1553 0.5319
vn -0.9827 0.1733 0.0646
vn -0.2910 0.3363 0.8957
vn -0.7619 0.3363 0.5536
vn -0.9418 0.3363 -0.0000
vn -0.7619 0.3363 -0.5536
vn -0.2910 0.3363 -0.8957
vn 0.2910 0.3363 -0.8957
vn 0.7619 0.3363 -0.5536
vn 0.9418 0.3363 -0.0000
vn 0.7294 0.6841 -0.0000
vn 0.7619 0.3363 0.5536
vn 0.2910 0.3363 0.8957
vn 0.5901 0.6841 0.4288
vn 0.5901 0.6841 -0.4288
vn 0.2254 0.6840 -0.6937
vn -0.2254 0.6840 -0.6937
vn -0.5901 0.6841 -0.4288
vn -0.2254 0.6841 0.6937
vn -0.7294 0.6841 -0.0000
vn -0.5901 0.6841 0.4288
vn 0.2254 0.6840 0.6937
vn 0.3526 0.9000 -0.2562
vn -0.3526 0.9000 -0.2562
vn -0.1347 0.9000 0.4145
vn 0.4359 0.9000 -0.0000
vn -0.1347 0.9000 -0.4145
vn -0.3526 0.9000 0.2562
vn 0.3526 0.9000 0.2562
vn 0.1347 0.9000 -0.4145
vn -0.4359 0.9000 -0.0000
vn 0.1347 0.9000 0.4145
vn 0.6876 -0.5268 -0.4996
vn 0.2627 -0.5268 -0.8084
vn -0.2627 -0.5268 -0.8084
vn -0.6876 -0.5268 -0.4996
vn -0.2627 -0.5268 0.8084
vn -0.8500 -0.5268 -0.0000
vn -0.6876 -0.5268 0.4996
vn 0.2627 -0.5268 0.8084
vn 0.6876 -0.5268 0.4996
vn 0.8500 -0.5268 -0.0000
vn -0.1291 -0.9085 0.3975
vn 0.4179 -0.9085 -0.0000
vn -0.1291 -0.9085 -0.3975
vn -0.3381 -0.9085 0.2456
vn 0.3381 -0.9085 0.2456
vn 0.1291 -0.9085 -0.3975
vn -0.4179 -0.9085 -0.0000
vn 0.1291 -0.9085 0.3975
vn 0.3381 -0.9085 -0.2456
vn -0.3381 -0.9085 -0.2456
vn -0.0270 -0.9962 -0.0830
vn -0.0706 -0.9962 0.0513
vn 0.0706 -0.9962 0.0513
vn 0.0270 -0.9962 -0.0830
vn -0.0873 -0.9962 -0.0000
vn 0.0270 -0.9962 0.0830
vn 0.0706 -0.9962 -0.0513
vn -0.0706 -0.9962 -0.0513
vn -0.0270 -0.9962 0.0830
vn 0.0873 -0.9962 -0.0000
vn -0.0000 1.0000 -0.0000
vn -0.0000 -1.0000 -0.0000
vn -0.2932 0.3159 0.9024
vn -0.7676 0.3159 0.5577
vn -0.9488 0.3159 -0.0000
vn -0.7676 0.3159 -0.5577
vn -0.2932 0.3159 -0.9024
vn 0.2932 0.3159 -0.9024
vn 0.7676 0.3159 -0.5577
vn 0.9488 0.3159 -0.0000
vn 0.7528 0.6583 -0.0000
vn 0.7676 0.3159 0.5577
vn 0.2932 0.3159 0.9024
vn 0.6090 0.6583 0.4425
vn 0.6090 0.6583 -0.4425
vn 0.2326 0.6583 -0.7160
vn -0.2326 0.6583 -0.7160
vn -0.6090 0.6583 -0.4425
vn -0.2326 0.6583 0.7160
vn -0.7528 0.6583 -0.0000
vn -0.6090 0.6583 0.4425
vn 0.2326 0.6583 0.7160
vn 0.3729 0.8874 -0.2709
vn -0.3729 0.8874 -0.2709
vn -0.1424 0.8874 0.4384
vn 0.4609 0.8874 -0.0000
vn -0.1424 0.8874 -0.4384
vn -0.3729 0.8874 0.2709
vn 0.3729 0.8874 0.2709
vn 0.1424 0.8874 -0.4384
vn -0.4609 0.8874 -0.0000
vn 0.1424 0.8874 0.4384
vn 0.7005 -0.5004 -0.5089
vn 0.2676 -0.5004 -0.8234
vn -0.2676 -0.5004 -0.8234
vn -0.7005 -0.5004 -0.5089
vn -0.2675 -0.5004 0.8234
vn -0.8658 -0.5004 -0.0000
vn -0.7005 -0.5004 0.5089
vn 0.2675 -0.5004 0.8234
vn 0.7005 -0.5004 0.5089
vn 0.8658 -0.5004 -0.0000
vn -0.1367 -0.8968 0.4208
vn 0.4424 -0.8968 -0.0000
vn -0.1367 -0.8968 -0.4208
vn -0.3579 -0.8968 0.2601
vn 0.3579 -0.8968 0.2601
vn 0.1367 -0.8968 -0.4208
vn -0.4424 -0.8968 -0.0000
vn 0.1367 -0.8968 0.4208
vn 0.3579 -0.8968 -0.2601
vn -0.3579 -0.8968 -0.2601
vn -0.0289 -0.9956 -0.0890
vn -0.0757 -0.9956 0.0550
vn 0.0757 -0.9956 0.0550
vn 0.0289 -0.9956 -0.0890
vn -0.0935 -0.9956 -0.0000
vn 0.0289 -0.9956 0.0890
vn 0.0757 -0.9956 -0.0550
vn -0.0757 -0.9956 -0.0550
vn -0.0289 -0.9956 0.0890
vn 0.0935 -0.9956 -0.0000
vn -0.2949 0.2984 0.9077
vn -0.7722 0.2984 0.5610
vn -0.9544 0.2984 -0.0000
vn -0.7722 0.2984 -0.5610
vn -0.2949 0.2984 -0.9077
vn 0.2949 0.2984 -0.9077
vn 0.7722 0.2984 -0.5610
vn 0.9544 0.2984 -0.0000
vn 0.7729 0.6345 -0.0000
vn 0.7722 0.2984 0.5610
vn 0.2949 0.2984 0.9077
vn 0.6253 0.6345 0.4543
vn 0.6253 0.6345 -0.4543
vn 0.2388 0.6345 -0.7351
vn -0.2388 0.6345 -0.7351
vn -0.6253 0.6345 -0.4543
vn -0.2388 0.6345 0.7351
vn -0.7729 0.6345 -0.0000
vn -0.6253 0.6345 0.4543
vn 0.2388 0.6345 0.7351
vn 0.3916 0.8750 -0.2845
vn -0.3916 0.8750 -0.2845
vn -0.1496 0.8750 0.4604
vn 0.4841 0.8750 -0.0000
vn -0.1496 0.8750 -0.4604
vn -0.3916 0.8750 0.2845
vn 0.3916 0.8750 0.2845
vn 0.1496 0.8750 -0.4604
vn -0.4841 0.8750 -0.0000
vn 0.1496 0.8750 0.4604
vn 0.7111 -0.4769 -0.5166
vn 0.2716 -0.4769 -0.8359
vn -0.2716 -0.4769 -0.8359
vn -0.7111 -0.4769 -0.5166
vn -0.2716 -0.4769 0.8359
vn -0.8789 -0.4769 -0.0000
vn -0.7111 -0.4769 0.5166
vn 0.2716 -0.4769 0.8359
vn 0.7111 -0.4769 0.5166
vn 0.8789 -0.4769 -0.0000
vn -0.1437 -0.8852 0.4424
vn 0.4651 -0.8852 -0.0000
vn -0.1437 -0.8852 -0.4424
vn -0.3763 -0.8852 0.2734
vn 0.3763 -0.8852 0.2734
vn 0.1437 -0.8852 -0.4424
vn -0.4651 -0.8852 -0.0000
vn 0.1437 -0.8852 0.4424
vn 0.3763 -0.8852 -0.2734
vn -0.3763 -0.8852 -0.2734
vn -0.0308 -0.9950 -0.0947
vn -0.0805 -0.9950 0.0585
vn 0.0805 -0.9950 0.0585
vn 0.0308 -0.9950 -0.0947
vn -0.0996 -0.9950 -0.0000
vn 0.0308 -0.9950 0.0947
vn 0.0805 -0.9950 -0.0585
vn -0.0805 -0.9950 -0.0585
vn -0.0308 -0.9950 0.0947
vn 0.0996 -0.9950 -0.0000
vn 0.7316 -0.3290 -0.5971
vn -0.3775 -0.0287 -0.9256
vn -0.2315 0.1737 0.9572
vn 0.8272 -0.1664 0.5368
vn -0.9618 0.2701 0.0445
vn -0.9955 0.0554 0.0764
vn 0.8505 -0.0527 0.5234
vn -0.2327 0.0110 0.9725
vn -0.3821 0.0337 -0.9235
vn 0.7602 -0.0356 -0.6488
vn 0.8530 -0.0080 0.5219
vn 0.7351 -0.2979 -0.6090
vn -0.3893 -0.1569 -0.9076
vn -0.9710 0.2327 0.0556
vn -0.2154 0.3316 0.9185
vn -0.2318 0.0556 0.9712
vn -0.9966 0.0361 0.0744
vn -0.3792 0.0630 -0.9232
vn 0.7450 0.1020 -0.6592
vn 0.8526 0.0905 0.5147
vn -0.2293 0.1524 0.9613
vn -0.9959 -0.0407 0.0811
vn -0.3844 -0.0672 -0.9207
vn 0.7451 0.1317 -0.6538
vn 0.8305 0.2454 0.5000
vn -0.6425 0.6018 -0.4744
vn 0.0526 -0.7174 0.6947
vn 0.5286 0.6558 -0.5390
vn -0.9241 -0.2618 0.2783
vn 0.9687 -0.1552 0.1937
vn -0.6471 0.6747 -0.3550
vn 0.1045 -0.8509 0.5148
vn 0.4812 0.7723 -0.4148
vn -0.9192 -0.3336 0.2094
vn 0.9704 -0.1994 0.1358
vn -0.5188 0.5775 0.6304
vn 0.7806 -0.6248 -0.0145
vn -0.5676 0.6192 -0.5426
vn 0.3375 -0.2162 0.9162
vn 0.2475 -0.1280 -0.9604
vn 0.0583 -0.2343 -0.9704
vn 0.0656 -0.3966 0.9156
vn -0.1118 0.8847 -0.4526
vn 0.1698 -0.9771 -0.1284
vn -0.1051 0.7503 0.6527
vn 0.1624 -0.1774 -0.9707
vn 0.2298 -0.2961 0.9271
vn -0.3784 0.7649 -0.5213
vn 0.5418 -0.8376 -0.0702
vn -0.3297 0.6787 0.6563
vn 0.3202 0.7775 0.5412
vn 0.9947 -0.0433 0.0937
vn 0.3082 0.9119 -0.2710
vn 0.7428 0.2009 0.6387
vn 0.8081 0.3039 -0.5046
vn 0.8465 0.5075 0.1608
vn -0.0808 0.7186 0.6907
vn 0.1359 -0.9818 -0.1325
vn -0.0901 0.8908 -0.4453
vn 0.0437 -0.3293 0.9432
vn 0.0471 -0.2402 -0.9696
vn -0.3783 0.7649 -0.5213
vt 0.561811 0.791830
vt 0.561574 0.773914
vt 0.565589 0.772553
vt 0.565862 0.790457
vt 0.565918 0.773631
vt 0.566194 0.791544
vt 0.823082 0.697953
vt 0.822673 0.676347
vt 0.817025 0.678792
vt 0.817384 0.700419
vt 0.814487 0.774036
vt 0.814734 0.758405
vt 0.818070 0.750994
vt 0.817936 0.767228
vt 0.813047 0.679002
vt 0.813371 0.700632
vt 0.559639 0.793765
vt 0.559421 0.775832
vt 0.559298 0.920744
vt 0.559731 0.906079
vt 0.562363 0.902419
vt 0.562049 0.916918
vt 0.562715 0.926901
vt 0.563000 0.911968
vt 0.563294 0.859110
vt 0.563368 0.845795
vt 0.560559 0.841665
vt 0.560393 0.854625
vt 0.825131 0.861183
vt 0.825240 0.843174
vt 0.818349 0.843198
vt 0.817927 0.861208
vt 0.567415 0.856236
vt 0.567355 0.842203
vt 0.824521 0.853742
vt 0.824657 0.836056
vt 0.824366 0.768429
vt 0.824292 0.751395
vt 0.824802 0.759053
vt 0.824890 0.775979
vt 0.816941 0.849168
vt 0.817405 0.831680
vt 0.564591 0.648495
vt 0.564258 0.642349
vt 0.564088 0.625671
vt 0.564422 0.631828
vt 0.814190 0.517619
vt 0.810961 0.524793
vt 0.810695 0.504689
vt 0.813929 0.497504
vt 0.560192 0.642027
vt 0.560016 0.625349
vt 0.814989 0.529614
vt 0.820707 0.525420
vt 0.820456 0.505317
vt 0.814729 0.509518
vt 0.817286 0.182298
vt 0.814165 0.178562
vt 0.819962 0.497892
vt 0.821334 0.173304
vt 0.821716 0.179048
vt 0.816667 0.173003
vt 0.844350 0.321379
vt 0.845146 0.337770
vt 0.854237 0.266560
vt 0.853755 0.256652
vt 0.846996 0.358000
vt 0.847344 0.354110
vt 0.855565 0.276437
vt 0.855355 0.278788
vt 0.845708 0.331477
vt 0.854576 0.262756
vt 0.818152 0.431930
vt 0.815748 0.398653
vt 0.835112 0.378141
vt 0.837211 0.407188
vt 0.814922 0.407906
vt 0.817642 0.437648
vt 0.836766 0.412180
vt 0.834392 0.386218
vt 0.813751 0.383805
vt 0.833370 0.365180
vt 0.838690 0.399989
vt 0.836654 0.371819
vt 0.844825 0.338320
vt 0.846525 0.361844
vt 0.835955 0.379652
vt 0.838258 0.404831
vt 0.846164 0.365887
vt 0.844241 0.344861
vt 0.834964 0.359250
vt 0.843414 0.327824
vt 0.824700 0.150067
vt 0.823499 0.165245
vt 0.824043 0.095489
vt 0.824742 0.086662
vt 0.824096 0.183977
vt 0.825667 0.180375
vt 0.825304 0.104288
vt 0.824391 0.106382
vt 0.826040 0.159418
vt 0.825521 0.092100
vt 0.826026 0.242813
vt 0.826554 0.213167
vt 0.826331 0.194893
vt 0.825870 0.220771
vt 0.822959 0.221410
vt 0.823804 0.247907
vt 0.823931 0.225218
vt 0.823193 0.202089
vt 0.824659 0.199940
vt 0.824677 0.183347
vt 0.816183 0.380234
vt 0.818202 0.389450
vt 0.817287 0.313118
vt 0.816113 0.307758
vt 0.817198 0.398606
vt 0.814560 0.395047
vt 0.815169 0.316373
vt 0.816703 0.318443
vt 0.813933 0.383692
vt 0.814804 0.309770
vt 0.814177 0.464260
vt 0.813385 0.442389
vt 0.813444 0.440035
vt 0.814218 0.461419
vt 0.563288 0.584696
vt 0.562433 0.600903
vt 0.562410 0.598479
vt 0.563247 0.582631
vt 0.816228 0.432631
vt 0.816223 0.430493
vt 0.560184 0.597787
vt 0.560211 0.595432
vt 0.561568 0.571563
vt 0.561565 0.569790
vt 0.814400 0.426076
vt 0.813704 0.410032
vt 0.818442 0.415879
vt 0.817328 0.429689
vt 0.816202 0.403730
vt 0.812099 0.556285
vt 0.816099 0.558855
vt 0.815877 0.549629
vt 0.811871 0.547055
vt 0.561481 0.676216
vt 0.565315 0.674363
vt 0.565170 0.666711
vt 0.561331 0.668567
vt 0.821289 0.552668
vt 0.815306 0.552461
vt 0.815083 0.543226
vt 0.821074 0.543433
vt 0.564984 0.671086
vt 0.564839 0.663430
vt 0.074135 0.179518
vt 0.066805 0.763542
vt 0.079389 0.763542
vt 0.089396 0.179518
vt 0.087166 0.763542
vt 0.098828 0.179518
vt 0.054222 0.763542
vt 0.058873 0.179518
vt 0.046444 0.763542
vt 0.049441 0.179518
vt 0.051697 0.612572
vt 0.057468 0.612572
vt 0.066805 0.612572
vt 0.076143 0.612572
vt 0.081914 0.612572
vt 0.061316 0.658030
vt 0.057924 0.658030
vt 0.075687 0.658030
vt 0.072294 0.658030
vt 0.066805 0.658030
vt 0.046385 0.181706
vt 0.054185 0.181706
vt 0.066805 0.181706
vt 0.079426 0.181706
vt 0.087226 0.181706
vt 0.073637 0.176443
vt 0.066805 0.176443
vt 0.055751 0.176443
vt 0.077860 0.176443
vt 0.059973 0.176443
vt 0.066805 0.169949
vt 0.070598 0.169949
vt 0.072941 0.169949
vt 0.063013 0.169949
vt 0.060669 0.169949
vt 0.066202 0.224749
vt 0.064369 0.553995
vt 0.080433 0.553995
vt 0.085684 0.224749
vt 0.090362 0.553995
vt 0.097724 0.224749
vt 0.048305 0.553995
vt 0.046719 0.224749
vt 0.038377 0.553995
vt 0.034679 0.224749
vt 0.030423 0.780443
vt 0.037790 0.780443
vt 0.049711 0.780443
vt 0.061631 0.780443
vt 0.068998 0.780443
vt 0.057362 0.667751
vt 0.053031 0.667751
vt 0.075707 0.667751
vt 0.071376 0.667751
vt 0.064369 0.667751
vt 0.040133 0.233206
vt 0.050090 0.233206
vt 0.066202 0.233206
vt 0.082313 0.233206
vt 0.092270 0.233206
vt 0.074923 0.176328
vt 0.066202 0.176328
vt 0.052090 0.176328
vt 0.080314 0.176328
vt 0.057480 0.176328
vt 0.066202 0.170640
vt 0.071043 0.170640
vt 0.074035 0.170640
vt 0.061360 0.170640
vt 0.058368 0.170640
vt 0.067023 0.243816
vt 0.061526 0.550679
vt 0.074671 0.550679
vt 0.082964 0.243816
vt 0.082795 0.550679
vt 0.092817 0.243816
vt 0.082795 0.550679
vt 0.092817 0.243816
vt 0.074671 0.550679
vt 0.082964 0.243816
vt 0.061526 0.550679
vt 0.067023 0.243816
vt 0.048381 0.550679
vt 0.051081 0.243816
vt 0.040257 0.550679
vt 0.041228 0.243816
vt 0.040257 0.550679
vt 0.041228 0.243816
vt 0.042079 0.763987
vt 0.048381 0.550679
vt 0.051081 0.243816
vt 0.048107 0.763987
vt 0.057861 0.763987
vt 0.067615 0.763987
vt 0.073643 0.763987
vt 0.055792 0.639118
vt 0.052248 0.639118
vt 0.070803 0.639118
vt 0.067259 0.639118
vt 0.061526 0.639118
vt 0.067259 0.639118
vt 0.061526 0.639118
vt 0.055792 0.639118
vt 0.040194 0.252634
vt 0.048342 0.252634
vt 0.061526 0.252634
vt 0.074709 0.252634
vt 0.082857 0.252634
vt 0.074159 0.241569
vt 0.067023 0.241569
vt 0.055475 0.241569
vt 0.078570 0.241569
vt 0.059886 0.241569
vt 0.067023 0.237147
vt 0.070984 0.237147
vt 0.073432 0.237147
vt 0.063061 0.237147
vt 0.060613 0.237147
vt 0.061386 0.219174
vt 0.055889 0.501382
vt 0.068179 0.501382
vt 0.076290 0.219174
vt 0.075774 0.501382
vt 0.085502 0.219174
vt 0.085502 0.219174
vt 0.076290 0.219174
vt 0.061386 0.219174
vt 0.043599 0.501382
vt 0.046481 0.219174
vt 0.036003 0.501382
vt 0.037269 0.219174
vt 0.037269 0.219174
vt 0.052127 0.734926
vt 0.052127 0.734926
vt 0.046481 0.219174
vt 0.057763 0.734926
vt 0.057763 0.734926
vt 0.066883 0.734926
vt 0.076002 0.734926
vt 0.081638 0.734926
vt 0.066883 0.734926
vt 0.076002 0.734926
vt 0.081638 0.734926
vt 0.050528 0.539344
vt 0.047215 0.539344
vt 0.064563 0.539344
vt 0.061249 0.539344
vt 0.055889 0.539344
vt 0.039610 0.221959
vt 0.047228 0.221959
vt 0.059553 0.221959
vt 0.071879 0.221959
vt 0.079497 0.221959
vt 0.062561 0.236132
vt 0.055889 0.236132
vt 0.045092 0.236132
vt 0.045092 0.236132
vt 0.055889 0.236132
vt 0.062561 0.236132
vt 0.066685 0.236132
vt 0.049216 0.236132
vt 0.049216 0.236132
vt 0.066685 0.236132
vt 0.055889 0.234234
vt 0.059592 0.234234
vt 0.061881 0.234234
vt 0.059592 0.234234
vt 0.052185 0.234234
vt 0.049896 0.234234
vt 0.052185 0.234234
vt 0.055889 0.234234
vt 0.067130 0.240491
vt 0.061843 0.573060
vt 0.068974 0.573060
vt 0.075779 0.240491
vt 0.073382 0.573060
vt 0.081124 0.240491
vt 0.054712 0.573060
vt 0.058481 0.240491
vt 0.050304 0.573060
vt 0.053136 0.240491
vt 0.056805 0.777841
vt 0.058481 0.240491
vt 0.060076 0.777841
vt 0.065368 0.777841
vt 0.070659 0.777841
vt 0.073930 0.777841
vt 0.070659 0.777841
vt 0.058732 0.716416
vt 0.056810 0.716416
vt 0.066876 0.716416
vt 0.064954 0.716416
vt 0.061843 0.716416
vt 0.050270 0.256537
vt 0.054691 0.256537
vt 0.061843 0.256537
vt 0.068995 0.256537
vt 0.073416 0.256537
vt 0.065715 0.184859
vt 0.061843 0.184859
vt 0.055578 0.184859
vt 0.068108 0.184859
vt 0.057971 0.184859
vt 0.061843 0.177691
vt 0.063992 0.177691
vt 0.065320 0.177691
vt 0.059694 0.177691
vt 0.058366 0.177691
vt 0.050946 0.231338
vt 0.051710 0.389633
vt 0.060905 0.389633
vt 0.062097 0.231338
vt 0.066587 0.389633
vt 0.068989 0.231338
vt 0.066587 0.389633
vt 0.060905 0.389633
vt 0.051710 0.389633
vt 0.042515 0.389633
vt 0.039795 0.231338
vt 0.036832 0.389633
vt 0.032903 0.231338
vt 0.036832 0.389633
vt 0.041434 0.628172
vt 0.042515 0.389633
vt 0.045651 0.628172
vt 0.052473 0.628172
vt 0.059296 0.628172
vt 0.063513 0.628172
vt 0.047699 0.405895
vt 0.045220 0.405895
vt 0.058199 0.405895
vt 0.055721 0.405895
vt 0.051710 0.405895
vt 0.036025 0.218329
vt 0.041725 0.218329
vt 0.050946 0.218329
vt 0.060168 0.218329
vt 0.065867 0.218329
vt 0.055938 0.210198
vt 0.050946 0.210198
vt 0.042869 0.210198
vt 0.050946 0.210198
vt 0.055938 0.210198
vt 0.059024 0.210198
vt 0.045954 0.210198
vt 0.045954 0.210198
vt 0.050946 0.209385
vt 0.053717 0.209385
vt 0.055430 0.209385
vt 0.048175 0.209385
vt 0.046463 0.209385
vt 0.047449 0.188327
vt 0.054779 0.621327
vt 0.069997 0.621327
vt 0.056512 0.188327
vt 0.079402 0.621327
vt 0.062113 0.188327
vt 0.039560 0.621327
vt 0.038386 0.188327
vt 0.030155 0.621327
vt 0.032785 0.188327
vt 0.036507 0.792207
vt 0.043486 0.792207
vt 0.054779 0.792207
vt 0.066071 0.792207
vt 0.073050 0.792207
vt 0.051805 0.639392
vt 0.047703 0.639392
vt 0.069184 0.639392
vt 0.065081 0.639392
vt 0.058443 0.639392
vt 0.035323 0.198758
vt 0.039955 0.198758
vt 0.047449 0.198758
vt 0.054944 0.198758
vt 0.059576 0.198758
vt 0.051507 0.161762
vt 0.047449 0.161762
vt 0.040885 0.161762
vt 0.054014 0.161762
vt 0.043392 0.161762
vt 0.047449 0.158063
vt 0.049701 0.158063
vt 0.051093 0.158063
vt 0.045197 0.158063
vt 0.043805 0.158063
vt 0.821565 0.547390
vt 0.820213 0.518007
vt 0.822186 0.675048
vt 0.821779 0.556619
vt 0.816237 0.676689
vt 0.816588 0.698298
vt 0.818895 0.763386
vt 0.822590 0.696642
vt 0.818785 0.779445
vt 0.813507 0.836095
vt 0.815380 0.919230
vt 0.824065 0.919230
vt 0.824764 0.919230
vt 0.816510 0.919230
vt 0.812865 0.853783
vt 0.810710 0.919230
vt 0.573138 0.515639
vt 0.573828 0.533081
vt 0.574883 0.527637
vt 0.574215 0.510722
vt 0.574314 0.526384
vt 0.575355 0.521143
vt 0.575431 0.554607
vt 0.576438 0.548514
vt 0.575731 0.550468
vt 0.576729 0.544499
vt 0.582018 0.512873
vt 0.580870 0.493368
vt 0.581466 0.487695
vt 0.582570 0.506460
vt 0.580476 0.498792
vt 0.581774 0.516225
vt 0.582336 0.509685
vt 0.581087 0.492913
vt 0.816253 0.444205
vt 0.819108 0.461948
vt 0.818776 0.448471
vt 0.817689 0.483845
vt 0.813956 0.479634
vt 0.817509 0.468019
vt 0.813069 0.455136
vt 0.818715 0.445981
vt 0.818458 0.418764
vt 0.816203 0.406411
vt 0.817476 0.465095
vt 0.814389 0.429281
vt 0.817337 0.432898
vt 0.813688 0.412912
vt 0.561551 0.549824
vt 0.563073 0.560065
vt 0.563062 0.557673
vt 0.561550 0.547601
vt 0.562316 0.571784
vt 0.560327 0.568786
vt 0.560334 0.566128
vt 0.562310 0.569124
vt 0.559853 0.555213
vt 0.559864 0.552826
vt 0.796890 0.453896
vt 0.796248 0.467117
vt 0.788492 0.406355
vt 0.788865 0.398667
vt 0.794756 0.483433
vt 0.794476 0.480296
vt 0.787461 0.414019
vt 0.787624 0.415844
vt 0.795795 0.462041
vt 0.788228 0.403403
vt 0.802825 0.516939
vt 0.804471 0.494149
vt 0.803332 0.492942
vt 0.801703 0.515483
vt 0.554014 0.627822
vt 0.552757 0.644711
vt 0.551997 0.643468
vt 0.553241 0.626764
vt 0.805839 0.483981
vt 0.804684 0.482885
vt 0.803174 0.520856
vt 0.802049 0.519357
vt 0.554555 0.614137
vt 0.553776 0.613229
vt 0.547321 0.613685
vt 0.548230 0.598233
vt 0.547776 0.595947
vt 0.546886 0.611082
vt 0.796930 0.469980
vt 0.795407 0.486638
vt 0.548985 0.591338
vt 0.548515 0.589194
vt 0.795121 0.483435
vt 0.797586 0.456482
vt 0.788046 0.404639
vt 0.788256 0.400328
vt 0.787469 0.408935
vt 0.787560 0.409958
vt 0.787899 0.402984
vt 0.819909 0.497338
vt 0.819000 0.516040
vt 0.805037 0.500486
vt 0.816890 0.539121
vt 0.816494 0.534683
vt 0.818359 0.508860
vt 0.803891 0.499210
vt 0.796467 0.464798
s 0
usemtl Material.001
f 596/1/1 2/2/1 4/3/1 597/4/1
f 597/4/2 4/3/2 6/5/2 598/6/2
f 598/7/3 6/8/3 8/9/3 599/10/3
f 605/11/4 19/12/4 12/13/4 601/14/4
f 599/10/5 8/9/5 10/15/5 600/16/5
f 600/17/6 10/18/6 2/2/6 596/1/6
f 609/19/7 20/20/7 11/21/7 610/22/7
f 608/23/8 18/24/8 20/20/8 609/19/8
f 604/25/9 17/26/9 19/27/9 605/28/9
f 607/29/10 16/30/10 18/31/10 608/32/10
f 603/33/11 15/34/11 17/26/11 604/25/11
f 606/35/12 14/36/12 16/30/12 607/29/12
f 602/37/13 13/38/13 15/39/13 603/40/13
f 610/41/14 11/42/14 14/36/14 606/35/14
f 601/14/15 12/13/15 13/38/15 602/37/15
f 588/43/16 586/44/16 22/45/16 23/46/16
f 589/47/17 587/48/17 25/49/17 21/50/17
f 586/44/18 589/51/18 21/52/18 22/45/18
f 590/53/19 588/54/19 23/55/19 24/56/19
f 587/48/20 590/53/20 24/56/20 25/49/20
f 25/49/21 24/56/21 29/57/21 30/58/21
f 23/55/22 22/59/22 27/60/22 28/61/22
f 21/50/23 25/49/23 30/58/23 26/62/23
f 24/56/24 23/55/24 28/61/24 29/57/24
f 22/59/25 21/50/25 26/62/25 27/60/25
f 618/63/26 616/64/26 39/65/26 40/66/26
f 619/67/27 617/68/27 37/69/27 38/70/27
f 620/71/28 618/63/28 40/66/28 36/72/28
f 616/64/29 619/67/29 38/70/29 39/65/29
f 617/68/30 620/71/30 36/72/30 37/69/30
f 32/73/31 31/74/31 45/75/31 43/76/31
f 34/77/32 33/78/32 44/79/32 41/80/32
f 31/74/33 35/81/33 42/82/33 45/75/33
f 33/78/34 32/73/34 43/76/34 44/79/34
f 35/81/35 34/77/35 41/80/35 42/82/35
f 615/83/36 613/84/36 50/85/36 47/86/36
f 614/87/37 612/88/37 49/89/37 46/90/37
f 613/84/38 611/91/38 48/92/38 50/85/38
f 612/88/39 615/83/39 47/86/39 49/89/39
f 611/91/40 614/87/40 46/90/40 48/92/40
f 68/93/41 66/94/41 59/95/41 60/96/41
f 69/97/42 67/98/42 57/99/42 58/100/42
f 70/101/43 68/93/43 60/96/43 56/102/43
f 66/94/44 69/97/44 58/100/44 59/95/44
f 67/98/45 70/101/45 56/102/45 57/99/45
f 52/103/46 51/104/46 65/105/46 63/106/46
f 54/107/47 53/108/47 64/109/47 61/110/47
f 51/104/48 55/111/48 62/112/48 65/105/48
f 53/108/49 52/103/49 63/106/49 64/109/49
f 55/111/50 54/107/50 61/110/50 62/112/50
f 63/106/51 65/105/51 70/101/51 67/98/51
f 61/110/52 64/109/52 69/97/52 66/94/52
f 65/105/53 62/112/53 68/93/53 70/101/53
f 64/109/54 63/106/54 67/98/54 69/97/54
f 62/112/55 61/110/55 66/94/55 68/93/55
f 88/113/56 86/114/56 79/115/56 80/116/56
f 89/117/57 87/118/57 77/119/57 78/120/57
f 90/121/58 88/113/58 80/116/58 76/122/58
f 86/114/59 89/117/59 78/120/59 79/115/59
f 87/118/60 90/121/60 76/122/60 77/119/60
f 625/123/46 623/124/46 85/125/46 83/126/46
f 624/127/47 622/128/47 84/129/47 81/130/47
f 623/124/48 621/131/48 82/132/48 85/125/48
f 622/128/49 625/133/49 83/134/49 84/129/49
f 621/135/50 624/127/50 81/130/50 82/136/50
f 632/137/61 635/138/61 90/121/61 87/118/61
f 631/139/62 634/140/62 89/117/62 86/114/62
f 635/138/63 633/141/63 88/113/63 90/121/63
f 634/140/64 632/137/64 87/118/64 89/117/64
f 633/141/65 631/139/65 86/114/65 88/113/65
f 595/142/66 593/143/66 95/144/66 93/145/66
f 593/146/67 591/147/67 92/148/67 95/149/67
f 594/150/68 592/151/68 94/152/68 91/153/68
f 592/151/69 595/142/69 93/145/69 94/152/69
f 591/147/70 594/154/70 91/155/70 92/148/70
f 96/156/71 97/157/71 99/158/71 98/159/71
f 98/159/72 99/158/72 101/160/72 100/161/72
f 100/161/73 101/160/73 103/160/73 102/161/73
f 102/161/74 103/160/74 105/158/74 104/159/74
f 104/159/75 105/158/75 107/157/75 106/156/75
f 106/156/76 107/157/76 109/162/76 108/163/76
f 108/163/77 109/162/77 111/164/77 110/165/77
f 110/165/78 111/164/78 113/164/78 112/165/78
f 113/164/79 111/164/79 123/166/79 124/166/79
f 112/165/80 113/164/80 115/162/80 114/163/80
f 114/163/81 115/162/81 97/157/81 96/156/81
f 115/162/82 113/164/82 124/166/82 125/167/82
f 111/164/83 109/162/83 122/167/83 123/166/83
f 109/162/84 107/157/84 121/168/84 122/167/84
f 107/157/85 105/158/85 120/169/85 121/168/85
f 105/158/86 103/160/86 119/170/86 120/169/86
f 99/158/87 97/157/87 116/168/87 117/169/87
f 103/160/88 101/160/88 118/170/88 119/170/88
f 101/160/89 99/158/89 117/169/89 118/170/89
f 97/157/90 115/162/90 125/167/90 116/168/90
f 123/166/91 122/167/91 132/171/91 133/172/91
f 120/169/92 119/170/92 129/173/92 130/174/92
f 117/169/93 116/168/93 126/175/93 127/174/93
f 124/166/94 123/166/94 133/172/94 134/172/94
f 121/168/95 120/169/95 130/174/95 131/175/95
f 118/170/96 117/169/96 127/174/96 128/173/96
f 125/167/97 124/166/97 134/172/97 135/171/97
f 122/167/98 121/168/98 131/175/98 132/171/98
f 119/170/99 118/170/99 128/173/99 129/173/99
f 116/168/100 125/167/100 135/171/100 126/175/100
f 108/163/101 110/165/101 143/176/101 142/177/101
f 106/156/102 108/163/102 142/177/102 141/178/102
f 104/159/103 106/156/103 141/178/103 140/179/103
f 102/161/104 104/159/104 140/179/104 139/180/104
f 96/156/105 98/159/105 137/179/105 136/178/105
f 100/161/106 102/161/106 139/180/106 138/180/106
f 98/159/107 100/161/107 138/180/107 137/179/107
f 114/163/108 96/156/108 136/178/108 145/177/108
f 112/165/109 114/163/109 145/177/109 144/176/109
f 110/165/110 112/165/110 144/176/110 143/176/110
f 136/178/111 137/179/111 147/181/111 146/182/111
f 143/176/112 144/176/112 154/183/112 153/183/112
f 140/179/113 141/178/113 151/182/113 150/181/113
f 137/179/114 138/180/114 148/184/114 147/181/114
f 144/176/115 145/177/115 155/185/115 154/183/115
f 141/178/116 142/177/116 152/185/116 151/182/116
f 138/180/117 139/180/117 149/184/117 148/184/117
f 145/177/118 136/178/118 146/182/118 155/185/118
f 142/177/119 143/176/119 153/183/119 152/185/119
f 139/180/120 140/179/120 150/181/120 149/184/120
f 150/181/121 151/182/121 161/186/121 160/187/121
f 147/181/122 148/184/122 158/188/122 157/187/122
f 154/183/123 155/185/123 165/189/123 164/190/123
f 151/182/124 152/185/124 162/189/124 161/186/124
f 148/184/125 149/184/125 159/188/125 158/188/125
f 155/185/126 146/182/126 156/186/126 165/189/126
f 152/185/127 153/183/127 163/190/127 162/189/127
f 149/184/128 150/181/128 160/187/128 159/188/128
f 146/182/129 147/181/129 157/187/129 156/186/129
f 153/183/130 154/183/130 164/190/130 163/190/130
f 127/174/131 126/175/131 131/175/131 130/174/131
f 128/173/131 127/174/131 130/174/131 129/173/131
f 132/171/131 131/175/131 126/175/131 135/171/131
f 133/172/131 132/171/131 135/171/131 134/172/131
f 156/186/132 157/187/132 160/187/132 161/186/132
f 161/186/132 162/189/132 165/189/132 156/186/132
f 157/187/132 158/188/132 159/188/132 160/187/132
f 162/189/132 163/190/132 164/190/132 165/189/132
f 166/191/133 167/192/133 169/193/133 168/194/133
f 168/194/134 169/193/134 171/195/134 170/196/134
f 170/196/135 171/195/135 173/195/135 172/196/135
f 172/196/136 173/195/136 175/193/136 174/194/136
f 174/194/137 175/193/137 177/192/137 176/191/137
f 176/191/138 177/192/138 179/197/138 178/198/138
f 178/198/139 179/197/139 181/199/139 180/200/139
f 180/200/140 181/199/140 183/199/140 182/200/140
f 183/199/141 181/199/141 193/201/141 194/201/141
f 182/200/142 183/199/142 185/197/142 184/198/142
f 184/198/143 185/197/143 167/192/143 166/191/143
f 185/197/144 183/199/144 194/201/144 195/202/144
f 181/199/145 179/197/145 192/202/145 193/201/145
f 179/197/146 177/192/146 191/203/146 192/202/146
f 177/192/147 175/193/147 190/204/147 191/203/147
f 175/193/148 173/195/148 189/205/148 190/204/148
f 169/193/149 167/192/149 186/203/149 187/204/149
f 173/195/150 171/195/150 188/205/150 189/205/150
f 171/195/151 169/193/151 187/204/151 188/205/151
f 167/192/152 185/197/152 195/202/152 186/203/152
f 193/201/153 192/202/153 202/206/153 203/207/153
f 190/204/154 189/205/154 199/208/154 200/209/154
f 187/204/155 186/203/155 196/210/155 197/209/155
f 194/201/156 193/201/156 203/207/156 204/207/156
f 191/203/157 190/204/157 200/209/157 201/210/157
f 188/205/158 187/204/158 197/209/158 198/208/158
f 195/202/159 194/201/159 204/207/159 205/206/159
f 192/202/160 191/203/160 201/210/160 202/206/160
f 189/205/161 188/205/161 198/208/161 199/208/161
f 186/203/162 195/202/162 205/206/162 196/210/162
f 178/198/163 180/200/163 213/211/163 212/212/163
f 176/191/164 178/198/164 212/212/164 211/213/164
f 174/194/165 176/191/165 211/213/165 210/214/165
f 172/196/166 174/194/166 210/214/166 209/215/166
f 166/191/167 168/194/167 207/214/167 206/213/167
f 170/196/168 172/196/168 209/215/168 208/215/168
f 168/194/169 170/196/169 208/215/169 207/214/169
f 184/198/170 166/191/170 206/213/170 215/212/170
f 182/200/171 184/198/171 215/212/171 214/211/171
f 180/200/172 182/200/172 214/211/172 213/211/172
f 206/213/173 207/214/173 217/216/173 216/217/173
f 213/211/174 214/211/174 224/218/174 223/218/174
f 210/214/175 211/213/175 221/217/175 220/216/175
f 207/214/176 208/215/176 218/219/176 217/216/176
f 214/211/177 215/212/177 225/220/177 224/218/177
f 211/213/178 212/212/178 222/220/178 221/217/178
f 208/215/179 209/215/179 219/219/179 218/219/179
f 215/212/180 206/213/180 216/217/180 225/220/180
f 212/212/181 213/211/181 223/218/181 222/220/181
f 209/215/182 210/214/182 220/216/182 219/219/182
f 220/216/183 221/217/183 231/221/183 230/222/183
f 217/216/184 218/219/184 228/223/184 227/222/184
f 224/218/185 225/220/185 235/224/185 234/225/185
f 221/217/186 222/220/186 232/224/186 231/221/186
f 218/219/187 219/219/187 229/223/187 228/223/187
f 225/220/188 216/217/188 226/221/188 235/224/188
f 222/220/189 223/218/189 233/225/189 232/224/189
f 219/219/190 220/216/190 230/222/190 229/223/190
f 216/217/191 217/216/191 227/222/191 226/221/191
f 223/218/192 224/218/192 234/225/192 233/225/192
f 197/209/131 196/210/131 201/210/131 200/209/131
f 198/208/131 197/209/131 200/209/131 199/208/131
f 202/206/131 201/210/131 196/210/131 205/206/131
f 203/207/131 202/206/131 205/206/131 204/207/131
f 226/221/132 227/222/132 230/222/132 231/221/132
f 231/221/132 232/224/132 235/224/132 226/221/132
f 227/222/132 228/223/132 229/223/132 230/222/132
f 232/224/132 233/225/132 234/225/132 235/224/132
f 236/226/193 237/227/193 239/228/193 238/229/193
f 238/229/194 239/228/194 241/230/194 240/231/194
f 240/231/195 241/230/195 243/232/195 242/233/195
f 242/233/196 243/232/196 245/234/196 244/235/196
f 244/235/197 245/234/197 247/236/197 246/237/197
f 246/237/198 247/236/198 249/238/198 248/239/198
f 248/239/199 249/238/199 251/240/199 250/241/199
f 250/241/200 251/240/200 253/242/200 252/243/200
f 253/242/201 251/240/201 263/244/201 264/244/201
f 252/243/202 253/242/202 255/245/202 254/246/202
f 254/246/203 255/245/203 237/227/203 236/226/203
f 255/245/204 253/242/204 264/244/204 265/247/204
f 251/240/205 249/238/205 262/247/205 263/244/205
f 249/238/206 247/236/206 261/248/206 262/247/206
f 247/236/207 245/234/207 260/249/207 261/248/207
f 245/234/208 243/232/208 259/250/208 260/249/208
f 239/228/209 237/227/209 256/248/209 257/249/209
f 243/232/210 241/230/210 258/250/210 259/250/210
f 241/230/211 239/228/211 257/249/211 258/250/211
f 237/227/212 255/245/212 265/247/212 256/248/212
f 263/244/213 262/247/213 272/251/213 273/252/213
f 260/249/214 259/250/214 269/253/214 270/254/214
f 257/249/215 256/248/215 266/255/215 267/256/215
f 264/244/216 263/244/216 273/252/216 274/252/216
f 261/248/217 260/249/217 270/254/217 271/257/217
f 258/250/218 257/249/218 267/256/218 268/253/218
f 265/247/219 264/244/219 274/252/219 275/258/219
f 262/247/220 261/248/220 271/257/220 272/251/220
f 259/250/221 258/250/221 268/253/221 269/253/221
f 256/248/222 265/247/222 275/258/222 266/255/222
f 248/239/223 250/241/223 283/259/223 282/260/223
f 246/237/224 248/239/224 282/260/224 281/261/224
f 244/235/225 246/237/225 281/261/225 280/262/225
f 242/233/226 244/235/226 280/262/226 279/263/226
f 236/226/227 238/229/227 277/262/227 276/261/227
f 240/231/228 242/233/228 279/263/228 278/263/228
f 238/229/229 240/231/229 278/263/229 277/262/229
f 254/246/230 236/226/230 276/261/230 285/260/230
f 252/243/231 254/246/231 285/260/231 284/259/231
f 250/241/232 252/243/232 284/259/232 283/259/232
f 276/261/233 277/262/233 287/264/233 286/265/233
f 283/259/234 284/259/234 294/266/234 293/266/234
f 280/262/235 281/261/235 291/265/235 290/264/235
f 277/262/236 278/263/236 288/267/236 287/264/236
f 284/259/237 285/260/237 295/268/237 294/266/237
f 281/261/238 282/260/238 292/268/238 291/265/238
f 278/263/239 279/263/239 289/267/239 288/267/239
f 285/260/240 276/261/240 286/265/240 295/268/240
f 282/260/241 283/259/241 293/266/241 292/268/241
f 279/263/242 280/262/242 290/264/242 289/267/242
f 290/264/243 291/265/243 301/269/243 300/270/243
f 287/264/244 288/267/244 298/271/244 297/270/244
f 294/266/245 295/268/245 305/272/245 304/273/245
f 291/265/246 292/268/246 302/272/246 301/269/246
f 288/267/247 289/267/247 299/271/247 298/271/247
f 295/268/248 286/265/248 296/269/248 305/272/248
f 292/268/249 293/266/249 303/273/249 302/272/249
f 289/267/250 290/264/250 300/270/250 299/271/250
f 286/265/251 287/264/251 297/270/251 296/269/251
f 293/266/252 294/266/252 304/273/252 303/273/252
f 267/256/131 266/255/131 271/257/131 270/254/131
f 268/253/131 267/256/131 270/254/131 269/253/131
f 272/251/131 271/257/131 266/255/131 275/258/131
f 273/252/131 272/251/131 275/258/131 274/252/131
f 296/269/132 297/270/132 300/270/132 301/269/132
f 301/269/132 302/272/132 305/272/132 296/269/132
f 297/270/132 298/271/132 299/271/132 300/270/132
f 302/272/132 303/273/132 304/273/132 305/272/132
f 306/274/193 307/275/193 309/276/193 308/277/193
f 308/277/194 309/276/194 311/278/194 310/279/194
f 310/279/195 311/278/195 313/278/195 312/280/195
f 312/280/196 313/278/196 315/276/196 314/281/196
f 314/281/197 315/276/197 317/275/197 316/282/197
f 316/282/198 317/275/198 319/283/198 318/284/198
f 318/284/199 319/283/199 321/285/199 320/286/199
f 320/286/200 321/285/200 323/285/200 322/287/200
f 323/285/201 321/285/201 333/288/201 334/289/201
f 322/287/202 323/285/202 325/283/202 324/290/202
f 324/290/203 325/283/203 307/275/203 306/274/203
f 325/283/204 323/285/204 334/289/204 335/291/204
f 321/285/205 319/283/205 332/292/205 333/288/205
f 319/283/206 317/275/206 331/293/206 332/292/206
f 317/275/207 315/276/207 330/294/207 331/293/207
f 315/276/208 313/278/208 329/295/208 330/294/208
f 309/276/209 307/275/209 326/296/209 327/297/209
f 313/278/210 311/278/210 328/298/210 329/295/210
f 311/278/211 309/276/211 327/297/211 328/298/211
f 307/275/212 325/283/212 335/291/212 326/296/212
f 333/288/213 332/292/213 342/299/213 343/300/213
f 330/294/214 329/295/214 339/301/214 340/302/214
f 327/297/215 326/296/215 336/303/215 337/302/215
f 334/289/216 333/288/216 343/300/216 344/300/216
f 331/293/217 330/294/217 340/302/217 341/303/217
f 328/298/218 327/297/218 337/302/218 338/301/218
f 335/291/219 334/289/219 344/300/219 345/299/219
f 332/292/220 331/293/220 341/303/220 342/299/220
f 329/295/221 328/298/221 338/301/221 339/301/221
f 326/296/222 335/291/222 345/299/222 336/303/222
f 318/284/223 320/286/223 353/304/223 352/305/223
f 316/282/224 318/284/224 352/305/224 351/306/224
f 314/281/225 316/282/225 351/306/225 350/307/225
f 312/280/226 314/281/226 350/307/226 349/308/226
f 306/274/227 308/277/227 347/307/227 346/306/227
f 310/279/228 312/280/228 349/308/228 348/308/228
f 308/277/229 310/279/229 348/308/229 347/307/229
f 324/290/230 306/274/230 346/306/230 355/305/230
f 322/287/231 324/290/231 355/305/231 354/304/231
f 320/286/232 322/287/232 354/304/232 353/304/232
f 346/306/233 347/307/233 357/309/233 356/310/233
f 353/304/234 354/304/234 364/311/234 363/312/234
f 350/307/235 351/306/235 361/313/235 360/314/235
f 347/307/236 348/308/236 358/315/236 357/309/236
f 354/304/237 355/305/237 365/316/237 364/311/237
f 351/306/238 352/305/238 362/317/238 361/313/238
f 348/308/239 349/308/239 359/318/239 358/315/239
f 355/305/240 346/306/240 356/310/240 365/316/240
f 352/305/241 353/304/241 363/312/241 362/317/241
f 349/308/242 350/307/242 360/314/242 359/318/242
f 360/314/243 361/313/243 371/319/243 370/320/243
f 357/309/244 358/315/244 368/321/244 367/322/244
f 364/311/245 365/316/245 375/323/245 374/324/245
f 361/313/246 362/317/246 372/325/246 371/319/246
f 358/315/247 359/318/247 369/321/247 368/321/247
f 365/316/248 356/310/248 366/326/248 375/323/248
f 362/317/249 363/312/249 373/324/249 372/325/249
f 359/318/250 360/314/250 370/320/250 369/321/250
f 356/310/251 357/309/251 367/322/251 366/326/251
f 363/312/252 364/311/252 374/324/252 373/324/252
f 337/302/131 336/303/131 341/303/131 340/302/131
f 338/301/131 337/302/131 340/302/131 339/301/131
f 342/299/131 341/303/131 336/303/131 345/299/131
f 343/300/131 342/299/131 345/299/131 344/300/131
f 366/326/132 367/322/132 370/320/132 371/319/132
f 371/319/132 372/325/132 375/323/132 366/326/132
f 367/322/132 368/321/132 369/321/132 370/320/132
f 372/325/132 373/324/132 374/324/132 375/323/132
f 376/327/193 377/328/193 379/329/193 378/330/193
f 378/330/194 379/329/194 381/331/194 380/332/194
f 380/332/195 381/331/195 383/331/195 382/332/195
f 382/332/196 383/331/196 385/329/196 384/330/196
f 384/330/197 385/329/197 387/328/197 386/327/197
f 386/327/198 387/328/198 389/333/198 388/334/198
f 388/334/199 389/333/199 391/335/199 390/336/199
f 390/336/200 391/335/200 393/335/200 392/336/200
f 393/335/201 391/335/201 403/337/201 404/337/201
f 392/336/202 393/335/202 395/333/202 394/338/202
f 394/338/203 395/333/203 377/328/203 376/327/203
f 395/333/204 393/335/204 404/337/204 405/339/204
f 391/335/205 389/333/205 402/339/205 403/337/205
f 389/333/206 387/328/206 401/340/206 402/339/206
f 387/328/207 385/329/207 400/341/207 401/340/207
f 385/329/208 383/331/208 399/342/208 400/341/208
f 379/329/209 377/328/209 396/340/209 397/343/209
f 383/331/210 381/331/210 398/342/210 399/342/210
f 381/331/211 379/329/211 397/343/211 398/342/211
f 377/328/212 395/333/212 405/339/212 396/340/212
f 403/337/213 402/339/213 412/344/213 413/345/213
f 400/341/214 399/342/214 409/346/214 410/347/214
f 397/343/215 396/340/215 406/348/215 407/347/215
f 404/337/216 403/337/216 413/345/216 414/345/216
f 401/340/217 400/341/217 410/347/217 411/348/217
f 398/342/218 397/343/218 407/347/218 408/346/218
f 405/339/219 404/337/219 414/345/219 415/344/219
f 402/339/220 401/340/220 411/348/220 412/344/220
f 399/342/221 398/342/221 408/346/221 409/346/221
f 396/340/222 405/339/222 415/344/222 406/348/222
f 388/334/223 390/336/223 423/349/223 422/350/223
f 386/327/224 388/334/224 422/350/224 421/351/224
f 384/330/225 386/327/225 421/351/225 420/352/225
f 382/332/226 384/330/226 420/352/226 419/353/226
f 376/327/227 378/330/227 417/352/227 416/351/227
f 380/332/228 382/332/228 419/353/228 418/353/228
f 378/330/229 380/332/229 418/353/229 417/352/229
f 394/338/230 376/327/230 416/351/230 425/350/230
f 392/336/231 394/338/231 425/350/231 424/349/231
f 390/336/232 392/336/232 424/349/232 423/349/232
f 416/351/233 417/352/233 427/354/233 426/355/233
f 423/349/234 424/349/234 434/356/234 433/356/234
f 420/352/235 421/351/235 431/355/235 430/354/235
f 417/352/236 418/353/236 428/357/236 427/354/236
f 424/349/237 425/350/237 435/358/237 434/356/237
f 421/351/238 422/350/238 432/358/238 431/355/238
f 418/353/239 419/353/239 429/357/239 428/357/239
f 425/350/240 416/351/240 426/355/240 435/358/240
f 422/350/241 423/349/241 433/356/241 432/358/241
f 419/353/242 420/352/242 430/354/242 429/357/242
f 430/354/243 431/355/243 441/359/243 440/360/243
f 427/354/244 428/357/244 438/361/244 437/360/244
f 434/356/245 435/358/245 445/362/245 444/363/245
f 431/355/246 432/358/246 442/362/246 441/359/246
f 428/357/247 429/357/247 439/361/247 438/361/247
f 435/358/248 426/355/248 436/359/248 445/362/248
f 432/358/249 433/356/249 443/363/249 442/362/249
f 429/357/250 430/354/250 440/360/250 439/361/250
f 426/355/251 427/354/251 437/360/251 436/359/251
f 433/356/252 434/356/252 444/363/252 443/363/252
f 407/347/131 406/348/131 411/348/131 410/347/131
f 408/346/131 407/347/131 410/347/131 409/346/131
f 412/344/131 411/348/131 406/348/131 415/344/131
f 413/345/131 412/344/131 415/344/131 414/345/131
f 436/359/132 437/360/132 440/360/132 441/359/132
f 441/359/132 442/362/132 445/362/132 436/359/132
f 437/360/132 438/361/132 439/361/132 440/360/132
f 442/362/132 443/363/132 444/363/132 445/362/132
f 446/364/193 447/365/193 449/366/193 448/367/193
f 448/367/194 449/366/194 451/368/194 450/369/194
f 450/369/195 451/368/195 453/370/195 452/369/195
f 452/369/196 453/370/196 455/371/196 454/367/196
f 454/367/197 455/371/197 457/372/197 456/364/197
f 456/364/198 457/372/198 459/373/198 458/374/198
f 458/374/199 459/373/199 461/375/199 460/376/199
f 460/376/200 461/375/200 463/377/200 462/376/200
f 463/377/201 461/375/201 473/378/201 474/378/201
f 462/376/202 463/377/202 465/379/202 464/374/202
f 464/374/203 465/379/203 447/365/203 446/364/203
f 465/379/204 463/377/204 474/378/204 475/380/204
f 461/375/205 459/373/205 472/380/205 473/378/205
f 459/373/206 457/372/206 471/381/206 472/380/206
f 457/372/207 455/371/207 470/382/207 471/381/207
f 455/371/208 453/370/208 469/383/208 470/382/208
f 449/366/209 447/365/209 466/381/209 467/382/209
f 453/370/210 451/368/210 468/383/210 469/383/210
f 451/368/211 449/366/211 467/382/211 468/383/211
f 447/365/212 465/379/212 475/380/212 466/381/212
f 473/378/213 472/380/213 482/384/213 483/385/213
f 470/382/214 469/383/214 479/386/214 480/387/214
f 467/382/215 466/381/215 476/388/215 477/387/215
f 474/378/216 473/378/216 483/385/216 484/385/216
f 471/381/217 470/382/217 480/387/217 481/388/217
f 468/383/218 467/382/218 477/387/218 478/386/218
f 475/380/219 474/378/219 484/385/219 485/384/219
f 472/380/220 471/381/220 481/388/220 482/384/220
f 469/383/221 468/383/221 478/386/221 479/386/221
f 466/381/222 475/380/222 485/384/222 476/388/222
f 458/374/223 460/376/223 493/389/223 492/390/223
f 456/364/224 458/374/224 492/390/224 491/391/224
f 454/367/225 456/364/225 491/391/225 490/392/225
f 452/369/226 454/367/226 490/392/226 489/393/226
f 446/364/227 448/367/227 487/392/227 486/391/227
f 450/369/228 452/369/228 489/393/228 488/393/228
f 448/367/229 450/369/229 488/393/229 487/392/229
f 464/374/230 446/364/230 486/391/230 495/390/230
f 462/376/231 464/374/231 495/390/231 494/389/231
f 460/376/232 462/376/232 494/389/232 493/389/232
f 486/391/233 487/392/233 497/394/233 496/395/233
f 493/389/234 494/389/234 504/396/234 503/396/234
f 490/392/235 491/391/235 501/397/235 500/398/235
f 487/392/236 488/393/236 498/399/236 497/394/236
f 494/389/237 495/390/237 505/400/237 504/396/237
f 491/391/238 492/390/238 502/401/238 501/397/238
f 488/393/239 489/393/239 499/399/239 498/399/239
f 495/390/240 486/391/240 496/395/240 505/400/240
f 492/390/241 493/389/241 503/396/241 502/401/241
f 489/393/242 490/392/242 500/398/242 499/399/242
f 500/398/243 501/397/243 511/402/243 510/403/243
f 497/394/244 498/399/244 508/404/244 507/403/244
f 504/396/245 505/400/245 515/405/245 514/406/245
f 501/397/246 502/401/246 512/405/246 511/402/246
f 498/399/247 499/399/247 509/404/247 508/404/247
f 505/400/248 496/395/248 506/402/248 515/405/248
f 502/401/249 503/396/249 513/406/249 512/405/249
f 499/399/250 500/398/250 510/403/250 509/404/250
f 496/395/251 497/394/251 507/403/251 506/402/251
f 503/396/252 504/396/252 514/406/252 513/406/252
f 477/387/131 476/388/131 481/388/131 480/387/131
f 478/386/131 477/387/131 480/387/131 479/386/131
f 482/384/131 481/388/131 476/388/131 485/384/131
f 483/385/131 482/384/131 485/384/131 484/385/131
f 506/402/132 507/403/132 510/403/132 511/402/132
f 511/402/132 512/405/132 515/405/132 506/402/132
f 507/403/132 508/404/132 509/404/132 510/403/132
f 512/405/132 513/406/132 514/406/132 515/405/132
f 516/407/193 517/408/193 519/409/193 518/410/193
f 518/410/194 519/409/194 521/411/194 520/412/194
f 520/412/195 521/411/195 523/411/195 522/412/195
f 522/412/196 523/411/196 525/409/196 524/410/196
f 524/410/197 525/409/197 527/408/197 526/407/197
f 526/407/198 527/408/198 529/413/198 528/414/198
f 528/414/199 529/413/199 531/415/199 530/416/199
f 530/416/200 531/415/200 533/415/200 532/416/200
f 533/415/201 531/415/201 543/417/201 544/417/201
f 532/416/202 533/415/202 535/413/202 534/414/202
f 534/414/203 535/413/203 517/408/203 516/407/203
f 535/413/204 533/415/204 544/417/204 545/418/204
f 531/415/205 529/413/205 542/418/205 543/417/205
f 529/413/206 527/408/206 541/419/206 542/418/206
f 527/408/207 525/409/207 540/420/207 541/419/207
f 525/409/208 523/411/208 539/421/208 540/420/208
f 519/409/209 517/408/209 536/419/209 537/420/209
f 523/411/210 521/411/210 538/421/210 539/421/210
f 521/411/211 519/409/211 537/420/211 538/421/211
f 517/408/212 535/413/212 545/418/212 536/419/212
f 543/417/213 542/418/213 552/422/213 553/423/213
f 540/420/214 539/421/214 549/424/214 550/425/214
f 537/420/215 536/419/215 546/426/215 547/425/215
f 544/417/216 543/417/216 553/423/216 554/423/216
f 541/419/217 540/420/217 550/425/217 551/426/217
f 538/421/218 537/420/218 547/425/218 548/424/218
f 545/418/219 544/417/219 554/423/219 555/422/219
f 542/418/220 541/419/220 551/426/220 552/422/220
f 539/421/221 538/421/221 548/424/221 549/424/221
f 536/419/222 545/418/222 555/422/222 546/426/222
f 528/414/223 530/416/223 563/427/223 562/428/223
f 526/407/224 528/414/224 562/428/224 561/429/224
f 524/410/225 526/407/225 561/429/225 560/430/225
f 522/412/226 524/410/226 560/430/226 559/431/226
f 516/407/227 518/410/227 557/430/227 556/429/227
f 520/412/228 522/412/228 559/431/228 558/431/228
f 518/410/229 520/412/229 558/431/229 557/430/229
f 534/414/230 516/407/230 556/429/230 565/428/230
f 532/416/231 534/414/231 565/428/231 564/427/231
f 530/416/232 532/416/232 564/427/232 563/427/232
f 556/429/233 557/430/233 567/432/233 566/433/233
f 563/427/234 564/427/234 574/434/234 573/434/234
f 560/430/235 561/429/235 571/433/235 570/432/235
f 557/430/236 558/431/236 568/435/236 567/432/236
f 564/427/237 565/428/237 575/436/237 574/434/237
f 561/429/238 562/428/238 572/436/238 571/433/238
f 558/431/239 559/431/239 569/435/239 568/435/239
f 565/428/240 556/429/240 566/433/240 575/436/240
f 562/428/241 563/427/241 573/434/241 572/436/241
f 559/431/242 560/430/242 570/432/242 569/435/242
f 570/432/243 571/433/243 581/437/243 580/438/243
f 567/432/244 568/435/244 578/439/244 577/438/244
f 574/434/245 575/436/245 585/440/245 584/441/245
f 571/433/246 572/436/246 582/440/246 581/437/246
f 568/435/247 569/435/247 579/439/247 578/439/247
f 575/436/248 566/433/248 576/437/248 585/440/248
f 572/436/249 573/434/249 583/441/249 582/440/249
f 569/435/250 570/432/250 580/438/250 579/439/250
f 566/433/251 567/432/251 577/438/251 576/437/251
f 573/434/252 574/434/252 584/441/252 583/441/252
f 547/425/131 546/426/131 551/426/131 550/425/131
f 548/424/131 547/425/131 550/425/131 549/424/131
f 552/422/131 551/426/131 546/426/131 555/422/131
f 553/423/131 552/422/131 555/422/131 554/423/131
f 576/437/132 577/438/132 580/438/132 581/437/132
f 581/437/132 582/440/132 585/440/132 576/437/132
f 577/438/132 578/439/132 579/439/132 580/438/132
f 582/440/132 583/441/132 584/441/132 585/440/132
f 93/145/253 95/144/253 590/53/253 587/48/253
f 95/144/254 92/442/254 588/54/254 590/53/254
f 91/153/255 94/152/255 589/47/255 586/443/255
f 94/152/256 93/145/256 587/48/256 589/47/256
f 92/442/257 91/153/257 586/443/257 588/54/257
f 6/8/258 4/444/258 594/150/258 591/445/258
f 2/446/259 10/15/259 595/142/259 592/151/259
f 4/444/260 2/446/260 592/151/260 594/150/260
f 8/9/261 6/8/261 591/445/261 593/143/261
f 10/15/262 8/9/262 593/143/262 595/142/262
f 19/12/263 600/16/263 596/447/263 12/13/263
f 17/448/264 599/10/264 600/16/264 19/12/264
f 15/39/265 598/7/265 599/10/265 17/448/265
f 13/38/266 597/449/266 598/7/266 15/39/266
f 12/13/267 596/447/267 597/449/267 13/38/267
f 11/42/268 601/14/268 602/37/268 14/36/268
f 14/36/269 602/37/269 603/40/269 16/30/269
f 16/30/270 603/40/270 604/450/270 18/31/270
f 18/31/271 604/450/271 605/11/271 20/451/271
f 20/451/272 605/11/272 601/14/272 11/42/272
f 1/452/273 610/41/273 606/35/273 3/453/273
f 3/453/274 606/35/274 607/29/274 5/454/274
f 5/454/275 607/29/275 608/32/275 7/455/275
f 7/455/276 608/32/276 609/456/276 9/457/276
f 9/457/277 609/456/277 610/41/277 1/452/277
f 42/458/40 41/459/40 614/460/40 611/461/40
f 44/79/39 43/76/39 615/83/39 612/88/39
f 45/462/38 42/458/38 611/461/38 613/463/38
f 41/459/37 44/464/37 612/465/37 614/460/37
f 43/466/36 45/462/36 613/463/36 615/467/36
f 47/468/30 50/469/30 620/470/30 617/471/30
f 46/472/29 49/473/29 619/474/29 616/475/29
f 50/85/28 48/92/28 618/63/28 620/71/28
f 49/473/27 47/468/27 617/471/27 619/474/27
f 48/92/26 46/90/26 616/64/26 618/63/26
f 75/476/50 74/477/50 624/478/50 621/131/50
f 73/479/49 72/480/49 625/123/49 622/481/49
f 71/482/48 75/476/48 621/131/48 623/124/48
f 74/477/47 73/479/47 622/481/47 624/478/47
f 72/480/46 71/482/46 623/124/46 625/123/46
f 82/132/278 81/483/278 629/484/278 626/485/278
f 84/486/279 83/126/279 630/487/279 627/488/279
f 85/125/280 82/132/280 626/485/280 628/489/280
f 81/483/281 84/486/281 627/488/281 629/484/281
f 83/126/282 85/125/282 628/489/282 630/487/282
f 626/490/283 629/491/283 631/492/283 633/493/283
f 627/494/284 630/495/284 632/496/284 634/497/284
f 628/489/285 626/485/285 633/141/285 635/138/285
f 629/484/286 627/488/286 634/140/286 631/139/286
f 630/495/287 628/498/287 635/499/287 632/496/287
f 653/500/288 651/501/288 644/502/288 645/503/288
f 654/504/289 652/505/289 642/506/289 643/507/289
f 655/508/290 653/500/290 645/503/290 641/509/290
f 651/501/291 654/504/291 643/507/291 644/502/291
f 652/505/292 655/508/292 641/509/292 642/506/292
f 665/510/293 663/511/293 650/512/293 648/513/293
f 664/514/294 662/515/294 649/516/294 646/517/294
f 663/511/295 661/518/295 647/519/295 650/512/295
f 662/520/296 665/510/296 648/513/296 649/521/296
f 661/522/297 664/514/297 646/517/297 647/523/297
f 670/524/298 668/525/298 655/526/298 652/527/298
f 669/528/299 667/529/299 654/504/299 651/501/299
f 668/525/300 666/530/300 653/531/300 655/526/300
f 667/529/301 670/532/301 652/505/301 654/504/301
f 666/533/302 669/528/302 651/501/302 653/500/302
f 645/503/303 644/502/303 659/534/303 660/535/303
f 643/507/304 642/506/304 657/536/304 658/537/304
f 641/509/305 645/503/305 660/535/305 656/538/305
f 644/502/306 643/507/306 658/537/306 659/534/306
f 642/506/307 641/509/307 656/538/307 657/536/307
f 659/534/308 658/537/308 660/535/308
f 656/538/308 660/535/308 657/536/308
f 657/536/308 660/535/308 658/537/308
f 640/539/309 639/540/309 664/541/309 661/518/309
f 638/542/310 637/543/310 665/510/310 662/520/310
f 636/544/311 640/539/311 661/518/311 663/511/311
f 639/540/312 638/542/312 662/520/312 664/541/312
f 637/543/313 636/544/313 663/511/313 665/510/313
f 647/519/302 646/545/302 669/528/302 666/533/302
f 649/521/301 648/513/301 670/532/301 667/529/301
f 650/512/314 647/519/314 666/533/314 668/546/314
f 646/545/299 649/521/299 667/529/299 669/528/299
f 648/513/298 650/512/298 668/546/298 670/532/298
