# Blender 5.1.0
# www.blender.org
mtllib bush002.mtl
o bush.002
v 0.000000 0.324040 1.741511
v -0.000001 1.316379 1.695343
v -1.023634 0.324040 1.408912
v -0.996499 1.316379 1.371561
v -1.656275 0.324040 0.538156
v -1.612368 1.316379 0.523890
v -1.656275 0.324040 -0.538157
v -1.612368 1.316379 -0.523889
v -1.023634 0.324040 -1.408913
v -0.996498 1.316379 -1.371561
v 0.000001 0.324040 -1.741511
v -0.000000 1.316379 -1.695342
v 1.023635 0.324040 -1.408912
v 0.996497 1.316379 -1.371561
v 1.656276 0.324040 -0.538157
v 1.612366 1.316379 -0.523889
v 1.656276 0.324040 0.538157
v 1.612366 1.316379 0.523890
v 1.023634 0.324040 1.408912
v 0.996496 1.316379 1.371562
v -0.000001 2.184596 1.326071
v -0.779446 2.184596 1.072814
v -1.261169 2.184596 0.409778
v -1.261169 2.184596 -0.409779
v -0.779445 2.184596 -1.072814
v -0.000000 2.184596 -1.326071
v 0.779444 2.184596 -1.072813
v 1.261167 2.184596 -0.409779
v 1.261167 2.184596 0.409779
v 0.779444 2.184596 1.072814
v -0.000002 2.547945 1.021072
v -0.600173 2.547945 0.826065
v -0.971099 2.547945 0.315529
v -0.971099 2.547945 -0.315529
v -0.600172 2.547945 -0.826065
v -0.000001 2.547945 -1.021072
v 0.600170 2.547945 -0.826064
v 0.971096 2.547945 -0.315529
v 0.971096 2.547945 0.315529
v 0.600169 2.547945 0.826065
v 0.000000 -0.071942 1.381755
v -0.812175 -0.071942 1.117863
v -1.314127 -0.071942 0.426986
v -1.314127 -0.071942 -0.426986
v -0.812175 -0.071942 -1.117863
v 0.000001 -0.071942 -1.381755
v 0.812176 -0.071942 -1.117863
v 1.314128 -0.071942 -0.426986
v 1.314128 -0.071942 0.426986
v 0.812175 -0.071942 1.117864
v 0.000001 -0.319430 0.748002
v -0.439664 -0.319430 0.605146
v -0.711391 -0.319430 0.231145
v -0.711391 -0.319430 -0.231145
v -0.439664 -0.319430 -0.605146
v 0.000001 -0.319430 -0.748002
v 0.439665 -0.319430 -0.605146
v 0.711392 -0.319430 -0.231145
v 0.711392 -0.319430 0.231145
v 0.439665 -0.319430 0.605146
v 0.000000 -0.344179 0.415194
v -0.244045 -0.344179 0.335899
v -0.394873 -0.344179 0.128302
v -0.394873 -0.344179 -0.128302
v -0.244045 -0.344179 -0.335899
v 0.000000 -0.344179 -0.415194
v 0.244046 -0.344179 -0.335899
v 0.394873 -0.344179 -0.128302
v 0.394874 -0.344179 0.128302
v 0.244046 -0.344179 0.335899
v 0.000001 2.840161 0.439078
v -0.258083 2.840161 0.355222
v -0.417587 2.840161 0.135683
v -0.417587 2.840161 -0.135683
v -0.258083 2.840161 -0.355222
v 0.000001 2.840161 -0.439078
v 0.258084 2.840161 -0.355222
v 0.417589 2.840161 -0.135683
v 0.417589 2.840161 0.135683
v 0.258084 2.840161 0.355222
v 0.000004 2.958538 -0.000001
v 0.000000 0.556652 1.730689
v -1.017273 0.556651 1.400156
v -1.645983 0.556651 0.534812
v -1.645983 0.556651 -0.534812
v -1.017273 0.556651 -1.400157
v 0.000000 0.556651 -1.730689
v 1.017274 0.556651 -1.400157
v 1.645983 0.556651 -0.534813
v 1.645983 0.556651 0.534812
v 1.017273 0.556651 1.400157
vn -0.3087 0.0442 0.9501
vn -0.8082 0.0442 0.5872
vn -0.9990 0.0442 -0.0000
vn -0.8082 0.0442 -0.5872
vn -0.3087 0.0442 -0.9501
vn 0.3087 0.0442 -0.9501
vn 0.8082 0.0442 -0.5872
vn 0.9990 0.0442 -0.0000
vn 0.9270 0.3750 -0.0000
vn 0.8082 0.0442 0.5872
vn 0.3087 0.0442 0.9501
vn 0.7500 0.3750 0.5449
vn 0.7500 0.3750 -0.5449
vn 0.2865 0.3750 -0.8817
vn -0.2865 0.3750 -0.8817
vn -0.7500 0.3750 -0.5449
vn -0.2865 0.3750 0.8817
vn -0.9270 0.3750 -0.0000
vn -0.7500 0.3750 0.5449
vn 0.2865 0.3750 0.8817
vn 0.6323 0.6239 -0.4594
vn -0.6323 0.6239 -0.4594
vn -0.2415 0.6239 0.7433
vn 0.7815 0.6239 -0.0000
vn -0.2415 0.6239 -0.7433
vn -0.6323 0.6239 0.4594
vn 0.6323 0.6239 0.4594
vn 0.2415 0.6239 -0.7433
vn -0.7815 0.6239 -0.0000
vn 0.2415 0.6239 0.7433
vn 0.6122 -0.6538 -0.4448
vn 0.2338 -0.6538 -0.7196
vn -0.2338 -0.6538 -0.7196
vn -0.6122 -0.6538 -0.4448
vn -0.2338 -0.6538 0.7196
vn -0.7567 -0.6538 -0.0000
vn -0.6122 -0.6538 0.4448
vn 0.2338 -0.6538 0.7196
vn 0.6122 -0.6538 0.4448
vn 0.7567 -0.6538 -0.0000
vn -0.1174 -0.9251 0.3612
vn 0.3798 -0.9251 -0.0000
vn -0.1174 -0.9251 -0.3612
vn -0.3073 -0.9251 0.2233
vn 0.3073 -0.9251 0.2233
vn 0.1174 -0.9251 -0.3612
vn -0.3798 -0.9251 -0.0000
vn 0.1174 -0.9251 0.3612
vn 0.3073 -0.9251 -0.2233
vn -0.3073 -0.9251 -0.2233
vn -0.0241 -0.9970 -0.0741
vn -0.0631 -0.9970 0.0458
vn 0.0631 -0.9970 0.0458
vn 0.0241 -0.9970 -0.0741
vn -0.0780 -0.9970 -0.0000
vn 0.0241 -0.9970 0.0741
vn 0.0631 -0.9970 -0.0458
vn -0.0631 -0.9970 -0.0458
vn -0.0241 -0.9970 0.0741
vn 0.0780 -0.9970 -0.0000
vn -0.4669 0.8843 -0.0000
vn 0.1443 0.8843 -0.4440
vn 0.3777 0.8843 0.2744
vn -0.3777 0.8843 0.2744
vn -0.0000 -1.0000 -0.0000
vn 0.1443 0.8843 0.4440
vn 0.3777 0.8843 -0.2744
vn -0.3777 0.8843 -0.2744
vn -0.1443 0.8843 0.4440
vn 0.4669 0.8843 -0.0000
vn -0.1443 0.8843 -0.4440
vn -0.2206 0.9621 -0.1603
vn 0.2727 0.9621 -0.0000
vn -0.2727 0.9621 -0.0000
vn -0.0843 0.9621 -0.2594
vn 0.2206 0.9621 0.1603
vn -0.2206 0.9621 0.1603
vn 0.0843 0.9621 -0.2594
vn 0.0843 0.9621 0.2594
vn -0.0843 0.9621 0.2594
vn 0.2206 0.9621 -0.1603
vt 0.050383 0.445323
vt 0.064186 0.563981
vt 0.077573 0.563981
vt 0.065950 0.445323
vt 0.085846 0.563981
vt 0.075571 0.445323
vt 0.075571 0.445323
vt 0.065950 0.445323
vt 0.050383 0.445323
vt 0.050800 0.563981
vt 0.034816 0.445323
vt 0.042527 0.563981
vt 0.025195 0.445323
vt 0.025195 0.445323
vt 0.043190 0.726803
vt 0.043190 0.726803
vt 0.034816 0.445323
vt 0.049329 0.726803
vt 0.049329 0.726803
vt 0.059263 0.726803
vt 0.069196 0.726803
vt 0.075335 0.726803
vt 0.059263 0.726803
vt 0.069196 0.726803
vt 0.075335 0.726803
vt 0.062065 0.567641
vt 0.058457 0.567641
vt 0.077352 0.567641
vt 0.073744 0.567641
vt 0.067904 0.567641
vt 0.033245 0.401161
vt 0.023211 0.401161
vt 0.025760 0.402899
vt 0.034058 0.402899
vt 0.049479 0.401161
vt 0.047484 0.402899
vt 0.065714 0.401161
vt 0.060909 0.402899
vt 0.075748 0.401161
vt 0.069207 0.402899
vt 0.049479 0.401161
vt 0.065714 0.401161
vt 0.075748 0.401161
vt 0.033245 0.401161
vt 0.023211 0.401161
vt 0.050760 0.411744
vt 0.043492 0.411744
vt 0.031732 0.411744
vt 0.055251 0.411744
vt 0.036224 0.411744
vt 0.043492 0.410559
vt 0.047526 0.410559
vt 0.050019 0.410559
vt 0.047526 0.410559
vt 0.039458 0.410559
vt 0.036964 0.410559
vt 0.039458 0.410559
vt 0.043492 0.410559
s 0
usemtl Material.001
f 82/1/1 2/2/1 4/3/1 83/4/1
f 83/4/2 4/3/2 6/5/2 84/6/2
f 84/6/3 6/5/3 8/5/3 85/7/3
f 85/7/4 8/5/4 10/3/4 86/8/4
f 86/8/5 10/3/5 12/2/5 87/9/5
f 87/9/6 12/2/6 14/10/6 88/11/6
f 88/11/7 14/10/7 16/12/7 89/13/7
f 89/13/8 16/12/8 18/12/8 90/14/8
f 18/12/9 16/12/9 28/15/9 29/16/9
f 90/14/10 18/12/10 20/10/10 91/17/10
f 91/17/11 20/10/11 2/2/11 82/1/11
f 20/10/12 18/12/12 29/16/12 30/18/12
f 16/12/13 14/10/13 27/19/13 28/15/13
f 14/10/14 12/2/14 26/20/14 27/19/14
f 12/2/15 10/3/15 25/21/15 26/20/15
f 10/3/16 8/5/16 24/22/16 25/21/16
f 4/3/17 2/2/17 21/23/17 22/24/17
f 8/5/18 6/5/18 23/25/18 24/22/18
f 6/5/19 4/3/19 22/24/19 23/25/19
f 2/2/20 20/10/20 30/18/20 21/23/20
f 28/15/21 27/19/21 37/26/21 38/27/21
f 25/21/22 24/22/22 34/28/22 35/29/22
f 22/24/23 21/23/23 31/30/23 32/29/23
f 29/16/24 28/15/24 38/27/24 39/27/24
f 26/20/25 25/21/25 35/29/25 36/30/25
f 23/25/26 22/24/26 32/29/26 33/28/26
f 30/18/27 29/16/27 39/27/27 40/26/27
f 27/19/28 26/20/28 36/30/28 37/26/28
f 24/22/29 23/25/29 33/28/29 34/28/29
f 21/23/30 30/18/30 40/26/30 31/30/30
f 13/31/31 15/32/31 48/33/31 47/34/31
f 11/35/32 13/31/32 47/34/32 46/36/32
f 9/37/33 11/35/33 46/36/33 45/38/33
f 7/39/34 9/37/34 45/38/34 44/40/34
f 1/41/35 3/42/35 42/38/35 41/36/35
f 5/43/36 7/39/36 44/40/36 43/40/36
f 3/42/37 5/43/37 43/40/37 42/38/37
f 19/44/38 1/41/38 41/36/38 50/34/38
f 17/45/39 19/44/39 50/34/39 49/33/39
f 15/32/40 17/45/40 49/33/40 48/33/40
f 41/36/41 42/38/41 52/46/41 51/47/41
f 48/33/42 49/33/42 59/48/42 58/48/42
f 45/38/43 46/36/43 56/47/43 55/46/43
f 42/38/44 43/40/44 53/49/44 52/46/44
f 49/33/45 50/34/45 60/50/45 59/48/45
f 46/36/46 47/34/46 57/50/46 56/47/46
f 43/40/47 44/40/47 54/49/47 53/49/47
f 50/34/48 41/36/48 51/47/48 60/50/48
f 47/34/49 48/33/49 58/48/49 57/50/49
f 44/40/50 45/38/50 55/46/50 54/49/50
f 55/46/51 56/47/51 66/51/51 65/52/51
f 52/46/52 53/49/52 63/53/52 62/54/52
f 59/48/53 60/50/53 70/55/53 69/56/53
f 56/47/54 57/50/54 67/57/54 66/51/54
f 53/49/55 54/49/55 64/53/55 63/53/55
f 60/50/56 51/47/56 61/58/56 70/55/56
f 57/50/57 58/48/57 68/56/57 67/57/57
f 54/49/58 55/46/58 65/52/58 64/53/58
f 51/47/59 52/46/59 62/54/59 61/58/59
f 58/48/60 59/48/60 69/56/60 68/56/60
f 34/28/61 33/28/61 73/28/61 74/28/61
f 37/26/62 36/30/62 76/30/62 77/26/62
f 40/26/63 39/27/63 79/27/63 80/26/63
f 33/28/64 32/29/64 72/29/64 73/28/64
f 61/58/65 62/54/65 65/52/65 66/51/65
f 66/51/65 67/57/65 70/55/65 61/58/65
f 62/54/65 63/53/65 64/53/65 65/52/65
f 67/57/65 68/56/65 69/56/65 70/55/65
f 31/30/66 40/26/66 80/26/66 71/30/66
f 38/27/67 37/26/67 77/26/67 78/27/67
f 35/29/68 34/28/68 74/28/68 75/29/68
f 32/29/69 31/30/69 71/30/69 72/29/69
f 39/27/70 38/27/70 78/27/70 79/27/70
f 36/30/71 35/29/71 75/29/71 76/30/71
f 75/29/72 74/28/72 81/29/72
f 79/27/73 78/27/73 81/27/73
f 74/28/74 73/28/74 81/28/74
f 76/30/75 75/29/75 81/30/75
f 80/26/76 79/27/76 81/26/76
f 73/28/77 72/29/77 81/28/77
f 77/26/78 76/30/78 81/26/78
f 71/30/79 80/26/79 81/30/79
f 72/29/80 71/30/80 81/29/80
f 78/27/81 77/26/81 81/27/81
f 19/44/11 91/17/11 82/1/11 1/41/11
f 17/45/10 90/14/10 91/17/10 19/44/10
f 15/32/8 89/13/8 90/14/8 17/45/8
f 13/31/7 88/11/7 89/13/7 15/32/7
f 11/35/6 87/9/6 88/11/6 13/31/6
f 9/37/5 86/8/5 87/9/5 11/35/5
f 7/39/4 85/7/4 86/8/4 9/37/4
f 5/43/3 84/6/3 85/7/3 7/39/3
f 3/42/2 83/4/2 84/6/2 5/43/2
f 1/41/1 82/1/1 83/4/1 3/42/1
