# Blender 5.1.0
# www.blender.org
mtllib bush006.mtl
o bush.006
v 0.000003 0.594548 1.741512
v 0.000001 1.586887 1.695344
v -1.023632 0.594548 1.408913
v -0.996497 1.586887 1.371563
v -1.656273 0.594548 0.538158
v -1.612365 1.586887 0.523891
v -1.656273 0.594548 -0.538155
v -1.612366 1.586887 -0.523888
v -1.023632 0.594548 -1.408911
v -0.996496 1.586887 -1.371560
v 0.000003 0.594548 -1.741510
v 0.000002 1.586887 -1.695341
v 1.023637 0.594548 -1.408911
v 0.996499 1.586887 -1.371559
v 1.656278 0.594548 -0.538156
v 1.612368 1.586887 -0.523888
v 1.656278 0.594548 0.538158
v 1.612368 1.586887 0.523892
v 1.023637 0.594548 1.408914
v 0.996498 1.586887 1.371563
v 0.000002 2.455105 1.326072
v -0.779444 2.455105 1.072815
v -1.261167 2.455105 0.409780
v -1.261167 2.455105 -0.409777
v -0.779443 2.455105 -1.072813
v 0.000002 2.455105 -1.326070
v 0.779446 2.455105 -1.072812
v 1.261169 2.455105 -0.409777
v 1.261169 2.455105 0.409780
v 0.779446 2.455105 1.072816
v 0.000001 2.818454 1.021074
v -0.600171 2.818454 0.826066
v -0.971097 2.818454 0.315530
v -0.971097 2.818454 -0.315527
v -0.600170 2.818454 -0.826063
v 0.000001 2.818454 -1.021070
v 0.600172 2.818454 -0.826063
v 0.971098 2.818454 -0.315527
v 0.971098 2.818454 0.315531
v 0.600172 2.818454 0.826067
v 0.000002 0.198566 1.381756
v -0.812173 0.198566 1.117865
v -1.314125 0.198566 0.426987
v -1.314125 0.198566 -0.426985
v -0.812173 0.198566 -1.117862
v 0.000003 0.198566 -1.381754
v 0.812178 0.198566 -1.117862
v 1.314130 0.198566 -0.426985
v 1.314130 0.198566 0.426987
v 0.812177 0.198566 1.117865
v 0.000003 -0.048922 0.748003
v -0.439662 -0.048922 0.605147
v -0.711389 -0.048922 0.231147
v -0.711389 -0.048922 -0.231144
v -0.439662 -0.048922 -0.605145
v 0.000003 -0.048922 -0.748000
v 0.439667 -0.048922 -0.605145
v 0.711394 -0.048922 -0.231144
v 0.711394 -0.048922 0.231147
v 0.439667 -0.048922 0.605148
v 0.000003 -0.073671 0.415195
v -0.244043 -0.073671 0.335900
v -0.394871 -0.073671 0.128303
v -0.394871 -0.073671 -0.128301
v -0.244043 -0.073671 -0.335898
v 0.000002 -0.073671 -0.415193
v 0.244048 -0.073671 -0.335898
v 0.394876 -0.073671 -0.128301
v 0.394876 -0.073671 0.128304
v 0.244048 -0.073671 0.335901
v 0.000003 3.110669 0.439079
v -0.258081 3.110669 0.355223
v -0.417585 3.110669 0.135684
v -0.417585 3.110669 -0.135681
v -0.258081 3.110669 -0.355220
v 0.000003 3.110669 -0.439077
v 0.258086 3.110669 -0.355220
v 0.417591 3.110669 -0.135681
v 0.417591 3.110669 0.135684
v 0.258086 3.110669 0.355223
v 0.000006 3.229046 0.000001
v 0.000002 0.827160 1.730690
v -1.017271 0.827160 1.400158
v -1.645981 0.827160 0.534813
v -1.645981 0.827160 -0.534811
v -1.017271 0.827160 -1.400156
v 0.000002 0.827160 -1.730687
v 1.017276 0.827160 -1.400155
v 1.645985 0.827160 -0.534811
v 1.645985 0.827160 0.534814
v 1.017275 0.827160 1.400159
v -0.000001 2.750988 1.512639
v -0.000002 3.612913 1.472539
v -0.889108 2.750988 1.223750
v -0.865539 3.612913 1.191308
v -1.438607 2.750988 0.467430
v -1.400470 3.612913 0.455039
v -1.438607 2.750988 -0.467432
v -1.400470 3.612913 -0.455040
v -0.889108 2.750988 -1.223752
v -0.865538 3.612913 -1.191310
v -0.000001 2.750988 -1.512640
v -0.000001 3.612913 -1.472539
v 0.889107 2.750988 -1.223752
v 0.865535 3.612913 -1.191309
v 1.438605 2.750988 -0.467432
v 1.400466 3.612913 -0.455040
v 1.438605 2.750988 0.467431
v 1.400466 3.612913 0.455040
v 0.889106 2.750988 1.223751
v 0.865535 3.612913 1.191309
v -0.000002 4.367028 1.151797
v -0.677011 4.367028 0.931823
v -1.095426 4.367028 0.355924
v -1.095426 4.367028 -0.355926
v -0.677011 4.367028 -0.931824
v -0.000001 4.367028 -1.151798
v 0.677008 4.367028 -0.931824
v 1.095422 4.367028 -0.355926
v 1.095422 4.367028 0.355924
v 0.677008 4.367028 0.931823
v -0.000002 4.682626 0.886881
v -0.521299 4.682626 0.717502
v -0.843477 4.682626 0.274061
v -0.843477 4.682626 -0.274062
v -0.521298 4.682626 -0.717503
v -0.000002 4.682626 -0.886882
v 0.521294 4.682626 -0.717503
v 0.843473 4.682626 -0.274062
v 0.843472 4.682626 0.274061
v 0.521293 4.682626 0.717502
v -0.000001 2.407047 1.200162
v -0.705439 2.407047 0.970952
v -1.141424 2.407047 0.370870
v -1.141424 2.407047 -0.370872
v -0.705439 2.407047 -0.970953
v -0.000001 2.407047 -1.200164
v 0.705438 2.407047 -0.970953
v 1.141423 2.407047 -0.370872
v 1.141423 2.407047 0.370870
v 0.705437 2.407047 0.970952
v -0.000001 2.192084 0.649698
v -0.381884 2.192084 0.525616
v -0.617901 2.192084 0.200767
v -0.617900 2.192084 -0.200769
v -0.381884 2.192084 -0.525618
v -0.000001 2.192084 -0.649699
v 0.381883 2.192084 -0.525618
v 0.617899 2.192084 -0.200769
v 0.617899 2.192084 0.200767
v 0.381882 2.192084 0.525617
v -0.000001 2.170587 0.360628
v -0.211973 2.170587 0.291754
v -0.342979 2.170587 0.111440
v -0.342979 2.170587 -0.111441
v -0.211973 2.170587 -0.291756
v -0.000001 2.170587 -0.360630
v 0.211972 2.170587 -0.291756
v 0.342978 2.170587 -0.111441
v 0.342978 2.170587 0.111440
v 0.211972 2.170587 0.291754
v -0.000001 4.936438 0.381373
v -0.224167 4.936438 0.308537
v -0.362709 4.936438 0.117850
v -0.362709 4.936438 -0.117852
v -0.224166 4.936438 -0.308539
v -0.000000 4.936438 -0.381375
v 0.224166 4.936438 -0.308539
v 0.362708 4.936438 -0.117852
v 0.362708 4.936438 0.117850
v 0.224165 4.936438 0.308537
v 0.000003 5.039258 -0.000001
v -0.000001 2.953030 1.503239
v -0.883583 2.953030 1.216146
v -1.429667 2.953030 0.464526
v -1.429667 2.953030 -0.464527
v -0.883583 2.953030 -1.216148
v -0.000001 2.953030 -1.503240
v 0.883581 2.953030 -1.216147
v 1.429665 2.953030 -0.464528
v 1.429665 2.953030 0.464526
v 0.883581 2.953030 1.216146
v -0.000001 4.619072 1.163643
v -0.000002 5.282134 1.132794
v -0.683973 4.619072 0.941406
v -0.665842 5.282134 0.916450
v -1.106692 4.619072 0.359585
v -1.077354 5.282134 0.350052
v -1.106692 4.619072 -0.359587
v -1.077354 5.282134 -0.350053
v -0.683973 4.619072 -0.941409
v -0.665842 5.282134 -0.916451
v -0.000001 4.619072 -1.163644
v -0.000001 5.282134 -1.132795
v 0.683972 4.619072 -0.941408
v 0.665839 5.282134 -0.916451
v 1.106690 4.619072 -0.359587
v 1.077351 5.282134 -0.350053
v 1.106690 4.619072 0.359585
v 1.077350 5.282134 0.350053
v 0.683972 4.619072 0.941407
v 0.665838 5.282134 0.916450
v -0.000001 5.862260 0.886054
v -0.520811 5.862260 0.716833
v -0.842690 5.862260 0.273805
v -0.842689 5.862260 -0.273807
v -0.520811 5.862260 -0.716834
v -0.000001 5.862260 -0.886055
v 0.520809 5.862260 -0.716834
v 0.842686 5.862260 -0.273807
v 0.842686 5.862260 0.273805
v 0.520808 5.862260 0.716833
v -0.000002 6.105042 0.682260
v -0.401025 6.105042 0.551960
v -0.648870 6.105042 0.210829
v -0.648870 6.105042 -0.210831
v -0.401024 6.105042 -0.551961
v -0.000002 6.105042 -0.682261
v 0.401021 6.105042 -0.551961
v 0.648867 6.105042 -0.210831
v 0.648866 6.105042 0.210830
v 0.401020 6.105042 0.551960
v -0.000001 4.354485 0.923261
v -0.542680 4.354485 0.746934
v -0.878075 4.354485 0.285303
v -0.878075 4.354485 -0.285304
v -0.542680 4.354485 -0.746935
v -0.000001 4.354485 -0.923263
v 0.542679 4.354485 -0.746935
v 0.878074 4.354485 -0.285304
v 0.878073 4.354485 0.285303
v 0.542679 4.354485 0.746934
v -0.000001 4.189117 0.499799
v -0.293776 4.189117 0.404346
v -0.475339 4.189117 0.154446
v -0.475339 4.189117 -0.154448
v -0.293776 4.189117 -0.404348
v -0.000001 4.189117 -0.499801
v 0.293774 4.189117 -0.404348
v 0.475337 4.189117 -0.154448
v 0.475337 4.189117 0.154446
v 0.293774 4.189117 0.404346
v -0.000001 4.172581 0.277424
v -0.163067 4.172581 0.224441
v -0.263847 4.172581 0.085728
v -0.263847 4.172581 -0.085730
v -0.163067 4.172581 -0.224442
v -0.000001 4.172581 -0.277425
v 0.163065 4.172581 -0.224442
v 0.263846 4.172581 -0.085730
v 0.263846 4.172581 0.085728
v 0.163065 4.172581 0.224441
v -0.000001 6.300295 0.293383
v -0.172447 6.300295 0.237351
v -0.279025 6.300295 0.090660
v -0.279025 6.300295 -0.090661
v -0.172447 6.300295 -0.237353
v -0.000001 6.300295 -0.293384
v 0.172446 6.300295 -0.237353
v 0.279024 6.300295 -0.090661
v 0.279024 6.300295 0.090660
v 0.172446 6.300295 0.237351
v 0.000002 6.379392 -0.000001
v -0.000001 4.774499 1.156412
v -0.679723 4.774498 0.935556
v -1.099815 4.774498 0.357350
v -1.099815 4.774498 -0.357352
v -0.679723 4.774499 -0.935558
v -0.000001 4.774498 -1.156413
v 0.679721 4.774498 -0.935558
v 1.099813 4.774498 -0.357352
v 1.099813 4.774498 0.357351
v 0.679721 4.774498 0.935557
vn -0.3087 0.0442 0.9501
vn -0.8082 0.0442 0.5872
vn -0.9990 0.0442 -0.0000
vn -0.8082 0.0442 -0.5872
vn -0.3087 0.0442 -0.9501
vn 0.3087 0.0442 -0.9501
vn 0.8082 0.0442 -0.5872
vn 0.9990 0.0442 -0.0000
vn 0.9270 0.3750 -0.0000
vn 0.8082 0.0442 0.5872
vn 0.3087 0.0442 0.9501
vn 0.7500 0.3750 0.5449
vn 0.7500 0.3750 -0.5449
vn 0.2865 0.3750 -0.8817
vn -0.2865 0.3750 -0.8817
vn -0.7500 0.3750 -0.5449
vn -0.2865 0.3750 0.8817
vn -0.9270 0.3750 -0.0000
vn -0.7500 0.3750 0.5449
vn 0.2865 0.3750 0.8817
vn 0.6323 0.6239 -0.4594
vn -0.6323 0.6239 -0.4594
vn -0.2415 0.6239 0.7433
vn 0.7815 0.6239 -0.0000
vn -0.2415 0.6239 -0.7433
vn -0.6323 0.6239 0.4594
vn 0.6323 0.6239 0.4594
vn 0.2415 0.6239 -0.7433
vn -0.7815 0.6239 -0.0000
vn 0.2415 0.6239 0.7433
vn 0.6122 -0.6538 -0.4448
vn 0.2338 -0.6538 -0.7196
vn -0.2338 -0.6538 -0.7196
vn -0.6122 -0.6538 -0.4448
vn -0.2338 -0.6538 0.7196
vn -0.7567 -0.6538 -0.0000
vn -0.6122 -0.6538 0.4448
vn 0.2338 -0.6538 0.7196
vn 0.6122 -0.6538 0.4448
vn 0.7567 -0.6538 -0.0000
vn -0.1174 -0.9251 0.3612
vn 0.3798 -0.9251 -0.0000
vn -0.1174 -0.9251 -0.3612
vn -0.3073 -0.9251 0.2233
vn 0.3073 -0.9251 0.2233
vn 0.1174 -0.9251 -0.3612
vn -0.3798 -0.9251 -0.0000
vn 0.1174 -0.9251 0.3612
vn 0.3073 -0.9251 -0.2233
vn -0.3073 -0.9251 -0.2233
vn -0.0241 -0.9970 -0.0741
vn -0.0631 -0.9970 0.0458
vn 0.0631 -0.9970 0.0458
vn 0.0241 -0.9970 -0.0741
vn -0.0780 -0.9970 -0.0000
vn 0.0241 -0.9970 0.0741
vn 0.0631 -0.9970 -0.0458
vn -0.0631 -0.9970 -0.0458
vn -0.0241 -0.9970 0.0741
vn 0.0780 -0.9970 -0.0000
vn -0.4669 0.8843 -0.0000
vn 0.1443 0.8843 -0.4440
vn 0.3777 0.8843 0.2744
vn -0.3777 0.8843 0.2744
vn -0.0000 -1.0000 -0.0000
vn 0.1443 0.8843 0.4440
vn 0.3777 0.8843 -0.2744
vn -0.3777 0.8843 -0.2744
vn -0.1443 0.8843 0.4440
vn 0.4669 0.8843 -0.0000
vn -0.1443 0.8843 -0.4440
vn -0.2206 0.9621 -0.1603
vn 0.2727 0.9621 -0.0000
vn -0.2727 0.9621 -0.0000
vn -0.0843 0.9621 -0.2594
vn 0.2206 0.9621 0.1603
vn -0.2206 0.9621 0.1603
vn 0.0843 0.9621 -0.2594
vn 0.0843 0.9621 0.2594
vn -0.0843 0.9621 0.2594
vn 0.2206 0.9621 -0.1603
vt 0.055747 0.612843
vt 0.069550 0.731501
vt 0.082937 0.731501
vt 0.071314 0.612843
vt 0.091210 0.731501
vt 0.080935 0.612843
vt 0.080935 0.612843
vt 0.071314 0.612843
vt 0.055747 0.612843
vt 0.056164 0.731501
vt 0.040180 0.612843
vt 0.047891 0.731501
vt 0.030559 0.612843
vt 0.030559 0.612843
vt 0.048554 0.894323
vt 0.048554 0.894323
vt 0.040180 0.612843
vt 0.054693 0.894323
vt 0.054693 0.894323
vt 0.064627 0.894323
vt 0.074560 0.894323
vt 0.080699 0.894323
vt 0.064627 0.894323
vt 0.074560 0.894323
vt 0.080699 0.894323
vt 0.067429 0.735161
vt 0.063821 0.735161
vt 0.082716 0.735161
vt 0.079108 0.735161
vt 0.073268 0.735161
vt 0.038609 0.568681
vt 0.028575 0.568681
vt 0.031124 0.570418
vt 0.039422 0.570418
vt 0.054843 0.568681
vt 0.052848 0.570418
vt 0.071078 0.568681
vt 0.066273 0.570418
vt 0.081112 0.568681
vt 0.074571 0.570418
vt 0.054843 0.568681
vt 0.071078 0.568681
vt 0.081112 0.568681
vt 0.038609 0.568681
vt 0.028575 0.568681
vt 0.056124 0.579263
vt 0.048856 0.579263
vt 0.037096 0.579263
vt 0.060615 0.579263
vt 0.041588 0.579263
vt 0.048856 0.578079
vt 0.052890 0.578079
vt 0.055383 0.578079
vt 0.052890 0.578079
vt 0.044822 0.578079
vt 0.042328 0.578079
vt 0.044822 0.578079
vt 0.048856 0.578079
vt 0.064629 0.772104
vt 0.078015 0.772104
vt 0.086288 0.772104
vt 0.051242 0.772104
vt 0.042969 0.772104
vt 0.062508 0.775764
vt 0.058899 0.775764
vt 0.077795 0.775764
vt 0.074186 0.775764
vt 0.068347 0.775764
s 0
usemtl Material.001
f 82/1/1 2/2/1 4/3/1 83/4/1
f 83/4/2 4/3/2 6/5/2 84/6/2
f 84/6/3 6/5/3 8/5/3 85/7/3
f 85/7/4 8/5/4 10/3/4 86/8/4
f 86/8/5 10/3/5 12/2/5 87/9/5
f 87/9/6 12/2/6 14/10/6 88/11/6
f 88/11/7 14/10/7 16/12/7 89/13/7
f 89/13/8 16/12/8 18/12/8 90/14/8
f 18/12/9 16/12/9 28/15/9 29/16/9
f 90/14/10 18/12/10 20/10/10 91/17/10
f 91/17/11 20/10/11 2/2/11 82/1/11
f 20/10/12 18/12/12 29/16/12 30/18/12
f 16/12/13 14/10/13 27/19/13 28/15/13
f 14/10/14 12/2/14 26/20/14 27/19/14
f 12/2/15 10/3/15 25/21/15 26/20/15
f 10/3/16 8/5/16 24/22/16 25/21/16
f 4/3/17 2/2/17 21/23/17 22/24/17
f 8/5/18 6/5/18 23/25/18 24/22/18
f 6/5/19 4/3/19 22/24/19 23/25/19
f 2/2/20 20/10/20 30/18/20 21/23/20
f 28/15/21 27/19/21 37/26/21 38/27/21
f 25/21/22 24/22/22 34/28/22 35/29/22
f 22/24/23 21/23/23 31/30/23 32/29/23
f 29/16/24 28/15/24 38/27/24 39/27/24
f 26/20/25 25/21/25 35/29/25 36/30/25
f 23/25/26 22/24/26 32/29/26 33/28/26
f 30/18/27 29/16/27 39/27/27 40/26/27
f 27/19/28 26/20/28 36/30/28 37/26/28
f 24/22/29 23/25/29 33/28/29 34/28/29
f 21/23/30 30/18/30 40/26/30 31/30/30
f 13/31/31 15/32/31 48/33/31 47/34/31
f 11/35/32 13/31/32 47/34/32 46/36/32
f 9/37/33 11/35/33 46/36/33 45/38/33
f 7/39/34 9/37/34 45/38/34 44/40/34
f 1/41/35 3/42/35 42/38/35 41/36/35
f 5/43/36 7/39/36 44/40/36 43/40/36
f 3/42/37 5/43/37 43/40/37 42/38/37
f 19/44/38 1/41/38 41/36/38 50/34/38
f 17/45/39 19/44/39 50/34/39 49/33/39
f 15/32/40 17/45/40 49/33/40 48/33/40
f 41/36/41 42/38/41 52/46/41 51/47/41
f 48/33/42 49/33/42 59/48/42 58/48/42
f 45/38/43 46/36/43 56/47/43 55/46/43
f 42/38/44 43/40/44 53/49/44 52/46/44
f 49/33/45 50/34/45 60/50/45 59/48/45
f 46/36/46 47/34/46 57/50/46 56/47/46
f 43/40/47 44/40/47 54/49/47 53/49/47
f 50/34/48 41/36/48 51/47/48 60/50/48
f 47/34/49 48/33/49 58/48/49 57/50/49
f 44/40/50 45/38/50 55/46/50 54/49/50
f 55/46/51 56/47/51 66/51/51 65/52/51
f 52/46/52 53/49/52 63/53/52 62/54/52
f 59/48/53 60/50/53 70/55/53 69/56/53
f 56/47/54 57/50/54 67/57/54 66/51/54
f 53/49/55 54/49/55 64/53/55 63/53/55
f 60/50/56 51/47/56 61/58/56 70/55/56
f 57/50/57 58/48/57 68/56/57 67/57/57
f 54/49/58 55/46/58 65/52/58 64/53/58
f 51/47/59 52/46/59 62/54/59 61/58/59
f 58/48/60 59/48/60 69/56/60 68/56/60
f 34/28/61 33/28/61 73/28/61 74/28/61
f 37/26/62 36/30/62 76/30/62 77/26/62
f 40/26/63 39/27/63 79/27/63 80/26/63
f 33/28/64 32/29/64 72/29/64 73/28/64
f 61/58/65 62/54/65 65/52/65 66/51/65
f 66/51/65 67/57/65 70/55/65 61/58/65
f 62/54/65 63/53/65 64/53/65 65/52/65
f 67/57/65 68/56/65 69/56/65 70/55/65
f 31/30/66 40/26/66 80/26/66 71/30/66
f 38/27/67 37/26/67 77/26/67 78/27/67
f 35/29/68 34/28/68 74/28/68 75/29/68
f 32/29/69 31/30/69 71/30/69 72/29/69
f 39/27/70 38/27/70 78/27/70 79/27/70
f 36/30/71 35/29/71 75/29/71 76/30/71
f 75/29/72 74/28/72 81/29/72
f 79/27/73 78/27/73 81/27/73
f 74/28/74 73/28/74 81/28/74
f 76/30/75 75/29/75 81/30/75
f 80/26/76 79/27/76 81/26/76
f 73/28/77 72/29/77 81/28/77
f 77/26/78 76/30/78 81/26/78
f 71/30/79 80/26/79 81/30/79
f 72/29/80 71/30/80 81/29/80
f 78/27/81 77/26/81 81/27/81
f 19/44/11 91/17/11 82/1/11 1/41/11
f 17/45/10 90/14/10 91/17/10 19/44/10
f 15/32/8 89/13/8 90/14/8 17/45/8
f 13/31/7 88/11/7 89/13/7 15/32/7
f 11/35/6 87/9/6 88/11/6 13/31/6
f 9/37/5 86/8/5 87/9/5 11/35/5
f 7/39/4 85/7/4 86/8/4 9/37/4
f 5/43/3 84/6/3 85/7/3 7/39/3
f 3/42/2 83/4/2 84/6/2 5/43/2
f 1/41/1 82/1/1 83/4/1 3/42/1
f 173/1/1 93/2/1 95/3/1 174/4/1
f 174/4/2 95/3/2 97/5/2 175/6/2
f 175/6/3 97/5/3 99/5/3 176/7/3
f 176/7/4 99/5/4 101/3/4 177/8/4
f 177/8/5 101/3/5 103/2/5 178/9/5
f 178/9/6 103/2/6 105/10/6 179/11/6
f 179/11/7 105/10/7 107/12/7 180/13/7
f 180/13/8 107/12/8 109/12/8 181/14/8
f 109/12/9 107/12/9 119/15/9 120/16/9
f 181/14/10 109/12/10 111/10/10 182/17/10
f 182/17/11 111/10/11 93/2/11 173/1/11
f 111/10/12 109/12/12 120/16/12 121/18/12
f 107/12/13 105/10/13 118/19/13 119/15/13
f 105/10/14 103/2/14 117/20/14 118/19/14
f 103/2/15 101/3/15 116/21/15 117/20/15
f 101/3/16 99/5/16 115/22/16 116/21/16
f 95/3/17 93/2/17 112/23/17 113/24/17
f 99/5/18 97/5/18 114/25/18 115/22/18
f 97/5/19 95/3/19 113/24/19 114/25/19
f 93/2/20 111/10/20 121/18/20 112/23/20
f 119/15/21 118/19/21 128/26/21 129/27/21
f 116/21/22 115/22/22 125/28/22 126/29/22
f 113/24/23 112/23/23 122/30/23 123/29/23
f 120/16/24 119/15/24 129/27/24 130/27/24
f 117/20/25 116/21/25 126/29/25 127/30/25
f 114/25/26 113/24/26 123/29/26 124/28/26
f 121/18/27 120/16/27 130/27/27 131/26/27
f 118/19/28 117/20/28 127/30/28 128/26/28
f 115/22/29 114/25/29 124/28/29 125/28/29
f 112/23/30 121/18/30 131/26/30 122/30/30
f 104/31/31 106/32/31 139/33/31 138/34/31
f 102/35/32 104/31/32 138/34/32 137/36/32
f 100/37/33 102/35/33 137/36/33 136/38/33
f 98/39/34 100/37/34 136/38/34 135/40/34
f 92/41/35 94/42/35 133/38/35 132/36/35
f 96/43/36 98/39/36 135/40/36 134/40/36
f 94/42/37 96/43/37 134/40/37 133/38/37
f 110/44/38 92/41/38 132/36/38 141/34/38
f 108/45/39 110/44/39 141/34/39 140/33/39
f 106/32/40 108/45/40 140/33/40 139/33/40
f 132/36/41 133/38/41 143/46/41 142/47/41
f 139/33/42 140/33/42 150/48/42 149/48/42
f 136/38/43 137/36/43 147/47/43 146/46/43
f 133/38/44 134/40/44 144/49/44 143/46/44
f 140/33/45 141/34/45 151/50/45 150/48/45
f 137/36/46 138/34/46 148/50/46 147/47/46
f 134/40/47 135/40/47 145/49/47 144/49/47
f 141/34/48 132/36/48 142/47/48 151/50/48
f 138/34/49 139/33/49 149/48/49 148/50/49
f 135/40/50 136/38/50 146/46/50 145/49/50
f 146/46/51 147/47/51 157/51/51 156/52/51
f 143/46/52 144/49/52 154/53/52 153/54/52
f 150/48/53 151/50/53 161/55/53 160/56/53
f 147/47/54 148/50/54 158/57/54 157/51/54
f 144/49/55 145/49/55 155/53/55 154/53/55
f 151/50/56 142/47/56 152/58/56 161/55/56
f 148/50/57 149/48/57 159/56/57 158/57/57
f 145/49/58 146/46/58 156/52/58 155/53/58
f 142/47/59 143/46/59 153/54/59 152/58/59
f 149/48/60 150/48/60 160/56/60 159/56/60
f 125/28/61 124/28/61 164/28/61 165/28/61
f 128/26/62 127/30/62 167/30/62 168/26/62
f 131/26/63 130/27/63 170/27/63 171/26/63
f 124/28/64 123/29/64 163/29/64 164/28/64
f 152/58/65 153/54/65 156/52/65 157/51/65
f 157/51/65 158/57/65 161/55/65 152/58/65
f 153/54/65 154/53/65 155/53/65 156/52/65
f 158/57/65 159/56/65 160/56/65 161/55/65
f 122/30/66 131/26/66 171/26/66 162/30/66
f 129/27/67 128/26/67 168/26/67 169/27/67
f 126/29/68 125/28/68 165/28/68 166/29/68
f 123/29/69 122/30/69 162/30/69 163/29/69
f 130/27/70 129/27/70 169/27/70 170/27/70
f 127/30/71 126/29/71 166/29/71 167/30/71
f 166/29/72 165/28/72 172/29/72
f 170/27/73 169/27/73 172/27/73
f 165/28/74 164/28/74 172/28/74
f 167/30/75 166/29/75 172/30/75
f 171/26/76 170/27/76 172/26/76
f 164/28/77 163/29/77 172/28/77
f 168/26/78 167/30/78 172/26/78
f 162/30/79 171/26/79 172/30/79
f 163/29/80 162/30/80 172/29/80
f 169/27/81 168/26/81 172/27/81
f 110/44/11 182/17/11 173/1/11 92/41/11
f 108/45/10 181/14/10 182/17/10 110/44/10
f 106/32/8 180/13/8 181/14/8 108/45/8
f 104/31/7 179/11/7 180/13/7 106/32/7
f 102/35/6 178/9/6 179/11/6 104/31/6
f 100/37/5 177/8/5 178/9/5 102/35/5
f 98/39/4 176/7/4 177/8/4 100/37/4
f 96/43/3 175/6/3 176/7/3 98/39/3
f 94/42/2 174/4/2 175/6/2 96/43/2
f 92/41/1 173/1/1 174/4/1 94/42/1
f 264/1/1 184/59/1 186/60/1 265/4/1
f 265/4/2 186/60/2 188/61/2 266/6/2
f 266/6/3 188/61/3 190/61/3 267/7/3
f 267/7/4 190/61/4 192/60/4 268/8/4
f 268/8/5 192/60/5 194/59/5 269/9/5
f 269/9/6 194/59/6 196/62/6 270/11/6
f 270/11/7 196/62/7 198/63/7 271/13/7
f 271/13/8 198/63/8 200/63/8 272/14/8
f 200/63/9 198/63/9 210/15/9 211/16/9
f 272/14/10 200/63/10 202/62/10 273/17/10
f 273/17/11 202/62/11 184/59/11 264/1/11
f 202/62/12 200/63/12 211/16/12 212/18/12
f 198/63/13 196/62/13 209/19/13 210/15/13
f 196/62/14 194/59/14 208/20/14 209/19/14
f 194/59/15 192/60/15 207/21/15 208/20/15
f 192/60/16 190/61/16 206/22/16 207/21/16
f 186/60/17 184/59/17 203/23/17 204/24/17
f 190/61/18 188/61/18 205/25/18 206/22/18
f 188/61/19 186/60/19 204/24/19 205/25/19
f 184/59/20 202/62/20 212/18/20 203/23/20
f 210/15/21 209/19/21 219/64/21 220/65/21
f 207/21/22 206/22/22 216/66/22 217/67/22
f 204/24/23 203/23/23 213/68/23 214/67/23
f 211/16/24 210/15/24 220/65/24 221/65/24
f 208/20/25 207/21/25 217/67/25 218/68/25
f 205/25/26 204/24/26 214/67/26 215/66/26
f 212/18/27 211/16/27 221/65/27 222/64/27
f 209/19/28 208/20/28 218/68/28 219/64/28
f 206/22/29 205/25/29 215/66/29 216/66/29
f 203/23/30 212/18/30 222/64/30 213/68/30
f 195/31/31 197/32/31 230/33/31 229/34/31
f 193/35/32 195/31/32 229/34/32 228/36/32
f 191/37/33 193/35/33 228/36/33 227/38/33
f 189/39/34 191/37/34 227/38/34 226/40/34
f 183/41/35 185/42/35 224/38/35 223/36/35
f 187/43/36 189/39/36 226/40/36 225/40/36
f 185/42/37 187/43/37 225/40/37 224/38/37
f 201/44/38 183/41/38 223/36/38 232/34/38
f 199/45/39 201/44/39 232/34/39 231/33/39
f 197/32/40 199/45/40 231/33/40 230/33/40
f 223/36/41 224/38/41 234/46/41 233/47/41
f 230/33/42 231/33/42 241/48/42 240/48/42
f 227/38/43 228/36/43 238/47/43 237/46/43
f 224/38/44 225/40/44 235/49/44 234/46/44
f 231/33/45 232/34/45 242/50/45 241/48/45
f 228/36/46 229/34/46 239/50/46 238/47/46
f 225/40/47 226/40/47 236/49/47 235/49/47
f 232/34/48 223/36/48 233/47/48 242/50/48
f 229/34/49 230/33/49 240/48/49 239/50/49
f 226/40/50 227/38/50 237/46/50 236/49/50
f 237/46/51 238/47/51 248/51/51 247/52/51
f 234/46/52 235/49/52 245/53/52 244/54/52
f 241/48/53 242/50/53 252/55/53 251/56/53
f 238/47/54 239/50/54 249/57/54 248/51/54
f 235/49/55 236/49/55 246/53/55 245/53/55
f 242/50/56 233/47/56 243/58/56 252/55/56
f 239/50/57 240/48/57 250/56/57 249/57/57
f 236/49/58 237/46/58 247/52/58 246/53/58
f 233/47/59 234/46/59 244/54/59 243/58/59
f 240/48/60 241/48/60 251/56/60 250/56/60
f 216/66/61 215/66/61 255/66/61 256/66/61
f 219/64/62 218/68/62 258/68/62 259/64/62
f 222/64/63 221/65/63 261/65/63 262/64/63
f 215/66/64 214/67/64 254/67/64 255/66/64
f 243/58/65 244/54/65 247/52/65 248/51/65
f 248/51/65 249/57/65 252/55/65 243/58/65
f 244/54/65 245/53/65 246/53/65 247/52/65
f 249/57/65 250/56/65 251/56/65 252/55/65
f 213/68/66 222/64/66 262/64/66 253/68/66
f 220/65/67 219/64/67 259/64/67 260/65/67
f 217/67/68 216/66/68 256/66/68 257/67/68
f 214/67/69 213/68/69 253/68/69 254/67/69
f 221/65/70 220/65/70 260/65/70 261/65/70
f 218/68/71 217/67/71 257/67/71 258/68/71
f 257/67/72 256/66/72 263/67/72
f 261/65/73 260/65/73 263/65/73
f 256/66/74 255/66/74 263/66/74
f 258/68/75 257/67/75 263/68/75
f 262/64/76 261/65/76 263/64/76
f 255/66/77 254/67/77 263/66/77
f 259/64/78 258/68/78 263/64/78
f 253/68/79 262/64/79 263/68/79
f 254/67/80 253/68/80 263/67/80
f 260/65/81 259/64/81 263/65/81
f 201/44/11 273/17/11 264/1/11 183/41/11
f 199/45/10 272/14/10 273/17/10 201/44/10
f 197/32/8 271/13/8 272/14/8 199/45/8
f 195/31/7 270/11/7 271/13/7 197/32/7
f 193/35/6 269/9/6 270/11/6 195/31/6
f 191/37/5 268/8/5 269/9/5 193/35/5
f 189/39/4 267/7/4 268/8/4 191/37/4
f 187/43/3 266/6/3 267/7/3 189/39/3
f 185/42/2 265/4/2 266/6/2 187/43/2
f 183/41/1 264/1/1 265/4/1 185/42/1
