# Blender 5.1.0
# www.blender.org
mtllib bush003.mtl
o bush.003
v -0.004592 1.166113 1.482684
v -0.004592 2.158452 1.215334
v -0.883574 1.166113 1.197085
v -0.726430 2.158452 0.980794
v -1.426815 1.166113 0.449378
v -1.172550 2.158452 0.366762
v -1.426815 1.166113 -0.474838
v -1.172550 2.158452 -0.392223
v -0.883574 1.166113 -1.222546
v -0.726430 2.158452 -1.006255
v -0.004592 1.166113 -1.508144
v -0.004592 2.158452 -1.240794
v 0.874390 1.166113 -1.222545
v 0.717246 2.158452 -1.006254
v 1.417631 1.166113 -0.474839
v 1.163366 2.158452 -0.392223
v 1.417631 1.166113 0.449378
v 1.163366 2.158452 0.366763
v 0.874390 1.166113 1.197085
v 0.717246 2.158452 0.980795
v -0.004592 3.069396 0.809081
v -0.487641 3.069396 0.652129
v -0.786181 3.069396 0.241223
v -0.786181 3.069396 -0.266684
v -0.487640 3.069396 -0.677589
v -0.004592 3.069396 -0.834541
v 0.478456 3.069396 -0.677589
v 0.776996 3.069396 -0.266684
v 0.776996 3.069396 0.241223
v 0.478456 3.069396 0.652129
v -0.004592 3.208660 0.470359
v -0.288545 3.208660 0.378097
v -0.464037 3.208660 0.136553
v -0.464037 3.208660 -0.162013
v -0.288545 3.208660 -0.403558
v -0.004592 3.208660 -0.495819
v 0.279361 3.208660 -0.403557
v 0.454853 3.208660 -0.162013
v 0.454853 3.208660 0.136553
v 0.279360 3.208660 0.378097
v -0.004592 0.770131 1.369025
v -0.816768 0.770131 1.105133
v -1.318720 0.770131 0.414256
v -1.318720 0.770131 -0.439716
v -0.816768 0.770131 -1.130593
v -0.004592 0.770131 -1.394485
v 0.807583 0.770131 -1.130593
v 1.309535 0.770131 -0.439716
v 1.309535 0.770131 0.414256
v 0.807582 0.770131 1.105134
v -0.004592 0.522643 0.735272
v -0.444257 0.522643 0.592416
v -0.715984 0.522643 0.218415
v -0.715984 0.522643 -0.243875
v -0.444257 0.522643 -0.617876
v -0.004592 0.522643 -0.760732
v 0.435072 0.522643 -0.617876
v 0.706800 0.522643 -0.243875
v 0.706800 0.522643 0.218415
v 0.435072 0.522643 0.592416
v -0.004592 0.497894 0.402464
v -0.248637 0.497894 0.323169
v -0.399466 0.497894 0.115572
v -0.399466 0.497894 -0.141032
v -0.248637 0.497894 -0.348629
v -0.004592 0.497894 -0.427924
v 0.239453 0.497894 -0.348629
v 0.390281 0.497894 -0.141032
v 0.390281 0.497894 0.115572
v 0.239453 0.497894 0.323169
v -0.286031 -0.088733 0.353396
v -0.140741 0.992745 0.208106
v -0.286031 -0.088733 -0.254384
v -0.140741 0.992745 -0.109094
v 0.321748 -0.088733 0.353396
v 0.176459 0.992745 0.208106
v 0.321749 -0.088733 -0.254384
v 0.176459 0.992745 -0.109094
v 0.017859 -0.088733 -0.375778
v 0.017859 0.992745 -0.172450
v 0.017859 -0.088733 0.474791
v 0.017859 0.992745 0.271462
v -0.415906 -0.088733 0.049506
v -0.208523 0.992745 0.049505
v 0.451621 -0.088733 0.049506
v 0.244240 0.992745 0.049506
v 0.017858 0.992745 0.049506
v 0.017857 -0.088733 0.049506
vn -0.2993 0.2482 0.9213
vn -0.7837 0.2482 0.5694
vn -0.9687 0.2482 -0.0000
vn -0.7837 0.2482 -0.5694
vn -0.2993 0.2482 -0.9213
vn 0.2993 0.2482 -0.9213
vn 0.7837 0.2482 -0.5694
vn 0.9687 0.2482 -0.0000
vn 0.9206 0.3905 -0.0000
vn 0.7837 0.2482 0.5694
vn 0.2993 0.2482 0.9213
vn 0.7448 0.3905 0.5411
vn 0.7448 0.3905 -0.5411
vn 0.2845 0.3905 -0.8756
vn -0.2845 0.3905 -0.8756
vn -0.7448 0.3905 -0.5411
vn -0.2845 0.3905 0.8756
vn -0.9206 0.3905 -0.0000
vn -0.7448 0.3905 0.5411
vn 0.2845 0.3905 0.8756
vn 0.3210 0.9179 -0.2332
vn -0.3210 0.9179 -0.2332
vn -0.1226 0.9179 0.3774
vn 0.3968 0.9179 -0.0000
vn -0.1226 0.9179 -0.3774
vn -0.3210 0.9179 0.2332
vn 0.3210 0.9179 0.2332
vn 0.1226 0.9179 -0.3774
vn -0.3968 0.9179 -0.0000
vn 0.1226 0.9179 0.3774
vn 0.7805 -0.2633 -0.5670
vn 0.2981 -0.2633 -0.9175
vn -0.2981 -0.2633 -0.9175
vn -0.7805 -0.2633 -0.5670
vn -0.2981 -0.2633 0.9175
vn -0.9647 -0.2633 -0.0000
vn -0.7805 -0.2633 0.5670
vn 0.2981 -0.2633 0.9175
vn 0.7805 -0.2633 0.5670
vn 0.9647 -0.2633 -0.0000
vn -0.1174 -0.9251 0.3612
vn 0.3798 -0.9251 -0.0000
vn -0.1174 -0.9251 -0.3612
vn -0.3073 -0.9251 0.2233
vn 0.3073 -0.9251 0.2233
vn 0.1174 -0.9251 -0.3612
vn -0.3798 -0.9251 -0.0000
vn 0.1174 -0.9251 0.3612
vn 0.3073 -0.9251 -0.2233
vn -0.3073 -0.9251 -0.2233
vn -0.0241 -0.9970 -0.0741
vn -0.0631 -0.9970 0.0458
vn 0.0631 -0.9970 0.0458
vn 0.0241 -0.9970 -0.0741
vn -0.0780 -0.9970 -0.0000
vn 0.0241 -0.9970 0.0741
vn 0.0631 -0.9970 -0.0458
vn -0.0631 -0.9970 -0.0458
vn -0.0241 -0.9970 0.0741
vn 0.0780 -0.9970 -0.0000
vn -0.0000 1.0000 -0.0000
vn -0.0000 -1.0000 -0.0000
vn -0.9056 0.1737 -0.3870
vn 0.3654 0.1720 -0.9148
vn 0.9056 0.1737 0.3870
vn -0.3654 0.1720 0.9148
vn 0.3654 0.1720 0.9148
vn -0.3654 0.1720 -0.9148
vn 0.9056 0.1737 -0.3870
vn -0.9056 0.1737 0.3870
vt 0.055304 0.520905
vt 0.056699 0.757234
vt 0.070086 0.757234
vt 0.071539 0.520905
vt 0.078359 0.757234
vt 0.081573 0.520905
vt 0.081573 0.520906
vt 0.071539 0.520906
vt 0.055304 0.520906
vt 0.043313 0.757234
vt 0.039070 0.520906
vt 0.035040 0.757234
vt 0.029036 0.520906
vt 0.029036 0.520905
vt 0.045004 0.879882
vt 0.045004 0.879882
vt 0.039070 0.520905
vt 0.051143 0.879882
vt 0.051143 0.879882
vt 0.061077 0.879882
vt 0.071010 0.879882
vt 0.077149 0.879882
vt 0.061077 0.879882
vt 0.071010 0.879882
vt 0.077149 0.879882
vt 0.054578 0.801119
vt 0.050969 0.801119
vt 0.069865 0.801119
vt 0.066256 0.801119
vt 0.060417 0.801119
vt 0.031585 0.522582
vt 0.039883 0.522582
vt 0.053308 0.522582
vt 0.066734 0.522582
vt 0.075032 0.522582
vt 0.056585 0.531114
vt 0.049317 0.531114
vt 0.037557 0.531114
vt 0.061076 0.531114
vt 0.042049 0.531114
vt 0.042049 0.531114
vt 0.573349 0.218595
vt 0.566081 0.218595
vt 0.566081 0.217452
vt 0.570115 0.217452
vt 0.577841 0.218595
vt 0.572609 0.217452
vt 0.570115 0.217452
vt 0.554322 0.218595
vt 0.558813 0.218595
vt 0.562047 0.217452
vt 0.559554 0.217452
vt 0.562047 0.217452
vt 0.566081 0.217452
vt 0.604690 0.411797
vt 0.593330 0.072548
vt 0.593330 0.072548
vt 0.580931 0.411797
vt 0.580930 0.072548
vt 0.568530 0.072548
vt 0.557171 0.411797
vt 0.568530 0.072548
vt 0.593331 0.072548
vt 0.580930 0.411797
vt 0.580930 0.072548
s 0
usemtl Material.001
f 1/1/1 2/2/1 4/3/1 3/4/1
f 3/4/2 4/3/2 6/5/2 5/6/2
f 5/6/3 6/5/3 8/5/3 7/7/3
f 7/7/4 8/5/4 10/3/4 9/8/4
f 9/8/5 10/3/5 12/2/5 11/9/5
f 11/9/6 12/2/6 14/10/6 13/11/6
f 13/11/7 14/10/7 16/12/7 15/13/7
f 15/13/8 16/12/8 18/12/8 17/14/8
f 18/12/9 16/12/9 28/15/9 29/16/9
f 17/14/10 18/12/10 20/10/10 19/17/10
f 19/17/11 20/10/11 2/2/11 1/1/11
f 20/10/12 18/12/12 29/16/12 30/18/12
f 16/12/13 14/10/13 27/19/13 28/15/13
f 14/10/14 12/2/14 26/20/14 27/19/14
f 12/2/15 10/3/15 25/21/15 26/20/15
f 10/3/16 8/5/16 24/22/16 25/21/16
f 4/3/17 2/2/17 21/23/17 22/24/17
f 8/5/18 6/5/18 23/25/18 24/22/18
f 6/5/19 4/3/19 22/24/19 23/25/19
f 2/2/20 20/10/20 30/18/20 21/23/20
f 28/15/21 27/19/21 37/26/21 38/27/21
f 25/21/22 24/22/22 34/28/22 35/29/22
f 22/24/23 21/23/23 31/30/23 32/29/23
f 29/16/24 28/15/24 38/27/24 39/27/24
f 26/20/25 25/21/25 35/29/25 36/30/25
f 23/25/26 22/24/26 32/29/26 33/28/26
f 30/18/27 29/16/27 39/27/27 40/26/27
f 27/19/28 26/20/28 36/30/28 37/26/28
f 24/22/29 23/25/29 33/28/29 34/28/29
f 21/23/30 30/18/30 40/26/30 31/30/30
f 13/11/31 15/13/31 48/31/31 47/32/31
f 11/9/32 13/11/32 47/32/32 46/33/32
f 9/8/33 11/9/33 46/33/33 45/34/33
f 7/7/34 9/8/34 45/34/34 44/35/34
f 1/1/35 3/4/35 42/34/35 41/33/35
f 5/6/36 7/7/36 44/35/36 43/35/36
f 3/4/37 5/6/37 43/35/37 42/34/37
f 19/17/38 1/1/38 41/33/38 50/32/38
f 17/14/39 19/17/39 50/32/39 49/31/39
f 15/13/40 17/14/40 49/31/40 48/31/40
f 41/33/41 42/34/41 52/36/41 51/37/41
f 48/31/42 49/31/42 59/38/42 58/38/42
f 45/34/43 46/33/43 56/37/43 55/36/43
f 42/34/44 43/35/44 53/39/44 52/36/44
f 49/31/45 50/32/45 60/40/45 59/38/45
f 46/33/46 47/32/46 57/41/46 56/37/46
f 43/35/47 44/35/47 54/39/47 53/39/47
f 50/32/48 41/33/48 51/37/48 60/40/48
f 47/32/49 48/31/49 58/38/49 57/41/49
f 44/35/50 45/34/50 55/36/50 54/39/50
f 55/42/51 56/43/51 66/44/51 65/45/51
f 52/42/52 53/46/52 63/47/52 62/48/52
f 59/49/53 60/50/53 70/51/53 69/52/53
f 56/43/54 57/50/54 67/53/54 66/44/54
f 53/46/55 54/46/55 64/47/55 63/47/55
f 60/50/56 51/43/56 61/54/56 70/51/56
f 57/50/57 58/49/57 68/52/57 67/53/57
f 54/46/58 55/42/58 65/45/58 64/47/58
f 51/43/59 52/42/59 62/48/59 61/54/59
f 58/49/60 59/49/60 69/52/60 68/52/60
f 32/29/61 31/30/61 36/30/61 35/29/61
f 33/28/61 32/29/61 35/29/61 34/28/61
f 37/26/61 36/30/61 31/30/61 40/26/61
f 38/27/61 37/26/61 40/26/61 39/27/61
f 61/54/62 62/48/62 65/45/62 66/44/62
f 66/44/62 67/53/62 70/51/62 61/54/62
f 62/48/62 63/47/62 64/47/62 65/45/62
f 67/53/62 68/52/62 69/52/62 70/51/62
f 83/55/63 84/56/63 74/57/63 73/55/63
f 79/58/64 80/59/64 78/60/64 77/61/64
f 85/61/65 86/62/65 76/60/65 75/61/65
f 81/58/66 82/59/66 72/63/66 71/55/66
f 88/64/62 85/61/62 75/61/62 81/58/62
f 87/65/61 84/56/61 72/63/61 82/59/61
f 86/62/61 87/65/61 82/59/61 76/60/61
f 83/55/62 88/64/62 81/58/62 71/55/62
f 75/61/67 76/60/67 82/59/67 81/58/67
f 73/55/68 74/57/68 80/59/68 79/58/68
f 73/55/62 79/58/62 88/64/62 83/55/62
f 78/60/61 80/59/61 87/65/61 86/62/61
f 80/59/61 74/57/61 84/56/61 87/65/61
f 79/58/62 77/61/62 85/61/62 88/64/62
f 77/61/69 78/60/69 86/62/69 85/61/69
f 71/55/70 72/63/70 84/56/70 83/55/70
