# Blender 5.1.0
# www.blender.org
mtllib flower001.mtl
o flower.001
v -0.040650 -0.059382 -0.162958
v -0.031581 -0.056039 -0.272958
v -1.054651 0.089670 -0.271225
v -1.048857 0.084818 -0.336141
v -0.024851 -0.047032 -0.216705
v -1.052892 0.089456 -0.304023
v -0.835619 0.345227 -0.124332
v -0.620419 0.464653 -0.024338
v -0.398042 0.382028 0.008867
v -0.242639 0.169955 0.007545
v -0.205181 0.183766 -0.446811
v -0.361339 0.387841 -0.470922
v -0.586186 0.452089 -0.499143
v -0.810094 0.326828 -0.452204
v -0.159102 0.238297 -0.212422
v -0.316933 0.458594 -0.225352
v -0.564658 0.539173 -0.262168
v -0.837432 0.367581 -0.294162
v 0.079271 -0.080005 -0.156720
v -0.030728 -0.076661 -0.165788
v -0.025256 0.055308 0.867088
v -0.090173 0.050455 0.861294
v 0.025525 -0.067655 -0.172518
v -0.058054 0.055094 0.865329
v 0.121636 0.310865 0.648056
v 0.221631 0.430290 0.432856
v 0.254836 0.347665 0.210479
v 0.253513 0.135592 0.055076
v -0.200842 0.149404 0.017617
v -0.224953 0.353479 0.173776
v -0.253174 0.417726 0.398623
v -0.206236 0.292466 0.622530
v 0.033546 0.203935 -0.028461
v 0.020616 0.424232 0.129369
v -0.016200 0.504811 0.377095
v -0.048194 0.333218 0.649869
v 0.059791 -0.080005 -0.307636
v 0.050722 -0.076661 -0.197636
v 1.070201 0.055308 -0.213951
v 1.064407 0.050455 -0.149035
v 0.043992 -0.067655 -0.253889
v 1.068442 0.055094 -0.181153
v 0.851169 0.310865 -0.360844
v 0.635969 0.430290 -0.460838
v 0.413592 0.347665 -0.494043
v 0.258189 0.135592 -0.492721
v 0.220730 0.149404 -0.038365
v 0.376889 0.353479 -0.014255
v 0.601736 0.417726 0.013967
v 0.825644 0.292466 -0.032972
v 0.174652 0.203935 -0.272754
v 0.332483 0.424232 -0.259824
v 0.580208 0.504811 -0.223008
v 0.852982 0.333218 -0.191014
v -0.049352 -0.080005 -0.270101
v 0.060647 -0.076661 -0.261032
v 0.058767 0.055308 -1.279326
v 0.123683 0.050455 -1.273532
v 0.004395 -0.067655 -0.254302
v 0.091565 0.055094 -1.277567
v -0.088126 0.310865 -1.060294
v -0.188120 0.430290 -0.845094
v -0.221325 0.347665 -0.622717
v -0.220003 0.135592 -0.467314
v 0.234353 0.149404 -0.429855
v 0.258463 0.353479 -0.586014
v 0.286684 0.417726 -0.810861
v 0.239746 0.292466 -1.034768
v -0.000036 0.203935 -0.383777
v 0.012894 0.424231 -0.541608
v 0.049710 0.504811 -0.789333
v 0.081704 0.333218 -1.062107
v 0.013132 -0.064759 -0.238119
v 0.012228 1.263382 0.039395
v 0.043249 -0.064759 -0.220731
v 0.038661 1.256021 0.050945
v 0.043249 -0.064759 -0.185955
v 0.040017 1.240135 0.076086
v 0.013132 -0.064759 -0.168567
v 0.014939 1.231609 0.089677
v -0.016986 -0.064759 -0.185955
v -0.011494 1.238969 0.078127
v -0.016986 -0.064759 -0.220731
v -0.012849 1.254856 0.052986
v 0.013132 0.442994 -0.340078
v 0.015141 0.898755 -0.251826
v 0.045805 0.897819 -0.234548
v 0.039561 0.442994 -0.324819
v 0.046155 0.895316 -0.199431
v 0.039561 0.442994 -0.294301
v 0.015841 0.893749 -0.181590
v 0.013132 0.442994 -0.279041
v -0.014822 0.894686 -0.198868
v -0.013298 0.442994 -0.294301
v -0.015172 0.897188 -0.233985
v -0.013298 0.442994 -0.324819
v 0.000382 1.445427 -0.152232
v 0.257132 1.349576 -0.059982
v 0.270298 1.142215 0.141131
v 0.026715 1.030706 0.249993
v -0.230035 1.126558 0.157743
v -0.243201 1.333918 -0.043370
v 0.001745 1.466734 -0.091098
v 0.234254 1.379932 -0.007557
v 0.246177 1.192149 0.174568
v 0.025591 1.091168 0.273152
v -0.206918 1.177970 0.189611
v -0.218841 1.365753 0.007486
v 0.013755 1.308685 0.121679
v 0.014158 0.670717 -0.332848
v 0.040897 0.670308 -0.317597
v 0.041050 0.669214 -0.286848
v 0.014464 0.668529 -0.271350
v -0.012275 0.668938 -0.286602
v -0.012428 0.670033 -0.317351
v 0.008389 1.114848 -0.115748
v 0.042303 1.105404 -0.100929
v 0.044042 1.085022 -0.068674
v 0.011867 1.074083 -0.051237
v -0.022046 1.083527 -0.066055
v -0.023785 1.103910 -0.098311
v 0.000973 1.310135 -0.159601
v 0.179496 1.245255 -0.093670
v 0.188650 1.104927 0.050034
v 0.019283 1.029479 0.127807
v -0.159240 1.094358 0.061876
v -0.168394 1.234686 -0.081828
v -0.192446 1.205101 0.045709
v 0.011575 1.263503 -0.080497
v -0.442162 1.448879 -0.149841
v -0.157616 1.530331 -0.325859
v -0.129958 1.210232 -0.011063
v -0.062005 1.229512 -0.053101
v -0.354971 1.660893 -0.379824
v -0.466625 1.628970 -0.310706
v -0.418393 1.408460 -0.116696
v -0.367216 1.349266 -0.073083
v -0.268217 1.263829 -0.003784
v -0.025491 1.333310 -0.153933
v -0.081236 1.431128 -0.249988
v -0.122507 1.493158 -0.299729
v -0.195961 1.266198 -0.075815
v -0.283560 1.349628 -0.160213
v -0.331376 1.411625 -0.203465
v -0.114162 1.289447 -0.126361
v -0.185647 1.377509 -0.220640
v -0.228706 1.440888 -0.266788
v -0.097671 1.215483 -0.036850
v -0.426805 1.669601 -0.359725
v -0.157203 1.272161 -0.107176
v -0.237195 1.356580 -0.197856
v -0.282772 1.418889 -0.242958
v -0.403822 1.511041 -0.265192
v -0.462168 1.509379 -0.205630
v -0.222991 1.578930 -0.354684
v -0.293861 1.542976 -0.333361
v -0.351581 1.519632 -0.307112
v -0.310932 1.460980 -0.269164
v -0.358605 1.453053 -0.231588
v -0.258561 1.481585 -0.293267
v -0.188415 1.217525 0.057975
v 0.015607 1.275926 -0.068232
v -0.438131 1.461303 -0.137575
v -0.153585 1.542755 -0.313593
v -0.120315 1.236239 0.016584
v -0.052364 1.255515 -0.025458
v -0.350940 1.673317 -0.367559
v -0.462594 1.641393 -0.298441
v -0.414362 1.420884 -0.104431
v -0.363184 1.361689 -0.060818
v -0.264186 1.276253 0.008481
v -0.021459 1.345734 -0.141667
v -0.077205 1.443552 -0.237723
v -0.118476 1.505582 -0.287464
v -0.186255 1.292376 -0.047986
v -0.273814 1.375914 -0.132268
v -0.321658 1.437835 -0.175602
v -0.104457 1.315620 -0.098537
v -0.175902 1.403791 -0.192700
v -0.218990 1.467094 -0.238928
v -0.088035 1.241472 -0.009221
v -0.422774 1.682024 -0.347460
v -0.147521 1.298274 -0.079416
v -0.227493 1.382745 -0.170040
v -0.273093 1.444993 -0.215207
v -0.394127 1.537190 -0.237393
v -0.458137 1.521803 -0.193365
v -0.218960 1.591353 -0.342418
v -0.284167 1.569120 -0.305567
v -0.341914 1.545706 -0.279394
v -0.301298 1.486963 -0.241543
v -0.348903 1.479221 -0.203770
v -0.248861 1.507749 -0.265452
v -0.087052 1.238847 -0.038730
v 0.157603 1.232485 -0.006064
v -0.088280 1.491913 -0.348539
v 0.252937 1.483040 -0.302981
v -0.004352 1.221550 -0.042691
v 0.077091 1.219265 -0.031814
v 0.173787 1.640043 -0.470292
v 0.039874 1.643569 -0.488131
v -0.101633 1.453662 -0.307849
v -0.105990 1.393485 -0.241629
v -0.097492 1.302587 -0.125148
v 0.193576 1.295018 -0.086285
v 0.236946 1.384567 -0.195841
v 0.253183 1.444435 -0.260474
v 0.001118 1.278075 -0.134650
v 0.009844 1.362182 -0.255509
v 0.017219 1.424439 -0.319310
v 0.099131 1.275373 -0.121512
v 0.127132 1.359011 -0.239724
v 0.140187 1.421147 -0.302726
v 0.036884 1.215716 -0.042005
v 0.110320 1.666426 -0.500554
v 0.050779 1.270676 -0.134138
v 0.069282 1.353134 -0.254995
v 0.079540 1.414926 -0.318795
v 0.027500 1.524694 -0.413040
v -0.052919 1.544965 -0.404290
v 0.234856 1.538368 -0.366844
v 0.159573 1.521682 -0.395548
v 0.094368 1.515314 -0.412080
v 0.085806 1.456849 -0.356934
v 0.025179 1.465212 -0.358334
v 0.144992 1.462025 -0.342156
v -0.088313 1.252072 -0.026707
v 0.156341 1.245710 0.005959
v -0.089542 1.505138 -0.336516
v 0.251676 1.496264 -0.290958
v -0.007308 1.249320 -0.015237
v 0.074135 1.247031 -0.004363
v 0.172525 1.653267 -0.458269
v 0.038613 1.656794 -0.476108
v -0.102894 1.466887 -0.295826
v -0.107251 1.406710 -0.229606
v -0.098753 1.315812 -0.113125
v 0.192315 1.308243 -0.074262
v 0.235685 1.397792 -0.183818
v 0.251921 1.457659 -0.248451
v -0.001858 1.306028 -0.107015
v 0.006856 1.390251 -0.227760
v 0.014239 1.452426 -0.291640
v 0.096155 1.303321 -0.093881
v 0.124144 1.387075 -0.211978
v 0.137208 1.449130 -0.275061
v 0.033930 1.243467 -0.014568
v 0.109059 1.679651 -0.488531
v 0.047810 1.298559 -0.106571
v 0.066308 1.381074 -0.227372
v 0.076573 1.442801 -0.291237
v 0.024528 1.552616 -0.385435
v -0.054180 1.558189 -0.392267
v 0.233594 1.551592 -0.354821
v 0.156601 1.549599 -0.367948
v 0.091404 1.543155 -0.384555
v 0.082852 1.484594 -0.329505
v 0.022205 1.493154 -0.330709
v 0.142018 1.489963 -0.314535
v 0.095018 1.300974 -0.082896
v 0.201606 1.173421 0.099678
v 0.428877 1.467214 -0.227560
v 0.577534 1.289319 0.027073
v 0.134590 1.242842 -0.035895
v 0.169993 1.200241 0.024836
v 0.724729 1.436989 -0.097164
v 0.666380 1.506849 -0.197055
v 0.375394 1.448190 -0.218907
v 0.298722 1.409943 -0.192759
v 0.179513 1.346835 -0.131857
v 0.306321 1.195085 0.085352
v 0.448128 1.231151 0.063156
v 0.529976 1.263205 0.045874
v 0.228259 1.273526 -0.080237
v 0.356732 1.321306 -0.134722
v 0.434300 1.360101 -0.156605
v 0.270852 1.222305 -0.007102
v 0.407687 1.260075 -0.047143
v 0.487714 1.295937 -0.064752
v 0.153741 1.216607 -0.009820
v 0.723809 1.487555 -0.152682
v 0.251370 1.241570 -0.049159
v 0.384375 1.282881 -0.097648
v 0.463290 1.319787 -0.117758
v 0.552019 1.424775 -0.186634
v 0.511693 1.484948 -0.227957
v 0.638162 1.335512 -0.013634
v 0.609854 1.356251 -0.088055
v 0.583218 1.382277 -0.144435
v 0.512839 1.345970 -0.128281
v 0.484857 1.384301 -0.166950
v 0.536896 1.321804 -0.077434
v 0.091999 1.314575 -0.071630
v 0.198587 1.187023 0.110943
v 0.425858 1.480816 -0.216295
v 0.574515 1.302921 0.038338
v 0.126532 1.271900 -0.010907
v 0.161936 1.229295 0.049821
v 0.721710 1.450591 -0.085899
v 0.663360 1.520451 -0.185790
v 0.372375 1.461792 -0.207641
v 0.295703 1.423545 -0.181493
v 0.176493 1.360437 -0.120591
v 0.303302 1.208687 0.096617
v 0.445109 1.244753 0.074422
v 0.526957 1.276807 0.057139
v 0.220148 1.302775 -0.055085
v 0.348588 1.350676 -0.109465
v 0.426179 1.389386 -0.131422
v 0.262743 1.251549 0.018046
v 0.399544 1.289440 -0.021890
v 0.479595 1.325218 -0.039573
v 0.145688 1.245645 0.015151
v 0.720790 1.501157 -0.141416
v 0.243280 1.270746 -0.024069
v 0.376268 1.312117 -0.072507
v 0.455201 1.348954 -0.092676
v 0.543917 1.453992 -0.161510
v 0.508673 1.498550 -0.216692
v 0.635143 1.349114 -0.002369
v 0.601754 1.385463 -0.062935
v 0.575140 1.411410 -0.119383
v 0.504788 1.375001 -0.103316
v 0.476750 1.413539 -0.141807
v 0.528789 1.351038 -0.052295
v 0.283144 1.231418 0.036093
v 0.082212 1.107816 0.108979
v 0.537484 1.070785 0.299784
v 0.257247 0.898398 0.401438
v 0.222037 1.174119 0.047796
v 0.155113 1.132929 0.071902
v 0.455842 0.864309 0.536738
v 0.565804 0.932007 0.496882
v 0.512926 1.098556 0.255934
v 0.460716 1.133943 0.192317
v 0.360081 1.190725 0.099846
v 0.121031 1.043674 0.186560
v 0.179067 0.960687 0.294483
v 0.221521 0.919299 0.361639
v 0.289576 1.117724 0.110561
v 0.379177 1.045445 0.202781
v 0.428017 1.010654 0.269150
v 0.209015 1.068202 0.139612
v 0.282743 0.986250 0.237599
v 0.326898 0.948626 0.305683
v 0.190379 1.148331 0.056023
v 0.527172 0.886974 0.542915
v 0.251583 1.086326 0.120146
v 0.333729 1.007737 0.214081
v 0.380377 0.971091 0.280977
v 0.501925 0.962344 0.374725
v 0.558825 1.022708 0.366164
v 0.323296 0.876838 0.452813
v 0.393633 0.895632 0.414481
v 0.450707 0.920434 0.388155
v 0.409158 0.950506 0.325691
v 0.455914 0.988067 0.313426
v 0.357381 0.927652 0.349037
v 0.278819 1.244914 0.047057
v 0.077888 1.121311 0.119943
v 0.533160 1.084280 0.310749
v 0.252923 0.911893 0.412403
v 0.211733 1.204299 0.070528
v 0.144811 1.163104 0.094630
v 0.451517 0.877805 0.547702
v 0.561480 0.945502 0.507846
v 0.508602 1.112052 0.266898
v 0.456391 1.147438 0.203281
v 0.355757 1.204221 0.110810
v 0.116707 1.057170 0.197524
v 0.174743 0.974183 0.305447
v 0.217197 0.932794 0.372603
v 0.279204 1.148102 0.133442
v 0.368762 1.075949 0.225757
v 0.417633 1.041070 0.292060
v 0.198645 1.098575 0.162489
v 0.272331 1.016749 0.260571
v 0.316516 0.979037 0.328588
v 0.180082 1.178490 0.078740
v 0.522847 0.900470 0.553879
v 0.241237 1.116628 0.142970
v 0.323363 1.038101 0.236951
v 0.370034 1.001384 0.303794
v 0.491565 0.992689 0.397581
v 0.554500 1.036204 0.377128
v 0.318972 0.890333 0.463777
v 0.383275 0.925971 0.437332
v 0.440377 0.950691 0.410945
v 0.398863 0.980657 0.348401
v 0.445547 1.018434 0.336298
v 0.347015 0.958015 0.371906
v 0.179808 1.148859 0.079480
v -0.065561 1.174746 0.070122
v 0.188476 0.869860 0.366028
v -0.153737 0.905964 0.352976
v 0.097227 1.140990 0.062968
v 0.015546 1.149592 0.059686
v -0.070591 0.759470 0.527716
v 0.063711 0.745347 0.532878
v 0.200848 0.906258 0.323374
v 0.203613 0.965312 0.256068
v 0.192321 1.070500 0.152576
v -0.099597 1.101298 0.141443
v -0.140324 1.001598 0.242951
v -0.155003 0.943801 0.309803
v 0.093967 1.055929 0.129567
v 0.088146 0.945212 0.226855
v 0.082306 0.888725 0.295963
v -0.004333 1.066334 0.125660
v -0.029487 0.957734 0.222235
v -0.041025 0.901889 0.291147
v 0.055986 1.140027 0.057206
v -0.006416 0.733918 0.557188
v 0.044309 1.054414 0.122293
v 0.028713 0.943279 0.217969
v 0.019990 0.886670 0.286622
v 0.074278 0.806748 0.406224
v 0.154464 0.819656 0.425153
v -0.134127 0.849236 0.415137
v -0.058176 0.820629 0.401608
v 0.007407 0.805042 0.396977
v 0.014642 0.853392 0.332616
v 0.075285 0.854397 0.340918
v -0.044882 0.867246 0.336244
v 0.180780 1.162331 0.091253
v -0.064588 1.188218 0.081895
v 0.189449 0.883331 0.377801
v -0.152764 0.919436 0.364750
v 0.099523 1.171479 0.087439
v 0.017842 1.180076 0.084154
v -0.069619 0.772942 0.539490
v 0.064683 0.758818 0.544651
v 0.201820 0.919730 0.335148
v 0.204585 0.978784 0.267841
v 0.193293 1.083972 0.164349
v -0.098625 1.114769 0.153216
v -0.139351 1.015070 0.254724
v -0.154031 0.957272 0.321576
v 0.096279 1.086619 0.154199
v 0.090467 0.976029 0.251590
v 0.084620 0.919453 0.320625
v -0.002022 1.097019 0.150288
v -0.027167 0.988545 0.246965
v -0.038712 0.932612 0.315806
v 0.058281 1.170495 0.081660
v -0.005444 0.747389 0.568961
v 0.046614 1.085027 0.146864
v 0.031023 0.973955 0.242589
v 0.022295 0.917274 0.311185
v 0.076587 0.837404 0.430829
v 0.155436 0.833127 0.436926
v -0.133154 0.862707 0.426911
v -0.055868 0.851280 0.426209
v 0.009709 0.835610 0.421511
v 0.016936 0.883853 0.357064
v 0.077595 0.885075 0.365540
v -0.042572 0.897919 0.360863
v 0.032739 1.048188 0.092502
v -0.109113 1.196569 -0.044700
v -0.234929 0.978433 0.381490
v -0.432769 1.185379 0.190135
v -0.022874 1.080408 0.037518
v -0.070060 1.129716 -0.008294
v -0.527966 1.116743 0.402583
v -0.450303 1.035577 0.477707
v -0.189616 0.977729 0.346228
v -0.128080 0.986939 0.281778
v -0.033730 1.019707 0.172568
v -0.202492 1.196237 0.009337
v -0.326916 1.194927 0.089460
v -0.395340 1.192922 0.147247
v -0.102664 1.052911 0.105037
v -0.210489 1.022818 0.201085
v -0.272769 1.017915 0.265100
v -0.159426 1.112307 0.049931
v -0.278381 1.093971 0.135178
v -0.343932 1.092553 0.196019
v -0.049264 1.099711 0.011713
v -0.511403 1.077085 0.464169
v -0.134596 1.075752 0.073734
v -0.248740 1.049989 0.163487
v -0.312888 1.046374 0.225663
v -0.365604 1.015099 0.366667
v -0.308733 0.988827 0.421714
v -0.476450 1.163190 0.261313
v -0.442364 1.095332 0.292986
v -0.408522 1.046342 0.324929
v -0.352297 1.046938 0.266870
v -0.313732 1.018187 0.304732
v -0.383058 1.090934 0.237435
v 0.039524 1.062469 0.100931
v -0.102328 1.210850 -0.036271
v -0.228144 0.992714 0.389919
v -0.425983 1.199660 0.198564
v -0.006854 1.111685 0.054803
v -0.054042 1.160988 0.008989
v -0.521180 1.131024 0.411012
v -0.443517 1.049858 0.486136
v -0.182830 0.992010 0.354657
v -0.121294 1.001220 0.290208
v -0.026944 1.033988 0.180997
v -0.195707 1.210518 0.017766
v -0.320130 1.209208 0.097889
v -0.388554 1.207203 0.155676
v -0.086539 1.084394 0.122436
v -0.194297 1.054431 0.218557
v -0.256624 1.049437 0.282521
v -0.143303 1.143785 0.067327
v -0.262191 1.125579 0.152647
v -0.327789 1.124070 0.213438
v -0.033255 1.130967 0.028987
v -0.504617 1.091366 0.472598
v -0.118511 1.107156 0.091090
v -0.232622 1.081457 0.180878
v -0.296808 1.077769 0.243013
v -0.349497 1.046547 0.384047
v -0.301948 1.003108 0.430143
v -0.469664 1.177471 0.269742
v -0.426259 1.126774 0.310363
v -0.392461 1.077700 0.342259
v -0.336292 1.078186 0.284139
v -0.297613 1.049658 0.322124
v -0.366941 1.122400 0.254825
v -0.104042 1.106098 0.100214
v -0.100177 1.240177 -0.107081
v -0.464446 1.223896 0.227724
v -0.459056 1.410894 -0.061389
v -0.113411 1.135196 0.021349
v -0.112080 1.179697 -0.047748
v -0.649383 1.449012 0.084317
v -0.651470 1.375670 0.197806
v -0.414260 1.197210 0.219572
v -0.335169 1.164694 0.192876
v -0.201674 1.128090 0.140514
v -0.197077 1.287605 -0.106107
v -0.329752 1.352635 -0.097693
v -0.408655 1.391661 -0.081062
v -0.216479 1.158369 0.044186
v -0.354552 1.197511 0.078257
v -0.432190 1.233959 0.103646
v -0.214843 1.211975 -0.038941
v -0.352548 1.261727 -0.021182
v -0.430066 1.301320 -0.000591
v -0.116214 1.152667 -0.016359
v -0.677460 1.428120 0.150763
v -0.220065 1.179024 -0.001439
v -0.358891 1.222052 0.023540
v -0.436758 1.259663 0.046259
v -0.548362 1.294258 0.146194
v -0.535396 1.270062 0.224941
v -0.532009 1.428217 -0.018442
v -0.546517 1.366939 0.034514
v -0.553075 1.322611 0.085086
v -0.484555 1.286213 0.062442
v -0.480756 1.260249 0.117749
v -0.478672 1.325902 0.016200
v -0.095606 1.119299 0.108910
v -0.091742 1.253378 -0.098386
v -0.456010 1.237097 0.236420
v -0.450620 1.424095 -0.052693
v -0.093537 1.163354 0.039947
v -0.092209 1.207850 -0.029153
v -0.640948 1.462213 0.093012
v -0.643034 1.388871 0.206502
v -0.405824 1.210410 0.228268
v -0.326734 1.177895 0.201571
v -0.193239 1.141290 0.149210
v -0.188641 1.300806 -0.097412
v -0.321316 1.365836 -0.088998
v -0.400219 1.404861 -0.072367
v -0.196474 1.186712 0.062907
v -0.334464 1.225971 0.097055
v -0.412160 1.262337 0.122389
v -0.194841 1.240312 -0.020224
v -0.332464 1.290182 -0.002387
v -0.410039 1.329694 0.018150
v -0.096354 1.180805 0.002227
v -0.669024 1.441320 0.159458
v -0.200110 1.207296 0.017234
v -0.338895 1.250381 0.042251
v -0.416809 1.287926 0.064927
v -0.528379 1.322570 0.164894
v -0.526960 1.283263 0.233636
v -0.523573 1.441417 -0.009747
v -0.526538 1.395245 0.053210
v -0.533150 1.350840 0.103732
v -0.464700 1.314344 0.081022
v -0.460759 1.288581 0.136462
v -0.458677 1.354230 0.034911
vn -0.7521 0.6021 -0.2678
vn -0.7834 0.6179 0.0677
vn 0.8200 0.3951 0.4141
vn 0.7242 0.5363 0.4336
vn 0.2573 0.8962 0.3614
vn -0.5333 0.8362 0.1281
vn 0.8682 0.4278 -0.2513
vn 0.7810 0.5524 -0.2914
vn 0.3179 0.8875 -0.3337
vn -0.4995 0.8220 -0.2734
vn -0.2678 0.6021 0.7521
vn 0.0677 0.6179 0.7834
vn 0.4172 0.4291 -0.8011
vn 0.4336 0.5363 -0.7242
vn 0.3614 0.8962 -0.2573
vn 0.1281 0.8362 0.5333
vn -0.2564 0.4716 -0.8437
vn -0.2914 0.5524 -0.7810
vn -0.3337 0.8875 -0.3179
vn -0.2734 0.8220 0.4995
vn 0.7521 0.6021 0.2678
vn 0.7834 0.6179 -0.0677
vn -0.8255 0.3847 -0.4130
vn -0.7242 0.5363 -0.4336
vn -0.2573 0.8962 -0.3614
vn 0.5333 0.8362 -0.1281
vn -0.8579 0.4468 0.2536
vn -0.7810 0.5524 0.2914
vn -0.3179 0.8875 0.3337
vn 0.4995 0.8220 0.2734
vn 0.2678 0.6021 -0.7521
vn -0.0677 0.6179 -0.7834
vn -0.4145 0.3994 0.8177
vn -0.4336 0.5363 0.7242
vn -0.3614 0.8962 0.2573
vn -0.1281 0.8362 -0.5333
vn 0.2519 0.4331 0.8654
vn 0.2914 0.5524 0.7810
vn 0.3337 0.8875 0.3179
vn 0.2734 0.8220 -0.4995
vn 0.4504 0.6393 -0.6232
vn 0.9986 0.0479 -0.0236
vn 0.5328 -0.5700 0.6255
vn -0.4557 -0.5885 0.6678
vn 0.0787 -0.7071 -0.7027
vn -0.9981 0.0112 0.0609
vn -0.5261 0.6208 -0.5813
vn -0.0179 -0.7330 -0.6800
vn -0.4926 -0.1713 -0.8532
vn -0.4918 0.2941 -0.8195
vn -1.0000 0.0073 -0.0000
vn -0.9999 -0.0143 0.0069
vn -0.4914 0.1852 0.8510
vn -0.4722 -0.3239 0.8198
vn 0.4914 0.1852 0.8510
vn 0.4876 -0.3251 0.8103
vn 1.0000 0.0073 -0.0000
vn 0.9998 -0.0188 -0.0087
vn 0.4926 -0.1713 -0.8532
vn 0.4767 0.2924 -0.8290
vn -0.0672 -0.6349 -0.7697
vn 0.0178 -0.7332 -0.6797
vn 0.0546 -0.6296 -0.7750
vn -0.0783 -0.7121 -0.6977
vn -0.4991 0.8216 -0.2752
vn -0.4260 -0.3305 0.8422
vn 0.9274 0.2891 0.2373
vn -0.9259 0.2311 0.2989
vn 0.5007 -0.3015 0.8114
vn 0.4275 0.8506 -0.3060
vn -0.1829 0.6785 0.7115
vn 0.1017 0.5722 0.8138
vn 0.0871 0.8021 0.5908
vn -0.0977 0.7963 0.5970
vn -0.0831 0.5664 0.8199
vn 0.1869 0.6900 0.6992
vn 0.4977 0.0250 -0.8670
vn 1.0000 -0.0061 -0.0026
vn 0.5019 -0.0321 0.8644
vn -0.4977 -0.0270 0.8669
vn -1.0000 0.0041 0.0026
vn -0.5019 0.0300 -0.8644
vn -0.5052 0.4535 -0.7342
vn -0.9987 -0.0496 0.0141
vn -0.4444 -0.5289 0.7230
vn 0.5004 -0.4937 0.7113
vn 0.9994 0.0283 -0.0214
vn 0.4502 0.4872 -0.7483
vn 0.2818 -0.2113 -0.9359
vn 0.2916 -0.9295 -0.2260
vn -0.5816 -0.6183 -0.5287
vn 0.5832 -0.5815 -0.5672
vn -0.2508 -0.9450 -0.2100
vn -0.3325 -0.2318 -0.9142
vn 0.0077 -0.5554 -0.8316
vn -0.4884 -0.6972 -0.5248
vn -0.1217 -0.5922 -0.7966
vn 0.0183 -0.7691 -0.6389
vn -0.0052 -0.7335 -0.6797
vn -0.0881 -0.6252 -0.7755
vn -0.3480 -0.8416 -0.4131
vn -0.4035 -0.8184 -0.4093
vn -0.4764 -0.7350 -0.4825
vn 0.1064 -0.7118 -0.6943
vn 0.1212 -0.6685 -0.7338
vn 0.0537 -0.5835 -0.8103
vn -0.3783 -0.7081 -0.5963
vn -0.2866 -0.8137 -0.5058
vn -0.2480 -0.8448 -0.4741
vn -0.3962 -0.6707 -0.6271
vn 0.1392 0.6320 0.7624
vn -0.5915 -0.5445 -0.5946
vn -0.4557 -0.5036 -0.7339
vn -0.2561 -0.4473 -0.8570
vn -0.0731 -0.3982 -0.9144
vn -0.5034 -0.6796 -0.5336
vn -0.3894 -0.6727 -0.6292
vn -0.1254 -0.5953 -0.7937
vn -0.0029 -0.5328 -0.8462
vn 0.3463 0.6913 0.6342
vn 0.1177 0.5926 0.7969
vn -0.0183 0.7676 0.6406
vn 0.0036 0.7322 0.6811
vn 0.0853 0.6251 0.7759
vn 0.1904 0.8000 0.5690
vn 0.2717 0.7941 0.5437
vn 0.3490 0.7178 0.6024
vn 0.0976 0.7734 0.6264
vn 0.0495 0.7305 0.6811
vn 0.1010 0.6468 0.7559
vn 0.3798 0.7092 0.5940
vn 0.2889 0.8135 0.5047
vn 0.2501 0.8440 0.4745
vn 0.3978 0.6726 0.6239
vn 0.3319 0.6296 0.7025
vn 0.3706 0.6073 0.7027
vn 0.2199 0.5650 0.7953
vn 0.2277 0.6015 0.7658
vn 0.3268 0.6774 0.6591
vn 0.3920 0.6727 0.6276
vn 0.1231 0.5939 0.7951
vn 0.1741 0.6325 0.7547
vn -0.9458 -0.0135 0.3245
vn -0.7899 -0.2816 0.5448
vn -0.9735 0.1295 0.1887
vn 0.5056 -0.7015 0.5022
vn -0.7217 -0.3535 0.5952
vn 0.6163 0.4429 -0.6511
vn 0.5036 -0.7100 0.4922
vn 0.9190 0.0824 -0.3855
vn 0.4682 0.5392 -0.7000
vn 0.9048 0.1121 -0.4109
vn -0.8239 0.5104 -0.2462
vn -0.6938 -0.3793 0.6122
vn 0.8590 0.1905 -0.4752
vn 0.5148 -0.6989 0.4966
vn 0.5068 -0.7091 0.4902
vn 0.7587 0.3162 -0.5696
vn -0.1063 0.7158 -0.6901
vn -0.8821 -0.1535 0.4454
vn 0.3702 -0.6770 -0.6361
vn -0.2247 -0.6613 -0.7157
vn 0.2427 -0.6803 -0.6916
vn 0.2033 -0.8529 -0.4808
vn 0.2202 -0.8206 -0.5273
vn 0.2460 -0.7154 -0.6540
vn -0.2270 -0.8104 -0.5401
vn -0.2644 -0.7761 -0.5725
vn -0.2517 -0.6932 -0.6754
vn 0.3179 -0.8249 -0.4674
vn 0.3646 -0.7927 -0.4885
vn 0.3839 -0.7099 -0.5905
vn -0.1017 -0.7062 -0.7006
vn -0.1170 -0.8116 -0.5724
vn -0.1160 -0.8441 -0.5234
vn -0.0862 -0.6717 -0.7358
vn -0.1982 0.7094 0.6764
vn -0.2181 -0.5049 -0.8352
vn -0.0208 -0.5164 -0.8561
vn 0.2182 -0.5233 -0.8237
vn 0.4024 -0.5229 -0.7515
vn -0.2258 -0.6429 -0.7320
vn -0.0804 -0.6754 -0.7331
vn 0.2374 -0.6821 -0.6917
vn 0.3772 -0.6556 -0.6541
vn 0.0502 0.7029 0.7095
vn -0.2458 0.6815 0.6893
vn -0.2048 0.8518 0.4822
vn -0.2226 0.8200 0.5274
vn -0.2484 0.7160 0.6525
vn 0.0030 0.8285 0.5599
vn 0.0774 0.8021 0.5922
vn 0.0787 0.7227 0.6867
vn -0.1083 0.8314 0.5450
vn -0.1890 0.8090 0.5566
vn -0.2188 0.7304 0.6471
vn 0.1046 0.7066 0.6998
vn 0.1193 0.8108 0.5731
vn 0.1171 0.8429 0.5251
vn 0.0899 0.6727 0.7344
vn -0.0188 0.6578 0.7529
vn 0.0041 0.6285 0.7778
vn -0.1761 0.6339 0.7531
vn -0.1425 0.6626 0.7353
vn 0.0168 0.6977 0.7162
vn 0.0833 0.6746 0.7335
vn -0.2403 0.6814 0.6913
vn -0.1674 0.7015 0.6927
vn -0.9062 0.2338 -0.3523
vn -0.9963 -0.0194 -0.0832
vn -0.8056 0.3546 -0.4746
vn -0.1177 -0.6951 0.7092
vn -0.9956 -0.0942 -0.0009
vn 0.9752 0.1924 -0.1094
vn -0.1153 -0.7045 0.7002
vn 0.9420 -0.1722 0.2882
vn 0.9205 0.3073 -0.2414
vn 0.9548 -0.1449 0.2595
vn -0.3267 0.6185 -0.7146
vn -0.9921 -0.1219 0.0300
vn 0.9810 -0.0708 0.1808
vn -0.1067 -0.6954 0.7107
vn -0.1114 -0.7047 0.7008
vn 0.9975 0.0550 0.0442
vn 0.5338 0.5961 -0.5997
vn -0.9700 0.1062 -0.2185
vn 0.3346 -0.8583 -0.3891
vn 0.0756 -0.5480 -0.8331
vn 0.3029 -0.8033 -0.5128
vn 0.0538 -0.8958 -0.4412
vn 0.1106 -0.8845 -0.4532
vn 0.2621 -0.8288 -0.4944
vn -0.1179 -0.6454 -0.7547
vn -0.0995 -0.6020 -0.7922
vn 0.0180 -0.5546 -0.8319
vn 0.1194 -0.9298 -0.3482
vn 0.1744 -0.9302 -0.3229
vn 0.2947 -0.8861 -0.3576
vn 0.1108 -0.6474 -0.7541
vn -0.0361 -0.7085 -0.7048
vn -0.0851 -0.7289 -0.6793
vn 0.1599 -0.6318 -0.7585
vn -0.2547 0.8023 0.5399
vn 0.2353 -0.4381 -0.8676
vn 0.3515 -0.5536 -0.7550
vn 0.4550 -0.6787 -0.5766
vn 0.5042 -0.7630 -0.4044
vn 0.0949 -0.5344 -0.8399
vn 0.1594 -0.6375 -0.7538
vn 0.2993 -0.8020 -0.5169
vn 0.3609 -0.8467 -0.3909
vn -0.1465 0.6727 0.7253
vn -0.3024 0.8055 0.5096
vn -0.0561 0.8958 0.4408
vn -0.1122 0.8852 0.4514
vn -0.2621 0.8302 0.4920
vn -0.0089 0.7801 0.6256
vn -0.0035 0.7241 0.6897
vn -0.1059 0.6710 0.7338
vn -0.0574 0.8381 0.5425
vn -0.1196 0.8630 0.4909
vn -0.2356 0.8261 0.5119
vn -0.1085 0.6461 0.7555
vn 0.0366 0.7067 0.7066
vn 0.0839 0.7276 0.6808
vn -0.1564 0.6305 0.7602
vn -0.2352 0.6773 0.6971
vn -0.2538 0.6446 0.7212
vn -0.3315 0.7390 0.5865
vn -0.2876 0.7429 0.6044
vn -0.1717 0.6867 0.7064
vn -0.1585 0.6353 0.7558
vn -0.3009 0.8029 0.5146
vn -0.2531 0.7821 0.5694
vn -0.1352 0.6140 -0.7776
vn -0.4900 0.4889 -0.7217
vn 0.0610 0.6447 -0.7620
vn -0.8830 -0.4153 0.2188
vn -0.5820 0.4382 -0.6851
vn 0.6938 -0.3618 0.6227
vn -0.8798 -0.4258 0.2115
vn 0.2281 -0.5905 0.7741
vn 0.8099 -0.2569 0.5273
vn 0.2677 -0.5786 0.7704
vn 0.6108 0.5811 -0.5379
vn -0.6145 0.4178 -0.6692
vn 0.3714 -0.5419 0.7539
vn -0.8782 -0.4210 0.2270
vn -0.8781 -0.4279 0.2144
vn 0.5345 -0.4656 0.7054
vn 0.9857 0.1324 0.1043
vn -0.3227 0.5602 -0.7629
vn 0.0122 -0.8891 -0.4575
vn 0.5009 -0.5886 -0.6345
vn 0.1408 -0.8554 -0.4984
vn -0.0030 -0.7222 -0.6917
vn 0.0216 -0.7582 -0.6517
vn 0.1067 -0.8390 -0.5335
vn 0.3578 -0.4974 -0.7903
vn 0.4132 -0.4897 -0.7678
vn 0.4879 -0.5512 -0.6769
vn -0.0897 -0.7728 -0.6283
vn -0.1035 -0.8076 -0.5806
vn -0.0342 -0.8723 -0.4877
vn 0.3925 -0.6635 -0.6369
vn 0.2986 -0.5878 -0.7519
vn 0.2593 -0.5607 -0.7863
vn 0.4111 -0.6895 -0.5963
vn -0.1575 0.8256 0.5419
vn 0.6056 -0.6383 -0.4752
vn 0.4732 -0.7752 -0.4184
vn 0.2766 -0.8958 -0.3479
vn 0.0950 -0.9516 -0.2922
vn 0.5160 -0.5950 -0.6162
vn 0.4044 -0.6919 -0.5981
vn 0.1444 -0.8528 -0.5018
vn 0.0232 -0.9009 -0.4335
vn -0.3615 0.7000 0.6159
vn -0.1368 0.8559 0.4987
vn 0.0029 0.7238 0.6900
vn -0.0200 0.7594 0.6503
vn -0.1039 0.8395 0.5333
vn -0.2041 0.6513 0.7308
vn -0.2846 0.6236 0.7281
vn -0.3634 0.6715 0.6459
vn -0.1126 0.7075 0.6977
vn -0.0659 0.7582 0.6487
vn -0.1191 0.8218 0.5572
vn -0.3940 0.6613 0.6383
vn -0.3009 0.5867 0.7518
vn -0.2615 0.5610 0.7854
vn -0.4127 0.6865 0.5986
vn -0.3486 0.7612 0.5468
vn -0.3874 0.7580 0.5248
vn -0.2389 0.8487 0.4718
vn -0.2460 0.8234 0.5114
vn -0.3426 0.7236 0.5992
vn -0.4070 0.6903 0.5982
vn -0.1422 0.8541 0.5003
vn -0.1922 0.8172 0.5434
vn 0.9377 0.3434 -0.0528
vn 0.7766 0.5280 -0.3436
vn 0.9686 0.2254 0.1047
vn -0.5175 0.4072 -0.7525
vn 0.7072 0.5683 -0.4206
vn -0.6005 -0.6113 0.5155
vn -0.5153 0.3964 -0.7599
vn -0.9095 -0.3955 0.1281
vn -0.4513 -0.6453 0.6163
vn -0.8946 -0.4170 0.1604
vn 0.8296 -0.1670 0.5328
vn 0.6789 0.5816 -0.4481
vn -0.8473 -0.4709 0.2454
vn -0.5265 0.4017 -0.7493
vn -0.5185 0.3944 -0.7587
vn -0.7448 -0.5480 0.3808
vn 0.1229 -0.6018 0.7892
vn 0.8711 0.4460 -0.2054
vn -0.3548 -0.7174 -0.5995
vn 0.2418 -0.7805 -0.5765
vn -0.2260 -0.7698 -0.5969
vn -0.1917 -0.5791 -0.7924
vn -0.2075 -0.6221 -0.7550
vn -0.2302 -0.7365 -0.6360
vn 0.2399 -0.6229 -0.7446
vn 0.2781 -0.6503 -0.7069
vn 0.2678 -0.7435 -0.6128
vn -0.3066 -0.5654 -0.7657
vn -0.3528 -0.5838 -0.7312
vn -0.3696 -0.6762 -0.6373
vn 0.1185 -0.7736 -0.6225
vn 0.1307 -0.6578 -0.7418
vn 0.1285 -0.6128 -0.7797
vn 0.1039 -0.8049 -0.5842
vn 0.1819 0.7570 0.6276
vn 0.2381 -0.8816 -0.4075
vn 0.0413 -0.9084 -0.4161
vn -0.1983 -0.8827 -0.4260
vn -0.3842 -0.8153 -0.4332
vn 0.2433 -0.7945 -0.5564
vn 0.0980 -0.8028 -0.5881
vn -0.2207 -0.7700 -0.5986
vn -0.3614 -0.7331 -0.5762
vn -0.0673 0.7832 0.6181
vn 0.2291 0.7678 0.5983
vn 0.1931 0.5804 0.7911
vn 0.2099 0.6221 0.7543
vn 0.2327 0.7352 0.6367
vn -0.0165 0.6500 0.7597
vn -0.0916 0.6773 0.7300
vn -0.0952 0.7622 0.6404
vn 0.0952 0.6382 0.7640
vn 0.1755 0.6491 0.7402
vn 0.2032 0.7307 0.6517
vn -0.1213 0.7727 0.6230
vn -0.1330 0.6583 0.7409
vn -0.1297 0.6144 0.7783
vn -0.1075 0.8036 0.5854
vn 0.0007 0.8229 0.5682
vn -0.0227 0.8437 0.5363
vn 0.1580 0.8241 0.5440
vn 0.1248 0.8089 0.5745
vn -0.0340 0.7901 0.6120
vn -0.1009 0.8031 0.5873
vn 0.2236 0.7697 0.5980
vn 0.1507 0.7716 0.6180
vn 0.9144 -0.3018 0.2698
vn 0.9981 -0.0610 -0.0126
vn 0.8168 -0.4120 0.4039
vn 0.1006 0.6285 -0.7713
vn 0.9953 0.0122 -0.0962
vn -0.9723 -0.1101 0.2063
vn 0.0984 0.6184 -0.7797
vn -0.9486 0.2443 -0.2012
vn -0.9144 -0.2269 0.3352
vn -0.9608 0.2186 -0.1708
vn 0.3438 -0.6319 0.6946
vn 0.9911 0.0396 -0.1272
vn -0.9850 0.1482 -0.0882
vn 0.0896 0.6296 -0.7717
vn 0.0945 0.6188 -0.7798
vn -0.9983 0.0263 0.0523
vn -0.5192 -0.5408 0.6617
vn 0.9750 -0.1819 0.1276
vn -0.5696 -0.5819 -0.5805
vn -0.2248 -0.9427 -0.2467
vn -0.5216 -0.6880 -0.5046
vn -0.3121 -0.6623 -0.6812
vn -0.3627 -0.6667 -0.6512
vn -0.4904 -0.6802 -0.5448
vn -0.0700 -0.9078 -0.4136
vn -0.0742 -0.9307 -0.3581
vn -0.1718 -0.9475 -0.2696
vn -0.3859 -0.5775 -0.7194
vn -0.4388 -0.5494 -0.7111
vn -0.5402 -0.5621 -0.6263
vn -0.2889 -0.8912 -0.3496
vn -0.1674 -0.8711 -0.4618
vn -0.1270 -0.8556 -0.5018
vn -0.3311 -0.8877 -0.3200
vn 0.4749 0.7172 0.5099
vn -0.3443 -0.9345 -0.0903
vn -0.4909 -0.8493 -0.1941
vn -0.6290 -0.7045 -0.3288
vn -0.7031 -0.5586 -0.4400
vn -0.2392 -0.9441 -0.2267
vn -0.3324 -0.8848 -0.3266
vn -0.5177 -0.6919 -0.5033
vn -0.5913 -0.5786 -0.5618
vn 0.3308 0.8679 0.3706
vn 0.5218 0.6856 0.5077
vn 0.3142 0.6618 0.6807
vn 0.3645 0.6651 0.6518
vn 0.4908 0.6783 0.5469
vn 0.2326 0.8112 0.5365
vn 0.2100 0.8579 0.4688
vn 0.2915 0.8785 0.3784
vn 0.2971 0.7437 0.5989
vn 0.3645 0.6964 0.6182
vn 0.4641 0.6982 0.5452
vn 0.2864 0.8924 0.3487
vn 0.1664 0.8723 0.4598
vn 0.1277 0.8567 0.4998
vn 0.3274 0.8893 0.3193
vn 0.4172 0.8357 0.3571
vn 0.4250 0.8486 0.3150
vn 0.5289 0.7393 0.4168
vn 0.4879 0.7607 0.4280
vn 0.3594 0.8517 0.3814
vn 0.3309 0.8862 0.3244
vn 0.5195 0.6898 0.5043
vn 0.4671 0.7402 0.4837
vn 0.3208 -0.5898 0.7411
vn 0.6218 -0.5956 0.5086
vn 0.1424 -0.5524 0.8213
vn 0.7172 0.0339 -0.6961
vn 0.6941 -0.5808 0.4253
vn -0.7774 0.5498 -0.3057
vn 0.7110 0.0242 -0.7028
vn -0.4025 0.5995 -0.6918
vn -0.8560 0.4949 -0.1494
vn -0.4368 0.6020 -0.6684
vn -0.4042 -0.3148 0.8588
vn 0.7189 -0.5735 0.3928
vn -0.5247 0.6036 -0.6003
vn 0.7108 0.0406 -0.7022
vn 0.7088 0.0266 -0.7050
vn -0.6571 0.5895 -0.4698
vn -0.9031 0.2070 0.3762
vn 0.4837 -0.6038 0.6336
vn -0.4881 -0.5186 -0.7020
vn -0.4976 -0.8445 -0.1979
vn -0.5254 -0.6043 -0.5990
vn -0.2753 -0.7062 -0.6523
vn -0.3300 -0.6840 -0.6506
vn -0.4809 -0.6204 -0.6195
vn -0.2916 -0.9174 -0.2707
vn -0.3268 -0.9187 -0.2218
vn -0.4478 -0.8735 -0.1911
vn -0.2830 -0.6191 -0.7325
vn -0.3168 -0.5742 -0.7550
vn -0.4377 -0.5253 -0.7297
vn -0.4867 -0.8110 -0.3248
vn -0.3355 -0.8686 -0.3647
vn -0.2804 -0.8808 -0.3815
vn -0.5309 -0.7846 -0.3203
vn 0.4983 0.6472 0.5770
vn -0.6521 -0.7482 -0.1225
vn -0.6928 -0.6581 -0.2950
vn -0.6884 -0.5275 -0.4978
vn -0.6410 -0.4094 -0.6493
vn -0.5177 -0.8347 -0.1875
vn -0.5281 -0.7837 -0.3270
vn -0.5244 -0.6086 -0.5955
vn -0.5116 -0.5026 -0.6969
vn 0.5021 0.7833 0.3665
vn 0.5233 0.6030 0.6021
vn 0.2771 0.7049 0.6529
vn 0.3305 0.6822 0.6522
vn 0.4796 0.6192 0.6217
vn 0.3329 0.8181 0.4689
vn 0.3616 0.8453 0.3934
vn 0.4720 0.8081 0.3525
vn 0.3311 0.7571 0.5633
vn 0.3574 0.6993 0.6191
vn 0.4674 0.6450 0.6046
vn 0.4855 0.8125 0.3226
vn 0.3361 0.8693 0.3623
vn 0.2822 0.8809 0.3799
vn 0.5289 0.7870 0.3177
vn 0.5633 0.7222 0.4013
vn 0.5918 0.7177 0.3671
vn 0.5881 0.6193 0.5202
vn 0.5599 0.6553 0.5070
vn 0.5139 0.7631 0.3919
vn 0.5283 0.7847 0.3242
vn 0.5246 0.6064 0.5975
vn 0.5123 0.6617 0.5475
vn -0.2888 -0.3911 0.8739
vn 0.0434 -0.5688 0.8213
vn -0.4482 -0.2740 0.8509
vn 0.8681 -0.4266 -0.2540
vn 0.1410 -0.6059 0.7830
vn -0.2689 0.6438 -0.7164
vn 0.8615 -0.4354 -0.2614
vn 0.2076 0.4421 -0.8726
vn -0.4178 0.6707 -0.6129
vn 0.1718 0.4630 -0.8695
vn -0.8014 0.1271 0.5845
vn 0.1771 -0.6178 0.7661
vn 0.0746 0.5149 -0.8540
vn 0.8682 -0.4206 -0.2633
vn 0.8615 -0.4332 -0.2648
vn -0.0899 0.5873 -0.8044
vn -0.7878 0.5987 -0.1446
vn -0.1210 -0.4910 0.8627
vt 0.035405 0.463568
vt 0.030259 0.694208
vt 0.011235 0.674925
vt 0.018238 0.441408
vt 0.028225 0.695674
vt 0.010773 0.675312
vt 0.088757 0.663979
vt 0.098179 0.431732
vt 0.089452 0.453267
vt 0.075472 0.681708
vt 0.076877 0.470820
vt 0.063090 0.698606
vt 0.057139 0.477240
vt 0.045372 0.705189
vt 0.089961 0.664423
vt 0.078457 0.682809
vt 0.066014 0.699069
vt 0.048099 0.704188
vt 0.062811 0.621346
vt 0.063365 0.670995
vt 0.066954 0.668488
vt 0.068046 0.617689
vt 0.067139 0.663076
vt 0.068315 0.609796
vt 0.063733 0.660172
vt 0.063348 0.605561
vt 0.060143 0.662679
vt 0.058113 0.609217
vt 0.426570 0.508001
vt 0.426884 0.497061
vt 0.394369 0.797796
vt 0.392214 0.872835
vt 0.059959 0.668091
vt 0.057844 0.617110
vt 0.438509 0.508803
vt 0.432382 0.513872
vt 0.432084 0.913106
vt 0.474110 0.878338
vt 0.056776 0.239854
vt 0.056776 0.391527
vt 0.063487 0.391527
vt 0.063487 0.239854
vt 0.056917 0.468987
vt 0.057059 0.546448
vt 0.063731 0.547313
vt 0.063609 0.469420
vt 0.056956 0.468296
vt 0.057136 0.545066
vt 0.063686 0.468038
vt 0.063885 0.544549
vt 0.070199 0.239854
vt 0.070199 0.391527
vt 0.070378 0.468470
vt 0.070557 0.545414
vt 0.070339 0.469161
vt 0.070480 0.546796
vt 0.433010 0.491993
vt 0.438823 0.497864
vt 0.476265 0.803299
vt 0.436395 0.763028
vt 0.396202 0.893692
vt 0.432307 0.930161
vt 0.436211 0.794253
vt 0.398153 0.825738
vt 0.470365 0.898676
vt 0.472317 0.830721
vt 0.434273 0.879763
vt 0.205792 0.517569
vt 0.205524 0.537820
vt 0.224368 0.537835
vt 0.225525 0.517568
vt 0.165121 0.517568
vt 0.166279 0.537835
vt 0.185122 0.537820
vt 0.184854 0.517569
vt 0.195323 0.517568
vt 0.195323 0.537819
vt 0.192100 0.252098
vt 0.192100 0.301785
vt 0.203223 0.301758
vt 0.201342 0.252060
vt 0.195323 0.485790
vt 0.205308 0.485790
vt 0.164336 0.251909
vt 0.159069 0.301586
vt 0.180976 0.301758
vt 0.182857 0.252060
vt 0.166132 0.485794
vt 0.185338 0.485790
vt 0.225130 0.301586
vt 0.219863 0.251909
vt 0.224514 0.485794
vt 0.170714 0.566453
vt 0.183925 0.615622
vt 0.184011 0.566435
vt 0.195323 0.627200
vt 0.195250 0.566541
vt 0.206721 0.615622
vt 0.206490 0.566646
vt 0.219680 0.566919
vt 0.165459 0.519522
vt 0.161023 0.490903
vt 0.144828 0.350235
vt 0.146177 0.307874
vt 0.178669 0.568690
vt 0.152063 0.239018
vt 0.219112 0.490903
vt 0.214424 0.519988
vt 0.212856 0.189341
vt 0.218123 0.239018
vt 0.201466 0.568690
vt 0.224009 0.307874
vt 0.190067 0.580269
vt 0.157329 0.189341
vt 0.225357 0.350235
s 0
usemtl Material.001
f 18/1/1 14/2/1 4/3/1 6/4/1
f 7/5/2 18/1/2 6/4/2 3/6/2
f 1/7/3 5/8/3 15/9/3 10/10/3
f 10/10/4 15/9/4 16/11/4 9/12/4
f 9/12/5 16/11/5 17/13/5 8/14/5
f 8/14/6 17/13/6 18/1/6 7/5/6
f 5/8/7 2/15/7 11/16/7 15/9/7
f 15/9/8 11/16/8 12/17/8 16/11/8
f 16/11/9 12/17/9 13/18/9 17/13/9
f 17/13/10 13/18/10 14/2/10 18/1/10
f 36/1/11 32/2/11 22/3/11 24/4/11
f 25/5/12 36/1/12 24/4/12 21/6/12
f 19/7/13 23/8/13 33/9/13 28/10/13
f 28/10/14 33/9/14 34/11/14 27/12/14
f 27/12/15 34/11/15 35/13/15 26/14/15
f 26/14/16 35/13/16 36/1/16 25/5/16
f 23/8/17 20/15/17 29/16/17 33/9/17
f 33/9/18 29/16/18 30/17/18 34/11/18
f 34/11/19 30/17/19 31/18/19 35/13/19
f 35/13/20 31/18/20 32/2/20 36/1/20
f 54/1/21 50/2/21 40/3/21 42/4/21
f 43/5/22 54/1/22 42/4/22 39/6/22
f 37/7/23 41/8/23 51/9/23 46/10/23
f 46/10/24 51/9/24 52/11/24 45/12/24
f 45/12/25 52/11/25 53/13/25 44/14/25
f 44/14/26 53/13/26 54/1/26 43/5/26
f 41/8/27 38/15/27 47/16/27 51/9/27
f 51/9/28 47/16/28 48/17/28 52/11/28
f 52/11/29 48/17/29 49/18/29 53/13/29
f 53/13/30 49/18/30 50/2/30 54/1/30
f 72/1/31 68/2/31 58/3/31 60/4/31
f 61/5/32 72/1/32 60/4/32 57/6/32
f 55/7/33 59/8/33 69/9/33 64/10/33
f 64/10/34 69/9/34 70/11/34 63/12/34
f 63/12/35 70/11/35 71/13/35 62/14/35
f 62/14/36 71/13/36 72/1/36 61/5/36
f 59/8/37 56/15/37 65/16/37 69/9/37
f 69/9/38 65/16/38 66/17/38 70/11/38
f 70/11/39 66/17/39 67/18/39 71/13/39
f 71/13/40 67/18/40 68/2/40 72/1/40
f 116/19/41 74/20/41 76/21/41 117/22/41
f 117/22/42 76/21/42 78/23/42 118/24/42
f 118/24/43 78/23/43 80/25/43 119/26/43
f 119/26/44 80/25/44 82/27/44 120/28/44
f 84/29/45 82/30/45 101/31/45 102/32/45
f 120/28/46 82/27/46 84/33/46 121/34/46
f 121/34/47 84/33/47 74/20/47 116/19/47
f 76/35/48 74/36/48 97/37/48 98/38/48
f 83/39/49 96/40/49 85/41/49 73/42/49
f 115/43/50 95/44/50 86/45/50 110/46/50
f 81/39/51 94/40/51 96/40/51 83/39/51
f 114/47/52 93/48/52 95/44/52 115/43/52
f 79/42/53 92/41/53 94/40/53 81/39/53
f 113/49/54 91/50/54 93/48/54 114/47/54
f 77/51/55 90/52/55 92/41/55 79/42/55
f 112/53/56 89/54/56 91/50/56 113/49/56
f 75/51/57 88/52/57 90/52/57 77/51/57
f 111/55/58 87/56/58 89/54/58 112/53/58
f 73/42/59 85/41/59 88/52/59 75/51/59
f 110/46/60 86/45/60 87/56/60 111/55/60
f 80/57/61 78/58/61 99/59/61 100/60/61
f 74/36/62 84/29/62 102/32/62 97/37/62
f 82/30/63 80/57/63 100/60/63 101/31/63
f 78/58/64 76/35/64 98/38/64 99/59/64
f 97/37/65 102/32/65 108/61/65 103/62/65
f 101/31/66 100/60/66 106/63/66 107/64/66
f 99/59/67 98/38/67 104/65/67 105/66/67
f 102/32/68 101/31/68 107/64/68 108/61/68
f 100/60/69 99/59/69 105/66/69 106/63/69
f 98/38/70 97/37/70 103/62/70 104/65/70
f 108/61/71 107/64/71 109/67/71
f 106/63/72 105/66/72 109/67/72
f 104/65/73 103/62/73 109/67/73
f 103/62/74 108/61/74 109/67/74
f 107/64/75 106/63/75 109/67/75
f 105/66/76 104/65/76 109/67/76
f 85/41/77 110/46/77 111/55/77 88/52/77
f 88/52/78 111/55/78 112/53/78 90/52/78
f 90/52/79 112/53/79 113/49/79 92/41/79
f 92/41/80 113/49/80 114/47/80 94/40/80
f 94/40/81 114/47/81 115/43/81 96/40/81
f 96/40/82 115/43/82 110/46/82 85/41/82
f 95/44/83 121/34/83 116/19/83 86/45/83
f 93/48/84 120/28/84 121/34/84 95/44/84
f 91/50/85 119/26/85 120/28/85 93/48/85
f 89/54/86 118/24/86 119/26/86 91/50/86
f 87/56/87 117/22/87 118/24/87 89/54/87
f 86/45/88 116/19/88 117/22/88 87/56/88
f 117/22/89 116/19/89 122/19/89 123/22/89
f 119/26/90 118/24/90 124/24/90 125/26/90
f 121/34/91 120/28/91 126/28/91 127/34/91
f 118/24/92 117/22/92 123/22/92 124/24/92
f 120/28/93 119/26/93 125/26/93 126/28/93
f 116/19/94 121/34/94 127/34/94 122/19/94
f 147/68/95 160/69/95 131/70/95 141/71/95
f 136/72/96 130/73/96 159/74/96 144/75/96
f 152/76/97 158/77/97 160/69/97 147/68/97
f 148/78/98 150/79/98 145/80/98 133/81/98
f 150/79/99 151/82/99 146/83/99 145/80/99
f 151/82/100 152/76/100 147/68/100 146/83/100
f 128/84/101 138/85/101 142/86/101 132/87/101
f 138/85/102 137/88/102 143/89/102 142/86/102
f 137/88/103 136/72/103 144/75/103 143/89/103
f 133/81/104 145/80/104 139/90/104 129/91/104
f 145/80/105 146/83/105 140/92/105 139/90/105
f 146/83/106 147/68/106 141/71/106 140/92/106
f 143/89/107 144/75/107 152/76/107 151/82/107
f 142/86/108 143/89/108 151/82/108 150/79/108
f 132/87/109 142/86/109 150/79/109 148/78/109
f 144/75/110 159/74/110 158/77/110 152/76/110
f 180/68/111 174/71/111 164/70/111 193/69/111
f 154/93/112 135/94/112 153/95/112
f 153/95/113 135/94/113 149/96/113 157/97/113
f 157/97/114 149/96/114 134/98/114 156/99/114
f 156/99/115 134/98/115 155/100/115
f 130/73/116 154/93/116 153/95/116 159/74/116
f 159/74/117 153/95/117 157/97/117 158/77/117
f 158/77/118 157/97/118 156/99/118 160/69/118
f 160/69/119 156/99/119 155/100/119 131/70/119
f 169/72/120 177/75/120 192/74/120 163/73/120
f 185/76/121 180/68/121 193/69/121 191/77/121
f 181/78/122 166/81/122 178/80/122 183/79/122
f 183/79/123 178/80/123 179/83/123 184/82/123
f 184/82/124 179/83/124 180/68/124 185/76/124
f 161/84/125 165/87/125 175/86/125 171/85/125
f 171/85/126 175/86/126 176/89/126 170/88/126
f 170/88/127 176/89/127 177/75/127 169/72/127
f 166/81/128 162/91/128 172/90/128 178/80/128
f 178/80/129 172/90/129 173/92/129 179/83/129
f 179/83/130 173/92/130 174/71/130 180/68/130
f 176/89/131 184/82/131 185/76/131 177/75/131
f 175/86/132 183/79/132 184/82/132 176/89/132
f 165/87/133 181/78/133 183/79/133 175/86/133
f 177/75/134 185/76/134 191/77/134 192/74/134
f 187/93/135 186/95/135 168/94/135
f 186/95/136 190/97/136 182/96/136 168/94/136
f 190/97/137 189/99/137 167/98/137 182/96/137
f 189/99/138 188/100/138 167/98/138
f 163/73/139 192/74/139 186/95/139 187/93/139
f 192/74/140 191/77/140 190/97/140 186/95/140
f 191/77/141 193/69/141 189/99/141 190/97/141
f 193/69/142 164/70/142 188/100/142 189/99/142
f 154/101/143 130/102/143 163/102/143 187/101/143
f 136/103/144 137/104/144 170/104/144 169/103/144
f 135/105/145 154/101/145 187/101/145 168/105/145
f 128/84/146 132/87/146 165/87/146 161/84/146
f 137/104/147 138/106/147 171/106/147 170/104/147
f 131/107/148 155/108/148 188/108/148 164/107/148
f 148/78/149 133/81/149 166/81/149 181/78/149
f 129/109/150 139/110/150 172/110/150 162/109/150
f 155/108/151 134/111/151 167/111/151 188/108/151
f 139/110/152 140/112/152 173/112/152 172/110/152
f 149/113/153 135/105/153 168/105/153 182/113/153
f 138/106/154 128/114/154 161/114/154 171/106/154
f 140/112/155 141/115/155 174/115/155 173/112/155
f 133/81/156 129/91/156 162/91/156 166/81/156
f 132/87/157 148/78/157 181/78/157 165/87/157
f 141/115/158 131/107/158 164/107/158 174/115/158
f 134/111/159 149/113/159 182/113/159 167/111/159
f 130/102/160 136/103/160 169/103/160 163/102/160
f 213/68/161 226/69/161 197/70/161 207/71/161
f 202/72/162 196/73/162 225/74/162 210/75/162
f 218/76/163 224/77/163 226/69/163 213/68/163
f 214/78/164 216/79/164 211/80/164 199/81/164
f 216/79/165 217/82/165 212/83/165 211/80/165
f 217/82/166 218/76/166 213/68/166 212/83/166
f 194/84/167 204/85/167 208/86/167 198/87/167
f 204/85/168 203/88/168 209/89/168 208/86/168
f 203/88/169 202/72/169 210/75/169 209/89/169
f 199/81/170 211/80/170 205/90/170 195/91/170
f 211/80/171 212/83/171 206/92/171 205/90/171
f 212/83/172 213/68/172 207/71/172 206/92/172
f 209/89/173 210/75/173 218/76/173 217/82/173
f 208/86/174 209/89/174 217/82/174 216/79/174
f 198/87/175 208/86/175 216/79/175 214/78/175
f 210/75/176 225/74/176 224/77/176 218/76/176
f 246/68/177 240/71/177 230/70/177 259/69/177
f 220/93/178 201/94/178 219/95/178
f 219/95/179 201/94/179 215/96/179 223/97/179
f 223/97/180 215/96/180 200/98/180 222/99/180
f 222/99/181 200/98/181 221/100/181
f 196/73/182 220/93/182 219/95/182 225/74/182
f 225/74/183 219/95/183 223/97/183 224/77/183
f 224/77/184 223/97/184 222/99/184 226/69/184
f 226/69/185 222/99/185 221/100/185 197/70/185
f 235/72/186 243/75/186 258/74/186 229/73/186
f 251/76/187 246/68/187 259/69/187 257/77/187
f 247/78/188 232/81/188 244/80/188 249/79/188
f 249/79/189 244/80/189 245/83/189 250/82/189
f 250/82/190 245/83/190 246/68/190 251/76/190
f 227/84/191 231/87/191 241/86/191 237/85/191
f 237/85/192 241/86/192 242/89/192 236/88/192
f 236/88/193 242/89/193 243/75/193 235/72/193
f 232/81/194 228/91/194 238/90/194 244/80/194
f 244/80/195 238/90/195 239/92/195 245/83/195
f 245/83/196 239/92/196 240/71/196 246/68/196
f 242/89/197 250/82/197 251/76/197 243/75/197
f 241/86/198 249/79/198 250/82/198 242/89/198
f 231/87/199 247/78/199 249/79/199 241/86/199
f 243/75/200 251/76/200 257/77/200 258/74/200
f 253/93/201 252/95/201 234/94/201
f 252/95/202 256/97/202 248/96/202 234/94/202
f 256/97/203 255/99/203 233/98/203 248/96/203
f 255/99/204 254/100/204 233/98/204
f 229/73/205 258/74/205 252/95/205 253/93/205
f 258/74/206 257/77/206 256/97/206 252/95/206
f 257/77/207 259/69/207 255/99/207 256/97/207
f 259/69/208 230/70/208 254/100/208 255/99/208
f 220/101/209 196/102/209 229/102/209 253/101/209
f 202/103/210 203/104/210 236/104/210 235/103/210
f 201/105/211 220/101/211 253/101/211 234/105/211
f 194/84/212 198/87/212 231/87/212 227/84/212
f 203/104/213 204/106/213 237/106/213 236/104/213
f 197/107/214 221/108/214 254/108/214 230/107/214
f 214/78/215 199/81/215 232/81/215 247/78/215
f 195/109/216 205/110/216 238/110/216 228/109/216
f 221/108/217 200/111/217 233/111/217 254/108/217
f 205/110/218 206/112/218 239/112/218 238/110/218
f 215/113/219 201/105/219 234/105/219 248/113/219
f 204/106/220 194/114/220 227/114/220 237/106/220
f 206/112/221 207/115/221 240/115/221 239/112/221
f 199/81/222 195/91/222 228/91/222 232/81/222
f 198/87/223 214/78/223 247/78/223 231/87/223
f 207/115/224 197/107/224 230/107/224 240/115/224
f 200/111/225 215/113/225 248/113/225 233/111/225
f 196/102/226 202/103/226 235/103/226 229/102/226
f 279/68/227 292/69/227 263/70/227 273/71/227
f 268/72/228 262/73/228 291/74/228 276/75/228
f 284/76/229 290/77/229 292/69/229 279/68/229
f 280/78/230 282/79/230 277/80/230 265/81/230
f 282/79/231 283/82/231 278/83/231 277/80/231
f 283/82/232 284/76/232 279/68/232 278/83/232
f 260/84/233 270/85/233 274/86/233 264/87/233
f 270/85/234 269/88/234 275/89/234 274/86/234
f 269/88/235 268/72/235 276/75/235 275/89/235
f 265/81/236 277/80/236 271/90/236 261/91/236
f 277/80/237 278/83/237 272/92/237 271/90/237
f 278/83/238 279/68/238 273/71/238 272/92/238
f 275/89/239 276/75/239 284/76/239 283/82/239
f 274/86/240 275/89/240 283/82/240 282/79/240
f 264/87/241 274/86/241 282/79/241 280/78/241
f 276/75/242 291/74/242 290/77/242 284/76/242
f 312/68/243 306/71/243 296/70/243 325/69/243
f 286/93/244 267/94/244 285/95/244
f 285/95/245 267/94/245 281/96/245 289/97/245
f 289/97/246 281/96/246 266/98/246 288/99/246
f 288/99/247 266/98/247 287/100/247
f 262/73/248 286/93/248 285/95/248 291/74/248
f 291/74/249 285/95/249 289/97/249 290/77/249
f 290/77/250 289/97/250 288/99/250 292/69/250
f 292/69/251 288/99/251 287/100/251 263/70/251
f 301/72/252 309/75/252 324/74/252 295/73/252
f 317/76/253 312/68/253 325/69/253 323/77/253
f 313/78/254 298/81/254 310/80/254 315/79/254
f 315/79/255 310/80/255 311/83/255 316/82/255
f 316/82/256 311/83/256 312/68/256 317/76/256
f 293/84/257 297/87/257 307/86/257 303/85/257
f 303/85/258 307/86/258 308/89/258 302/88/258
f 302/88/259 308/89/259 309/75/259 301/72/259
f 298/81/260 294/91/260 304/90/260 310/80/260
f 310/80/261 304/90/261 305/92/261 311/83/261
f 311/83/262 305/92/262 306/71/262 312/68/262
f 308/89/263 316/82/263 317/76/263 309/75/263
f 307/86/264 315/79/264 316/82/264 308/89/264
f 297/87/265 313/78/265 315/79/265 307/86/265
f 309/75/266 317/76/266 323/77/266 324/74/266
f 319/93/267 318/95/267 300/94/267
f 318/95/268 322/97/268 314/96/268 300/94/268
f 322/97/269 321/99/269 299/98/269 314/96/269
f 321/99/270 320/100/270 299/98/270
f 295/73/271 324/74/271 318/95/271 319/93/271
f 324/74/272 323/77/272 322/97/272 318/95/272
f 323/77/273 325/69/273 321/99/273 322/97/273
f 325/69/274 296/70/274 320/100/274 321/99/274
f 286/101/275 262/102/275 295/102/275 319/101/275
f 268/103/276 269/104/276 302/104/276 301/103/276
f 267/105/277 286/101/277 319/101/277 300/105/277
f 260/84/278 264/87/278 297/87/278 293/84/278
f 269/104/279 270/106/279 303/106/279 302/104/279
f 263/107/280 287/108/280 320/108/280 296/107/280
f 280/78/281 265/81/281 298/81/281 313/78/281
f 261/109/282 271/110/282 304/110/282 294/109/282
f 287/108/283 266/111/283 299/111/283 320/108/283
f 271/110/284 272/112/284 305/112/284 304/110/284
f 281/113/285 267/105/285 300/105/285 314/113/285
f 270/106/286 260/114/286 293/114/286 303/106/286
f 272/112/287 273/115/287 306/115/287 305/112/287
f 265/81/288 261/91/288 294/91/288 298/81/288
f 264/87/289 280/78/289 313/78/289 297/87/289
f 273/115/290 263/107/290 296/107/290 306/115/290
f 266/111/291 281/113/291 314/113/291 299/111/291
f 262/102/292 268/103/292 301/103/292 295/102/292
f 345/68/293 358/69/293 329/70/293 339/71/293
f 334/72/294 328/73/294 357/74/294 342/75/294
f 350/76/295 356/77/295 358/69/295 345/68/295
f 346/78/296 348/79/296 343/80/296 331/81/296
f 348/79/297 349/82/297 344/83/297 343/80/297
f 349/82/298 350/76/298 345/68/298 344/83/298
f 326/84/299 336/85/299 340/86/299 330/87/299
f 336/85/300 335/88/300 341/89/300 340/86/300
f 335/88/301 334/72/301 342/75/301 341/89/301
f 331/81/302 343/80/302 337/90/302 327/91/302
f 343/80/303 344/83/303 338/92/303 337/90/303
f 344/83/304 345/68/304 339/71/304 338/92/304
f 341/89/305 342/75/305 350/76/305 349/82/305
f 340/86/306 341/89/306 349/82/306 348/79/306
f 330/87/307 340/86/307 348/79/307 346/78/307
f 342/75/308 357/74/308 356/77/308 350/76/308
f 378/68/309 372/71/309 362/70/309 391/69/309
f 352/93/310 333/94/310 351/95/310
f 351/95/311 333/94/311 347/96/311 355/97/311
f 355/97/312 347/96/312 332/98/312 354/99/312
f 354/99/313 332/98/313 353/100/313
f 328/73/314 352/93/314 351/95/314 357/74/314
f 357/74/315 351/95/315 355/97/315 356/77/315
f 356/77/316 355/97/316 354/99/316 358/69/316
f 358/69/317 354/99/317 353/100/317 329/70/317
f 367/72/318 375/75/318 390/74/318 361/73/318
f 383/76/319 378/68/319 391/69/319 389/77/319
f 379/78/320 364/81/320 376/80/320 381/79/320
f 381/79/321 376/80/321 377/83/321 382/82/321
f 382/82/322 377/83/322 378/68/322 383/76/322
f 359/84/323 363/87/323 373/86/323 369/85/323
f 369/85/324 373/86/324 374/89/324 368/88/324
f 368/88/325 374/89/325 375/75/325 367/72/325
f 364/81/326 360/91/326 370/90/326 376/80/326
f 376/80/327 370/90/327 371/92/327 377/83/327
f 377/83/328 371/92/328 372/71/328 378/68/328
f 374/89/329 382/82/329 383/76/329 375/75/329
f 373/86/330 381/79/330 382/82/330 374/89/330
f 363/87/331 379/78/331 381/79/331 373/86/331
f 375/75/332 383/76/332 389/77/332 390/74/332
f 385/93/333 384/95/333 366/94/333
f 384/95/334 388/97/334 380/96/334 366/94/334
f 388/97/335 387/99/335 365/98/335 380/96/335
f 387/99/336 386/100/336 365/98/336
f 361/73/337 390/74/337 384/95/337 385/93/337
f 390/74/338 389/77/338 388/97/338 384/95/338
f 389/77/339 391/69/339 387/99/339 388/97/339
f 391/69/340 362/70/340 386/100/340 387/99/340
f 352/101/341 328/102/341 361/102/341 385/101/341
f 334/103/342 335/104/342 368/104/342 367/103/342
f 333/105/343 352/101/343 385/101/343 366/105/343
f 326/84/344 330/87/344 363/87/344 359/84/344
f 335/104/345 336/106/345 369/106/345 368/104/345
f 329/107/346 353/108/346 386/108/346 362/107/346
f 346/78/347 331/81/347 364/81/347 379/78/347
f 327/109/348 337/110/348 370/110/348 360/109/348
f 353/108/349 332/111/349 365/111/349 386/108/349
f 337/110/350 338/112/350 371/112/350 370/110/350
f 347/113/351 333/105/351 366/105/351 380/113/351
f 336/106/352 326/114/352 359/114/352 369/106/352
f 338/112/353 339/115/353 372/115/353 371/112/353
f 331/81/354 327/91/354 360/91/354 364/81/354
f 330/87/355 346/78/355 379/78/355 363/87/355
f 339/115/356 329/107/356 362/107/356 372/115/356
f 332/111/357 347/113/357 380/113/357 365/111/357
f 328/102/358 334/103/358 367/103/358 361/102/358
f 411/68/359 424/69/359 395/70/359 405/71/359
f 400/72/360 394/73/360 423/74/360 408/75/360
f 416/76/361 422/77/361 424/69/361 411/68/361
f 412/78/362 414/79/362 409/80/362 397/81/362
f 414/79/363 415/82/363 410/83/363 409/80/363
f 415/82/364 416/76/364 411/68/364 410/83/364
f 392/84/365 402/85/365 406/86/365 396/87/365
f 402/85/366 401/88/366 407/89/366 406/86/366
f 401/88/367 400/72/367 408/75/367 407/89/367
f 397/81/368 409/80/368 403/90/368 393/91/368
f 409/80/369 410/83/369 404/92/369 403/90/369
f 410/83/370 411/68/370 405/71/370 404/92/370
f 407/89/371 408/75/371 416/76/371 415/82/371
f 406/86/372 407/89/372 415/82/372 414/79/372
f 396/87/373 406/86/373 414/79/373 412/78/373
f 408/75/374 423/74/374 422/77/374 416/76/374
f 444/68/375 438/71/375 428/70/375 457/69/375
f 418/93/376 399/94/376 417/95/376
f 417/95/377 399/94/377 413/96/377 421/97/377
f 421/97/378 413/96/378 398/98/378 420/99/378
f 420/99/379 398/98/379 419/100/379
f 394/73/380 418/93/380 417/95/380 423/74/380
f 423/74/381 417/95/381 421/97/381 422/77/381
f 422/77/382 421/97/382 420/99/382 424/69/382
f 424/69/383 420/99/383 419/100/383 395/70/383
f 433/72/384 441/75/384 456/74/384 427/73/384
f 449/76/385 444/68/385 457/69/385 455/77/385
f 445/78/386 430/81/386 442/80/386 447/79/386
f 447/79/387 442/80/387 443/83/387 448/82/387
f 448/82/388 443/83/388 444/68/388 449/76/388
f 425/84/389 429/87/389 439/86/389 435/85/389
f 435/85/390 439/86/390 440/89/390 434/88/390
f 434/88/391 440/89/391 441/75/391 433/72/391
f 430/81/392 426/91/392 436/90/392 442/80/392
f 442/80/393 436/90/393 437/92/393 443/83/393
f 443/83/394 437/92/394 438/71/394 444/68/394
f 440/89/395 448/82/395 449/76/395 441/75/395
f 439/86/396 447/79/396 448/82/396 440/89/396
f 429/87/397 445/78/397 447/79/397 439/86/397
f 441/75/398 449/76/398 455/77/398 456/74/398
f 451/93/399 450/95/399 432/94/399
f 450/95/400 454/97/400 446/96/400 432/94/400
f 454/97/401 453/99/401 431/98/401 446/96/401
f 453/99/402 452/100/402 431/98/402
f 427/73/403 456/74/403 450/95/403 451/93/403
f 456/74/404 455/77/404 454/97/404 450/95/404
f 455/77/405 457/69/405 453/99/405 454/97/405
f 457/69/406 428/70/406 452/100/406 453/99/406
f 418/101/407 394/102/407 427/102/407 451/101/407
f 400/103/408 401/104/408 434/104/408 433/103/408
f 399/105/409 418/101/409 451/101/409 432/105/409
f 392/84/410 396/87/410 429/87/410 425/84/410
f 401/104/411 402/106/411 435/106/411 434/104/411
f 395/107/412 419/108/412 452/108/412 428/107/412
f 412/78/413 397/81/413 430/81/413 445/78/413
f 393/109/414 403/110/414 436/110/414 426/109/414
f 419/108/415 398/111/415 431/111/415 452/108/415
f 403/110/416 404/112/416 437/112/416 436/110/416
f 413/113/417 399/105/417 432/105/417 446/113/417
f 402/106/418 392/114/418 425/114/418 435/106/418
f 404/112/419 405/115/419 438/115/419 437/112/419
f 397/81/420 393/91/420 426/91/420 430/81/420
f 396/87/421 412/78/421 445/78/421 429/87/421
f 405/115/422 395/107/422 428/107/422 438/115/422
f 398/111/423 413/113/423 446/113/423 431/111/423
f 394/102/424 400/103/424 433/103/424 427/102/424
f 477/68/425 490/69/425 461/70/425 471/71/425
f 466/72/426 460/73/426 489/74/426 474/75/426
f 482/76/427 488/77/427 490/69/427 477/68/427
f 478/78/428 480/79/428 475/80/428 463/81/428
f 480/79/429 481/82/429 476/83/429 475/80/429
f 481/82/430 482/76/430 477/68/430 476/83/430
f 458/84/431 468/85/431 472/86/431 462/87/431
f 468/85/432 467/88/432 473/89/432 472/86/432
f 467/88/433 466/72/433 474/75/433 473/89/433
f 463/81/434 475/80/434 469/90/434 459/91/434
f 475/80/435 476/83/435 470/92/435 469/90/435
f 476/83/436 477/68/436 471/71/436 470/92/436
f 473/89/437 474/75/437 482/76/437 481/82/437
f 472/86/438 473/89/438 481/82/438 480/79/438
f 462/87/439 472/86/439 480/79/439 478/78/439
f 474/75/440 489/74/440 488/77/440 482/76/440
f 510/68/441 504/71/441 494/70/441 523/69/441
f 484/93/442 465/94/442 483/95/442
f 483/95/443 465/94/443 479/96/443 487/97/443
f 487/97/444 479/96/444 464/98/444 486/99/444
f 486/99/445 464/98/445 485/100/445
f 460/73/446 484/93/446 483/95/446 489/74/446
f 489/74/447 483/95/447 487/97/447 488/77/447
f 488/77/448 487/97/448 486/99/448 490/69/448
f 490/69/449 486/99/449 485/100/449 461/70/449
f 499/72/450 507/75/450 522/74/450 493/73/450
f 515/76/451 510/68/451 523/69/451 521/77/451
f 511/78/452 496/81/452 508/80/452 513/79/452
f 513/79/453 508/80/453 509/83/453 514/82/453
f 514/82/454 509/83/454 510/68/454 515/76/454
f 491/84/455 495/87/455 505/86/455 501/85/455
f 501/85/456 505/86/456 506/89/456 500/88/456
f 500/88/457 506/89/457 507/75/457 499/72/457
f 496/81/458 492/91/458 502/90/458 508/80/458
f 508/80/459 502/90/459 503/92/459 509/83/459
f 509/83/460 503/92/460 504/71/460 510/68/460
f 506/89/461 514/82/461 515/76/461 507/75/461
f 505/86/462 513/79/462 514/82/462 506/89/462
f 495/87/463 511/78/463 513/79/463 505/86/463
f 507/75/464 515/76/464 521/77/464 522/74/464
f 517/93/465 516/95/465 498/94/465
f 516/95/466 520/97/466 512/96/466 498/94/466
f 520/97/467 519/99/467 497/98/467 512/96/467
f 519/99/468 518/100/468 497/98/468
f 493/73/469 522/74/469 516/95/469 517/93/469
f 522/74/470 521/77/470 520/97/470 516/95/470
f 521/77/471 523/69/471 519/99/471 520/97/471
f 523/69/472 494/70/472 518/100/472 519/99/472
f 484/101/473 460/102/473 493/102/473 517/101/473
f 466/103/474 467/104/474 500/104/474 499/103/474
f 465/105/475 484/101/475 517/101/475 498/105/475
f 458/84/476 462/87/476 495/87/476 491/84/476
f 467/104/477 468/106/477 501/106/477 500/104/477
f 461/107/478 485/108/478 518/108/478 494/107/478
f 478/78/479 463/81/479 496/81/479 511/78/479
f 459/109/480 469/110/480 502/110/480 492/109/480
f 485/108/481 464/111/481 497/111/481 518/108/481
f 469/110/482 470/112/482 503/112/482 502/110/482
f 479/113/483 465/105/483 498/105/483 512/113/483
f 468/106/484 458/114/484 491/114/484 501/106/484
f 470/112/485 471/115/485 504/115/485 503/112/485
f 463/81/486 459/91/486 492/91/486 496/81/486
f 462/87/487 478/78/487 511/78/487 495/87/487
f 471/115/488 461/107/488 494/107/488 504/115/488
f 464/111/489 479/113/489 512/113/489 497/111/489
f 460/102/490 466/103/490 499/103/490 493/102/490
f 543/68/491 556/69/491 527/70/491 537/71/491
f 532/72/492 526/73/492 555/74/492 540/75/492
f 548/76/493 554/77/493 556/69/493 543/68/493
f 544/78/494 546/79/494 541/80/494 529/81/494
f 546/79/495 547/82/495 542/83/495 541/80/495
f 547/82/496 548/76/496 543/68/496 542/83/496
f 524/84/497 534/85/497 538/86/497 528/87/497
f 534/85/498 533/88/498 539/89/498 538/86/498
f 533/88/499 532/72/499 540/75/499 539/89/499
f 529/81/500 541/80/500 535/90/500 525/91/500
f 541/80/501 542/83/501 536/92/501 535/90/501
f 542/83/502 543/68/502 537/71/502 536/92/502
f 539/89/503 540/75/503 548/76/503 547/82/503
f 538/86/504 539/89/504 547/82/504 546/79/504
f 528/87/505 538/86/505 546/79/505 544/78/505
f 540/75/506 555/74/506 554/77/506 548/76/506
f 576/68/507 570/71/507 560/70/507 589/69/507
f 550/93/508 531/94/508 549/95/508
f 549/95/509 531/94/509 545/96/509 553/97/509
f 553/97/510 545/96/510 530/98/510 552/99/510
f 552/99/511 530/98/511 551/100/511
f 526/73/512 550/93/512 549/95/512 555/74/512
f 555/74/513 549/95/513 553/97/513 554/77/513
f 554/77/514 553/97/514 552/99/514 556/69/514
f 556/69/515 552/99/515 551/100/515 527/70/515
f 565/72/516 573/75/516 588/74/516 559/73/516
f 581/76/517 576/68/517 589/69/517 587/77/517
f 577/78/518 562/81/518 574/80/518 579/79/518
f 579/79/519 574/80/519 575/83/519 580/82/519
f 580/82/520 575/83/520 576/68/520 581/76/520
f 557/84/521 561/87/521 571/86/521 567/85/521
f 567/85/522 571/86/522 572/89/522 566/88/522
f 566/88/523 572/89/523 573/75/523 565/72/523
f 562/81/524 558/91/524 568/90/524 574/80/524
f 574/80/525 568/90/525 569/92/525 575/83/525
f 575/83/526 569/92/526 570/71/526 576/68/526
f 572/89/527 580/82/527 581/76/527 573/75/527
f 571/86/528 579/79/528 580/82/528 572/89/528
f 561/87/529 577/78/529 579/79/529 571/86/529
f 573/75/530 581/76/530 587/77/530 588/74/530
f 583/93/531 582/95/531 564/94/531
f 582/95/532 586/97/532 578/96/532 564/94/532
f 586/97/533 585/99/533 563/98/533 578/96/533
f 585/99/534 584/100/534 563/98/534
f 559/73/535 588/74/535 582/95/535 583/93/535
f 588/74/536 587/77/536 586/97/536 582/95/536
f 587/77/537 589/69/537 585/99/537 586/97/537
f 589/69/538 560/70/538 584/100/538 585/99/538
f 550/101/539 526/102/539 559/102/539 583/101/539
f 532/103/540 533/104/540 566/104/540 565/103/540
f 531/105/541 550/101/541 583/101/541 564/105/541
f 524/84/542 528/87/542 561/87/542 557/84/542
f 533/104/543 534/106/543 567/106/543 566/104/543
f 527/107/544 551/108/544 584/108/544 560/107/544
f 544/78/545 529/81/545 562/81/545 577/78/545
f 525/109/546 535/110/546 568/110/546 558/109/546
f 551/108/547 530/111/547 563/111/547 584/108/547
f 535/110/548 536/112/548 569/112/548 568/110/548
f 545/113/549 531/105/549 564/105/549 578/113/549
f 534/106/550 524/114/550 557/114/550 567/106/550
f 536/112/551 537/115/551 570/115/551 569/112/551
f 529/81/552 525/91/552 558/91/552 562/81/552
f 528/87/553 544/78/553 577/78/553 561/87/553
f 537/115/554 527/107/554 560/107/554 570/115/554
f 530/111/555 545/113/555 578/113/555 563/111/555
f 526/102/556 532/103/556 565/103/556 559/102/556
