# Blender 5.1.0
# www.blender.org
mtllib smallpruce.mtl
o small_pruce
v -0.509062 0.107131 -0.851177
v -0.388624 3.125054 -0.212488
v 0.348094 0.038862 -0.651756
v 0.091661 3.120971 -0.096912
v 0.417044 -0.072210 0.221200
v 0.131016 3.042935 0.389311
v -0.397504 -0.072588 0.561301
v -0.324952 2.998789 0.574240
v -0.969866 0.038250 -0.101471
v -0.646104 3.049541 0.202304
v -0.269114 1.086588 -0.526413
v -0.218211 2.142551 -0.487316
v 0.320304 2.137973 -0.357726
v 0.326930 1.039116 -0.387739
v 0.364432 2.050476 0.187443
v 0.374875 0.961879 0.219293
v -0.146815 2.000978 0.394789
v -0.191543 0.961616 0.455792
v -0.506908 2.057883 -0.022237
v -0.589547 1.038690 -0.005082
v -0.536063 9.154530 -0.032006
v -0.293938 9.941462 0.032441
v 0.030792 9.183843 -0.409838
v 0.036881 9.958567 -0.188066
v 0.581285 9.184752 0.082504
v 0.358155 9.959097 0.099262
v 0.354661 9.156000 0.764612
v 0.225892 9.942319 0.497346
v -0.335899 9.137323 0.693844
v -0.177122 9.931417 0.456046
v -0.093448 10.373215 0.054366
v 0.034812 10.379847 -0.031126
v 0.159370 10.380053 0.080271
v 0.108092 10.373547 0.234608
v -0.048159 10.369321 0.218597
v -0.019579 11.021915 -0.095215
v 0.750320 7.778857 1.295362
v 1.216008 7.837936 -0.106277
v 0.084818 7.836069 -1.117954
v -1.079980 7.775837 -0.341563
v -0.668680 7.740478 1.149948
v 3.530973 6.561309 1.731857
v 2.122927 6.156179 -2.533667
v -1.950653 6.540946 -2.875320
v -3.747269 6.419282 0.733081
v -0.104835 6.147769 3.484262
v -2.070870 6.294141 1.066694
v -2.384848 6.321133 -0.071894
v 0.669146 6.172649 2.549083
v -0.690644 6.135871 2.409735
v 2.585308 6.414095 0.493208
v 2.117846 6.354791 1.900192
v -1.740722 6.650635 -1.314520
v -0.621644 6.708503 -2.060436
v 0.974058 6.207460 -2.179276
v 2.018172 6.209183 -1.245477
v -0.298360 7.735209 -0.453460
v 0.469331 7.752596 -0.269423
v 0.532236 7.729271 0.517362
v -0.196578 7.697469 0.819578
v -0.709923 7.701141 0.219587
v -0.373713 6.370444 1.683838
v 1.366162 6.446362 0.962356
v 1.215994 6.502045 -0.915896
v -0.616690 6.460543 -1.355232
v -1.599185 6.379209 0.251493
v 1.350446 5.139239 3.474152
v 3.440715 4.860609 -0.178797
v 1.006796 5.381145 -4.086730
v -2.849466 5.265832 -2.112045
v -2.518476 4.845590 2.067832
v -2.341380 5.061708 -0.725712
v -1.570567 5.125518 -1.986264
v -1.287146 4.857803 2.011024
v -2.172325 4.864133 0.976418
v 1.623351 5.054132 2.093738
v 0.268777 4.995028 2.655450
v -0.006858 5.166517 -2.798861
v 1.358763 5.197442 -2.471492
v 2.334876 4.938097 -0.774120
v 2.442376 4.898233 0.570492
v -1.103622 6.141118 -0.476379
v 0.045130 6.240335 -1.047484
v 0.941375 6.316325 -0.127375
v 0.346531 6.264075 1.012393
v -0.917340 6.155790 0.796685
v 0.898517 4.670880 1.845896
v 1.999882 4.767623 -0.264406
v 0.340467 4.626924 -1.968021
v -1.786480 4.443223 -0.910600
v -1.441582 4.470389 1.446529
v 4.137725 3.394810 2.255829
v 3.262810 2.743201 -2.962049
v -2.290956 2.862689 -4.813845
v -4.436035 2.755664 0.224887
v -0.715282 2.798474 4.249071
v -2.808667 2.672540 1.170086
v -3.079247 2.651227 -0.679194
v 0.589664 2.877406 3.224805
v -1.414327 2.705709 2.882790
v 3.303269 3.150338 0.700823
v 2.445807 3.075019 2.343791
v -2.218345 2.686087 -2.733593
v -0.633461 2.822971 -3.521523
v 1.703589 2.725523 -2.649904
v 2.891545 2.826248 -1.430315
v -0.619199 5.225500 -1.050761
v 0.644311 5.302480 -0.820004
v 0.813821 5.345053 0.454786
v -0.344929 5.294383 1.011893
v -1.230582 5.220495 0.081414
v -0.421573 3.678098 1.970764
v 1.723879 3.771915 0.939271
v 1.410029 3.693092 -1.421038
v -0.929397 3.550561 -1.848286
v -2.061388 3.541294 0.247962
v 1.913255 2.316153 4.202928
v 4.321989 1.748228 -0.518487
v 0.978336 2.029272 -5.317312
v -3.754198 1.916990 -2.561924
v -3.049479 1.718608 2.713208
v -3.015688 1.781807 -0.834215
v -2.127585 1.789077 -2.478818
v -1.390181 1.776713 2.673499
v -2.794472 1.659557 1.198135
v 2.170524 2.111082 2.451967
v 0.500197 2.038041 3.255029
v -0.209124 1.826429 -3.610645
v 1.534092 1.932636 -3.292281
v 2.885288 1.766135 -1.200014
v 3.109970 1.822562 0.489692
v 2.651576 3.958981 0.218207
v 1.672158 3.872950 2.094848
v 1.022028 3.676224 -2.308961
v 2.445713 3.796936 -0.847359
v -2.002413 3.564655 -1.822096
v -0.146499 3.724948 -2.744771
v -2.125122 3.571464 1.308303
v -2.432861 3.547224 -0.794902
v 0.744095 3.722787 2.428211
v -1.427954 3.536694 2.057523
vn 0.2257 0.2985 -0.9273
vn 0.9708 0.2366 -0.0406
vn 0.3821 -0.0971 0.9190
vn -0.8529 0.0604 -0.5186
vn -0.7502 -0.2444 0.6144
vn -0.8496 0.0002 -0.5274
vn -0.8111 0.3533 -0.4661
vn -0.7221 0.2110 0.6589
vn -0.7495 0.0714 0.6581
vn 0.3852 0.0174 0.9227
vn 0.3792 0.0342 0.9247
vn 0.9965 0.0405 -0.0736
vn 0.9969 0.0077 -0.0786
vn 0.2383 0.2526 -0.9378
vn 0.2312 0.0264 -0.9726
vn -0.5476 0.2343 -0.8033
vn 0.6525 0.2038 -0.7299
vn 0.9139 0.2566 0.3145
vn -0.5410 0.2913 -0.7890
vn -0.1052 0.3045 0.9467
vn -0.9282 0.2641 0.2622
vn 0.6415 0.2706 -0.7178
vn -0.8824 0.3969 0.2527
vn -0.1017 0.4972 0.8617
vn 0.8566 0.4182 0.3022
vn 0.8905 0.3330 0.3099
vn -0.1034 0.4347 0.8946
vn -0.9491 0.1693 0.2657
vn -0.5454 -0.1289 -0.8282
vn 0.6665 -0.0179 -0.7453
vn -0.9167 0.3033 0.2600
vn -0.1050 0.3312 0.9377
vn 0.8768 0.3702 0.3069
vn 0.6146 0.3861 -0.6879
vn -0.5268 0.3787 -0.7610
vn -0.1454 0.9894 -0.0066
vn 0.0327 0.9987 -0.0384
vn -0.0899 0.9943 -0.0578
vn 0.0738 0.9973 0.0033
vn -0.0274 0.9996 0.0039
vn -0.7078 0.6741 0.2112
vn -0.0968 0.6154 0.7822
vn 0.6453 0.7236 0.2449
vn -0.4090 0.7223 -0.5576
vn 0.5074 0.6475 -0.5685
vn -0.7520 0.4954 -0.4348
vn -0.6711 0.4654 0.5771
vn 0.3161 0.4878 0.8137
vn 0.8454 0.5316 -0.0518
vn 0.1853 0.5363 -0.8235
vn -0.0749 0.9943 -0.0761
vn 0.0564 0.9981 0.0251
vn -0.0522 0.9909 0.1241
vn 0.0977 0.9891 0.1098
vn -0.0093 0.9999 0.0140
vn -0.6628 0.6496 -0.3724
vn -0.6503 0.5138 0.5596
vn 0.2715 0.6367 0.7217
vn 0.1336 0.7653 -0.6296
vn 0.8144 0.5783 -0.0480
vn -0.9309 0.3406 0.1323
vn -0.1874 0.4036 0.8955
vn 0.7655 0.4859 0.4218
vn 0.6110 0.4737 -0.6343
vn -0.4374 0.3839 -0.8132
vn -0.1881 0.9807 -0.0532
vn -0.0233 0.9979 -0.0597
vn -0.0432 0.9954 0.0860
vn 0.0630 0.9978 -0.0207
vn -0.0809 0.9964 -0.0263
vn -0.7993 0.5908 0.1101
vn -0.1787 0.6918 0.6996
vn 0.6143 0.7057 0.3530
vn -0.3606 0.7128 -0.6016
vn 0.5471 0.6011 -0.5825
vn -0.8208 0.3623 -0.4416
vn -0.6802 0.3976 0.6158
vn 0.3679 0.4615 0.8073
vn 0.8751 0.4656 -0.1319
vn 0.1404 0.4043 -0.9038
vn -0.1061 0.9857 -0.1310
vn 0.0302 0.9988 -0.0374
vn -0.0730 0.9950 0.0675
vn 0.0760 0.9961 0.0454
vn -0.0360 0.9983 -0.0450
vn -0.6988 0.6094 -0.3746
vn -0.6345 0.5309 0.5618
vn 0.2908 0.6858 0.6671
vn 0.0798 0.7287 -0.6802
vn 0.7946 0.5940 -0.1255
vn -0.1864 0.5361 0.8233
vt 0.571871 0.282546
vt 0.573933 0.340778
vt 0.563551 0.340778
vt 0.560230 0.282546
vt 0.567517 0.340778
vt 0.564677 0.282546
vt 0.580350 0.340778
vt 0.579065 0.282546
vt 0.582355 0.620859
vt 0.583512 0.282546
vt 0.569455 0.620859
vt 0.584315 0.340778
vt 0.592484 0.760900
vt 0.573933 0.760900
vt 0.585398 0.760900
vt 0.577428 0.620859
vt 0.562468 0.760900
vt 0.561483 0.620859
vt 0.555382 0.760900
vt 0.556556 0.620859
vt 0.040530 0.969298
vt 0.046480 0.835970
vt 0.048690 0.835970
vt 0.053863 0.969298
vt 0.047846 0.835970
vt 0.048770 0.969298
vt 0.045115 0.835970
vt 0.032290 0.969298
vt 0.044622 0.872019
vt 0.045924 0.872019
vt 0.044271 0.835970
vt 0.027197 0.969298
vt 0.045426 0.872019
vt 0.043320 0.872019
vt 0.043817 0.872019
vt 0.043834 0.896190
vt 0.045819 0.775591
vt 0.021639 0.775591
vt 0.030875 0.775591
vt 0.060763 0.775591
vt 0.070000 0.775591
vt 0.073911 0.546272
vt 0.063892 0.546272
vt 0.055372 0.904468
vt 0.079290 0.904468
vt 0.070085 0.546272
vt 0.083487 0.862488
vt 0.074352 0.862488
vt 0.057700 0.546272
vt 0.070154 0.904468
vt 0.040590 0.904468
vt 0.053874 0.546272
vt 0.044788 0.862488
vt 0.035652 0.862488
vt 0.031454 0.904468
vt 0.053058 0.628698
vt 0.076075 0.628698
vt 0.057006 0.624428
vt 0.025617 0.635818
vt 0.032157 0.635818
vt 0.011260 0.638670
vt 0.047217 0.628545
vt 0.029395 0.628545
vt 0.030541 0.624123
vt 0.093520 0.627537
vt 0.074756 0.627537
vt 0.099230 0.622107
vt 0.094204 0.632131
vt 0.102027 0.632131
vt 0.109733 0.631295
vt 0.057168 0.631571
vt 0.053653 0.633326
vt 0.057645 0.804162
vt 0.064152 0.800914
vt 0.049214 0.586887
vt 0.061366 0.589592
vt 0.070303 0.647606
vt 0.047804 0.642598
vt 0.032942 0.591167
vt 0.043966 0.591085
vt 0.042556 0.646796
vt 0.022144 0.646949
vt 0.043528 0.589725
vt 0.038189 0.586970
vt 0.027391 0.642751
vt 0.037276 0.647853
vt 0.039330 0.631705
vt 0.031124 0.801161
vt 0.011611 0.815490
vt 0.027502 0.815371
vt 0.003861 0.806065
vt 0.019216 0.828314
vt 0.012140 0.824662
vt 0.003939 0.830810
vt 0.055096 0.867590
vt 0.035334 0.865354
vt 0.053376 0.864381
vt 0.077868 0.863031
vt 0.072763 0.865579
vt 0.092414 0.858511
vt 0.054863 0.819007
vt 0.074131 0.823296
vt 0.064706 0.817451
vt 0.071427 0.942760
vt 0.065621 0.945658
vt 0.050773 0.897254
vt 0.071657 0.901902
vt 0.016317 0.897671
vt 0.034469 0.897534
vt 0.056787 0.946663
vt 0.033646 0.944045
vt 0.027686 0.904535
vt 0.019205 0.900158
vt 0.064510 0.513791
vt 0.058451 0.513127
vt 0.061525 0.735435
vt 0.072744 0.736665
vt 0.055732 0.503985
vt 0.056492 0.718507
vt 0.044248 0.497259
vt 0.035229 0.706056
vt 0.045928 0.502910
vt 0.038339 0.716518
vt 0.030802 0.926491
vt 0.047356 0.936186
vt 0.033352 0.899273
vt 0.023718 0.972275
vt 0.021491 0.964786
vt 0.009479 0.974651
vt 0.054386 0.964272
vt 0.037110 0.950176
vt 0.042618 0.937350
vt 0.082202 0.970195
vt 0.073400 0.969230
vt 0.089521 0.952252
vt 0.066092 0.970871
vt 0.080009 0.986420
vt 0.082537 0.978583
s 0
usemtl Material.001
f 12/1/1 2/2/1 4/3/1 13/4/1
f 13/4/2 4/3/2 6/5/2 15/6/2
f 15/6/3 6/5/3 8/7/3 17/8/3
f 20/9/4 19/10/4 12/1/4 11/11/4
f 17/8/5 8/7/5 10/12/5 19/10/5
f 19/10/6 10/12/6 2/2/6 12/1/6
f 9/13/7 20/9/7 11/11/7 1/14/7
f 7/15/8 18/16/8 20/9/8 9/13/8
f 18/16/9 17/8/9 19/10/9 20/9/9
f 5/17/10 16/18/10 18/16/10 7/15/10
f 16/18/11 15/6/11 17/8/11 18/16/11
f 3/19/12 14/20/12 16/18/12 5/17/12
f 14/20/13 13/4/13 15/6/13 16/18/13
f 1/14/14 11/11/14 14/20/14 3/19/14
f 11/11/15 12/1/15 13/4/15 14/20/15
f 21/21/16 22/22/16 24/23/16 23/24/16
f 23/24/17 24/23/17 26/25/17 25/26/17
f 25/26/18 26/25/18 28/27/18 27/28/18
f 24/23/19 22/22/19 31/29/19 32/30/19
f 27/28/20 28/27/20 30/31/20 29/32/20
f 29/32/21 30/31/21 22/22/21 21/21/21
f 26/25/22 24/23/22 32/30/22 33/33/22
f 22/22/23 30/31/23 35/34/23 31/29/23
f 30/31/24 28/27/24 34/35/24 35/34/24
f 28/27/25 26/25/25 33/33/25 34/35/25
f 34/35/26 33/33/26 36/36/26
f 35/34/27 34/35/27 36/36/27
f 31/29/28 35/34/28 36/36/28
f 32/30/29 31/29/29 36/36/29
f 33/33/30 32/30/30 36/36/30
f 29/32/31 21/21/31 40/37/31 41/38/31
f 27/28/32 29/32/32 41/38/32 37/39/32
f 25/26/33 27/28/33 37/39/33 38/40/33
f 23/24/34 25/26/34 38/40/34 39/41/34
f 21/21/35 23/24/35 39/41/35 40/37/35
f 51/40/36 52/39/36 42/40/36
f 55/41/37 56/40/37 43/41/37
f 53/37/38 54/41/38 44/37/38
f 47/38/39 48/37/39 45/38/39
f 49/39/40 50/38/40 46/39/40
f 41/38/41 40/37/41 48/37/41 47/38/41
f 37/39/42 41/38/42 50/38/42 49/39/42
f 38/40/43 37/39/43 52/39/43 51/40/43
f 40/37/44 39/41/44 54/41/44 53/37/44
f 39/41/45 38/40/45 56/40/45 55/41/45
f 61/42/46 57/43/46 65/44/46 66/45/46
f 60/46/47 61/42/47 66/47/47 62/48/47
f 59/49/48 60/46/48 62/50/48 63/51/48
f 58/52/49 59/49/49 63/53/49 64/54/49
f 57/43/50 58/52/50 64/55/50 65/44/50
f 76/56/51 77/57/51 67/58/51
f 80/59/52 81/60/52 68/61/52
f 78/62/53 79/63/53 69/64/53
f 72/65/54 73/66/54 70/67/54
f 74/68/55 75/69/55 71/70/55
f 66/45/56 65/44/56 73/66/56 72/65/56
f 62/48/57 66/47/57 75/69/57 74/68/57
f 63/51/58 62/50/58 77/57/58 76/56/58
f 65/44/59 64/55/59 79/63/59 78/62/59
f 64/54/60 63/53/60 81/60/60 80/59/60
f 86/71/61 82/72/61 90/73/61 91/74/61
f 85/75/62 86/76/62 91/77/62 87/78/62
f 84/79/63 85/80/63 87/81/63 88/82/63
f 83/83/64 84/84/64 88/85/64 89/86/64
f 82/72/65 83/87/65 89/88/65 90/73/65
f 101/89/66 102/90/66 92/91/66
f 105/92/67 106/93/67 93/94/67
f 103/95/68 104/96/68 94/97/68
f 97/98/69 98/99/69 95/100/69
f 99/101/70 100/102/70 96/103/70
f 138/104/71 139/105/71 98/99/71 97/98/71
f 140/106/72 141/107/72 100/102/72 99/101/72
f 132/108/73 133/109/73 102/90/73 101/89/73
f 136/110/74 137/111/74 104/96/74 103/95/74
f 134/112/75 135/113/75 106/93/75 105/92/75
f 111/114/76 107/115/76 115/116/76 116/117/76
f 110/118/77 111/114/77 116/117/77 112/119/77
f 109/120/78 110/118/78 112/119/78 113/121/78
f 108/122/79 109/120/79 113/121/79 114/123/79
f 107/115/80 108/122/80 114/123/80 115/116/80
f 126/124/81 127/125/81 117/126/81
f 130/127/82 131/128/82 118/129/82
f 128/130/83 129/131/83 119/132/83
f 122/133/84 123/134/84 120/135/84
f 124/136/85 125/137/85 121/138/85
f 116/117/86 115/116/86 123/134/86 122/133/86
f 112/119/87 116/117/87 125/137/87 124/136/87
f 113/121/88 112/119/88 127/125/88 126/124/88
f 115/116/89 114/123/89 129/131/89 128/130/89
f 114/123/90 113/121/90 131/128/90 130/127/90
f 88/82/73 87/81/73 133/109/73 132/108/73
f 89/86/75 88/85/75 135/113/75 134/112/75
f 90/73/74 89/88/74 137/111/74 136/110/74
f 91/74/71 90/73/71 139/105/71 138/104/71
f 87/78/91 91/77/91 141/107/91 140/106/91
