# Blender 5.1.0
# www.blender.org
mtllib smallbirch.mtl
o small_birch
v -0.092414 0.000611 -0.867456
v -0.016627 2.716515 -0.371620
v 0.675701 -0.060566 -0.688750
v 0.509511 2.712042 -0.245010
v 0.737488 -0.160100 0.093524
v 0.552623 2.626556 0.287633
v 0.007555 -0.160439 0.398295
v 0.053123 2.578196 0.490218
v -0.505350 -0.061114 -0.195629
v -0.298689 2.633793 0.082773
v 0.086739 0.890734 -0.662323
v 0.145481 2.296641 -0.595528
v 0.695804 2.293609 -0.463096
v 0.728067 0.839656 -0.513114
v 0.740900 2.235657 0.094027
v 0.779654 0.756551 0.140038
v 0.218442 2.202874 0.305920
v 0.170203 0.756268 0.394504
v -0.149546 2.240563 -0.120251
v -0.258039 0.839197 -0.101385
v -0.220697 4.792116 -0.377528
v 0.312834 4.787580 -0.249138
v 0.356552 4.700893 0.290989
v -0.149967 4.651854 0.496420
v -0.506722 4.708232 0.083250
v 0.039040 8.574240 -0.239109
v 0.399346 8.571177 -0.152405
v 0.428870 8.512635 0.212355
v 0.086806 8.479517 0.351088
v -0.154120 8.517591 0.072064
v -0.059869 5.946162 -0.305083
v 0.152779 5.557667 -0.198511
v 0.107649 5.490899 0.249834
v -0.132894 5.838134 0.353620
v -0.236424 6.119500 0.077396
v 3.374025 7.532699 -0.096684
v 3.461446 7.372985 -0.052872
v 3.442893 7.345537 0.131446
v 3.344004 7.488287 0.201549
v 3.301442 7.603959 0.060555
v 1.588964 6.091333 0.373133
v 1.498592 6.336938 0.073761
v 1.838329 5.846512 -0.167079
v 1.798934 5.788230 0.224283
v 1.652708 6.185631 -0.260106
v 2.460048 6.574159 0.311462
v 2.661997 6.375890 -0.126030
v 2.386860 6.773063 0.069015
v 2.630093 6.328691 0.190916
v 2.511671 6.650526 -0.201368
v -0.200554 5.286746 0.294781
v -0.223678 5.000735 0.216323
v -0.323882 4.951580 -0.113750
v -0.146793 5.207216 -0.239290
v -0.070575 5.414358 0.013199
v -2.728599 6.454760 0.141358
v -2.792958 6.337178 0.109103
v -2.779300 6.316970 -0.026593
v -2.706497 6.422064 -0.078203
v -2.675163 6.507221 0.025597
v -1.414431 5.393621 -0.204524
v -1.347899 5.574437 0.015875
v -1.598014 5.213384 0.193183
v -1.569011 5.170476 -0.094940
v -1.461359 5.463043 0.261669
v -2.055726 5.749079 -0.159121
v -2.204401 5.603113 0.162962
v -2.001844 5.895513 0.019369
v -2.180913 5.568365 -0.070374
v -2.093731 5.805301 0.218426
v 0.411173 3.778472 -0.247074
v 0.454588 3.733066 0.289311
v -0.402706 3.736910 0.083012
v -0.118662 3.780848 -0.374574
v -0.048422 3.707378 0.493319
v 3.411563 7.539011 -0.032764
v 3.460574 7.449471 -0.008201
v 3.450172 7.434083 0.095133
v 3.394732 7.514113 0.134434
v 3.370871 7.578961 0.055390
v 0.105224 8.759724 -0.081568
v 0.268371 8.758337 -0.042308
v 0.281739 8.731829 0.122857
v 0.126852 8.716833 0.185676
v 0.017760 8.734073 0.059333
v 2.756871 7.834259 -2.148059
v 2.756871 8.837187 -1.771490
v 4.018494 7.834259 -1.738133
v 3.797152 8.837187 -1.433482
v 4.798220 7.834259 -0.664933
v 4.440081 8.837187 -0.548566
v 4.798220 7.834259 0.661616
v 4.440081 8.837187 0.545250
v 4.018494 7.834259 1.734817
v 3.797152 8.837187 1.430166
v 2.756871 7.834259 2.144743
v 2.756871 8.837187 1.768173
v 1.495248 7.834259 1.734817
v 1.716591 8.837187 1.430166
v 0.715523 7.834259 0.661616
v 1.073662 8.837187 0.545250
v 0.715523 7.834259 -0.664933
v 1.073662 8.837187 -0.548566
v 1.495249 7.834259 -1.738134
v 1.716591 8.837187 -1.433482
v 2.756871 9.300203 -1.314936
v 3.528797 9.300203 -1.064122
v 4.005872 9.300203 -0.407483
v 4.005873 9.300203 0.404167
v 3.528796 9.300203 1.060806
v 2.756871 9.300203 1.311620
v 1.984946 9.300203 1.060806
v 1.507870 9.300203 0.404167
v 1.507870 9.300203 -0.407483
v 1.984946 9.300203 -1.064122
v 2.756871 9.549520 -0.773649
v 3.210636 9.549520 -0.626211
v 3.491077 9.549520 -0.240216
v 3.491078 9.549520 0.236900
v 3.210636 9.549520 0.622895
v 2.756871 9.549520 0.770332
v 2.303107 9.549520 0.622895
v 2.022665 9.549520 0.236900
v 2.022665 9.549520 -0.240216
v 2.303107 9.549520 -0.626212
v 2.756871 7.264392 -1.776673
v 3.800199 7.264392 -1.437675
v 4.445011 7.264392 -0.550168
v 4.445011 7.264392 0.546852
v 3.800199 7.264392 1.434359
v 2.756871 7.264392 1.773357
v 1.713544 7.264392 1.434359
v 1.068731 7.264392 0.546852
v 1.068731 7.264392 -0.550168
v 1.713544 7.264392 -1.437676
v 2.756871 6.908225 -0.962548
v 3.321668 6.908225 -0.779034
v 3.670732 6.908225 -0.298590
v 3.670732 6.908225 0.295273
v 3.321668 6.908225 0.775718
v 2.756871 6.908225 0.959232
v 2.192074 6.908225 0.775718
v 1.843011 6.908225 0.295273
v 1.843011 6.908225 -0.298590
v 2.192075 6.908225 -0.779035
v 2.756871 6.872608 -0.535020
v 3.070374 6.872608 -0.433157
v 3.264129 6.872608 -0.166476
v 3.264129 6.872608 0.163160
v 3.070374 6.872608 0.429841
v 2.756871 6.872608 0.531704
v 2.443369 6.872608 0.429841
v 2.249614 6.872608 0.163160
v 2.249614 6.872608 -0.166476
v 2.443369 6.872608 -0.433158
v -2.882983 6.531856 -2.124250
v -2.882983 7.595538 -1.751858
v -1.635355 6.531856 -1.718871
v -1.854242 7.595538 -1.417599
v -0.864278 6.531856 -0.657575
v -1.218445 7.595538 -0.542499
v -0.864278 6.531856 0.654259
v -1.218445 7.595538 0.539184
v -1.635355 6.531856 1.715556
v -1.854242 7.595538 1.414284
v -2.882984 6.531856 2.120934
v -2.882984 7.595538 1.748542
v -4.130612 6.531856 1.715555
v -3.911725 7.595538 1.414283
v -4.901689 6.531856 0.654259
v -4.547523 7.595538 0.539183
v -4.901689 6.531856 -0.657575
v -4.547522 7.595538 -0.542500
v -4.130611 6.531856 -1.718872
v -3.911724 7.595538 -1.417600
v -2.882983 8.086603 -1.300368
v -2.119621 8.086603 -1.052336
v -1.647836 8.086603 -0.402981
v -1.647837 8.086603 0.399666
v -2.119621 8.086603 1.049021
v -2.882983 8.086603 1.297052
v -3.646346 8.086603 1.049021
v -4.118130 8.086603 0.399666
v -4.118131 8.086603 -0.402981
v -3.646346 8.086603 -1.052337
v -2.882983 8.351024 -0.765085
v -2.434252 8.351024 -0.619283
v -2.156921 8.351024 -0.237570
v -2.156921 8.351024 0.234254
v -2.434253 8.351024 0.615968
v -2.882983 8.351024 0.761769
v -3.331715 8.351024 0.615968
v -3.609046 8.351024 0.234254
v -3.609046 8.351024 -0.237570
v -3.331714 8.351024 -0.619284
v -2.882983 5.927468 -1.756984
v -1.851228 5.927468 -1.421746
v -1.213569 5.927468 -0.544083
v -1.213569 5.927468 0.540768
v -1.851229 5.927468 1.418431
v -2.882983 5.927468 1.753668
v -3.914738 5.927468 1.418430
v -4.552398 5.927468 0.540768
v -4.552398 5.927468 -0.544084
v -3.914738 5.927468 -1.421747
v -2.882983 5.549726 -0.951889
v -2.324451 5.549726 -0.770411
v -1.979260 5.549726 -0.295295
v -1.979260 5.549726 0.291980
v -2.324451 5.549726 0.767095
v -2.882983 5.549726 0.948574
v -3.441515 5.549726 0.767095
v -3.786707 5.549726 0.291980
v -3.786707 5.549726 -0.295296
v -3.441515 5.549726 -0.770412
v -2.882983 5.511951 -0.529104
v -2.572958 5.511951 -0.428371
v -2.381352 5.511951 -0.164648
v -2.381352 5.511951 0.161332
v -2.572958 5.511951 0.425055
v -2.882983 5.511951 0.525788
v -3.193008 5.511951 0.425055
v -3.384614 5.511951 0.161332
v -3.384614 5.511951 -0.164648
v -3.193008 5.511951 -0.428371
v -0.522817 7.443151 -2.333976
v -0.522817 8.687961 -1.924789
v 0.848085 7.443151 -1.888543
v 0.607571 8.687961 -1.557503
v 1.695349 7.443151 -0.722384
v 1.306189 8.687961 -0.595938
v 1.695349 7.443151 0.719068
v 1.306189 8.687961 0.592622
v 0.848085 7.443151 1.885227
v 0.607571 8.687961 1.554188
v -0.522817 7.443151 2.330660
v -0.522817 8.687961 1.921473
v -1.893719 7.443151 1.885226
v -1.653205 8.687961 1.554187
v -2.740983 7.443151 0.719068
v -2.351823 8.687961 0.592622
v -2.740983 7.443151 -0.722384
v -2.351823 8.687961 -0.595938
v -1.893718 7.443151 -1.888544
v -1.653204 8.687961 -1.557504
v -0.522817 9.262646 -1.428689
v 0.315971 9.262646 -1.156151
v 0.834370 9.262646 -0.442635
v 0.834370 9.262646 0.439319
v 0.315971 9.262646 1.152834
v -0.522817 9.262646 1.425373
v -1.361605 9.262646 1.152834
v -1.880004 9.262646 0.439319
v -1.880004 9.262646 -0.442635
v -1.361604 9.262646 -1.156151
v -0.522817 9.572092 -0.840517
v -0.029748 9.572092 -0.680309
v 0.274985 9.572092 -0.260880
v 0.274985 9.572092 0.257564
v -0.029748 9.572092 0.676993
v -0.522817 9.572092 0.837201
v -1.015885 9.572092 0.676993
v -1.320618 9.572092 0.257564
v -1.320619 9.572092 -0.260880
v -1.015885 9.572092 -0.680309
v -0.522817 6.735846 -1.930421
v 0.610882 6.735846 -1.562060
v 1.311547 6.735846 -0.597679
v 1.311546 6.735846 0.594363
v 0.610882 6.735846 1.558744
v -0.522817 6.735846 1.927106
v -1.656515 6.735846 1.558744
v -2.357180 6.735846 0.594363
v -2.357180 6.735846 -0.597679
v -1.656515 6.735846 -1.562061
v -0.522817 6.293780 -1.045778
v 0.090902 6.293780 -0.846369
v 0.470201 6.293780 -0.324309
v 0.470201 6.293780 0.320993
v 0.090902 6.293780 0.843053
v -0.522817 6.293780 1.042462
v -1.136535 6.293780 0.843053
v -1.515834 6.293780 0.320993
v -1.515834 6.293780 -0.324309
v -1.136535 6.293780 -0.846369
v -0.522817 6.249573 -0.581219
v -0.182159 6.249573 -0.470533
v 0.028379 6.249573 -0.180752
v 0.028379 6.249573 0.177436
v -0.182159 6.249573 0.467217
v -0.522817 6.249573 0.577903
v -0.863474 6.249573 0.467217
v -1.074012 6.249573 0.177436
v -1.074012 6.249573 -0.180752
v -0.863474 6.249573 -0.470533
v 0.092843 2.482635 -0.522823
v 0.635313 2.479646 -0.392282
v 0.679765 2.422521 0.156893
v 0.164761 2.390205 0.365763
v -0.197974 2.427357 -0.054327
v 0.527171 2.895830 0.288069
v -0.043118 2.985953 -0.372387
v 0.026760 2.847381 0.491023
v 0.483980 2.981472 -0.245546
v -0.325694 2.903081 0.082835
v 0.388481 3.904781 -0.247550
v -0.426708 3.863151 0.083067
v 0.431966 3.859301 0.289699
v -0.142207 3.907161 -0.375255
v -0.071853 3.833572 0.494035
v -0.133287 4.921502 0.486182
v -0.481883 4.976591 0.082462
v 0.318929 5.054124 -0.242324
v 0.361647 4.969419 0.285450
v -0.202399 5.058556 -0.367776
v 0.715329 0.620683 -0.555836
v 0.769398 0.533582 0.128723
v 0.130640 0.533285 0.395426
v -0.318196 0.620203 -0.124309
v 0.043161 0.674218 -0.712220
v -1.223513 5.558848 0.015615
v -1.447761 5.149160 -0.096771
v -1.338582 5.445876 0.264893
v -1.290988 5.375469 -0.207909
v -1.464181 5.192676 0.195436
v 1.367032 6.320450 0.074037
v 1.670690 5.765685 0.226221
v 1.522849 6.167472 -0.263516
v 1.458401 6.072134 0.371654
v 1.710519 5.824610 -0.169462
v 2.307610 6.734152 0.069438
v 2.555938 6.280471 0.193893
v 2.435035 6.609048 -0.206609
v 2.382331 6.531082 0.316964
v 2.588510 6.328660 -0.129692
vn 0.1918 0.5959 -0.7798
vn 0.8642 0.5032 -0.0036
vn 0.3770 -0.3330 0.8643
vn -0.8521 0.0596 -0.5199
vn -0.6168 -0.6379 0.4611
vn -0.8447 -0.0546 -0.5325
vn -0.8294 0.2785 -0.4842
vn -0.7389 0.1338 0.6604
vn -0.7509 0.0661 0.6571
vn 0.3845 -0.0644 0.9209
vn 0.3796 0.0413 0.9242
vn 0.9956 -0.0415 -0.0839
vn 0.9968 0.0242 -0.0768
vn 0.2362 0.1728 -0.9562
vn 0.2315 0.0376 -0.9721
vn 0.9938 0.0870 -0.0698
vn -0.8422 -0.0778 -0.5336
vn 0.2340 0.0183 -0.9721
vn 0.3736 0.0325 0.9270
vn -0.7586 -0.0731 0.6474
vn -0.7501 0.0714 0.6574
vn 0.9963 -0.0206 -0.0839
vn -0.8533 0.0775 -0.5156
vn 0.3748 0.0120 0.9270
vn 0.2341 0.0195 -0.9720
vn -0.5188 0.5775 0.6304
vn 0.7806 -0.6248 -0.0145
vn -0.5676 0.6192 -0.5426
vn 0.3375 -0.2162 0.9162
vn 0.2475 -0.1280 -0.9604
vn 0.0583 -0.2343 -0.9704
vn 0.0656 -0.3966 0.9156
vn -0.1118 0.8847 -0.4526
vn 0.1698 -0.9771 -0.1284
vn -0.1051 0.7503 0.6527
vn 0.1624 -0.1774 -0.9707
vn 0.2298 -0.2961 0.9271
vn -0.3783 0.7649 -0.5213
vn 0.5418 -0.8376 -0.0702
vn -0.3297 0.6787 0.6563
vn 0.5188 0.5775 -0.6304
vn -0.7806 -0.6248 0.0145
vn 0.5676 0.6192 0.5426
vn -0.3375 -0.2162 -0.9162
vn -0.2475 -0.1280 0.9604
vn -0.0557 -0.2370 0.9699
vn -0.0828 -0.3925 -0.9160
vn 0.1118 0.8847 0.4526
vn -0.1613 -0.9779 0.1330
vn 0.0934 0.7557 -0.6482
vn -0.1624 -0.1774 0.9707
vn -0.2298 -0.2961 -0.9271
vn 0.3783 0.7649 0.5213
vn -0.5418 -0.8376 0.0702
vn 0.3297 0.6787 -0.6563
vn -0.7586 -0.0691 0.6478
vn 0.3737 0.0306 0.9270
vn 0.2340 0.0195 -0.9720
vn -0.8419 -0.0795 -0.5337
vn 0.9937 0.0884 -0.0696
vn 0.3202 0.7775 0.5412
vn 0.9947 -0.0434 0.0937
vn 0.3082 0.9119 -0.2710
vn 0.7428 0.2009 0.6387
vn 0.8081 0.3039 -0.5046
vn 0.8465 0.5075 0.1608
vn -0.6103 0.5197 0.5979
vn 0.8256 0.5638 0.0237
vn -0.7417 0.5679 -0.3570
vn 0.2782 0.5172 0.8094
vn 0.1929 0.5943 -0.7808
vn -0.0303 0.9865 0.1608
vn -0.8465 0.5075 -0.1608
vn 0.2910 0.3363 -0.8957
vn 0.7619 0.3363 -0.5536
vn 0.9418 0.3363 -0.0000
vn 0.7619 0.3363 0.5536
vn 0.2910 0.3363 0.8957
vn -0.2910 0.3363 0.8957
vn -0.7619 0.3363 0.5536
vn -0.9418 0.3363 -0.0000
vn -0.7294 0.6841 -0.0000
vn -0.7619 0.3363 -0.5536
vn -0.2910 0.3363 -0.8957
vn -0.5901 0.6841 -0.4288
vn -0.5901 0.6841 0.4288
vn -0.2254 0.6840 0.6937
vn 0.2254 0.6841 0.6937
vn 0.5901 0.6840 0.4288
vn 0.2254 0.6841 -0.6937
vn 0.7294 0.6841 -0.0000
vn 0.5901 0.6840 -0.4288
vn -0.2254 0.6841 -0.6937
vn -0.3526 0.9000 0.2562
vn 0.3526 0.9000 0.2562
vn 0.1347 0.9000 -0.4145
vn -0.4359 0.9000 -0.0000
vn 0.1347 0.9000 0.4145
vn 0.3526 0.9000 -0.2562
vn -0.3526 0.9000 -0.2562
vn -0.1347 0.9000 0.4145
vn 0.4359 0.9000 -0.0000
vn -0.1347 0.9000 -0.4145
vn -0.6876 -0.5268 0.4996
vn -0.2627 -0.5268 0.8084
vn 0.2627 -0.5268 0.8084
vn 0.6876 -0.5268 0.4996
vn 0.2627 -0.5268 -0.8084
vn 0.8500 -0.5268 -0.0000
vn 0.6876 -0.5268 -0.4996
vn -0.2627 -0.5268 -0.8084
vn -0.6876 -0.5268 -0.4996
vn -0.8500 -0.5268 -0.0000
vn 0.1291 -0.9085 -0.3975
vn -0.4179 -0.9085 -0.0000
vn 0.1291 -0.9085 0.3975
vn 0.3381 -0.9085 -0.2456
vn -0.3381 -0.9085 -0.2456
vn -0.1291 -0.9085 0.3975
vn 0.4179 -0.9085 -0.0000
vn -0.1291 -0.9085 -0.3975
vn -0.3381 -0.9085 0.2456
vn 0.3381 -0.9085 0.2456
vn 0.0270 -0.9962 0.0830
vn 0.0706 -0.9962 -0.0513
vn -0.0706 -0.9962 -0.0513
vn -0.0270 -0.9962 0.0830
vn 0.0873 -0.9962 -0.0000
vn -0.0270 -0.9962 -0.0830
vn -0.0706 -0.9962 0.0513
vn 0.0706 -0.9962 0.0513
vn 0.0270 -0.9962 -0.0830
vn -0.0873 -0.9962 -0.0000
vn -0.0000 1.0000 -0.0000
vn -0.0000 -1.0000 -0.0000
vn 0.2932 0.3159 -0.9024
vn 0.7676 0.3159 -0.5577
vn 0.9488 0.3159 -0.0000
vn 0.7676 0.3159 0.5577
vn 0.2932 0.3159 0.9024
vn -0.2932 0.3159 0.9024
vn -0.7676 0.3159 0.5577
vn -0.9488 0.3159 -0.0000
vn -0.7528 0.6583 -0.0000
vn -0.7676 0.3159 -0.5577
vn -0.2932 0.3159 -0.9024
vn -0.6090 0.6583 -0.4425
vn -0.6090 0.6583 0.4425
vn -0.2326 0.6583 0.7160
vn 0.2326 0.6583 0.7160
vn 0.6090 0.6583 0.4425
vn 0.2326 0.6583 -0.7160
vn 0.7528 0.6583 -0.0000
vn 0.6090 0.6583 -0.4425
vn -0.2326 0.6583 -0.7160
vn -0.3729 0.8874 0.2709
vn 0.3729 0.8874 0.2709
vn 0.1424 0.8874 -0.4384
vn -0.4609 0.8874 -0.0000
vn 0.1424 0.8874 0.4384
vn 0.3729 0.8874 -0.2709
vn -0.3729 0.8874 -0.2709
vn -0.1424 0.8874 0.4384
vn 0.4609 0.8874 -0.0000
vn -0.1424 0.8874 -0.4384
vn -0.7005 -0.5004 0.5089
vn -0.2676 -0.5004 0.8234
vn 0.2675 -0.5004 0.8234
vn 0.7005 -0.5004 0.5089
vn 0.2675 -0.5004 -0.8234
vn 0.8658 -0.5004 -0.0000
vn 0.7005 -0.5004 -0.5089
vn -0.2675 -0.5004 -0.8234
vn -0.7005 -0.5004 -0.5089
vn -0.8658 -0.5004 -0.0000
vn 0.1367 -0.8968 -0.4208
vn -0.4424 -0.8968 -0.0000
vn 0.1367 -0.8968 0.4208
vn 0.3579 -0.8968 -0.2601
vn -0.3579 -0.8968 -0.2601
vn -0.1367 -0.8968 0.4208
vn 0.4424 -0.8968 -0.0000
vn -0.1367 -0.8968 -0.4208
vn -0.3579 -0.8968 0.2601
vn 0.3579 -0.8968 0.2601
vn 0.0289 -0.9956 0.0890
vn 0.0757 -0.9956 -0.0550
vn -0.0757 -0.9956 -0.0550
vn -0.0289 -0.9956 0.0890
vn 0.0935 -0.9956 -0.0000
vn -0.0289 -0.9956 -0.0890
vn -0.0757 -0.9956 0.0550
vn 0.0757 -0.9956 0.0550
vn 0.0289 -0.9956 -0.0890
vn -0.0935 -0.9956 -0.0000
vn 0.2949 0.2984 -0.9077
vn 0.7722 0.2984 -0.5610
vn 0.9544 0.2984 -0.0000
vn 0.7722 0.2984 0.5610
vn 0.2949 0.2984 0.9077
vn -0.2949 0.2984 0.9077
vn -0.7722 0.2984 0.5610
vn -0.9544 0.2984 -0.0000
vn -0.7729 0.6345 -0.0000
vn -0.7722 0.2984 -0.5610
vn -0.2949 0.2984 -0.9077
vn -0.6253 0.6345 -0.4543
vn -0.6253 0.6345 0.4543
vn -0.2388 0.6345 0.7351
vn 0.2388 0.6345 0.7351
vn 0.6253 0.6345 0.4543
vn 0.2388 0.6345 -0.7351
vn 0.7729 0.6345 -0.0000
vn 0.6253 0.6345 -0.4543
vn -0.2388 0.6345 -0.7351
vn -0.3916 0.8750 0.2845
vn 0.3916 0.8750 0.2845
vn 0.1496 0.8750 -0.4604
vn -0.4841 0.8750 -0.0000
vn 0.1496 0.8750 0.4604
vn 0.3916 0.8750 -0.2845
vn -0.3916 0.8750 -0.2845
vn -0.1496 0.8750 0.4604
vn 0.4841 0.8750 -0.0000
vn -0.1496 0.8750 -0.4604
vn -0.7111 -0.4769 0.5166
vn -0.2716 -0.4769 0.8359
vn 0.2716 -0.4769 0.8359
vn 0.7111 -0.4769 0.5166
vn 0.2716 -0.4769 -0.8359
vn 0.8789 -0.4769 -0.0000
vn 0.7111 -0.4769 -0.5166
vn -0.2716 -0.4769 -0.8359
vn -0.7111 -0.4769 -0.5166
vn -0.8789 -0.4769 -0.0000
vn 0.1437 -0.8852 -0.4424
vn -0.4651 -0.8852 -0.0000
vn 0.1437 -0.8852 0.4424
vn 0.3763 -0.8852 -0.2734
vn -0.3763 -0.8852 -0.2734
vn -0.1437 -0.8852 0.4424
vn 0.4651 -0.8852 -0.0000
vn -0.1437 -0.8852 -0.4424
vn -0.3763 -0.8852 0.2734
vn 0.3763 -0.8852 0.2734
vn 0.0308 -0.9950 0.0947
vn 0.0805 -0.9950 -0.0585
vn -0.0805 -0.9950 -0.0585
vn -0.0308 -0.9950 0.0947
vn 0.0996 -0.9950 -0.0000
vn -0.0308 -0.9950 -0.0947
vn -0.0805 -0.9950 0.0585
vn 0.0805 -0.9950 0.0585
vn 0.0308 -0.9950 -0.0947
vn -0.0996 -0.9950 -0.0000
vn -0.8474 -0.0327 -0.5299
vn -0.7136 -0.3903 0.5817
vn 0.3794 -0.1811 0.9073
vn 0.9452 0.3236 -0.0428
vn 0.2157 0.4079 -0.8872
vn 0.9934 0.0940 -0.0653
vn -0.8397 -0.0841 -0.5365
vn 0.2341 0.0202 -0.9720
vn 0.3728 0.0337 0.9273
vn -0.7598 -0.0763 0.6456
vn -0.7541 -0.1437 0.6408
vn 0.3723 0.0639 0.9259
vn 0.2340 0.0384 -0.9715
vn -0.8321 -0.1580 -0.5317
vn 0.9822 0.1762 -0.0646
vn -0.1606 -0.9729 0.1665
vn -0.0574 -0.2493 0.9667
vn -0.1004 0.7139 0.6930
vn 0.0538 -0.3230 0.9449
vt 0.817275 0.743690
vt 0.818236 0.728145
vt 0.813619 0.728442
vt 0.812515 0.743889
vt 0.559062 0.829630
vt 0.559807 0.816823
vt 0.559551 0.821534
vt 0.558798 0.832778
vt 0.562510 0.824199
vt 0.561849 0.834559
vt 0.820354 0.852929
vt 0.819402 0.759781
vt 0.816813 0.756054
vt 0.817329 0.849503
vt 0.816644 0.749834
vt 0.817624 0.737339
vt 0.820711 0.733643
vt 0.819827 0.747365
vt 0.564709 0.932105
vt 0.564353 0.920036
vt 0.562311 0.917196
vt 0.562569 0.929128
vt 0.562051 0.936895
vt 0.561817 0.924606
vt 0.816596 0.858441
vt 0.816173 0.762286
vt 0.811339 0.873243
vt 0.811249 0.858423
vt 0.816943 0.873263
vt 0.811589 0.760107
vt 0.811813 0.867454
vt 0.811701 0.852899
vt 0.811984 0.756255
vt 0.817711 0.863895
vt 0.814299 0.652184
vt 0.814681 0.649161
vt 0.815345 0.590482
vt 0.814961 0.596244
vt 0.819338 0.649003
vt 0.821834 0.651928
vt 0.822536 0.595756
vt 0.820026 0.590180
vt 0.818720 0.653894
vt 0.819406 0.599504
vt 0.822318 0.577918
vt 0.819259 0.581580
vt 0.817328 0.345080
vt 0.819442 0.342550
vt 0.814916 0.578395
vt 0.815291 0.572765
vt 0.814586 0.338988
vt 0.814327 0.342879
vt 0.819866 0.572470
vt 0.817747 0.338784
vt 0.797146 0.458508
vt 0.796504 0.471729
vt 0.788747 0.410967
vt 0.789121 0.403278
vt 0.795012 0.488045
vt 0.794732 0.484908
vt 0.787717 0.418631
vt 0.787879 0.420455
vt 0.796051 0.466653
vt 0.788484 0.408015
vt 0.803081 0.521551
vt 0.804727 0.498761
vt 0.803588 0.497554
vt 0.801959 0.520095
vt 0.554187 0.631646
vt 0.552929 0.648535
vt 0.552170 0.647292
vt 0.553414 0.630588
vt 0.806094 0.488593
vt 0.804940 0.487497
vt 0.803430 0.525468
vt 0.802305 0.523969
vt 0.554728 0.617961
vt 0.553949 0.617052
vt 0.547494 0.617509
vt 0.548402 0.602056
vt 0.547949 0.599771
vt 0.547058 0.614906
vt 0.797186 0.474592
vt 0.795662 0.491250
vt 0.549157 0.595162
vt 0.548688 0.593017
vt 0.547686 0.620164
vt 0.547247 0.617507
vt 0.797841 0.461094
vt 0.835655 0.516838
vt 0.836128 0.526572
vt 0.841838 0.481838
vt 0.841563 0.476178
vt 0.837227 0.538583
vt 0.837433 0.536274
vt 0.842597 0.487481
vt 0.842477 0.488824
vt 0.836461 0.522834
vt 0.842032 0.479665
vt 0.830937 0.563555
vt 0.829835 0.546725
vt 0.830913 0.545584
vt 0.832112 0.562179
vt 0.570471 0.670039
vt 0.571399 0.682512
vt 0.572117 0.681337
vt 0.571202 0.669039
vt 0.570753 0.666160
vt 0.570071 0.659933
vt 0.570808 0.659074
vt 0.571480 0.665213
vt 0.830793 0.566448
vt 0.831857 0.565031
vt 0.830501 0.550198
vt 0.829917 0.538180
vt 0.820948 0.715744
vt 0.817855 0.719446
vt 0.818515 0.662282
vt 0.821623 0.660319
vt 0.813464 0.716225
vt 0.814101 0.660575
vt 0.813843 0.710533
vt 0.818468 0.710235
vt 0.819131 0.657399
vt 0.814482 0.657557
vt 0.788302 0.409250
vt 0.788512 0.404940
vt 0.787724 0.413547
vt 0.787816 0.414570
vt 0.788154 0.407595
vt 0.816977 0.329306
vt 0.817934 0.328160
vt 0.815735 0.326547
vt 0.815618 0.328309
vt 0.817166 0.326455
vt 0.075249 0.521375
vt 0.069685 0.766386
vt 0.079237 0.766386
vt 0.086833 0.521375
vt 0.085141 0.766386
vt 0.093993 0.521375
vt 0.060133 0.766386
vt 0.063664 0.521375
vt 0.054230 0.766386
vt 0.056505 0.521375
vt 0.058217 0.703051
vt 0.062597 0.703051
vt 0.069685 0.703051
vt 0.076773 0.703051
vt 0.081154 0.703051
vt 0.065519 0.722121
vt 0.062944 0.722121
vt 0.076427 0.722121
vt 0.073852 0.722121
vt 0.069685 0.722121
vt 0.054184 0.522293
vt 0.060105 0.522293
vt 0.069685 0.522293
vt 0.079265 0.522293
vt 0.085186 0.522293
vt 0.074871 0.520085
vt 0.069685 0.520085
vt 0.061294 0.520085
vt 0.078076 0.520085
vt 0.064499 0.520085
vt 0.069685 0.517360
vt 0.072564 0.517360
vt 0.074343 0.517360
vt 0.066807 0.517360
vt 0.065027 0.517360
vt 0.069227 0.540350
vt 0.067836 0.678476
vt 0.080030 0.678476
vt 0.084015 0.540350
vt 0.087566 0.678476
vt 0.093155 0.540350
vt 0.055642 0.678476
vt 0.054438 0.540350
vt 0.048106 0.678476
vt 0.045299 0.540350
vt 0.042069 0.773476
vt 0.054439 0.540350
vt 0.047661 0.773476
vt 0.056709 0.773476
vt 0.065757 0.773476
vt 0.071349 0.773476
vt 0.062517 0.726199
vt 0.059230 0.726199
vt 0.076442 0.726199
vt 0.073155 0.726199
vt 0.067836 0.726199
vt 0.049439 0.543898
vt 0.056997 0.543898
vt 0.069227 0.543898
vt 0.081456 0.543898
vt 0.089015 0.543898
vt 0.075847 0.520037
vt 0.069227 0.520037
vt 0.058515 0.520037
vt 0.079939 0.520037
vt 0.062606 0.520037
vt 0.069227 0.517651
vt 0.072902 0.517651
vt 0.075173 0.517651
vt 0.065552 0.517651
vt 0.063281 0.517651
vt 0.054993 0.525071
vt 0.060556 0.706724
vt 0.072108 0.706724
vt 0.061872 0.525071
vt 0.079247 0.706724
vt 0.066124 0.525071
vt 0.049004 0.706724
vt 0.048113 0.525071
vt 0.041865 0.706724
vt 0.043862 0.525071
vt 0.046687 0.778411
vt 0.051984 0.778411
vt 0.060556 0.778411
vt 0.069128 0.778411
vt 0.074426 0.778411
vt 0.058299 0.714302
vt 0.055185 0.714302
vt 0.071491 0.714302
vt 0.068377 0.714302
vt 0.063338 0.714302
vt 0.045788 0.529446
vt 0.049304 0.529446
vt 0.054993 0.529446
vt 0.060682 0.529446
vt 0.064198 0.529446
vt 0.058072 0.513926
vt 0.054993 0.513926
vt 0.050010 0.513926
vt 0.059976 0.513926
vt 0.051913 0.513926
vt 0.054993 0.512374
vt 0.056702 0.512374
vt 0.057759 0.512374
vt 0.053283 0.512374
vt 0.052227 0.512374
vt 0.812125 0.747686
vt 0.813241 0.734124
vt 0.565210 0.760342
vt 0.563111 0.761969
vt 0.563250 0.755014
vt 0.565352 0.753384
vt 0.563527 0.757920
vt 0.563667 0.750959
vt 0.560972 0.702439
vt 0.564132 0.702188
vt 0.564023 0.687505
vt 0.560936 0.687749
vt 0.563713 0.709918
vt 0.560713 0.707216
vt 0.560683 0.692417
vt 0.563614 0.695058
vt 0.818901 0.908669
vt 0.812161 0.912736
vt 0.811619 0.919352
vt 0.818023 0.919374
vt 0.820882 0.867486
vt 0.822524 0.912772
vt 0.818709 0.548820
vt 0.819378 0.562589
vt 0.829418 0.551405
vt 0.828826 0.539216
vt 0.820932 0.579581
vt 0.820053 0.576313
vt 0.819850 0.557302
vt 0.820164 0.501950
vt 0.819256 0.520652
vt 0.805293 0.505098
vt 0.817145 0.543733
vt 0.816749 0.539295
vt 0.818615 0.513471
vt 0.804147 0.503822
vt 0.795376 0.488047
vt 0.796723 0.469410
s 0
usemtl Material.001
f 296/1/1 2/2/1 4/3/1 297/4/1
f 297/5/2 4/6/2 6/7/2 298/8/2
f 298/8/3 6/7/3 8/9/3 299/10/3
f 20/11/4 19/12/4 12/13/4 11/14/4
f 299/15/5 8/16/5 10/17/5 300/18/5
f 300/18/6 10/17/6 2/2/6 296/1/6
f 319/19/7 20/20/7 11/21/7 320/22/7
f 318/23/8 18/24/8 20/20/8 319/19/8
f 18/25/9 17/26/9 19/12/9 20/11/9
f 317/27/10 16/28/10 18/25/10 318/29/10
f 16/28/11 15/30/11 17/26/11 18/25/11
f 316/31/12 14/32/12 16/28/12 317/27/12
f 14/32/13 13/33/13 15/30/13 16/28/13
f 320/34/14 11/14/14 14/32/14 316/31/14
f 11/14/15 12/13/15 13/33/15 14/32/15
f 308/35/16 306/36/16 22/37/16 23/38/16
f 309/39/17 307/40/17 25/41/17 21/42/17
f 306/36/18 309/39/18 21/42/18 22/37/18
f 310/43/19 308/35/19 23/38/19 24/44/19
f 307/40/20 310/43/20 24/44/20 25/41/20
f 312/45/21 311/46/21 29/47/21 30/48/21
f 314/49/22 313/50/22 27/51/22 28/52/22
f 315/53/23 312/45/23 30/48/23 26/54/23
f 311/46/24 314/49/24 28/52/24 29/47/24
f 313/50/25 315/53/25 26/54/25 27/51/25
f 48/55/26 46/56/26 39/57/26 40/58/26
f 49/59/27 47/60/27 37/61/27 38/62/27
f 50/63/28 48/55/28 40/58/28 36/64/28
f 46/56/29 49/59/29 38/62/29 39/57/29
f 47/60/30 50/63/30 36/64/30 37/61/30
f 330/65/31 328/66/31 45/67/31 43/68/31
f 329/69/32 327/70/32 44/71/32 41/72/32
f 328/66/33 326/73/33 42/74/33 45/67/33
f 327/75/34 330/65/34 43/68/34 44/76/34
f 326/77/35 329/69/35 41/72/35 42/78/35
f 335/79/36 333/80/36 50/81/36 47/82/36
f 334/83/37 332/84/37 49/59/37 46/56/37
f 333/80/38 331/85/38 48/86/38 50/81/38
f 332/87/39 335/79/39 47/82/39 49/88/39
f 331/89/40 334/83/40 46/56/40 48/55/40
f 68/90/41 66/91/41 59/92/41 60/93/41
f 69/94/42 67/95/42 57/96/42 58/97/42
f 70/98/43 68/90/43 60/93/43 56/99/43
f 66/91/44 69/94/44 58/97/44 59/92/44
f 67/95/45 70/98/45 56/99/45 57/96/45
f 325/100/46 323/101/46 65/102/46 63/103/46
f 324/104/47 322/105/47 64/106/47 61/107/47
f 323/108/48 321/109/48 62/110/48 65/111/48
f 322/112/49 325/100/49 63/103/49 64/113/49
f 321/109/50 324/104/50 61/107/50 62/110/50
f 63/103/51 65/102/51 70/98/51 67/95/51
f 61/114/52 64/113/52 69/94/52 66/91/52
f 65/102/53 62/115/53 68/90/53 70/98/53
f 64/113/54 63/103/54 67/95/54 69/94/54
f 62/115/55 61/114/55 66/91/55 68/90/55
f 305/116/56 303/117/56 75/118/56 73/119/56
f 303/117/57 301/120/57 72/121/57 75/118/57
f 304/122/58 302/123/58 74/124/58 71/125/58
f 302/123/59 305/116/59 73/119/59 74/124/59
f 301/120/60 304/122/60 71/125/60 72/121/60
f 40/58/61 39/57/61 79/126/61 80/127/61
f 38/62/62 37/61/62 77/128/62 78/129/62
f 36/64/63 40/58/63 80/127/63 76/130/63
f 39/57/64 38/62/64 78/129/64 79/126/64
f 37/61/65 36/64/65 76/130/65 77/128/65
f 79/126/66 78/129/66 80/127/66
f 76/130/66 80/127/66 77/128/66
f 77/128/66 80/127/66 78/129/66
f 30/48/67 29/47/67 84/131/67 85/132/67
f 28/52/68 27/51/68 82/133/68 83/134/68
f 26/54/69 30/48/69 85/132/69 81/135/69
f 29/47/70 28/52/70 83/134/70 84/131/70
f 27/51/71 26/54/71 81/135/71 82/133/71
f 83/134/72 82/133/72 84/131/72
f 81/135/72 85/132/72 82/133/72
f 85/132/72 84/131/72 82/133/72
f 60/93/73 58/97/73 57/96/73
f 57/96/73 56/99/73 60/93/73
f 59/92/73 58/97/73 60/93/73
f 86/136/74 87/137/74 89/138/74 88/139/74
f 88/139/75 89/138/75 91/140/75 90/141/75
f 90/141/76 91/140/76 93/140/76 92/141/76
f 92/141/77 93/140/77 95/138/77 94/139/77
f 94/139/78 95/138/78 97/137/78 96/136/78
f 96/136/79 97/137/79 99/142/79 98/143/79
f 98/143/80 99/142/80 101/144/80 100/145/80
f 100/145/81 101/144/81 103/144/81 102/145/81
f 103/144/82 101/144/82 113/146/82 114/146/82
f 102/145/83 103/144/83 105/142/83 104/143/83
f 104/143/84 105/142/84 87/137/84 86/136/84
f 105/142/85 103/144/85 114/146/85 115/147/85
f 101/144/86 99/142/86 112/147/86 113/146/86
f 99/142/87 97/137/87 111/148/87 112/147/87
f 97/137/88 95/138/88 110/149/88 111/148/88
f 95/138/89 93/140/89 109/150/89 110/149/89
f 89/138/90 87/137/90 106/148/90 107/149/90
f 93/140/91 91/140/91 108/150/91 109/150/91
f 91/140/92 89/138/92 107/149/92 108/150/92
f 87/137/93 105/142/93 115/147/93 106/148/93
f 113/146/94 112/147/94 122/151/94 123/152/94
f 110/149/95 109/150/95 119/153/95 120/154/95
f 107/149/96 106/148/96 116/155/96 117/154/96
f 114/146/97 113/146/97 123/152/97 124/152/97
f 111/148/98 110/149/98 120/154/98 121/155/98
f 108/150/99 107/149/99 117/154/99 118/153/99
f 115/147/100 114/146/100 124/152/100 125/151/100
f 112/147/101 111/148/101 121/155/101 122/151/101
f 109/150/102 108/150/102 118/153/102 119/153/102
f 106/148/103 115/147/103 125/151/103 116/155/103
f 98/143/104 100/145/104 133/156/104 132/157/104
f 96/136/105 98/143/105 132/157/105 131/158/105
f 94/139/106 96/136/106 131/158/106 130/159/106
f 92/141/107 94/139/107 130/159/107 129/160/107
f 86/136/108 88/139/108 127/159/108 126/158/108
f 90/141/109 92/141/109 129/160/109 128/160/109
f 88/139/110 90/141/110 128/160/110 127/159/110
f 104/143/111 86/136/111 126/158/111 135/157/111
f 102/145/112 104/143/112 135/157/112 134/156/112
f 100/145/113 102/145/113 134/156/113 133/156/113
f 126/158/114 127/159/114 137/161/114 136/162/114
f 133/156/115 134/156/115 144/163/115 143/163/115
f 130/159/116 131/158/116 141/162/116 140/161/116
f 127/159/117 128/160/117 138/164/117 137/161/117
f 134/156/118 135/157/118 145/165/118 144/163/118
f 131/158/119 132/157/119 142/165/119 141/162/119
f 128/160/120 129/160/120 139/164/120 138/164/120
f 135/157/121 126/158/121 136/162/121 145/165/121
f 132/157/122 133/156/122 143/163/122 142/165/122
f 129/160/123 130/159/123 140/161/123 139/164/123
f 140/161/124 141/162/124 151/166/124 150/167/124
f 137/161/125 138/164/125 148/168/125 147/167/125
f 144/163/126 145/165/126 155/169/126 154/170/126
f 141/162/127 142/165/127 152/169/127 151/166/127
f 138/164/128 139/164/128 149/168/128 148/168/128
f 145/165/129 136/162/129 146/166/129 155/169/129
f 142/165/130 143/163/130 153/170/130 152/169/130
f 139/164/131 140/161/131 150/167/131 149/168/131
f 136/162/132 137/161/132 147/167/132 146/166/132
f 143/163/133 144/163/133 154/170/133 153/170/133
f 117/154/134 116/155/134 121/155/134 120/154/134
f 118/153/134 117/154/134 120/154/134 119/153/134
f 122/151/134 121/155/134 116/155/134 125/151/134
f 123/152/134 122/151/134 125/151/134 124/152/134
f 146/166/135 147/167/135 150/167/135 151/166/135
f 151/166/135 152/169/135 155/169/135 146/166/135
f 147/167/135 148/168/135 149/168/135 150/167/135
f 152/169/135 153/170/135 154/170/135 155/169/135
f 156/171/136 157/172/136 159/173/136 158/174/136
f 158/174/137 159/173/137 161/175/137 160/176/137
f 160/176/138 161/175/138 163/175/138 162/176/138
f 162/176/139 163/175/139 165/173/139 164/174/139
f 164/174/140 165/173/140 167/172/140 166/171/140
f 166/171/141 167/172/141 169/177/141 168/178/141
f 168/178/142 169/177/142 171/179/142 170/180/142
f 170/180/143 171/179/143 173/179/143 172/180/143
f 173/179/144 171/179/144 183/181/144 184/181/144
f 172/180/145 173/179/145 175/177/145 174/182/145
f 174/182/146 175/177/146 157/172/146 156/171/146
f 175/177/147 173/179/147 184/181/147 185/183/147
f 171/179/148 169/177/148 182/183/148 183/181/148
f 169/177/149 167/172/149 181/184/149 182/183/149
f 167/172/150 165/173/150 180/185/150 181/184/150
f 165/173/151 163/175/151 179/186/151 180/185/151
f 159/173/152 157/172/152 176/184/152 177/185/152
f 163/175/153 161/175/153 178/186/153 179/186/153
f 161/175/154 159/173/154 177/185/154 178/186/154
f 157/172/155 175/177/155 185/183/155 176/184/155
f 183/181/156 182/183/156 192/187/156 193/188/156
f 180/185/157 179/186/157 189/189/157 190/190/157
f 177/185/158 176/184/158 186/191/158 187/190/158
f 184/181/159 183/181/159 193/188/159 194/188/159
f 181/184/160 180/185/160 190/190/160 191/191/160
f 178/186/161 177/185/161 187/190/161 188/189/161
f 185/183/162 184/181/162 194/188/162 195/187/162
f 182/183/163 181/184/163 191/191/163 192/187/163
f 179/186/164 178/186/164 188/189/164 189/189/164
f 176/184/165 185/183/165 195/187/165 186/191/165
f 168/178/166 170/180/166 203/192/166 202/193/166
f 166/171/167 168/178/167 202/193/167 201/194/167
f 164/174/168 166/171/168 201/194/168 200/195/168
f 162/176/169 164/174/169 200/195/169 199/196/169
f 156/171/170 158/174/170 197/195/170 196/194/170
f 160/176/171 162/176/171 199/196/171 198/196/171
f 158/174/172 160/176/172 198/196/172 197/195/172
f 174/182/173 156/171/173 196/194/173 205/193/173
f 172/180/174 174/182/174 205/193/174 204/192/174
f 170/180/175 172/180/175 204/192/175 203/192/175
f 196/194/176 197/195/176 207/197/176 206/198/176
f 203/192/177 204/192/177 214/199/177 213/199/177
f 200/195/178 201/194/178 211/198/178 210/197/178
f 197/195/179 198/196/179 208/200/179 207/197/179
f 204/192/180 205/193/180 215/201/180 214/199/180
f 201/194/181 202/193/181 212/201/181 211/198/181
f 198/196/182 199/196/182 209/200/182 208/200/182
f 205/193/183 196/194/183 206/198/183 215/201/183
f 202/193/184 203/192/184 213/199/184 212/201/184
f 199/196/185 200/195/185 210/197/185 209/200/185
f 210/197/186 211/198/186 221/202/186 220/203/186
f 207/197/187 208/200/187 218/204/187 217/203/187
f 214/199/188 215/201/188 225/205/188 224/206/188
f 211/198/189 212/201/189 222/205/189 221/202/189
f 208/200/190 209/200/190 219/204/190 218/204/190
f 215/201/191 206/198/191 216/202/191 225/205/191
f 212/201/192 213/199/192 223/206/192 222/205/192
f 209/200/193 210/197/193 220/203/193 219/204/193
f 206/198/194 207/197/194 217/203/194 216/202/194
f 213/199/195 214/199/195 224/206/195 223/206/195
f 187/190/134 186/191/134 191/191/134 190/190/134
f 188/189/134 187/190/134 190/190/134 189/189/134
f 192/187/134 191/191/134 186/191/134 195/187/134
f 193/188/134 192/187/134 195/187/134 194/188/134
f 216/202/135 217/203/135 220/203/135 221/202/135
f 221/202/135 222/205/135 225/205/135 216/202/135
f 217/203/135 218/204/135 219/204/135 220/203/135
f 222/205/135 223/206/135 224/206/135 225/205/135
f 226/207/196 227/208/196 229/209/196 228/210/196
f 228/210/197 229/209/197 231/211/197 230/212/197
f 230/212/198 231/211/198 233/211/198 232/212/198
f 232/212/199 233/211/199 235/209/199 234/210/199
f 234/210/200 235/209/200 237/208/200 236/207/200
f 236/207/201 237/208/201 239/213/201 238/214/201
f 238/214/202 239/213/202 241/215/202 240/216/202
f 240/216/203 241/215/203 243/215/203 242/216/203
f 243/215/204 241/215/204 253/217/204 254/217/204
f 242/216/205 243/215/205 245/213/205 244/214/205
f 244/214/206 245/213/206 227/208/206 226/207/206
f 245/213/207 243/215/207 254/217/207 255/218/207
f 241/215/208 239/213/208 252/218/208 253/217/208
f 239/213/209 237/208/209 251/219/209 252/218/209
f 237/208/210 235/209/210 250/220/210 251/219/210
f 235/209/211 233/211/211 249/221/211 250/220/211
f 229/209/212 227/208/212 246/219/212 247/220/212
f 233/211/213 231/211/213 248/221/213 249/221/213
f 231/211/214 229/209/214 247/220/214 248/221/214
f 227/208/215 245/213/215 255/218/215 246/219/215
f 253/217/216 252/218/216 262/222/216 263/223/216
f 250/220/217 249/221/217 259/224/217 260/225/217
f 247/220/218 246/219/218 256/226/218 257/225/218
f 254/217/219 253/217/219 263/223/219 264/223/219
f 251/219/220 250/220/220 260/225/220 261/226/220
f 248/221/221 247/220/221 257/225/221 258/224/221
f 255/218/222 254/217/222 264/223/222 265/222/222
f 252/218/223 251/219/223 261/226/223 262/222/223
f 249/221/224 248/221/224 258/224/224 259/224/224
f 246/219/225 255/218/225 265/222/225 256/226/225
f 238/214/226 240/216/226 273/227/226 272/228/226
f 236/207/227 238/214/227 272/228/227 271/229/227
f 234/210/228 236/207/228 271/229/228 270/230/228
f 232/212/229 234/210/229 270/230/229 269/231/229
f 226/207/230 228/210/230 267/230/230 266/229/230
f 230/212/231 232/212/231 269/231/231 268/231/231
f 228/210/232 230/212/232 268/231/232 267/230/232
f 244/214/233 226/207/233 266/229/233 275/228/233
f 242/216/234 244/214/234 275/228/234 274/227/234
f 240/216/235 242/216/235 274/227/235 273/227/235
f 266/229/236 267/230/236 277/232/236 276/233/236
f 273/227/237 274/227/237 284/234/237 283/234/237
f 270/230/238 271/229/238 281/233/238 280/232/238
f 267/230/239 268/231/239 278/235/239 277/232/239
f 274/227/240 275/228/240 285/236/240 284/234/240
f 271/229/241 272/228/241 282/236/241 281/233/241
f 268/231/242 269/231/242 279/235/242 278/235/242
f 275/228/243 266/229/243 276/233/243 285/236/243
f 272/228/244 273/227/244 283/234/244 282/236/244
f 269/231/245 270/230/245 280/232/245 279/235/245
f 280/232/246 281/233/246 291/237/246 290/238/246
f 277/232/247 278/235/247 288/239/247 287/238/247
f 284/234/248 285/236/248 295/240/248 294/241/248
f 281/233/249 282/236/249 292/240/249 291/237/249
f 278/235/250 279/235/250 289/239/250 288/239/250
f 285/236/251 276/233/251 286/237/251 295/240/251
f 282/236/252 283/234/252 293/241/252 292/240/252
f 279/235/253 280/232/253 290/238/253 289/239/253
f 276/233/254 277/232/254 287/238/254 286/237/254
f 283/234/255 284/234/255 294/241/255 293/241/255
f 257/225/134 256/226/134 261/226/134 260/225/134
f 258/224/134 257/225/134 260/225/134 259/224/134
f 262/222/134 261/226/134 256/226/134 265/222/134
f 263/223/134 262/222/134 265/222/134 264/223/134
f 286/237/135 287/238/135 290/238/135 291/237/135
f 291/237/135 292/240/135 295/240/135 286/237/135
f 287/238/135 288/239/135 289/239/135 290/238/135
f 292/240/135 293/241/135 294/241/135 295/240/135
f 19/12/256 300/18/256 296/1/256 12/13/256
f 17/26/257 299/15/257 300/18/257 19/12/257
f 15/30/258 298/242/258 299/15/258 17/26/258
f 13/33/259 297/4/259 298/242/259 15/30/259
f 12/13/260 296/1/260 297/4/260 13/33/260
f 6/243/261 4/3/261 304/122/261 301/120/261
f 2/2/262 10/17/262 305/116/262 302/123/262
f 4/3/263 2/2/263 302/123/263 304/122/263
f 8/16/264 6/243/264 301/120/264 303/117/264
f 10/17/265 8/16/265 303/117/265 305/116/265
f 73/244/266 75/245/266 310/246/266 307/247/266
f 75/118/267 72/121/267 308/35/267 310/43/267
f 71/125/268 74/124/268 309/39/268 306/36/268
f 74/248/269 73/244/269 307/247/269 309/249/269
f 72/121/270 71/125/270 306/36/270 308/35/270
f 22/250/25 21/251/25 315/252/25 313/253/25
f 24/254/24 23/255/24 314/256/24 311/257/24
f 21/42/23 25/41/23 312/45/23 315/53/23
f 23/255/22 22/250/22 313/253/22 314/256/22
f 25/41/21 24/44/21 311/46/21 312/45/21
f 1/258/14 320/34/14 316/31/14 3/259/14
f 3/259/12 316/31/12 317/27/12 5/260/12
f 5/260/10 317/27/10 318/29/10 7/261/10
f 7/261/8 318/29/8 319/262/8 9/263/8
f 9/263/7 319/262/7 320/34/7 1/258/7
f 55/264/50 54/265/50 324/266/50 321/267/50
f 53/268/271 52/269/271 325/100/271 322/112/271
f 51/270/48 55/264/48 321/267/48 323/101/48
f 54/265/47 53/268/47 322/112/47 324/266/47
f 52/269/272 51/270/272 323/101/272 325/100/272
f 35/271/273 34/272/273 329/273/273 326/73/273
f 33/274/34 32/275/34 330/65/34 327/75/34
f 31/276/33 35/271/33 326/73/33 328/66/33
f 34/272/274 33/274/274 327/75/274 329/273/274
f 32/275/31 31/276/31 328/66/31 330/65/31
f 42/74/40 41/277/40 334/83/40 331/89/40
f 44/76/39 43/68/39 335/278/39 332/84/39
f 45/67/38 42/74/38 331/89/38 333/279/38
f 41/277/37 44/76/37 332/84/37 334/83/37
f 43/68/36 45/67/36 333/279/36 335/278/36
