# Blender 5.1.0
# www.blender.org
mtllib smallbirch001.mtl
o small_birch.001
v -0.092414 0.000611 -0.867456
v -0.016627 2.716515 -0.371620
v 0.675701 -0.060566 -0.688750
v 0.509511 2.712042 -0.245010
v 0.737488 -0.160100 0.093524
v 0.552623 2.626556 0.287633
v 0.007555 -0.160439 0.398295
v 0.053123 2.578196 0.490218
v -0.505350 -0.061114 -0.195629
v -0.298689 2.633793 0.082773
v 0.086739 0.890734 -0.662323
v 0.145481 2.296641 -0.595528
v 0.695804 2.293609 -0.463096
v 0.728067 0.839656 -0.513114
v 0.740900 2.235657 0.094027
v 0.779654 0.756551 0.140038
v 0.218442 2.202874 0.305920
v 0.170203 0.756268 0.394504
v -0.149546 2.240563 -0.120251
v -0.258039 0.839197 -0.101385
v -0.220697 4.792116 -0.377528
v 0.312834 4.787580 -0.249138
v 0.356552 4.700893 0.290989
v -0.149967 4.651854 0.496420
v -0.506722 4.708232 0.083250
v 0.039040 8.574240 -0.239109
v 0.399346 8.571177 -0.152405
v 0.428870 8.512635 0.212355
v 0.086806 8.479517 0.351088
v -0.154120 8.517591 0.072064
v -0.059869 5.946162 -0.305083
v 0.152779 5.557667 -0.198511
v 0.107649 5.490899 0.249834
v -0.132894 5.838134 0.353620
v -0.236424 6.119500 0.077396
v 3.374025 7.532699 -0.096684
v 3.461446 7.372985 -0.052872
v 3.442893 7.345537 0.131446
v 3.344004 7.488287 0.201549
v 3.301442 7.603959 0.060555
v 1.588964 6.091333 0.373133
v 1.498592 6.336938 0.073761
v 1.838329 5.846512 -0.167079
v 1.798934 5.788230 0.224283
v 1.652708 6.185631 -0.260106
v 2.460048 6.574159 0.311462
v 2.661997 6.375890 -0.126030
v 2.386860 6.773063 0.069015
v 2.630093 6.328691 0.190916
v 2.511671 6.650526 -0.201368
v -0.200554 5.286746 0.294781
v -0.223678 5.000735 0.216323
v -0.323882 4.951580 -0.113750
v -0.146793 5.207216 -0.239290
v -0.070575 5.414358 0.013199
v -2.728599 6.454760 0.141358
v -2.792958 6.337178 0.109103
v -2.779300 6.316970 -0.026593
v -2.706497 6.422064 -0.078203
v -2.675163 6.507221 0.025597
v -1.414431 5.393621 -0.204524
v -1.347899 5.574437 0.015875
v -1.598014 5.213384 0.193183
v -1.569011 5.170476 -0.094940
v -1.461359 5.463043 0.261669
v -2.055726 5.749079 -0.159121
v -2.204401 5.603113 0.162962
v -2.001844 5.895513 0.019369
v -2.180913 5.568365 -0.070374
v -2.093731 5.805301 0.218426
v 0.411173 3.778472 -0.247074
v 0.454588 3.733066 0.289311
v -0.402706 3.736910 0.083012
v -0.118662 3.780848 -0.374574
v -0.048422 3.707378 0.493319
v 3.411563 7.539011 -0.032764
v 3.460574 7.449471 -0.008201
v 3.450172 7.434083 0.095133
v 3.394732 7.514113 0.134434
v 3.370871 7.578961 0.055390
v 0.105224 8.759724 -0.081568
v 0.268371 8.758337 -0.042308
v 0.281739 8.731829 0.122857
v 0.126852 8.716833 0.185676
v 0.017760 8.734073 0.059333
v 2.756871 7.834259 -2.148059
v 2.756871 8.837187 -1.771490
v 4.018494 7.834259 -1.738133
v 3.797152 8.837187 -1.433482
v 4.798220 7.834259 -0.664933
v 4.440081 8.837187 -0.548566
v 4.798220 7.834259 0.661616
v 4.440081 8.837187 0.545250
v 4.018494 7.834259 1.734817
v 3.797152 8.837187 1.430166
v 2.756871 7.834259 2.144743
v 2.756871 8.837187 1.768173
v 1.495248 7.834259 1.734817
v 1.716591 8.837187 1.430166
v 0.715523 7.834259 0.661616
v 1.073662 8.837187 0.545250
v 0.715523 7.834259 -0.664933
v 1.073662 8.837187 -0.548566
v 1.495249 7.834259 -1.738134
v 1.716591 8.837187 -1.433482
v 2.756871 9.300203 -1.314936
v 3.528797 9.300203 -1.064122
v 4.005872 9.300203 -0.407483
v 4.005873 9.300203 0.404167
v 3.528796 9.300203 1.060806
v 2.756871 9.300203 1.311620
v 1.984946 9.300203 1.060806
v 1.507870 9.300203 0.404167
v 1.507870 9.300203 -0.407483
v 1.984946 9.300203 -1.064122
v 2.756871 9.549520 -0.773649
v 3.210636 9.549520 -0.626211
v 3.491077 9.549520 -0.240216
v 3.491078 9.549520 0.236900
v 3.210636 9.549520 0.622895
v 2.756871 9.549520 0.770332
v 2.303107 9.549520 0.622895
v 2.022665 9.549520 0.236900
v 2.022665 9.549520 -0.240216
v 2.303107 9.549520 -0.626212
v 2.756871 7.264392 -1.776673
v 3.800199 7.264392 -1.437675
v 4.445011 7.264392 -0.550168
v 4.445011 7.264392 0.546852
v 3.800199 7.264392 1.434359
v 2.756871 7.264392 1.773357
v 1.713544 7.264392 1.434359
v 1.068731 7.264392 0.546852
v 1.068731 7.264392 -0.550168
v 1.713544 7.264392 -1.437676
v 2.756871 6.908225 -0.962548
v 3.321668 6.908225 -0.779034
v 3.670732 6.908225 -0.298590
v 3.670732 6.908225 0.295273
v 3.321668 6.908225 0.775718
v 2.756871 6.908225 0.959232
v 2.192074 6.908225 0.775718
v 1.843011 6.908225 0.295273
v 1.843011 6.908225 -0.298590
v 2.192075 6.908225 -0.779035
v 2.756871 6.872608 -0.535020
v 3.070374 6.872608 -0.433157
v 3.264129 6.872608 -0.166476
v 3.264129 6.872608 0.163160
v 3.070374 6.872608 0.429841
v 2.756871 6.872608 0.531704
v 2.443369 6.872608 0.429841
v 2.249614 6.872608 0.163160
v 2.249614 6.872608 -0.166476
v 2.443369 6.872608 -0.433158
v -2.882983 6.531856 -2.124250
v -2.882983 7.595538 -1.751858
v -1.635355 6.531856 -1.718871
v -1.854242 7.595538 -1.417599
v -0.864278 6.531856 -0.657575
v -1.218445 7.595538 -0.542499
v -0.864278 6.531856 0.654259
v -1.218445 7.595538 0.539184
v -1.635355 6.531856 1.715556
v -1.854242 7.595538 1.414284
v -2.882984 6.531856 2.120934
v -2.882984 7.595538 1.748542
v -4.130612 6.531856 1.715555
v -3.911725 7.595538 1.414283
v -4.901689 6.531856 0.654259
v -4.547523 7.595538 0.539183
v -4.901689 6.531856 -0.657575
v -4.547522 7.595538 -0.542500
v -4.130611 6.531856 -1.718872
v -3.911724 7.595538 -1.417600
v -2.882983 8.086603 -1.300368
v -2.119621 8.086603 -1.052336
v -1.647836 8.086603 -0.402981
v -1.647837 8.086603 0.399666
v -2.119621 8.086603 1.049021
v -2.882983 8.086603 1.297052
v -3.646346 8.086603 1.049021
v -4.118130 8.086603 0.399666
v -4.118131 8.086603 -0.402981
v -3.646346 8.086603 -1.052337
v -2.882983 8.351024 -0.765085
v -2.434252 8.351024 -0.619283
v -2.156921 8.351024 -0.237570
v -2.156921 8.351024 0.234254
v -2.434253 8.351024 0.615968
v -2.882983 8.351024 0.761769
v -3.331715 8.351024 0.615968
v -3.609046 8.351024 0.234254
v -3.609046 8.351024 -0.237570
v -3.331714 8.351024 -0.619284
v -2.882983 5.927468 -1.756984
v -1.851228 5.927468 -1.421746
v -1.213569 5.927468 -0.544083
v -1.213569 5.927468 0.540768
v -1.851229 5.927468 1.418431
v -2.882983 5.927468 1.753668
v -3.914738 5.927468 1.418430
v -4.552398 5.927468 0.540768
v -4.552398 5.927468 -0.544084
v -3.914738 5.927468 -1.421747
v -2.882983 5.549726 -0.951889
v -2.324451 5.549726 -0.770411
v -1.979260 5.549726 -0.295295
v -1.979260 5.549726 0.291980
v -2.324451 5.549726 0.767095
v -2.882983 5.549726 0.948574
v -3.441515 5.549726 0.767095
v -3.786707 5.549726 0.291980
v -3.786707 5.549726 -0.295296
v -3.441515 5.549726 -0.770412
v -2.882983 5.511951 -0.529104
v -2.572958 5.511951 -0.428371
v -2.381352 5.511951 -0.164648
v -2.381352 5.511951 0.161332
v -2.572958 5.511951 0.425055
v -2.882983 5.511951 0.525788
v -3.193008 5.511951 0.425055
v -3.384614 5.511951 0.161332
v -3.384614 5.511951 -0.164648
v -3.193008 5.511951 -0.428371
v -0.522817 7.443151 -2.333976
v -0.522817 8.687961 -1.924789
v 0.848085 7.443151 -1.888543
v 0.607571 8.687961 -1.557503
v 1.695349 7.443151 -0.722384
v 1.306189 8.687961 -0.595938
v 1.695349 7.443151 0.719068
v 1.306189 8.687961 0.592622
v 0.848085 7.443151 1.885227
v 0.607571 8.687961 1.554188
v -0.522817 7.443151 2.330660
v -0.522817 8.687961 1.921473
v -1.893719 7.443151 1.885226
v -1.653205 8.687961 1.554187
v -2.740983 7.443151 0.719068
v -2.351823 8.687961 0.592622
v -2.740983 7.443151 -0.722384
v -2.351823 8.687961 -0.595938
v -1.893718 7.443151 -1.888544
v -1.653204 8.687961 -1.557504
v -0.522817 9.262646 -1.428689
v 0.315971 9.262646 -1.156151
v 0.834370 9.262646 -0.442635
v 0.834370 9.262646 0.439319
v 0.315971 9.262646 1.152834
v -0.522817 9.262646 1.425373
v -1.361605 9.262646 1.152834
v -1.880004 9.262646 0.439319
v -1.880004 9.262646 -0.442635
v -1.361604 9.262646 -1.156151
v -0.522817 9.572092 -0.840517
v -0.029748 9.572092 -0.680309
v 0.274985 9.572092 -0.260880
v 0.274985 9.572092 0.257564
v -0.029748 9.572092 0.676993
v -0.522817 9.572092 0.837201
v -1.015885 9.572092 0.676993
v -1.320618 9.572092 0.257564
v -1.320619 9.572092 -0.260880
v -1.015885 9.572092 -0.680309
v -0.522817 6.735846 -1.930421
v 0.610882 6.735846 -1.562060
v 1.311547 6.735846 -0.597679
v 1.311546 6.735846 0.594363
v 0.610882 6.735846 1.558744
v -0.522817 6.735846 1.927106
v -1.656515 6.735846 1.558744
v -2.357180 6.735846 0.594363
v -2.357180 6.735846 -0.597679
v -1.656515 6.735846 -1.562061
v -0.522817 6.293780 -1.045778
v 0.090902 6.293780 -0.846369
v 0.470201 6.293780 -0.324309
v 0.470201 6.293780 0.320993
v 0.090902 6.293780 0.843053
v -0.522817 6.293780 1.042462
v -1.136535 6.293780 0.843053
v -1.515834 6.293780 0.320993
v -1.515834 6.293780 -0.324309
v -1.136535 6.293780 -0.846369
v -0.522817 6.249573 -0.581219
v -0.182159 6.249573 -0.470533
v 0.028379 6.249573 -0.180752
v 0.028379 6.249573 0.177436
v -0.182159 6.249573 0.467217
v -0.522817 6.249573 0.577903
v -0.863474 6.249573 0.467217
v -1.074012 6.249573 0.177436
v -1.074012 6.249573 -0.180752
v -0.863474 6.249573 -0.470533
v 0.092843 2.482635 -0.522823
v 0.635313 2.479646 -0.392282
v 0.679765 2.422521 0.156893
v 0.164761 2.390205 0.365763
v -0.197974 2.427357 -0.054327
v 0.527171 2.895830 0.288069
v -0.043118 2.985953 -0.372387
v 0.026760 2.847381 0.491023
v 0.483980 2.981472 -0.245546
v -0.325694 2.903081 0.082835
v 0.388481 3.904781 -0.247550
v -0.426708 3.863151 0.083067
v 0.431966 3.859301 0.289699
v -0.142207 3.907161 -0.375255
v -0.071853 3.833572 0.494035
v -0.133287 4.921502 0.486182
v -0.481883 4.976591 0.082462
v 0.318929 5.054124 -0.242324
v 0.361647 4.969419 0.285450
v -0.202399 5.058556 -0.367776
v 0.715329 0.620683 -0.555836
v 0.769398 0.533582 0.128723
v 0.130640 0.533285 0.395426
v -0.318196 0.620203 -0.124309
v 0.043161 0.674218 -0.712220
v -1.223513 5.558848 0.015615
v -1.447761 5.149160 -0.096771
v -1.338582 5.445876 0.264893
v -1.290988 5.375469 -0.207909
v -1.464181 5.192676 0.195436
v 1.367032 6.320450 0.074037
v 1.670690 5.765685 0.226221
v 1.522849 6.167472 -0.263516
v 1.458401 6.072134 0.371654
v 1.710519 5.824610 -0.169462
v 2.307610 6.734152 0.069438
v 2.555938 6.280471 0.193893
v 2.435035 6.609048 -0.206609
v 2.382331 6.531082 0.316964
v 2.588510 6.328660 -0.129692
vn 0.1918 0.5959 -0.7798
vn 0.8642 0.5032 -0.0036
vn 0.3770 -0.3330 0.8643
vn -0.8521 0.0596 -0.5199
vn -0.6168 -0.6379 0.4611
vn -0.8447 -0.0546 -0.5325
vn -0.8294 0.2785 -0.4842
vn -0.7389 0.1338 0.6604
vn -0.7509 0.0661 0.6571
vn 0.3845 -0.0644 0.9209
vn 0.3796 0.0413 0.9242
vn 0.9956 -0.0415 -0.0839
vn 0.9968 0.0242 -0.0768
vn 0.2362 0.1728 -0.9562
vn 0.2315 0.0376 -0.9721
vn 0.9938 0.0870 -0.0698
vn -0.8422 -0.0778 -0.5336
vn 0.2340 0.0183 -0.9721
vn 0.3736 0.0325 0.9270
vn -0.7586 -0.0731 0.6474
vn -0.7501 0.0714 0.6574
vn 0.9963 -0.0206 -0.0839
vn -0.8533 0.0775 -0.5156
vn 0.3748 0.0120 0.9270
vn 0.2341 0.0195 -0.9720
vn -0.5188 0.5775 0.6304
vn 0.7806 -0.6248 -0.0145
vn -0.5676 0.6192 -0.5426
vn 0.3375 -0.2162 0.9162
vn 0.2475 -0.1280 -0.9604
vn 0.0583 -0.2343 -0.9704
vn 0.0656 -0.3966 0.9156
vn -0.1118 0.8847 -0.4526
vn 0.1698 -0.9771 -0.1284
vn -0.1051 0.7503 0.6527
vn 0.1624 -0.1774 -0.9707
vn 0.2298 -0.2961 0.9271
vn -0.3783 0.7649 -0.5213
vn 0.5418 -0.8376 -0.0702
vn -0.3297 0.6787 0.6563
vn 0.5188 0.5775 -0.6304
vn -0.7806 -0.6248 0.0145
vn 0.5676 0.6192 0.5426
vn -0.3375 -0.2162 -0.9162
vn -0.2475 -0.1280 0.9604
vn -0.0557 -0.2370 0.9699
vn -0.0828 -0.3925 -0.9160
vn 0.1118 0.8847 0.4526
vn -0.1613 -0.9779 0.1330
vn 0.0934 0.7557 -0.6482
vn -0.1624 -0.1774 0.9707
vn -0.2298 -0.2961 -0.9271
vn 0.3783 0.7649 0.5213
vn -0.5418 -0.8376 0.0702
vn 0.3297 0.6787 -0.6563
vn -0.7586 -0.0691 0.6478
vn 0.3737 0.0306 0.9270
vn 0.2340 0.0195 -0.9720
vn -0.8419 -0.0795 -0.5337
vn 0.9937 0.0884 -0.0696
vn 0.3202 0.7775 0.5412
vn 0.9947 -0.0434 0.0937
vn 0.3082 0.9119 -0.2710
vn 0.7428 0.2009 0.6387
vn 0.8081 0.3039 -0.5046
vn 0.8465 0.5075 0.1608
vn -0.6103 0.5197 0.5979
vn 0.8256 0.5638 0.0237
vn -0.7417 0.5679 -0.3570
vn 0.2782 0.5172 0.8094
vn 0.1929 0.5943 -0.7808
vn -0.0303 0.9865 0.1608
vn -0.8465 0.5075 -0.1608
vn 0.2910 0.3363 -0.8957
vn 0.7619 0.3363 -0.5536
vn 0.9418 0.3363 -0.0000
vn 0.7619 0.3363 0.5536
vn 0.2910 0.3363 0.8957
vn -0.2910 0.3363 0.8957
vn -0.7619 0.3363 0.5536
vn -0.9418 0.3363 -0.0000
vn -0.7294 0.6841 -0.0000
vn -0.7619 0.3363 -0.5536
vn -0.2910 0.3363 -0.8957
vn -0.5901 0.6841 -0.4288
vn -0.5901 0.6841 0.4288
vn -0.2254 0.6840 0.6937
vn 0.2254 0.6841 0.6937
vn 0.5901 0.6840 0.4288
vn 0.2254 0.6841 -0.6937
vn 0.7294 0.6841 -0.0000
vn 0.5901 0.6840 -0.4288
vn -0.2254 0.6841 -0.6937
vn -0.3526 0.9000 0.2562
vn 0.3526 0.9000 0.2562
vn 0.1347 0.9000 -0.4145
vn -0.4359 0.9000 -0.0000
vn 0.1347 0.9000 0.4145
vn 0.3526 0.9000 -0.2562
vn -0.3526 0.9000 -0.2562
vn -0.1347 0.9000 0.4145
vn 0.4359 0.9000 -0.0000
vn -0.1347 0.9000 -0.4145
vn -0.6876 -0.5268 0.4996
vn -0.2627 -0.5268 0.8084
vn 0.2627 -0.5268 0.8084
vn 0.6876 -0.5268 0.4996
vn 0.2627 -0.5268 -0.8084
vn 0.8500 -0.5268 -0.0000
vn 0.6876 -0.5268 -0.4996
vn -0.2627 -0.5268 -0.8084
vn -0.6876 -0.5268 -0.4996
vn -0.8500 -0.5268 -0.0000
vn 0.1291 -0.9085 -0.3975
vn -0.4179 -0.9085 -0.0000
vn 0.1291 -0.9085 0.3975
vn 0.3381 -0.9085 -0.2456
vn -0.3381 -0.9085 -0.2456
vn -0.1291 -0.9085 0.3975
vn 0.4179 -0.9085 -0.0000
vn -0.1291 -0.9085 -0.3975
vn -0.3381 -0.9085 0.2456
vn 0.3381 -0.9085 0.2456
vn 0.0270 -0.9962 0.0830
vn 0.0706 -0.9962 -0.0513
vn -0.0706 -0.9962 -0.0513
vn -0.0270 -0.9962 0.0830
vn 0.0873 -0.9962 -0.0000
vn -0.0270 -0.9962 -0.0830
vn -0.0706 -0.9962 0.0513
vn 0.0706 -0.9962 0.0513
vn 0.0270 -0.9962 -0.0830
vn -0.0873 -0.9962 -0.0000
vn -0.0000 1.0000 -0.0000
vn -0.0000 -1.0000 -0.0000
vn 0.2932 0.3159 -0.9024
vn 0.7676 0.3159 -0.5577
vn 0.9488 0.3159 -0.0000
vn 0.7676 0.3159 0.5577
vn 0.2932 0.3159 0.9024
vn -0.2932 0.3159 0.9024
vn -0.7676 0.3159 0.5577
vn -0.9488 0.3159 -0.0000
vn -0.7528 0.6583 -0.0000
vn -0.7676 0.3159 -0.5577
vn -0.2932 0.3159 -0.9024
vn -0.6090 0.6583 -0.4425
vn -0.6090 0.6583 0.4425
vn -0.2326 0.6583 0.7160
vn 0.2326 0.6583 0.7160
vn 0.6090 0.6583 0.4425
vn 0.2326 0.6583 -0.7160
vn 0.7528 0.6583 -0.0000
vn 0.6090 0.6583 -0.4425
vn -0.2326 0.6583 -0.7160
vn -0.3729 0.8874 0.2709
vn 0.3729 0.8874 0.2709
vn 0.1424 0.8874 -0.4384
vn -0.4609 0.8874 -0.0000
vn 0.1424 0.8874 0.4384
vn 0.3729 0.8874 -0.2709
vn -0.3729 0.8874 -0.2709
vn -0.1424 0.8874 0.4384
vn 0.4609 0.8874 -0.0000
vn -0.1424 0.8874 -0.4384
vn -0.7005 -0.5004 0.5089
vn -0.2676 -0.5004 0.8234
vn 0.2675 -0.5004 0.8234
vn 0.7005 -0.5004 0.5089
vn 0.2675 -0.5004 -0.8234
vn 0.8658 -0.5004 -0.0000
vn 0.7005 -0.5004 -0.5089
vn -0.2675 -0.5004 -0.8234
vn -0.7005 -0.5004 -0.5089
vn -0.8658 -0.5004 -0.0000
vn 0.1367 -0.8968 -0.4208
vn -0.4424 -0.8968 -0.0000
vn 0.1367 -0.8968 0.4208
vn 0.3579 -0.8968 -0.2601
vn -0.3579 -0.8968 -0.2601
vn -0.1367 -0.8968 0.4208
vn 0.4424 -0.8968 -0.0000
vn -0.1367 -0.8968 -0.4208
vn -0.3579 -0.8968 0.2601
vn 0.3579 -0.8968 0.2601
vn 0.0289 -0.9956 0.0890
vn 0.0757 -0.9956 -0.0550
vn -0.0757 -0.9956 -0.0550
vn -0.0289 -0.9956 0.0890
vn 0.0935 -0.9956 -0.0000
vn -0.0289 -0.9956 -0.0890
vn -0.0757 -0.9956 0.0550
vn 0.0757 -0.9956 0.0550
vn 0.0289 -0.9956 -0.0890
vn -0.0935 -0.9956 -0.0000
vn 0.2949 0.2984 -0.9077
vn 0.7722 0.2984 -0.5610
vn 0.9544 0.2984 -0.0000
vn 0.7722 0.2984 0.5610
vn 0.2949 0.2984 0.9077
vn -0.2949 0.2984 0.9077
vn -0.7722 0.2984 0.5610
vn -0.9544 0.2984 -0.0000
vn -0.7729 0.6345 -0.0000
vn -0.7722 0.2984 -0.5610
vn -0.2949 0.2984 -0.9077
vn -0.6253 0.6345 -0.4543
vn -0.6253 0.6345 0.4543
vn -0.2388 0.6345 0.7351
vn 0.2388 0.6345 0.7351
vn 0.6253 0.6345 0.4543
vn 0.2388 0.6345 -0.7351
vn 0.7729 0.6345 -0.0000
vn 0.6253 0.6345 -0.4543
vn -0.2388 0.6345 -0.7351
vn -0.3916 0.8750 0.2845
vn 0.3916 0.8750 0.2845
vn 0.1496 0.8750 -0.4604
vn -0.4841 0.8750 -0.0000
vn 0.1496 0.8750 0.4604
vn 0.3916 0.8750 -0.2845
vn -0.3916 0.8750 -0.2845
vn -0.1496 0.8750 0.4604
vn 0.4841 0.8750 -0.0000
vn -0.1496 0.8750 -0.4604
vn -0.7111 -0.4769 0.5166
vn -0.2716 -0.4769 0.8359
vn 0.2716 -0.4769 0.8359
vn 0.7111 -0.4769 0.5166
vn 0.2716 -0.4769 -0.8359
vn 0.8789 -0.4769 -0.0000
vn 0.7111 -0.4769 -0.5166
vn -0.2716 -0.4769 -0.8359
vn -0.7111 -0.4769 -0.5166
vn -0.8789 -0.4769 -0.0000
vn 0.1437 -0.8852 -0.4424
vn -0.4651 -0.8852 -0.0000
vn 0.1437 -0.8852 0.4424
vn 0.3763 -0.8852 -0.2734
vn -0.3763 -0.8852 -0.2734
vn -0.1437 -0.8852 0.4424
vn 0.4651 -0.8852 -0.0000
vn -0.1437 -0.8852 -0.4424
vn -0.3763 -0.8852 0.2734
vn 0.3763 -0.8852 0.2734
vn 0.0308 -0.9950 0.0947
vn 0.0805 -0.9950 -0.0585
vn -0.0805 -0.9950 -0.0585
vn -0.0308 -0.9950 0.0947
vn 0.0996 -0.9950 -0.0000
vn -0.0308 -0.9950 -0.0947
vn -0.0805 -0.9950 0.0585
vn 0.0805 -0.9950 0.0585
vn 0.0308 -0.9950 -0.0947
vn -0.0996 -0.9950 -0.0000
vn -0.8474 -0.0327 -0.5299
vn -0.7136 -0.3903 0.5817
vn 0.3794 -0.1811 0.9073
vn 0.9452 0.3236 -0.0428
vn 0.2157 0.4079 -0.8872
vn 0.9934 0.0940 -0.0653
vn -0.8397 -0.0841 -0.5365
vn 0.2341 0.0202 -0.9720
vn 0.3728 0.0337 0.9273
vn -0.7598 -0.0763 0.6456
vn -0.7541 -0.1437 0.6408
vn 0.3723 0.0639 0.9259
vn 0.2340 0.0384 -0.9715
vn -0.8321 -0.1580 -0.5317
vn 0.9822 0.1762 -0.0646
vn -0.1606 -0.9729 0.1665
vn -0.0574 -0.2493 0.9667
vn -0.1004 0.7139 0.6930
vn 0.0538 -0.3230 0.9449
vt 0.817019 0.739079
vt 0.817980 0.723533
vt 0.813363 0.723830
vt 0.812259 0.739277
vt 0.812985 0.729512
vt 0.811869 0.743074
vt 0.817368 0.732727
vt 0.816388 0.745222
vt 0.820098 0.848317
vt 0.819146 0.755169
vt 0.816558 0.751442
vt 0.817073 0.844891
vt 0.820455 0.729031
vt 0.819571 0.742753
vt 0.820626 0.862874
vt 0.817455 0.859283
vt 0.816688 0.868651
vt 0.816341 0.853829
vt 0.815917 0.757674
vt 0.558095 0.933055
vt 0.558034 0.920767
vt 0.561644 0.920783
vt 0.561878 0.933071
vt 0.810993 0.853811
vt 0.811333 0.755495
vt 0.558415 0.928255
vt 0.558340 0.916187
vt 0.811446 0.848287
vt 0.811729 0.751643
vt 0.562396 0.925304
vt 0.562138 0.913372
vt 0.814044 0.647572
vt 0.814425 0.644549
vt 0.815089 0.585870
vt 0.814705 0.591632
vt 0.819082 0.644391
vt 0.821578 0.647316
vt 0.822280 0.591144
vt 0.819771 0.585568
vt 0.818465 0.649283
vt 0.819150 0.594892
vt 0.822062 0.573307
vt 0.819004 0.576968
vt 0.817072 0.340469
vt 0.819186 0.337938
vt 0.814661 0.573783
vt 0.815036 0.568153
vt 0.814330 0.334376
vt 0.814071 0.338267
vt 0.819610 0.567858
vt 0.817491 0.334172
vt 0.796890 0.453896
vt 0.796248 0.467117
vt 0.788492 0.406355
vt 0.788865 0.398667
vt 0.794756 0.483433
vt 0.794476 0.480296
vt 0.787461 0.414019
vt 0.787624 0.415844
vt 0.795795 0.462041
vt 0.788228 0.403403
vt 0.802825 0.516939
vt 0.804471 0.494149
vt 0.803332 0.492942
vt 0.801703 0.515483
vt 0.554014 0.627822
vt 0.552757 0.644711
vt 0.551997 0.643468
vt 0.553241 0.626764
vt 0.553632 0.622568
vt 0.554555 0.614137
vt 0.553776 0.613229
vt 0.552863 0.621567
vt 0.803174 0.520856
vt 0.802049 0.519357
vt 0.547321 0.613685
vt 0.548230 0.598233
vt 0.547776 0.595947
vt 0.546886 0.611082
vt 0.548542 0.602529
vt 0.547514 0.616341
vt 0.547075 0.613683
vt 0.548082 0.600155
vt 0.548985 0.591338
vt 0.548515 0.589194
vt 0.797586 0.456482
vt 0.796930 0.469980
vt 0.835400 0.512226
vt 0.835872 0.521960
vt 0.841583 0.477227
vt 0.841308 0.471566
vt 0.836971 0.533972
vt 0.837177 0.531662
vt 0.842341 0.482869
vt 0.842221 0.484212
vt 0.836206 0.518223
vt 0.841777 0.475053
vt 0.571324 0.676290
vt 0.570580 0.662336
vt 0.571307 0.661390
vt 0.572116 0.675149
vt 0.829162 0.546793
vt 0.830538 0.561836
vt 0.831602 0.560419
vt 0.830245 0.545587
vt 0.569898 0.656110
vt 0.570635 0.655251
vt 0.571227 0.678688
vt 0.571945 0.677513
vt 0.828570 0.534604
vt 0.829661 0.533568
vt 0.831856 0.557567
vt 0.830657 0.540972
vt 0.820692 0.711132
vt 0.817599 0.714834
vt 0.818259 0.657670
vt 0.821368 0.655708
vt 0.813208 0.711614
vt 0.813845 0.655963
vt 0.813587 0.705921
vt 0.818212 0.705623
vt 0.818875 0.652787
vt 0.814226 0.652945
vt 0.788046 0.404639
vt 0.788256 0.400328
vt 0.787469 0.408935
vt 0.787560 0.409958
vt 0.787899 0.402984
vt 0.816721 0.324694
vt 0.817678 0.323548
vt 0.815479 0.321936
vt 0.815362 0.323698
vt 0.816911 0.321843
vt 0.434894 0.484170
vt 0.429331 0.729181
vt 0.438883 0.729181
vt 0.446479 0.484170
vt 0.444786 0.729181
vt 0.453638 0.484170
vt 0.419779 0.729181
vt 0.423310 0.484170
vt 0.413875 0.729181
vt 0.416150 0.484170
vt 0.417862 0.665846
vt 0.422243 0.665846
vt 0.429331 0.665846
vt 0.436419 0.665846
vt 0.440799 0.665846
vt 0.425164 0.684917
vt 0.422589 0.684917
vt 0.436072 0.684917
vt 0.433497 0.684917
vt 0.429331 0.684917
vt 0.413830 0.485088
vt 0.419751 0.485088
vt 0.429331 0.485088
vt 0.438911 0.485088
vt 0.444831 0.485088
vt 0.434517 0.482880
vt 0.429331 0.482880
vt 0.420939 0.482880
vt 0.437722 0.482880
vt 0.424145 0.482880
vt 0.429331 0.480156
vt 0.432209 0.480156
vt 0.433988 0.480156
vt 0.426452 0.480156
vt 0.424673 0.480156
vt 0.428872 0.503146
vt 0.427481 0.641271
vt 0.439675 0.641271
vt 0.443661 0.503146
vt 0.447212 0.641271
vt 0.452800 0.503146
vt 0.415288 0.641271
vt 0.414084 0.503146
vt 0.407751 0.641271
vt 0.404944 0.503146
vt 0.401714 0.736272
vt 0.414084 0.503146
vt 0.407306 0.736272
vt 0.416354 0.736272
vt 0.425403 0.736272
vt 0.430995 0.736272
vt 0.422163 0.688994
vt 0.418875 0.688994
vt 0.436088 0.688994
vt 0.432800 0.688994
vt 0.427481 0.688994
vt 0.409084 0.506693
vt 0.416643 0.506693
vt 0.428872 0.506693
vt 0.441102 0.506693
vt 0.448660 0.506693
vt 0.435493 0.482832
vt 0.428872 0.482832
vt 0.418160 0.482832
vt 0.439584 0.482832
vt 0.422252 0.482832
vt 0.428872 0.480446
vt 0.432547 0.480446
vt 0.434818 0.480446
vt 0.425198 0.480446
vt 0.422926 0.480446
vt 0.414638 0.487866
vt 0.420202 0.669519
vt 0.431753 0.669519
vt 0.421517 0.487866
vt 0.438893 0.669519
vt 0.425769 0.487866
vt 0.408650 0.669519
vt 0.407759 0.487866
vt 0.401510 0.669519
vt 0.403507 0.487866
vt 0.406332 0.741207
vt 0.411630 0.741207
vt 0.420202 0.741207
vt 0.428773 0.741207
vt 0.434071 0.741207
vt 0.417945 0.677097
vt 0.414830 0.677097
vt 0.431136 0.677097
vt 0.428022 0.677097
vt 0.422983 0.677097
vt 0.405433 0.492242
vt 0.408949 0.492242
vt 0.414638 0.492242
vt 0.420327 0.492242
vt 0.423843 0.492242
vt 0.417718 0.476721
vt 0.414638 0.476721
vt 0.409655 0.476721
vt 0.419621 0.476721
vt 0.411558 0.476721
vt 0.414638 0.475169
vt 0.416348 0.475169
vt 0.417404 0.475169
vt 0.412929 0.475169
vt 0.411872 0.475169
vt 0.563538 0.838982
vt 0.563824 0.828688
vt 0.562102 0.825642
vt 0.561790 0.835892
vt 0.561358 0.841060
vt 0.561676 0.830736
vt 0.559379 0.817710
vt 0.559634 0.812999
vt 0.559785 0.798151
vt 0.559530 0.802870
vt 0.562750 0.812752
vt 0.562907 0.797903
vt 0.562337 0.820375
vt 0.562493 0.805540
vt 0.565037 0.756518
vt 0.562939 0.758145
vt 0.563077 0.751191
vt 0.565179 0.749561
vt 0.563355 0.754096
vt 0.563494 0.747135
vt 0.560799 0.698615
vt 0.563959 0.698365
vt 0.563851 0.683681
vt 0.560763 0.683925
vt 0.563540 0.706095
vt 0.560540 0.703392
vt 0.560510 0.688593
vt 0.563441 0.691234
vt 0.818645 0.904058
vt 0.811557 0.862842
vt 0.811905 0.908124
vt 0.811083 0.868631
vt 0.811363 0.914740
vt 0.817768 0.914763
vt 0.822268 0.908161
vt 0.818453 0.544208
vt 0.819122 0.557977
vt 0.820676 0.574969
vt 0.819797 0.571702
vt 0.830682 0.558943
vt 0.819594 0.552691
vt 0.829580 0.542113
vt 0.819909 0.497338
vt 0.819000 0.516040
vt 0.805037 0.500486
vt 0.805839 0.483981
vt 0.816890 0.539121
vt 0.816494 0.534683
vt 0.818359 0.508860
vt 0.804684 0.482885
vt 0.803891 0.499210
vt 0.795121 0.483435
vt 0.795407 0.486638
vt 0.796467 0.464798
s 0
usemtl Material.001
f 296/1/1 2/2/1 4/3/1 297/4/1
f 297/4/2 4/3/2 6/5/2 298/6/2
f 298/6/3 6/5/3 8/7/3 299/8/3
f 20/9/4 19/10/4 12/11/4 11/12/4
f 299/8/5 8/7/5 10/13/5 300/14/5
f 300/14/6 10/13/6 2/2/6 296/1/6
f 319/15/7 20/9/7 11/12/7 320/16/7
f 318/17/8 18/18/8 20/9/8 319/15/8
f 18/18/9 17/19/9 19/10/9 20/9/9
f 317/20/10 16/21/10 18/22/10 318/23/10
f 16/24/11 15/25/11 17/19/11 18/18/11
f 316/26/12 14/27/12 16/21/12 317/20/12
f 14/28/13 13/29/13 15/25/13 16/24/13
f 320/30/14 11/31/14 14/27/14 316/26/14
f 11/12/15 12/11/15 13/29/15 14/28/15
f 308/32/16 306/33/16 22/34/16 23/35/16
f 309/36/17 307/37/17 25/38/17 21/39/17
f 306/33/18 309/36/18 21/39/18 22/34/18
f 310/40/19 308/32/19 23/35/19 24/41/19
f 307/37/20 310/40/20 24/41/20 25/38/20
f 312/42/21 311/43/21 29/44/21 30/45/21
f 314/46/22 313/47/22 27/48/22 28/49/22
f 315/50/23 312/42/23 30/45/23 26/51/23
f 311/43/24 314/46/24 28/49/24 29/44/24
f 313/47/25 315/50/25 26/51/25 27/48/25
f 48/52/26 46/53/26 39/54/26 40/55/26
f 49/56/27 47/57/27 37/58/27 38/59/27
f 50/60/28 48/52/28 40/55/28 36/61/28
f 46/53/29 49/56/29 38/59/29 39/54/29
f 47/57/30 50/60/30 36/61/30 37/58/30
f 330/62/31 328/63/31 45/64/31 43/65/31
f 329/66/32 327/67/32 44/68/32 41/69/32
f 328/70/33 326/71/33 42/72/33 45/73/33
f 327/74/34 330/62/34 43/65/34 44/75/34
f 326/71/35 329/66/35 41/69/35 42/72/35
f 335/76/36 333/77/36 50/78/36 47/79/36
f 334/80/37 332/81/37 49/82/37 46/83/37
f 333/77/38 331/84/38 48/85/38 50/78/38
f 332/81/39 335/76/39 47/79/39 49/82/39
f 331/86/40 334/87/40 46/53/40 48/52/40
f 68/88/41 66/89/41 59/90/41 60/91/41
f 69/92/42 67/93/42 57/94/42 58/95/42
f 70/96/43 68/88/43 60/91/43 56/97/43
f 66/89/44 69/92/44 58/95/44 59/90/44
f 67/93/45 70/96/45 56/97/45 57/94/45
f 325/98/46 323/99/46 65/100/46 63/101/46
f 324/102/47 322/103/47 64/104/47 61/105/47
f 323/99/48 321/106/48 62/107/48 65/100/48
f 322/108/49 325/98/49 63/101/49 64/109/49
f 321/110/50 324/102/50 61/105/50 62/111/50
f 63/112/51 65/113/51 70/96/51 67/93/51
f 61/105/52 64/104/52 69/92/52 66/89/52
f 65/113/53 62/111/53 68/88/53 70/96/53
f 64/104/54 63/112/54 67/93/54 69/92/54
f 62/111/55 61/105/55 66/89/55 68/88/55
f 305/114/56 303/115/56 75/116/56 73/117/56
f 303/115/57 301/118/57 72/119/57 75/116/57
f 304/120/58 302/121/58 74/122/58 71/123/58
f 302/121/59 305/114/59 73/117/59 74/122/59
f 301/118/60 304/120/60 71/123/60 72/119/60
f 40/55/61 39/54/61 79/124/61 80/125/61
f 38/59/62 37/58/62 77/126/62 78/127/62
f 36/61/63 40/55/63 80/125/63 76/128/63
f 39/54/64 38/59/64 78/127/64 79/124/64
f 37/58/65 36/61/65 76/128/65 77/126/65
f 79/124/66 78/127/66 80/125/66
f 76/128/66 80/125/66 77/126/66
f 77/126/66 80/125/66 78/127/66
f 30/45/67 29/44/67 84/129/67 85/130/67
f 28/49/68 27/48/68 82/131/68 83/132/68
f 26/51/69 30/45/69 85/130/69 81/133/69
f 29/44/70 28/49/70 83/132/70 84/129/70
f 27/48/71 26/51/71 81/133/71 82/131/71
f 83/132/72 82/131/72 84/129/72
f 81/133/72 85/130/72 82/131/72
f 85/130/72 84/129/72 82/131/72
f 60/91/73 58/95/73 57/94/73
f 57/94/73 56/97/73 60/91/73
f 59/90/73 58/95/73 60/91/73
f 86/134/74 87/135/74 89/136/74 88/137/74
f 88/137/75 89/136/75 91/138/75 90/139/75
f 90/139/76 91/138/76 93/138/76 92/139/76
f 92/139/77 93/138/77 95/136/77 94/137/77
f 94/137/78 95/136/78 97/135/78 96/134/78
f 96/134/79 97/135/79 99/140/79 98/141/79
f 98/141/80 99/140/80 101/142/80 100/143/80
f 100/143/81 101/142/81 103/142/81 102/143/81
f 103/142/82 101/142/82 113/144/82 114/144/82
f 102/143/83 103/142/83 105/140/83 104/141/83
f 104/141/84 105/140/84 87/135/84 86/134/84
f 105/140/85 103/142/85 114/144/85 115/145/85
f 101/142/86 99/140/86 112/145/86 113/144/86
f 99/140/87 97/135/87 111/146/87 112/145/87
f 97/135/88 95/136/88 110/147/88 111/146/88
f 95/136/89 93/138/89 109/148/89 110/147/89
f 89/136/90 87/135/90 106/146/90 107/147/90
f 93/138/91 91/138/91 108/148/91 109/148/91
f 91/138/92 89/136/92 107/147/92 108/148/92
f 87/135/93 105/140/93 115/145/93 106/146/93
f 113/144/94 112/145/94 122/149/94 123/150/94
f 110/147/95 109/148/95 119/151/95 120/152/95
f 107/147/96 106/146/96 116/153/96 117/152/96
f 114/144/97 113/144/97 123/150/97 124/150/97
f 111/146/98 110/147/98 120/152/98 121/153/98
f 108/148/99 107/147/99 117/152/99 118/151/99
f 115/145/100 114/144/100 124/150/100 125/149/100
f 112/145/101 111/146/101 121/153/101 122/149/101
f 109/148/102 108/148/102 118/151/102 119/151/102
f 106/146/103 115/145/103 125/149/103 116/153/103
f 98/141/104 100/143/104 133/154/104 132/155/104
f 96/134/105 98/141/105 132/155/105 131/156/105
f 94/137/106 96/134/106 131/156/106 130/157/106
f 92/139/107 94/137/107 130/157/107 129/158/107
f 86/134/108 88/137/108 127/157/108 126/156/108
f 90/139/109 92/139/109 129/158/109 128/158/109
f 88/137/110 90/139/110 128/158/110 127/157/110
f 104/141/111 86/134/111 126/156/111 135/155/111
f 102/143/112 104/141/112 135/155/112 134/154/112
f 100/143/113 102/143/113 134/154/113 133/154/113
f 126/156/114 127/157/114 137/159/114 136/160/114
f 133/154/115 134/154/115 144/161/115 143/161/115
f 130/157/116 131/156/116 141/160/116 140/159/116
f 127/157/117 128/158/117 138/162/117 137/159/117
f 134/154/118 135/155/118 145/163/118 144/161/118
f 131/156/119 132/155/119 142/163/119 141/160/119
f 128/158/120 129/158/120 139/162/120 138/162/120
f 135/155/121 126/156/121 136/160/121 145/163/121
f 132/155/122 133/154/122 143/161/122 142/163/122
f 129/158/123 130/157/123 140/159/123 139/162/123
f 140/159/124 141/160/124 151/164/124 150/165/124
f 137/159/125 138/162/125 148/166/125 147/165/125
f 144/161/126 145/163/126 155/167/126 154/168/126
f 141/160/127 142/163/127 152/167/127 151/164/127
f 138/162/128 139/162/128 149/166/128 148/166/128
f 145/163/129 136/160/129 146/164/129 155/167/129
f 142/163/130 143/161/130 153/168/130 152/167/130
f 139/162/131 140/159/131 150/165/131 149/166/131
f 136/160/132 137/159/132 147/165/132 146/164/132
f 143/161/133 144/161/133 154/168/133 153/168/133
f 117/152/134 116/153/134 121/153/134 120/152/134
f 118/151/134 117/152/134 120/152/134 119/151/134
f 122/149/134 121/153/134 116/153/134 125/149/134
f 123/150/134 122/149/134 125/149/134 124/150/134
f 146/164/135 147/165/135 150/165/135 151/164/135
f 151/164/135 152/167/135 155/167/135 146/164/135
f 147/165/135 148/166/135 149/166/135 150/165/135
f 152/167/135 153/168/135 154/168/135 155/167/135
f 156/169/136 157/170/136 159/171/136 158/172/136
f 158/172/137 159/171/137 161/173/137 160/174/137
f 160/174/138 161/173/138 163/173/138 162/174/138
f 162/174/139 163/173/139 165/171/139 164/172/139
f 164/172/140 165/171/140 167/170/140 166/169/140
f 166/169/141 167/170/141 169/175/141 168/176/141
f 168/176/142 169/175/142 171/177/142 170/178/142
f 170/178/143 171/177/143 173/177/143 172/178/143
f 173/177/144 171/177/144 183/179/144 184/179/144
f 172/178/145 173/177/145 175/175/145 174/180/145
f 174/180/146 175/175/146 157/170/146 156/169/146
f 175/175/147 173/177/147 184/179/147 185/181/147
f 171/177/148 169/175/148 182/181/148 183/179/148
f 169/175/149 167/170/149 181/182/149 182/181/149
f 167/170/150 165/171/150 180/183/150 181/182/150
f 165/171/151 163/173/151 179/184/151 180/183/151
f 159/171/152 157/170/152 176/182/152 177/183/152
f 163/173/153 161/173/153 178/184/153 179/184/153
f 161/173/154 159/171/154 177/183/154 178/184/154
f 157/170/155 175/175/155 185/181/155 176/182/155
f 183/179/156 182/181/156 192/185/156 193/186/156
f 180/183/157 179/184/157 189/187/157 190/188/157
f 177/183/158 176/182/158 186/189/158 187/188/158
f 184/179/159 183/179/159 193/186/159 194/186/159
f 181/182/160 180/183/160 190/188/160 191/189/160
f 178/184/161 177/183/161 187/188/161 188/187/161
f 185/181/162 184/179/162 194/186/162 195/185/162
f 182/181/163 181/182/163 191/189/163 192/185/163
f 179/184/164 178/184/164 188/187/164 189/187/164
f 176/182/165 185/181/165 195/185/165 186/189/165
f 168/176/166 170/178/166 203/190/166 202/191/166
f 166/169/167 168/176/167 202/191/167 201/192/167
f 164/172/168 166/169/168 201/192/168 200/193/168
f 162/174/169 164/172/169 200/193/169 199/194/169
f 156/169/170 158/172/170 197/193/170 196/192/170
f 160/174/171 162/174/171 199/194/171 198/194/171
f 158/172/172 160/174/172 198/194/172 197/193/172
f 174/180/173 156/169/173 196/192/173 205/191/173
f 172/178/174 174/180/174 205/191/174 204/190/174
f 170/178/175 172/178/175 204/190/175 203/190/175
f 196/192/176 197/193/176 207/195/176 206/196/176
f 203/190/177 204/190/177 214/197/177 213/197/177
f 200/193/178 201/192/178 211/196/178 210/195/178
f 197/193/179 198/194/179 208/198/179 207/195/179
f 204/190/180 205/191/180 215/199/180 214/197/180
f 201/192/181 202/191/181 212/199/181 211/196/181
f 198/194/182 199/194/182 209/198/182 208/198/182
f 205/191/183 196/192/183 206/196/183 215/199/183
f 202/191/184 203/190/184 213/197/184 212/199/184
f 199/194/185 200/193/185 210/195/185 209/198/185
f 210/195/186 211/196/186 221/200/186 220/201/186
f 207/195/187 208/198/187 218/202/187 217/201/187
f 214/197/188 215/199/188 225/203/188 224/204/188
f 211/196/189 212/199/189 222/203/189 221/200/189
f 208/198/190 209/198/190 219/202/190 218/202/190
f 215/199/191 206/196/191 216/200/191 225/203/191
f 212/199/192 213/197/192 223/204/192 222/203/192
f 209/198/193 210/195/193 220/201/193 219/202/193
f 206/196/194 207/195/194 217/201/194 216/200/194
f 213/197/195 214/197/195 224/204/195 223/204/195
f 187/188/134 186/189/134 191/189/134 190/188/134
f 188/187/134 187/188/134 190/188/134 189/187/134
f 192/185/134 191/189/134 186/189/134 195/185/134
f 193/186/134 192/185/134 195/185/134 194/186/134
f 216/200/135 217/201/135 220/201/135 221/200/135
f 221/200/135 222/203/135 225/203/135 216/200/135
f 217/201/135 218/202/135 219/202/135 220/201/135
f 222/203/135 223/204/135 224/204/135 225/203/135
f 226/205/196 227/206/196 229/207/196 228/208/196
f 228/208/197 229/207/197 231/209/197 230/210/197
f 230/210/198 231/209/198 233/209/198 232/210/198
f 232/210/199 233/209/199 235/207/199 234/208/199
f 234/208/200 235/207/200 237/206/200 236/205/200
f 236/205/201 237/206/201 239/211/201 238/212/201
f 238/212/202 239/211/202 241/213/202 240/214/202
f 240/214/203 241/213/203 243/213/203 242/214/203
f 243/213/204 241/213/204 253/215/204 254/215/204
f 242/214/205 243/213/205 245/211/205 244/212/205
f 244/212/206 245/211/206 227/206/206 226/205/206
f 245/211/207 243/213/207 254/215/207 255/216/207
f 241/213/208 239/211/208 252/216/208 253/215/208
f 239/211/209 237/206/209 251/217/209 252/216/209
f 237/206/210 235/207/210 250/218/210 251/217/210
f 235/207/211 233/209/211 249/219/211 250/218/211
f 229/207/212 227/206/212 246/217/212 247/218/212
f 233/209/213 231/209/213 248/219/213 249/219/213
f 231/209/214 229/207/214 247/218/214 248/219/214
f 227/206/215 245/211/215 255/216/215 246/217/215
f 253/215/216 252/216/216 262/220/216 263/221/216
f 250/218/217 249/219/217 259/222/217 260/223/217
f 247/218/218 246/217/218 256/224/218 257/223/218
f 254/215/219 253/215/219 263/221/219 264/221/219
f 251/217/220 250/218/220 260/223/220 261/224/220
f 248/219/221 247/218/221 257/223/221 258/222/221
f 255/216/222 254/215/222 264/221/222 265/220/222
f 252/216/223 251/217/223 261/224/223 262/220/223
f 249/219/224 248/219/224 258/222/224 259/222/224
f 246/217/225 255/216/225 265/220/225 256/224/225
f 238/212/226 240/214/226 273/225/226 272/226/226
f 236/205/227 238/212/227 272/226/227 271/227/227
f 234/208/228 236/205/228 271/227/228 270/228/228
f 232/210/229 234/208/229 270/228/229 269/229/229
f 226/205/230 228/208/230 267/228/230 266/227/230
f 230/210/231 232/210/231 269/229/231 268/229/231
f 228/208/232 230/210/232 268/229/232 267/228/232
f 244/212/233 226/205/233 266/227/233 275/226/233
f 242/214/234 244/212/234 275/226/234 274/225/234
f 240/214/235 242/214/235 274/225/235 273/225/235
f 266/227/236 267/228/236 277/230/236 276/231/236
f 273/225/237 274/225/237 284/232/237 283/232/237
f 270/228/238 271/227/238 281/231/238 280/230/238
f 267/228/239 268/229/239 278/233/239 277/230/239
f 274/225/240 275/226/240 285/234/240 284/232/240
f 271/227/241 272/226/241 282/234/241 281/231/241
f 268/229/242 269/229/242 279/233/242 278/233/242
f 275/226/243 266/227/243 276/231/243 285/234/243
f 272/226/244 273/225/244 283/232/244 282/234/244
f 269/229/245 270/228/245 280/230/245 279/233/245
f 280/230/246 281/231/246 291/235/246 290/236/246
f 277/230/247 278/233/247 288/237/247 287/236/247
f 284/232/248 285/234/248 295/238/248 294/239/248
f 281/231/249 282/234/249 292/238/249 291/235/249
f 278/233/250 279/233/250 289/237/250 288/237/250
f 285/234/251 276/231/251 286/235/251 295/238/251
f 282/234/252 283/232/252 293/239/252 292/238/252
f 279/233/253 280/230/253 290/236/253 289/237/253
f 276/231/254 277/230/254 287/236/254 286/235/254
f 283/232/255 284/232/255 294/239/255 293/239/255
f 257/223/134 256/224/134 261/224/134 260/223/134
f 258/222/134 257/223/134 260/223/134 259/222/134
f 262/220/134 261/224/134 256/224/134 265/220/134
f 263/221/134 262/220/134 265/220/134 264/221/134
f 286/235/135 287/236/135 290/236/135 291/235/135
f 291/235/135 292/238/135 295/238/135 286/235/135
f 287/236/135 288/237/135 289/237/135 290/236/135
f 292/238/135 293/239/135 294/239/135 295/238/135
f 19/240/256 300/241/256 296/242/256 12/243/256
f 17/244/257 299/245/257 300/241/257 19/240/257
f 15/25/258 298/6/258 299/8/258 17/19/258
f 13/29/259 297/4/259 298/6/259 15/25/259
f 12/11/260 296/1/260 297/4/260 13/29/260
f 6/246/261 4/247/261 304/248/261 301/249/261
f 2/2/262 10/13/262 305/114/262 302/121/262
f 4/247/263 2/250/263 302/251/263 304/248/263
f 8/252/264 6/246/264 301/249/264 303/253/264
f 10/13/265 8/7/265 303/115/265 305/114/265
f 73/254/266 75/255/266 310/256/266 307/257/266
f 75/116/267 72/119/267 308/32/267 310/40/267
f 71/123/268 74/122/268 309/36/268 306/33/268
f 74/258/269 73/254/269 307/257/269 309/259/269
f 72/119/270 71/123/270 306/33/270 308/32/270
f 22/260/25 21/261/25 315/262/25 313/263/25
f 24/264/24 23/265/24 314/266/24 311/267/24
f 21/39/23 25/38/23 312/42/23 315/50/23
f 23/265/22 22/260/22 313/263/22 314/266/22
f 25/38/21 24/41/21 311/43/21 312/42/21
f 1/268/14 320/16/14 316/269/14 3/270/14
f 3/270/12 316/269/12 317/271/12 5/272/12
f 5/272/10 317/271/10 318/17/10 7/273/10
f 7/273/8 318/17/8 319/15/8 9/274/8
f 9/274/7 319/15/7 320/16/7 1/268/7
f 55/275/50 54/276/50 324/102/50 321/110/50
f 53/277/271 52/278/271 325/279/271 322/103/271
f 51/280/48 55/275/48 321/110/48 323/281/48
f 54/276/47 53/277/47 322/103/47 324/102/47
f 52/278/272 51/280/272 323/281/272 325/279/272
f 35/282/273 34/283/273 329/284/273 326/285/273
f 33/286/34 32/287/34 330/62/34 327/74/34
f 31/288/33 35/282/33 326/285/33 328/63/33
f 34/283/274 33/286/274 327/74/274 329/284/274
f 32/287/31 31/288/31 328/63/31 330/62/31
f 42/289/40 41/290/40 334/87/40 331/86/40
f 44/75/39 43/65/39 335/291/39 332/292/39
f 45/64/38 42/289/38 331/86/38 333/293/38
f 41/290/37 44/75/37 332/292/37 334/87/37
f 43/65/36 45/64/36 333/293/36 335/291/36
