# Blender 5.1.0
# www.blender.org
mtllib smalltree001.mtl
o small_tree.001
v -0.361870 -0.009962 -0.906194
v -0.264207 3.489888 -0.267235
v 0.627961 -0.088798 -0.675905
v 0.413801 3.484124 -0.104079
v 0.707583 -0.217062 0.332172
v 0.469357 3.373963 0.582311
v -0.233045 -0.217499 0.724916
v -0.174323 3.311643 0.843372
v -0.893999 -0.089504 -0.040444
v -0.627686 3.383289 0.318318
v -0.131005 1.137096 -0.641849
v -0.055307 2.350982 -0.555775
v 0.653867 2.344952 -0.385116
v 0.695443 1.071273 -0.449571
v 0.711980 2.229727 0.332820
v 0.761921 0.964180 0.392112
v 0.038715 2.164543 0.605876
v -0.023448 0.963815 0.720031
v -0.435493 2.239482 0.056692
v -0.575303 1.070683 0.081003
v -0.527181 6.164611 -0.274848
v 0.160354 6.158766 -0.109399
v 0.216691 6.047057 0.586636
v -0.436035 5.983861 0.851365
v -0.895768 6.056514 0.318933
v -0.192471 11.038445 -0.096476
v 0.271837 11.034497 0.015256
v 0.309883 10.959057 0.485304
v -0.130918 10.916380 0.664082
v -0.441386 10.965445 0.304518
v -0.319931 7.651772 -0.181493
v -0.045902 7.151138 -0.044158
v -0.104059 7.065098 0.533601
v -0.414034 7.512562 0.667345
v -0.547448 7.875144 0.311389
v 4.105157 9.696262 0.087060
v 4.217812 9.490448 0.143520
v 4.193903 9.455076 0.381041
v 4.066470 9.639032 0.471379
v 4.011623 9.788092 0.289687
v 1.804838 7.838847 0.692491
v 1.688380 8.155346 0.306705
v 2.126182 7.523358 -0.003653
v 2.075416 7.448254 0.500675
v 1.886981 7.960363 -0.123533
v 2.927360 8.461040 0.613018
v 3.187601 8.205542 0.049244
v 2.833047 8.717358 0.300589
v 3.146489 8.144717 0.457676
v 2.993885 8.559451 -0.047840
v -0.501225 6.802016 0.591523
v -0.531023 6.433447 0.490417
v -0.660150 6.370104 0.065068
v -0.431945 6.699529 -0.096708
v -0.333726 6.966463 0.228662
v -3.758989 8.307177 0.393813
v -3.841926 8.155655 0.352248
v -3.824325 8.129615 0.177384
v -3.730507 8.265043 0.110877
v -3.690128 8.374782 0.244639
v -2.065486 6.939741 -0.051907
v -1.979750 7.172748 0.232111
v -2.302061 6.707478 0.460598
v -2.264687 6.652185 0.089309
v -2.125960 7.029202 0.548852
v -2.891891 7.397802 0.006601
v -3.083481 7.209702 0.421654
v -2.822457 7.586503 0.236613
v -3.053214 7.164924 0.120965
v -2.940866 7.470252 0.493128
v 0.287077 4.821445 -0.106739
v 0.343024 4.710510 0.584474
v -0.761727 4.719901 0.318625
v -0.395694 4.827250 -0.271042
v -0.305179 4.647752 0.847368
v 4.153530 9.704397 0.169432
v 4.216688 9.589011 0.201084
v 4.203284 9.569181 0.334246
v 4.131841 9.672312 0.384892
v 4.101092 9.755879 0.283030
v -0.107184 11.277468 0.106540
v 0.103056 11.275681 0.157133
v 0.120283 11.241522 0.369972
v -0.079313 11.222197 0.450923
v -0.219894 11.244413 0.288112
v -0.410658 6.340500 0.434168
v -0.422457 5.839866 0.127879
v 0.111758 5.753826 -0.099725
v 0.378378 6.201290 0.107363
v 0.130848 6.563871 0.395863
v -2.308844 8.384991 -3.572129
v -2.313694 8.179176 -3.698047
v -2.094074 8.143805 -3.791616
v -1.953490 8.327760 -3.723527
v -2.086226 8.476820 -3.587876
v -0.669374 6.527575 -1.848715
v -0.951214 6.844073 -1.560688
v -1.434195 6.212086 -1.794612
v -0.967878 6.136981 -1.993288
v -1.423896 6.649091 -1.527251
v -1.280201 7.149768 -2.793841
v -1.899594 6.894269 -2.750026
v -1.508450 7.406085 -2.560581
v -1.521945 6.833445 -2.910924
v -1.891253 7.248178 -2.533503
v 0.353988 5.490743 0.220307
v 0.279776 5.122175 0.295159
v -0.030616 5.058832 0.613361
v -0.282373 5.388257 0.491428
v -0.044671 5.655190 0.248507
v 1.751438 6.995904 3.169756
v 1.755009 6.844383 3.262458
v 1.593324 6.818342 3.331344
v 1.489826 6.953771 3.281216
v 1.587547 7.063509 3.181349
v 0.544455 5.628469 1.900973
v 0.751947 5.861476 1.688926
v 1.107520 5.396205 1.861143
v 0.764215 5.340912 2.007409
v 1.099937 5.717929 1.664311
v 0.994148 6.086529 2.596778
v 1.450147 5.898430 2.564522
v 1.162186 6.275231 2.425052
v 1.172121 5.853652 2.682976
v 1.444007 6.158979 2.405117
v -2.260000 8.393125 -3.654222
v -2.262719 8.277740 -3.724815
v -2.139594 8.257909 -3.777273
v -2.060778 8.361040 -3.739100
v -2.135194 8.444607 -3.663051
vn 0.2270 0.2781 -0.9334
vn 0.9753 0.2164 -0.0442
vn 0.3830 -0.1185 0.9161
vn -0.8527 0.0905 -0.5145
vn -0.7474 -0.2649 0.6092
vn -0.8477 -0.0212 -0.5301
vn -0.8294 0.2785 -0.4842
vn -0.7389 0.1338 0.6604
vn -0.7451 0.1020 0.6591
vn 0.3845 -0.0644 0.9209
vn 0.3778 0.0631 0.9238
vn 0.9956 -0.0415 -0.0839
vn 0.9966 0.0361 -0.0745
vn 0.2362 0.1728 -0.9562
vn 0.2321 0.0556 -0.9711
vn 0.9934 0.0940 -0.0653
vn -0.8397 -0.0841 -0.5365
vn 0.2341 0.0202 -0.9720
vn 0.3728 0.0337 0.9273
vn -0.7598 -0.0763 0.6456
vn -0.7501 0.0714 0.6574
vn 0.9963 -0.0206 -0.0839
vn -0.8533 0.0775 -0.5156
vn 0.3748 0.0120 0.9270
vn 0.2341 0.0195 -0.9720
vn -0.5188 0.5775 0.6304
vn 0.7806 -0.6248 -0.0145
vn -0.5676 0.6192 -0.5426
vn 0.3375 -0.2162 0.9162
vn 0.2475 -0.1280 -0.9604
vn 0.0583 -0.2343 -0.9704
vn 0.0546 -0.3284 0.9429
vn -0.1118 0.8847 -0.4526
vn 0.1698 -0.9771 -0.1284
vn -0.1007 0.7167 0.6901
vn 0.1624 -0.1774 -0.9707
vn 0.2298 -0.2961 0.9271
vn -0.3783 0.7649 -0.5213
vn 0.5418 -0.8376 -0.0702
vn -0.3297 0.6787 0.6563
vn 0.5188 0.5775 -0.6304
vn -0.7806 -0.6248 0.0145
vn 0.5676 0.6192 0.5426
vn -0.3375 -0.2162 -0.9162
vn -0.2475 -0.1280 0.9604
vn -0.0573 -0.2482 0.9670
vn -0.0828 -0.3925 -0.9160
vn 0.1118 0.8847 0.4526
vn -0.1606 -0.9734 0.1635
vn 0.0934 0.7557 -0.6482
vn -0.1624 -0.1774 0.9707
vn -0.2298 -0.2961 -0.9271
vn 0.3783 0.7649 0.5213
vn -0.5418 -0.8376 0.0702
vn 0.3297 0.6787 -0.6563
vn 0.3202 0.7775 0.5412
vn 0.9947 -0.0434 0.0937
vn 0.3082 0.9119 -0.2710
vn 0.7428 0.2009 0.6387
vn 0.8081 0.3039 -0.5046
vn 0.8465 0.5075 0.1608
vn -0.6103 0.5197 0.5979
vn 0.8256 0.5638 0.0237
vn -0.7417 0.5679 -0.3570
vn 0.2782 0.5172 0.8094
vn 0.1929 0.5943 -0.7808
vn -0.0303 0.9865 0.1608
vn -0.8465 0.5075 -0.1608
vn 0.8024 0.5775 0.1506
vn -0.3890 -0.6248 -0.6769
vn -0.2017 0.6192 0.7589
vn 0.6400 -0.2162 -0.7374
vn -0.9607 -0.1280 0.2462
vn -0.8783 -0.2343 0.4168
vn 0.7998 -0.3284 -0.5025
vn -0.3426 0.8847 0.3162
vn -0.1944 -0.9771 -0.0869
vn 0.6532 0.7167 -0.2444
vn -0.9287 -0.1774 0.3257
vn 0.7015 -0.2961 -0.6483
vn -0.2743 0.7649 0.5828
vn -0.3227 -0.8376 -0.4408
vn 0.7339 0.6787 -0.0276
vn -0.8024 0.5775 -0.1506
vn 0.3890 -0.6248 0.6769
vn 0.2017 0.6192 -0.7589
vn -0.6400 -0.2162 0.7374
vn 0.9607 -0.1280 -0.2462
vn 0.8748 -0.2482 -0.4160
vn -0.7626 -0.3925 0.5142
vn 0.3426 0.8847 -0.3162
vn 0.2207 -0.9734 0.0619
vn -0.6129 0.7557 0.2307
vn 0.9287 -0.1774 -0.3257
vn -0.7015 -0.2961 0.6483
vn 0.2743 0.7649 -0.5828
vn 0.3227 -0.8376 0.4408
vn -0.7339 0.6787 0.0276
vn 0.3198 0.7775 -0.5415
vn -0.3975 -0.0434 -0.9166
vn -0.3860 0.9119 -0.1393
vn 0.2015 0.2009 -0.9587
vn -0.8317 0.3039 -0.4647
vn -0.2673 0.5075 -0.8192
vn 0.2673 0.5075 0.8192
vt 0.558473 0.581150
vt 0.560081 0.499841
vt 0.554861 0.500252
vt 0.553013 0.581581
vt 0.554434 0.508117
vt 0.552566 0.589807
vt 0.559389 0.512566
vt 0.557749 0.594460
vt 0.562476 0.672554
vt 0.561399 0.589110
vt 0.559055 0.667812
vt 0.562879 0.507451
vt 0.564929 0.755382
vt 0.560832 0.749703
vt 0.559841 0.764520
vt 0.558227 0.680183
vt 0.552600 0.764489
vt 0.552181 0.680157
vt 0.553213 0.755332
vt 0.552693 0.672511
vt 0.552387 0.485501
vt 0.552817 0.477581
vt 0.550774 0.454909
vt 0.550340 0.462885
vt 0.558073 0.477166
vt 0.560891 0.484830
vt 0.558904 0.462209
vt 0.556066 0.454492
vt 0.557377 0.489981
vt 0.555365 0.467396
vt 0.553121 0.115942
vt 0.555859 0.111929
vt 0.549570 0.106281
vt 0.549234 0.112451
vt 0.553664 0.105959
vt 0.530199 0.272245
vt 0.529473 0.290544
vt 0.530366 0.113505
vt 0.530789 0.102863
vt 0.527786 0.313128
vt 0.527470 0.308785
vt 0.529201 0.124112
vt 0.529385 0.126637
vt 0.528961 0.283519
vt 0.530068 0.109419
vt 0.552361 0.384061
vt 0.554471 0.348320
vt 0.537482 0.326289
vt 0.535641 0.357488
vt 0.555195 0.358259
vt 0.552809 0.390204
vt 0.536031 0.362850
vt 0.538114 0.334964
vt 0.556222 0.332373
vt 0.539011 0.312369
vt 0.573735 0.352980
vt 0.574270 0.366452
vt 0.585557 0.093873
vt 0.585246 0.086038
vt 0.575512 0.383077
vt 0.575745 0.379880
vt 0.586414 0.101682
vt 0.586279 0.103541
vt 0.574647 0.361279
vt 0.585776 0.090865
vt 0.557419 0.435299
vt 0.555866 0.408986
vt 0.568374 0.392767
vt 0.569729 0.415736
vt 0.555333 0.416303
vt 0.557090 0.439821
vt 0.569442 0.419683
vt 0.567908 0.399154
vt 0.554577 0.397246
vt 0.567248 0.382519
vt 0.586215 0.076045
s 0
usemtl Material.001
f 12/1/1 2/2/1 4/3/1 13/4/1
f 13/4/2 4/3/2 6/5/2 15/6/2
f 15/6/3 6/5/3 8/7/3 17/8/3
f 20/9/4 19/10/4 12/1/4 11/11/4
f 17/8/5 8/7/5 10/12/5 19/10/5
f 19/10/6 10/12/6 2/2/6 12/1/6
f 9/13/7 20/9/7 11/11/7 1/14/7
f 7/15/8 18/16/8 20/9/8 9/13/8
f 18/16/9 17/8/9 19/10/9 20/9/9
f 5/17/10 16/18/10 18/16/10 7/15/10
f 16/18/11 15/6/11 17/8/11 18/16/11
f 3/19/12 14/20/12 16/18/12 5/17/12
f 14/20/13 13/4/13 15/6/13 16/18/13
f 1/14/14 11/11/14 14/20/14 3/19/14
f 11/11/15 12/1/15 13/4/15 14/20/15
f 72/21/16 71/22/16 22/23/16 23/24/16
f 74/25/17 73/26/17 25/27/17 21/28/17
f 71/22/18 74/25/18 21/28/18 22/23/18
f 75/29/19 72/21/19 23/24/19 24/30/19
f 73/26/20 75/29/20 24/30/20 25/27/20
f 25/27/21 24/30/21 29/31/21 30/32/21
f 23/24/22 22/23/22 27/33/22 28/34/22
f 21/28/23 25/27/23 30/32/23 26/35/23
f 24/30/24 23/24/24 28/34/24 29/31/24
f 22/23/25 21/28/25 26/35/25 27/33/25
f 48/36/26 46/37/26 39/38/26 40/39/26
f 49/40/27 47/41/27 37/42/27 38/43/27
f 50/44/28 48/36/28 40/39/28 36/45/28
f 46/37/29 49/40/29 38/43/29 39/38/29
f 47/41/30 50/44/30 36/45/30 37/42/30
f 32/46/31 31/47/31 45/48/31 43/49/31
f 34/50/32 33/51/32 44/52/32 41/53/32
f 31/47/33 35/54/33 42/55/33 45/48/33
f 33/51/34 32/46/34 43/49/34 44/52/34
f 35/54/35 34/50/35 41/53/35 42/55/35
f 43/49/36 45/48/36 50/44/36 47/41/36
f 41/53/37 44/52/37 49/40/37 46/37/37
f 45/48/38 42/55/38 48/36/38 50/44/38
f 44/52/39 43/49/39 47/41/39 49/40/39
f 42/55/40 41/53/40 46/37/40 48/36/40
f 68/56/41 66/57/41 59/58/41 60/59/41
f 69/60/42 67/61/42 57/62/42 58/63/42
f 70/64/43 68/56/43 60/59/43 56/65/43
f 66/57/44 69/60/44 58/63/44 59/58/44
f 67/61/45 70/64/45 56/65/45 57/62/45
f 52/66/46 51/67/46 65/68/46 63/69/46
f 54/70/47 53/71/47 64/72/47 61/73/47
f 51/67/48 55/74/48 62/75/48 65/68/48
f 53/71/49 52/66/49 63/69/49 64/72/49
f 55/74/50 54/70/50 61/73/50 62/75/50
f 63/69/51 65/68/51 70/64/51 67/61/51
f 61/73/52 64/72/52 69/60/52 66/57/52
f 65/68/53 62/75/53 68/56/53 70/64/53
f 64/72/54 63/69/54 67/61/54 69/60/54
f 62/75/55 61/73/55 66/57/55 68/56/55
f 10/12/20 8/7/20 75/29/20 73/26/20
f 8/7/19 6/5/19 72/21/19 75/29/19
f 4/3/18 2/2/18 74/25/18 71/22/18
f 2/2/17 10/12/17 73/26/17 74/25/17
f 6/5/16 4/3/16 71/22/16 72/21/16
f 40/39/56 39/38/56 79/38/56 80/39/56
f 38/43/57 37/42/57 77/42/57 78/43/57
f 36/45/58 40/39/58 80/39/58 76/45/58
f 39/38/59 38/43/59 78/43/59 79/38/59
f 37/42/60 36/45/60 76/45/60 77/42/60
f 79/38/61 78/43/61 80/39/61
f 76/45/61 80/39/61 77/42/61
f 77/42/61 80/39/61 78/43/61
f 30/32/62 29/31/62 84/31/62 85/32/62
f 28/34/63 27/33/63 82/33/63 83/34/63
f 26/35/64 30/32/64 85/32/64 81/35/64
f 29/31/65 28/34/65 83/34/65 84/31/65
f 27/33/66 26/35/66 81/35/66 82/33/66
f 83/34/67 82/33/67 84/31/67
f 81/35/67 85/32/67 82/33/67
f 85/32/67 84/31/67 82/33/67
f 60/76/68 58/63/68 57/62/68
f 57/62/68 56/65/68 60/76/68
f 59/58/68 58/63/68 60/59/68
f 103/36/69 101/37/69 94/38/69 95/39/69
f 104/40/70 102/41/70 92/42/70 93/43/70
f 105/44/71 103/36/71 95/39/71 91/45/71
f 101/37/72 104/40/72 93/43/72 94/38/72
f 102/41/73 105/44/73 91/45/73 92/42/73
f 87/46/74 86/47/74 100/48/74 98/49/74
f 89/50/75 88/51/75 99/52/75 96/53/75
f 86/47/76 90/54/76 97/55/76 100/48/76
f 88/51/77 87/46/77 98/49/77 99/52/77
f 90/54/78 89/50/78 96/53/78 97/55/78
f 98/49/79 100/48/79 105/44/79 102/41/79
f 96/53/80 99/52/80 104/40/80 101/37/80
f 100/48/81 97/55/81 103/36/81 105/44/81
f 99/52/82 98/49/82 102/41/82 104/40/82
f 97/55/83 96/53/83 101/37/83 103/36/83
f 123/56/84 121/57/84 114/58/84 115/59/84
f 124/60/85 122/61/85 112/62/85 113/63/85
f 125/64/86 123/56/86 115/59/86 111/65/86
f 121/57/87 124/60/87 113/63/87 114/58/87
f 122/61/88 125/64/88 111/65/88 112/62/88
f 107/66/89 106/67/89 120/68/89 118/69/89
f 109/70/90 108/71/90 119/72/90 116/73/90
f 106/67/91 110/74/91 117/75/91 120/68/91
f 108/71/92 107/66/92 118/69/92 119/72/92
f 110/74/93 109/70/93 116/73/93 117/75/93
f 118/69/94 120/68/94 125/64/94 122/61/94
f 116/73/95 119/72/95 124/60/95 121/57/95
f 120/68/96 117/75/96 123/56/96 125/64/96
f 119/72/97 118/69/97 122/61/97 124/60/97
f 117/75/98 116/73/98 121/57/98 123/56/98
f 95/39/99 94/38/99 129/38/99 130/39/99
f 93/43/100 92/42/100 127/42/100 128/43/100
f 91/45/101 95/39/101 130/39/101 126/45/101
f 94/38/102 93/43/102 128/43/102 129/38/102
f 92/42/103 91/45/103 126/45/103 127/42/103
f 129/38/104 128/43/104 130/39/104
f 126/45/104 130/39/104 127/42/104
f 127/42/104 130/39/104 128/43/104
f 115/76/105 113/63/105 112/62/105
f 112/62/105 111/65/105 115/76/105
f 114/58/105 113/63/105 115/59/105
