# Blender 5.1.0
# www.blender.org
mtllib smalltree002.mtl
o small_tree.002
v -0.035938 0.041328 -0.867214
v 0.039850 2.757233 -0.371379
v 0.732177 -0.019849 -0.688508
v 0.565988 2.752760 -0.244768
v 0.793965 -0.119383 0.093765
v 0.609100 2.667274 0.287875
v 0.064032 -0.119721 0.398536
v 0.109600 2.618914 0.490459
v -0.448873 -0.020397 -0.195388
v -0.242212 2.674511 0.083014
v 0.143215 0.931451 -0.662082
v 0.201958 1.873434 -0.595287
v 0.752281 1.868755 -0.462855
v 0.784543 0.880373 -0.512872
v 0.797376 1.779340 0.094268
v 0.836131 0.797268 0.140279
v 0.274918 1.728756 0.306161
v 0.226680 0.796985 0.394746
v -0.093070 1.786910 -0.120009
v -0.201563 0.879914 -0.101143
v -0.164220 4.832833 -0.377286
v 0.369311 4.828298 -0.248897
v 0.413029 4.741611 0.291231
v -0.093490 4.692571 0.496662
v -0.450246 4.748949 0.083491
v 0.095517 8.614957 -0.238868
v 0.455823 8.611894 -0.152164
v 0.485347 8.553352 0.212597
v 0.143283 8.520234 0.351329
v -0.097643 8.558309 0.072305
v -0.003392 5.986879 -0.304842
v 0.209256 5.598385 -0.198270
v 0.164126 5.531617 0.250075
v -0.076417 5.878852 0.353861
v -0.179947 6.160217 0.077637
v 3.430502 7.573416 -0.096443
v 3.517923 7.413703 -0.052631
v 3.499370 7.386254 0.131687
v 3.400481 7.529005 0.201790
v 3.357919 7.644676 0.060797
v 1.645441 6.132051 0.373374
v 1.555069 6.377655 0.074003
v 1.894805 5.887229 -0.166838
v 1.855411 5.828948 0.224524
v 1.709184 6.226348 -0.259865
v 2.516525 6.614876 0.311703
v 2.718473 6.416607 -0.125789
v 2.443337 6.813780 0.069256
v 2.686570 6.369408 0.191157
v 2.568148 6.691243 -0.201127
v -0.144078 5.327463 0.295022
v -0.167201 5.041452 0.216564
v -0.267405 4.992297 -0.113509
v -0.090316 5.247933 -0.239049
v -0.014098 5.455075 0.013440
v -2.672122 6.495477 0.141599
v -2.736482 6.377895 0.109344
v -2.722823 6.357688 -0.026352
v -2.650020 6.462781 -0.077962
v -2.618686 6.547939 0.025838
v -1.357954 5.434339 -0.204282
v -1.291422 5.615154 0.016117
v -1.541537 5.254101 0.193424
v -1.512535 5.211194 -0.094698
v -1.404882 5.503760 0.261910
v -1.999249 5.789797 -0.158880
v -2.147924 5.643831 0.163203
v -1.945368 5.936230 0.019611
v -2.124437 5.609082 -0.070133
v -2.037254 5.846018 0.218667
v 0.467649 3.790529 -0.246833
v 0.511064 3.704442 0.289553
v -0.346229 3.711730 0.083253
v -0.062185 3.795033 -0.374333
v 0.008055 3.655742 0.493560
v 3.468040 7.579728 -0.032523
v 3.517051 7.490189 -0.007960
v 3.506649 7.474800 0.095374
v 3.451209 7.554830 0.134676
v 3.427348 7.619679 0.055631
v 0.161700 8.800441 -0.081327
v 0.324848 8.799054 -0.042067
v 0.338216 8.772546 0.123098
v 0.183329 8.757550 0.185917
v 0.074237 8.774790 0.059574
v 2.813348 7.874976 -2.147818
v 2.813348 8.877904 -1.771249
v 4.074971 7.874976 -1.737892
v 3.853629 8.877904 -1.433241
v 4.854697 7.874976 -0.664691
v 4.496558 8.877904 -0.548325
v 4.854697 7.874976 0.661858
v 4.496558 8.877904 0.545491
v 4.074971 7.874976 1.735058
v 3.853629 8.877904 1.430407
v 2.813348 7.874976 2.144984
v 2.813348 8.877904 1.768414
v 1.551725 7.874976 1.735058
v 1.773067 8.877904 1.430407
v 0.771999 7.874976 0.661858
v 1.130138 8.877904 0.545491
v 0.771999 7.874976 -0.664692
v 1.130138 8.877904 -0.548325
v 1.551726 7.874976 -1.737892
v 1.773068 8.877904 -1.433241
v 2.813348 9.340921 -1.314695
v 3.585273 9.340921 -1.063881
v 4.062349 9.340921 -0.407242
v 4.062349 9.340921 0.404408
v 3.585273 9.340921 1.061047
v 2.813348 9.340921 1.311861
v 2.041423 9.340921 1.061047
v 1.564347 9.340921 0.404408
v 1.564347 9.340921 -0.407242
v 2.041423 9.340921 -1.063881
v 2.813348 9.590238 -0.773407
v 3.267113 9.590238 -0.625970
v 3.547554 9.590238 -0.239975
v 3.547554 9.590238 0.237141
v 3.267112 9.590238 0.623137
v 2.813348 9.590238 0.770573
v 2.359583 9.590238 0.623136
v 2.079142 9.590238 0.237141
v 2.079142 9.590238 -0.239975
v 2.359584 9.590238 -0.625970
v 2.813348 7.305109 -1.776432
v 3.856676 7.305109 -1.437435
v 4.501488 7.305109 -0.549927
v 4.501488 7.305109 0.547093
v 3.856676 7.305109 1.434600
v 2.813348 7.305109 1.773598
v 1.770020 7.305109 1.434600
v 1.125208 7.305109 0.547093
v 1.125208 7.305109 -0.549927
v 1.770021 7.305109 -1.437435
v 2.813348 6.948942 -0.962307
v 3.378145 6.948942 -0.778793
v 3.727209 6.948942 -0.298348
v 3.727209 6.948942 0.295514
v 3.378145 6.948942 0.775959
v 2.813348 6.948942 0.959473
v 2.248551 6.948942 0.775959
v 1.899487 6.948942 0.295514
v 1.899487 6.948942 -0.298349
v 2.248551 6.948942 -0.778794
v 2.813348 6.913325 -0.534779
v 3.126851 6.913325 -0.432916
v 3.320606 6.913325 -0.166235
v 3.320606 6.913325 0.163401
v 3.126850 6.913325 0.430082
v 2.813348 6.913325 0.531945
v 2.499846 6.913325 0.430082
v 2.306090 6.913325 0.163401
v 2.306090 6.913325 -0.166235
v 2.499846 6.913325 -0.432916
v -2.826507 6.572574 -2.124009
v -2.826507 7.636256 -1.751616
v -1.578878 6.572574 -1.718630
v -1.797765 7.636256 -1.417358
v -0.807801 6.572574 -0.657334
v -1.161968 7.636256 -0.542258
v -0.807801 6.572574 0.654500
v -1.161968 7.636256 0.539425
v -1.578879 6.572574 1.715797
v -1.797765 7.636256 1.414525
v -2.826507 6.572574 2.121175
v -2.826507 7.636256 1.748783
v -4.074136 6.572574 1.715796
v -3.855248 7.636256 1.414524
v -4.845212 6.572574 0.654500
v -4.491045 7.636256 0.539424
v -4.845212 6.572574 -0.657334
v -4.491045 7.636256 -0.542259
v -4.074134 6.572574 -1.718630
v -3.855248 7.636256 -1.417358
v -2.826507 8.127321 -1.300127
v -2.063144 8.127321 -1.052095
v -1.591360 8.127321 -0.402740
v -1.591360 8.127321 0.399907
v -2.063144 8.127321 1.049262
v -2.826507 8.127321 1.297293
v -3.589869 8.127321 1.049262
v -4.061654 8.127321 0.399907
v -4.061654 8.127321 -0.402740
v -3.589869 8.127321 -1.052096
v -2.826507 8.391741 -0.764844
v -2.377776 8.391741 -0.619042
v -2.100444 8.391741 -0.237329
v -2.100445 8.391741 0.234495
v -2.377776 8.391741 0.616209
v -2.826507 8.391741 0.762010
v -3.275238 8.391741 0.616209
v -3.552569 8.391741 0.234495
v -3.552569 8.391741 -0.237329
v -3.275238 8.391741 -0.619042
v -2.826507 5.968185 -1.756743
v -1.794752 5.968185 -1.421505
v -1.157092 5.968185 -0.543842
v -1.157092 5.968185 0.541009
v -1.794752 5.968185 1.418672
v -2.826507 5.968185 1.753909
v -3.858261 5.968185 1.418671
v -4.495921 5.968185 0.541009
v -4.495921 5.968185 -0.543843
v -3.858261 5.968185 -1.421506
v -2.826507 5.590443 -0.951648
v -2.267975 5.590443 -0.770170
v -1.922783 5.590443 -0.295054
v -1.922783 5.590443 0.292221
v -2.267975 5.590443 0.767336
v -2.826507 5.590443 0.948815
v -3.385039 5.590443 0.767336
v -3.730230 5.590443 0.292221
v -3.730230 5.590443 -0.295054
v -3.385038 5.590443 -0.770170
v -2.826507 5.552668 -0.528863
v -2.516482 5.552668 -0.428129
v -2.324875 5.552668 -0.164407
v -2.324876 5.552668 0.161573
v -2.516482 5.552668 0.425296
v -2.826507 5.552668 0.526029
v -3.136532 5.552668 0.425296
v -3.328138 5.552668 0.161573
v -3.328138 5.552668 -0.164407
v -3.136532 5.552668 -0.428130
v -0.466340 7.483868 -2.333735
v -0.466340 8.728678 -1.924547
v 0.904562 7.483868 -1.888302
v 0.664048 8.728678 -1.557262
v 1.751826 7.483868 -0.722143
v 1.362666 8.728678 -0.595697
v 1.751826 7.483868 0.719309
v 1.362666 8.728678 0.592863
v 0.904562 7.483868 1.885468
v 0.664047 8.728678 1.554429
v -0.466340 7.483868 2.330901
v -0.466340 8.728678 1.921714
v -1.837242 7.483868 1.885468
v -1.596728 8.728678 1.554428
v -2.684506 7.483868 0.719309
v -2.295346 8.728678 0.592863
v -2.684507 7.483868 -0.722143
v -2.295346 8.728678 -0.595697
v -1.837242 7.483868 -1.888302
v -1.596727 8.728678 -1.557263
v -0.466340 9.303363 -1.428448
v 0.372448 9.303363 -1.155909
v 0.890847 9.303363 -0.442394
v 0.890847 9.303363 0.439560
v 0.372447 9.303363 1.153076
v -0.466340 9.303363 1.425614
v -1.305128 9.303363 1.153075
v -1.823527 9.303363 0.439560
v -1.823527 9.303363 -0.442394
v -1.305128 9.303363 -1.155910
v -0.466340 9.612809 -0.840275
v 0.026729 9.612809 -0.680068
v 0.331462 9.612809 -0.260638
v 0.331462 9.612809 0.257805
v 0.026728 9.612809 0.677234
v -0.466340 9.612809 0.837442
v -0.959409 9.612809 0.677234
v -1.264142 9.612809 0.257805
v -1.264142 9.612809 -0.260639
v -0.959409 9.612809 -0.680068
v -0.466340 6.776563 -1.930180
v 0.667359 6.776563 -1.561819
v 1.368023 6.776563 -0.597438
v 1.368023 6.776563 0.594604
v 0.667358 6.776563 1.558985
v -0.466340 6.776563 1.927347
v -1.600039 6.776563 1.558985
v -2.300703 6.776563 0.594604
v -2.300703 6.776563 -0.597438
v -1.600038 6.776563 -1.561820
v -0.466340 6.334497 -1.045537
v 0.147379 6.334497 -0.846128
v 0.526677 6.334497 -0.324068
v 0.526677 6.334497 0.321234
v 0.147378 6.334497 0.843294
v -0.466340 6.334497 1.042704
v -1.080059 6.334497 0.843294
v -1.459358 6.334497 0.321234
v -1.459358 6.334497 -0.324068
v -1.080058 6.334497 -0.846128
v -0.466340 6.290290 -0.580978
v -0.125683 6.290290 -0.470292
v 0.084855 6.290290 -0.180511
v 0.084855 6.290290 0.177677
v -0.125683 6.290290 0.467458
v -0.466340 6.290290 0.578144
v -0.806998 6.290290 0.467458
v -1.017535 6.290290 0.177677
v -1.017535 6.290290 -0.180511
v -0.806997 6.290290 -0.470292
vn 0.2270 0.2781 -0.9334
vn 0.9753 0.2164 -0.0442
vn 0.3830 -0.1185 0.9161
vn -0.8527 0.0905 -0.5145
vn -0.7474 -0.2649 0.6092
vn -0.8477 -0.0212 -0.5301
vn -0.8294 0.2785 -0.4842
vn -0.7389 0.1338 0.6604
vn -0.7451 0.1020 0.6591
vn 0.3845 -0.0644 0.9209
vn 0.3778 0.0631 0.9238
vn 0.9956 -0.0415 -0.0839
vn 0.9966 0.0361 -0.0745
vn 0.2362 0.1728 -0.9562
vn 0.2321 0.0556 -0.9711
vn 0.9934 0.0940 -0.0653
vn -0.8397 -0.0841 -0.5365
vn 0.2341 0.0202 -0.9720
vn 0.3728 0.0337 0.9273
vn -0.7598 -0.0763 0.6456
vn -0.7501 0.0714 0.6574
vn 0.9963 -0.0206 -0.0839
vn -0.8533 0.0775 -0.5156
vn 0.3748 0.0120 0.9270
vn 0.2341 0.0195 -0.9720
vn -0.5188 0.5775 0.6304
vn 0.7806 -0.6248 -0.0145
vn -0.5676 0.6192 -0.5426
vn 0.3375 -0.2162 0.9162
vn 0.2475 -0.1280 -0.9604
vn 0.0583 -0.2343 -0.9704
vn 0.0546 -0.3284 0.9429
vn -0.1118 0.8847 -0.4526
vn 0.1698 -0.9771 -0.1284
vn -0.1007 0.7167 0.6901
vn 0.1624 -0.1774 -0.9707
vn 0.2298 -0.2961 0.9271
vn -0.3783 0.7649 -0.5213
vn 0.5418 -0.8376 -0.0702
vn -0.3297 0.6787 0.6563
vn 0.5188 0.5775 -0.6304
vn -0.7806 -0.6248 0.0145
vn 0.5676 0.6192 0.5426
vn -0.3375 -0.2162 -0.9162
vn -0.2475 -0.1280 0.9604
vn -0.0573 -0.2482 0.9670
vn -0.0828 -0.3925 -0.9160
vn 0.1118 0.8847 0.4526
vn -0.1606 -0.9734 0.1635
vn 0.0934 0.7557 -0.6482
vn -0.1624 -0.1774 0.9707
vn -0.2298 -0.2961 -0.9271
vn 0.3783 0.7649 0.5213
vn -0.5418 -0.8376 0.0702
vn 0.3297 0.6787 -0.6563
vn 0.3202 0.7775 0.5412
vn 0.9947 -0.0434 0.0937
vn 0.3082 0.9119 -0.2710
vn 0.7428 0.2009 0.6387
vn 0.8081 0.3039 -0.5046
vn 0.8465 0.5075 0.1608
vn -0.6103 0.5197 0.5979
vn 0.8256 0.5638 0.0237
vn -0.7417 0.5679 -0.3570
vn 0.2782 0.5172 0.8094
vn 0.1929 0.5943 -0.7808
vn -0.0303 0.9865 0.1608
vn -0.8465 0.5075 -0.1608
vn 0.2910 0.3363 -0.8957
vn 0.7619 0.3363 -0.5536
vn 0.9418 0.3363 -0.0000
vn 0.7619 0.3363 0.5536
vn 0.2910 0.3363 0.8957
vn -0.2910 0.3363 0.8957
vn -0.7619 0.3363 0.5536
vn -0.9418 0.3363 -0.0000
vn -0.7294 0.6841 -0.0000
vn -0.7619 0.3363 -0.5536
vn -0.2910 0.3363 -0.8957
vn -0.5901 0.6840 -0.4288
vn -0.5901 0.6840 0.4288
vn -0.2254 0.6840 0.6937
vn 0.2254 0.6841 0.6937
vn 0.5901 0.6840 0.4288
vn 0.2254 0.6840 -0.6937
vn 0.7294 0.6840 -0.0000
vn 0.5901 0.6840 -0.4288
vn -0.2254 0.6841 -0.6937
vn -0.3526 0.9000 0.2562
vn 0.3526 0.9000 0.2562
vn 0.1347 0.9000 -0.4145
vn -0.4359 0.9000 -0.0000
vn 0.1347 0.9000 0.4145
vn 0.3526 0.9000 -0.2562
vn -0.3526 0.9000 -0.2562
vn -0.1347 0.9000 0.4145
vn 0.4359 0.9000 -0.0000
vn -0.1347 0.9000 -0.4145
vn -0.6876 -0.5268 0.4996
vn -0.2627 -0.5268 0.8084
vn 0.2627 -0.5268 0.8084
vn 0.6876 -0.5268 0.4996
vn 0.2627 -0.5268 -0.8084
vn 0.8500 -0.5268 -0.0000
vn 0.6876 -0.5268 -0.4996
vn -0.2627 -0.5268 -0.8084
vn -0.6876 -0.5268 -0.4996
vn -0.8500 -0.5268 -0.0000
vn 0.1291 -0.9085 -0.3975
vn -0.4179 -0.9085 -0.0000
vn 0.1291 -0.9085 0.3975
vn 0.3381 -0.9085 -0.2456
vn -0.3381 -0.9085 -0.2456
vn -0.1291 -0.9085 0.3975
vn 0.4179 -0.9085 -0.0000
vn -0.1291 -0.9085 -0.3975
vn -0.3381 -0.9085 0.2456
vn 0.3381 -0.9085 0.2456
vn 0.0270 -0.9962 0.0830
vn 0.0706 -0.9962 -0.0513
vn -0.0706 -0.9962 -0.0513
vn -0.0270 -0.9962 0.0830
vn 0.0873 -0.9962 -0.0000
vn -0.0270 -0.9962 -0.0830
vn -0.0706 -0.9962 0.0513
vn 0.0706 -0.9962 0.0513
vn 0.0270 -0.9962 -0.0830
vn -0.0873 -0.9962 -0.0000
vn -0.0000 1.0000 -0.0000
vn -0.0000 -1.0000 -0.0000
vn 0.2932 0.3159 -0.9024
vn 0.7676 0.3159 -0.5577
vn 0.9488 0.3159 -0.0000
vn 0.7676 0.3159 0.5577
vn 0.2932 0.3159 0.9024
vn -0.2932 0.3159 0.9024
vn -0.7676 0.3159 0.5577
vn -0.9488 0.3159 -0.0000
vn -0.7528 0.6583 -0.0000
vn -0.7676 0.3159 -0.5577
vn -0.2932 0.3159 -0.9024
vn -0.6090 0.6583 -0.4425
vn -0.6090 0.6583 0.4425
vn -0.2326 0.6583 0.7160
vn 0.2326 0.6583 0.7160
vn 0.6090 0.6583 0.4425
vn 0.2326 0.6583 -0.7160
vn 0.7528 0.6583 -0.0000
vn 0.6090 0.6583 -0.4425
vn -0.2326 0.6583 -0.7160
vn -0.3729 0.8874 0.2709
vn 0.3729 0.8874 0.2709
vn 0.1424 0.8874 -0.4384
vn -0.4609 0.8874 -0.0000
vn 0.1424 0.8874 0.4384
vn 0.3729 0.8874 -0.2709
vn -0.3729 0.8874 -0.2709
vn -0.1424 0.8874 0.4384
vn 0.4609 0.8874 -0.0000
vn -0.1424 0.8874 -0.4384
vn -0.7005 -0.5004 0.5089
vn -0.2676 -0.5004 0.8234
vn 0.2675 -0.5004 0.8234
vn 0.7005 -0.5004 0.5089
vn 0.2675 -0.5004 -0.8234
vn 0.8658 -0.5004 -0.0000
vn 0.7005 -0.5004 -0.5089
vn -0.2675 -0.5004 -0.8234
vn -0.7005 -0.5004 -0.5089
vn -0.8658 -0.5004 -0.0000
vn 0.1367 -0.8968 -0.4208
vn -0.4424 -0.8968 -0.0000
vn 0.1367 -0.8968 0.4208
vn 0.3579 -0.8968 -0.2601
vn -0.3579 -0.8968 -0.2601
vn -0.1367 -0.8968 0.4208
vn 0.4424 -0.8968 -0.0000
vn -0.1367 -0.8968 -0.4208
vn -0.3579 -0.8968 0.2601
vn 0.3579 -0.8968 0.2601
vn 0.0289 -0.9956 0.0890
vn 0.0757 -0.9956 -0.0550
vn -0.0757 -0.9956 -0.0550
vn -0.0289 -0.9956 0.0890
vn 0.0935 -0.9956 -0.0000
vn -0.0289 -0.9956 -0.0890
vn -0.0757 -0.9956 0.0550
vn 0.0757 -0.9956 0.0550
vn 0.0289 -0.9956 -0.0890
vn -0.0935 -0.9956 -0.0000
vn 0.2949 0.2984 -0.9077
vn 0.7722 0.2984 -0.5610
vn 0.9544 0.2984 -0.0000
vn 0.7722 0.2984 0.5610
vn 0.2949 0.2984 0.9077
vn -0.2949 0.2984 0.9077
vn -0.7722 0.2984 0.5610
vn -0.9544 0.2984 -0.0000
vn -0.7729 0.6345 -0.0000
vn -0.7722 0.2984 -0.5610
vn -0.2949 0.2984 -0.9077
vn -0.6253 0.6345 -0.4543
vn -0.6253 0.6345 0.4543
vn -0.2388 0.6345 0.7351
vn 0.2388 0.6345 0.7351
vn 0.6253 0.6345 0.4543
vn 0.2388 0.6345 -0.7351
vn 0.7729 0.6345 -0.0000
vn 0.6253 0.6345 -0.4543
vn -0.2388 0.6345 -0.7351
vn -0.3916 0.8750 0.2845
vn 0.3916 0.8750 0.2845
vn 0.1496 0.8750 -0.4604
vn -0.4841 0.8750 -0.0000
vn 0.1496 0.8750 0.4604
vn 0.3916 0.8750 -0.2845
vn -0.3916 0.8750 -0.2845
vn -0.1496 0.8750 0.4604
vn 0.4841 0.8750 -0.0000
vn -0.1496 0.8750 -0.4604
vn -0.7111 -0.4769 0.5166
vn -0.2716 -0.4769 0.8359
vn 0.2716 -0.4769 0.8359
vn 0.7111 -0.4769 0.5166
vn 0.2716 -0.4769 -0.8359
vn 0.8789 -0.4769 -0.0000
vn 0.7111 -0.4769 -0.5166
vn -0.2716 -0.4769 -0.8359
vn -0.7111 -0.4769 -0.5166
vn -0.8789 -0.4769 -0.0000
vn 0.1437 -0.8852 -0.4424
vn -0.4651 -0.8852 -0.0000
vn 0.1437 -0.8852 0.4424
vn 0.3763 -0.8852 -0.2734
vn -0.3763 -0.8852 -0.2734
vn -0.1437 -0.8852 0.4424
vn 0.4651 -0.8852 -0.0000
vn -0.1437 -0.8852 -0.4424
vn -0.3763 -0.8852 0.2734
vn 0.3763 -0.8852 0.2734
vn 0.0308 -0.9950 0.0947
vn 0.0805 -0.9950 -0.0585
vn -0.0805 -0.9950 -0.0585
vn -0.0308 -0.9950 0.0947
vn 0.0996 -0.9950 -0.0000
vn -0.0308 -0.9950 -0.0947
vn -0.0805 -0.9950 0.0585
vn 0.0805 -0.9950 0.0585
vn 0.0308 -0.9950 -0.0947
vn -0.0996 -0.9950 -0.0000
vt 0.558473 0.581150
vt 0.560081 0.499841
vt 0.554861 0.500252
vt 0.553013 0.581581
vt 0.554434 0.508117
vt 0.552566 0.589807
vt 0.559389 0.512566
vt 0.557749 0.594460
vt 0.562476 0.672554
vt 0.561399 0.589110
vt 0.559055 0.667812
vt 0.562879 0.507451
vt 0.564929 0.755382
vt 0.560832 0.749703
vt 0.559841 0.764520
vt 0.558227 0.680183
vt 0.552600 0.764489
vt 0.552181 0.680157
vt 0.553213 0.755332
vt 0.552693 0.672511
vt 0.552387 0.485501
vt 0.552817 0.477581
vt 0.550774 0.454909
vt 0.550340 0.462885
vt 0.558073 0.477166
vt 0.560891 0.484830
vt 0.558904 0.462209
vt 0.556066 0.454492
vt 0.557377 0.489981
vt 0.555365 0.467396
vt 0.553121 0.115942
vt 0.555859 0.111929
vt 0.549570 0.106281
vt 0.549234 0.112451
vt 0.553664 0.105959
vt 0.530199 0.272245
vt 0.529473 0.290544
vt 0.530366 0.113505
vt 0.530789 0.102863
vt 0.527786 0.313128
vt 0.527470 0.308785
vt 0.529201 0.124112
vt 0.529385 0.126637
vt 0.528961 0.283519
vt 0.530068 0.109419
vt 0.552361 0.384061
vt 0.554471 0.348320
vt 0.537482 0.326289
vt 0.535641 0.357488
vt 0.555195 0.358259
vt 0.552809 0.390204
vt 0.536031 0.362850
vt 0.538114 0.334964
vt 0.556222 0.332373
vt 0.539011 0.312369
vt 0.573735 0.352980
vt 0.574270 0.366452
vt 0.585557 0.093873
vt 0.585246 0.086038
vt 0.575512 0.383077
vt 0.575745 0.379880
vt 0.586414 0.101682
vt 0.586279 0.103541
vt 0.574647 0.361279
vt 0.585776 0.090865
vt 0.557419 0.435299
vt 0.555866 0.408986
vt 0.568374 0.392767
vt 0.569729 0.415736
vt 0.555333 0.416303
vt 0.557090 0.439821
vt 0.569442 0.419683
vt 0.567908 0.399154
vt 0.554577 0.397246
vt 0.567248 0.382519
vt 0.586215 0.076045
vt 0.434894 0.484170
vt 0.429331 0.729181
vt 0.438883 0.729181
vt 0.446479 0.484170
vt 0.444786 0.729181
vt 0.453638 0.484170
vt 0.419779 0.729181
vt 0.423310 0.484170
vt 0.413875 0.729181
vt 0.416150 0.484170
vt 0.417862 0.665846
vt 0.422243 0.665846
vt 0.429331 0.665846
vt 0.436419 0.665846
vt 0.440799 0.665846
vt 0.425164 0.684917
vt 0.422589 0.684917
vt 0.436072 0.684917
vt 0.433497 0.684917
vt 0.429331 0.684917
vt 0.413830 0.485088
vt 0.419751 0.485088
vt 0.429331 0.485088
vt 0.438911 0.485088
vt 0.444831 0.485088
vt 0.434517 0.482880
vt 0.429331 0.482880
vt 0.420939 0.482880
vt 0.437722 0.482880
vt 0.424145 0.482880
vt 0.429331 0.480156
vt 0.432209 0.480156
vt 0.433988 0.480156
vt 0.426452 0.480156
vt 0.424673 0.480156
vt 0.428872 0.503146
vt 0.427481 0.641271
vt 0.439675 0.641271
vt 0.443661 0.503146
vt 0.447212 0.641271
vt 0.452800 0.503146
vt 0.415288 0.641271
vt 0.414084 0.503146
vt 0.407751 0.641271
vt 0.404944 0.503146
vt 0.401714 0.736272
vt 0.414084 0.503146
vt 0.407306 0.736272
vt 0.416354 0.736272
vt 0.425403 0.736272
vt 0.430995 0.736272
vt 0.422163 0.688994
vt 0.418875 0.688994
vt 0.436088 0.688994
vt 0.432800 0.688994
vt 0.427481 0.688994
vt 0.409084 0.506693
vt 0.416643 0.506693
vt 0.428872 0.506693
vt 0.441102 0.506693
vt 0.448660 0.506693
vt 0.435493 0.482832
vt 0.428872 0.482832
vt 0.418160 0.482832
vt 0.439584 0.482832
vt 0.422252 0.482832
vt 0.428872 0.480446
vt 0.432547 0.480446
vt 0.434818 0.480446
vt 0.425198 0.480446
vt 0.422926 0.480446
vt 0.414638 0.487866
vt 0.420202 0.669519
vt 0.431753 0.669519
vt 0.421517 0.487866
vt 0.438893 0.669519
vt 0.425769 0.487866
vt 0.408650 0.669519
vt 0.407759 0.487866
vt 0.401510 0.669519
vt 0.403507 0.487866
vt 0.406332 0.741207
vt 0.411630 0.741207
vt 0.420202 0.741207
vt 0.428773 0.741207
vt 0.434071 0.741207
vt 0.417945 0.677097
vt 0.414830 0.677097
vt 0.431136 0.677097
vt 0.428022 0.677097
vt 0.422983 0.677097
vt 0.405433 0.492242
vt 0.408949 0.492242
vt 0.414638 0.492242
vt 0.420327 0.492242
vt 0.423843 0.492242
vt 0.417718 0.476721
vt 0.414638 0.476721
vt 0.409655 0.476721
vt 0.419621 0.476721
vt 0.411558 0.476721
vt 0.414638 0.475169
vt 0.416348 0.475169
vt 0.417404 0.475169
vt 0.412929 0.475169
vt 0.411872 0.475169
s 0
usemtl Material.001
f 12/1/1 2/2/1 4/3/1 13/4/1
f 13/4/2 4/3/2 6/5/2 15/6/2
f 15/6/3 6/5/3 8/7/3 17/8/3
f 20/9/4 19/10/4 12/1/4 11/11/4
f 17/8/5 8/7/5 10/12/5 19/10/5
f 19/10/6 10/12/6 2/2/6 12/1/6
f 9/13/7 20/9/7 11/11/7 1/14/7
f 7/15/8 18/16/8 20/9/8 9/13/8
f 18/16/9 17/8/9 19/10/9 20/9/9
f 5/17/10 16/18/10 18/16/10 7/15/10
f 16/18/11 15/6/11 17/8/11 18/16/11
f 3/19/12 14/20/12 16/18/12 5/17/12
f 14/20/13 13/4/13 15/6/13 16/18/13
f 1/14/14 11/11/14 14/20/14 3/19/14
f 11/11/15 12/1/15 13/4/15 14/20/15
f 72/21/16 71/22/16 22/23/16 23/24/16
f 74/25/17 73/26/17 25/27/17 21/28/17
f 71/22/18 74/25/18 21/28/18 22/23/18
f 75/29/19 72/21/19 23/24/19 24/30/19
f 73/26/20 75/29/20 24/30/20 25/27/20
f 25/27/21 24/30/21 29/31/21 30/32/21
f 23/24/22 22/23/22 27/33/22 28/34/22
f 21/28/23 25/27/23 30/32/23 26/35/23
f 24/30/24 23/24/24 28/34/24 29/31/24
f 22/23/25 21/28/25 26/35/25 27/33/25
f 48/36/26 46/37/26 39/38/26 40/39/26
f 49/40/27 47/41/27 37/42/27 38/43/27
f 50/44/28 48/36/28 40/39/28 36/45/28
f 46/37/29 49/40/29 38/43/29 39/38/29
f 47/41/30 50/44/30 36/45/30 37/42/30
f 32/46/31 31/47/31 45/48/31 43/49/31
f 34/50/32 33/51/32 44/52/32 41/53/32
f 31/47/33 35/54/33 42/55/33 45/48/33
f 33/51/34 32/46/34 43/49/34 44/52/34
f 35/54/35 34/50/35 41/53/35 42/55/35
f 43/49/36 45/48/36 50/44/36 47/41/36
f 41/53/37 44/52/37 49/40/37 46/37/37
f 45/48/38 42/55/38 48/36/38 50/44/38
f 44/52/39 43/49/39 47/41/39 49/40/39
f 42/55/40 41/53/40 46/37/40 48/36/40
f 68/56/41 66/57/41 59/58/41 60/59/41
f 69/60/42 67/61/42 57/62/42 58/63/42
f 70/64/43 68/56/43 60/59/43 56/65/43
f 66/57/44 69/60/44 58/63/44 59/58/44
f 67/61/45 70/64/45 56/65/45 57/62/45
f 52/66/46 51/67/46 65/68/46 63/69/46
f 54/70/47 53/71/47 64/72/47 61/73/47
f 51/67/48 55/74/48 62/75/48 65/68/48
f 53/71/49 52/66/49 63/69/49 64/72/49
f 55/74/50 54/70/50 61/73/50 62/75/50
f 63/69/51 65/68/51 70/64/51 67/61/51
f 61/73/52 64/72/52 69/60/52 66/57/52
f 65/68/53 62/75/53 68/56/53 70/64/53
f 64/72/54 63/69/54 67/61/54 69/60/54
f 62/75/55 61/73/55 66/57/55 68/56/55
f 10/12/20 8/7/20 75/29/20 73/26/20
f 8/7/19 6/5/19 72/21/19 75/29/19
f 4/3/18 2/2/18 74/25/18 71/22/18
f 2/2/17 10/12/17 73/26/17 74/25/17
f 6/5/16 4/3/16 71/22/16 72/21/16
f 40/39/56 39/38/56 79/38/56 80/39/56
f 38/43/57 37/42/57 77/42/57 78/43/57
f 36/45/58 40/39/58 80/39/58 76/45/58
f 39/38/59 38/43/59 78/43/59 79/38/59
f 37/42/60 36/45/60 76/45/60 77/42/60
f 79/38/61 78/43/61 80/39/61
f 76/45/61 80/39/61 77/42/61
f 77/42/61 80/39/61 78/43/61
f 30/32/62 29/31/62 84/31/62 85/32/62
f 28/34/63 27/33/63 82/33/63 83/34/63
f 26/35/64 30/32/64 85/32/64 81/35/64
f 29/31/65 28/34/65 83/34/65 84/31/65
f 27/33/66 26/35/66 81/35/66 82/33/66
f 83/34/67 82/33/67 84/31/67
f 81/35/67 85/32/67 82/33/67
f 85/32/67 84/31/67 82/33/67
f 60/76/68 58/63/68 57/62/68
f 57/62/68 56/65/68 60/76/68
f 59/58/68 58/63/68 60/59/68
f 86/77/69 87/78/69 89/79/69 88/80/69
f 88/80/70 89/79/70 91/81/70 90/82/70
f 90/82/71 91/81/71 93/81/71 92/82/71
f 92/82/72 93/81/72 95/79/72 94/80/72
f 94/80/73 95/79/73 97/78/73 96/77/73
f 96/77/74 97/78/74 99/83/74 98/84/74
f 98/84/75 99/83/75 101/85/75 100/86/75
f 100/86/76 101/85/76 103/85/76 102/86/76
f 103/85/77 101/85/77 113/87/77 114/87/77
f 102/86/78 103/85/78 105/83/78 104/84/78
f 104/84/79 105/83/79 87/78/79 86/77/79
f 105/83/80 103/85/80 114/87/80 115/88/80
f 101/85/81 99/83/81 112/88/81 113/87/81
f 99/83/82 97/78/82 111/89/82 112/88/82
f 97/78/83 95/79/83 110/90/83 111/89/83
f 95/79/84 93/81/84 109/91/84 110/90/84
f 89/79/85 87/78/85 106/89/85 107/90/85
f 93/81/86 91/81/86 108/91/86 109/91/86
f 91/81/87 89/79/87 107/90/87 108/91/87
f 87/78/88 105/83/88 115/88/88 106/89/88
f 113/87/89 112/88/89 122/92/89 123/93/89
f 110/90/90 109/91/90 119/94/90 120/95/90
f 107/90/91 106/89/91 116/96/91 117/95/91
f 114/87/92 113/87/92 123/93/92 124/93/92
f 111/89/93 110/90/93 120/95/93 121/96/93
f 108/91/94 107/90/94 117/95/94 118/94/94
f 115/88/95 114/87/95 124/93/95 125/92/95
f 112/88/96 111/89/96 121/96/96 122/92/96
f 109/91/97 108/91/97 118/94/97 119/94/97
f 106/89/98 115/88/98 125/92/98 116/96/98
f 98/84/99 100/86/99 133/97/99 132/98/99
f 96/77/100 98/84/100 132/98/100 131/99/100
f 94/80/101 96/77/101 131/99/101 130/100/101
f 92/82/102 94/80/102 130/100/102 129/101/102
f 86/77/103 88/80/103 127/100/103 126/99/103
f 90/82/104 92/82/104 129/101/104 128/101/104
f 88/80/105 90/82/105 128/101/105 127/100/105
f 104/84/106 86/77/106 126/99/106 135/98/106
f 102/86/107 104/84/107 135/98/107 134/97/107
f 100/86/108 102/86/108 134/97/108 133/97/108
f 126/99/109 127/100/109 137/102/109 136/103/109
f 133/97/110 134/97/110 144/104/110 143/104/110
f 130/100/111 131/99/111 141/103/111 140/102/111
f 127/100/112 128/101/112 138/105/112 137/102/112
f 134/97/113 135/98/113 145/106/113 144/104/113
f 131/99/114 132/98/114 142/106/114 141/103/114
f 128/101/115 129/101/115 139/105/115 138/105/115
f 135/98/116 126/99/116 136/103/116 145/106/116
f 132/98/117 133/97/117 143/104/117 142/106/117
f 129/101/118 130/100/118 140/102/118 139/105/118
f 140/102/119 141/103/119 151/107/119 150/108/119
f 137/102/120 138/105/120 148/109/120 147/108/120
f 144/104/121 145/106/121 155/110/121 154/111/121
f 141/103/122 142/106/122 152/110/122 151/107/122
f 138/105/123 139/105/123 149/109/123 148/109/123
f 145/106/124 136/103/124 146/107/124 155/110/124
f 142/106/125 143/104/125 153/111/125 152/110/125
f 139/105/126 140/102/126 150/108/126 149/109/126
f 136/103/127 137/102/127 147/108/127 146/107/127
f 143/104/128 144/104/128 154/111/128 153/111/128
f 117/95/129 116/96/129 121/96/129 120/95/129
f 118/94/129 117/95/129 120/95/129 119/94/129
f 122/92/129 121/96/129 116/96/129 125/92/129
f 123/93/129 122/92/129 125/92/129 124/93/129
f 146/107/130 147/108/130 150/108/130 151/107/130
f 151/107/130 152/110/130 155/110/130 146/107/130
f 147/108/130 148/109/130 149/109/130 150/108/130
f 152/110/130 153/111/130 154/111/130 155/110/130
f 156/112/131 157/113/131 159/114/131 158/115/131
f 158/115/132 159/114/132 161/116/132 160/117/132
f 160/117/133 161/116/133 163/116/133 162/117/133
f 162/117/134 163/116/134 165/114/134 164/115/134
f 164/115/135 165/114/135 167/113/135 166/112/135
f 166/112/136 167/113/136 169/118/136 168/119/136
f 168/119/137 169/118/137 171/120/137 170/121/137
f 170/121/138 171/120/138 173/120/138 172/121/138
f 173/120/139 171/120/139 183/122/139 184/122/139
f 172/121/140 173/120/140 175/118/140 174/123/140
f 174/123/141 175/118/141 157/113/141 156/112/141
f 175/118/142 173/120/142 184/122/142 185/124/142
f 171/120/143 169/118/143 182/124/143 183/122/143
f 169/118/144 167/113/144 181/125/144 182/124/144
f 167/113/145 165/114/145 180/126/145 181/125/145
f 165/114/146 163/116/146 179/127/146 180/126/146
f 159/114/147 157/113/147 176/125/147 177/126/147
f 163/116/148 161/116/148 178/127/148 179/127/148
f 161/116/149 159/114/149 177/126/149 178/127/149
f 157/113/150 175/118/150 185/124/150 176/125/150
f 183/122/151 182/124/151 192/128/151 193/129/151
f 180/126/152 179/127/152 189/130/152 190/131/152
f 177/126/153 176/125/153 186/132/153 187/131/153
f 184/122/154 183/122/154 193/129/154 194/129/154
f 181/125/155 180/126/155 190/131/155 191/132/155
f 178/127/156 177/126/156 187/131/156 188/130/156
f 185/124/157 184/122/157 194/129/157 195/128/157
f 182/124/158 181/125/158 191/132/158 192/128/158
f 179/127/159 178/127/159 188/130/159 189/130/159
f 176/125/160 185/124/160 195/128/160 186/132/160
f 168/119/161 170/121/161 203/133/161 202/134/161
f 166/112/162 168/119/162 202/134/162 201/135/162
f 164/115/163 166/112/163 201/135/163 200/136/163
f 162/117/164 164/115/164 200/136/164 199/137/164
f 156/112/165 158/115/165 197/136/165 196/135/165
f 160/117/166 162/117/166 199/137/166 198/137/166
f 158/115/167 160/117/167 198/137/167 197/136/167
f 174/123/168 156/112/168 196/135/168 205/134/168
f 172/121/169 174/123/169 205/134/169 204/133/169
f 170/121/170 172/121/170 204/133/170 203/133/170
f 196/135/171 197/136/171 207/138/171 206/139/171
f 203/133/172 204/133/172 214/140/172 213/140/172
f 200/136/173 201/135/173 211/139/173 210/138/173
f 197/136/174 198/137/174 208/141/174 207/138/174
f 204/133/175 205/134/175 215/142/175 214/140/175
f 201/135/176 202/134/176 212/142/176 211/139/176
f 198/137/177 199/137/177 209/141/177 208/141/177
f 205/134/178 196/135/178 206/139/178 215/142/178
f 202/134/179 203/133/179 213/140/179 212/142/179
f 199/137/180 200/136/180 210/138/180 209/141/180
f 210/138/181 211/139/181 221/143/181 220/144/181
f 207/138/182 208/141/182 218/145/182 217/144/182
f 214/140/183 215/142/183 225/146/183 224/147/183
f 211/139/184 212/142/184 222/146/184 221/143/184
f 208/141/185 209/141/185 219/145/185 218/145/185
f 215/142/186 206/139/186 216/143/186 225/146/186
f 212/142/187 213/140/187 223/147/187 222/146/187
f 209/141/188 210/138/188 220/144/188 219/145/188
f 206/139/189 207/138/189 217/144/189 216/143/189
f 213/140/190 214/140/190 224/147/190 223/147/190
f 187/131/129 186/132/129 191/132/129 190/131/129
f 188/130/129 187/131/129 190/131/129 189/130/129
f 192/128/129 191/132/129 186/132/129 195/128/129
f 193/129/129 192/128/129 195/128/129 194/129/129
f 216/143/130 217/144/130 220/144/130 221/143/130
f 221/143/130 222/146/130 225/146/130 216/143/130
f 217/144/130 218/145/130 219/145/130 220/144/130
f 222/146/130 223/147/130 224/147/130 225/146/130
f 226/148/191 227/149/191 229/150/191 228/151/191
f 228/151/192 229/150/192 231/152/192 230/153/192
f 230/153/193 231/152/193 233/152/193 232/153/193
f 232/153/194 233/152/194 235/150/194 234/151/194
f 234/151/195 235/150/195 237/149/195 236/148/195
f 236/148/196 237/149/196 239/154/196 238/155/196
f 238/155/197 239/154/197 241/156/197 240/157/197
f 240/157/198 241/156/198 243/156/198 242/157/198
f 243/156/199 241/156/199 253/158/199 254/158/199
f 242/157/200 243/156/200 245/154/200 244/155/200
f 244/155/201 245/154/201 227/149/201 226/148/201
f 245/154/202 243/156/202 254/158/202 255/159/202
f 241/156/203 239/154/203 252/159/203 253/158/203
f 239/154/204 237/149/204 251/160/204 252/159/204
f 237/149/205 235/150/205 250/161/205 251/160/205
f 235/150/206 233/152/206 249/162/206 250/161/206
f 229/150/207 227/149/207 246/160/207 247/161/207
f 233/152/208 231/152/208 248/162/208 249/162/208
f 231/152/209 229/150/209 247/161/209 248/162/209
f 227/149/210 245/154/210 255/159/210 246/160/210
f 253/158/211 252/159/211 262/163/211 263/164/211
f 250/161/212 249/162/212 259/165/212 260/166/212
f 247/161/213 246/160/213 256/167/213 257/166/213
f 254/158/214 253/158/214 263/164/214 264/164/214
f 251/160/215 250/161/215 260/166/215 261/167/215
f 248/162/216 247/161/216 257/166/216 258/165/216
f 255/159/217 254/158/217 264/164/217 265/163/217
f 252/159/218 251/160/218 261/167/218 262/163/218
f 249/162/219 248/162/219 258/165/219 259/165/219
f 246/160/220 255/159/220 265/163/220 256/167/220
f 238/155/221 240/157/221 273/168/221 272/169/221
f 236/148/222 238/155/222 272/169/222 271/170/222
f 234/151/223 236/148/223 271/170/223 270/171/223
f 232/153/224 234/151/224 270/171/224 269/172/224
f 226/148/225 228/151/225 267/171/225 266/170/225
f 230/153/226 232/153/226 269/172/226 268/172/226
f 228/151/227 230/153/227 268/172/227 267/171/227
f 244/155/228 226/148/228 266/170/228 275/169/228
f 242/157/229 244/155/229 275/169/229 274/168/229
f 240/157/230 242/157/230 274/168/230 273/168/230
f 266/170/231 267/171/231 277/173/231 276/174/231
f 273/168/232 274/168/232 284/175/232 283/175/232
f 270/171/233 271/170/233 281/174/233 280/173/233
f 267/171/234 268/172/234 278/176/234 277/173/234
f 274/168/235 275/169/235 285/177/235 284/175/235
f 271/170/236 272/169/236 282/177/236 281/174/236
f 268/172/237 269/172/237 279/176/237 278/176/237
f 275/169/238 266/170/238 276/174/238 285/177/238
f 272/169/239 273/168/239 283/175/239 282/177/239
f 269/172/240 270/171/240 280/173/240 279/176/240
f 280/173/241 281/174/241 291/178/241 290/179/241
f 277/173/242 278/176/242 288/180/242 287/179/242
f 284/175/243 285/177/243 295/181/243 294/182/243
f 281/174/244 282/177/244 292/181/244 291/178/244
f 278/176/245 279/176/245 289/180/245 288/180/245
f 285/177/246 276/174/246 286/178/246 295/181/246
f 282/177/247 283/175/247 293/182/247 292/181/247
f 279/176/248 280/173/248 290/179/248 289/180/248
f 276/174/249 277/173/249 287/179/249 286/178/249
f 283/175/250 284/175/250 294/182/250 293/182/250
f 257/166/129 256/167/129 261/167/129 260/166/129
f 258/165/129 257/166/129 260/166/129 259/165/129
f 262/163/129 261/167/129 256/167/129 265/163/129
f 263/164/129 262/163/129 265/163/129 264/164/129
f 286/178/130 287/179/130 290/179/130 291/178/130
f 291/178/130 292/181/130 295/181/130 286/178/130
f 287/179/130 288/180/130 289/180/130 290/179/130
f 292/181/130 293/182/130 294/182/130 295/181/130
