# Blender 5.1.0
# www.blender.org
mtllib spruce.mtl
o Spruce
v -0.710484 0.150565 -1.187965
v -0.542392 4.362599 -0.296564
v 0.485825 0.055285 -0.909638
v 0.127929 4.356900 -0.135258
v 0.582057 -0.099736 0.308723
v 0.182855 4.247988 0.543350
v -0.554786 -0.100264 0.783393
v -0.453527 4.186375 0.801451
v -1.353615 0.054431 -0.141621
v -0.901749 4.257208 0.282350
v -0.375596 1.517567 -0.734700
v -0.304551 2.991346 -0.680134
v 0.447039 2.984956 -0.499269
v 0.456287 1.451312 -0.541157
v 0.508627 2.862839 0.261609
v 0.523203 1.343514 0.306061
v -0.204906 2.793756 0.550996
v -0.267332 1.343147 0.636137
v -0.707477 2.873178 -0.031036
v -0.822815 1.450717 -0.007093
v -0.748169 12.777775 -0.044670
v -0.410241 13.876074 0.045277
v 0.042975 12.818686 -0.572000
v 0.051474 13.899948 -0.262478
v 0.811284 12.819956 0.115149
v 0.499867 13.900688 0.138537
v 0.494991 12.779827 1.067148
v 0.315271 13.877271 0.694132
v -0.468805 12.753759 0.968379
v -0.247205 13.862057 0.636491
v -0.130423 14.478661 0.075877
v 0.048586 14.487917 -0.043441
v 0.222429 14.488203 0.112033
v 0.150861 14.479124 0.327437
v -0.067214 14.473226 0.305090
v -0.027326 15.384034 -0.132889
v 1.047202 10.857786 1.807901
v 1.697149 10.940241 -0.148328
v 0.118379 10.937634 -1.560298
v -1.507299 10.853571 -0.476710
v -0.933259 10.804220 1.604952
v 4.928083 9.158487 2.417106
v 2.962912 8.593058 -3.536170
v -2.722473 9.130067 -4.013006
v -5.229961 8.960263 1.023142
v -0.146315 8.581320 4.862889
v -2.890257 8.785607 1.488756
v -3.328467 8.823279 -0.100341
v 0.933909 8.616045 3.557685
v -0.963914 8.564714 3.363202
v 3.608244 8.953025 0.688358
v 2.955820 8.870255 2.652047
v -2.429479 9.283156 -1.834640
v -0.867612 9.363921 -2.875694
v 1.359466 8.664630 -3.041556
v 2.816708 8.667034 -1.738279
v -0.416413 10.796868 -0.632882
v 0.655033 10.821133 -0.376027
v 0.742827 10.788580 0.722068
v -0.274359 10.744194 1.143863
v -0.990821 10.749320 0.306471
v -0.521581 8.892102 2.350087
v 1.906716 8.998058 1.343135
v 1.697130 9.075773 -1.278291
v -0.860698 9.017850 -1.891461
v -2.231938 8.904334 0.351002
v 1.884781 7.173742 4.848780
v 4.802112 6.784865 -0.249542
v 1.405158 7.511364 -5.703737
v -3.976922 7.350425 -2.947725
v -3.514970 6.763904 2.886017
v -3.267801 7.065536 -1.012856
v -2.191998 7.154593 -2.772174
v -1.796434 6.780950 2.806731
v -3.031855 6.789785 1.362760
v 2.265667 7.054961 2.922173
v 0.375125 6.972471 3.706140
v -0.009572 7.211813 -3.906294
v 1.896389 7.254974 -3.449394
v 3.258723 6.893013 -1.080418
v 3.408758 6.837378 0.796220
v -1.540295 8.572038 -0.664869
v 0.062986 8.710512 -1.461945
v 1.313851 8.816569 -0.177773
v 0.483644 8.743645 1.412969
v -1.280307 8.592515 1.111912
v 1.254036 6.520066 2.576267
v 2.791181 6.655088 -0.369024
v 0.475181 6.458718 -2.746714
v -2.493341 6.202332 -1.270900
v -2.011978 6.240246 2.018881
v 5.774911 4.739089 3.148400
v 4.553816 3.829657 -4.134051
v -3.197424 3.996423 -6.718553
v -6.191254 3.847051 0.313869
v -0.998300 3.906800 5.930314
v -3.919981 3.731038 1.633057
v -4.297622 3.701291 -0.947932
v 0.822978 4.016963 4.500773
v -1.973937 3.777330 4.023431
v 4.610283 4.397886 0.978120
v 3.413546 4.292766 3.271166
v -3.096084 3.749944 -3.815202
v -0.884105 3.940990 -4.914895
v 2.377653 3.804984 -3.698399
v 4.035651 3.945563 -1.996251
v -0.864199 7.294135 -1.466519
v 0.899247 7.401574 -1.144457
v 1.135827 7.460991 0.634733
v -0.481408 7.390272 1.412272
v -1.717489 7.287149 0.113627
v -0.588379 5.134468 2.750542
v 2.405971 5.265405 1.310915
v 1.967940 5.155395 -1.983304
v -1.297134 4.956468 -2.579603
v -2.877024 4.943534 0.346073
v 2.670279 3.233638 5.865912
v 6.032082 2.441000 -0.723639
v 1.365437 2.833245 -7.421228
v -5.239632 2.676537 -3.575607
v -4.256075 2.399661 3.786751
v -4.208913 2.487866 -1.164291
v -2.969413 2.498012 -3.459620
v -1.940238 2.480756 3.731330
v -3.900169 2.317245 1.672205
v 3.029342 2.947426 3.422144
v 0.698112 2.845485 4.542956
v -0.291869 2.550143 -5.039279
v 2.141090 2.698374 -4.594948
v 4.026919 2.465992 -1.674827
v 4.340500 2.544746 0.683450
v 3.700732 5.526488 0.304546
v 2.333786 5.406417 2.923722
v 1.426417 5.131851 -3.222554
v 3.413415 5.300326 -1.182636
v -2.794714 4.976138 -2.543050
v -0.204465 5.199855 -3.830802
v -2.965975 4.985641 1.825963
v -3.395478 4.951810 -1.109423
v 1.038514 5.196838 3.388988
v -1.992957 4.937114 2.871630
vn 0.2257 0.2985 -0.9273
vn 0.9708 0.2366 -0.0406
vn 0.3821 -0.0971 0.9190
vn -0.8529 0.0604 -0.5186
vn -0.7502 -0.2444 0.6144
vn -0.8496 0.0002 -0.5274
vn -0.8111 0.3533 -0.4661
vn -0.7221 0.2110 0.6589
vn -0.7495 0.0714 0.6581
vn 0.3852 0.0174 0.9227
vn 0.3792 0.0342 0.9247
vn 0.9965 0.0405 -0.0736
vn 0.9969 0.0077 -0.0786
vn 0.2383 0.2526 -0.9378
vn 0.2312 0.0264 -0.9726
vn -0.5476 0.2343 -0.8033
vn 0.6525 0.2038 -0.7299
vn 0.9139 0.2566 0.3145
vn -0.5410 0.2913 -0.7890
vn -0.1052 0.3045 0.9467
vn -0.9282 0.2641 0.2622
vn 0.6415 0.2706 -0.7178
vn -0.8824 0.3969 0.2527
vn -0.1017 0.4972 0.8617
vn 0.8566 0.4182 0.3022
vn 0.8905 0.3330 0.3099
vn -0.1034 0.4347 0.8946
vn -0.9491 0.1693 0.2657
vn -0.5454 -0.1289 -0.8282
vn 0.6665 -0.0179 -0.7453
vn -0.9167 0.3033 0.2600
vn -0.1050 0.3312 0.9377
vn 0.8768 0.3702 0.3069
vn 0.6146 0.3861 -0.6879
vn -0.5268 0.3787 -0.7610
vn -0.1454 0.9894 -0.0066
vn 0.0327 0.9987 -0.0384
vn -0.0899 0.9943 -0.0578
vn 0.0738 0.9973 0.0033
vn -0.0274 0.9996 0.0039
vn -0.7078 0.6741 0.2112
vn -0.0968 0.6154 0.7822
vn 0.6453 0.7236 0.2449
vn -0.4090 0.7223 -0.5576
vn 0.5074 0.6475 -0.5685
vn -0.7520 0.4954 -0.4348
vn -0.6711 0.4654 0.5771
vn 0.3161 0.4878 0.8137
vn 0.8454 0.5316 -0.0518
vn 0.1853 0.5363 -0.8235
vn -0.0749 0.9943 -0.0761
vn 0.0564 0.9981 0.0251
vn -0.0522 0.9909 0.1241
vn 0.0977 0.9891 0.1098
vn -0.0093 0.9999 0.0140
vn -0.6628 0.6496 -0.3724
vn -0.6503 0.5138 0.5596
vn 0.2715 0.6367 0.7217
vn 0.1336 0.7653 -0.6296
vn 0.8144 0.5783 -0.0480
vn -0.9309 0.3406 0.1323
vn -0.1874 0.4036 0.8955
vn 0.7655 0.4859 0.4218
vn 0.6110 0.4737 -0.6343
vn -0.4374 0.3839 -0.8132
vn -0.1881 0.9807 -0.0532
vn -0.0233 0.9979 -0.0597
vn -0.0432 0.9954 0.0860
vn 0.0630 0.9978 -0.0207
vn -0.0809 0.9964 -0.0263
vn -0.7993 0.5908 0.1101
vn -0.1787 0.6918 0.6996
vn 0.6143 0.7057 0.3530
vn -0.3606 0.7128 -0.6016
vn 0.5471 0.6011 -0.5825
vn -0.8208 0.3623 -0.4416
vn -0.6802 0.3976 0.6158
vn 0.3679 0.4615 0.8073
vn 0.8751 0.4656 -0.1319
vn 0.1404 0.4043 -0.9038
vn -0.1061 0.9857 -0.1310
vn 0.0302 0.9988 -0.0374
vn -0.0730 0.9950 0.0675
vn 0.0760 0.9961 0.0454
vn -0.0360 0.9983 -0.0450
vn -0.6988 0.6094 -0.3746
vn -0.6345 0.5309 0.5618
vn 0.2908 0.6858 0.6671
vn 0.0798 0.7287 -0.6802
vn 0.7946 0.5940 -0.1255
vn -0.1864 0.5361 0.8233
vt 0.571871 0.282546
vt 0.573933 0.340778
vt 0.563551 0.340778
vt 0.560230 0.282546
vt 0.567517 0.340778
vt 0.564677 0.282546
vt 0.580350 0.340778
vt 0.579065 0.282546
vt 0.582355 0.620859
vt 0.583512 0.282546
vt 0.569455 0.620859
vt 0.584315 0.340778
vt 0.592484 0.760900
vt 0.573933 0.760900
vt 0.585398 0.760900
vt 0.577428 0.620859
vt 0.562468 0.760900
vt 0.561483 0.620859
vt 0.555382 0.760900
vt 0.556556 0.620859
vt 0.053832 0.957352
vt 0.058888 0.710486
vt 0.060766 0.710486
vt 0.065162 0.957352
vt 0.060049 0.710486
vt 0.060834 0.957352
vt 0.057728 0.710486
vt 0.046829 0.957352
vt 0.057309 0.777233
vt 0.058415 0.777233
vt 0.057011 0.710486
vt 0.042501 0.957352
vt 0.057993 0.777233
vt 0.056203 0.777233
vt 0.056625 0.777233
vt 0.056640 0.821988
vt 0.058326 0.598690
vt 0.037778 0.598690
vt 0.045627 0.598691
vt 0.071026 0.598691
vt 0.078875 0.598690
vt 0.082199 0.174092
vt 0.073685 0.174092
vt 0.066444 0.837316
vt 0.086770 0.837316
vt 0.078947 0.174092
vt 0.090337 0.759587
vt 0.082574 0.759587
vt 0.068423 0.174092
vt 0.079006 0.837316
vt 0.053882 0.837316
vt 0.065171 0.174092
vt 0.057450 0.759587
vt 0.049686 0.759587
vt 0.046119 0.837316
vt 0.064478 0.326708
vt 0.084038 0.326708
vt 0.067833 0.318803
vt 0.041159 0.339893
vt 0.046717 0.339893
vt 0.028958 0.345172
vt 0.059514 0.326425
vt 0.044369 0.326425
vt 0.045343 0.318238
vt 0.098863 0.324559
vt 0.082917 0.324559
vt 0.103715 0.314506
vt 0.099444 0.333065
vt 0.106092 0.333065
vt 0.112641 0.331517
vt 0.067970 0.332029
vt 0.064984 0.335277
vt 0.068377 0.651592
vt 0.073906 0.645578
vt 0.061211 0.249293
vt 0.071538 0.254301
vt 0.079133 0.361718
vt 0.060013 0.352446
vt 0.047383 0.257218
vt 0.056752 0.257066
vt 0.055553 0.360219
vt 0.038207 0.360502
vt 0.056379 0.254548
vt 0.051842 0.249446
vt 0.042666 0.352729
vt 0.051066 0.362176
vt 0.052812 0.332276
vt 0.045839 0.646037
vt 0.029256 0.672566
vt 0.042761 0.672346
vt 0.022670 0.655116
vt 0.035719 0.696312
vt 0.029705 0.689549
vt 0.022736 0.700934
vt 0.066210 0.769034
vt 0.049416 0.764894
vt 0.064748 0.763093
vt 0.085562 0.760592
vt 0.081223 0.765311
vt 0.097923 0.752224
vt 0.066012 0.679079
vt 0.082386 0.687019
vt 0.074376 0.676197
vt 0.080088 0.908215
vt 0.075154 0.913581
vt 0.062536 0.823958
vt 0.080284 0.832565
vt 0.033256 0.824730
vt 0.048681 0.824478
vt 0.067647 0.915443
vt 0.047981 0.910595
vt 0.042916 0.837440
vt 0.035710 0.829335
vt 0.074210 0.113951
vt 0.069061 0.112721
vt 0.071673 0.524339
vt 0.081207 0.526617
vt 0.066751 0.095793
vt 0.067396 0.492997
vt 0.056991 0.083341
vt 0.049327 0.469941
vt 0.058419 0.093803
vt 0.051970 0.489313
vt 0.045565 0.878093
vt 0.059633 0.896043
vt 0.047732 0.827697
vt 0.039545 0.962865
vt 0.037652 0.948998
vt 0.027444 0.967265
vt 0.065607 0.948048
vt 0.050925 0.921947
vt 0.055606 0.898199
vt 0.089245 0.959013
vt 0.081765 0.957226
vt 0.095465 0.925792
vt 0.075554 0.960265
vt 0.087382 0.989056
vt 0.089529 0.974544
s 0
usemtl Material.001
f 12/1/1 2/2/1 4/3/1 13/4/1
f 13/4/2 4/3/2 6/5/2 15/6/2
f 15/6/3 6/5/3 8/7/3 17/8/3
f 20/9/4 19/10/4 12/1/4 11/11/4
f 17/8/5 8/7/5 10/12/5 19/10/5
f 19/10/6 10/12/6 2/2/6 12/1/6
f 9/13/7 20/9/7 11/11/7 1/14/7
f 7/15/8 18/16/8 20/9/8 9/13/8
f 18/16/9 17/8/9 19/10/9 20/9/9
f 5/17/10 16/18/10 18/16/10 7/15/10
f 16/18/11 15/6/11 17/8/11 18/16/11
f 3/19/12 14/20/12 16/18/12 5/17/12
f 14/20/13 13/4/13 15/6/13 16/18/13
f 1/14/14 11/11/14 14/20/14 3/19/14
f 11/11/15 12/1/15 13/4/15 14/20/15
f 21/21/16 22/22/16 24/23/16 23/24/16
f 23/24/17 24/23/17 26/25/17 25/26/17
f 25/26/18 26/25/18 28/27/18 27/28/18
f 24/23/19 22/22/19 31/29/19 32/30/19
f 27/28/20 28/27/20 30/31/20 29/32/20
f 29/32/21 30/31/21 22/22/21 21/21/21
f 26/25/22 24/23/22 32/30/22 33/33/22
f 22/22/23 30/31/23 35/34/23 31/29/23
f 30/31/24 28/27/24 34/35/24 35/34/24
f 28/27/25 26/25/25 33/33/25 34/35/25
f 34/35/26 33/33/26 36/36/26
f 35/34/27 34/35/27 36/36/27
f 31/29/28 35/34/28 36/36/28
f 32/30/29 31/29/29 36/36/29
f 33/33/30 32/30/30 36/36/30
f 29/32/31 21/21/31 40/37/31 41/38/31
f 27/28/32 29/32/32 41/38/32 37/39/32
f 25/26/33 27/28/33 37/39/33 38/40/33
f 23/24/34 25/26/34 38/40/34 39/41/34
f 21/21/35 23/24/35 39/41/35 40/37/35
f 51/40/36 52/39/36 42/40/36
f 55/41/37 56/40/37 43/41/37
f 53/37/38 54/41/38 44/37/38
f 47/38/39 48/37/39 45/38/39
f 49/39/40 50/38/40 46/39/40
f 41/38/41 40/37/41 48/37/41 47/38/41
f 37/39/42 41/38/42 50/38/42 49/39/42
f 38/40/43 37/39/43 52/39/43 51/40/43
f 40/37/44 39/41/44 54/41/44 53/37/44
f 39/41/45 38/40/45 56/40/45 55/41/45
f 61/42/46 57/43/46 65/44/46 66/45/46
f 60/46/47 61/42/47 66/47/47 62/48/47
f 59/49/48 60/46/48 62/50/48 63/51/48
f 58/52/49 59/49/49 63/53/49 64/54/49
f 57/43/50 58/52/50 64/55/50 65/44/50
f 76/56/51 77/57/51 67/58/51
f 80/59/52 81/60/52 68/61/52
f 78/62/53 79/63/53 69/64/53
f 72/65/54 73/66/54 70/67/54
f 74/68/55 75/69/55 71/70/55
f 66/45/56 65/44/56 73/66/56 72/65/56
f 62/48/57 66/47/57 75/69/57 74/68/57
f 63/51/58 62/50/58 77/57/58 76/56/58
f 65/44/59 64/55/59 79/63/59 78/62/59
f 64/54/60 63/53/60 81/60/60 80/59/60
f 86/71/61 82/72/61 90/73/61 91/74/61
f 85/75/62 86/76/62 91/77/62 87/78/62
f 84/79/63 85/80/63 87/81/63 88/82/63
f 83/83/64 84/84/64 88/85/64 89/86/64
f 82/72/65 83/87/65 89/88/65 90/73/65
f 101/89/66 102/90/66 92/91/66
f 105/92/67 106/93/67 93/94/67
f 103/95/68 104/96/68 94/97/68
f 97/98/69 98/99/69 95/100/69
f 99/101/70 100/102/70 96/103/70
f 138/104/71 139/105/71 98/99/71 97/98/71
f 140/106/72 141/107/72 100/102/72 99/101/72
f 132/108/73 133/109/73 102/90/73 101/89/73
f 136/110/74 137/111/74 104/96/74 103/95/74
f 134/112/75 135/113/75 106/93/75 105/92/75
f 111/114/76 107/115/76 115/116/76 116/117/76
f 110/118/77 111/114/77 116/117/77 112/119/77
f 109/120/78 110/118/78 112/119/78 113/121/78
f 108/122/79 109/120/79 113/121/79 114/123/79
f 107/115/80 108/122/80 114/123/80 115/116/80
f 126/124/81 127/125/81 117/126/81
f 130/127/82 131/128/82 118/129/82
f 128/130/83 129/131/83 119/132/83
f 122/133/84 123/134/84 120/135/84
f 124/136/85 125/137/85 121/138/85
f 116/117/86 115/116/86 123/134/86 122/133/86
f 112/119/87 116/117/87 125/137/87 124/136/87
f 113/121/88 112/119/88 127/125/88 126/124/88
f 115/116/89 114/123/89 129/131/89 128/130/89
f 114/123/90 113/121/90 131/128/90 130/127/90
f 88/82/73 87/81/73 133/109/73 132/108/73
f 89/86/75 88/85/75 135/113/75 134/112/75
f 90/73/74 89/88/74 137/111/74 136/110/74
f 91/74/71 90/73/71 139/105/71 138/104/71
f 87/78/91 91/77/91 141/107/91 140/106/91
