# Blender 5.1.0
# www.blender.org
mtllib tree001.mtl
o tree.001
v -0.419642 -0.480474 0.902070
v -0.537679 3.749442 0.129826
v -1.615952 -0.575755 0.623743
v -1.357118 3.742476 -0.067365
v -1.712183 -0.730776 -0.594618
v -1.424263 3.609334 -0.896936
v -0.575341 -0.731303 -1.069287
v -0.646312 3.534015 -1.212453
v 0.223488 -0.576609 -0.144274
v -0.098378 3.620606 -0.577874
v -0.698666 0.905858 0.582584
v -0.790155 2.372959 0.478554
v -1.647262 2.365672 0.272297
v -1.697510 0.826305 0.350197
v -1.717497 2.226412 -0.595401
v -1.777856 0.696873 -0.667061
v -0.903789 2.147630 -0.925416
v -0.828659 0.696432 -1.063383
v -0.330662 2.238201 -0.261672
v -0.161688 0.825591 -0.291055
v -0.219848 6.982110 0.139027
v -1.050802 6.975046 -0.060935
v -1.118891 6.840034 -0.902163
v -0.330007 6.763656 -1.222114
v 0.225626 6.851464 -0.578617
v -0.596960 12.882416 -0.011287
v -1.239801 12.876951 -0.165981
v -1.292476 12.772504 -0.816771
v -0.682181 12.713416 -1.064291
v -0.252332 12.781346 -0.566470
v -0.470331 8.779491 0.026197
v -0.801522 8.174426 -0.139785
v -0.731233 8.070437 -0.838065
v -0.356598 8.611243 -0.999707
v -0.195354 9.049459 -0.569499
v -5.818488 11.250462 -0.298375
v -5.954643 11.001714 -0.366612
v -5.925747 10.958963 -0.653680
v -5.771731 11.181293 -0.762863
v -5.705443 11.361446 -0.543271
v -3.038324 9.005590 -1.030099
v -2.897574 9.388110 -0.563838
v -3.426700 8.624291 -0.188739
v -3.365345 8.533519 -0.798270
v -3.137603 9.152454 -0.043853
v -4.395004 9.757572 -0.934048
v -4.709531 9.448777 -0.252671
v -4.281017 10.067357 -0.556446
v -4.659843 9.375265 -0.746302
v -4.475405 9.876512 -0.135335
v -0.236959 11.093043 -0.619703
v -0.372130 10.600293 -0.349990
v -0.940792 10.515607 -0.407231
v -1.157076 10.956026 -0.712325
v -0.722079 11.312897 -0.843638
v -0.501282 13.105340 3.735704
v -0.556852 12.902766 3.846585
v -0.790633 12.867951 3.823053
v -0.879549 13.049011 3.697626
v -0.700718 13.195723 3.643642
v -1.097179 11.277172 1.471607
v -0.717468 11.588687 1.356983
v -0.411996 10.966652 1.787891
v -0.908384 10.892730 1.737924
v -0.294006 11.396775 1.552456
v -1.018958 11.889568 2.576453
v -0.464061 11.638093 2.832597
v -0.711448 12.141850 2.483625
v -0.866062 11.578226 2.792132
v -0.368505 11.986429 2.641930
v -0.251219 7.752477 -0.908068
v -0.215205 7.307025 -0.785872
v -0.059141 7.230469 -0.271796
v -0.334950 7.628612 -0.076274
v -0.453657 7.951227 -0.469515
v 3.686112 9.571613 -0.669117
v 3.786350 9.388484 -0.618882
v 3.765077 9.357012 -0.407541
v 3.651690 9.520691 -0.327160
v 3.602888 9.653320 -0.488825
v 1.639347 7.918931 -0.130421
v 1.535726 8.200543 -0.473683
v 1.925270 7.638217 -0.749833
v 1.880100 7.571391 -0.301093
v 1.712435 8.027053 -0.856497
v 2.638138 8.472543 -0.201133
v 2.869695 8.245207 -0.702765
v 2.554221 8.700607 -0.479125
v 2.833114 8.191087 -0.339353
v 2.697330 8.560106 -0.789149
v -0.101432 7.752477 -0.099944
v -0.223628 7.307025 0.143880
v -0.737704 7.230469 0.092133
v -0.933227 7.628612 -0.183675
v -0.539986 7.951227 -0.302383
v -0.340383 10.395626 3.520998
v -0.390619 10.275559 3.691783
v -0.601960 10.237928 3.686589
v -0.682340 10.334739 3.512591
v -0.520676 10.432199 3.410251
v -0.879080 7.918931 1.790621
v -0.535817 8.200543 1.687000
v -0.259668 7.638217 2.076545
v -0.708407 7.571391 2.031375
v -0.153003 8.027053 1.863710
v -0.808367 8.946812 3.065869
v -0.306736 8.845051 3.374000
v -0.530375 9.114404 2.889889
v -0.670148 8.780342 3.365068
v -0.220352 9.051512 3.080324
v -1.203960 5.358760 -0.064150
v -1.271577 5.224683 -0.899549
v 0.063624 5.236035 -0.578245
v -0.378763 5.365775 0.134426
v -0.488160 5.148835 -1.217283
v -4.858541 11.720130 3.057099
v -4.858541 13.282151 2.470607
v -6.823471 11.720130 2.418655
v -6.478739 13.282151 1.944172
v -8.037864 11.720130 0.747187
v -7.480076 13.282151 0.565950
v -8.037864 11.720130 -1.318862
v -7.480075 13.282151 -1.137626
v -6.823470 11.720130 -2.990330
v -6.478738 13.282151 -2.515848
v -4.858541 11.720130 -3.628775
v -4.858541 13.282151 -3.042282
v -2.893612 11.720130 -2.990330
v -3.238345 13.282151 -2.515848
v -1.679220 11.720130 -1.318862
v -2.237008 13.282151 -1.137626
v -1.679220 11.720130 0.747187
v -2.237008 13.282151 0.565950
v -2.893613 11.720130 2.418655
v -3.238345 13.282151 1.944173
v -4.858542 14.003283 1.759541
v -6.060785 14.003283 1.368910
v -6.803813 14.003283 0.346219
v -6.803813 14.003283 -0.917895
v -6.060785 14.003283 -1.940584
v -4.858541 14.003283 -2.331217
v -3.656298 14.003283 -1.940584
v -2.913270 14.003283 -0.917895
v -2.913270 14.003283 0.346219
v -3.656298 14.003283 1.368909
v -4.858541 14.391583 0.916507
v -5.565262 14.391583 0.686880
v -6.002040 14.391583 0.085707
v -6.002040 14.391583 -0.657383
v -5.565262 14.391583 -1.258556
v -4.858541 14.391583 -1.488183
v -4.151821 14.391583 -1.258555
v -3.715044 14.391583 -0.657383
v -3.715044 14.391583 0.085707
v -4.151821 14.391583 0.686880
v -4.858541 10.832584 2.478680
v -6.483484 10.832584 1.950704
v -7.487754 10.832584 0.568445
v -7.487755 10.832584 -1.140121
v -6.483484 10.832584 -2.522379
v -4.858541 10.832584 -3.050355
v -3.233599 10.832584 -2.522379
v -2.229329 10.832584 -1.140121
v -2.229329 10.832584 0.568445
v -3.233600 10.832584 1.950705
v -4.858541 10.277867 1.210711
v -5.738191 10.277867 0.924896
v -6.281845 10.277867 0.176621
v -6.281844 10.277867 -0.748297
v -5.738191 10.277867 -1.496571
v -4.858541 10.277867 -1.782387
v -3.978892 10.277867 -1.496571
v -3.435239 10.277867 -0.748297
v -3.435239 10.277867 0.176621
v -3.978893 10.277867 0.924896
v -4.858541 10.222396 0.544853
v -5.346810 10.222396 0.386205
v -5.648576 10.222396 -0.029140
v -5.648576 10.222396 -0.542536
v -5.346809 10.222396 -0.957881
v -4.858541 10.222396 -1.116529
v -4.370274 10.222396 -0.957881
v -4.068507 10.222396 -0.542536
v -4.068507 10.222396 -0.029140
v -4.370274 10.222396 0.386206
v 3.925314 9.691688 3.020017
v 3.925313 11.348331 2.440030
v 1.982181 9.691688 2.388654
v 2.323088 11.348331 1.919435
v 0.781258 9.691688 0.735727
v 1.332859 11.348331 0.556501
v 0.781259 9.691688 -1.307404
v 1.332859 11.348331 -1.128178
v 1.982181 9.691688 -2.960332
v 2.323089 11.348331 -2.491112
v 3.925314 9.691688 -3.591694
v 3.925313 11.348331 -3.011707
v 5.868447 9.691688 -2.960331
v 5.527538 11.348331 -2.491112
v 7.069368 9.691688 -1.307404
v 6.517768 11.348331 -1.128178
v 7.069368 9.691688 0.735727
v 6.517769 11.348331 0.556502
v 5.868446 9.691688 2.388655
v 5.527538 11.348331 1.919436
v 3.925313 12.113147 1.736852
v 2.736406 12.113147 1.350553
v 2.001620 12.113147 0.339207
v 2.001620 12.113147 -0.910884
v 2.736406 12.113147 -1.922230
v 3.925313 12.113147 -2.308529
v 5.114222 12.113147 -1.922230
v 5.849007 12.113147 -0.910885
v 5.849007 12.113147 0.339207
v 5.114221 12.113147 1.350553
v 3.925314 12.524971 0.903170
v 3.226432 12.524971 0.676089
v 2.794500 12.524971 0.081585
v 2.794500 12.524971 -0.653262
v 3.226433 12.524971 -1.247766
v 3.925314 12.524971 -1.474847
v 4.624195 12.524971 -1.247766
v 5.056128 12.524971 -0.653262
v 5.056128 12.524971 0.081585
v 4.624194 12.524971 0.676090
v 3.925314 8.750377 2.448014
v 2.318395 8.750377 1.925894
v 1.325266 8.750377 0.558968
v 1.325266 8.750377 -1.130645
v 2.318396 8.750377 -2.497571
v 3.925314 8.750377 -3.019691
v 5.532231 8.750377 -2.497571
v 6.525361 8.750377 -1.130646
v 6.525362 8.750377 0.558968
v 5.532231 8.750377 1.925895
v 3.925314 8.162057 1.194110
v 3.055421 8.162057 0.911465
v 2.517799 8.162057 0.171491
v 2.517799 8.162057 -0.743168
v 3.055422 8.162057 -1.483142
v 3.925314 8.162057 -1.765787
v 4.795205 8.162057 -1.483142
v 5.332828 8.162057 -0.743168
v 5.332829 8.162057 0.171491
v 4.795205 8.162057 0.911466
v 3.925313 8.103225 0.535638
v 3.442461 8.103225 0.378750
v 3.144042 8.103225 -0.031988
v 3.144042 8.103225 -0.539689
v 3.442462 8.103225 -0.950427
v 3.925314 8.103225 -1.107316
v 4.408166 8.103225 -0.950427
v 4.706585 8.103225 -0.539689
v 4.706584 8.103225 -0.031988
v 4.408165 8.103225 0.378750
v 2.497328 11.190107 4.922142
v 2.497328 12.375475 4.532494
v 1.191888 11.190107 4.497979
v 1.420917 12.375475 4.182747
v 0.385082 11.190107 3.387506
v 0.755660 12.375475 3.267098
v 0.385082 11.190107 2.014886
v 0.755659 12.375475 2.135293
v 1.191888 11.190107 0.904413
v 1.420918 12.375475 1.219644
v 2.497328 11.190107 0.480250
v 2.497328 12.375475 0.869898
v 3.802767 11.190107 0.904413
v 3.573738 12.375475 1.219645
v 4.609573 11.190107 2.014885
v 4.238996 12.375475 2.135293
v 4.609573 11.190107 3.387506
v 4.238996 12.375475 3.267098
v 3.802767 11.190107 4.497980
v 3.573737 12.375475 4.182748
v 2.497328 12.922718 4.060084
v 1.698593 12.922718 3.800560
v 1.204948 12.922718 3.121115
v 1.204948 12.922718 2.281276
v 1.698593 12.922718 1.601832
v 2.497328 12.922718 1.342307
v 3.296062 12.922718 1.601832
v 3.789707 12.922718 2.281276
v 3.789707 12.922718 3.121115
v 3.296062 12.922718 3.800560
v 2.497328 13.217388 3.499998
v 2.027804 13.217388 3.347440
v 1.737622 13.217388 2.948039
v 1.737622 13.217388 2.454352
v 2.027804 13.217388 2.054951
v 2.497328 13.217388 1.902394
v 2.966851 13.217388 2.054951
v 3.257033 13.217388 2.454352
v 3.257034 13.217388 2.948039
v 2.966851 13.217388 3.347440
v 2.497328 10.516577 4.537858
v 1.417765 10.516577 4.187087
v 0.750558 10.516577 3.268755
v 0.750558 10.516577 2.133636
v 1.417765 10.516577 1.215305
v 2.497328 10.516577 0.864534
v 3.576890 10.516577 1.215305
v 4.244097 10.516577 2.133636
v 4.244098 10.516577 3.268756
v 3.576890 10.516577 4.187088
v 2.497328 10.095619 3.695458
v 1.912915 10.095619 3.505571
v 1.551728 10.095619 3.008440
v 1.551728 10.095619 2.393952
v 1.912915 10.095619 1.896821
v 2.497328 10.095619 1.706934
v 3.081740 10.095619 1.896821
v 3.442927 10.095619 2.393952
v 3.442927 10.095619 3.008440
v 3.081740 10.095619 3.505571
v 2.497328 10.053524 3.253082
v 2.172937 10.053524 3.147681
v 1.972453 10.053524 2.871738
v 1.972453 10.053524 2.530654
v 2.172937 10.053524 2.254710
v 2.497327 10.053524 2.149309
v 2.821718 10.053524 2.254711
v 3.022203 10.053524 2.530653
v 3.022202 10.053524 2.871738
v 2.821718 10.053524 3.147681
v -0.730929 11.010048 6.155807
v -0.730929 12.828856 5.557938
v -2.733974 11.010048 5.504978
v -2.382555 12.828856 5.021292
v -3.971923 11.010048 3.801087
v -3.403315 12.828856 3.616335
v -3.971923 11.010048 1.694961
v -3.403315 12.828856 1.879713
v -2.733973 11.010048 -0.008930
v -2.382555 12.828856 0.474756
v -0.730929 11.010048 -0.659759
v -0.730929 12.828856 -0.061890
v 1.272116 11.010048 -0.008930
v 0.920697 12.828856 0.474757
v 2.510065 11.010048 1.694961
v 1.941457 12.828856 1.879712
v 2.510065 11.010048 3.801087
v 1.941458 12.828856 3.616335
v 1.272115 11.010048 5.504979
v 0.920696 12.828856 5.021292
v -0.730929 13.668538 4.833079
v -1.956494 13.668538 4.434869
v -2.713934 13.668538 3.392341
v -2.713934 13.668538 2.103706
v -1.956493 13.668538 1.061179
v -0.730929 13.668538 0.662969
v 0.494636 13.668538 1.061179
v 1.252076 13.668538 2.103706
v 1.252076 13.668538 3.392341
v 0.494635 13.668538 4.434870
v -0.730929 14.120674 3.973692
v -1.451359 14.120674 3.739610
v -1.896608 14.120674 3.126776
v -1.896609 14.120674 2.369272
v -1.451358 14.120674 1.756438
v -0.730929 14.120674 1.522356
v -0.010499 14.120674 1.756438
v 0.434751 14.120674 2.369272
v 0.434751 14.120674 3.126776
v -0.010500 14.120674 3.739611
v -0.730929 9.976594 5.566167
v -2.387393 9.976594 5.027950
v -3.411143 9.976594 3.618878
v -3.411143 9.976594 1.877170
v -2.387392 9.976594 0.468098
v -0.730929 9.976594 -0.070120
v 0.925534 9.976594 0.468098
v 1.949285 9.976594 1.877169
v 1.949285 9.976594 3.618878
v 0.925533 9.976594 5.027951
v -0.730929 9.330685 4.273603
v -1.627642 9.330685 3.982243
v -2.181840 9.330685 3.219454
v -2.181841 9.330685 2.276594
v -1.627642 9.330685 1.513805
v -0.730929 9.330685 1.222445
v 0.165784 9.330685 1.513805
v 0.719983 9.330685 2.276594
v 0.719983 9.330685 3.219454
v 0.165783 9.330685 3.982244
v -0.730929 9.266094 3.594829
v -1.228668 9.266094 3.433104
v -1.536288 9.266094 3.009701
v -1.536288 9.266094 2.486347
v -1.228668 9.266094 2.062944
v -0.730929 9.266094 1.901219
v -0.233190 9.266094 2.062944
v 0.074430 9.266094 2.486347
v 0.074430 9.266094 3.009701
v -0.233190 9.266094 3.433104
v 1.841984 9.995828 -0.420542
v 1.841984 11.173615 -0.807698
v 0.544893 9.995828 -0.841992
v 0.772457 11.173615 -1.155208
v -0.256754 9.995828 -1.945364
v 0.111454 11.173615 -2.065002
v -0.256754 9.995828 -3.309207
v 0.111454 11.173615 -3.189569
v 0.544893 9.995828 -4.412579
v 0.772457 11.173615 -4.099363
v 1.841984 9.995828 -4.834029
v 1.841984 11.173615 -4.446873
v 3.139076 9.995828 -4.412578
v 2.911511 11.173615 -4.099362
v 3.940722 9.995828 -3.309207
v 3.572515 11.173615 -3.189569
v 3.940722 9.995828 -1.945364
v 3.572515 11.173615 -2.065002
v 3.139075 9.995828 -0.841992
v 2.911510 11.173615 -1.155208
v 1.841984 11.717360 -1.277087
v 1.048358 11.717360 -1.534952
v 0.557869 11.717360 -2.210051
v 0.557869 11.717360 -3.044520
v 1.048358 11.717360 -3.719619
v 1.841984 11.717360 -3.977484
v 2.635611 11.717360 -3.719619
v 3.126099 11.717360 -3.044520
v 3.126099 11.717360 -2.210052
v 2.635611 11.717360 -1.534952
v 1.841984 12.010145 -1.833592
v 1.375463 12.010145 -1.985174
v 1.087137 12.010145 -2.382021
v 1.087137 12.010145 -2.872550
v 1.375463 12.010145 -3.269397
v 1.841985 12.010145 -3.420979
v 2.308506 12.010145 -3.269397
v 2.596832 12.010145 -2.872550
v 2.596832 12.010145 -2.382020
v 2.308506 12.010145 -1.985174
v 1.841984 9.326604 -0.802369
v 0.769325 9.326604 -1.150896
v 0.106385 9.326604 -2.063355
v 0.106385 9.326604 -3.191216
v 0.769325 9.326604 -4.103674
v 1.841984 9.326604 -4.452203
v 2.914644 9.326604 -4.103674
v 3.577584 9.326604 -3.191216
v 3.577584 9.326604 -2.063355
v 2.914643 9.326604 -1.150896
v 1.841984 8.908340 -1.639382
v 1.261309 8.908340 -1.828054
v 0.902432 8.908340 -2.322006
v 0.902432 8.908340 -2.932564
v 1.261309 8.908340 -3.426517
v 1.841984 8.908340 -3.615189
v 2.422660 8.908340 -3.426516
v 2.781537 8.908340 -2.932564
v 2.781537 8.908340 -2.322006
v 2.422660 8.908340 -1.828054
v 1.841984 8.866512 -2.078928
v 1.519668 8.866512 -2.183656
v 1.320466 8.866512 -2.457834
v 1.320466 8.866512 -2.796737
v 1.519668 8.866512 -3.070916
v 1.841984 8.866512 -3.175642
v 2.164301 8.866512 -3.070916
v 2.363503 8.866512 -2.796737
v 2.363503 8.866512 -2.457834
v 2.164300 8.866512 -2.183655
v -1.737916 10.554733 -0.420542
v -1.737916 11.732521 -0.807698
v -3.035007 10.554733 -0.841992
v -2.807443 11.732521 -1.155208
v -3.836654 10.554733 -1.945364
v -3.468447 11.732521 -2.065002
v -3.836654 10.554733 -3.309207
v -3.468446 11.732521 -3.189569
v -3.035007 10.554733 -4.412579
v -2.807443 11.732521 -4.099363
v -1.737915 10.554733 -4.834029
v -1.737916 11.732521 -4.446873
v -0.440824 10.554733 -4.412579
v -0.668389 11.732521 -4.099363
v 0.360822 10.554733 -3.309207
v -0.007385 11.732521 -3.189569
v 0.360822 10.554733 -1.945364
v -0.007385 11.732521 -2.065002
v -0.440825 10.554733 -0.841992
v -0.668390 11.732521 -1.155208
v -1.737916 12.276265 -1.277087
v -2.531543 12.276265 -1.534952
v -3.022031 12.276265 -2.210051
v -3.022031 12.276265 -3.044520
v -2.531543 12.276265 -3.719619
v -1.737916 12.276265 -3.977484
v -0.944289 12.276265 -3.719619
v -0.453801 12.276265 -3.044520
v -0.453801 12.276265 -2.210051
v -0.944290 12.276265 -1.534952
v -1.737916 12.569050 -1.833592
v -2.204437 12.569050 -1.985174
v -2.492763 12.569050 -2.382021
v -2.492764 12.569050 -2.872550
v -2.204437 12.569050 -3.269397
v -1.737916 12.569050 -3.420979
v -1.271394 12.569050 -3.269397
v -0.983068 12.569050 -2.872550
v -0.983068 12.569050 -2.382021
v -1.271395 12.569050 -1.985174
v -1.737916 9.885509 -0.802369
v -2.810575 9.885509 -1.150897
v -3.473515 9.885509 -2.063355
v -3.473515 9.885509 -3.191216
v -2.810575 9.885509 -4.103674
v -1.737916 9.885509 -4.452203
v -0.665256 9.885509 -4.103675
v -0.002316 9.885509 -3.191216
v -0.002317 9.885509 -2.063355
v -0.665257 9.885509 -1.150896
v -1.737916 9.467245 -1.639382
v -2.318591 9.467245 -1.828054
v -2.677469 9.467245 -2.322006
v -2.677469 9.467245 -2.932564
v -2.318592 9.467245 -3.426517
v -1.737916 9.467245 -3.615190
v -1.157241 9.467245 -3.426517
v -0.798363 9.467245 -2.932565
v -0.798364 9.467245 -2.322006
v -1.157241 9.467245 -1.828054
v -1.737916 9.425419 -2.078929
v -2.060232 9.425419 -2.183656
v -2.259434 9.425419 -2.457834
v -2.259434 9.425419 -2.796737
v -2.060232 9.425419 -3.070916
v -1.737916 9.425419 -3.175643
v -1.415600 9.425419 -3.070916
v -1.216398 9.425419 -2.796737
v -1.216398 9.425419 -2.457834
v -1.415600 9.425419 -2.183655
v 0.249446 11.110994 3.346657
v 0.249446 13.049737 2.709363
v -1.885681 11.110994 2.652912
v -1.511090 13.049737 2.137331
v -3.205262 11.110994 0.836664
v -2.599160 13.049737 0.639730
v -3.205262 11.110994 -1.408341
v -2.599160 13.049737 -1.211406
v -1.885681 11.110994 -3.224588
v -1.511089 13.049737 -2.709007
v 0.249446 11.110994 -3.918333
v 0.249446 13.049737 -3.281040
v 2.384573 11.110994 -3.224588
v 2.009981 13.049737 -2.709007
v 3.704153 11.110994 -1.408341
v 3.098052 13.049737 -1.211407
v 3.704154 11.110994 0.836665
v 3.098052 13.049737 0.639730
v 2.384572 11.110994 2.652913
v 2.009980 13.049737 2.137331
v 0.249446 13.944788 1.936707
v -1.056934 13.944788 1.512239
v -1.864321 13.944788 0.400966
v -1.864321 13.944788 -0.972643
v -1.056933 13.944788 -2.083915
v 0.249446 13.944788 -2.508384
v 1.555825 13.944788 -2.083915
v 2.363212 13.944788 -0.972643
v 2.363212 13.944788 0.400966
v 1.555825 13.944788 1.512240
v 0.249446 14.426738 1.020652
v -0.518490 14.426738 0.771134
v -0.993100 14.426738 0.117889
v -0.993100 14.426738 -0.689566
v -0.518490 14.426738 -1.342811
v 0.249446 14.426738 -1.592328
v 1.017381 14.426738 -1.342811
v 1.491991 14.426738 -0.689566
v 1.491991 14.426738 0.117889
v 1.017381 14.426738 0.771135
v 0.249446 10.009394 2.718136
v -1.516246 10.009394 2.144428
v -2.607504 10.009394 0.642441
v -2.607504 10.009394 -1.214117
v -1.516246 10.009394 -2.716105
v 0.249446 10.009394 -3.289813
v 2.015137 10.009394 -2.716104
v 3.106395 10.009394 -1.214118
v 3.106395 10.009394 0.642441
v 2.015136 10.009394 2.144429
v 0.249446 9.320893 1.340338
v -0.706397 9.320893 1.029767
v -1.297141 9.320893 0.216678
v -1.297141 9.320893 -0.788355
v -0.706397 9.320893 -1.601443
v 0.249446 9.320893 -1.912015
v 1.205288 9.320893 -1.601443
v 1.796032 9.320893 -0.788355
v 1.796032 9.320893 0.216678
v 1.205288 9.320893 1.029767
v 0.249446 9.252043 0.616806
v -0.281115 9.252043 0.444416
v -0.609020 9.252043 -0.006906
v -0.609020 9.252043 -0.564770
v -0.281115 9.252043 -1.016093
v 0.249446 9.252043 -1.188482
v 0.780006 9.252043 -1.016092
v 1.107911 9.252043 -0.564770
v 1.107911 9.252043 -0.006906
v 0.780006 9.252043 0.444416
vn -0.2270 0.2781 0.9334
vn -0.9753 0.2164 0.0442
vn -0.3830 -0.1185 -0.9161
vn 0.8527 0.0905 0.5145
vn 0.7474 -0.2649 -0.6092
vn 0.8477 -0.0212 0.5301
vn 0.8294 0.2785 0.4842
vn 0.7389 0.1338 -0.6604
vn 0.7451 0.1020 -0.6591
vn -0.3845 -0.0644 -0.9209
vn -0.3778 0.0631 -0.9238
vn -0.9956 -0.0415 0.0839
vn -0.9966 0.0361 0.0745
vn -0.2362 0.1728 0.9562
vn -0.2321 0.0556 0.9711
vn -0.9934 0.0940 0.0653
vn 0.8397 -0.0841 0.5365
vn -0.2341 0.0202 0.9720
vn -0.3728 0.0337 -0.9273
vn 0.7598 -0.0763 -0.6456
vn 0.7512 0.0619 -0.6571
vn -0.9959 -0.0304 0.0855
vn 0.8531 0.0677 0.5173
vn -0.3756 0.0023 -0.9268
vn -0.2340 0.0098 0.9722
vn 0.5188 0.5775 -0.6304
vn -0.7806 -0.6248 0.0145
vn 0.5676 0.6192 0.5426
vn -0.3375 -0.2162 -0.9162
vn -0.2475 -0.1280 0.9604
vn -0.0583 -0.2343 0.9704
vn -0.0546 -0.3284 -0.9429
vn 0.1118 0.8847 0.4526
vn -0.1698 -0.9771 0.1284
vn 0.1007 0.7167 -0.6901
vn -0.1624 -0.1774 0.9707
vn -0.2298 -0.2961 -0.9271
vn 0.3783 0.7649 0.5213
vn -0.5418 -0.8376 0.0702
vn 0.3297 0.6787 -0.6563
vn -0.6304 0.5775 -0.5188
vn 0.0145 -0.6248 0.7806
vn 0.5426 0.6192 -0.5676
vn -0.9162 -0.2162 0.3375
vn 0.9604 -0.1280 0.2475
vn 0.9704 -0.2343 0.0583
vn -0.9160 -0.3925 0.0828
vn 0.4526 0.8847 -0.1118
vn 0.1284 -0.9771 0.1698
vn -0.6482 0.7557 -0.0934
vn 0.9707 -0.1774 0.1624
vn -0.9271 -0.2961 0.2298
vn 0.5213 0.7649 -0.3783
vn 0.0702 -0.8376 0.5418
vn -0.6563 0.6787 -0.3297
vn -0.5188 0.5775 0.6304
vn 0.7806 -0.6248 -0.0145
vn -0.5676 0.6192 -0.5426
vn 0.3375 -0.2162 0.9162
vn 0.2475 -0.1280 -0.9604
vn 0.0573 -0.2482 -0.9670
vn 0.0828 -0.3925 0.9160
vn -0.1118 0.8847 -0.4526
vn 0.1606 -0.9734 -0.1635
vn -0.0934 0.7557 0.6482
vn 0.1624 -0.1774 -0.9707
vn 0.2298 -0.2961 0.9271
vn -0.3783 0.7649 -0.5213
vn 0.5418 -0.8376 -0.0702
vn -0.3297 0.6787 0.6563
vn -0.6304 0.2891 -0.7204
vn 0.0145 -0.2160 0.9763
vn 0.5426 0.3050 -0.7826
vn -0.9162 -0.0450 0.3982
vn 0.9604 -0.0056 0.2786
vn 0.9701 -0.1578 0.1842
vn -0.9238 -0.2708 0.2707
vn 0.5114 0.6770 -0.5293
vn 0.0740 -0.7345 0.6746
vn -0.6470 0.6097 -0.4579
vn -0.2910 0.3363 0.8957
vn -0.7619 0.3363 0.5536
vn -0.9418 0.3363 -0.0000
vn -0.7619 0.3363 -0.5536
vn -0.2910 0.3363 -0.8957
vn 0.2910 0.3363 -0.8957
vn 0.7619 0.3363 -0.5536
vn 0.9418 0.3363 -0.0000
vn 0.7294 0.6840 -0.0000
vn 0.7619 0.3363 0.5536
vn 0.2910 0.3363 0.8957
vn 0.5901 0.6840 0.4288
vn 0.5901 0.6840 -0.4288
vn 0.2254 0.6841 -0.6937
vn -0.2254 0.6840 -0.6937
vn -0.5901 0.6840 -0.4288
vn -0.2254 0.6841 0.6937
vn -0.7294 0.6840 -0.0000
vn -0.5901 0.6841 0.4288
vn 0.2254 0.6841 0.6937
vn 0.3526 0.9000 -0.2562
vn -0.3526 0.9000 -0.2562
vn -0.1347 0.9000 0.4145
vn 0.4359 0.9000 -0.0000
vn -0.1347 0.9000 -0.4145
vn -0.3526 0.9000 0.2562
vn 0.3526 0.9000 0.2562
vn 0.1347 0.9000 -0.4145
vn -0.4359 0.9000 -0.0000
vn 0.1347 0.9000 0.4145
vn 0.6876 -0.5268 -0.4996
vn 0.2627 -0.5268 -0.8084
vn -0.2627 -0.5268 -0.8084
vn -0.6876 -0.5268 -0.4996
vn -0.2627 -0.5268 0.8084
vn -0.8500 -0.5268 -0.0000
vn -0.6876 -0.5268 0.4996
vn 0.2627 -0.5268 0.8084
vn 0.6876 -0.5268 0.4996
vn 0.8500 -0.5268 -0.0000
vn -0.1291 -0.9085 0.3975
vn 0.4179 -0.9085 -0.0000
vn -0.1291 -0.9085 -0.3975
vn -0.3381 -0.9085 0.2456
vn 0.3381 -0.9085 0.2456
vn 0.1291 -0.9085 -0.3975
vn -0.4179 -0.9085 -0.0000
vn 0.1291 -0.9085 0.3975
vn 0.3381 -0.9085 -0.2456
vn -0.3381 -0.9085 -0.2456
vn -0.0270 -0.9962 -0.0830
vn -0.0706 -0.9962 0.0513
vn 0.0706 -0.9962 0.0513
vn 0.0270 -0.9962 -0.0830
vn -0.0873 -0.9962 -0.0000
vn 0.0270 -0.9962 0.0830
vn 0.0706 -0.9962 -0.0513
vn -0.0706 -0.9962 -0.0513
vn -0.0270 -0.9962 0.0830
vn 0.0873 -0.9962 -0.0000
vn -0.0000 1.0000 -0.0000
vn -0.0000 -1.0000 -0.0000
vn -0.2932 0.3159 0.9024
vn -0.7676 0.3159 0.5577
vn -0.9488 0.3159 -0.0000
vn -0.7676 0.3159 -0.5577
vn -0.2932 0.3159 -0.9024
vn 0.2932 0.3159 -0.9024
vn 0.7676 0.3159 -0.5577
vn 0.9488 0.3159 -0.0000
vn 0.7528 0.6583 -0.0000
vn 0.7676 0.3159 0.5577
vn 0.2932 0.3159 0.9024
vn 0.6090 0.6583 0.4425
vn 0.6090 0.6583 -0.4425
vn 0.2326 0.6583 -0.7160
vn -0.2326 0.6583 -0.7160
vn -0.6090 0.6583 -0.4425
vn -0.2326 0.6583 0.7160
vn -0.7528 0.6583 -0.0000
vn -0.6090 0.6583 0.4425
vn 0.2326 0.6583 0.7160
vn 0.3729 0.8874 -0.2709
vn -0.3729 0.8874 -0.2709
vn -0.1424 0.8874 0.4384
vn 0.4609 0.8874 -0.0000
vn -0.1424 0.8874 -0.4384
vn -0.3729 0.8874 0.2709
vn 0.3729 0.8874 0.2709
vn 0.1424 0.8874 -0.4384
vn -0.4609 0.8874 -0.0000
vn 0.1424 0.8874 0.4384
vn 0.7005 -0.5004 -0.5089
vn 0.2676 -0.5004 -0.8234
vn -0.2675 -0.5004 -0.8234
vn -0.7005 -0.5004 -0.5089
vn -0.2675 -0.5004 0.8234
vn -0.8658 -0.5004 -0.0000
vn -0.7005 -0.5004 0.5089
vn 0.2675 -0.5004 0.8234
vn 0.7005 -0.5004 0.5089
vn 0.8658 -0.5004 -0.0000
vn -0.1367 -0.8968 0.4208
vn 0.4424 -0.8968 -0.0000
vn -0.1367 -0.8968 -0.4208
vn -0.3579 -0.8968 0.2601
vn 0.3579 -0.8968 0.2601
vn 0.1367 -0.8968 -0.4208
vn -0.4424 -0.8968 -0.0000
vn 0.1367 -0.8968 0.4208
vn 0.3579 -0.8968 -0.2601
vn -0.3579 -0.8968 -0.2601
vn -0.0289 -0.9956 -0.0890
vn -0.0757 -0.9956 0.0550
vn 0.0757 -0.9956 0.0550
vn 0.0289 -0.9956 -0.0890
vn -0.0935 -0.9956 -0.0000
vn 0.0289 -0.9956 0.0890
vn 0.0757 -0.9956 -0.0550
vn -0.0757 -0.9956 -0.0550
vn -0.0289 -0.9956 0.0890
vn 0.0935 -0.9956 -0.0000
vn -0.2949 0.2984 0.9077
vn -0.7722 0.2984 0.5610
vn -0.9544 0.2984 -0.0000
vn -0.7722 0.2984 -0.5610
vn -0.2949 0.2984 -0.9077
vn 0.2949 0.2984 -0.9077
vn 0.7722 0.2984 -0.5610
vn 0.9544 0.2984 -0.0000
vn 0.7729 0.6345 -0.0000
vn 0.7722 0.2984 0.5610
vn 0.2949 0.2984 0.9077
vn 0.6253 0.6345 0.4543
vn 0.6253 0.6345 -0.4543
vn 0.2388 0.6345 -0.7351
vn -0.2388 0.6345 -0.7351
vn -0.6253 0.6345 -0.4543
vn -0.2388 0.6345 0.7351
vn -0.7729 0.6345 -0.0000
vn -0.6253 0.6345 0.4543
vn 0.2388 0.6345 0.7351
vn 0.3916 0.8750 -0.2845
vn -0.3916 0.8750 -0.2845
vn -0.1496 0.8750 0.4604
vn 0.4841 0.8750 -0.0000
vn -0.1496 0.8750 -0.4604
vn -0.3916 0.8750 0.2845
vn 0.3916 0.8750 0.2845
vn 0.1496 0.8750 -0.4604
vn -0.4841 0.8750 -0.0000
vn 0.1496 0.8750 0.4604
vn 0.7111 -0.4769 -0.5166
vn 0.2716 -0.4769 -0.8359
vn -0.2716 -0.4769 -0.8359
vn -0.7111 -0.4769 -0.5166
vn -0.2716 -0.4769 0.8359
vn -0.8789 -0.4769 -0.0000
vn -0.7111 -0.4769 0.5166
vn 0.2716 -0.4769 0.8359
vn 0.7111 -0.4769 0.5166
vn 0.8789 -0.4769 -0.0000
vn -0.1437 -0.8852 0.4424
vn 0.4651 -0.8852 -0.0000
vn -0.1437 -0.8852 -0.4424
vn -0.3763 -0.8852 0.2734
vn 0.3763 -0.8852 0.2734
vn 0.1437 -0.8852 -0.4424
vn -0.4651 -0.8852 -0.0000
vn 0.1437 -0.8852 0.4424
vn 0.3763 -0.8852 -0.2734
vn -0.3763 -0.8852 -0.2734
vn -0.0308 -0.9950 -0.0947
vn -0.0805 -0.9950 0.0585
vn 0.0805 -0.9950 0.0585
vn 0.0308 -0.9950 -0.0947
vn -0.0996 -0.9950 -0.0000
vn 0.0308 -0.9950 0.0947
vn 0.0805 -0.9950 -0.0585
vn -0.0805 -0.9950 -0.0585
vn -0.0308 -0.9950 0.0947
vn 0.0996 -0.9950 -0.0000
vt 0.558473 0.581150
vt 0.560081 0.499841
vt 0.554861 0.500252
vt 0.553013 0.581581
vt 0.554434 0.508117
vt 0.552566 0.589807
vt 0.559389 0.512566
vt 0.557749 0.594460
vt 0.562476 0.672554
vt 0.561399 0.589110
vt 0.559055 0.667812
vt 0.562879 0.507451
vt 0.564929 0.755382
vt 0.560832 0.749703
vt 0.559841 0.764520
vt 0.558227 0.680183
vt 0.552600 0.764489
vt 0.552181 0.680157
vt 0.553213 0.755332
vt 0.552693 0.672511
vt 0.552387 0.485501
vt 0.552817 0.477581
vt 0.550774 0.454909
vt 0.550340 0.462885
vt 0.558073 0.477166
vt 0.560891 0.484830
vt 0.558904 0.462209
vt 0.556066 0.454492
vt 0.557377 0.489981
vt 0.555365 0.467396
vt 0.553121 0.115942
vt 0.555859 0.111929
vt 0.549570 0.106281
vt 0.549234 0.112451
vt 0.553664 0.105959
vt 0.530199 0.272245
vt 0.529473 0.290544
vt 0.530366 0.113505
vt 0.530789 0.102863
vt 0.527786 0.313128
vt 0.527470 0.308785
vt 0.529201 0.124112
vt 0.529385 0.126637
vt 0.528961 0.283519
vt 0.530068 0.109419
vt 0.552361 0.384061
vt 0.554471 0.348320
vt 0.537482 0.326289
vt 0.535641 0.357488
vt 0.555195 0.358259
vt 0.552809 0.390204
vt 0.536031 0.362850
vt 0.538114 0.334964
vt 0.556222 0.332373
vt 0.539011 0.312369
vt 0.552935 0.149705
vt 0.550976 0.164607
vt 0.551864 0.096118
vt 0.553003 0.087452
vt 0.551950 0.182998
vt 0.554511 0.179462
vt 0.553920 0.104757
vt 0.552431 0.106813
vt 0.555119 0.158885
vt 0.554274 0.092791
vt 0.555096 0.240765
vt 0.555957 0.211658
vt 0.555594 0.193716
vt 0.554842 0.219124
vt 0.550097 0.219751
vt 0.551474 0.245767
vt 0.551681 0.223490
vt 0.550478 0.200781
vt 0.552867 0.198671
vt 0.552897 0.182380
vt 0.573735 0.352980
vt 0.574270 0.366452
vt 0.585557 0.093873
vt 0.585246 0.086038
vt 0.575512 0.383077
vt 0.575745 0.379880
vt 0.586414 0.101682
vt 0.586279 0.103541
vt 0.574647 0.361279
vt 0.585776 0.090865
vt 0.557419 0.435299
vt 0.555866 0.408986
vt 0.568374 0.392767
vt 0.569729 0.415736
vt 0.555333 0.416303
vt 0.557090 0.439821
vt 0.569442 0.419683
vt 0.567908 0.399154
vt 0.554577 0.397246
vt 0.567248 0.382519
vt 0.554088 0.328537
vt 0.552318 0.338436
vt 0.553120 0.256451
vt 0.554150 0.250694
vt 0.553198 0.348270
vt 0.555513 0.344447
vt 0.554979 0.259947
vt 0.553632 0.262170
vt 0.556063 0.332252
vt 0.555299 0.252854
vt 0.556042 0.435299
vt 0.556820 0.408986
vt 0.556492 0.392767
vt 0.555813 0.415736
vt 0.551522 0.416303
vt 0.552768 0.439821
vt 0.552954 0.419683
vt 0.551867 0.399154
vt 0.554027 0.397246
vt 0.554054 0.382519
vt 0.443081 0.389264
vt 0.435752 0.712041
vt 0.448336 0.712041
vt 0.458343 0.389264
vt 0.456113 0.712041
vt 0.467775 0.389264
vt 0.423168 0.712041
vt 0.427820 0.389264
vt 0.415391 0.712041
vt 0.418388 0.389264
vt 0.420643 0.628603
vt 0.426414 0.628603
vt 0.435752 0.628603
vt 0.445090 0.628603
vt 0.450861 0.628603
vt 0.430263 0.653727
vt 0.426871 0.653727
vt 0.444633 0.653727
vt 0.441241 0.653727
vt 0.435752 0.653727
vt 0.415331 0.390473
vt 0.423131 0.390473
vt 0.435752 0.390473
vt 0.448373 0.390473
vt 0.456173 0.390473
vt 0.442584 0.387564
vt 0.435752 0.387564
vt 0.424697 0.387564
vt 0.446807 0.387564
vt 0.428920 0.387564
vt 0.435752 0.383975
vt 0.439544 0.383975
vt 0.441888 0.383975
vt 0.431960 0.383975
vt 0.429616 0.383975
vt 0.435148 0.414262
vt 0.433316 0.596229
vt 0.449380 0.596229
vt 0.454630 0.414262
vt 0.459308 0.596229
vt 0.466671 0.414262
vt 0.417252 0.596229
vt 0.415666 0.414262
vt 0.407323 0.596229
vt 0.403625 0.414262
vt 0.399370 0.721382
vt 0.406737 0.721382
vt 0.418657 0.721382
vt 0.430577 0.721382
vt 0.437944 0.721382
vt 0.426309 0.659099
vt 0.421978 0.659099
vt 0.444654 0.659099
vt 0.440323 0.659099
vt 0.433316 0.659099
vt 0.409080 0.418936
vt 0.419037 0.418936
vt 0.435148 0.418936
vt 0.451259 0.418936
vt 0.461217 0.418936
vt 0.443870 0.387501
vt 0.435148 0.387501
vt 0.421036 0.387501
vt 0.449260 0.387501
vt 0.426427 0.387501
vt 0.435148 0.384357
vt 0.439989 0.384357
vt 0.442981 0.384357
vt 0.439989 0.384357
vt 0.430307 0.384357
vt 0.427315 0.384357
vt 0.435969 0.424800
vt 0.430472 0.594396
vt 0.443617 0.594396
vt 0.451911 0.424800
vt 0.451741 0.594396
vt 0.461764 0.424800
vt 0.451741 0.594396
vt 0.461764 0.424800
vt 0.443617 0.594396
vt 0.451911 0.424800
vt 0.430472 0.594396
vt 0.435969 0.424800
vt 0.417327 0.594396
vt 0.420028 0.424800
vt 0.409203 0.594396
vt 0.410175 0.424800
vt 0.409203 0.594396
vt 0.410175 0.424800
vt 0.411025 0.712287
vt 0.417327 0.594396
vt 0.420028 0.424800
vt 0.417054 0.712287
vt 0.426808 0.712287
vt 0.436562 0.712287
vt 0.442590 0.712287
vt 0.424739 0.643275
vt 0.421195 0.643275
vt 0.439750 0.643275
vt 0.436206 0.643275
vt 0.430472 0.643275
vt 0.436206 0.643275
vt 0.430472 0.643275
vt 0.424739 0.643275
vt 0.409141 0.429674
vt 0.417289 0.429674
vt 0.430472 0.429674
vt 0.443656 0.429674
vt 0.451804 0.429674
vt 0.443106 0.423558
vt 0.435969 0.423558
vt 0.424422 0.423558
vt 0.447517 0.423558
vt 0.428833 0.423558
vt 0.435969 0.421114
vt 0.439931 0.421114
vt 0.442379 0.421114
vt 0.432008 0.421114
vt 0.429560 0.421114
vt 0.430332 0.411181
vt 0.424835 0.567151
vt 0.437125 0.567151
vt 0.445237 0.411181
vt 0.444721 0.567151
vt 0.454449 0.411181
vt 0.454449 0.411181
vt 0.445237 0.411181
vt 0.430332 0.411181
vt 0.412546 0.567151
vt 0.415428 0.411181
vt 0.404950 0.567151
vt 0.406216 0.411181
vt 0.406216 0.411181
vt 0.421074 0.696226
vt 0.421074 0.696226
vt 0.415428 0.411181
vt 0.426710 0.696226
vt 0.426710 0.696226
vt 0.435829 0.696226
vt 0.444949 0.696226
vt 0.450585 0.696226
vt 0.435829 0.696226
vt 0.444949 0.696226
vt 0.450585 0.696226
vt 0.419475 0.588132
vt 0.416162 0.588132
vt 0.433509 0.588132
vt 0.430196 0.588132
vt 0.424835 0.588132
vt 0.408557 0.412720
vt 0.416174 0.412720
vt 0.428500 0.412720
vt 0.440826 0.412720
vt 0.448444 0.412720
vt 0.431508 0.420553
vt 0.424835 0.420553
vt 0.414039 0.420553
vt 0.414039 0.420553
vt 0.424835 0.420553
vt 0.431508 0.420553
vt 0.435632 0.420553
vt 0.418163 0.420553
vt 0.418163 0.420553
vt 0.435632 0.420553
vt 0.424835 0.419504
vt 0.428539 0.419504
vt 0.430828 0.419504
vt 0.428539 0.419504
vt 0.421132 0.419504
vt 0.418843 0.419504
vt 0.421132 0.419504
vt 0.424835 0.419504
vt 0.436076 0.422962
vt 0.430790 0.606766
vt 0.437921 0.606766
vt 0.444725 0.422962
vt 0.442329 0.606766
vt 0.450071 0.422962
vt 0.423658 0.606766
vt 0.427428 0.422962
vt 0.419251 0.606766
vt 0.422082 0.422962
vt 0.425752 0.719944
vt 0.427428 0.422962
vt 0.429022 0.719944
vt 0.434314 0.719944
vt 0.439606 0.719944
vt 0.442877 0.719944
vt 0.439606 0.719944
vt 0.427679 0.685995
vt 0.425756 0.685995
vt 0.435823 0.685995
vt 0.433900 0.685995
vt 0.430790 0.685995
vt 0.419217 0.431830
vt 0.423637 0.431830
vt 0.430790 0.431830
vt 0.437942 0.431830
vt 0.442362 0.431830
vt 0.434662 0.392216
vt 0.430790 0.392216
vt 0.424525 0.392216
vt 0.437055 0.392216
vt 0.426918 0.392216
vt 0.430790 0.388254
vt 0.432939 0.388254
vt 0.434267 0.388254
vt 0.428641 0.388254
vt 0.427312 0.388254
vt 0.419893 0.417904
vt 0.420657 0.505390
vt 0.429851 0.505390
vt 0.431044 0.417904
vt 0.435534 0.505390
vt 0.437936 0.417904
vt 0.411462 0.505390
vt 0.408742 0.417904
vt 0.405779 0.505390
vt 0.401850 0.417904
vt 0.410380 0.637225
vt 0.414597 0.637225
vt 0.421420 0.637225
vt 0.428243 0.637225
vt 0.432460 0.637225
vt 0.416646 0.514377
vt 0.414167 0.514377
vt 0.427146 0.514377
vt 0.424667 0.514377
vt 0.420657 0.514377
vt 0.404972 0.410714
vt 0.410671 0.410714
vt 0.419893 0.410714
vt 0.429115 0.410714
vt 0.434814 0.410714
vt 0.424885 0.406220
vt 0.419893 0.406220
vt 0.411816 0.406220
vt 0.419893 0.406220
vt 0.424885 0.406220
vt 0.427970 0.406220
vt 0.414901 0.406220
vt 0.414901 0.406220
vt 0.419893 0.405771
vt 0.422664 0.405771
vt 0.424376 0.405771
vt 0.417122 0.405771
vt 0.415409 0.405771
vt 0.416396 0.394132
vt 0.423725 0.633442
vt 0.438944 0.633442
vt 0.425459 0.394132
vt 0.448349 0.633442
vt 0.431060 0.394132
vt 0.408507 0.633442
vt 0.407333 0.394132
vt 0.399102 0.633442
vt 0.401732 0.394132
vt 0.405454 0.727884
vt 0.407333 0.394132
vt 0.412433 0.727884
vt 0.423725 0.727884
vt 0.435018 0.727884
vt 0.441997 0.727884
vt 0.420752 0.643426
vt 0.416649 0.643426
vt 0.438131 0.643426
vt 0.434028 0.643426
vt 0.427390 0.643426
vt 0.404269 0.399897
vt 0.408901 0.399897
vt 0.416396 0.399897
vt 0.423891 0.399897
vt 0.428523 0.399897
vt 0.420453 0.379451
vt 0.416396 0.379451
vt 0.409831 0.379451
vt 0.422961 0.379451
vt 0.412339 0.379451
vt 0.416396 0.377406
vt 0.418648 0.377406
vt 0.420040 0.377406
vt 0.414144 0.377406
vt 0.412752 0.377406
s 0
usemtl Material.001
f 12/1/1 2/2/1 4/3/1 13/4/1
f 13/4/2 4/3/2 6/5/2 15/6/2
f 15/6/3 6/5/3 8/7/3 17/8/3
f 20/9/4 19/10/4 12/1/4 11/11/4
f 17/8/5 8/7/5 10/12/5 19/10/5
f 19/10/6 10/12/6 2/2/6 12/1/6
f 9/13/7 20/9/7 11/11/7 1/14/7
f 7/15/8 18/16/8 20/9/8 9/13/8
f 18/16/9 17/8/9 19/10/9 20/9/9
f 5/17/10 16/18/10 18/16/10 7/15/10
f 16/18/11 15/6/11 17/8/11 18/16/11
f 3/19/12 14/20/12 16/18/12 5/17/12
f 14/20/13 13/4/13 15/6/13 16/18/13
f 1/14/14 11/11/14 14/20/14 3/19/14
f 11/11/15 12/1/15 13/4/15 14/20/15
f 112/21/16 111/22/16 22/23/16 23/24/16
f 114/25/17 113/26/17 25/27/17 21/28/17
f 111/22/18 114/25/18 21/28/18 22/23/18
f 115/29/19 112/21/19 23/24/19 24/30/19
f 113/26/20 115/29/20 24/30/20 25/27/20
f 25/27/21 24/30/21 29/31/21 30/32/21
f 23/24/22 22/23/22 27/33/22 28/34/22
f 21/28/23 25/27/23 30/32/23 26/35/23
f 24/30/24 23/24/24 28/34/24 29/31/24
f 22/23/25 21/28/25 26/35/25 27/33/25
f 48/36/26 46/37/26 39/38/26 40/39/26
f 49/40/27 47/41/27 37/42/27 38/43/27
f 50/44/28 48/36/28 40/39/28 36/45/28
f 46/37/29 49/40/29 38/43/29 39/38/29
f 47/41/30 50/44/30 36/45/30 37/42/30
f 32/46/31 31/47/31 45/48/31 43/49/31
f 34/50/32 33/51/32 44/52/32 41/53/32
f 31/47/33 35/54/33 42/55/33 45/48/33
f 33/51/34 32/46/34 43/49/34 44/52/34
f 35/54/35 34/50/35 41/53/35 42/55/35
f 43/49/36 45/48/36 50/44/36 47/41/36
f 41/53/37 44/52/37 49/40/37 46/37/37
f 45/48/38 42/55/38 48/36/38 50/44/38
f 44/52/39 43/49/39 47/41/39 49/40/39
f 42/55/40 41/53/40 46/37/40 48/36/40
f 68/56/41 66/57/41 59/58/41 60/59/41
f 69/60/42 67/61/42 57/62/42 58/63/42
f 70/64/43 68/56/43 60/59/43 56/65/43
f 66/57/44 69/60/44 58/63/44 59/58/44
f 67/61/45 70/64/45 56/65/45 57/62/45
f 52/66/46 51/67/46 65/68/46 63/69/46
f 54/70/47 53/71/47 64/72/47 61/73/47
f 51/67/48 55/74/48 62/75/48 65/68/48
f 53/71/49 52/66/49 63/69/49 64/72/49
f 55/74/50 54/70/50 61/73/50 62/75/50
f 63/69/51 65/68/51 70/64/51 67/61/51
f 61/73/52 64/72/52 69/60/52 66/57/52
f 65/68/53 62/75/53 68/56/53 70/64/53
f 64/72/54 63/69/54 67/61/54 69/60/54
f 62/75/55 61/73/55 66/57/55 68/56/55
f 88/76/56 86/77/56 79/78/56 80/79/56
f 89/80/57 87/81/57 77/82/57 78/83/57
f 90/84/58 88/76/58 80/79/58 76/85/58
f 86/77/59 89/80/59 78/83/59 79/78/59
f 87/81/60 90/84/60 76/85/60 77/82/60
f 72/86/61 71/87/61 85/88/61 83/89/61
f 74/90/62 73/91/62 84/92/62 81/93/62
f 71/87/63 75/94/63 82/95/63 85/88/63
f 73/91/64 72/86/64 83/89/64 84/92/64
f 75/94/65 74/90/65 81/93/65 82/95/65
f 83/89/66 85/88/66 90/84/66 87/81/66
f 81/93/67 84/92/67 89/80/67 86/77/67
f 85/88/68 82/95/68 88/76/68 90/84/68
f 84/92/69 83/89/69 87/81/69 89/80/69
f 82/95/70 81/93/70 86/77/70 88/76/70
f 108/96/71 106/97/71 99/98/71 100/99/71
f 109/100/72 107/101/72 97/102/72 98/103/72
f 110/104/73 108/96/73 100/99/73 96/105/73
f 106/97/74 109/100/74 98/103/74 99/98/74
f 107/101/75 110/104/75 96/105/75 97/102/75
f 92/106/46 91/107/46 105/108/46 103/109/46
f 94/110/47 93/111/47 104/112/47 101/113/47
f 91/107/48 95/114/48 102/115/48 105/108/48
f 93/111/49 92/106/49 103/109/49 104/112/49
f 95/114/50 94/110/50 101/113/50 102/115/50
f 103/109/76 105/108/76 110/104/76 107/101/76
f 101/113/77 104/112/77 109/100/77 106/97/77
f 105/108/78 102/115/78 108/96/78 110/104/78
f 104/112/79 103/109/79 107/101/79 109/100/79
f 102/115/80 101/113/80 106/97/80 108/96/80
f 10/12/20 8/7/20 115/29/20 113/26/20
f 8/7/19 6/5/19 112/21/19 115/29/19
f 4/3/18 2/2/18 114/25/18 111/22/18
f 2/2/17 10/12/17 113/26/17 114/25/17
f 6/5/16 4/3/16 111/22/16 112/21/16
f 116/116/81 117/117/81 119/118/81 118/119/81
f 118/119/82 119/118/82 121/120/82 120/121/82
f 120/121/83 121/120/83 123/120/83 122/121/83
f 122/121/84 123/120/84 125/118/84 124/119/84
f 124/119/85 125/118/85 127/117/85 126/116/85
f 126/116/86 127/117/86 129/122/86 128/123/86
f 128/123/87 129/122/87 131/124/87 130/125/87
f 130/125/88 131/124/88 133/124/88 132/125/88
f 133/124/89 131/124/89 143/126/89 144/126/89
f 132/125/90 133/124/90 135/122/90 134/123/90
f 134/123/91 135/122/91 117/117/91 116/116/91
f 135/122/92 133/124/92 144/126/92 145/127/92
f 131/124/93 129/122/93 142/127/93 143/126/93
f 129/122/94 127/117/94 141/128/94 142/127/94
f 127/117/95 125/118/95 140/129/95 141/128/95
f 125/118/96 123/120/96 139/130/96 140/129/96
f 119/118/97 117/117/97 136/128/97 137/129/97
f 123/120/98 121/120/98 138/130/98 139/130/98
f 121/120/99 119/118/99 137/129/99 138/130/99
f 117/117/100 135/122/100 145/127/100 136/128/100
f 143/126/101 142/127/101 152/131/101 153/132/101
f 140/129/102 139/130/102 149/133/102 150/134/102
f 137/129/103 136/128/103 146/135/103 147/134/103
f 144/126/104 143/126/104 153/132/104 154/132/104
f 141/128/105 140/129/105 150/134/105 151/135/105
f 138/130/106 137/129/106 147/134/106 148/133/106
f 145/127/107 144/126/107 154/132/107 155/131/107
f 142/127/108 141/128/108 151/135/108 152/131/108
f 139/130/109 138/130/109 148/133/109 149/133/109
f 136/128/110 145/127/110 155/131/110 146/135/110
f 128/123/111 130/125/111 163/136/111 162/137/111
f 126/116/112 128/123/112 162/137/112 161/138/112
f 124/119/113 126/116/113 161/138/113 160/139/113
f 122/121/114 124/119/114 160/139/114 159/140/114
f 116/116/115 118/119/115 157/139/115 156/138/115
f 120/121/116 122/121/116 159/140/116 158/140/116
f 118/119/117 120/121/117 158/140/117 157/139/117
f 134/123/118 116/116/118 156/138/118 165/137/118
f 132/125/119 134/123/119 165/137/119 164/136/119
f 130/125/120 132/125/120 164/136/120 163/136/120
f 156/138/121 157/139/121 167/141/121 166/142/121
f 163/136/122 164/136/122 174/143/122 173/143/122
f 160/139/123 161/138/123 171/142/123 170/141/123
f 157/139/124 158/140/124 168/144/124 167/141/124
f 164/136/125 165/137/125 175/145/125 174/143/125
f 161/138/126 162/137/126 172/145/126 171/142/126
f 158/140/127 159/140/127 169/144/127 168/144/127
f 165/137/128 156/138/128 166/142/128 175/145/128
f 162/137/129 163/136/129 173/143/129 172/145/129
f 159/140/130 160/139/130 170/141/130 169/144/130
f 170/141/131 171/142/131 181/146/131 180/147/131
f 167/141/132 168/144/132 178/148/132 177/147/132
f 174/143/133 175/145/133 185/149/133 184/150/133
f 171/142/134 172/145/134 182/149/134 181/146/134
f 168/144/135 169/144/135 179/148/135 178/148/135
f 175/145/136 166/142/136 176/146/136 185/149/136
f 172/145/137 173/143/137 183/150/137 182/149/137
f 169/144/138 170/141/138 180/147/138 179/148/138
f 166/142/139 167/141/139 177/147/139 176/146/139
f 173/143/140 174/143/140 184/150/140 183/150/140
f 147/134/141 146/135/141 151/135/141 150/134/141
f 148/133/141 147/134/141 150/134/141 149/133/141
f 152/131/141 151/135/141 146/135/141 155/131/141
f 153/132/141 152/131/141 155/131/141 154/132/141
f 176/146/142 177/147/142 180/147/142 181/146/142
f 181/146/142 182/149/142 185/149/142 176/146/142
f 177/147/142 178/148/142 179/148/142 180/147/142
f 182/149/142 183/150/142 184/150/142 185/149/142
f 186/151/143 187/152/143 189/153/143 188/154/143
f 188/154/144 189/153/144 191/155/144 190/156/144
f 190/156/145 191/155/145 193/155/145 192/156/145
f 192/156/146 193/155/146 195/153/146 194/154/146
f 194/154/147 195/153/147 197/152/147 196/151/147
f 196/151/148 197/152/148 199/157/148 198/158/148
f 198/158/149 199/157/149 201/159/149 200/160/149
f 200/160/150 201/159/150 203/159/150 202/160/150
f 203/159/151 201/159/151 213/161/151 214/161/151
f 202/160/152 203/159/152 205/157/152 204/158/152
f 204/158/153 205/157/153 187/152/153 186/151/153
f 205/157/154 203/159/154 214/161/154 215/162/154
f 201/159/155 199/157/155 212/162/155 213/161/155
f 199/157/156 197/152/156 211/163/156 212/162/156
f 197/152/157 195/153/157 210/164/157 211/163/157
f 195/153/158 193/155/158 209/165/158 210/164/158
f 189/153/159 187/152/159 206/163/159 207/164/159
f 193/155/160 191/155/160 208/165/160 209/165/160
f 191/155/161 189/153/161 207/164/161 208/165/161
f 187/152/162 205/157/162 215/162/162 206/163/162
f 213/161/163 212/162/163 222/166/163 223/167/163
f 210/164/164 209/165/164 219/168/164 220/169/164
f 207/164/165 206/163/165 216/170/165 217/169/165
f 214/161/166 213/161/166 223/167/166 224/167/166
f 211/163/167 210/164/167 220/169/167 221/170/167
f 208/165/168 207/164/168 217/169/168 218/168/168
f 215/162/169 214/161/169 224/167/169 225/166/169
f 212/162/170 211/163/170 221/170/170 222/166/170
f 209/165/171 208/165/171 218/168/171 219/168/171
f 206/163/172 215/162/172 225/166/172 216/170/172
f 198/158/173 200/160/173 233/171/173 232/172/173
f 196/151/174 198/158/174 232/172/174 231/173/174
f 194/154/175 196/151/175 231/173/175 230/174/175
f 192/156/176 194/154/176 230/174/176 229/175/176
f 186/151/177 188/154/177 227/174/177 226/173/177
f 190/156/178 192/156/178 229/175/178 228/175/178
f 188/154/179 190/156/179 228/175/179 227/174/179
f 204/158/180 186/151/180 226/173/180 235/172/180
f 202/160/181 204/158/181 235/172/181 234/171/181
f 200/160/182 202/160/182 234/171/182 233/171/182
f 226/173/183 227/174/183 237/176/183 236/177/183
f 233/171/184 234/171/184 244/178/184 243/178/184
f 230/174/185 231/173/185 241/177/185 240/176/185
f 227/174/186 228/175/186 238/179/186 237/176/186
f 234/171/187 235/172/187 245/180/187 244/178/187
f 231/173/188 232/172/188 242/180/188 241/177/188
f 228/175/189 229/175/189 239/179/189 238/179/189
f 235/172/190 226/173/190 236/177/190 245/180/190
f 232/172/191 233/171/191 243/178/191 242/180/191
f 229/175/192 230/174/192 240/176/192 239/179/192
f 240/176/193 241/177/193 251/181/193 250/182/193
f 237/176/194 238/179/194 248/183/194 247/184/194
f 244/178/195 245/180/195 255/185/195 254/186/195
f 241/177/196 242/180/196 252/185/196 251/181/196
f 238/179/197 239/179/197 249/183/197 248/183/197
f 245/180/198 236/177/198 246/181/198 255/185/198
f 242/180/199 243/178/199 253/186/199 252/185/199
f 239/179/200 240/176/200 250/182/200 249/183/200
f 236/177/201 237/176/201 247/184/201 246/181/201
f 243/178/202 244/178/202 254/186/202 253/186/202
f 217/169/141 216/170/141 221/170/141 220/169/141
f 218/168/141 217/169/141 220/169/141 219/168/141
f 222/166/141 221/170/141 216/170/141 225/166/141
f 223/167/141 222/166/141 225/166/141 224/167/141
f 246/181/142 247/184/142 250/182/142 251/181/142
f 251/181/142 252/185/142 255/185/142 246/181/142
f 247/184/142 248/183/142 249/183/142 250/182/142
f 252/185/142 253/186/142 254/186/142 255/185/142
f 256/187/203 257/188/203 259/189/203 258/190/203
f 258/190/204 259/189/204 261/191/204 260/192/204
f 260/192/205 261/191/205 263/193/205 262/194/205
f 262/194/206 263/193/206 265/195/206 264/196/206
f 264/196/207 265/195/207 267/197/207 266/198/207
f 266/198/208 267/197/208 269/199/208 268/200/208
f 268/200/209 269/199/209 271/201/209 270/202/209
f 270/202/210 271/201/210 273/203/210 272/204/210
f 273/203/211 271/201/211 283/205/211 284/205/211
f 272/204/212 273/203/212 275/206/212 274/207/212
f 274/207/213 275/206/213 257/188/213 256/187/213
f 275/206/214 273/203/214 284/205/214 285/208/214
f 271/201/215 269/199/215 282/208/215 283/205/215
f 269/199/216 267/197/216 281/209/216 282/208/216
f 267/197/217 265/195/217 280/210/217 281/209/217
f 265/195/218 263/193/218 279/211/218 280/210/218
f 259/189/219 257/188/219 276/209/219 277/210/219
f 263/193/220 261/191/220 278/211/220 279/211/220
f 261/191/221 259/189/221 277/210/221 278/211/221
f 257/188/222 275/206/222 285/208/222 276/209/222
f 283/205/223 282/208/223 292/212/223 293/213/223
f 280/210/224 279/211/224 289/214/224 290/215/224
f 277/210/225 276/209/225 286/216/225 287/217/225
f 284/205/226 283/205/226 293/213/226 294/213/226
f 281/209/227 280/210/227 290/215/227 291/218/227
f 278/211/228 277/210/228 287/217/228 288/214/228
f 285/208/229 284/205/229 294/213/229 295/219/229
f 282/208/230 281/209/230 291/218/230 292/212/230
f 279/211/231 278/211/231 288/214/231 289/214/231
f 276/209/232 285/208/232 295/219/232 286/216/232
f 268/200/233 270/202/233 303/220/233 302/221/233
f 266/198/234 268/200/234 302/221/234 301/222/234
f 264/196/235 266/198/235 301/222/235 300/223/235
f 262/194/236 264/196/236 300/223/236 299/224/236
f 256/187/237 258/190/237 297/223/237 296/222/237
f 260/192/238 262/194/238 299/224/238 298/224/238
f 258/190/239 260/192/239 298/224/239 297/223/239
f 274/207/240 256/187/240 296/222/240 305/221/240
f 272/204/241 274/207/241 305/221/241 304/220/241
f 270/202/242 272/204/242 304/220/242 303/220/242
f 296/222/243 297/223/243 307/225/243 306/226/243
f 303/220/244 304/220/244 314/227/244 313/227/244
f 300/223/245 301/222/245 311/226/245 310/225/245
f 297/223/246 298/224/246 308/228/246 307/225/246
f 304/220/247 305/221/247 315/229/247 314/227/247
f 301/222/248 302/221/248 312/229/248 311/226/248
f 298/224/249 299/224/249 309/228/249 308/228/249
f 305/221/250 296/222/250 306/226/250 315/229/250
f 302/221/251 303/220/251 313/227/251 312/229/251
f 299/224/252 300/223/252 310/225/252 309/228/252
f 310/225/253 311/226/253 321/230/253 320/231/253
f 307/225/254 308/228/254 318/232/254 317/231/254
f 314/227/255 315/229/255 325/233/255 324/234/255
f 311/226/256 312/229/256 322/233/256 321/230/256
f 308/228/257 309/228/257 319/232/257 318/232/257
f 315/229/258 306/226/258 316/230/258 325/233/258
f 312/229/259 313/227/259 323/234/259 322/233/259
f 309/228/260 310/225/260 320/231/260 319/232/260
f 306/226/261 307/225/261 317/231/261 316/230/261
f 313/227/262 314/227/262 324/234/262 323/234/262
f 287/217/141 286/216/141 291/218/141 290/215/141
f 288/214/141 287/217/141 290/215/141 289/214/141
f 292/212/141 291/218/141 286/216/141 295/219/141
f 293/213/141 292/212/141 295/219/141 294/213/141
f 316/230/142 317/231/142 320/231/142 321/230/142
f 321/230/142 322/233/142 325/233/142 316/230/142
f 317/231/142 318/232/142 319/232/142 320/231/142
f 322/233/142 323/234/142 324/234/142 325/233/142
f 326/235/203 327/236/203 329/237/203 328/238/203
f 328/238/204 329/237/204 331/239/204 330/240/204
f 330/240/205 331/239/205 333/239/205 332/241/205
f 332/241/206 333/239/206 335/237/206 334/242/206
f 334/242/207 335/237/207 337/236/207 336/243/207
f 336/243/208 337/236/208 339/244/208 338/245/208
f 338/245/209 339/244/209 341/246/209 340/247/209
f 340/247/210 341/246/210 343/246/210 342/248/210
f 343/246/211 341/246/211 353/249/211 354/250/211
f 342/248/212 343/246/212 345/244/212 344/251/212
f 344/251/213 345/244/213 327/236/213 326/235/213
f 345/244/214 343/246/214 354/250/214 355/252/214
f 341/246/215 339/244/215 352/253/215 353/249/215
f 339/244/216 337/236/216 351/254/216 352/253/216
f 337/236/217 335/237/217 350/255/217 351/254/217
f 335/237/218 333/239/218 349/256/218 350/255/218
f 329/237/219 327/236/219 346/257/219 347/258/219
f 333/239/220 331/239/220 348/259/220 349/256/220
f 331/239/221 329/237/221 347/258/221 348/259/221
f 327/236/222 345/244/222 355/252/222 346/257/222
f 353/249/223 352/253/223 362/260/223 363/261/223
f 350/255/224 349/256/224 359/262/224 360/263/224
f 347/258/225 346/257/225 356/264/225 357/263/225
f 354/250/226 353/249/226 363/261/226 364/261/226
f 351/254/227 350/255/227 360/263/227 361/264/227
f 348/259/228 347/258/228 357/263/228 358/262/228
f 355/252/229 354/250/229 364/261/229 365/260/229
f 352/253/230 351/254/230 361/264/230 362/260/230
f 349/256/231 348/259/231 358/262/231 359/262/231
f 346/257/232 355/252/232 365/260/232 356/264/232
f 338/245/233 340/247/233 373/265/233 372/266/233
f 336/243/234 338/245/234 372/266/234 371/267/234
f 334/242/235 336/243/235 371/267/235 370/268/235
f 332/241/236 334/242/236 370/268/236 369/269/236
f 326/235/237 328/238/237 367/268/237 366/267/237
f 330/240/238 332/241/238 369/269/238 368/269/238
f 328/238/239 330/240/239 368/269/239 367/268/239
f 344/251/240 326/235/240 366/267/240 375/266/240
f 342/248/241 344/251/241 375/266/241 374/265/241
f 340/247/242 342/248/242 374/265/242 373/265/242
f 366/267/243 367/268/243 377/270/243 376/271/243
f 373/265/244 374/265/244 384/272/244 383/273/244
f 370/268/245 371/267/245 381/274/245 380/275/245
f 367/268/246 368/269/246 378/276/246 377/270/246
f 374/265/247 375/266/247 385/277/247 384/272/247
f 371/267/248 372/266/248 382/278/248 381/274/248
f 368/269/249 369/269/249 379/279/249 378/276/249
f 375/266/250 366/267/250 376/271/250 385/277/250
f 372/266/251 373/265/251 383/273/251 382/278/251
f 369/269/252 370/268/252 380/275/252 379/279/252
f 380/275/253 381/274/253 391/280/253 390/281/253
f 377/270/254 378/276/254 388/282/254 387/283/254
f 384/272/255 385/277/255 395/284/255 394/285/255
f 381/274/256 382/278/256 392/286/256 391/280/256
f 378/276/257 379/279/257 389/282/257 388/282/257
f 385/277/258 376/271/258 386/287/258 395/284/258
f 382/278/259 383/273/259 393/285/259 392/286/259
f 379/279/260 380/275/260 390/281/260 389/282/260
f 376/271/261 377/270/261 387/283/261 386/287/261
f 383/273/262 384/272/262 394/285/262 393/285/262
f 357/263/141 356/264/141 361/264/141 360/263/141
f 358/262/141 357/263/141 360/263/141 359/262/141
f 362/260/141 361/264/141 356/264/141 365/260/141
f 363/261/141 362/260/141 365/260/141 364/261/141
f 386/287/142 387/283/142 390/281/142 391/280/142
f 391/280/142 392/286/142 395/284/142 386/287/142
f 387/283/142 388/282/142 389/282/142 390/281/142
f 392/286/142 393/285/142 394/285/142 395/284/142
f 396/288/203 397/289/203 399/290/203 398/291/203
f 398/291/204 399/290/204 401/292/204 400/293/204
f 400/293/205 401/292/205 403/292/205 402/293/205
f 402/293/206 403/292/206 405/290/206 404/291/206
f 404/291/207 405/290/207 407/289/207 406/288/207
f 406/288/208 407/289/208 409/294/208 408/295/208
f 408/295/209 409/294/209 411/296/209 410/297/209
f 410/297/210 411/296/210 413/296/210 412/297/210
f 413/296/211 411/296/211 423/298/211 424/298/211
f 412/297/212 413/296/212 415/294/212 414/299/212
f 414/299/213 415/294/213 397/289/213 396/288/213
f 415/294/214 413/296/214 424/298/214 425/300/214
f 411/296/215 409/294/215 422/300/215 423/298/215
f 409/294/216 407/289/216 421/301/216 422/300/216
f 407/289/217 405/290/217 420/302/217 421/301/217
f 405/290/218 403/292/218 419/303/218 420/302/218
f 399/290/219 397/289/219 416/301/219 417/304/219
f 403/292/220 401/292/220 418/303/220 419/303/220
f 401/292/221 399/290/221 417/304/221 418/303/221
f 397/289/222 415/294/222 425/300/222 416/301/222
f 423/298/223 422/300/223 432/305/223 433/306/223
f 420/302/224 419/303/224 429/307/224 430/308/224
f 417/304/225 416/301/225 426/309/225 427/308/225
f 424/298/226 423/298/226 433/306/226 434/306/226
f 421/301/227 420/302/227 430/308/227 431/309/227
f 418/303/228 417/304/228 427/308/228 428/307/228
f 425/300/229 424/298/229 434/306/229 435/305/229
f 422/300/230 421/301/230 431/309/230 432/305/230
f 419/303/231 418/303/231 428/307/231 429/307/231
f 416/301/232 425/300/232 435/305/232 426/309/232
f 408/295/233 410/297/233 443/310/233 442/311/233
f 406/288/234 408/295/234 442/311/234 441/312/234
f 404/291/235 406/288/235 441/312/235 440/313/235
f 402/293/236 404/291/236 440/313/236 439/314/236
f 396/288/237 398/291/237 437/313/237 436/312/237
f 400/293/238 402/293/238 439/314/238 438/314/238
f 398/291/239 400/293/239 438/314/239 437/313/239
f 414/299/240 396/288/240 436/312/240 445/311/240
f 412/297/241 414/299/241 445/311/241 444/310/241
f 410/297/242 412/297/242 444/310/242 443/310/242
f 436/312/243 437/313/243 447/315/243 446/316/243
f 443/310/244 444/310/244 454/317/244 453/317/244
f 440/313/245 441/312/245 451/316/245 450/315/245
f 437/313/246 438/314/246 448/318/246 447/315/246
f 444/310/247 445/311/247 455/319/247 454/317/247
f 441/312/248 442/311/248 452/319/248 451/316/248
f 438/314/249 439/314/249 449/318/249 448/318/249
f 445/311/250 436/312/250 446/316/250 455/319/250
f 442/311/251 443/310/251 453/317/251 452/319/251
f 439/314/252 440/313/252 450/315/252 449/318/252
f 450/315/253 451/316/253 461/320/253 460/321/253
f 447/315/254 448/318/254 458/322/254 457/321/254
f 454/317/255 455/319/255 465/323/255 464/324/255
f 451/316/256 452/319/256 462/323/256 461/320/256
f 448/318/257 449/318/257 459/322/257 458/322/257
f 455/319/258 446/316/258 456/320/258 465/323/258
f 452/319/259 453/317/259 463/324/259 462/323/259
f 449/318/260 450/315/260 460/321/260 459/322/260
f 446/316/261 447/315/261 457/321/261 456/320/261
f 453/317/262 454/317/262 464/324/262 463/324/262
f 427/308/141 426/309/141 431/309/141 430/308/141
f 428/307/141 427/308/141 430/308/141 429/307/141
f 432/305/141 431/309/141 426/309/141 435/305/141
f 433/306/141 432/305/141 435/305/141 434/306/141
f 456/320/142 457/321/142 460/321/142 461/320/142
f 461/320/142 462/323/142 465/323/142 456/320/142
f 457/321/142 458/322/142 459/322/142 460/321/142
f 462/323/142 463/324/142 464/324/142 465/323/142
f 466/325/203 467/326/203 469/327/203 468/328/203
f 468/328/204 469/327/204 471/329/204 470/330/204
f 470/330/205 471/329/205 473/329/205 472/330/205
f 472/330/206 473/329/206 475/327/206 474/328/206
f 474/328/207 475/327/207 477/326/207 476/325/207
f 476/325/208 477/326/208 479/331/208 478/332/208
f 478/332/209 479/331/209 481/333/209 480/334/209
f 480/334/210 481/333/210 483/333/210 482/334/210
f 483/333/211 481/333/211 493/335/211 494/335/211
f 482/334/212 483/333/212 485/331/212 484/332/212
f 484/332/213 485/331/213 467/326/213 466/325/213
f 485/331/214 483/333/214 494/335/214 495/336/214
f 481/333/215 479/331/215 492/336/215 493/335/215
f 479/331/216 477/326/216 491/337/216 492/336/216
f 477/326/217 475/327/217 490/338/217 491/337/217
f 475/327/218 473/329/218 489/339/218 490/338/218
f 469/327/219 467/326/219 486/337/219 487/338/219
f 473/329/220 471/329/220 488/339/220 489/339/220
f 471/329/221 469/327/221 487/338/221 488/339/221
f 467/326/222 485/331/222 495/336/222 486/337/222
f 493/335/223 492/336/223 502/340/223 503/341/223
f 490/338/224 489/339/224 499/342/224 500/343/224
f 487/338/225 486/337/225 496/344/225 497/343/225
f 494/335/226 493/335/226 503/341/226 504/341/226
f 491/337/227 490/338/227 500/343/227 501/344/227
f 488/339/228 487/338/228 497/343/228 498/342/228
f 495/336/229 494/335/229 504/341/229 505/340/229
f 492/336/230 491/337/230 501/344/230 502/340/230
f 489/339/231 488/339/231 498/342/231 499/342/231
f 486/337/232 495/336/232 505/340/232 496/344/232
f 478/332/233 480/334/233 513/345/233 512/346/233
f 476/325/234 478/332/234 512/346/234 511/347/234
f 474/328/235 476/325/235 511/347/235 510/348/235
f 472/330/236 474/328/236 510/348/236 509/349/236
f 466/325/237 468/328/237 507/348/237 506/347/237
f 470/330/238 472/330/238 509/349/238 508/349/238
f 468/328/239 470/330/239 508/349/239 507/348/239
f 484/332/240 466/325/240 506/347/240 515/346/240
f 482/334/241 484/332/241 515/346/241 514/345/241
f 480/334/242 482/334/242 514/345/242 513/345/242
f 506/347/243 507/348/243 517/350/243 516/351/243
f 513/345/244 514/345/244 524/352/244 523/352/244
f 510/348/245 511/347/245 521/353/245 520/354/245
f 507/348/246 508/349/246 518/355/246 517/350/246
f 514/345/247 515/346/247 525/356/247 524/352/247
f 511/347/248 512/346/248 522/357/248 521/353/248
f 508/349/249 509/349/249 519/355/249 518/355/249
f 515/346/250 506/347/250 516/351/250 525/356/250
f 512/346/251 513/345/251 523/352/251 522/357/251
f 509/349/252 510/348/252 520/354/252 519/355/252
f 520/354/253 521/353/253 531/358/253 530/359/253
f 517/350/254 518/355/254 528/360/254 527/359/254
f 524/352/255 525/356/255 535/361/255 534/362/255
f 521/353/256 522/357/256 532/361/256 531/358/256
f 518/355/257 519/355/257 529/360/257 528/360/257
f 525/356/258 516/351/258 526/358/258 535/361/258
f 522/357/259 523/352/259 533/362/259 532/361/259
f 519/355/260 520/354/260 530/359/260 529/360/260
f 516/351/261 517/350/261 527/359/261 526/358/261
f 523/352/262 524/352/262 534/362/262 533/362/262
f 497/343/141 496/344/141 501/344/141 500/343/141
f 498/342/141 497/343/141 500/343/141 499/342/141
f 502/340/141 501/344/141 496/344/141 505/340/141
f 503/341/141 502/340/141 505/340/141 504/341/141
f 526/358/142 527/359/142 530/359/142 531/358/142
f 531/358/142 532/361/142 535/361/142 526/358/142
f 527/359/142 528/360/142 529/360/142 530/359/142
f 532/361/142 533/362/142 534/362/142 535/361/142
f 536/363/203 537/364/203 539/365/203 538/366/203
f 538/366/204 539/365/204 541/367/204 540/368/204
f 540/368/205 541/367/205 543/367/205 542/368/205
f 542/368/206 543/367/206 545/365/206 544/366/206
f 544/366/207 545/365/207 547/364/207 546/363/207
f 546/363/208 547/364/208 549/369/208 548/370/208
f 548/370/209 549/369/209 551/371/209 550/372/209
f 550/372/210 551/371/210 553/371/210 552/372/210
f 553/371/211 551/371/211 563/373/211 564/373/211
f 552/372/212 553/371/212 555/369/212 554/374/212
f 554/374/213 555/369/213 537/364/213 536/363/213
f 555/369/214 553/371/214 564/373/214 565/375/214
f 551/371/215 549/369/215 562/375/215 563/373/215
f 549/369/216 547/364/216 561/376/216 562/375/216
f 547/364/217 545/365/217 560/377/217 561/376/217
f 545/365/218 543/367/218 559/378/218 560/377/218
f 539/365/219 537/364/219 556/376/219 557/377/219
f 543/367/220 541/367/220 558/378/220 559/378/220
f 541/367/221 539/365/221 557/377/221 558/378/221
f 537/364/222 555/369/222 565/375/222 556/376/222
f 563/373/223 562/375/223 572/379/223 573/380/223
f 560/377/224 559/378/224 569/381/224 570/382/224
f 557/377/225 556/376/225 566/383/225 567/382/225
f 564/373/226 563/373/226 573/380/226 574/380/226
f 561/376/227 560/377/227 570/382/227 571/383/227
f 558/378/228 557/377/228 567/382/228 568/381/228
f 565/375/229 564/373/229 574/380/229 575/379/229
f 562/375/230 561/376/230 571/383/230 572/379/230
f 559/378/231 558/378/231 568/381/231 569/381/231
f 556/376/232 565/375/232 575/379/232 566/383/232
f 548/370/233 550/372/233 583/384/233 582/385/233
f 546/363/234 548/370/234 582/385/234 581/386/234
f 544/366/235 546/363/235 581/386/235 580/387/235
f 542/368/236 544/366/236 580/387/236 579/388/236
f 536/363/237 538/366/237 577/387/237 576/386/237
f 540/368/238 542/368/238 579/388/238 578/388/238
f 538/366/239 540/368/239 578/388/239 577/387/239
f 554/374/240 536/363/240 576/386/240 585/385/240
f 552/372/241 554/374/241 585/385/241 584/384/241
f 550/372/242 552/372/242 584/384/242 583/384/242
f 576/386/243 577/387/243 587/389/243 586/390/243
f 583/384/244 584/384/244 594/391/244 593/391/244
f 580/387/245 581/386/245 591/390/245 590/389/245
f 577/387/246 578/388/246 588/392/246 587/389/246
f 584/384/247 585/385/247 595/393/247 594/391/247
f 581/386/248 582/385/248 592/393/248 591/390/248
f 578/388/249 579/388/249 589/392/249 588/392/249
f 585/385/250 576/386/250 586/390/250 595/393/250
f 582/385/251 583/384/251 593/391/251 592/393/251
f 579/388/252 580/387/252 590/389/252 589/392/252
f 590/389/253 591/390/253 601/394/253 600/395/253
f 587/389/254 588/392/254 598/396/254 597/395/254
f 594/391/255 595/393/255 605/397/255 604/398/255
f 591/390/256 592/393/256 602/397/256 601/394/256
f 588/392/257 589/392/257 599/396/257 598/396/257
f 595/393/258 586/390/258 596/394/258 605/397/258
f 592/393/259 593/391/259 603/398/259 602/397/259
f 589/392/260 590/389/260 600/395/260 599/396/260
f 586/390/261 587/389/261 597/395/261 596/394/261
f 593/391/262 594/391/262 604/398/262 603/398/262
f 567/382/141 566/383/141 571/383/141 570/382/141
f 568/381/141 567/382/141 570/382/141 569/381/141
f 572/379/141 571/383/141 566/383/141 575/379/141
f 573/380/141 572/379/141 575/379/141 574/380/141
f 596/394/142 597/395/142 600/395/142 601/394/142
f 601/394/142 602/397/142 605/397/142 596/394/142
f 597/395/142 598/396/142 599/396/142 600/395/142
f 602/397/142 603/398/142 604/398/142 605/397/142
