# Blender 5.1.0
# www.blender.org
mtllib tree.mtl
o tree
v -0.670983 -0.145104 -1.356104
v -0.552947 4.084813 -0.583859
v 0.525327 -0.240385 -1.077777
v 0.266493 4.077847 -0.386669
v 0.621558 -0.395404 0.140584
v 0.333638 3.944705 0.442902
v -0.515284 -0.395933 0.615253
v -0.444313 3.869386 0.758419
v -1.314113 -0.241237 -0.309760
v -0.992247 3.955977 0.123840
v -0.391959 1.241230 -1.036618
v -0.300470 2.708331 -0.932588
v 0.556637 2.701044 -0.726331
v 0.606885 1.161677 -0.804231
v 0.626872 2.561783 0.141367
v 0.687231 1.032244 0.213027
v -0.186836 2.483001 0.471382
v -0.261966 1.031803 0.609349
v -0.759964 2.573573 -0.192362
v -0.928937 1.160963 -0.162979
v -0.870777 7.317481 -0.593061
v -0.039823 7.310417 -0.393099
v 0.028266 7.175405 0.448129
v -0.760618 7.099027 0.768080
v -1.316251 7.186835 0.124583
v -0.466247 13.207993 -0.377480
v 0.094915 13.203222 -0.242441
v 0.140898 13.112045 0.325659
v -0.391854 13.060465 0.541730
v -0.767086 13.119764 0.107161
v -0.620295 9.114862 -0.480231
v -0.289104 8.509797 -0.314249
v -0.359392 8.405808 0.384031
v -0.734028 8.946614 0.545673
v -0.895271 9.384830 0.115465
v 4.727863 11.585833 -0.155658
v 4.864018 11.337086 -0.087422
v 4.835122 11.294334 0.199646
v 4.681107 11.516664 0.308829
v 4.614818 11.696817 0.089237
v 1.947699 9.340961 0.576065
v 1.806949 9.723481 0.109804
v 2.336075 8.959662 -0.265295
v 2.274720 8.868891 0.344237
v 2.046978 9.487825 -0.410181
v 3.304379 10.092943 0.480014
v 3.618906 9.784148 -0.201363
v 3.190392 10.402729 0.102412
v 3.569218 9.710636 0.292268
v 3.384780 10.211883 -0.318699
v -0.839407 8.087848 0.454035
v -0.875420 7.642396 0.331838
v -1.031484 7.565840 -0.182238
v -0.755675 7.963983 -0.377760
v -0.636968 8.286598 0.015481
v -4.776738 9.906984 0.215083
v -4.876976 9.723855 0.164847
v -4.855703 9.692383 -0.046493
v -4.742316 9.856062 -0.126874
v -4.693513 9.988691 0.034791
v -2.729972 8.254302 -0.323613
v -2.626351 8.535914 0.019650
v -3.015896 7.973589 0.295799
v -2.970725 7.906762 -0.152941
v -2.803061 8.362424 0.402464
v -3.728764 8.807915 -0.252901
v -3.960320 8.580578 0.248731
v -3.644846 9.035978 0.025091
v -3.923739 8.526459 -0.114681
v -3.787956 8.895477 0.335115
v 0.113335 5.694132 -0.389884
v 0.180952 5.560055 0.445515
v -1.154249 5.571406 0.124211
v -0.711862 5.701147 -0.588460
v -0.602465 5.484206 0.763249
v 4.786326 11.595663 -0.056104
v 4.862659 11.456209 -0.017849
v 4.846459 11.432241 0.143090
v 4.760113 11.556886 0.204300
v 4.722950 11.657886 0.081191
v -0.363169 13.496876 -0.132114
v -0.109073 13.494717 -0.070969
v -0.088252 13.453431 0.186269
v -0.329484 13.430075 0.284106
v -0.499390 13.456926 0.087333
vn 0.2270 0.2781 -0.9334
vn 0.9753 0.2164 -0.0442
vn 0.3830 -0.1185 0.9161
vn -0.8527 0.0905 -0.5145
vn -0.7474 -0.2649 0.6092
vn -0.8477 -0.0212 -0.5301
vn -0.8294 0.2785 -0.4842
vn -0.7389 0.1338 0.6604
vn -0.7451 0.1020 0.6591
vn 0.3845 -0.0644 0.9209
vn 0.3778 0.0631 0.9238
vn 0.9956 -0.0415 -0.0839
vn 0.9966 0.0361 -0.0745
vn 0.2362 0.1728 -0.9562
vn 0.2321 0.0556 -0.9711
vn 0.9934 0.0940 -0.0653
vn -0.8397 -0.0841 -0.5365
vn 0.2341 0.0202 -0.9720
vn 0.3728 0.0337 0.9273
vn -0.7598 -0.0763 0.6456
vn -0.7501 0.0714 0.6574
vn 0.9963 -0.0206 -0.0839
vn -0.8533 0.0775 -0.5156
vn 0.3748 0.0120 0.9270
vn 0.2341 0.0195 -0.9720
vn -0.5188 0.5775 0.6304
vn 0.7806 -0.6248 -0.0145
vn -0.5676 0.6192 -0.5426
vn 0.3375 -0.2162 0.9162
vn 0.2475 -0.1280 -0.9604
vn 0.0583 -0.2343 -0.9704
vn 0.0546 -0.3284 0.9429
vn -0.1118 0.8847 -0.4526
vn 0.1698 -0.9771 -0.1284
vn -0.1007 0.7167 0.6901
vn 0.1624 -0.1774 -0.9707
vn 0.2298 -0.2961 0.9271
vn -0.3783 0.7649 -0.5213
vn 0.5418 -0.8376 -0.0702
vn -0.3297 0.6787 0.6563
vn 0.5188 0.5775 -0.6304
vn -0.7806 -0.6248 0.0145
vn 0.5676 0.6192 0.5426
vn -0.3375 -0.2162 -0.9162
vn -0.2475 -0.1280 0.9604
vn -0.0573 -0.2482 0.9670
vn -0.0828 -0.3925 -0.9160
vn 0.1118 0.8847 0.4526
vn -0.1606 -0.9734 0.1635
vn 0.0934 0.7557 -0.6482
vn -0.1624 -0.1774 0.9707
vn -0.2298 -0.2961 -0.9271
vn 0.3783 0.7649 0.5213
vn -0.5418 -0.8376 0.0702
vn 0.3297 0.6787 -0.6563
vn 0.3202 0.7775 0.5412
vn 0.9947 -0.0434 0.0937
vn 0.3082 0.9119 -0.2710
vn 0.7428 0.2009 0.6387
vn 0.8081 0.3039 -0.5046
vn 0.8465 0.5075 0.1608
vn -0.6103 0.5197 0.5979
vn 0.8256 0.5638 0.0237
vn -0.7417 0.5679 -0.3570
vn 0.2782 0.5172 0.8094
vn 0.1929 0.5943 -0.7808
vn -0.0303 0.9865 0.1608
vn -0.8465 0.5075 -0.1608
vt 0.558473 0.581150
vt 0.560081 0.499841
vt 0.554861 0.500252
vt 0.553013 0.581581
vt 0.554434 0.508117
vt 0.552566 0.589807
vt 0.559389 0.512566
vt 0.557749 0.594460
vt 0.562476 0.672554
vt 0.561399 0.589110
vt 0.559055 0.667812
vt 0.562879 0.507451
vt 0.564929 0.755382
vt 0.560832 0.749703
vt 0.559841 0.764520
vt 0.558227 0.680183
vt 0.552600 0.764489
vt 0.552181 0.680157
vt 0.553213 0.755332
vt 0.552693 0.672511
vt 0.552387 0.485501
vt 0.552817 0.477581
vt 0.550774 0.454909
vt 0.550340 0.462885
vt 0.558073 0.477166
vt 0.560891 0.484830
vt 0.558904 0.462209
vt 0.556066 0.454492
vt 0.557377 0.489981
vt 0.555365 0.467396
vt 0.553121 0.115942
vt 0.555859 0.111929
vt 0.549570 0.106281
vt 0.549234 0.112451
vt 0.553664 0.105959
vt 0.530199 0.272245
vt 0.529473 0.290544
vt 0.530366 0.113505
vt 0.530789 0.102863
vt 0.527786 0.313128
vt 0.527470 0.308785
vt 0.529201 0.124112
vt 0.529385 0.126637
vt 0.528961 0.283519
vt 0.530068 0.109419
vt 0.552361 0.384061
vt 0.554471 0.348320
vt 0.537482 0.326289
vt 0.535641 0.357488
vt 0.555195 0.358259
vt 0.552809 0.390204
vt 0.536031 0.362850
vt 0.538114 0.334964
vt 0.556222 0.332373
vt 0.539011 0.312369
vt 0.573735 0.352980
vt 0.574270 0.366452
vt 0.585557 0.093873
vt 0.585246 0.086038
vt 0.575512 0.383077
vt 0.575745 0.379880
vt 0.586414 0.101682
vt 0.586279 0.103541
vt 0.574647 0.361279
vt 0.585776 0.090865
vt 0.557419 0.435299
vt 0.555866 0.408986
vt 0.568374 0.392767
vt 0.569729 0.415736
vt 0.555333 0.416303
vt 0.557090 0.439821
vt 0.569442 0.419683
vt 0.567908 0.399154
vt 0.554577 0.397246
vt 0.567248 0.382519
vt 0.586215 0.076045
s 0
usemtl Material.001
f 12/1/1 2/2/1 4/3/1 13/4/1
f 13/4/2 4/3/2 6/5/2 15/6/2
f 15/6/3 6/5/3 8/7/3 17/8/3
f 20/9/4 19/10/4 12/1/4 11/11/4
f 17/8/5 8/7/5 10/12/5 19/10/5
f 19/10/6 10/12/6 2/2/6 12/1/6
f 9/13/7 20/9/7 11/11/7 1/14/7
f 7/15/8 18/16/8 20/9/8 9/13/8
f 18/16/9 17/8/9 19/10/9 20/9/9
f 5/17/10 16/18/10 18/16/10 7/15/10
f 16/18/11 15/6/11 17/8/11 18/16/11
f 3/19/12 14/20/12 16/18/12 5/17/12
f 14/20/13 13/4/13 15/6/13 16/18/13
f 1/14/14 11/11/14 14/20/14 3/19/14
f 11/11/15 12/1/15 13/4/15 14/20/15
f 72/21/16 71/22/16 22/23/16 23/24/16
f 74/25/17 73/26/17 25/27/17 21/28/17
f 71/22/18 74/25/18 21/28/18 22/23/18
f 75/29/19 72/21/19 23/24/19 24/30/19
f 73/26/20 75/29/20 24/30/20 25/27/20
f 25/27/21 24/30/21 29/31/21 30/32/21
f 23/24/22 22/23/22 27/33/22 28/34/22
f 21/28/23 25/27/23 30/32/23 26/35/23
f 24/30/24 23/24/24 28/34/24 29/31/24
f 22/23/25 21/28/25 26/35/25 27/33/25
f 48/36/26 46/37/26 39/38/26 40/39/26
f 49/40/27 47/41/27 37/42/27 38/43/27
f 50/44/28 48/36/28 40/39/28 36/45/28
f 46/37/29 49/40/29 38/43/29 39/38/29
f 47/41/30 50/44/30 36/45/30 37/42/30
f 32/46/31 31/47/31 45/48/31 43/49/31
f 34/50/32 33/51/32 44/52/32 41/53/32
f 31/47/33 35/54/33 42/55/33 45/48/33
f 33/51/34 32/46/34 43/49/34 44/52/34
f 35/54/35 34/50/35 41/53/35 42/55/35
f 43/49/36 45/48/36 50/44/36 47/41/36
f 41/53/37 44/52/37 49/40/37 46/37/37
f 45/48/38 42/55/38 48/36/38 50/44/38
f 44/52/39 43/49/39 47/41/39 49/40/39
f 42/55/40 41/53/40 46/37/40 48/36/40
f 68/56/41 66/57/41 59/58/41 60/59/41
f 69/60/42 67/61/42 57/62/42 58/63/42
f 70/64/43 68/56/43 60/59/43 56/65/43
f 66/57/44 69/60/44 58/63/44 59/58/44
f 67/61/45 70/64/45 56/65/45 57/62/45
f 52/66/46 51/67/46 65/68/46 63/69/46
f 54/70/47 53/71/47 64/72/47 61/73/47
f 51/67/48 55/74/48 62/75/48 65/68/48
f 53/71/49 52/66/49 63/69/49 64/72/49
f 55/74/50 54/70/50 61/73/50 62/75/50
f 63/69/51 65/68/51 70/64/51 67/61/51
f 61/73/52 64/72/52 69/60/52 66/57/52
f 65/68/53 62/75/53 68/56/53 70/64/53
f 64/72/54 63/69/54 67/61/54 69/60/54
f 62/75/55 61/73/55 66/57/55 68/56/55
f 10/12/20 8/7/20 75/29/20 73/26/20
f 8/7/19 6/5/19 72/21/19 75/29/19
f 4/3/18 2/2/18 74/25/18 71/22/18
f 2/2/17 10/12/17 73/26/17 74/25/17
f 6/5/16 4/3/16 71/22/16 72/21/16
f 40/39/56 39/38/56 79/38/56 80/39/56
f 38/43/57 37/42/57 77/42/57 78/43/57
f 36/45/58 40/39/58 80/39/58 76/45/58
f 39/38/59 38/43/59 78/43/59 79/38/59
f 37/42/60 36/45/60 76/45/60 77/42/60
f 79/38/61 78/43/61 80/39/61
f 76/45/61 80/39/61 77/42/61
f 77/42/61 80/39/61 78/43/61
f 30/32/62 29/31/62 84/31/62 85/32/62
f 28/34/63 27/33/63 82/33/63 83/34/63
f 26/35/64 30/32/64 85/32/64 81/35/64
f 29/31/65 28/34/65 83/34/65 84/31/65
f 27/33/66 26/35/66 81/35/66 82/33/66
f 83/34/67 82/33/67 84/31/67
f 81/35/67 85/32/67 82/33/67
f 85/32/67 84/31/67 82/33/67
f 60/76/68 58/63/68 57/62/68
f 57/62/68 56/65/68 60/76/68
f 59/58/68 58/63/68 60/59/68
