# Blender 5.1.0
# www.blender.org
mtllib tree003.mtl
o tree.003
v 1.066153 -0.246007 -0.870474
v 0.973044 3.639571 -0.139873
v 2.190281 -0.298962 -0.606506
v 1.723971 3.689547 0.046404
v 2.299407 -0.441158 0.562744
v 1.814043 3.596231 0.835972
v 1.227593 -0.476658 1.021814
v 1.076216 3.452029 1.145763
v 0.467187 -0.359836 0.136299
v 0.538915 3.478654 0.542391
v 1.422425 1.034313 -0.569436
v 1.439625 2.394158 -0.475372
v 2.258955 2.459013 -0.284367
v 2.365044 1.017756 -0.351321
v 2.343023 2.330256 0.548090
v 2.457573 0.897642 0.624678
v 1.577155 2.189012 0.871526
v 1.570970 0.845838 1.010053
v 1.018661 2.226119 0.239159
v 0.929982 0.925229 0.272361
v 0.640107 6.617858 -0.125448
v 1.434378 6.711266 0.058333
v 1.523242 6.594480 0.865722
v 0.783882 6.428893 1.180939
v 0.238080 6.443342 0.568356
v 0.313121 12.282349 -0.003342
v 0.927607 12.354606 0.138836
v 0.996393 12.264254 0.763448
v 0.424410 12.136152 1.007306
v 0.002128 12.147337 0.533399
v 0.916336 6.063050 -0.018322
v 1.279999 5.530104 0.139209
v 1.237885 5.424986 0.810738
v 0.842185 5.893139 0.968355
v 0.653854 6.286772 0.555927
v 5.773647 9.050489 0.233551
v 5.933713 8.830084 0.298509
v 5.913998 8.787167 0.574535
v 5.741743 8.981050 0.680172
v 5.655001 9.143793 0.469430
v 3.400352 6.583039 0.970693
v 3.216177 6.928588 0.523226
v 3.807962 6.262490 0.160308
v 3.766099 6.171365 0.746394
v 3.468092 6.730478 0.022384
v 4.601983 7.461047 0.862668
v 4.932087 7.201450 0.206377
v 4.452828 7.740890 0.500286
v 4.898185 7.127651 0.681019
v 4.656843 7.580451 0.094678
v 0.189713 10.537370 0.590037
v 0.374816 10.082911 0.331328
v 0.927187 10.070413 0.380930
v 1.083470 10.517153 0.670299
v 0.627682 10.805744 0.799531
v 0.160065 12.466834 -3.600459
v 0.236163 12.280002 -3.706816
v 0.463246 12.274864 -3.686425
v 0.527495 12.458523 -3.567464
v 0.340118 12.577164 -3.514333
v 0.967479 10.806348 -1.426848
v 0.569619 11.058261 -1.314040
v 0.348891 10.427298 -1.722737
v 0.831059 10.416389 -1.679438
v 0.187315 10.823996 -1.496909
v 0.809390 11.375553 -2.488750
v 0.308426 11.068579 -2.728376
v 0.487183 11.579565 -2.397392
v 0.698910 11.059743 -2.693311
v 0.177572 11.389845 -2.545488
v 0.605163 7.357944 0.877387
v 0.621991 6.928864 0.761829
v 0.473987 6.835483 0.270003
v 0.691895 7.246293 0.078377
v 0.770131 7.569539 0.453713
v -3.365190 8.619593 0.681115
v -3.439269 8.432940 0.634459
v -3.417233 8.404572 0.431449
v -3.329534 8.573691 0.352634
v -3.297369 8.706580 0.506939
v -1.223019 7.287279 0.148958
v -1.154727 7.569443 0.476591
v -1.456021 6.988424 0.747355
v -1.409231 6.928186 0.316303
v -1.298728 7.384740 0.846417
v -2.239962 7.695685 0.224958
v -2.428659 7.453657 0.709572
v -2.184655 7.924196 0.490293
v -2.390767 7.404874 0.360483
v -2.301275 7.774614 0.789797
v 0.454866 7.336504 0.103017
v 0.617980 6.926193 -0.130937
v 1.115861 6.915074 -0.086123
v 1.262831 7.318228 0.175575
v 0.850795 7.579117 0.292402
v 0.332585 9.867146 -3.384104
v 0.393179 9.758015 -3.548183
v 0.599050 9.747432 -3.545167
v 0.665692 9.850023 -3.379220
v 0.501007 9.924008 -3.279680
v 1.157975 7.579663 -1.720267
v 0.798306 7.807395 -1.618288
v 0.598766 7.236999 -1.987754
v 1.034650 7.227136 -1.948611
v 0.452699 7.595617 -1.783603
v 0.955790 8.544828 -2.947163
v 0.487188 8.386615 -3.237705
v 0.672604 8.672052 -2.775997
v 0.841195 8.368417 -3.232517
v 0.382994 8.574270 -2.955561
v 1.670959 5.202505 0.063158
v 1.749210 5.135388 0.854360
v 0.519398 4.973917 0.557141
v 0.884299 5.139912 -0.127268
v 1.035554 4.956589 1.168985
v 4.328114 8.806287 -2.973006
v 4.146995 10.296923 -2.414911
v 6.205935 9.043797 -2.379487
v 5.695367 10.492764 -1.925520
v 7.378514 9.196194 -0.786776
v 6.662227 10.618423 -0.612240
v 7.397965 9.205266 1.196764
v 6.678264 10.625904 1.023304
v 6.256857 9.067550 2.813488
v 5.737356 10.512349 2.356386
v 4.391057 8.835647 3.445865
v 4.198895 10.321133 2.877817
v 2.513234 8.598137 2.852345
v 2.650523 10.125292 2.388426
v 1.340655 8.445740 1.259634
v 1.683664 9.999632 1.075145
v 1.321205 8.436667 -0.723906
v 1.667626 9.992151 -0.560399
v 2.462313 8.574385 -2.340631
v 2.608535 10.105706 -1.893482
v 4.067524 10.987032 -1.734541
v 5.216472 11.132353 -1.371397
v 5.933915 11.225596 -0.396894
v 5.945816 11.231149 0.816737
v 5.247628 11.146886 1.805932
v 4.106036 11.004997 2.192851
v 2.957088 10.859675 1.829705
v 2.239645 10.766432 0.855204
v 2.227744 10.760880 -0.358426
v 2.925932 10.845142 -1.347621
v 4.029064 11.360650 -0.926412
v 4.704455 11.446074 -0.712941
v 5.126194 11.500887 -0.140095
v 5.133189 11.504150 0.573319
v 4.722771 11.454618 1.154802
v 4.051702 11.371210 1.382247
v 3.376312 11.285786 1.168777
v 2.954573 11.230973 0.595932
v 2.947577 11.227711 -0.117483
v 3.357997 11.277243 -0.698967
v 4.439608 7.963305 -2.414859
v 5.992516 8.159719 -1.924036
v 6.962206 8.285748 -0.606907
v 6.978292 8.293250 1.033427
v 6.034627 8.179362 2.370414
v 4.491660 7.987585 2.893372
v 2.938752 7.791171 2.402547
v 1.969061 7.665143 1.085419
v 1.952977 7.657640 -0.554914
v 2.896642 7.771528 -1.891903
v 4.517826 7.440422 -1.195760
v 5.358479 7.546749 -0.930057
v 5.883415 7.614973 -0.217040
v 5.892122 7.619035 0.670941
v 5.381276 7.557383 1.394708
v 4.546004 7.453566 1.677807
v 3.705351 7.347239 1.412103
v 3.180416 7.279015 0.699087
v 3.171708 7.274952 -0.188895
v 3.682554 7.336605 -0.912663
v 4.530723 7.390500 -0.556317
v 4.997345 7.449520 -0.408834
v 5.288722 7.487390 -0.013058
v 5.293555 7.489644 0.479835
v 5.009998 7.455422 0.881577
v 4.546363 7.397797 1.038717
v 4.079741 7.338778 0.891233
v 3.788365 7.300908 0.495458
v 3.783532 7.298654 0.002564
v 4.067087 7.332875 -0.399178
v -3.642133 8.689210 -2.858710
v -3.834619 10.269960 -2.307162
v -1.785142 8.924085 -2.271775
v -2.303422 10.463629 -1.823201
v -0.625570 9.074791 -0.696732
v -1.347288 10.587894 -0.524487
v -0.606335 9.083763 1.264806
v -1.331428 10.595293 1.092915
v -1.734785 8.947575 2.863598
v -2.261900 10.482997 2.411209
v -3.579890 8.718244 3.488959
v -3.783296 10.293900 2.926856
v -5.436882 8.483368 2.902023
v -5.314492 10.100232 2.442894
v -6.596453 8.332663 1.326980
v -6.270627 9.975966 1.144181
v -6.615688 8.323690 -0.634557
v -6.286487 9.968569 -0.473221
v -5.487237 8.459880 -2.233348
v -5.356013 10.080864 -1.791517
v -3.919383 11.001650 -1.634503
v -2.783182 11.145359 -1.275386
v -2.073697 11.237569 -0.311695
v -2.061928 11.243058 0.888474
v -2.752371 11.159731 1.866696
v -3.881300 11.019415 2.249323
v -5.017502 10.875706 1.890208
v -5.726988 10.783496 0.926515
v -5.738757 10.778008 -0.273654
v -5.048313 10.861334 -1.251876
v -3.960743 11.397636 -0.835426
v -3.292843 11.482113 -0.624324
v -2.875783 11.536317 -0.057833
v -2.868865 11.539544 0.647667
v -3.274732 11.490561 1.222701
v -3.938355 11.408078 1.447623
v -4.606254 11.323602 1.236521
v -5.023314 11.269398 0.670031
v -5.030233 11.266171 -0.035471
v -4.624366 11.315153 -0.610504
v -3.524275 7.794980 -2.306551
v -1.988593 7.989216 -1.821172
v -1.029659 8.113846 -0.518654
v -1.013753 8.121265 1.103484
v -1.946950 8.008640 2.425641
v -3.472801 7.818991 2.942798
v -5.008483 7.624755 2.457418
v -5.967418 7.500125 1.154901
v -5.983324 7.492706 -0.467237
v -5.050125 7.605330 -1.789396
v -3.442175 7.240023 -1.100849
v -2.610845 7.345171 -0.838092
v -2.091735 7.412638 -0.132985
v -2.083124 7.416655 0.745146
v -2.588302 7.355686 1.460885
v -3.414310 7.253021 1.740844
v -4.245638 7.147873 1.478087
v -4.764750 7.080406 0.772980
v -4.773361 7.076389 -0.105151
v -4.268181 7.137358 -0.820890
v -3.428946 7.186868 -0.468486
v -2.967499 7.245233 -0.322637
v -2.679356 7.282682 0.068747
v -2.674576 7.284911 0.556173
v -2.954987 7.251070 0.953458
v -3.413479 7.194083 1.108855
v -3.874926 7.135718 0.963007
v -4.163070 7.098269 0.571622
v -4.167849 7.096040 0.084197
v -3.887438 7.129882 -0.313089
v -2.478767 10.278897 -4.703767
v -2.616734 11.409850 -4.333455
v -1.231198 10.436691 -4.309449
v -1.588041 11.539961 -4.008318
v -0.452172 10.537939 -3.251301
v -0.945690 11.623446 -3.135814
v -0.439250 10.543967 -1.933497
v -0.935035 11.628416 -2.049209
v -1.197368 10.452472 -0.859394
v -1.560147 11.552973 -1.163549
v -2.436950 10.298403 -0.439262
v -2.582252 11.425935 -0.817126
v -3.684518 10.140609 -0.833579
v -3.610945 11.295824 -1.142263
v -4.463544 10.039361 -1.891727
v -4.253296 11.212339 -2.014766
v -4.476467 10.033334 -3.209532
v -4.263952 11.207369 -3.101373
v -3.718348 10.124828 -4.283635
v -3.638840 11.282812 -3.987033
v -2.677673 11.933258 -3.881654
v -1.914349 12.029804 -3.640392
v -1.437699 12.091753 -2.992962
v -1.429793 12.095442 -2.186663
v -1.893649 12.039458 -1.529472
v -2.652088 11.945191 -1.272413
v -3.415414 11.848645 -1.513677
v -3.892063 11.786697 -2.161106
v -3.899967 11.783009 -2.967405
v -3.436113 11.838990 -3.624597
v -2.707611 12.216434 -3.344875
v -2.258900 12.273188 -3.203051
v -1.978711 12.309603 -2.822471
v -1.974063 12.311771 -2.348499
v -2.246732 12.278864 -1.962178
v -2.692570 12.223450 -1.811071
v -3.141279 12.166697 -1.952894
v -3.421469 12.130281 -2.333475
v -3.426117 12.128113 -2.807447
v -3.153447 12.161020 -3.193766
v -2.394671 9.638946 -4.332683
v -1.362967 9.769437 -4.006594
v -0.718733 9.853166 -3.131534
v -0.708047 9.858150 -2.041746
v -1.334990 9.782487 -1.153492
v -2.360090 9.655076 -0.806054
v -3.391794 9.524584 -1.132143
v -4.036028 9.440855 -2.007203
v -4.046715 9.435870 -3.096992
v -3.419772 9.511534 -3.985246
v -2.336442 9.241619 -3.522583
v -1.777937 9.312260 -3.346058
v -1.429187 9.357586 -2.872351
v -1.423402 9.360285 -2.282403
v -1.762792 9.319324 -1.801554
v -2.317722 9.250351 -1.613472
v -2.876227 9.179711 -1.789998
v -3.224978 9.134385 -2.263705
v -3.230762 9.131686 -2.853652
v -2.891372 9.172647 -3.334502
v -2.327248 9.203459 -3.097740
v -2.017238 9.242670 -2.999756
v -1.823657 9.267829 -2.736815
v -1.820446 9.269327 -2.409352
v -2.008831 9.246592 -2.142446
v -2.316856 9.208306 -2.038047
v -2.626867 9.169096 -2.136032
v -2.820448 9.143936 -2.398972
v -2.823659 9.142439 -2.726436
v -2.635273 9.165174 -2.993340
v 0.606404 10.487555 -5.919509
v 0.394710 12.222870 -5.351311
v 2.520652 10.729671 -5.314478
v 1.973118 12.422509 -4.852427
v 3.715976 10.885023 -3.690872
v 2.958732 12.550607 -3.513670
v 3.735804 10.894273 -1.668856
v 2.975081 12.558233 -1.846401
v 2.572561 10.753884 -0.020770
v 2.015921 12.442474 -0.487459
v 0.670568 10.517484 0.623873
v 0.447617 12.247548 0.044086
v -1.243681 10.275367 0.018841
v -1.130791 12.047909 -0.454799
v -2.439004 10.120014 -1.604764
v -2.116403 11.919811 -1.793554
v -2.458832 10.110765 -3.626782
v -2.132753 11.912186 -3.460824
v -1.295589 10.251153 -5.274868
v -1.173593 12.027943 -4.819767
v 0.301205 13.025977 -4.658075
v 1.472438 13.174116 -4.287885
v 2.203799 13.269169 -3.294480
v 2.215931 13.274828 -2.057309
v 1.504199 13.188931 -1.048925
v 0.340463 13.044290 -0.654500
v -0.830772 12.896150 -1.024690
v -1.562131 12.801097 -2.018094
v -1.574263 12.795439 -3.255267
v -0.862532 12.881334 -4.263651
v 0.255271 13.460479 -3.834448
v 0.943763 13.547560 -3.616838
v 1.373682 13.603436 -3.032881
v 1.380814 13.606762 -2.305627
v 0.962433 13.556269 -1.712864
v 0.278348 13.471244 -1.481008
v -0.410144 13.384161 -1.698618
v -0.840063 13.328286 -2.282576
v -0.847194 13.324960 -3.009829
v -0.428814 13.375452 -3.602592
v 0.735438 9.505622 -5.350125
v 2.318470 9.705847 -4.849782
v 3.306970 9.834319 -3.507103
v 3.323367 9.841968 -1.834950
v 2.361397 9.725870 -0.472028
v 0.788500 9.530373 0.061074
v -0.794531 9.330149 -0.439272
v -1.783031 9.201676 -1.781948
v -1.799428 9.194028 -3.454102
v -0.837458 9.310125 -4.817025
v 0.824784 8.895972 -4.107122
v 1.681744 9.004362 -3.836264
v 2.216862 9.073910 -3.109418
v 2.225738 9.078050 -2.204211
v 1.704983 9.015202 -1.466404
v 0.853508 8.909370 -1.177814
v -0.003452 8.800982 -1.448672
v -0.538569 8.731434 -2.175519
v -0.547445 8.727293 -3.080726
v -0.026691 8.790141 -3.818533
v 0.838892 8.837420 -3.455250
v 1.314566 8.897584 -3.304905
v 1.611594 8.936189 -2.901452
v 1.616521 8.938486 -2.398998
v 1.327466 8.903602 -1.989463
v 0.854836 8.844857 -1.829275
v 0.379161 8.784694 -1.979621
v 0.082134 8.746090 -2.383073
v 0.077207 8.743792 -2.885527
v 0.366263 8.778677 -3.295063
v -1.661483 9.242907 0.422880
v -1.798567 10.366628 0.790823
v -0.421892 9.399692 0.814675
v -0.776453 10.495906 1.113880
v 0.352152 9.500292 1.866057
v -0.138209 10.578856 1.980805
v 0.364991 9.506281 3.175434
v -0.127622 10.583796 3.060462
v -0.388278 9.415371 4.242668
v -0.748736 10.508835 3.940459
v -1.619933 9.262287 4.660113
v -1.764307 10.382608 4.284666
v -2.859524 9.105502 4.268319
v -2.786420 10.253330 3.961608
v -3.633568 9.004902 3.216937
v -3.424665 10.170380 3.094684
v -3.646408 8.998913 1.907559
v -3.435252 10.165441 2.015025
v -2.893137 9.089823 0.840325
v -2.814137 10.240401 1.135030
v -1.859118 10.886687 1.239735
v -1.100673 10.982616 1.479454
v -0.627074 11.044168 2.122744
v -0.619217 11.047833 2.923887
v -1.080106 10.992210 3.576876
v -1.833696 10.898546 3.832290
v -2.592140 10.802617 3.592569
v -3.065740 10.741064 2.949281
v -3.073596 10.737400 2.148136
v -2.612707 10.793022 1.495148
v -1.888863 11.168054 1.773082
v -1.443023 11.224444 1.913998
v -1.164624 11.260627 2.292146
v -1.160006 11.262781 2.763085
v -1.430933 11.230083 3.146935
v -1.873919 11.175024 3.297077
v -2.319759 11.118634 3.156161
v -2.598157 11.082452 2.778013
v -2.602775 11.080297 2.307073
v -2.331849 11.112994 1.923223
v -1.577926 8.607046 0.791590
v -0.552818 8.736704 1.115594
v 0.087296 8.819898 1.985058
v 0.097914 8.824850 3.067877
v -0.525019 8.749671 3.950451
v -1.543565 8.623075 4.295667
v -2.568673 8.493417 3.971663
v -3.208786 8.410223 3.102198
v -3.219404 8.405271 2.019380
v -2.596470 8.480451 1.136804
v -1.520069 8.212261 1.596509
v -0.965135 8.282451 1.771906
v -0.618615 8.327487 2.242584
v -0.612867 8.330168 2.828759
v -0.950087 8.289470 3.306532
v -1.501468 8.220938 3.493412
v -2.056402 8.150749 3.318016
v -2.402922 8.105713 2.847338
v -2.408670 8.103032 2.261163
v -2.071449 8.143730 1.783388
v -1.510933 8.174345 2.018636
v -1.202905 8.213305 2.115994
v -1.010562 8.238304 2.377253
v -1.007371 8.239792 2.702622
v -1.194552 8.217201 2.967821
v -1.500608 8.179161 3.071552
v -1.808636 8.140202 2.974195
v -2.000978 8.115204 2.712934
v -2.004170 8.113715 2.387566
v -1.816989 8.136305 2.122368
v 1.681986 10.202959 0.385703
v 1.544901 11.326681 0.753646
v 2.921576 10.359745 0.777498
v 2.567015 11.455959 1.076703
v 3.695620 10.460345 1.828879
v 3.205259 11.538910 1.943628
v 3.708461 10.466334 3.138257
v 3.215847 11.543848 3.023285
v 2.955191 10.375424 4.205492
v 2.594732 11.468888 3.903282
v 1.723535 10.222341 4.622936
v 1.579162 11.342662 4.247489
v 0.483945 10.065556 4.231142
v 0.557048 11.213383 3.924431
v -0.290099 9.964955 3.179760
v -0.081196 11.130432 3.057507
v -0.302939 9.958966 1.870383
v -0.091783 11.125494 1.977850
v 0.450331 10.049875 0.803147
v 0.529331 11.200455 1.097853
v 1.484350 11.846740 1.202558
v 2.242795 11.942670 1.442277
v 2.716395 12.004222 2.085567
v 2.724251 12.007886 2.886711
v 2.263362 11.952264 3.539699
v 1.509772 11.858599 3.795114
v 0.751327 11.762670 3.555394
v 0.277728 11.701118 2.912105
v 0.269872 11.697453 2.110960
v 0.730761 11.753077 1.457972
v 1.454606 12.128105 1.735905
v 1.900446 12.184496 1.876821
v 2.178844 12.220680 2.254969
v 2.183462 12.222834 2.725909
v 1.912535 12.190136 3.109758
v 1.469550 12.135077 3.259900
v 1.023710 12.078686 3.118984
v 0.745311 12.042504 2.740836
v 0.740694 12.040349 2.269896
v 1.011620 12.073047 1.886047
v 1.765543 9.567100 0.754414
v 2.790651 9.696757 1.078417
v 3.430765 9.779951 1.947882
v 3.441383 9.784904 3.030701
v 2.818449 9.709723 3.913274
v 1.799904 9.583127 4.258490
v 0.774796 9.453470 3.934486
v 0.134682 9.370276 3.065022
v 0.124064 9.365324 1.982203
v 0.746998 9.440503 1.099628
v 1.823400 9.172315 1.559333
v 2.378334 9.242504 1.734730
v 2.724854 9.287540 2.205407
v 2.730601 9.290221 2.791582
v 2.393383 9.249523 3.269357
v 1.842001 9.180991 3.456236
v 1.287067 9.110803 3.280838
v 0.940547 9.065766 2.810162
v 0.934799 9.063086 2.223987
v 1.272019 9.103783 1.746212
v 1.832536 9.134399 1.981459
v 2.140563 9.173359 2.078817
v 2.332907 9.198357 2.340076
v 2.336097 9.199845 2.665446
v 2.148916 9.177255 2.930645
v 1.842860 9.139215 3.034376
v 1.534832 9.100255 2.937018
v 1.342490 9.075257 2.675759
v 1.339299 9.073769 2.350390
v 1.526480 9.096359 2.085191
v -0.313127 10.478953 -3.213172
v -0.538779 12.328697 -2.607506
v 1.727349 10.737036 -2.568244
v 1.143710 12.541501 -2.075725
v 3.001493 10.902633 -0.837576
v 2.194316 12.678045 -0.648690
v 3.022629 10.912491 1.317773
v 2.211743 12.686175 1.128520
v 1.782681 10.762846 3.074536
v 1.189335 12.562783 2.577072
v -0.244732 10.510857 3.761687
v -0.482384 12.355003 3.143667
v -2.285207 10.252774 3.116758
v -2.164873 12.142199 2.611886
v -3.559352 10.087177 1.386090
v -3.215479 12.005655 1.184852
v -3.580486 10.077318 -0.769259
v -3.232907 11.997526 -0.592359
v -2.340538 10.226964 -2.526022
v -2.210497 12.120916 -2.040911
v -0.638451 13.184762 -1.868558
v 0.610015 13.342669 -1.473958
v 1.389602 13.443991 -0.415047
v 1.402534 13.450022 0.903706
v 0.643870 13.358461 1.978583
v -0.596604 13.204281 2.399017
v -1.845071 13.046374 2.004416
v -2.624658 12.945052 0.945506
v -2.637589 12.939021 -0.373247
v -1.878926 13.030581 -1.448125
v -0.687414 13.647915 -0.990621
v 0.046479 13.740738 -0.758661
v 0.504747 13.800299 -0.136196
v 0.512349 13.803844 0.639013
v 0.066380 13.750022 1.270862
v -0.662814 13.659389 1.518009
v -1.396707 13.566566 1.286048
v -1.854975 13.507006 0.663585
v -1.862577 13.503459 -0.111625
v -1.416608 13.557282 -0.743475
v -0.175584 9.432272 -2.606243
v 1.511834 9.645700 -2.072905
v 2.565517 9.782643 -0.641689
v 2.582996 9.790796 1.140726
v 1.557592 9.667044 2.593521
v -0.119023 9.458655 3.161776
v -1.806440 9.245228 2.628437
v -2.860124 9.108284 1.197223
v -2.877601 9.100131 -0.585193
v -1.852197 9.223884 -2.037989
v -0.080346 8.782422 -1.281275
v 0.833123 8.897959 -0.992556
v 1.403526 8.972093 -0.217780
v 1.412988 8.976505 0.747116
v 0.857894 8.909513 1.533574
v -0.049728 8.796703 1.841195
v -0.963197 8.681167 1.552477
v -1.533600 8.607034 0.777700
v -1.543062 8.602620 -0.187197
v -0.987967 8.669612 -0.973655
v -0.065308 8.720008 -0.586417
v 0.441733 8.784140 -0.426158
v 0.758347 8.825289 0.003898
v 0.763599 8.827739 0.539484
v 0.455482 8.790553 0.976025
v -0.048313 8.727936 1.146776
v -0.555353 8.663805 0.986516
v -0.871968 8.622655 0.556461
v -0.877219 8.620206 0.020874
v -0.569103 8.657391 -0.415666
vn 0.1979 0.3286 -0.9235
vn 0.9152 0.4008 -0.0434
vn 0.3947 -0.0433 0.9178
vn -0.8651 0.0459 -0.4995
vn -0.6938 -0.4069 0.5942
vn -0.8215 -0.1723 -0.5435
vn -0.8271 0.3403 -0.4473
vn -0.7307 0.1947 0.6544
vn -0.7476 0.0697 0.6605
vn 0.3977 -0.0922 0.9129
vn 0.3842 0.0862 0.9192
vn 0.9881 -0.1112 -0.1065
vn 0.9933 0.0760 -0.0865
vn 0.2293 0.1588 -0.9603
vn 0.2241 0.0630 -0.9725
vn 0.9844 0.1536 -0.0852
vn -0.8480 -0.1489 -0.5087
vn 0.2269 0.0355 -0.9733
vn 0.3860 0.0556 0.9208
vn -0.7497 -0.1409 0.6466
vn -0.7467 -0.0268 0.6647
vn 0.9913 0.0904 -0.0961
vn -0.8603 -0.0387 -0.5082
vn 0.3817 0.0521 0.9228
vn 0.2215 0.0338 -0.9746
vn -0.5804 0.5113 0.6338
vn 0.8521 -0.5229 -0.0204
vn -0.6455 0.5413 -0.5388
vn 0.3707 -0.1683 0.9134
vn 0.2521 -0.1006 -0.9625
vn 0.0760 -0.2328 -0.9696
vn 0.1020 -0.3205 0.9417
vn -0.2213 0.8672 -0.4461
vn 0.2773 -0.9519 -0.1300
vn -0.1796 0.7062 0.6849
vn 0.1737 -0.1602 -0.9717
vn 0.2739 -0.2610 0.9257
vn -0.4757 0.7095 -0.5199
vn 0.6411 -0.7640 -0.0730
vn -0.4051 0.6354 0.6574
vn 0.5587 0.6538 0.5104
vn 0.0557 -0.6253 -0.7784
vn -0.6099 0.5495 0.5711
vn 0.9326 -0.1020 -0.3462
vn -0.9394 -0.2476 -0.2372
vn -0.9342 -0.3535 -0.0475
vn 0.9569 -0.2758 -0.0910
vn -0.5580 0.8220 0.1135
vn -0.0075 -0.9862 -0.1653
vn 0.5500 0.8309 0.0842
vn -0.9426 -0.2975 -0.1518
vn 0.9544 -0.1795 -0.2383
vn -0.6087 0.6958 0.3812
vn 0.0293 -0.8423 -0.5383
vn 0.5699 0.7565 0.3207
vn 0.4367 0.6346 -0.6376
vn -0.6966 -0.7170 0.0246
vn 0.4914 0.6875 0.5347
vn -0.3169 -0.2607 -0.9119
vn -0.2202 -0.1534 0.9633
vn -0.0165 -0.2490 0.9684
vn -0.0423 -0.4039 -0.9138
vn 0.0053 0.8938 0.4484
vn -0.0365 -0.9851 0.1680
vn -0.0078 0.7585 -0.6516
vn -0.1295 -0.1918 0.9729
vn -0.2002 -0.3266 -0.9237
vn 0.2853 0.8084 0.5148
vn -0.4326 -0.8981 0.0785
vn 0.2362 0.7114 -0.6619
vn 0.5965 0.3686 0.7130
vn 0.0030 -0.2206 -0.9754
vn -0.5687 0.2387 0.7872
vn 0.9107 0.0675 -0.4075
vn -0.9549 -0.1263 -0.2687
vn -0.9359 -0.3491 -0.0478
vn 0.9549 -0.2829 -0.0904
vn -0.0073 -0.9863 -0.1650
vn -0.9447 -0.2781 -0.1737
vn 0.9476 -0.1550 -0.2793
vn -0.5865 0.6105 0.5323
vn 0.0114 -0.7410 -0.6714
vn 0.5705 0.6876 0.4492
vn -0.7558 -0.0234 0.6544
vn 0.3950 0.0011 0.9187
vn 0.2365 0.0206 -0.9714
vn -0.8602 -0.0264 -0.5093
vn 0.9940 0.0396 -0.1018
vn 0.2381 0.3658 -0.8997
vn 0.7087 0.4259 -0.5625
vn 0.8925 0.4508 -0.0108
vn 0.7195 0.4310 0.5446
vn 0.2557 0.3740 0.8915
vn -0.3218 0.3016 0.8975
vn -0.7924 0.2414 0.5602
vn -0.9762 0.2165 0.0086
vn -0.8089 0.5880 0.0052
vn -0.8032 0.2364 -0.5468
vn -0.3394 0.2934 -0.8937
vn -0.6748 0.6034 -0.4249
vn -0.6664 0.6073 0.4325
vn -0.3020 0.6539 0.6937
vn 0.1453 0.7099 0.6891
vn 0.5046 0.7541 0.4204
vn 0.1317 0.7036 -0.6983
vn 0.6386 0.7695 -0.0098
vn 0.4962 0.7502 -0.4371
vn -0.3156 0.6475 -0.6936
vn -0.4594 0.8503 0.2568
vn 0.2404 0.9380 0.2496
vn 0.0176 0.9079 -0.4189
vn -0.5445 0.8388 0.0015
vn 0.0257 0.9117 0.4101
vn 0.2354 0.9357 -0.2628
vn -0.4644 0.8480 -0.2555
vn -0.2416 0.8781 0.4129
vn 0.3205 0.9472 -0.0075
vn -0.2497 0.8744 -0.4161
vn -0.6118 -0.6060 0.5084
vn -0.1871 -0.5517 0.8128
vn 0.3341 -0.4864 0.8074
vn 0.7527 -0.4349 0.4942
vn 0.3182 -0.4937 -0.8093
vn 0.9089 -0.4170 -0.0070
vn 0.7429 -0.4395 -0.5049
vn -0.2030 -0.5591 -0.8039
vn -0.6216 -0.6106 -0.4907
vn -0.7778 -0.6285 0.0105
vn 0.2373 -0.8872 -0.3957
vn -0.3016 -0.9534 0.0073
vn 0.2451 -0.8835 0.3991
vn 0.4461 -0.8605 -0.2461
vn -0.2248 -0.9446 -0.2391
vn -0.0112 -0.9157 0.4018
vn 0.5277 -0.8494 -0.0013
vn -0.0190 -0.9193 -0.3931
vn -0.2200 -0.9424 0.2521
vn 0.4509 -0.8582 0.2452
vn 0.1515 -0.9847 0.0860
vn 0.1935 -0.9799 -0.0487
vn 0.0534 -0.9975 -0.0473
vn 0.0980 -0.9914 0.0866
vn 0.2106 -0.9776 0.0024
vn 0.0964 -0.9922 -0.0794
vn 0.0544 -0.9970 0.0553
vn 0.1945 -0.9794 0.0539
vn 0.1499 -0.9855 -0.0800
vn 0.0374 -0.9993 0.0042
vn -0.1244 0.9922 -0.0033
vn 0.1244 -0.9922 0.0033
vn 0.1245 -0.9922 0.0033
vn 0.2427 0.3458 -0.9064
vn 0.7168 0.4064 -0.5666
vn 0.9021 0.4315 -0.0108
vn 0.7277 0.4115 0.5487
vn 0.2604 0.3541 0.8982
vn -0.3214 0.2811 0.9043
vn -0.7954 0.2205 0.5645
vn -0.9807 0.1954 0.0087
vn -0.8288 0.5595 0.0056
vn -0.8064 0.2154 -0.5508
vn -0.3391 0.2729 -0.9003
vn -0.6905 0.5753 -0.4384
vn -0.6818 0.5794 0.4465
vn -0.3057 0.6275 0.7161
vn 0.1559 0.6853 0.7113
vn 0.5267 0.7309 0.4340
vn 0.1419 0.6788 -0.7205
vn 0.6650 0.7468 -0.0099
vn 0.5180 0.7269 -0.4509
vn -0.3197 0.6209 -0.7157
vn -0.4778 0.8354 0.2718
vn 0.2622 0.9282 0.2641
vn 0.0266 0.8962 -0.4428
vn -0.5678 0.8232 0.0018
vn 0.0352 0.9003 0.4339
vn 0.2569 0.9257 -0.2777
vn -0.4831 0.8329 -0.2700
vn -0.2475 0.8648 0.4369
vn 0.3469 0.9379 -0.0077
vn -0.2561 0.8608 -0.4398
vn -0.6277 -0.5813 0.5178
vn -0.1951 -0.5260 0.8278
vn 0.3358 -0.4594 0.8223
vn 0.7622 -0.4070 0.5033
vn 0.3197 -0.4670 -0.8245
vn 0.9213 -0.3888 -0.0073
vn 0.7523 -0.4117 -0.5144
vn -0.2113 -0.5335 -0.8190
vn -0.6377 -0.5860 -0.5000
vn -0.7968 -0.6042 0.0106
vn 0.2431 -0.8747 -0.4192
vn -0.3274 -0.9449 0.0075
vn 0.2514 -0.8709 0.4223
vn 0.4642 -0.8465 -0.2607
vn -0.2461 -0.9355 -0.2534
vn -0.0199 -0.9049 0.4251
vn 0.5506 -0.8348 -0.0016
vn -0.0282 -0.9088 -0.4164
vn -0.2410 -0.9332 0.2667
vn 0.4693 -0.8441 0.2593
vn 0.1535 -0.9839 0.0920
vn 0.1984 -0.9787 -0.0524
vn 0.0483 -0.9975 -0.0509
vn 0.0961 -0.9911 0.0926
vn 0.2167 -0.9762 0.0023
vn 0.0944 -0.9919 -0.0853
vn 0.0494 -0.9970 0.0591
vn 0.1995 -0.9782 0.0575
vn 0.1517 -0.9847 -0.0859
vn 0.0311 -0.9995 0.0043
vn 0.2466 0.3286 -0.9117
vn 0.7235 0.3896 -0.5699
vn 0.9098 0.4148 -0.0108
vn 0.7345 0.3947 0.5520
vn 0.2644 0.3369 0.9037
vn -0.3209 0.2635 0.9097
vn -0.7978 0.2026 0.5679
vn -0.9841 0.1773 0.0088
vn -0.8458 0.5335 0.0059
vn -0.8088 0.1974 -0.5540
vn -0.3387 0.2552 -0.9056
vn -0.7038 0.5497 -0.4499
vn -0.6949 0.5539 0.4586
vn -0.3087 0.6033 0.7354
vn 0.1652 0.6627 0.7305
vn 0.5459 0.7095 0.4457
vn 0.1508 0.6560 -0.7396
vn 0.6879 0.7258 -0.0101
vn 0.5370 0.7053 -0.4628
vn -0.3231 0.5965 -0.7347
vn -0.4947 0.8208 0.2856
vn 0.2824 0.9182 0.2776
vn 0.0350 0.8847 -0.4648
vn -0.5892 0.8080 0.0021
vn 0.0440 0.8889 0.4559
vn 0.2769 0.9156 -0.2914
vn -0.5002 0.8182 -0.2834
vn -0.2528 0.8517 0.4590
vn 0.3714 0.9284 -0.0079
vn -0.2618 0.8475 -0.4617
vn -0.6411 -0.5593 0.5255
vn -0.2019 -0.5032 0.8403
vn 0.3370 -0.4356 0.8347
vn 0.7699 -0.3824 0.5109
vn 0.3206 -0.4433 -0.8371
vn 0.9314 -0.3639 -0.0075
vn 0.7598 -0.3871 -0.5223
vn -0.2183 -0.5108 -0.8315
vn -0.6512 -0.5641 -0.5077
vn -0.8127 -0.5826 0.0106
vn 0.2484 -0.8625 -0.4409
vn -0.3513 -0.9362 0.0077
vn 0.2571 -0.8585 0.4438
vn 0.4808 -0.8328 -0.2743
vn -0.2659 -0.9264 -0.2666
vn -0.0281 -0.8942 0.4468
vn 0.5717 -0.8205 -0.0019
vn -0.0368 -0.8983 -0.4379
vn -0.2605 -0.9239 0.2802
vn 0.4862 -0.8303 0.2724
vn 0.1553 -0.9830 0.0977
vn 0.2032 -0.9775 -0.0560
vn 0.0433 -0.9976 -0.0544
vn 0.0942 -0.9907 0.0983
vn 0.2226 -0.9749 0.0023
vn 0.0924 -0.9916 -0.0911
vn 0.0445 -0.9970 0.0626
vn 0.2043 -0.9770 0.0610
vn 0.1534 -0.9839 -0.0917
vn 0.0251 -0.9997 0.0043
vn -0.1245 0.9922 -0.0033
vt 0.571699 0.623355
vt 0.573421 0.563975
vt 0.567831 0.564275
vt 0.565852 0.623669
vt 0.567373 0.570019
vt 0.565373 0.629677
vt 0.572680 0.573268
vt 0.570924 0.633075
vt 0.575986 0.690107
vt 0.574834 0.629168
vt 0.572323 0.686644
vt 0.576418 0.569533
vt 0.578614 0.750597
vt 0.574226 0.746450
vt 0.573164 0.757270
vt 0.571436 0.695679
vt 0.565409 0.757247
vt 0.564961 0.695660
vt 0.566066 0.750560
vt 0.565509 0.690076
vt 0.568415 0.500334
vt 0.568876 0.494550
vt 0.569921 0.424825
vt 0.569457 0.430649
vt 0.574505 0.494247
vt 0.577523 0.499844
vt 0.578628 0.430156
vt 0.575589 0.424520
vt 0.573759 0.503606
vt 0.574838 0.433944
vt 0.572436 0.177276
vt 0.575368 0.174346
vt 0.568632 0.170221
vt 0.568272 0.174727
vt 0.573017 0.169986
vt 0.547886 0.395673
vt 0.547108 0.409037
vt 0.537717 0.347619
vt 0.538169 0.339847
vt 0.545302 0.425529
vt 0.544963 0.422358
vt 0.536469 0.355366
vt 0.536666 0.357210
vt 0.546560 0.403906
vt 0.537398 0.344635
vt 0.571621 0.477333
vt 0.573881 0.451231
vt 0.555686 0.435141
vt 0.553714 0.457926
vt 0.574657 0.458489
vt 0.572101 0.481819
vt 0.554132 0.461842
vt 0.556363 0.441477
vt 0.575757 0.439585
vt 0.557323 0.424975
vt 0.552935 0.149705
vt 0.550976 0.164607
vt 0.551864 0.096118
vt 0.553003 0.087452
vt 0.551950 0.182998
vt 0.554511 0.179462
vt 0.553920 0.104757
vt 0.552431 0.106813
vt 0.555119 0.158885
vt 0.554274 0.092791
vt 0.555096 0.240765
vt 0.555957 0.211658
vt 0.555594 0.193716
vt 0.554842 0.219124
vt 0.550097 0.219751
vt 0.551474 0.245767
vt 0.551681 0.223490
vt 0.550478 0.200781
vt 0.552867 0.198671
vt 0.552897 0.182380
vt 0.594513 0.350385
vt 0.595085 0.360224
vt 0.601999 0.315008
vt 0.601667 0.309286
vt 0.596415 0.372366
vt 0.596665 0.370031
vt 0.602918 0.320711
vt 0.602773 0.322069
vt 0.595489 0.356446
vt 0.602234 0.312811
vt 0.575621 0.410503
vt 0.575375 0.391287
vt 0.588771 0.379442
vt 0.590223 0.396216
vt 0.574804 0.396630
vt 0.576686 0.413806
vt 0.589914 0.399099
vt 0.588272 0.384106
vt 0.573994 0.382713
vt 0.587565 0.371958
vt 0.554088 0.328537
vt 0.552318 0.338436
vt 0.553120 0.256451
vt 0.554150 0.250694
vt 0.553198 0.348270
vt 0.555513 0.344447
vt 0.554979 0.259947
vt 0.553632 0.262170
vt 0.556063 0.332252
vt 0.555299 0.252854
vt 0.556042 0.435299
vt 0.556820 0.408986
vt 0.556492 0.392767
vt 0.555813 0.415736
vt 0.551522 0.416303
vt 0.552768 0.439821
vt 0.552954 0.419683
vt 0.551867 0.399154
vt 0.554027 0.397246
vt 0.554054 0.382519
vt 0.068017 0.158879
vt 0.059084 0.929650
vt 0.074420 0.929650
vt 0.086616 0.158879
vt 0.083899 0.929650
vt 0.098111 0.158879
vt 0.043748 0.929650
vt 0.049418 0.158879
vt 0.034270 0.929650
vt 0.037923 0.158879
vt 0.040671 0.730406
vt 0.049418 0.158879
vt 0.047704 0.730406
vt 0.059084 0.730406
vt 0.070464 0.730406
vt 0.077497 0.730406
vt 0.052395 0.790400
vt 0.048261 0.790400
vt 0.069908 0.790400
vt 0.065774 0.790400
vt 0.059084 0.790400
vt 0.034197 0.161766
vt 0.043703 0.161766
vt 0.059084 0.161766
vt 0.074465 0.161766
vt 0.083971 0.161766
vt 0.067411 0.154820
vt 0.059084 0.154820
vt 0.045612 0.154820
vt 0.072557 0.154820
vt 0.050758 0.154820
vt 0.059084 0.146249
vt 0.063706 0.146249
vt 0.066562 0.146249
vt 0.054463 0.146249
vt 0.051606 0.146249
vt 0.058349 0.218572
vt 0.056115 0.653098
vt 0.075693 0.653098
vt 0.082092 0.218572
vt 0.087793 0.653098
vt 0.096766 0.218572
vt 0.036538 0.653098
vt 0.034605 0.218572
vt 0.024438 0.653098
vt 0.019931 0.218572
vt 0.014745 0.951955
vt 0.034605 0.218572
vt 0.023723 0.951955
vt 0.038251 0.951955
vt 0.052778 0.951955
vt 0.061756 0.951955
vt 0.047576 0.803228
vt 0.042298 0.803228
vt 0.069933 0.803228
vt 0.064655 0.803228
vt 0.056115 0.803228
vt 0.026579 0.229733
vt 0.038714 0.229733
vt 0.058349 0.229733
vt 0.077983 0.229733
vt 0.090119 0.229733
vt 0.038714 0.229733
vt 0.068978 0.154668
vt 0.058349 0.154668
vt 0.041150 0.154668
vt 0.075547 0.154668
vt 0.047719 0.154668
vt 0.058349 0.147162
vt 0.064249 0.147162
vt 0.067895 0.147162
vt 0.064249 0.147162
vt 0.052449 0.147162
vt 0.048802 0.147162
vt 0.052449 0.147162
vt 0.059349 0.243737
vt 0.052650 0.648722
vt 0.068670 0.648722
vt 0.078778 0.243737
vt 0.078571 0.648722
vt 0.090785 0.243737
vt 0.078571 0.648722
vt 0.090785 0.243737
vt 0.068670 0.648722
vt 0.078778 0.243737
vt 0.052650 0.648722
vt 0.059349 0.243737
vt 0.036630 0.648722
vt 0.039921 0.243737
vt 0.026729 0.648722
vt 0.027913 0.243737
vt 0.026729 0.648722
vt 0.027913 0.243737
vt 0.028950 0.930237
vt 0.036630 0.648722
vt 0.039921 0.243737
vt 0.036296 0.930237
vt 0.048184 0.930237
vt 0.060071 0.930237
vt 0.067418 0.930237
vt 0.045662 0.765440
vt 0.041344 0.765440
vt 0.063956 0.765440
vt 0.059638 0.765440
vt 0.052650 0.765440
vt 0.059638 0.765440
vt 0.052650 0.765440
vt 0.045662 0.765440
vt 0.026653 0.255374
vt 0.036583 0.255374
vt 0.052650 0.255374
vt 0.068717 0.255374
vt 0.078647 0.255374
vt 0.036583 0.255374
vt 0.068047 0.240770
vt 0.059349 0.240770
vt 0.045276 0.240770
vt 0.073422 0.240770
vt 0.050652 0.240770
vt 0.059349 0.234935
vt 0.064177 0.234935
vt 0.067161 0.234935
vt 0.054521 0.234935
vt 0.051538 0.234935
vt 0.050927 0.183992
vt 0.045493 0.486069
vt 0.057641 0.486069
vt 0.065659 0.183992
vt 0.065149 0.486069
vt 0.074765 0.183992
vt 0.074765 0.183993
vt 0.065659 0.183993
vt 0.050927 0.183993
vt 0.033346 0.486069
vt 0.036194 0.183993
vt 0.025838 0.486069
vt 0.027089 0.183993
vt 0.027089 0.183992
vt 0.032648 0.778530
vt 0.032648 0.778530
vt 0.036194 0.183992
vt 0.038219 0.778530
vt 0.038219 0.778530
vt 0.047233 0.778530
vt 0.056247 0.778530
vt 0.061818 0.778530
vt 0.047233 0.778530
vt 0.056247 0.778530
vt 0.061818 0.778530
vt 0.041336 0.638482
vt 0.038061 0.638482
vt 0.055208 0.638482
vt 0.051933 0.638482
vt 0.046634 0.638482
vt 0.029403 0.186973
vt 0.036932 0.186973
vt 0.049116 0.186973
vt 0.061299 0.186973
vt 0.068829 0.186973
vt 0.052089 0.202144
vt 0.045493 0.202144
vt 0.034822 0.202144
vt 0.056165 0.202144
vt 0.038898 0.202144
vt 0.038898 0.202144
vt 0.045493 0.200112
vt 0.049154 0.200112
vt 0.051417 0.200112
vt 0.049154 0.200112
vt 0.041833 0.200112
vt 0.039570 0.200112
vt 0.041833 0.200112
vt 0.045493 0.200112
vt 0.044879 0.431451
vt 0.040404 0.736327
vt 0.046441 0.736327
vt 0.052201 0.431451
vt 0.050172 0.736327
vt 0.056726 0.431451
vt 0.052201 0.431451
vt 0.034367 0.736327
vt 0.037557 0.431451
vt 0.030635 0.736327
vt 0.033032 0.431451
vt 0.036139 0.924055
vt 0.037557 0.431451
vt 0.038907 0.924055
vt 0.038907 0.924055
vt 0.043387 0.924055
vt 0.047867 0.924055
vt 0.050636 0.924055
vt 0.047867 0.924055
vt 0.037770 0.867745
vt 0.036143 0.867745
vt 0.044664 0.867745
vt 0.043037 0.867745
vt 0.040404 0.867745
vt 0.030607 0.446161
vt 0.034349 0.446161
vt 0.040404 0.446161
vt 0.046458 0.446161
vt 0.050200 0.446161
vt 0.043681 0.380453
vt 0.040404 0.380453
vt 0.035100 0.380453
vt 0.045707 0.380453
vt 0.037126 0.380453
vt 0.037126 0.380453
vt 0.040404 0.373881
vt 0.042223 0.373881
vt 0.043347 0.373881
vt 0.038584 0.373881
vt 0.037460 0.373881
vt 0.039757 0.227269
vt 0.040687 0.436180
vt 0.051893 0.436180
vt 0.053347 0.227269
vt 0.058819 0.436180
vt 0.061746 0.227269
vt 0.058819 0.436180
vt 0.051893 0.436180
vt 0.040687 0.436180
vt 0.029482 0.436180
vt 0.026167 0.227269
vt 0.022556 0.436180
vt 0.017767 0.227269
vt 0.022556 0.436180
vt 0.028164 0.750994
vt 0.029482 0.436180
vt 0.033303 0.750994
vt 0.041618 0.750994
vt 0.049933 0.750994
vt 0.055072 0.750994
vt 0.035799 0.457642
vt 0.032779 0.457642
vt 0.048596 0.457642
vt 0.045575 0.457642
vt 0.040687 0.457642
vt 0.045575 0.457642
vt 0.021572 0.210100
vt 0.028518 0.210100
vt 0.039757 0.210100
vt 0.050995 0.210100
vt 0.057941 0.210100
vt 0.028518 0.210100
vt 0.045841 0.199369
vt 0.039757 0.199369
vt 0.029913 0.199369
vt 0.039757 0.199369
vt 0.045841 0.199369
vt 0.049601 0.199369
vt 0.033673 0.199369
vt 0.033673 0.199369
vt 0.039757 0.198296
vt 0.043134 0.198296
vt 0.045221 0.198296
vt 0.036380 0.198296
vt 0.034293 0.198296
vt 0.035495 0.170505
vt 0.044427 0.741960
vt 0.062974 0.741960
vt 0.046540 0.170505
vt 0.074437 0.741960
vt 0.053366 0.170505
vt 0.025881 0.741960
vt 0.024450 0.170505
vt 0.014418 0.741960
vt 0.017624 0.170505
vt 0.022159 0.967481
vt 0.024450 0.170505
vt 0.030665 0.967481
vt 0.044427 0.967481
vt 0.058190 0.967481
vt 0.066695 0.967481
vt 0.040804 0.765802
vt 0.035804 0.765802
vt 0.061983 0.765802
vt 0.056984 0.765802
vt 0.048894 0.765802
vt 0.020716 0.184270
vt 0.026361 0.184270
vt 0.035495 0.184270
vt 0.044629 0.184270
vt 0.050274 0.184270
vt 0.040440 0.135445
vt 0.035495 0.135445
vt 0.027495 0.135445
vt 0.043495 0.135445
vt 0.030550 0.135445
vt 0.035495 0.130563
vt 0.038240 0.130563
vt 0.039936 0.130563
vt 0.032750 0.130563
vt 0.031054 0.130563
s 0
usemtl Material.001
f 12/1/1 2/2/1 4/3/1 13/4/1
f 13/4/2 4/3/2 6/5/2 15/6/2
f 15/6/3 6/5/3 8/7/3 17/8/3
f 20/9/4 19/10/4 12/1/4 11/11/4
f 17/8/5 8/7/5 10/12/5 19/10/5
f 19/10/6 10/12/6 2/2/6 12/1/6
f 9/13/7 20/9/7 11/11/7 1/14/7
f 7/15/8 18/16/8 20/9/8 9/13/8
f 18/16/9 17/8/9 19/10/9 20/9/9
f 5/17/10 16/18/10 18/16/10 7/15/10
f 16/18/11 15/6/11 17/8/11 18/16/11
f 3/19/12 14/20/12 16/18/12 5/17/12
f 14/20/13 13/4/13 15/6/13 16/18/13
f 1/14/14 11/11/14 14/20/14 3/19/14
f 11/11/15 12/1/15 13/4/15 14/20/15
f 112/21/16 111/22/16 22/23/16 23/24/16
f 114/25/17 113/26/17 25/27/17 21/28/17
f 111/22/18 114/25/18 21/28/18 22/23/18
f 115/29/19 112/21/19 23/24/19 24/30/19
f 113/26/20 115/29/20 24/30/20 25/27/20
f 25/27/21 24/30/21 29/31/21 30/32/21
f 23/24/22 22/23/22 27/33/22 28/34/22
f 21/28/23 25/27/23 30/32/23 26/35/23
f 24/30/24 23/24/24 28/34/24 29/31/24
f 22/23/25 21/28/25 26/35/25 27/33/25
f 48/36/26 46/37/26 39/38/26 40/39/26
f 49/40/27 47/41/27 37/42/27 38/43/27
f 50/44/28 48/36/28 40/39/28 36/45/28
f 46/37/29 49/40/29 38/43/29 39/38/29
f 47/41/30 50/44/30 36/45/30 37/42/30
f 32/46/31 31/47/31 45/48/31 43/49/31
f 34/50/32 33/51/32 44/52/32 41/53/32
f 31/47/33 35/54/33 42/55/33 45/48/33
f 33/51/34 32/46/34 43/49/34 44/52/34
f 35/54/35 34/50/35 41/53/35 42/55/35
f 43/49/36 45/48/36 50/44/36 47/41/36
f 41/53/37 44/52/37 49/40/37 46/37/37
f 45/48/38 42/55/38 48/36/38 50/44/38
f 44/52/39 43/49/39 47/41/39 49/40/39
f 42/55/40 41/53/40 46/37/40 48/36/40
f 68/56/41 66/57/41 59/58/41 60/59/41
f 69/60/42 67/61/42 57/62/42 58/63/42
f 70/64/43 68/56/43 60/59/43 56/65/43
f 66/57/44 69/60/44 58/63/44 59/58/44
f 67/61/45 70/64/45 56/65/45 57/62/45
f 52/66/46 51/67/46 65/68/46 63/69/46
f 54/70/47 53/71/47 64/72/47 61/73/47
f 51/67/48 55/74/48 62/75/48 65/68/48
f 53/71/49 52/66/49 63/69/49 64/72/49
f 55/74/50 54/70/50 61/73/50 62/75/50
f 63/69/51 65/68/51 70/64/51 67/61/51
f 61/73/52 64/72/52 69/60/52 66/57/52
f 65/68/53 62/75/53 68/56/53 70/64/53
f 64/72/54 63/69/54 67/61/54 69/60/54
f 62/75/55 61/73/55 66/57/55 68/56/55
f 88/76/56 86/77/56 79/78/56 80/79/56
f 89/80/57 87/81/57 77/82/57 78/83/57
f 90/84/58 88/76/58 80/79/58 76/85/58
f 86/77/59 89/80/59 78/83/59 79/78/59
f 87/81/60 90/84/60 76/85/60 77/82/60
f 72/86/61 71/87/61 85/88/61 83/89/61
f 74/90/62 73/91/62 84/92/62 81/93/62
f 71/87/63 75/94/63 82/95/63 85/88/63
f 73/91/64 72/86/64 83/89/64 84/92/64
f 75/94/65 74/90/65 81/93/65 82/95/65
f 83/89/66 85/88/66 90/84/66 87/81/66
f 81/93/67 84/92/67 89/80/67 86/77/67
f 85/88/68 82/95/68 88/76/68 90/84/68
f 84/92/69 83/89/69 87/81/69 89/80/69
f 82/95/70 81/93/70 86/77/70 88/76/70
f 108/96/71 106/97/71 99/98/71 100/99/71
f 109/100/72 107/101/72 97/102/72 98/103/72
f 110/104/73 108/96/73 100/99/73 96/105/73
f 106/97/74 109/100/74 98/103/74 99/98/74
f 107/101/75 110/104/75 96/105/75 97/102/75
f 92/106/76 91/107/76 105/108/76 103/109/76
f 94/110/77 93/111/77 104/112/77 101/113/77
f 91/107/48 95/114/48 102/115/48 105/108/48
f 93/111/78 92/106/78 103/109/78 104/112/78
f 95/114/50 94/110/50 101/113/50 102/115/50
f 103/109/79 105/108/79 110/104/79 107/101/79
f 101/113/80 104/112/80 109/100/80 106/97/80
f 105/108/81 102/115/81 108/96/81 110/104/81
f 104/112/82 103/109/82 107/101/82 109/100/82
f 102/115/83 101/113/83 106/97/83 108/96/83
f 10/12/84 8/7/84 115/29/84 113/26/84
f 8/7/85 6/5/85 112/21/85 115/29/85
f 4/3/86 2/2/86 114/25/86 111/22/86
f 2/2/87 10/12/87 113/26/87 114/25/87
f 6/5/88 4/3/88 111/22/88 112/21/88
f 116/116/89 117/117/89 119/118/89 118/119/89
f 118/119/90 119/118/90 121/120/90 120/121/90
f 120/121/91 121/120/91 123/120/91 122/121/91
f 122/121/92 123/120/92 125/118/92 124/119/92
f 124/119/93 125/118/93 127/117/93 126/116/93
f 126/116/94 127/117/94 129/122/94 128/123/94
f 128/123/95 129/122/95 131/124/95 130/125/95
f 130/125/96 131/124/96 133/124/96 132/125/96
f 133/124/97 131/124/97 143/126/97 144/126/97
f 132/125/98 133/124/98 135/122/98 134/127/98
f 134/127/99 135/122/99 117/117/99 116/116/99
f 135/122/100 133/124/100 144/126/100 145/128/100
f 131/124/101 129/122/101 142/128/101 143/126/101
f 129/122/102 127/117/102 141/129/102 142/128/102
f 127/117/103 125/118/103 140/130/103 141/129/103
f 125/118/104 123/120/104 139/131/104 140/130/104
f 119/118/105 117/117/105 136/129/105 137/130/105
f 123/120/106 121/120/106 138/131/106 139/131/106
f 121/120/107 119/118/107 137/130/107 138/131/107
f 117/117/108 135/122/108 145/128/108 136/129/108
f 143/126/109 142/128/109 152/132/109 153/133/109
f 140/130/110 139/131/110 149/134/110 150/135/110
f 137/130/111 136/129/111 146/136/111 147/135/111
f 144/126/112 143/126/112 153/133/112 154/133/112
f 141/129/113 140/130/113 150/135/113 151/136/113
f 138/131/114 137/130/114 147/135/114 148/134/114
f 145/128/115 144/126/115 154/133/115 155/132/115
f 142/128/116 141/129/116 151/136/116 152/132/116
f 139/131/117 138/131/117 148/134/117 149/134/117
f 136/129/118 145/128/118 155/132/118 146/136/118
f 128/123/119 130/125/119 163/137/119 162/138/119
f 126/116/120 128/123/120 162/138/120 161/139/120
f 124/119/121 126/116/121 161/139/121 160/140/121
f 122/121/122 124/119/122 160/140/122 159/141/122
f 116/116/123 118/119/123 157/140/123 156/139/123
f 120/121/124 122/121/124 159/141/124 158/141/124
f 118/119/125 120/121/125 158/141/125 157/140/125
f 134/127/126 116/116/126 156/139/126 165/138/126
f 132/125/127 134/127/127 165/138/127 164/137/127
f 130/125/128 132/125/128 164/137/128 163/137/128
f 156/139/129 157/140/129 167/142/129 166/143/129
f 163/137/130 164/137/130 174/144/130 173/144/130
f 160/140/131 161/139/131 171/143/131 170/142/131
f 157/140/132 158/141/132 168/145/132 167/142/132
f 164/137/133 165/138/133 175/146/133 174/144/133
f 161/139/134 162/138/134 172/146/134 171/143/134
f 158/141/135 159/141/135 169/145/135 168/145/135
f 165/138/136 156/139/136 166/143/136 175/146/136
f 162/138/137 163/137/137 173/144/137 172/146/137
f 159/141/138 160/140/138 170/142/138 169/145/138
f 170/142/139 171/143/139 181/147/139 180/148/139
f 167/142/140 168/145/140 178/149/140 177/148/140
f 174/144/141 175/146/141 185/150/141 184/151/141
f 171/143/142 172/146/142 182/150/142 181/147/142
f 168/145/143 169/145/143 179/149/143 178/149/143
f 175/146/144 166/143/144 176/147/144 185/150/144
f 172/146/145 173/144/145 183/151/145 182/150/145
f 169/145/146 170/142/146 180/148/146 179/149/146
f 166/143/147 167/142/147 177/148/147 176/147/147
f 173/144/148 174/144/148 184/151/148 183/151/148
f 147/135/149 146/136/149 151/136/149 150/135/149
f 148/134/149 147/135/149 150/135/149 149/134/149
f 152/132/149 151/136/149 146/136/149 155/132/149
f 153/133/149 152/132/149 155/132/149 154/133/149
f 176/147/150 177/148/150 180/148/150 181/147/150
f 181/147/150 182/150/150 185/150/150 176/147/150
f 177/148/150 178/149/150 179/149/150 180/148/150
f 182/150/151 183/151/151 184/151/151 185/150/151
f 186/152/152 187/153/152 189/154/152 188/155/152
f 188/155/153 189/154/153 191/156/153 190/157/153
f 190/157/154 191/156/154 193/156/154 192/157/154
f 192/157/155 193/156/155 195/154/155 194/155/155
f 194/155/156 195/154/156 197/153/156 196/152/156
f 196/152/157 197/153/157 199/158/157 198/159/157
f 198/159/158 199/158/158 201/160/158 200/161/158
f 200/161/159 201/160/159 203/160/159 202/161/159
f 203/160/160 201/160/160 213/162/160 214/162/160
f 202/161/161 203/160/161 205/158/161 204/163/161
f 204/163/162 205/158/162 187/153/162 186/152/162
f 205/158/163 203/160/163 214/162/163 215/164/163
f 201/160/164 199/158/164 212/164/164 213/162/164
f 199/158/165 197/153/165 211/165/165 212/164/165
f 197/153/166 195/154/166 210/166/166 211/165/166
f 195/154/167 193/156/167 209/167/167 210/166/167
f 189/154/168 187/153/168 206/165/168 207/166/168
f 193/156/169 191/156/169 208/167/169 209/167/169
f 191/156/170 189/154/170 207/166/170 208/167/170
f 187/153/171 205/158/171 215/164/171 206/165/171
f 213/162/172 212/164/172 222/168/172 223/169/172
f 210/166/173 209/167/173 219/170/173 220/171/173
f 207/166/174 206/165/174 216/172/174 217/171/174
f 214/162/175 213/162/175 223/169/175 224/169/175
f 211/165/176 210/166/176 220/171/176 221/172/176
f 208/167/177 207/166/177 217/171/177 218/170/177
f 215/164/178 214/162/178 224/169/178 225/168/178
f 212/164/179 211/165/179 221/172/179 222/168/179
f 209/167/180 208/167/180 218/170/180 219/170/180
f 206/165/181 215/164/181 225/168/181 216/172/181
f 198/159/182 200/161/182 233/173/182 232/174/182
f 196/152/183 198/159/183 232/174/183 231/175/183
f 194/155/184 196/152/184 231/175/184 230/176/184
f 192/157/185 194/155/185 230/176/185 229/177/185
f 186/152/186 188/155/186 227/176/186 226/175/186
f 190/157/187 192/157/187 229/177/187 228/177/187
f 188/155/188 190/157/188 228/177/188 227/176/188
f 204/163/189 186/152/189 226/175/189 235/178/189
f 202/161/190 204/163/190 235/178/190 234/173/190
f 200/161/191 202/161/191 234/173/191 233/173/191
f 226/175/192 227/176/192 237/179/192 236/180/192
f 233/173/193 234/173/193 244/181/193 243/181/193
f 230/176/194 231/175/194 241/180/194 240/179/194
f 227/176/195 228/177/195 238/182/195 237/179/195
f 234/173/196 235/178/196 245/183/196 244/181/196
f 231/175/197 232/174/197 242/183/197 241/180/197
f 228/177/198 229/177/198 239/182/198 238/182/198
f 235/178/199 226/175/199 236/180/199 245/183/199
f 232/174/200 233/173/200 243/181/200 242/183/200
f 229/177/201 230/176/201 240/179/201 239/182/201
f 240/179/202 241/180/202 251/184/202 250/185/202
f 237/179/203 238/182/203 248/186/203 247/187/203
f 244/181/204 245/183/204 255/188/204 254/189/204
f 241/180/205 242/183/205 252/190/205 251/184/205
f 238/182/206 239/182/206 249/186/206 248/186/206
f 245/183/207 236/180/207 246/184/207 255/188/207
f 242/183/208 243/181/208 253/189/208 252/190/208
f 239/182/209 240/179/209 250/185/209 249/186/209
f 236/180/210 237/179/210 247/187/210 246/184/210
f 243/181/211 244/181/211 254/189/211 253/189/211
f 217/171/149 216/172/149 221/172/149 220/171/149
f 218/170/149 217/171/149 220/171/149 219/170/149
f 222/168/149 221/172/149 216/172/149 225/168/149
f 223/169/149 222/168/149 225/168/149 224/169/149
f 246/184/150 247/187/150 250/185/150 251/184/150
f 251/184/150 252/190/150 255/188/150 246/184/150
f 247/187/150 248/186/150 249/186/150 250/185/150
f 252/190/150 253/189/150 254/189/150 255/188/150
f 256/191/212 257/192/212 259/193/212 258/194/212
f 258/194/213 259/193/213 261/195/213 260/196/213
f 260/196/214 261/195/214 263/197/214 262/198/214
f 262/198/215 263/197/215 265/199/215 264/200/215
f 264/200/216 265/199/216 267/201/216 266/202/216
f 266/202/217 267/201/217 269/203/217 268/204/217
f 268/204/218 269/203/218 271/205/218 270/206/218
f 270/206/219 271/205/219 273/207/219 272/208/219
f 273/207/220 271/205/220 283/209/220 284/209/220
f 272/208/221 273/207/221 275/210/221 274/211/221
f 274/211/222 275/210/222 257/192/222 256/191/222
f 275/210/223 273/207/223 284/209/223 285/212/223
f 271/205/224 269/203/224 282/212/224 283/209/224
f 269/203/225 267/201/225 281/213/225 282/212/225
f 267/201/226 265/199/226 280/214/226 281/213/226
f 265/199/227 263/197/227 279/215/227 280/214/227
f 259/193/228 257/192/228 276/213/228 277/214/228
f 263/197/229 261/195/229 278/215/229 279/215/229
f 261/195/230 259/193/230 277/214/230 278/215/230
f 257/192/231 275/210/231 285/212/231 276/213/231
f 283/209/232 282/212/232 292/216/232 293/217/232
f 280/214/233 279/215/233 289/218/233 290/219/233
f 277/214/234 276/213/234 286/220/234 287/221/234
f 284/209/235 283/209/235 293/217/235 294/217/235
f 281/213/236 280/214/236 290/219/236 291/222/236
f 278/215/237 277/214/237 287/221/237 288/218/237
f 285/212/238 284/209/238 294/217/238 295/223/238
f 282/212/239 281/213/239 291/222/239 292/216/239
f 279/215/240 278/215/240 288/218/240 289/218/240
f 276/213/241 285/212/241 295/223/241 286/220/241
f 268/204/242 270/206/242 303/224/242 302/225/242
f 266/202/243 268/204/243 302/225/243 301/226/243
f 264/200/244 266/202/244 301/226/244 300/227/244
f 262/198/245 264/200/245 300/227/245 299/228/245
f 256/191/246 258/194/246 297/227/246 296/226/246
f 260/196/247 262/198/247 299/228/247 298/228/247
f 258/194/248 260/196/248 298/228/248 297/227/248
f 274/211/249 256/191/249 296/226/249 305/229/249
f 272/208/250 274/211/250 305/229/250 304/224/250
f 270/206/251 272/208/251 304/224/251 303/224/251
f 296/226/252 297/227/252 307/230/252 306/231/252
f 303/224/253 304/224/253 314/232/253 313/232/253
f 300/227/254 301/226/254 311/231/254 310/230/254
f 297/227/255 298/228/255 308/233/255 307/230/255
f 304/224/256 305/229/256 315/234/256 314/232/256
f 301/226/257 302/225/257 312/234/257 311/231/257
f 298/228/258 299/228/258 309/233/258 308/233/258
f 305/229/259 296/226/259 306/231/259 315/234/259
f 302/225/260 303/224/260 313/232/260 312/234/260
f 299/228/261 300/227/261 310/230/261 309/233/261
f 310/230/262 311/231/262 321/235/262 320/236/262
f 307/230/263 308/233/263 318/237/263 317/236/263
f 314/232/264 315/234/264 325/238/264 324/239/264
f 311/231/265 312/234/265 322/238/265 321/235/265
f 308/233/266 309/233/266 319/237/266 318/237/266
f 315/234/267 306/231/267 316/235/267 325/238/267
f 312/234/268 313/232/268 323/239/268 322/238/268
f 309/233/269 310/230/269 320/236/269 319/237/269
f 306/231/270 307/230/270 317/236/270 316/235/270
f 313/232/271 314/232/271 324/239/271 323/239/271
f 287/221/149 286/220/149 291/222/149 290/219/149
f 288/218/149 287/221/149 290/219/149 289/218/149
f 292/216/149 291/222/149 286/220/149 295/223/149
f 293/217/149 292/216/149 295/223/149 294/217/149
f 316/235/150 317/236/150 320/236/150 321/235/150
f 321/235/150 322/238/150 325/238/150 316/235/150
f 317/236/150 318/237/150 319/237/150 320/236/150
f 322/238/150 323/239/150 324/239/150 325/238/150
f 326/240/212 327/241/212 329/242/212 328/243/212
f 328/243/213 329/242/213 331/244/213 330/245/213
f 330/245/214 331/244/214 333/244/214 332/246/214
f 332/246/215 333/244/215 335/242/215 334/247/215
f 334/247/216 335/242/216 337/241/216 336/248/216
f 336/248/217 337/241/217 339/249/217 338/250/217
f 338/250/218 339/249/218 341/251/218 340/252/218
f 340/252/219 341/251/219 343/251/219 342/253/219
f 343/251/220 341/251/220 353/254/220 354/255/220
f 342/253/221 343/251/221 345/249/221 344/256/221
f 344/256/222 345/249/222 327/241/222 326/240/222
f 345/249/223 343/251/223 354/255/223 355/257/223
f 341/251/224 339/249/224 352/258/224 353/254/224
f 339/249/225 337/241/225 351/259/225 352/258/225
f 337/241/226 335/242/226 350/260/226 351/259/226
f 335/242/227 333/244/227 349/261/227 350/260/227
f 329/242/228 327/241/228 346/262/228 347/263/228
f 333/244/229 331/244/229 348/264/229 349/261/229
f 331/244/230 329/242/230 347/263/230 348/264/230
f 327/241/231 345/249/231 355/257/231 346/262/231
f 353/254/232 352/258/232 362/265/232 363/266/232
f 350/260/233 349/261/233 359/267/233 360/268/233
f 347/263/234 346/262/234 356/269/234 357/268/234
f 354/255/235 353/254/235 363/266/235 364/266/235
f 351/259/236 350/260/236 360/268/236 361/269/236
f 348/264/237 347/263/237 357/268/237 358/267/237
f 355/257/238 354/255/238 364/266/238 365/265/238
f 352/258/239 351/259/239 361/269/239 362/265/239
f 349/261/240 348/264/240 358/267/240 359/267/240
f 346/262/241 355/257/241 365/265/241 356/269/241
f 338/250/242 340/252/242 373/270/242 372/271/242
f 336/248/243 338/250/243 372/271/243 371/272/243
f 334/247/244 336/248/244 371/272/244 370/273/244
f 332/246/245 334/247/245 370/273/245 369/274/245
f 326/240/246 328/243/246 367/273/246 366/272/246
f 330/245/247 332/246/247 369/274/247 368/274/247
f 328/243/248 330/245/248 368/274/248 367/273/248
f 344/256/249 326/240/249 366/272/249 375/271/249
f 342/253/250 344/256/250 375/271/250 374/270/250
f 340/252/251 342/253/251 374/270/251 373/270/251
f 366/272/252 367/273/252 377/275/252 376/276/252
f 373/270/253 374/270/253 384/277/253 383/277/253
f 370/273/254 371/272/254 381/276/254 380/275/254
f 367/273/255 368/274/255 378/278/255 377/275/255
f 374/270/256 375/271/256 385/279/256 384/277/256
f 371/272/257 372/271/257 382/280/257 381/276/257
f 368/274/258 369/274/258 379/278/258 378/278/258
f 375/271/259 366/272/259 376/276/259 385/279/259
f 372/271/260 373/270/260 383/277/260 382/280/260
f 369/274/261 370/273/261 380/275/261 379/278/261
f 380/275/262 381/276/262 391/281/262 390/282/262
f 377/275/263 378/278/263 388/283/263 387/284/263
f 384/277/264 385/279/264 395/285/264 394/286/264
f 381/276/265 382/280/265 392/287/265 391/281/265
f 378/278/266 379/278/266 389/283/266 388/283/266
f 385/279/267 376/276/267 386/288/267 395/285/267
f 382/280/268 383/277/268 393/286/268 392/287/268
f 379/278/269 380/275/269 390/282/269 389/283/269
f 376/276/270 377/275/270 387/284/270 386/288/270
f 383/277/271 384/277/271 394/286/271 393/286/271
f 357/268/149 356/269/149 361/269/149 360/268/149
f 358/267/149 357/268/149 360/268/149 359/267/149
f 362/265/149 361/269/149 356/269/149 365/265/149
f 363/266/149 362/265/149 365/265/149 364/266/149
f 386/288/150 387/284/150 390/282/150 391/281/150
f 391/281/150 392/287/150 395/285/150 386/288/150
f 387/284/150 388/283/150 389/283/150 390/282/150
f 392/287/150 393/286/150 394/286/150 395/285/150
f 396/289/212 397/290/212 399/291/212 398/292/212
f 398/292/213 399/291/213 401/293/213 400/294/213
f 400/294/214 401/293/214 403/293/214 402/294/214
f 402/294/215 403/293/215 405/291/215 404/295/215
f 404/295/216 405/291/216 407/290/216 406/289/216
f 406/289/217 407/290/217 409/296/217 408/297/217
f 408/297/218 409/296/218 411/298/218 410/299/218
f 410/299/219 411/298/219 413/298/219 412/299/219
f 413/298/220 411/298/220 423/300/220 424/300/220
f 412/299/221 413/298/221 415/296/221 414/301/221
f 414/301/222 415/296/222 397/290/222 396/289/222
f 415/296/223 413/298/223 424/300/223 425/302/223
f 411/298/224 409/296/224 422/303/224 423/300/224
f 409/296/225 407/290/225 421/304/225 422/303/225
f 407/290/226 405/291/226 420/305/226 421/304/226
f 405/291/227 403/293/227 419/306/227 420/305/227
f 399/291/228 397/290/228 416/304/228 417/307/228
f 403/293/229 401/293/229 418/306/229 419/306/229
f 401/293/230 399/291/230 417/307/230 418/306/230
f 397/290/231 415/296/231 425/302/231 416/304/231
f 423/300/232 422/303/232 432/308/232 433/309/232
f 420/305/233 419/306/233 429/310/233 430/311/233
f 417/307/234 416/304/234 426/312/234 427/311/234
f 424/300/235 423/300/235 433/309/235 434/309/235
f 421/304/236 420/305/236 430/311/236 431/312/236
f 418/306/237 417/307/237 427/311/237 428/310/237
f 425/302/238 424/300/238 434/309/238 435/308/238
f 422/303/239 421/304/239 431/312/239 432/308/239
f 419/306/240 418/306/240 428/310/240 429/310/240
f 416/304/241 425/302/241 435/308/241 426/312/241
f 408/297/242 410/299/242 443/313/242 442/314/242
f 406/289/243 408/297/243 442/314/243 441/315/243
f 404/295/244 406/289/244 441/315/244 440/316/244
f 402/294/245 404/295/245 440/316/245 439/317/245
f 396/289/246 398/292/246 437/316/246 436/315/246
f 400/294/247 402/294/247 439/317/247 438/317/247
f 398/292/248 400/294/248 438/317/248 437/316/248
f 414/301/249 396/289/249 436/315/249 445/314/249
f 412/299/250 414/301/250 445/314/250 444/313/250
f 410/299/251 412/299/251 444/313/251 443/313/251
f 436/315/252 437/316/252 447/318/252 446/319/252
f 443/313/253 444/313/253 454/320/253 453/320/253
f 440/316/254 441/315/254 451/319/254 450/318/254
f 437/316/255 438/317/255 448/321/255 447/318/255
f 444/313/256 445/314/256 455/322/256 454/320/256
f 441/315/257 442/314/257 452/323/257 451/319/257
f 438/317/258 439/317/258 449/321/258 448/321/258
f 445/314/259 436/315/259 446/319/259 455/322/259
f 442/314/260 443/313/260 453/320/260 452/323/260
f 439/317/261 440/316/261 450/318/261 449/321/261
f 450/318/262 451/319/262 461/324/262 460/325/262
f 447/318/263 448/321/263 458/326/263 457/325/263
f 454/320/264 455/322/264 465/327/264 464/328/264
f 451/319/265 452/323/265 462/327/265 461/324/265
f 448/321/266 449/321/266 459/326/266 458/326/266
f 455/322/267 446/319/267 456/324/267 465/327/267
f 452/323/268 453/320/268 463/328/268 462/327/268
f 449/321/269 450/318/269 460/325/269 459/326/269
f 446/319/270 447/318/270 457/325/270 456/324/270
f 453/320/271 454/320/271 464/328/271 463/328/271
f 427/311/149 426/312/149 431/312/149 430/311/149
f 428/310/149 427/311/149 430/311/149 429/310/149
f 432/308/149 431/312/149 426/312/149 435/308/149
f 433/309/149 432/308/149 435/308/149 434/309/149
f 456/324/150 457/325/150 460/325/150 461/324/150
f 461/324/150 462/327/150 465/327/150 456/324/150
f 457/325/150 458/326/150 459/326/150 460/325/150
f 462/327/150 463/328/150 464/328/150 465/327/150
f 466/329/212 467/330/212 469/331/212 468/332/212
f 468/332/213 469/331/213 471/333/213 470/334/213
f 470/334/214 471/333/214 473/335/214 472/334/214
f 472/334/215 473/335/215 475/336/215 474/332/215
f 474/332/216 475/336/216 477/337/216 476/329/216
f 476/329/217 477/337/217 479/338/217 478/339/217
f 478/339/218 479/338/218 481/340/218 480/341/218
f 480/341/219 481/340/219 483/342/219 482/341/219
f 483/342/220 481/340/220 493/343/220 494/343/220
f 482/341/221 483/342/221 485/344/221 484/339/221
f 484/339/222 485/344/222 467/330/222 466/329/222
f 485/344/223 483/342/223 494/343/223 495/345/223
f 481/340/224 479/338/224 492/345/224 493/343/224
f 479/338/225 477/337/225 491/346/225 492/345/225
f 477/337/226 475/336/226 490/347/226 491/346/226
f 475/336/227 473/335/227 489/348/227 490/347/227
f 469/331/228 467/330/228 486/346/228 487/347/228
f 473/335/229 471/333/229 488/348/229 489/348/229
f 471/333/230 469/331/230 487/347/230 488/348/230
f 467/330/231 485/344/231 495/345/231 486/346/231
f 493/343/232 492/345/232 502/349/232 503/350/232
f 490/347/233 489/348/233 499/351/233 500/352/233
f 487/347/234 486/346/234 496/353/234 497/354/234
f 494/343/235 493/343/235 503/350/235 504/350/235
f 491/346/236 490/347/236 500/352/236 501/353/236
f 488/348/237 487/347/237 497/354/237 498/351/237
f 495/345/238 494/343/238 504/350/238 505/349/238
f 492/345/239 491/346/239 501/353/239 502/349/239
f 489/348/240 488/348/240 498/351/240 499/351/240
f 486/346/241 495/345/241 505/349/241 496/353/241
f 478/339/242 480/341/242 513/355/242 512/356/242
f 476/329/243 478/339/243 512/356/243 511/357/243
f 474/332/244 476/329/244 511/357/244 510/358/244
f 472/334/245 474/332/245 510/358/245 509/359/245
f 466/329/246 468/332/246 507/358/246 506/357/246
f 470/334/247 472/334/247 509/359/247 508/359/247
f 468/332/248 470/334/248 508/359/248 507/358/248
f 484/339/249 466/329/249 506/357/249 515/360/249
f 482/341/250 484/339/250 515/360/250 514/355/250
f 480/341/251 482/341/251 514/355/251 513/355/251
f 506/357/252 507/358/252 517/361/252 516/362/252
f 513/355/253 514/355/253 524/363/253 523/363/253
f 510/358/254 511/357/254 521/364/254 520/365/254
f 507/358/255 508/359/255 518/366/255 517/361/255
f 514/355/256 515/360/256 525/367/256 524/363/256
f 511/357/257 512/356/257 522/368/257 521/364/257
f 508/359/258 509/359/258 519/366/258 518/366/258
f 515/360/259 506/357/259 516/362/259 525/367/259
f 512/356/260 513/355/260 523/363/260 522/368/260
f 509/359/261 510/358/261 520/365/261 519/366/261
f 520/365/262 521/364/262 531/369/262 530/370/262
f 517/361/263 518/366/263 528/371/263 527/370/263
f 524/363/264 525/367/264 535/372/264 534/373/264
f 521/364/265 522/368/265 532/372/265 531/369/265
f 518/366/266 519/366/266 529/371/266 528/371/266
f 525/367/267 516/362/267 526/369/267 535/372/267
f 522/368/268 523/363/268 533/373/268 532/372/268
f 519/366/269 520/365/269 530/370/269 529/371/269
f 516/362/270 517/361/270 527/370/270 526/369/270
f 523/363/271 524/363/271 534/373/271 533/373/271
f 497/354/149 496/353/149 501/353/149 500/352/149
f 498/351/272 497/354/272 500/352/272 499/351/272
f 502/349/149 501/353/149 496/353/149 505/349/149
f 503/350/149 502/349/149 505/349/149 504/350/149
f 526/369/150 527/370/150 530/370/150 531/369/150
f 531/369/150 532/372/150 535/372/150 526/369/150
f 527/370/150 528/371/150 529/371/150 530/370/150
f 532/372/150 533/373/150 534/373/150 535/372/150
f 536/374/212 537/375/212 539/376/212 538/377/212
f 538/377/213 539/376/213 541/378/213 540/379/213
f 540/379/214 541/378/214 543/378/214 542/379/214
f 542/379/215 543/378/215 545/376/215 544/377/215
f 544/377/216 545/376/216 547/375/216 546/374/216
f 546/374/217 547/375/217 549/380/217 548/381/217
f 548/381/218 549/380/218 551/382/218 550/383/218
f 550/383/219 551/382/219 553/382/219 552/383/219
f 553/382/220 551/382/220 563/384/220 564/384/220
f 552/383/221 553/382/221 555/380/221 554/385/221
f 554/385/222 555/380/222 537/375/222 536/374/222
f 555/380/223 553/382/223 564/384/223 565/386/223
f 551/382/224 549/380/224 562/386/224 563/384/224
f 549/380/225 547/375/225 561/387/225 562/386/225
f 547/375/226 545/376/226 560/388/226 561/387/226
f 545/376/227 543/378/227 559/389/227 560/388/227
f 539/376/228 537/375/228 556/387/228 557/388/228
f 543/378/229 541/378/229 558/389/229 559/389/229
f 541/378/230 539/376/230 557/388/230 558/389/230
f 537/375/231 555/380/231 565/386/231 556/387/231
f 563/384/232 562/386/232 572/390/232 573/391/232
f 560/388/233 559/389/233 569/392/233 570/393/233
f 557/388/234 556/387/234 566/394/234 567/393/234
f 564/384/235 563/384/235 573/391/235 574/391/235
f 561/387/236 560/388/236 570/393/236 571/394/236
f 558/389/237 557/388/237 567/393/237 568/392/237
f 565/386/238 564/384/238 574/391/238 575/390/238
f 562/386/239 561/387/239 571/394/239 572/390/239
f 559/389/240 558/389/240 568/392/240 569/392/240
f 556/387/241 565/386/241 575/390/241 566/394/241
f 548/381/242 550/383/242 583/395/242 582/396/242
f 546/374/243 548/381/243 582/396/243 581/397/243
f 544/377/244 546/374/244 581/397/244 580/398/244
f 542/379/245 544/377/245 580/398/245 579/399/245
f 536/374/246 538/377/246 577/398/246 576/397/246
f 540/379/247 542/379/247 579/399/247 578/399/247
f 538/377/248 540/379/248 578/399/248 577/398/248
f 554/385/249 536/374/249 576/397/249 585/396/249
f 552/383/250 554/385/250 585/396/250 584/395/250
f 550/383/251 552/383/251 584/395/251 583/395/251
f 576/397/252 577/398/252 587/400/252 586/401/252
f 583/395/253 584/395/253 594/402/253 593/402/253
f 580/398/254 581/397/254 591/401/254 590/400/254
f 577/398/255 578/399/255 588/403/255 587/400/255
f 584/395/256 585/396/256 595/404/256 594/402/256
f 581/397/257 582/396/257 592/404/257 591/401/257
f 578/399/258 579/399/258 589/403/258 588/403/258
f 585/396/259 576/397/259 586/401/259 595/404/259
f 582/396/260 583/395/260 593/402/260 592/404/260
f 579/399/261 580/398/261 590/400/261 589/403/261
f 590/400/262 591/401/262 601/405/262 600/406/262
f 587/400/263 588/403/263 598/407/263 597/406/263
f 594/402/264 595/404/264 605/408/264 604/409/264
f 591/401/265 592/404/265 602/408/265 601/405/265
f 588/403/266 589/403/266 599/407/266 598/407/266
f 595/404/267 586/401/267 596/405/267 605/408/267
f 592/404/268 593/402/268 603/409/268 602/408/268
f 589/403/269 590/400/269 600/406/269 599/407/269
f 586/401/270 587/400/270 597/406/270 596/405/270
f 593/402/271 594/402/271 604/409/271 603/409/271
f 567/393/149 566/394/149 571/394/149 570/393/149
f 568/392/149 567/393/149 570/393/149 569/392/149
f 572/390/149 571/394/149 566/394/149 575/390/149
f 573/391/272 572/390/272 575/390/272 574/391/272
f 596/405/150 597/406/150 600/406/150 601/405/150
f 601/405/150 602/408/150 605/408/150 596/405/150
f 597/406/150 598/407/150 599/407/150 600/406/150
f 602/408/150 603/409/150 604/409/150 605/408/150
