# Blender 5.1.0
# www.blender.org
mtllib ambulance.mtl
o Untitled.004
v -0.879048 -0.024133 1.108526
v -0.879048 -0.024133 0.608526
v -0.879048 -0.024133 -0.991474
v -0.879048 -0.024133 -1.491474
v -0.879048 0.175867 0.908526
v -0.879048 0.175867 0.808527
v -0.879048 0.175867 -1.191474
v -0.879048 0.175867 -1.291474
v -0.879048 0.275867 1.208526
v -0.879048 0.275867 1.108526
v -0.879048 0.275867 0.908526
v -0.879048 0.275867 0.808527
v -0.879048 0.275867 0.608526
v -0.879048 0.275867 0.508526
v -0.879048 0.275867 -0.891474
v -0.879048 0.275867 -0.991474
v -0.879048 0.275867 -1.191474
v -0.879048 0.275867 -1.291474
v -0.879048 0.275867 -1.491474
v -0.879048 0.275867 -1.591474
v -0.879048 0.475867 1.108526
v -0.879048 0.475867 0.608526
v -0.879048 0.475867 -0.991474
v -0.879048 0.475867 -1.491474
v -0.879048 0.575867 1.208526
v -0.879048 0.575867 0.508526
v -0.879048 0.575867 -0.891474
v -0.879048 0.575867 -1.591474
v -0.879048 0.775867 0.408526
v -0.879048 0.775867 0.308527
v -0.879048 0.875867 0.808527
v -0.879048 0.875867 0.708526
v -0.879048 0.975867 0.408526
v -0.879048 0.975867 0.308526
v -0.879048 1.075867 0.808527
v -0.879048 1.075867 0.708526
v -0.779050 0.175867 1.408526
v -0.779050 0.175867 1.108526
v -0.779050 0.175867 0.608526
v -0.779050 0.175867 -0.991474
v -0.779050 0.175867 -1.491474
v -0.779050 0.175867 -1.891474
v -0.779050 0.275867 1.308527
v -0.779050 0.275867 1.208526
v -0.779050 0.275867 1.108526
v -0.779050 0.275867 0.608526
v -0.779050 0.275867 0.508526
v -0.779050 0.275867 0.408526
v -0.779050 0.275867 0.308527
v -0.779050 0.275867 0.208526
v -0.779050 0.275867 0.108526
v -0.779050 0.275867 -0.891474
v -0.779050 0.275867 -0.991474
v -0.779050 0.275867 -1.491474
v -0.779050 0.275867 -1.591474
v -0.779050 0.275867 -1.791474
v -0.779050 0.375867 1.408526
v -0.779050 0.375867 1.308527
v -0.779050 0.375867 0.508526
v -0.779050 0.375867 0.408526
v -0.779050 0.375867 0.308527
v -0.779050 0.375867 -0.291474
v -0.779050 0.375867 -0.391474
v -0.779050 0.375867 -1.791474
v -0.779050 0.375867 -1.891474
v -0.779050 0.475867 0.508526
v -0.779050 0.475867 0.408526
v -0.779050 0.475867 0.308527
v -0.779050 0.475867 -0.191474
v -0.779050 0.475867 -0.291474
v -0.779050 0.475867 -0.391474
v -0.779050 0.475867 -0.491474
v -0.779050 0.575867 1.208526
v -0.779050 0.575867 0.508526
v -0.779050 0.575867 0.408526
v -0.779050 0.575867 0.308527
v -0.779050 0.575867 -0.191474
v -0.779050 0.575867 -0.291474
v -0.779050 0.575867 -0.391474
v -0.779050 0.575867 -0.491474
v -0.779050 0.575867 -0.891474
v -0.779050 0.575867 -1.291474
v -0.779050 0.575867 -1.391474
v -0.779050 0.575867 -1.591474
v -0.779050 0.675867 1.308527
v -0.779050 0.675867 0.808527
v -0.779050 0.675867 0.408526
v -0.779050 0.675867 0.308527
v -0.779050 0.675867 -0.291474
v -0.779050 0.675867 -0.391474
v -0.779050 0.675867 -1.291474
v -0.779050 0.675867 -1.391474
v -0.779050 0.775867 0.408526
v -0.779050 0.775867 0.308527
v -0.779050 0.775867 0.208526
v -0.779050 0.775867 0.108526
v -0.779050 0.775867 -0.791474
v -0.779050 0.775867 -0.891474
v -0.779050 0.775867 -1.091474
v -0.779050 0.775867 -1.191474
v -0.779050 0.775867 -1.391474
v -0.779050 0.775867 -1.491474
v -0.779050 0.775867 -1.691474
v -0.779050 0.875867 0.808527
v -0.779050 0.875867 0.708526
v -0.779050 0.875867 0.408526
v -0.779050 0.975867 0.308526
v -0.779050 0.975867 -0.191474
v -0.779050 0.975867 -0.391474
v -0.779050 0.975867 -0.491474
v -0.779050 0.975867 -0.691474
v -0.779050 1.075867 0.808527
v -0.779050 1.075867 0.708526
v -0.779050 1.275867 0.708526
v -0.779050 1.275867 0.308526
v -0.779050 1.275867 -0.191474
v -0.779050 1.275867 -0.391474
v -0.779050 1.275867 -0.491474
v -0.779050 1.275867 -0.691474
v -0.779050 1.375867 0.808526
v -0.779050 1.375867 0.708526
v -0.779050 1.375867 0.108526
v -0.779050 1.375867 0.008526
v -0.779050 1.475867 0.708526
v -0.779050 1.475867 0.208526
v -0.779050 1.475867 0.008526
v -0.779050 1.475867 -0.791474
v -0.779050 1.475867 -0.891474
v -0.779050 1.475867 -1.091474
v -0.779050 1.475867 -1.191474
v -0.779050 1.475867 -1.391474
v -0.779050 1.475867 -1.491474
v -0.779050 1.475867 -1.691474
v -0.779050 1.475867 -1.791474
v -0.679049 0.275867 0.208526
v -0.679049 0.275867 0.108526
v -0.679049 0.375867 0.208526
v -0.679049 0.375867 0.108526
v -0.679049 0.675867 0.208526
v -0.679049 0.675867 0.108526
v -0.679049 0.775867 0.208526
v -0.679049 0.775867 0.108526
v -0.679049 0.875867 0.708526
v -0.679049 0.875867 0.408526
v -0.679049 0.975867 0.408526
v -0.679049 0.975867 0.308526
v -0.679049 0.975867 -0.191474
v -0.679049 0.975867 -0.391474
v -0.679049 0.975867 -0.491474
v -0.679049 0.975867 -0.691474
v -0.679049 1.275867 0.708526
v -0.679049 1.275867 0.308526
v -0.679049 1.275867 -0.191474
v -0.679049 1.275867 -0.391474
v -0.679049 1.275867 -0.491474
v -0.679049 1.275867 -0.691474
v -0.679049 1.375867 0.808526
v -0.679049 1.375867 0.708526
v -0.679049 1.375867 0.208526
v -0.679049 1.375867 0.108526
v -0.679049 1.375867 0.008526
v -0.679049 1.475867 0.808526
v -0.679049 1.475867 0.708526
v -0.679049 1.475867 0.108526
v -0.679049 1.475867 0.008526
v -0.579049 1.475867 0.608526
v -0.579049 1.475867 0.408526
v -0.579049 1.575867 0.608526
v -0.579049 1.575867 0.408526
v -0.479049 0.675867 1.208526
v -0.479049 0.675867 0.808527
v -0.479049 0.775867 1.208526
v -0.479049 0.775867 0.808527
v 0.520951 0.775867 0.808527
v 0.520951 0.775867 0.708526
v 0.520951 1.275867 0.808526
v 0.520951 1.275867 0.708526
v 0.720950 -0.024133 1.108526
v 0.720950 -0.024133 0.608526
v 0.720950 -0.024133 -0.991474
v 0.720950 -0.024133 -1.491474
v 0.720950 0.175867 1.108526
v 0.720950 0.175867 1.008526
v 0.720950 0.175867 0.708526
v 0.720950 0.175867 0.608526
v 0.720950 0.175867 -0.991474
v 0.720950 0.175867 -1.091474
v 0.720950 0.175867 -1.391474
v 0.720950 0.175867 -1.491474
v -0.779050 -0.024133 1.108526
v -0.779050 -0.024133 0.608526
v -0.779050 -0.024133 -0.991474
v -0.779050 -0.024133 -1.491474
v -0.779050 0.175867 1.108526
v -0.779050 0.175867 1.008526
v -0.779050 0.175867 0.708526
v -0.779050 0.175867 0.608526
v -0.779050 0.175867 -0.991474
v -0.779050 0.175867 -1.091474
v -0.779050 0.175867 -1.391474
v -0.779050 0.175867 -1.491474
v -0.579049 0.775867 0.808527
v -0.579049 0.775867 0.708526
v -0.579049 1.275867 0.808526
v -0.579049 1.275867 0.708526
v 0.420951 0.675867 1.208526
v 0.420951 0.675867 0.808527
v 0.420951 0.775867 1.208526
v 0.420951 0.775867 0.808527
v 0.520951 1.475867 0.608526
v 0.520951 1.475867 0.408526
v 0.520951 1.575867 0.608526
v 0.520951 1.575867 0.408526
v 0.620952 0.275867 0.208526
v 0.620952 0.275867 0.108526
v 0.620952 0.375867 0.208526
v 0.620952 0.375867 0.108526
v 0.620952 0.675867 0.208526
v 0.620952 0.675867 0.108526
v 0.620952 0.775867 0.208526
v 0.620952 0.775867 0.108526
v 0.620952 0.875867 0.708526
v 0.620952 0.875867 0.408526
v 0.620952 0.975867 0.408526
v 0.620952 0.975867 0.308526
v 0.620952 0.975867 -0.191474
v 0.620952 0.975867 -0.391474
v 0.620952 0.975867 -0.491474
v 0.620952 0.975867 -0.691474
v 0.620952 1.175867 0.608526
v 0.620952 1.175867 0.508526
v 0.620952 1.275867 0.708526
v 0.620952 1.275867 0.608526
v 0.620952 1.275867 0.508526
v 0.620952 1.275867 0.308526
v 0.620952 1.275867 -0.191474
v 0.620952 1.275867 -0.391474
v 0.620952 1.275867 -0.491474
v 0.620952 1.275867 -0.691474
v 0.620952 1.375867 0.808526
v 0.620952 1.375867 0.708526
v 0.620952 1.375867 0.308526
v 0.620952 1.375867 0.208526
v 0.620952 1.375867 0.108526
v 0.620952 1.375867 0.008526
v 0.620952 1.475867 0.808526
v 0.620952 1.475867 0.708526
v 0.620952 1.475867 0.308526
v 0.620952 1.475867 0.208526
v 0.620952 1.475867 0.108526
v 0.620952 1.475867 0.008526
v 0.720950 0.175867 1.408526
v 0.720950 0.175867 1.108526
v 0.720950 0.175867 0.608526
v 0.720950 0.175867 -0.991474
v 0.720950 0.175867 -1.491474
v 0.720950 0.175867 -1.891474
v 0.720950 0.275867 1.308527
v 0.720950 0.275867 1.208526
v 0.720950 0.275867 1.108526
v 0.720950 0.275867 0.608526
v 0.720950 0.275867 0.508526
v 0.720950 0.275867 0.408526
v 0.720950 0.275867 0.308527
v 0.720950 0.275867 0.208526
v 0.720950 0.275867 0.108526
v 0.720950 0.275867 -0.891474
v 0.720950 0.275867 -0.991474
v 0.720950 0.275867 -1.491474
v 0.720950 0.275867 -1.591474
v 0.720950 0.275867 -1.791474
v 0.720950 0.375867 1.408526
v 0.720950 0.375867 1.308527
v 0.720950 0.375867 0.508526
v 0.720950 0.375867 0.408526
v 0.720950 0.375867 0.308527
v 0.720950 0.375867 -0.291474
v 0.720950 0.375867 -0.391474
v 0.720950 0.375867 -1.791474
v 0.720950 0.375867 -1.891474
v 0.720950 0.475867 0.508526
v 0.720950 0.475867 0.408526
v 0.720950 0.475867 0.308527
v 0.720950 0.475867 -0.191474
v 0.720950 0.475867 -0.291474
v 0.720950 0.475867 -0.391474
v 0.720950 0.475867 -0.491474
v 0.720950 0.575867 1.208526
v 0.720950 0.575867 0.508526
v 0.720950 0.575867 0.408526
v 0.720950 0.575867 0.308527
v 0.720950 0.575867 -0.191474
v 0.720950 0.575867 -0.291474
v 0.720950 0.575867 -0.391474
v 0.720950 0.575867 -0.491474
v 0.720950 0.575867 -0.891474
v 0.720950 0.575867 -1.291474
v 0.720950 0.575867 -1.391474
v 0.720950 0.575867 -1.591474
v 0.720950 0.675867 1.308527
v 0.720950 0.675867 0.808527
v 0.720950 0.675867 0.408526
v 0.720950 0.675867 0.308527
v 0.720950 0.675867 -0.291474
v 0.720950 0.675867 -0.391474
v 0.720950 0.675867 -1.291474
v 0.720950 0.675867 -1.391474
v 0.720950 0.775867 0.408526
v 0.720950 0.775867 0.308527
v 0.720950 0.775867 0.208526
v 0.720950 0.775867 0.108526
v 0.720950 0.775867 -0.791474
v 0.720950 0.775867 -0.891474
v 0.720950 0.775867 -1.091474
v 0.720950 0.775867 -1.191474
v 0.720950 0.775867 -1.391474
v 0.720950 0.775867 -1.491474
v 0.720950 0.775867 -1.691474
v 0.720950 0.875867 0.808527
v 0.720950 0.875867 0.708526
v 0.720950 0.875867 0.408526
v 0.720950 0.975867 0.308526
v 0.720950 0.975867 -0.191474
v 0.720950 0.975867 -0.391474
v 0.720950 0.975867 -0.491474
v 0.720950 0.975867 -0.691474
v 0.720950 1.075867 0.808527
v 0.720950 1.075867 0.708526
v 0.720950 1.175867 0.608526
v 0.720950 1.175867 0.508526
v 0.720950 1.275867 0.708526
v 0.720950 1.275867 0.608526
v 0.720950 1.275867 0.508526
v 0.720950 1.275867 0.308526
v 0.720950 1.275867 -0.191474
v 0.720950 1.275867 -0.391474
v 0.720950 1.275867 -0.491474
v 0.720950 1.275867 -0.691474
v 0.720950 1.375867 0.808526
v 0.720950 1.375867 0.708526
v 0.720950 1.375867 0.308526
v 0.720950 1.375867 0.208526
v 0.720950 1.375867 0.108526
v 0.720950 1.375867 0.008526
v 0.720950 1.475867 0.708526
v 0.720950 1.475867 0.308526
v 0.720950 1.475867 0.008526
v 0.720950 1.475867 -0.791474
v 0.720950 1.475867 -0.891474
v 0.720950 1.475867 -1.091474
v 0.720950 1.475867 -1.191474
v 0.720950 1.475867 -1.391474
v 0.720950 1.475867 -1.491474
v 0.720950 1.475867 -1.691474
v 0.720950 1.475867 -1.791474
v 0.820951 -0.024133 1.108526
v 0.820951 -0.024133 0.608526
v 0.820951 -0.024133 -0.991474
v 0.820951 -0.024133 -1.491474
v 0.820951 0.175867 0.908526
v 0.820951 0.175867 0.808527
v 0.820951 0.175867 -1.191474
v 0.820951 0.175867 -1.291474
v 0.820951 0.275867 1.208526
v 0.820951 0.275867 1.108526
v 0.820951 0.275867 0.908526
v 0.820951 0.275867 0.808527
v 0.820951 0.275867 0.608526
v 0.820951 0.275867 0.508526
v 0.820951 0.275867 -0.891474
v 0.820951 0.275867 -0.991474
v 0.820951 0.275867 -1.191474
v 0.820951 0.275867 -1.291474
v 0.820951 0.275867 -1.491474
v 0.820951 0.275867 -1.591474
v 0.820951 0.475867 1.108526
v 0.820951 0.475867 0.608526
v 0.820951 0.475867 -0.991474
v 0.820951 0.475867 -1.491474
v 0.820951 0.575867 1.208526
v 0.820951 0.575867 0.508526
v 0.820951 0.575867 -0.891474
v 0.820951 0.575867 -1.591474
v 0.820951 0.775867 0.408526
v 0.820951 0.775867 0.308527
v 0.820951 0.875867 0.808527
v 0.820951 0.875867 0.708526
v 0.820951 0.975867 0.408526
v 0.820951 0.975867 0.308526
v 0.820951 1.075867 0.808527
v 0.820951 1.075867 0.708526
v -0.779050 0.175867 1.408526
v -0.779050 0.375867 1.408526
v 0.720950 0.175867 1.408526
v 0.720950 0.375867 1.408526
v -0.779050 0.375867 1.308527
v -0.779050 0.675867 1.308527
v -0.679049 0.475867 1.308527
v -0.679049 0.575867 1.308527
v -0.379048 0.475867 1.308527
v -0.379048 0.575867 1.308527
v 0.320951 0.475867 1.308527
v 0.320951 0.575867 1.308527
v 0.620952 0.475867 1.308527
v 0.620952 0.575867 1.308527
v 0.720950 0.375867 1.308527
v 0.720950 0.675867 1.308527
v -0.879048 0.275867 1.208526
v -0.879048 0.575867 1.208526
v -0.779050 0.275867 1.208526
v -0.779050 0.575867 1.208526
v -0.479049 0.675867 1.208526
v -0.479049 0.775867 1.208526
v 0.420951 0.675867 1.208526
v 0.420951 0.775867 1.208526
v 0.720950 0.275867 1.208526
v 0.720950 0.575867 1.208526
v 0.820951 0.275867 1.208526
v 0.820951 0.575867 1.208526
v -0.879048 -0.024133 1.108526
v -0.879048 0.275867 1.108526
v -0.779050 -0.024133 1.108526
v -0.779050 0.175867 1.108526
v -0.779050 0.275867 1.108526
v 0.720950 -0.024133 1.108526
v 0.720950 0.175867 1.108526
v 0.720950 0.275867 1.108526
v 0.820951 -0.024133 1.108526
v 0.820951 0.275867 1.108526
v -0.879048 0.875867 0.808527
v -0.879048 1.075867 0.808527
v -0.779050 0.675867 0.808527
v -0.779050 0.875867 0.808527
v -0.779050 1.075867 0.808527
v -0.779050 1.375867 0.808526
v -0.679049 1.375867 0.808526
v -0.679049 1.475867 0.808526
v -0.579049 0.775867 0.808527
v -0.579049 1.275867 0.808526
v -0.479049 0.675867 0.808527
v -0.479049 0.775867 0.808527
v 0.420951 0.675867 0.808527
v 0.420951 0.775867 0.808527
v 0.520951 0.775867 0.808527
v 0.520951 1.275867 0.808526
v 0.620952 1.375867 0.808526
v 0.620952 1.475867 0.808526
v 0.720950 0.675867 0.808527
v 0.720950 0.875867 0.808527
v 0.720950 1.075867 0.808527
v 0.720950 1.375867 0.808526
v 0.820951 0.875867 0.808527
v 0.820951 1.075867 0.808527
v -0.779050 1.375867 0.708526
v -0.779050 1.475867 0.708526
v -0.679049 1.375867 0.708526
v -0.679049 1.475867 0.708526
v -0.579049 0.775867 0.708526
v -0.579049 1.275867 0.708526
v 0.520951 0.775867 0.708526
v 0.520951 1.275867 0.708526
v 0.620952 1.375867 0.708526
v 0.620952 1.475867 0.708526
v 0.720950 1.375867 0.708526
v 0.720950 1.475867 0.708526
v -0.579049 1.475867 0.608526
v -0.579049 1.575867 0.608526
v -0.279050 1.475867 0.608526
v -0.279050 1.575867 0.608526
v 0.220950 1.475867 0.608526
v 0.220950 1.575867 0.608526
v 0.520951 1.475867 0.608526
v 0.520951 1.575867 0.608526
v 0.620952 1.175867 0.608526
v 0.620952 1.275867 0.608526
v 0.720950 1.175867 0.608526
v 0.720950 1.275867 0.608526
v -0.879048 0.775867 0.408526
v -0.879048 0.975867 0.408526
v -0.779050 0.775867 0.408526
v -0.779050 0.875867 0.408526
v -0.679049 0.875867 0.408526
v -0.679049 0.975867 0.408526
v 0.620952 0.875867 0.408526
v 0.620952 0.975867 0.408526
v 0.720950 0.775867 0.408526
v 0.720950 0.875867 0.408526
v 0.820951 0.775867 0.408526
v 0.820951 0.975867 0.408526
v -0.779050 0.975867 0.308526
v -0.779050 1.275867 0.308526
v -0.679049 0.975867 0.308526
v -0.679049 1.275867 0.308526
v 0.620952 0.975867 0.308526
v 0.620952 1.275867 0.308526
v 0.720950 0.975867 0.308526
v 0.720950 1.275867 0.308526
v -0.779050 0.275867 0.108526
v -0.779050 0.775867 0.108526
v -0.779050 1.375867 0.108526
v -0.679049 0.275867 0.108526
v -0.679049 0.375867 0.108526
v -0.679049 0.675867 0.108526
v -0.679049 0.775867 0.108526
v -0.679049 1.375867 0.108526
v -0.679049 1.475867 0.108526
v 0.620952 0.275867 0.108526
v 0.620952 0.375867 0.108526
v 0.620952 0.675867 0.108526
v 0.620952 0.775867 0.108526
v 0.620952 1.375867 0.108526
v 0.620952 1.475867 0.108526
v 0.720950 0.275867 0.108526
v 0.720950 0.775867 0.108526
v 0.720950 1.375867 0.108526
v -0.779050 1.375867 0.008526
v -0.779050 1.475867 0.008526
v -0.679049 1.375867 0.008526
v -0.679049 1.475867 0.008526
v 0.620952 1.375867 0.008526
v 0.620952 1.475867 0.008526
v 0.720950 1.375867 0.008526
v 0.720950 1.475867 0.008526
v -0.779050 0.975867 -0.391474
v -0.779050 1.275867 -0.391474
v -0.679049 0.975867 -0.391474
v -0.679049 1.275867 -0.391474
v 0.620952 0.975867 -0.391474
v 0.620952 1.275867 -0.391474
v 0.720950 0.975867 -0.391474
v 0.720950 1.275867 -0.391474
v -0.779050 0.975867 -0.691474
v -0.779050 1.275867 -0.691474
v -0.679049 0.975867 -0.691474
v -0.679049 1.275867 -0.691474
v 0.620952 0.975867 -0.691474
v 0.620952 1.275867 -0.691474
v 0.720950 0.975867 -0.691474
v 0.720950 1.275867 -0.691474
v -0.879048 0.275867 -0.891474
v -0.879048 0.575867 -0.891474
v -0.779050 0.275867 -0.891474
v -0.779050 0.575867 -0.891474
v 0.720950 0.275867 -0.891474
v 0.720950 0.575867 -0.891474
v 0.820951 0.275867 -0.891474
v 0.820951 0.575867 -0.891474
v -0.879048 -0.024133 -0.991474
v -0.879048 0.275867 -0.991474
v -0.779050 -0.024133 -0.991474
v -0.779050 0.175867 -0.991474
v -0.779050 0.275867 -0.991474
v 0.720950 -0.024133 -0.991474
v 0.720950 0.175867 -0.991474
v 0.720950 0.275867 -0.991474
v 0.820951 -0.024133 -0.991474
v 0.820951 0.275867 -0.991474
v -0.879048 0.875867 0.708526
v -0.879048 1.075867 0.708526
v -0.779050 0.875867 0.708526
v -0.779050 1.075867 0.708526
v -0.779050 1.275867 0.708526
v -0.679049 0.875867 0.708526
v -0.679049 1.275867 0.708526
v 0.620952 0.875867 0.708526
v 0.620952 1.275867 0.708526
v 0.720950 0.875867 0.708526
v 0.720950 1.075867 0.708526
v 0.720950 1.275867 0.708526
v 0.820951 0.875867 0.708526
v 0.820951 1.075867 0.708526
v -0.879048 -0.024133 0.608526
v -0.879048 0.275867 0.608526
v -0.779050 -0.024133 0.608526
v -0.779050 0.175867 0.608526
v -0.779050 0.275867 0.608526
v 0.720950 -0.024133 0.608526
v 0.720950 0.175867 0.608526
v 0.720950 0.275867 0.608526
v 0.820951 -0.024133 0.608526
v 0.820951 0.275867 0.608526
v -0.879048 0.275867 0.508526
v -0.879048 0.575867 0.508526
v -0.779050 0.275867 0.508526
v -0.779050 0.375867 0.508526
v -0.779050 0.475867 0.508526
v -0.779050 0.575867 0.508526
v 0.620952 1.175867 0.508526
v 0.620952 1.275867 0.508526
v 0.720950 0.275867 0.508526
v 0.720950 0.375867 0.508526
v 0.720950 0.475867 0.508526
v 0.720950 0.575867 0.508526
v 0.720950 1.175867 0.508526
v 0.720950 1.275867 0.508526
v 0.820951 0.275867 0.508526
v 0.820951 0.575867 0.508526
v -0.579049 1.475867 0.408526
v -0.579049 1.575867 0.408526
v -0.279050 1.475867 0.408526
v -0.279050 1.575867 0.408526
v 0.220950 1.475867 0.408526
v 0.220950 1.575867 0.408526
v 0.520951 1.475867 0.408526
v 0.520951 1.575867 0.408526
v -0.879048 0.775867 0.308527
v -0.879048 0.975867 0.308526
v -0.779050 0.775867 0.308527
v -0.779050 0.975867 0.308526
v 0.620952 1.375867 0.308526
v 0.620952 1.475867 0.308526
v 0.720950 0.775867 0.308527
v 0.720950 0.975867 0.308526
v 0.720950 1.375867 0.308526
v 0.720950 1.475867 0.308526
v 0.820951 0.775867 0.308527
v 0.820951 0.975867 0.308526
v -0.779050 0.275867 0.208526
v -0.779050 0.775867 0.208526
v -0.779050 1.475867 0.208526
v -0.679049 0.275867 0.208526
v -0.679049 0.375867 0.208526
v -0.679049 0.675867 0.208526
v -0.679049 0.775867 0.208526
v -0.679049 1.375867 0.208526
v 0.620952 0.275867 0.208526
v 0.620952 0.375867 0.208526
v 0.620952 0.675867 0.208526
v 0.620952 0.775867 0.208526
v 0.620952 1.375867 0.208526
v 0.620952 1.475867 0.208526
v 0.720950 0.275867 0.208526
v 0.720950 0.775867 0.208526
v 0.720950 1.375867 0.208526
v -0.779050 0.975867 -0.191474
v -0.779050 1.275867 -0.191474
v -0.679049 0.975867 -0.191474
v -0.679049 1.275867 -0.191474
v 0.620952 0.975867 -0.191474
v 0.620952 1.275867 -0.191474
v 0.720950 0.975867 -0.191474
v 0.720950 1.275867 -0.191474
v -0.779050 0.975867 -0.491474
v -0.779050 1.275867 -0.491474
v -0.679049 0.975867 -0.491474
v -0.679049 1.275867 -0.491474
v 0.620952 0.975867 -0.491474
v 0.620952 1.275867 -0.491474
v 0.720950 0.975867 -0.491474
v 0.720950 1.275867 -0.491474
v -0.879048 -0.024133 -1.491474
v -0.879048 0.275867 -1.491474
v -0.779050 -0.024133 -1.491474
v -0.779050 0.175867 -1.491474
v -0.779050 0.275867 -1.491474
v 0.720950 -0.024133 -1.491474
v 0.720950 0.175867 -1.491474
v 0.720950 0.275867 -1.491474
v 0.820951 -0.024133 -1.491474
v 0.820951 0.275867 -1.491474
v -0.879048 0.275867 -1.591474
v -0.879048 0.575867 -1.591474
v -0.779050 0.275867 -1.591474
v -0.779050 0.575867 -1.591474
v 0.720950 0.275867 -1.591474
v 0.720950 0.575867 -1.591474
v 0.820951 0.275867 -1.591474
v 0.820951 0.575867 -1.591474
v -0.779050 0.375867 -1.791474
v -0.779050 1.475867 -1.791474
v -0.679049 0.775867 -1.791474
v -0.679049 1.375867 -1.791474
v -0.579049 0.475867 -1.791474
v -0.579049 0.775867 -1.791474
v -0.579049 1.275867 -1.791474
v -0.279050 0.875867 -1.791474
v -0.279050 0.975867 -1.791474
v -0.179049 0.875867 -1.791474
v -0.179049 0.975867 -1.791474
v -0.079049 0.475867 -1.791474
v -0.079049 0.775867 -1.791474
v -0.079049 1.275867 -1.791474
v 0.020951 0.475867 -1.791474
v 0.020951 0.775867 -1.791474
v 0.020951 1.275867 -1.791474
v 0.120952 0.875867 -1.791474
v 0.120952 0.975867 -1.791474
v 0.220950 0.875867 -1.791474
v 0.220950 0.975867 -1.791474
v 0.520951 0.475867 -1.791474
v 0.520951 0.775867 -1.791474
v 0.520951 1.275867 -1.791474
v 0.620952 0.775867 -1.791474
v 0.620952 1.375867 -1.791474
v 0.720950 0.375867 -1.791474
v 0.720950 1.475867 -1.791474
v -0.779050 0.175867 -1.891474
v -0.779050 0.375867 -1.891474
v 0.720950 0.175867 -1.891474
v 0.720950 0.375867 -1.891474
v -0.879048 -0.024133 1.108526
v -0.779050 -0.024133 1.108526
v 0.720950 -0.024133 1.108526
v 0.820951 -0.024133 1.108526
v -0.879048 -0.024133 0.608526
v -0.779050 -0.024133 0.608526
v 0.720950 -0.024133 0.608526
v 0.820951 -0.024133 0.608526
v -0.879048 -0.024133 -0.991474
v -0.779050 -0.024133 -0.991474
v 0.720950 -0.024133 -0.991474
v 0.820951 -0.024133 -0.991474
v -0.879048 -0.024133 -1.491474
v -0.779050 -0.024133 -1.491474
v 0.720950 -0.024133 -1.491474
v 0.820951 -0.024133 -1.491474
v -0.779050 0.175867 1.408526
v 0.720950 0.175867 1.408526
v -0.279050 0.175867 1.308527
v 0.220950 0.175867 1.308527
v -0.579049 0.175867 1.208526
v -0.279050 0.175867 1.208526
v 0.220950 0.175867 1.208526
v 0.520951 0.175867 1.208526
v -0.779050 0.175867 1.108526
v -0.579049 0.175867 1.108526
v -0.479049 0.175867 1.108526
v 0.320951 0.175867 1.108526
v 0.520951 0.175867 1.108526
v 0.720950 0.175867 1.108526
v -0.779050 0.175867 1.008526
v -0.679049 0.175867 1.008526
v -0.479049 0.175867 1.008526
v -0.079049 0.175867 1.008526
v 0.020951 0.175867 1.008526
v 0.320951 0.175867 1.008526
v 0.620952 0.175867 1.008526
v 0.720950 0.175867 1.008526
v -0.679049 0.175867 0.908526
v -0.079049 0.175867 0.908526
v 0.020951 0.175867 0.908526
v 0.620952 0.175867 0.908526
v -0.679049 0.175867 0.808527
v -0.079049 0.175867 0.808527
v 0.020951 0.175867 0.808527
v 0.620952 0.175867 0.808527
v -0.779050 0.175867 0.708526
v -0.679049 0.175867 0.708526
v 0.320951 0.175867 0.708526
v 0.520951 0.175867 0.708526
v 0.620952 0.175867 0.708526
v 0.720950 0.175867 0.708526
v -0.779050 0.175867 0.608526
v -0.679049 0.175867 0.608526
v -0.479049 0.175867 0.608526
v 0.720950 0.175867 0.608526
v 0.320951 0.175867 0.508526
v 0.420951 0.175867 0.508526
v -0.679049 0.175867 0.408526
v -0.479049 0.175867 0.408526
v 0.420951 0.175867 0.408526
v 0.520951 0.175867 0.408526
v -0.379048 0.175867 0.308527
v -0.079049 0.175867 0.308527
v 0.020951 0.175867 0.308527
v 0.320951 0.175867 0.308527
v -0.179049 0.175867 0.208526
v -0.079049 0.175867 0.208526
v 0.420951 0.175867 0.208526
v 0.520951 0.175867 0.208526
v 0.020951 0.175867 0.108526
v 0.320951 0.175867 0.108526
v 0.020951 0.175867 0.008526
v 0.320951 0.175867 0.008526
v -0.379048 0.175867 -0.191474
v -0.179049 0.175867 -0.191474
v 0.020951 0.175867 -0.191474
v 0.320951 0.175867 -0.191474
v 0.420951 0.175867 -0.191474
v 0.520951 0.175867 -0.191474
v -0.679049 0.175867 -0.291474
v -0.579049 0.175867 -0.291474
v 0.020951 0.175867 -0.291474
v 0.320951 0.175867 -0.291474
v -0.379048 0.175867 -0.391474
v -0.079049 0.175867 -0.391474
v -0.179049 0.175867 -0.491474
v -0.079049 0.175867 -0.491474
v 0.020951 0.175867 -0.491474
v 0.320951 0.175867 -0.491474
v 0.020951 0.175867 -0.591474
v 0.320951 0.175867 -0.591474
v 0.420951 0.175867 -0.691474
v 0.520951 0.175867 -0.691474
v 0.020951 0.175867 -0.791474
v 0.320951 0.175867 -0.791474
v 0.520951 0.175867 -0.791474
v 0.620952 0.175867 -0.791474
v -0.679049 0.175867 -0.891474
v -0.579049 0.175867 -0.891474
v -0.379048 0.175867 -0.891474
v -0.179049 0.175867 -0.891474
v -0.779050 0.175867 -0.991474
v 0.420951 0.175867 -0.991474
v 0.620952 0.175867 -0.991474
v 0.720950 0.175867 -0.991474
v -0.779050 0.175867 -1.091474
v -0.679049 0.175867 -1.091474
v 0.620952 0.175867 -1.091474
v 0.720950 0.175867 -1.091474
v -0.679049 0.175867 -1.191474
v -0.079049 0.175867 -1.191474
v 0.020951 0.175867 -1.191474
v 0.620952 0.175867 -1.191474
v -0.679049 0.175867 -1.291474
v -0.079049 0.175867 -1.291474
v 0.020951 0.175867 -1.291474
v 0.620952 0.175867 -1.291474
v -0.779050 0.175867 -1.391474
v -0.679049 0.175867 -1.391474
v 0.620952 0.175867 -1.391474
v 0.720950 0.175867 -1.391474
v -0.779050 0.175867 -1.491474
v -0.379048 0.175867 -1.491474
v -0.079049 0.175867 -1.491474
v 0.020951 0.175867 -1.491474
v 0.320951 0.175867 -1.491474
v 0.720950 0.175867 -1.491474
v -0.379048 0.175867 -1.791474
v 0.320951 0.175867 -1.791474
v -0.779050 0.175867 -1.891474
v 0.720950 0.175867 -1.891474
v -0.879048 0.275867 1.208526
v -0.779050 0.275867 1.208526
v 0.720950 0.275867 1.208526
v 0.820951 0.275867 1.208526
v -0.879048 0.275867 1.108526
v -0.779050 0.275867 1.108526
v 0.720950 0.275867 1.108526
v 0.820951 0.275867 1.108526
v -0.879048 0.275867 0.608526
v -0.779050 0.275867 0.608526
v 0.720950 0.275867 0.608526
v 0.820951 0.275867 0.608526
v -0.879048 0.275867 0.508526
v -0.779050 0.275867 0.508526
v 0.720950 0.275867 0.508526
v 0.820951 0.275867 0.508526
v -0.879048 0.275867 -0.891474
v -0.779050 0.275867 -0.891474
v 0.720950 0.275867 -0.891474
v 0.820951 0.275867 -0.891474
v -0.879048 0.275867 -0.991474
v -0.779050 0.275867 -0.991474
v 0.720950 0.275867 -0.991474
v 0.820951 0.275867 -0.991474
v -0.879048 0.275867 -1.491474
v -0.779050 0.275867 -1.491474
v 0.720950 0.275867 -1.491474
v 0.820951 0.275867 -1.491474
v -0.879048 0.275867 -1.591474
v -0.779050 0.275867 -1.591474
v 0.720950 0.275867 -1.591474
v 0.820951 0.275867 -1.591474
v -0.879048 0.775867 0.408526
v -0.779050 0.775867 0.408526
v 0.720950 0.775867 0.408526
v 0.820951 0.775867 0.408526
v -0.879048 0.775867 0.308527
v -0.779050 0.775867 0.308527
v 0.720950 0.775867 0.308527
v 0.820951 0.775867 0.308527
v -0.879048 0.875867 0.808527
v -0.779050 0.875867 0.808527
v 0.720950 0.875867 0.808527
v 0.820951 0.875867 0.808527
v -0.879048 0.875867 0.708526
v -0.779050 0.875867 0.708526
v 0.720950 0.875867 0.708526
v 0.820951 0.875867 0.708526
v 0.620952 1.175867 0.608526
v 0.720950 1.175867 0.608526
v 0.620952 1.175867 0.508526
v 0.720950 1.175867 0.508526
v -0.579049 1.275867 0.808526
v 0.520951 1.275867 0.808526
v -0.779050 1.275867 0.708526
v -0.679049 1.275867 0.708526
v -0.579049 1.275867 0.708526
v 0.520951 1.275867 0.708526
v 0.620952 1.275867 0.708526
v 0.720950 1.275867 0.708526
v 0.620952 1.275867 0.608526
v 0.720950 1.275867 0.608526
v 0.620952 1.275867 0.508526
v 0.720950 1.275867 0.508526
v -0.779050 1.275867 0.308526
v -0.679049 1.275867 0.308526
v 0.620952 1.275867 0.308526
v 0.720950 1.275867 0.308526
v -0.779050 1.275867 -0.191474
v -0.679049 1.275867 -0.191474
v 0.620952 1.275867 -0.191474
v 0.720950 1.275867 -0.191474
v -0.779050 1.275867 -0.391474
v -0.679049 1.275867 -0.391474
v 0.620952 1.275867 -0.391474
v 0.720950 1.275867 -0.391474
v -0.779050 1.275867 -0.491474
v -0.679049 1.275867 -0.491474
v 0.620952 1.275867 -0.491474
v 0.720950 1.275867 -0.491474
v -0.779050 1.275867 -0.691474
v -0.679049 1.275867 -0.691474
v 0.620952 1.275867 -0.691474
v 0.720950 1.275867 -0.691474
v -0.779050 0.275867 0.208526
v -0.679049 0.275867 0.208526
v 0.620952 0.275867 0.208526
v 0.720950 0.275867 0.208526
v -0.779050 0.275867 0.108526
v -0.679049 0.275867 0.108526
v 0.620952 0.275867 0.108526
v 0.720950 0.275867 0.108526
v -0.779050 0.375867 1.408526
v 0.720950 0.375867 1.408526
v -0.779050 0.375867 1.308527
v 0.720950 0.375867 1.308527
v -0.779050 0.375867 -1.791474
v 0.720950 0.375867 -1.791474
v -0.779050 0.375867 -1.891474
v 0.720950 0.375867 -1.891474
v -0.879048 0.575867 1.208526
v -0.779050 0.575867 1.208526
v 0.720950 0.575867 1.208526
v 0.820951 0.575867 1.208526
v -0.879048 0.575867 0.508526
v -0.779050 0.575867 0.508526
v 0.720950 0.575867 0.508526
v 0.820951 0.575867 0.508526
v -0.879048 0.575867 -0.891474
v -0.779050 0.575867 -0.891474
v 0.720950 0.575867 -0.891474
v 0.820951 0.575867 -0.891474
v -0.779050 0.575867 -1.291474
v 0.720950 0.575867 -1.291474
v -0.779050 0.575867 -1.391474
v 0.720950 0.575867 -1.391474
v -0.879048 0.575867 -1.591474
v -0.779050 0.575867 -1.591474
v 0.720950 0.575867 -1.591474
v 0.820951 0.575867 -1.591474
v -0.779050 0.675867 1.308527
v 0.720950 0.675867 1.308527
v -0.479049 0.675867 1.208526
v 0.420951 0.675867 1.208526
v -0.779050 0.675867 0.808527
v -0.479049 0.675867 0.808527
v 0.420951 0.675867 0.808527
v 0.720950 0.675867 0.808527
v -0.479049 0.775867 1.208526
v 0.420951 0.775867 1.208526
v -0.579049 0.775867 0.808527
v -0.479049 0.775867 0.808527
v 0.420951 0.775867 0.808527
v 0.520951 0.775867 0.808527
v -0.579049 0.775867 0.708526
v 0.520951 0.775867 0.708526
v -0.779050 0.875867 0.708526
v -0.679049 0.875867 0.708526
v 0.620952 0.875867 0.708526
v 0.720950 0.875867 0.708526
v -0.779050 0.875867 0.408526
v -0.679049 0.875867 0.408526
v 0.620952 0.875867 0.408526
v 0.720950 0.875867 0.408526
v -0.879048 0.975867 0.408526
v -0.679049 0.975867 0.408526
v 0.620952 0.975867 0.408526
v 0.820951 0.975867 0.408526
v -0.879048 0.975867 0.308526
v -0.779050 0.975867 0.308526
v -0.679049 0.975867 0.308526
v 0.620952 0.975867 0.308526
v 0.720950 0.975867 0.308526
v 0.820951 0.975867 0.308526
v -0.779050 0.975867 -0.191474
v -0.679049 0.975867 -0.191474
v 0.620952 0.975867 -0.191474
v 0.720950 0.975867 -0.191474
v -0.779050 0.975867 -0.391474
v -0.679049 0.975867 -0.391474
v 0.620952 0.975867 -0.391474
v 0.720950 0.975867 -0.391474
v -0.779050 0.975867 -0.491474
v -0.679049 0.975867 -0.491474
v 0.620952 0.975867 -0.491474
v 0.720950 0.975867 -0.491474
v -0.779050 0.975867 -0.691474
v -0.679049 0.975867 -0.691474
v 0.620952 0.975867 -0.691474
v 0.720950 0.975867 -0.691474
v -0.879048 1.075867 0.808527
v -0.779050 1.075867 0.808527
v 0.720950 1.075867 0.808527
v 0.820951 1.075867 0.808527
v -0.879048 1.075867 0.708526
v -0.779050 1.075867 0.708526
v 0.720950 1.075867 0.708526
v 0.820951 1.075867 0.708526
v -0.779050 1.375867 0.808526
v -0.679049 1.375867 0.808526
v 0.620952 1.375867 0.808526
v 0.720950 1.375867 0.808526
v -0.779050 1.375867 0.708526
v -0.679049 1.375867 0.708526
v 0.620952 1.375867 0.708526
v 0.720950 1.375867 0.708526
v 0.620952 1.375867 0.308526
v 0.720950 1.375867 0.308526
v -0.679049 1.375867 0.208526
v 0.620952 1.375867 0.208526
v 0.720950 1.375867 0.208526
v -0.779050 1.375867 0.108526
v -0.679049 1.375867 0.108526
v 0.620952 1.375867 0.108526
v 0.720950 1.375867 0.108526
v -0.779050 1.375867 0.008526
v -0.679049 1.375867 0.008526
v 0.620952 1.375867 0.008526
v 0.720950 1.375867 0.008526
v -0.679049 1.475867 0.808526
v 0.620952 1.475867 0.808526
v -0.779050 1.475867 0.708526
v -0.679049 1.475867 0.708526
v 0.620952 1.475867 0.708526
v 0.720950 1.475867 0.708526
v -0.579049 1.475867 0.608526
v -0.279050 1.475867 0.608526
v 0.220950 1.475867 0.608526
v 0.520951 1.475867 0.608526
v -0.579049 1.475867 0.408526
v -0.279050 1.475867 0.408526
v 0.220950 1.475867 0.408526
v 0.520951 1.475867 0.408526
v 0.620952 1.475867 0.308526
v 0.720950 1.475867 0.308526
v -0.779050 1.475867 0.208526
v 0.620952 1.475867 0.208526
v -0.679049 1.475867 0.108526
v 0.620952 1.475867 0.108526
v -0.779050 1.475867 0.008526
v -0.679049 1.475867 0.008526
v 0.620952 1.475867 0.008526
v 0.720950 1.475867 0.008526
v -0.779050 1.475867 -0.791474
v 0.720950 1.475867 -0.791474
v -0.779050 1.475867 -0.891474
v 0.720950 1.475867 -0.891474
v -0.779050 1.475867 -1.091474
v 0.720950 1.475867 -1.091474
v -0.779050 1.475867 -1.191474
v 0.720950 1.475867 -1.191474
v -0.779050 1.475867 -1.391474
v 0.720950 1.475867 -1.391474
v -0.779050 1.475867 -1.491474
v 0.720950 1.475867 -1.491474
v -0.779050 1.475867 -1.691474
v 0.720950 1.475867 -1.691474
v -0.779050 1.475867 -1.791474
v 0.720950 1.475867 -1.791474
v -0.579049 1.575867 0.608526
v -0.279050 1.575867 0.608526
v 0.220950 1.575867 0.608526
v 0.520951 1.575867 0.608526
v -0.579049 1.575867 0.408526
v -0.279050 1.575867 0.408526
v 0.220950 1.575867 0.408526
v 0.520951 1.575867 0.408526
vn -1.0000 -0.0000 -0.0000
vn -1.0000 0.0001 -0.0000
vn 1.0000 -0.0000 -0.0000
vn -0.0000 -0.0000 1.0000
vn -0.0000 -0.0000 -1.0000
vn -0.0000 -1.0000 -0.0000
vn -0.0000 1.0000 -0.0000
vt 0.912109 0.500000
vt 0.943359 0.500000
vt 0.626953 0.500000
vt 0.978516 0.500000
vt 0.908203 0.500000
vt 0.970703 0.500000
vt 0.630859 0.500000
vt 0.638672 0.500000
vt 0.876953 0.500000
vt 0.697266 0.500000
vt 0.634766 0.500000
vt 0.701172 0.500000
vt 0.642578 0.500000
vt 0.916016 0.500000
s 1
usemtl palette
f 5/1/1 2/1/1 1/1/1
f 6/1/1 2/1/1 5/1/1
f 7/1/1 4/1/1 3/1/1
f 8/1/1 4/1/1 7/1/1
f 10/1/1 5/1/1 1/1/1
f 11/2/1 6/2/1 5/2/1
f 11/1/1 5/1/1 10/1/1
f 12/1/1 2/1/1 6/1/1
f 12/2/1 6/2/1 11/2/1
f 13/1/1 2/1/1 12/1/1
f 16/1/1 7/1/1 3/1/1
f 17/2/1 8/2/1 7/2/1
f 17/1/1 7/1/1 16/1/1
f 18/1/1 4/1/1 8/1/1
f 18/2/1 8/2/1 17/2/1
f 19/1/1 4/1/1 18/1/1
f 21/1/1 11/1/1 10/1/1
f 21/3/1 10/3/1 9/3/1
f 21/1/1 12/1/1 11/1/1
f 21/1/1 13/1/1 12/1/1
f 22/3/1 14/3/1 13/3/1
f 22/1/1 13/1/1 21/1/1
f 23/1/1 17/1/1 16/1/1
f 23/3/1 16/3/1 15/3/1
f 23/1/1 18/1/1 17/1/1
f 23/1/1 19/1/1 18/1/1
f 24/3/1 20/3/1 19/3/1
f 24/1/1 19/1/1 23/1/1
f 25/3/1 21/3/1 9/3/1
f 25/3/1 22/3/1 21/3/1
f 26/3/1 14/3/1 22/3/1
f 26/3/1 22/3/1 25/3/1
f 27/3/1 23/3/1 15/3/1
f 27/3/1 24/3/1 23/3/1
f 28/3/1 20/3/1 24/3/1
f 28/3/1 24/3/1 27/3/1
f 33/4/1 30/4/1 29/4/1
f 34/4/1 30/4/1 33/4/1
f 35/5/1 32/5/1 31/5/1
f 36/5/1 32/5/1 35/5/1
f 43/6/1 38/6/1 37/6/1
f 44/6/1 38/6/1 43/6/1
f 45/6/1 38/6/1 44/6/1
f 46/6/1 40/6/1 39/6/1
f 47/6/1 40/6/1 46/6/1
f 48/6/1 40/6/1 47/6/1
f 49/6/1 40/6/1 48/6/1
f 50/6/1 40/6/1 49/6/1
f 51/6/2 40/6/1 50/6/1
f 52/6/1 40/6/1 51/6/2
f 53/6/1 40/6/1 52/6/1
f 54/6/1 42/6/1 41/6/1
f 55/6/1 42/6/1 54/6/1
f 56/6/1 42/6/1 55/6/1
f 57/6/1 43/6/1 37/6/1
f 58/3/1 44/3/1 43/3/1
f 58/6/1 43/6/1 57/6/1
f 59/7/1 48/7/1 47/7/1
f 60/3/1 49/3/1 48/3/1
f 60/7/1 48/7/1 59/7/1
f 61/7/1 50/7/1 49/7/1
f 61/3/1 49/3/1 60/3/1
f 62/7/1 52/7/1 51/7/2
f 63/7/1 52/7/1 62/7/1
f 64/6/1 42/6/1 56/6/1
f 64/7/1 56/7/1 55/7/1
f 65/6/1 42/6/1 64/6/1
f 66/3/1 60/3/1 59/3/1
f 67/7/1 61/7/1 60/7/1
f 67/3/1 60/3/1 66/3/1
f 68/7/1 50/7/1 61/7/1
f 68/7/1 61/7/1 67/7/1
f 69/7/1 62/7/1 51/7/2
f 70/8/1 63/8/1 62/8/1
f 70/7/1 62/7/1 69/7/1
f 71/7/1 52/7/1 63/7/1
f 71/8/1 63/8/1 70/8/1
f 72/7/1 52/7/1 71/7/1
f 73/3/1 44/3/1 58/3/1
f 74/7/1 67/7/1 66/7/1
f 75/3/1 68/3/1 67/3/1
f 75/7/1 67/7/1 74/7/1
f 76/7/1 50/7/1 68/7/1
f 76/3/1 68/3/1 75/3/1
f 77/8/1 70/8/1 69/8/1
f 77/7/1 69/7/1 51/7/2
f 77/8/1 71/8/1 70/8/1
f 77/8/1 72/8/1 71/8/1
f 78/8/1 72/8/1 77/8/1
f 79/8/1 72/8/1 78/8/1
f 80/7/1 52/7/1 72/7/1
f 80/8/1 72/8/1 79/8/1
f 81/7/1 52/7/1 80/7/1
f 84/7/1 64/7/1 55/7/1
f 85/3/1 73/3/1 58/3/1
f 85/3/1 75/3/1 74/3/1
f 85/3/1 74/3/1 73/3/1
f 86/3/1 75/3/1 85/3/1
f 87/7/1 76/7/1 75/7/1
f 87/3/1 75/3/1 86/3/1
f 88/7/1 50/7/1 76/7/1
f 88/7/1 76/7/1 87/7/1
f 89/8/1 79/8/1 78/8/1
f 89/7/1 78/7/1 77/7/1
f 90/7/1 80/7/1 79/7/1
f 90/8/1 79/8/1 89/8/1
f 90/7/1 81/7/1 80/7/1
f 90/7/1 82/7/1 81/7/1
f 91/8/1 83/8/1 82/8/1
f 91/7/1 82/7/1 90/7/1
f 92/7/1 84/7/1 83/7/1
f 92/8/1 83/8/1 91/8/1
f 93/3/1 87/3/1 86/3/1
f 93/3/1 88/3/1 87/3/1
f 94/7/1 50/7/1 88/7/1
f 94/3/1 88/3/1 93/3/1
f 95/7/1 50/7/1 94/7/1
f 96/7/1 91/7/1 90/7/1
f 96/7/1 92/7/1 91/7/1
f 96/7/1 90/7/1 89/7/1
f 96/7/1 77/7/1 51/7/2
f 96/7/1 89/7/1 77/7/1
f 97/7/1 92/7/1 96/7/1
f 98/7/1 92/7/1 97/7/1
f 99/7/1 92/7/1 98/7/1
f 100/7/1 92/7/1 99/7/1
f 101/7/1 84/7/1 92/7/1
f 101/7/1 92/7/1 100/7/1
f 102/7/1 84/7/1 101/7/1
f 103/7/1 64/7/1 84/7/1
f 103/7/1 84/7/1 102/7/1
f 104/3/1 93/3/1 86/3/1
f 105/3/1 93/3/1 104/3/1
f 106/3/1 93/3/1 105/3/1
f 107/3/1 95/3/1 94/3/1
f 108/3/1 97/3/1 96/3/1
f 109/3/1 97/3/1 108/3/1
f 110/3/1 97/3/1 109/3/1
f 111/3/1 97/3/1 110/3/1
f 114/3/1 113/3/1 112/3/1
f 115/3/1 95/3/1 107/3/1
f 116/3/1 108/3/1 96/3/1
f 117/3/1 110/3/1 109/3/1
f 118/3/1 110/3/1 117/3/1
f 119/3/1 97/3/1 111/3/1
f 120/3/1 114/3/1 112/3/1
f 120/3/1 115/3/1 114/3/1
f 121/3/1 115/3/1 120/3/1
f 122/3/1 118/3/1 117/3/1
f 122/3/1 116/3/1 96/3/1
f 122/3/1 119/3/1 118/3/1
f 122/3/1 117/3/1 116/3/1
f 123/3/1 119/3/1 122/3/1
f 124/3/1 115/3/1 121/3/1
f 125/3/1 95/3/1 115/3/1
f 125/3/1 115/3/1 124/3/1
f 126/3/1 119/3/1 123/3/1
f 127/7/1 98/7/1 97/7/1
f 127/3/1 119/3/1 126/3/1
f 127/3/1 97/3/1 119/3/1
f 128/3/1 99/3/1 98/3/1
f 128/7/1 98/7/1 127/7/1
f 129/7/1 100/7/1 99/7/1
f 129/3/1 99/3/1 128/3/1
f 130/3/1 101/3/1 100/3/1
f 130/7/1 100/7/1 129/7/1
f 131/7/1 102/7/1 101/7/1
f 131/3/1 101/3/1 130/3/1
f 132/3/1 103/3/1 102/3/1
f 132/7/1 102/7/1 131/7/1
f 133/7/1 64/7/1 103/7/1
f 133/3/1 103/3/1 132/3/1
f 134/7/1 64/7/1 133/7/1
f 137/3/1 136/3/1 135/3/1
f 138/3/1 136/3/1 137/3/1
f 139/7/1 138/7/1 137/7/1
f 140/7/1 138/7/1 139/7/1
f 141/3/1 140/3/1 139/3/1
f 142/3/1 140/3/1 141/3/1
f 145/9/1 144/9/1 143/9/1
f 151/9/1 145/9/1 143/9/1
f 151/9/1 146/9/1 145/9/1
f 152/9/1 146/9/1 151/9/1
f 153/9/1 148/9/1 147/9/1
f 154/9/1 148/9/1 153/9/1
f 155/9/1 150/9/1 149/9/1
f 156/9/1 150/9/1 155/9/1
f 159/3/1 142/3/1 141/3/1
f 160/3/1 142/3/1 159/3/1
f 162/3/1 158/3/1 157/3/1
f 163/3/1 158/3/1 162/3/1
f 164/3/1 161/3/1 160/3/1
f 165/3/1 161/3/1 164/3/1
f 168/10/1 167/10/1 166/10/1
f 169/10/1 167/10/1 168/10/1
f 172/11/1 171/11/1 170/11/1
f 173/11/1 171/11/1 172/11/1
f 176/3/1 175/3/1 174/3/1
f 177/3/1 175/3/1 176/3/1
f 182/1/1 179/1/1 178/1/1
f 183/1/1 179/1/1 182/1/1
f 184/1/1 179/1/1 183/1/1
f 185/1/1 179/1/1 184/1/1
f 186/1/1 181/1/1 180/1/1
f 187/1/1 181/1/1 186/1/1
f 188/1/1 181/1/1 187/1/1
f 189/1/1 181/1/1 188/1/1
f 190/1/3 191/1/3 194/1/3
f 194/1/3 191/1/3 195/1/3
f 195/1/3 191/1/3 196/1/3
f 196/1/3 191/1/3 197/1/3
f 192/1/3 193/1/3 198/1/3
f 198/1/3 193/1/3 199/1/3
f 199/1/3 193/1/3 200/1/3
f 200/1/3 193/1/3 201/1/3
f 202/3/3 203/3/3 204/3/3
f 204/3/3 203/3/3 205/3/3
f 206/11/3 207/11/3 208/11/3
f 208/11/3 207/11/3 209/11/3
f 210/8/3 211/8/3 212/8/3
f 212/8/3 211/8/3 213/8/3
f 214/3/3 215/3/3 216/3/3
f 216/3/3 215/3/3 217/3/3
f 216/7/3 217/7/3 218/7/3
f 218/7/3 217/7/3 219/7/3
f 218/3/3 219/3/3 220/3/3
f 220/3/3 219/3/3 221/3/3
f 222/9/3 223/9/3 224/9/3
f 222/9/3 224/9/3 230/9/3
f 224/9/3 225/9/3 230/9/3
f 230/9/3 225/9/3 231/9/3
f 222/9/3 230/9/3 232/9/3
f 232/9/3 230/9/3 233/9/3
f 231/9/3 225/9/3 234/9/3
f 234/9/3 225/9/3 235/9/3
f 226/9/3 227/9/3 236/9/3
f 236/9/3 227/9/3 237/9/3
f 228/9/3 229/9/3 238/9/3
f 238/9/3 229/9/3 239/9/3
f 220/3/3 221/3/3 243/3/3
f 243/3/3 221/3/3 244/3/3
f 240/3/3 241/3/3 246/3/3
f 246/3/3 241/3/3 247/3/3
f 242/3/3 243/3/3 248/3/3
f 248/3/3 243/3/3 249/3/3
f 244/3/3 245/3/3 250/3/3
f 250/3/3 245/3/3 251/3/3
f 252/6/3 253/6/3 258/6/3
f 258/6/3 253/6/3 259/6/3
f 259/6/3 253/6/3 260/6/3
f 254/6/3 255/6/3 261/6/3
f 261/6/3 255/6/3 262/6/3
f 262/6/3 255/6/3 263/6/3
f 263/6/3 255/6/3 264/6/3
f 264/6/3 255/6/3 265/6/3
f 265/6/3 255/6/3 266/6/3
f 266/6/3 255/6/3 267/6/3
f 267/6/3 255/6/3 268/6/3
f 256/6/3 257/6/3 269/6/3
f 269/6/3 257/6/3 270/6/3
f 270/6/3 257/6/3 271/6/3
f 252/6/3 258/6/3 272/6/3
f 258/3/3 259/3/3 273/3/3
f 272/6/3 258/6/3 273/6/3
f 262/7/3 263/7/3 274/7/3
f 263/3/3 264/3/3 275/3/3
f 274/7/3 263/7/3 275/7/3
f 264/7/3 265/7/3 276/7/3
f 275/3/3 264/3/3 276/3/3
f 266/7/3 267/7/3 277/7/3
f 277/7/3 267/7/3 278/7/3
f 271/6/3 257/6/3 279/6/3
f 270/7/3 271/7/3 279/7/3
f 279/6/3 257/6/3 280/6/3
f 274/3/3 275/3/3 281/3/3
f 275/7/3 276/7/3 282/7/3
f 281/3/3 275/3/3 282/3/3
f 276/7/3 265/7/3 283/7/3
f 282/7/3 276/7/3 283/7/3
f 266/7/3 277/7/3 284/7/3
f 277/8/3 278/8/3 285/8/3
f 284/7/3 277/7/3 285/7/3
f 278/7/3 267/7/3 286/7/3
f 285/8/3 278/8/3 286/8/3
f 286/7/3 267/7/3 287/7/3
f 273/3/3 259/3/3 288/3/3
f 281/7/3 282/7/3 289/7/3
f 282/3/3 283/3/3 290/3/3
f 289/7/3 282/7/3 290/7/3
f 283/7/3 265/7/3 291/7/3
f 290/3/3 283/3/3 291/3/3
f 284/8/3 285/8/3 292/8/3
f 266/7/3 284/7/3 292/7/3
f 285/8/3 286/8/3 292/8/3
f 286/8/3 287/8/3 292/8/3
f 292/8/3 287/8/3 293/8/3
f 293/8/3 287/8/3 294/8/3
f 287/7/3 267/7/3 295/7/3
f 294/8/3 287/8/3 295/8/3
f 295/7/3 267/7/3 296/7/3
f 270/7/3 279/7/3 299/7/3
f 273/3/3 288/3/3 300/3/3
f 289/3/3 290/3/3 300/3/3
f 288/3/3 289/3/3 300/3/3
f 300/3/3 290/3/3 301/3/3
f 290/7/3 291/7/3 302/7/3
f 301/3/3 290/3/3 302/3/3
f 291/7/3 265/7/3 303/7/3
f 302/7/3 291/7/3 303/7/3
f 293/8/3 294/8/3 304/8/3
f 292/7/3 293/7/3 304/7/3
f 294/7/3 295/7/3 305/7/3
f 304/8/3 294/8/3 305/8/3
f 295/7/3 296/7/3 305/7/3
f 296/7/3 297/7/3 305/7/3
f 297/8/3 298/8/3 306/8/3
f 305/7/3 297/7/3 306/7/3
f 298/7/3 299/7/3 307/7/3
f 306/8/3 298/8/3 307/8/3
f 301/3/3 302/3/3 308/3/3
f 302/3/3 303/3/3 308/3/3
f 303/7/3 265/7/3 309/7/3
f 308/3/3 303/3/3 309/3/3
f 309/7/3 265/7/3 310/7/3
f 305/7/3 306/7/3 311/7/3
f 306/7/3 307/7/3 311/7/3
f 304/7/3 305/7/3 311/7/3
f 266/7/3 292/7/3 311/7/3
f 292/7/3 304/7/3 311/7/3
f 311/7/3 307/7/3 312/7/3
f 312/7/3 307/7/3 313/7/3
f 313/7/3 307/7/3 314/7/3
f 314/7/3 307/7/3 315/7/3
f 307/7/3 299/7/3 316/7/3
f 315/7/3 307/7/3 316/7/3
f 316/7/3 299/7/3 317/7/3
f 299/7/3 279/7/3 318/7/3
f 317/7/3 299/7/3 318/7/3
f 301/3/3 308/3/3 319/3/3
f 319/3/3 308/3/3 320/3/3
f 320/3/3 308/3/3 321/3/3
f 309/3/3 310/3/3 322/3/3
f 311/3/3 312/3/3 323/3/3
f 323/3/3 312/3/3 324/3/3
f 324/3/3 312/3/3 325/3/3
f 325/3/3 312/3/3 326/3/3
f 327/3/3 328/3/3 331/3/3
f 329/9/3 330/9/3 332/9/3
f 332/9/3 330/9/3 333/9/3
f 322/3/3 310/3/3 334/3/3
f 311/3/3 323/3/3 335/3/3
f 324/3/3 325/3/3 336/3/3
f 336/3/3 325/3/3 337/3/3
f 326/3/3 312/3/3 338/3/3
f 332/3/3 333/3/3 339/3/3
f 333/3/3 334/3/3 339/3/3
f 327/3/3 331/3/3 339/3/3
f 331/3/3 332/3/3 339/3/3
f 339/3/3 334/3/3 340/3/3
f 334/3/3 310/3/3 341/3/3
f 340/3/3 334/3/3 341/3/3
f 341/3/3 310/3/3 342/3/3
f 336/3/3 337/3/3 343/3/3
f 311/3/3 335/3/3 343/3/3
f 337/3/3 338/3/3 343/3/3
f 335/3/3 336/3/3 343/3/3
f 343/3/3 338/3/3 344/3/3
f 340/3/3 341/3/3 345/3/3
f 345/3/3 341/3/3 346/3/3
f 344/3/3 338/3/3 347/3/3
f 312/7/3 313/7/3 348/7/3
f 347/3/3 338/3/3 348/3/3
f 338/3/3 312/3/3 348/3/3
f 313/3/3 314/3/3 349/3/3
f 348/7/3 313/7/3 349/7/3
f 314/7/3 315/7/3 350/7/3
f 349/3/3 314/3/3 350/3/3
f 315/3/3 316/3/3 351/3/3
f 350/7/3 315/7/3 351/7/3
f 316/7/3 317/7/3 352/7/3
f 351/3/3 316/3/3 352/3/3
f 317/3/3 318/3/3 353/3/3
f 352/7/3 317/7/3 353/7/3
f 318/7/3 279/7/3 354/7/3
f 353/3/3 318/3/3 354/3/3
f 354/7/3 279/7/3 355/7/3
f 356/1/3 357/1/3 360/1/3
f 360/1/3 357/1/3 361/1/3
f 358/1/3 359/1/3 362/1/3
f 362/1/3 359/1/3 363/1/3
f 356/1/3 360/1/3 365/1/3
f 360/2/3 361/2/3 366/2/3
f 365/1/3 360/1/3 366/1/3
f 361/1/3 357/1/3 367/1/3
f 366/2/3 361/2/3 367/2/3
f 367/1/3 357/1/3 368/1/3
f 358/1/3 362/1/3 371/1/3
f 362/2/3 363/2/3 372/2/3
f 371/1/3 362/1/3 372/1/3
f 363/1/3 359/1/3 373/1/3
f 372/2/3 363/2/3 373/2/3
f 373/1/3 359/1/3 374/1/3
f 365/1/3 366/1/3 376/1/3
f 364/3/3 365/3/3 376/3/3
f 366/1/3 367/1/3 376/1/3
f 367/1/3 368/1/3 376/1/3
f 368/3/3 369/3/3 377/3/3
f 376/1/3 368/1/3 377/1/3
f 371/1/3 372/1/3 378/1/3
f 370/3/3 371/3/3 378/3/3
f 372/1/3 373/1/3 378/1/3
f 373/1/3 374/1/3 378/1/3
f 374/3/3 375/3/3 379/3/3
f 378/1/3 374/1/3 379/1/3
f 364/3/3 376/3/3 380/3/3
f 376/3/3 377/3/3 380/3/3
f 377/3/3 369/3/3 381/3/3
f 380/3/3 377/3/3 381/3/3
f 370/3/3 378/3/3 382/3/3
f 378/3/3 379/3/3 382/3/3
f 379/3/3 375/3/3 383/3/3
f 382/3/3 379/3/3 383/3/3
f 384/4/3 385/4/3 388/4/3
f 388/4/3 385/4/3 389/4/3
f 386/5/3 387/5/3 390/5/3
f 390/5/3 387/5/3 391/5/3
f 394/6/4 393/6/4 392/6/4
f 395/6/4 393/6/4 394/6/4
f 398/3/4 397/3/4 396/3/4
f 399/3/4 397/3/4 398/3/4
f 400/3/4 398/3/4 396/3/4
f 400/7/4 399/7/4 398/7/4
f 401/3/4 397/3/4 399/3/4
f 401/7/4 399/7/4 400/7/4
f 402/3/4 400/3/4 396/3/4
f 402/3/4 401/3/4 400/3/4
f 403/3/4 397/3/4 401/3/4
f 403/3/4 401/3/4 402/3/4
f 404/3/4 402/3/4 396/3/4
f 404/7/4 403/7/4 402/7/4
f 405/3/4 397/3/4 403/3/4
f 405/7/4 403/7/4 404/7/4
f 406/3/4 404/3/4 396/3/4
f 406/3/4 405/3/4 404/3/4
f 407/3/4 397/3/4 405/3/4
f 407/3/4 405/3/4 406/3/4
f 410/3/4 409/3/4 408/3/4
f 411/3/4 409/3/4 410/3/4
f 414/11/4 413/11/4 412/11/4
f 415/11/4 413/11/4 414/11/4
f 418/3/4 417/3/4 416/3/4
f 419/3/4 417/3/4 418/3/4
f 422/1/4 421/1/4 420/1/4
f 423/1/4 421/1/4 422/1/4
f 424/1/4 421/1/4 423/1/4
f 428/1/4 426/1/4 425/1/4
f 428/1/4 427/1/4 426/1/4
f 429/1/4 427/1/4 428/1/4
f 433/5/4 431/5/4 430/5/4
f 434/5/4 431/5/4 433/5/4
f 436/3/4 433/3/4 432/3/4
f 436/3/4 435/3/4 434/3/4
f 436/3/4 434/3/4 433/3/4
f 438/3/4 436/3/4 432/3/4
f 438/3/4 437/3/4 436/3/4
f 439/3/4 437/3/4 438/3/4
f 440/3/4 438/3/4 432/3/4
f 441/3/4 438/3/4 440/3/4
f 444/3/4 443/3/4 442/3/4
f 445/3/4 437/3/4 439/3/4
f 446/3/4 437/3/4 445/3/4
f 446/3/4 445/3/4 444/3/4
f 447/3/4 437/3/4 446/3/4
f 448/3/4 444/3/4 442/3/4
f 448/3/4 446/3/4 444/3/4
f 449/3/4 446/3/4 448/3/4
f 450/3/4 446/3/4 449/3/4
f 451/3/4 446/3/4 450/3/4
f 452/5/4 450/5/4 449/5/4
f 453/5/4 450/5/4 452/5/4
f 456/3/4 455/3/4 454/3/4
f 457/3/4 455/3/4 456/3/4
f 460/9/4 459/9/4 458/9/4
f 461/9/4 459/9/4 460/9/4
f 464/3/4 463/3/4 462/3/4
f 465/3/4 463/3/4 464/3/4
f 468/10/4 467/10/4 466/10/4
f 469/10/4 467/10/4 468/10/4
f 470/12/4 469/12/4 468/12/4
f 471/12/4 469/12/4 470/12/4
f 472/8/4 471/8/4 470/8/4
f 473/8/4 471/8/4 472/8/4
f 476/9/4 475/9/4 474/9/4
f 477/9/4 475/9/4 476/9/4
f 480/4/4 479/4/4 478/4/4
f 481/4/4 479/4/4 480/4/4
f 482/4/4 479/4/4 481/4/4
f 483/4/4 479/4/4 482/4/4
f 487/4/4 485/4/4 484/4/4
f 488/4/4 487/4/4 486/4/4
f 489/4/4 485/4/4 487/4/4
f 489/4/4 487/4/4 488/4/4
f 492/3/4 491/3/4 490/3/4
f 493/3/4 491/3/4 492/3/4
f 496/3/4 495/3/4 494/3/4
f 497/3/4 495/3/4 496/3/4
f 501/7/4 499/7/4 498/7/4
f 502/7/4 499/7/4 501/7/4
f 503/7/4 499/7/4 502/7/4
f 504/3/4 500/3/4 499/3/4
f 504/7/4 499/7/4 503/7/4
f 505/3/4 500/3/4 504/3/4
f 511/3/4 506/3/4 505/3/4
f 512/3/4 506/3/4 511/3/4
f 513/7/4 510/7/4 509/7/4
f 513/7/4 508/7/4 507/7/4
f 513/7/4 509/7/4 508/7/4
f 514/3/4 511/3/4 510/3/4
f 514/7/4 510/7/4 513/7/4
f 515/3/4 511/3/4 514/3/4
f 518/3/4 517/3/4 516/3/4
f 519/3/4 517/3/4 518/3/4
f 522/3/4 521/3/4 520/3/4
f 523/3/4 521/3/4 522/3/4
f 526/3/4 525/3/4 524/3/4
f 527/3/4 525/3/4 526/3/4
f 530/3/4 529/3/4 528/3/4
f 531/3/4 529/3/4 530/3/4
f 534/3/4 533/3/4 532/3/4
f 535/3/4 533/3/4 534/3/4
f 538/3/4 537/3/4 536/3/4
f 539/3/4 537/3/4 538/3/4
f 542/3/4 541/3/4 540/3/4
f 543/3/4 541/3/4 542/3/4
f 546/3/4 545/3/4 544/3/4
f 547/3/4 545/3/4 546/3/4
f 550/1/4 549/1/4 548/1/4
f 551/1/4 549/1/4 550/1/4
f 552/1/4 549/1/4 551/1/4
f 556/1/4 554/1/4 553/1/4
f 556/1/4 555/1/4 554/1/4
f 557/1/4 555/1/4 556/1/4
f 558/5/5 559/5/5 560/5/5
f 560/5/5 559/5/5 561/5/5
f 560/3/5 561/3/5 563/3/5
f 561/3/5 562/3/5 563/3/5
f 563/3/5 562/3/5 564/3/5
f 565/3/5 566/3/5 567/3/5
f 567/3/5 566/3/5 568/3/5
f 568/3/5 566/3/5 569/3/5
f 567/5/5 568/5/5 570/5/5
f 570/5/5 568/5/5 571/5/5
f 572/1/5 573/1/5 574/1/5
f 574/1/5 573/1/5 575/1/5
f 575/1/5 573/1/5 576/1/5
f 577/1/5 578/1/5 580/1/5
f 578/1/5 579/1/5 580/1/5
f 580/1/5 579/1/5 581/1/5
f 582/3/5 583/3/5 584/3/5
f 584/3/5 583/3/5 585/3/5
f 585/3/5 583/3/5 586/3/5
f 586/3/5 583/3/5 587/3/5
f 588/9/5 589/9/5 594/9/5
f 594/9/5 589/9/5 595/9/5
f 592/3/5 593/3/5 596/3/5
f 590/3/5 591/3/5 596/3/5
f 591/3/5 592/3/5 596/3/5
f 596/3/5 593/3/5 597/3/5
f 598/10/5 599/10/5 600/10/5
f 600/10/5 599/10/5 601/10/5
f 600/12/5 601/12/5 602/12/5
f 602/12/5 601/12/5 603/12/5
f 602/8/5 603/8/5 604/8/5
f 604/8/5 603/8/5 605/8/5
f 606/4/5 607/4/5 608/4/5
f 608/4/5 607/4/5 609/4/5
f 610/3/5 611/3/5 614/3/5
f 614/3/5 611/3/5 615/3/5
f 612/4/5 613/4/5 616/4/5
f 616/4/5 613/4/5 617/4/5
f 618/7/5 619/7/5 621/7/5
f 621/7/5 619/7/5 622/7/5
f 622/7/5 619/7/5 623/7/5
f 619/3/5 620/3/5 624/3/5
f 623/7/5 619/7/5 624/7/5
f 624/3/5 620/3/5 625/3/5
f 625/3/5 620/3/5 630/3/5
f 630/3/5 620/3/5 631/3/5
f 628/7/5 629/7/5 632/7/5
f 626/7/5 627/7/5 632/7/5
f 627/7/5 628/7/5 632/7/5
f 629/3/5 630/3/5 633/3/5
f 632/7/5 629/7/5 633/7/5
f 633/3/5 630/3/5 634/3/5
f 635/3/5 636/3/5 637/3/5
f 637/3/5 636/3/5 638/3/5
f 639/3/5 640/3/5 641/3/5
f 641/3/5 640/3/5 642/3/5
f 643/3/5 644/3/5 645/3/5
f 645/3/5 644/3/5 646/3/5
f 647/3/5 648/3/5 649/3/5
f 649/3/5 648/3/5 650/3/5
f 651/1/5 652/1/5 653/1/5
f 653/1/5 652/1/5 654/1/5
f 654/1/5 652/1/5 655/1/5
f 656/1/5 657/1/5 659/1/5
f 657/1/5 658/1/5 659/1/5
f 659/1/5 658/1/5 660/1/5
f 661/3/5 662/3/5 663/3/5
f 663/3/5 662/3/5 664/3/5
f 665/3/5 666/3/5 667/3/5
f 667/3/5 666/3/5 668/3/5
f 669/7/5 670/7/5 671/7/5
f 671/7/5 670/7/5 672/7/5
f 669/7/5 671/7/5 673/7/5
f 671/3/5 672/3/5 674/3/5
f 673/7/5 671/7/5 674/7/5
f 674/3/5 672/3/5 675/3/5
f 673/13/5 674/13/5 676/13/5
f 674/13/5 675/13/5 676/13/5
f 676/13/5 675/13/5 677/13/5
f 673/13/5 676/13/5 678/13/5
f 676/7/5 677/7/5 678/7/5
f 677/13/5 675/13/5 679/13/5
f 678/7/5 677/7/5 679/7/5
f 669/7/5 673/7/5 680/7/5
f 673/13/5 678/13/5 680/13/5
f 678/13/5 679/13/5 680/13/5
f 680/13/5 679/13/5 681/13/5
f 679/13/5 675/13/5 682/13/5
f 681/13/5 679/13/5 682/13/5
f 675/3/5 672/3/5 682/3/5
f 680/7/5 681/7/5 683/7/5
f 669/7/5 680/7/5 683/7/5
f 681/3/5 682/3/5 684/3/5
f 683/7/5 681/7/5 684/7/5
f 682/3/5 672/3/5 685/3/5
f 684/3/5 682/3/5 685/3/5
f 683/13/5 684/13/5 686/13/5
f 684/13/5 685/13/5 686/13/5
f 686/13/5 685/13/5 687/13/5
f 683/13/5 686/13/5 688/13/5
f 686/7/5 687/7/5 688/7/5
f 687/13/5 685/13/5 689/13/5
f 688/7/5 687/7/5 689/7/5
f 669/7/5 683/7/5 690/7/5
f 683/13/5 688/13/5 690/13/5
f 688/13/5 689/13/5 690/13/5
f 690/13/5 689/13/5 691/13/5
f 685/3/5 672/3/5 692/3/5
f 691/13/5 689/13/5 692/13/5
f 689/13/5 685/13/5 692/13/5
f 690/7/5 691/7/5 693/7/5
f 691/3/5 692/3/5 693/3/5
f 672/7/5 670/7/5 694/7/5
f 693/3/5 692/3/5 694/3/5
f 692/3/5 672/3/5 694/3/5
f 690/7/5 693/7/5 695/7/5
f 669/7/5 690/7/5 695/7/5
f 693/7/5 694/7/5 695/7/5
f 694/7/5 670/7/5 696/7/5
f 695/7/5 694/7/5 696/7/5
f 697/6/5 698/6/5 699/6/5
f 699/6/5 698/6/5 700/6/5
f 705/1/6 702/1/6 701/1/6
f 706/1/6 702/1/6 705/1/6
f 707/1/6 704/1/6 703/1/6
f 708/1/6 704/1/6 707/1/6
f 713/1/6 710/1/6 709/1/6
f 714/1/6 710/1/6 713/1/6
f 715/1/6 712/1/6 711/1/6
f 716/1/6 712/1/6 715/1/6
f 719/6/6 718/6/6 717/6/6
f 720/6/6 718/6/6 719/6/6
f 721/6/6 719/6/6 717/6/6
f 722/14/6 720/14/6 719/14/6
f 722/6/6 719/6/6 721/6/6
f 723/6/6 718/6/6 720/6/6
f 723/14/6 720/14/6 722/14/6
f 724/6/6 718/6/6 723/6/6
f 725/6/6 721/6/6 717/6/6
f 726/14/6 722/14/6 721/14/6
f 726/6/6 721/6/6 725/6/6
f 726/14/6 723/14/6 722/14/6
f 726/14/6 724/14/6 723/14/6
f 727/14/6 724/14/6 726/14/6
f 728/14/6 724/14/6 727/14/6
f 729/6/6 718/6/6 724/6/6
f 729/14/6 724/14/6 728/14/6
f 730/6/6 718/6/6 729/6/6
f 731/6/6 726/6/6 725/6/6
f 731/6/6 727/6/6 726/6/6
f 732/6/6 727/6/6 731/6/6
f 733/14/6 728/14/6 727/14/6
f 733/6/6 727/6/6 732/6/6
f 734/14/6 728/14/6 733/14/6
f 735/14/6 728/14/6 734/14/6
f 736/6/6 730/6/6 729/6/6
f 736/14/6 728/14/6 735/14/6
f 736/6/6 729/6/6 728/6/6
f 737/6/6 730/6/6 736/6/6
f 738/6/6 730/6/6 737/6/6
f 739/14/6 732/14/6 731/14/6
f 739/6/6 734/6/6 733/6/6
f 739/6/6 733/6/6 732/6/6
f 740/14/6 735/14/6 734/14/6
f 740/6/6 734/6/6 739/6/6
f 741/6/6 737/6/6 736/6/6
f 741/14/6 735/14/6 740/14/6
f 741/6/6 736/6/6 735/6/6
f 742/14/6 738/14/6 737/14/6
f 742/6/6 737/6/6 741/6/6
f 743/14/6 739/14/6 731/14/6
f 743/14/6 742/14/6 741/14/6
f 743/14/6 741/14/6 740/14/6
f 743/14/6 740/14/6 739/14/6
f 744/14/6 742/14/6 743/14/6
f 745/14/6 742/14/6 744/14/6
f 746/14/6 738/14/6 742/14/6
f 746/14/6 742/14/6 745/14/6
f 747/14/6 743/14/6 731/14/6
f 748/6/6 744/6/6 743/6/6
f 748/14/6 743/14/6 747/14/6
f 749/6/6 746/6/6 745/6/6
f 750/6/6 746/6/6 749/6/6
f 751/14/6 738/14/6 746/14/6
f 751/6/6 746/6/6 750/6/6
f 752/14/6 738/14/6 751/14/6
f 753/6/6 748/6/6 747/6/6
f 754/6/6 744/6/6 748/6/6
f 754/6/6 748/6/6 753/6/6
f 755/6/6 744/6/6 754/6/6
f 756/6/6 752/6/6 751/6/6
f 756/6/6 751/6/6 750/6/6
f 757/14/6 750/14/6 749/14/6
f 757/6/6 749/6/6 745/6/6
f 758/14/6 750/14/6 757/14/6
f 759/6/6 754/6/6 753/6/6
f 759/14/6 755/14/6 754/14/6
f 760/6/6 744/6/6 755/6/6
f 760/14/6 755/14/6 759/14/6
f 761/14/6 750/14/6 758/14/6
f 761/6/6 758/6/6 757/6/6
f 762/6/6 756/6/6 750/6/6
f 762/14/6 750/14/6 761/14/6
f 763/6/6 744/6/6 760/6/6
f 763/6/6 760/6/6 759/6/6
f 764/14/6 745/14/6 744/14/6
f 764/6/6 744/6/6 763/6/6
f 765/6/6 761/6/6 757/6/6
f 765/14/6 745/14/6 764/14/6
f 765/6/6 757/6/6 745/6/6
f 765/6/6 762/6/6 761/6/6
f 766/6/6 762/6/6 765/6/6
f 767/14/6 764/14/6 763/14/6
f 767/14/6 766/14/6 765/14/6
f 767/14/6 765/14/6 764/14/6
f 768/14/6 766/14/6 767/14/6
f 769/6/6 762/6/6 766/6/6
f 770/6/6 756/6/6 762/6/6
f 770/6/6 762/6/6 769/6/6
f 771/14/6 766/14/6 768/14/6
f 772/6/6 769/6/6 766/6/6
f 772/14/6 766/14/6 771/14/6
f 773/6/6 772/6/6 771/6/6
f 773/14/6 771/14/6 768/14/6
f 774/6/6 769/6/6 772/6/6
f 774/6/6 772/6/6 773/6/6
f 775/6/6 763/6/6 759/6/6
f 775/14/6 767/14/6 763/14/6
f 776/6/6 768/6/6 767/6/6
f 776/14/6 767/14/6 775/14/6
f 777/14/6 773/14/6 768/14/6
f 777/14/6 774/14/6 773/14/6
f 778/6/6 769/6/6 774/6/6
f 778/14/6 774/14/6 777/14/6
f 779/14/6 770/14/6 769/14/6
f 779/6/6 769/6/6 778/6/6
f 780/6/6 756/6/6 770/6/6
f 780/14/6 770/14/6 779/14/6
f 781/6/6 759/6/6 753/6/6
f 781/6/6 775/6/6 759/6/6
f 781/6/6 776/6/6 775/6/6
f 782/6/6 776/6/6 781/6/6
f 783/14/6 777/14/6 768/14/6
f 783/6/6 779/6/6 778/6/6
f 783/6/6 778/6/6 777/6/6
f 783/6/6 780/6/6 779/6/6
f 784/6/6 780/6/6 783/6/6
f 785/6/6 776/6/6 782/6/6
f 786/6/6 768/6/6 776/6/6
f 786/6/6 776/6/6 785/6/6
f 786/14/6 784/14/6 783/14/6
f 786/14/6 783/14/6 768/14/6
f 787/14/6 786/14/6 785/14/6
f 788/14/6 784/14/6 786/14/6
f 788/14/6 786/14/6 787/14/6
f 789/14/6 784/14/6 788/14/6
f 790/6/6 780/6/6 784/6/6
f 790/14/6 784/14/6 789/14/6
f 791/14/6 789/14/6 788/14/6
f 791/6/6 790/6/6 789/6/6
f 792/6/6 780/6/6 790/6/6
f 792/6/6 790/6/6 791/6/6
f 793/6/6 780/6/6 792/6/6
f 794/6/6 756/6/6 780/6/6
f 794/6/6 780/6/6 793/6/6
f 795/14/6 791/14/6 788/14/6
f 795/14/6 792/14/6 791/14/6
f 796/6/6 793/6/6 792/6/6
f 796/14/6 792/14/6 795/14/6
f 797/6/6 756/6/6 794/6/6
f 797/14/6 794/14/6 793/14/6
f 798/6/6 756/6/6 797/6/6
f 799/14/6 782/14/6 781/14/6
f 799/6/6 781/6/6 753/6/6
f 800/6/6 785/6/6 782/6/6
f 800/14/6 782/14/6 799/14/6
f 801/14/6 787/14/6 785/14/6
f 801/6/6 785/6/6 800/6/6
f 802/6/6 788/6/6 787/6/6
f 802/14/6 787/14/6 801/14/6
f 803/6/6 799/6/6 753/6/6
f 803/6/6 800/6/6 799/6/6
f 803/6/6 801/6/6 800/6/6
f 803/6/6 802/6/6 801/6/6
f 804/6/6 793/6/6 796/6/6
f 804/14/6 798/14/6 797/14/6
f 804/6/6 796/6/6 795/6/6
f 804/14/6 797/14/6 793/14/6
f 805/6/6 756/6/6 798/6/6
f 805/14/6 798/14/6 804/14/6
f 806/6/6 756/6/6 805/6/6
f 807/6/6 802/6/6 803/6/6
f 808/6/6 802/6/6 807/6/6
f 809/6/6 806/6/6 805/6/6
f 809/6/6 805/6/6 804/6/6
f 810/6/6 806/6/6 809/6/6
f 811/6/6 802/6/6 808/6/6
f 811/14/6 808/14/6 807/14/6
f 812/6/6 788/6/6 802/6/6
f 812/6/6 802/6/6 811/6/6
f 812/14/6 795/14/6 788/14/6
f 813/6/6 804/6/6 795/6/6
f 813/14/6 795/14/6 812/14/6
f 813/6/6 809/6/6 804/6/6
f 814/14/6 810/14/6 809/14/6
f 814/6/6 809/6/6 813/6/6
f 815/14/6 811/14/6 807/14/6
f 815/14/6 814/14/6 813/14/6
f 815/14/6 812/14/6 811/14/6
f 815/14/6 813/14/6 812/14/6
f 816/14/6 814/14/6 815/14/6
f 817/14/6 814/14/6 816/14/6
f 818/14/6 810/14/6 814/14/6
f 818/14/6 814/14/6 817/14/6
f 819/14/6 815/14/6 807/14/6
f 820/6/6 816/6/6 815/6/6
f 820/14/6 815/14/6 819/14/6
f 821/6/6 818/6/6 817/6/6
f 821/14/6 810/14/6 818/14/6
f 822/14/6 810/14/6 821/14/6
f 823/6/6 820/6/6 819/6/6
f 824/6/6 816/6/6 820/6/6
f 824/6/6 820/6/6 823/6/6
f 825/14/6 817/14/6 816/14/6
f 825/6/6 816/6/6 824/6/6
f 826/6/6 822/6/6 821/6/6
f 826/14/6 817/14/6 825/14/6
f 826/6/6 821/6/6 817/6/6
f 827/6/6 822/6/6 826/6/6
f 828/6/6 822/6/6 827/6/6
f 829/6/6 824/6/6 823/6/6
f 829/14/6 827/14/6 826/14/6
f 829/14/6 825/14/6 824/14/6
f 829/14/6 826/14/6 825/14/6
f 830/6/6 828/6/6 827/6/6
f 830/14/6 827/14/6 829/14/6
f 831/6/6 829/6/6 823/6/6
f 831/6/6 830/6/6 829/6/6
f 832/6/6 828/6/6 830/6/6
f 832/6/6 830/6/6 831/6/6
f 837/3/6 834/3/6 833/3/6
f 838/3/6 834/3/6 837/3/6
f 839/3/6 836/3/6 835/3/6
f 840/3/6 836/3/6 839/3/6
f 845/3/6 842/3/6 841/3/6
f 846/3/6 842/3/6 845/3/6
f 847/3/6 844/3/6 843/3/6
f 848/3/6 844/3/6 847/3/6
f 853/3/6 850/3/6 849/3/6
f 854/3/6 850/3/6 853/3/6
f 855/3/6 852/3/6 851/3/6
f 856/3/6 852/3/6 855/3/6
f 861/3/6 858/3/6 857/3/6
f 862/3/6 858/3/6 861/3/6
f 863/3/6 860/3/6 859/3/6
f 864/3/6 860/3/6 863/3/6
f 869/4/6 866/4/6 865/4/6
f 870/4/6 866/4/6 869/4/6
f 871/4/6 868/4/6 867/4/6
f 872/4/6 868/4/6 871/4/6
f 877/5/6 874/5/6 873/5/6
f 878/5/6 874/5/6 877/5/6
f 879/5/6 876/5/6 875/5/6
f 880/5/6 876/5/6 879/5/6
f 883/9/6 882/9/6 881/9/6
f 884/9/6 882/9/6 883/9/6
f 889/3/6 886/3/6 885/3/6
f 890/3/6 886/3/6 889/3/6
f 893/3/6 892/3/6 891/3/6
f 894/3/6 892/3/6 893/3/6
f 897/3/6 888/3/6 887/3/6
f 898/3/6 888/3/6 897/3/6
f 899/3/6 896/3/6 895/3/6
f 900/3/6 896/3/6 899/3/6
f 905/3/6 902/3/6 901/3/6
f 906/3/6 902/3/6 905/3/6
f 907/3/6 904/3/6 903/3/6
f 908/3/6 904/3/6 907/3/6
f 913/3/6 910/3/6 909/3/6
f 914/3/6 910/3/6 913/3/6
f 915/3/6 912/3/6 911/3/6
f 916/3/6 912/3/6 915/3/6
f 917/6/7 918/6/7 921/6/7
f 921/6/7 918/6/7 922/6/7
f 919/6/7 920/6/7 923/6/7
f 923/6/7 920/6/7 924/6/7
f 925/6/7 926/6/7 927/6/7
f 927/6/7 926/6/7 928/6/7
f 929/6/7 930/6/7 931/6/7
f 931/6/7 930/6/7 932/6/7
f 933/3/7 934/3/7 937/3/7
f 937/3/7 934/3/7 938/3/7
f 935/3/7 936/3/7 939/3/7
f 939/3/7 936/3/7 940/3/7
f 941/3/7 942/3/7 945/3/7
f 943/3/7 944/3/7 946/3/7
f 941/3/7 945/3/7 947/3/7
f 946/3/7 944/3/7 948/3/7
f 941/3/7 947/3/7 949/3/7
f 949/3/7 947/3/7 950/3/7
f 948/3/7 944/3/7 951/3/7
f 951/3/7 944/3/7 952/3/7
f 953/3/7 954/3/7 955/3/7
f 955/3/7 954/3/7 956/3/7
f 953/3/7 955/3/7 957/3/7
f 957/3/7 955/3/7 958/3/7
f 956/3/7 954/3/7 959/3/7
f 959/3/7 954/3/7 960/3/7
f 961/11/7 962/11/7 964/11/7
f 964/11/7 962/11/7 965/11/7
f 963/3/7 964/3/7 967/3/7
f 965/3/7 966/3/7 967/3/7
f 964/3/7 965/3/7 967/3/7
f 967/3/7 966/3/7 968/3/7
f 969/3/7 970/3/7 973/3/7
f 973/3/7 970/3/7 974/3/7
f 971/3/7 972/3/7 975/3/7
f 975/3/7 972/3/7 976/3/7
f 977/4/7 978/4/7 981/4/7
f 981/4/7 978/4/7 982/4/7
f 982/4/7 978/4/7 983/4/7
f 979/4/7 980/4/7 984/4/7
f 984/4/7 980/4/7 985/4/7
f 985/4/7 980/4/7 986/4/7
f 987/3/7 988/3/7 991/3/7
f 991/3/7 988/3/7 992/3/7
f 989/3/7 990/3/7 993/3/7
f 993/3/7 990/3/7 994/3/7
f 995/3/7 996/3/7 999/3/7
f 999/3/7 996/3/7 1000/3/7
f 997/3/7 998/3/7 1001/3/7
f 1001/3/7 998/3/7 1002/3/7
f 1003/5/7 1004/5/7 1007/5/7
f 1007/5/7 1004/5/7 1008/5/7
f 1005/5/7 1006/5/7 1009/5/7
f 1009/5/7 1006/5/7 1010/5/7
f 1011/3/7 1012/3/7 1015/3/7
f 1015/3/7 1012/3/7 1016/3/7
f 1013/3/7 1014/3/7 1017/3/7
f 1017/3/7 1014/3/7 1018/3/7
f 1019/3/7 1020/3/7 1022/3/7
f 1022/3/7 1020/3/7 1023/3/7
f 1021/3/7 1022/3/7 1025/3/7
f 1025/3/7 1022/3/7 1026/3/7
f 1024/3/7 1025/3/7 1028/3/7
f 1028/3/7 1025/3/7 1029/3/7
f 1026/3/7 1027/3/7 1030/3/7
f 1030/3/7 1027/3/7 1031/3/7
f 1032/3/7 1033/3/7 1035/3/7
f 1035/3/7 1033/3/7 1036/3/7
f 1034/3/7 1035/3/7 1038/3/7
f 1036/3/7 1037/3/7 1038/3/7
f 1035/3/7 1036/3/7 1038/3/7
f 1038/3/7 1037/3/7 1039/3/7
f 1039/3/7 1037/3/7 1040/3/7
f 1040/3/7 1037/3/7 1041/3/7
f 1034/3/7 1038/3/7 1042/3/7
f 1041/3/7 1037/3/7 1045/3/7
f 1043/3/7 1044/3/7 1046/3/7
f 1044/3/7 1045/3/7 1046/3/7
f 1045/3/7 1037/3/7 1046/3/7
f 1042/3/7 1043/3/7 1046/3/7
f 1046/3/7 1037/3/7 1047/3/7
f 1034/3/7 1042/3/7 1048/3/7
f 1042/3/7 1046/3/7 1048/3/7
f 1048/3/7 1046/3/7 1049/3/7
f 1050/3/7 1051/3/7 1053/3/7
f 1053/3/7 1051/3/7 1054/3/7
f 1054/3/7 1055/3/7 1056/3/7
f 1053/3/7 1054/3/7 1056/3/7
f 1052/3/7 1053/3/7 1056/3/7
f 1056/3/7 1055/3/7 1057/3/7
f 1056/7/7 1057/7/7 1058/7/7
f 1058/7/7 1057/7/7 1059/7/7
f 1058/3/7 1059/3/7 1060/3/7
f 1060/3/7 1059/3/7 1061/3/7
f 1060/7/7 1061/7/7 1062/7/7
f 1062/7/7 1061/7/7 1063/7/7
f 1062/3/7 1063/3/7 1064/3/7
f 1064/3/7 1063/3/7 1065/3/7
f 1064/7/7 1065/7/7 1066/7/7
f 1066/7/7 1065/7/7 1067/7/7
f 1066/3/7 1067/3/7 1068/3/7
f 1068/3/7 1067/3/7 1069/3/7
f 1068/7/7 1069/7/7 1070/7/7
f 1070/7/7 1069/7/7 1071/7/7
f 1072/10/7 1073/10/7 1076/10/7
f 1073/12/7 1074/12/7 1077/12/7
f 1076/10/7 1073/10/7 1077/10/7
f 1074/8/7 1075/8/7 1078/8/7
f 1077/12/7 1074/12/7 1078/12/7
f 1078/8/7 1075/8/7 1079/8/7
