# Blender 5.1.0
# www.blender.org
mtllib bench.mtl
o bench
v 2.476891 2.666656 -0.487996
v 2.476891 2.876779 -0.561746
v 2.476891 2.592906 -0.698120
v 2.476891 2.803030 -0.771869
v 2.476891 1.118987 -0.257380
v 2.476891 1.461129 -0.270218
v 2.476891 1.110637 -0.479913
v 2.476891 1.452778 -0.492752
v 2.445062 -0.174849 -0.303032
v 2.765490 -0.174849 -0.303032
v 2.445062 -0.174849 -0.590463
v 2.765490 -0.174849 -0.590463
v 2.445062 3.012105 -0.932167
v 2.765490 3.012105 -0.932167
v 2.445062 3.107295 -0.660956
v 2.765490 3.107295 -0.660956
v 2.476891 1.160598 0.301916
v 2.476891 1.291475 0.301916
v 2.476891 1.160598 -0.280715
v 2.476891 1.291475 -0.280715
v 2.476891 1.160598 0.978435
v 2.476891 1.291475 0.978435
v 2.476891 1.160598 0.395805
v 2.476891 1.291475 0.395805
v 2.476891 1.160598 1.656272
v 2.476891 1.291475 1.656272
v 2.476891 1.160598 1.073642
v 2.476891 1.291475 1.073642
v 2.447655 -0.174849 1.631898
v 2.711509 -0.174849 1.631898
v 2.447655 -0.174849 1.344466
v 2.711509 -0.174849 1.344466
v 2.447655 1.594151 1.453920
v 2.711509 1.594151 1.453920
v 2.447655 1.594151 1.741352
v 2.711509 1.594151 1.741352
v 2.686496 2.023869 1.111584
v 2.686496 1.794441 1.151851
v 2.472668 1.794441 1.151851
v 2.472668 2.023869 1.111584
v 2.680064 1.759901 -0.351878
v 2.680064 1.544275 -0.314033
v 2.479100 1.544275 -0.314033
v 2.479100 1.759901 -0.351878
v 2.740646 0.748835 -0.462136
v 2.469907 0.748835 -0.219277
v 2.469907 0.748835 -0.462136
v 2.740646 0.748835 -0.219277
v 2.683160 0.709651 1.525752
v 2.476003 0.709651 1.751420
v 2.476003 0.709651 1.525752
v 2.683160 0.709651 1.751420
v 2.455797 2.073603 -0.544007
v 2.754755 2.162416 -0.290967
v 2.754755 2.073603 -0.544007
v 2.455797 2.162416 -0.290967
v -2.479334 2.666656 -0.487996
v -2.479334 2.876779 -0.561746
v -2.479334 2.592906 -0.698120
v -2.479334 2.803030 -0.771869
v -0.001222 2.592906 -0.698120
v -0.001222 2.803030 -0.771869
v -0.001222 2.666656 -0.487996
v -0.001222 2.876779 -0.561746
v -2.479334 1.118987 -0.257380
v -2.479334 1.461129 -0.270218
v -2.479334 1.110637 -0.479913
v -2.479334 1.452778 -0.492752
v -0.001222 1.110637 -0.479913
v -0.001222 1.452778 -0.492752
v -0.001222 1.118987 -0.257380
v -0.001222 1.461129 -0.270218
v -2.447506 -0.174849 -0.303032
v -2.767933 -0.174849 -0.303032
v -2.447506 -0.174849 -0.590463
v -2.767933 -0.174849 -0.590463
v -2.447506 3.012105 -0.932167
v -2.767933 3.012105 -0.932167
v -2.447506 3.107295 -0.660956
v -2.767933 3.107295 -0.660956
v -2.479334 1.160598 0.301916
v -2.479334 1.291475 0.301916
v -2.479334 1.160598 -0.280715
v -2.479334 1.291475 -0.280715
v -0.001222 1.160598 -0.280715
v -0.001222 1.291475 -0.280715
v -0.001222 1.160598 0.301916
v -0.001222 1.291475 0.301916
v -2.479334 1.160598 0.978435
v -2.479334 1.291475 0.978435
v -2.479334 1.160598 0.395805
v -2.479334 1.291475 0.395805
v -0.001222 1.160598 0.395805
v -0.001222 1.291475 0.395805
v -0.001222 1.160598 0.978435
v -0.001222 1.291475 0.978435
v -2.479334 1.160598 1.656272
v -2.479334 1.291475 1.656272
v -2.479334 1.160598 1.073642
v -2.479334 1.291475 1.073642
v -0.001222 1.160598 1.073642
v -0.001222 1.291475 1.073642
v -0.001222 1.160598 1.656272
v -0.001222 1.291475 1.656272
v -2.450098 -0.174849 1.631898
v -2.713952 -0.174849 1.631898
v -2.450098 -0.174849 1.344466
v -2.713952 -0.174849 1.344466
v -2.450098 1.594151 1.453920
v -2.713952 1.594151 1.453920
v -2.450098 1.594151 1.741352
v -2.713952 1.594151 1.741352
v -2.688939 2.023869 1.111584
v -2.688939 1.794441 1.151851
v -2.475111 1.794441 1.151851
v -2.475111 2.023869 1.111584
v -2.682507 1.759901 -0.351878
v -2.682507 1.544275 -0.314033
v -2.481543 1.544275 -0.314033
v -2.481543 1.759901 -0.351878
v -2.743089 0.748835 -0.462136
v -2.472350 0.748835 -0.219277
v -2.472350 0.748835 -0.462136
v -2.743089 0.748835 -0.219277
v -2.685603 0.709651 1.525752
v -2.478447 0.709651 1.751420
v -2.478447 0.709651 1.525752
v -2.685603 0.709651 1.751420
v -2.458240 2.073603 -0.544007
v -2.757199 2.162416 -0.290967
v -2.757199 2.073603 -0.544007
v -2.458240 2.162416 -0.290967
v -2.270032 2.698562 -0.587027
v -2.166658 2.840465 -0.627759
v -2.270032 2.667049 -0.696814
v -2.166658 2.808952 -0.737547
v -0.336168 1.324273 -0.304494
v -0.235152 1.462940 -0.344297
v -0.336168 1.293478 -0.411778
v -0.235152 1.432145 -0.451581
v -0.233973 2.668386 -0.679413
v -0.337347 2.810289 -0.720145
v -0.233973 2.697225 -0.578945
v -0.337347 2.839127 -0.619677
v -2.167836 1.294785 -0.394482
v -2.268853 1.433452 -0.434285
v -2.167836 1.322966 -0.296306
v -2.268853 1.461633 -0.336109
v -1.452585 1.859248 -0.432874
v -1.576126 2.028834 -0.481552
v -1.452585 1.824783 -0.552941
v -1.576126 1.994369 -0.601620
v -0.988240 1.779433 -0.562232
v -0.863653 1.950455 -0.611322
v -0.988240 1.817414 -0.429916
v -0.863653 1.988435 -0.479007
v -1.731689 2.294257 -0.668370
v -1.619406 2.482619 -0.593363
v -1.619406 2.448390 -0.712613
v -1.731689 2.328486 -0.549121
v -0.766374 2.331120 -0.542389
v -0.878559 2.453820 -0.695623
v -0.878559 2.485117 -0.586592
v -0.766374 2.299823 -0.651419
v 0.243587 2.698562 -0.587027
v 0.346961 2.840465 -0.627759
v 0.243587 2.667049 -0.696814
v 0.346961 2.808952 -0.737547
v 2.177451 1.324273 -0.304494
v 2.278467 1.462940 -0.344297
v 2.177451 1.293478 -0.411778
v 2.278467 1.432145 -0.451581
v 2.279646 2.668386 -0.679413
v 2.176272 2.810289 -0.720145
v 2.279646 2.697225 -0.578945
v 2.176272 2.839127 -0.619677
v 0.345782 1.294785 -0.394482
v 0.244766 1.433452 -0.434285
v 0.345782 1.322966 -0.296306
v 0.244766 1.461633 -0.336109
v 1.061034 1.859248 -0.432874
v 0.937493 2.028834 -0.481552
v 1.061034 1.824783 -0.552941
v 0.937493 1.994369 -0.601620
v 1.525379 1.779433 -0.562232
v 1.649965 1.950455 -0.611322
v 1.525379 1.817414 -0.429916
v 1.649965 1.988435 -0.479007
v 0.781930 2.294257 -0.668370
v 0.894213 2.482619 -0.593363
v 0.894213 2.448390 -0.712613
v 0.781930 2.328486 -0.549121
v 1.747244 2.331120 -0.542389
v 1.635060 2.453820 -0.695623
v 1.635060 2.485117 -0.586592
v 1.747244 2.299823 -0.651419
v -0.182177 2.651298 -0.829270
v 0.064838 2.651298 -0.829270
v -0.182177 2.724679 -0.620196
v 0.064838 2.724679 -0.620196
v 0.045685 0.906564 -0.466927
v -0.163025 0.906564 -0.279710
v -0.163025 0.906564 -0.466927
v 0.045685 0.906564 -0.279710
v -0.173902 1.927816 -0.530041
v 0.056562 1.996281 -0.334975
v 0.056562 1.927816 -0.530041
v -0.173902 1.996281 -0.334975
vn -0.0000 -0.3312 -0.9436
vn 1.0000 -0.0000 -0.0000
vn -0.0000 -0.9436 0.3312
vn -0.0000 0.9436 -0.3312
vn -0.0000 0.3312 0.9436
vn -0.0000 -0.0375 -0.9993
vn -0.0000 -0.9993 0.0375
vn -0.0000 0.9993 -0.0375
vn -0.0000 0.0375 0.9993
vn -0.0000 0.1376 -0.9905
vn -0.0000 -1.0000 -0.0000
vn -0.9996 0.0269 -0.0000
vn 0.9999 -0.0100 0.0035
vn -0.0000 0.3646 0.9312
vn -0.0000 -0.0000 -1.0000
vn -0.0000 1.0000 -0.0000
vn -0.0000 -0.0000 1.0000
vn -0.0000 0.2008 -0.9796
vn -0.9995 0.0320 -0.0000
vn 0.9995 -0.0320 -0.0000
vn -0.0000 0.0114 0.9999
vn 0.9990 0.0334 -0.0310
vn -0.0000 -0.9857 0.1682
vn -0.0000 -0.8334 -0.5526
vn -0.9990 0.0334 -0.0310
vn -0.0000 0.8260 0.5636
vn -0.0000 -0.1729 -0.9849
vn -1.0000 -0.0007 -0.0043
vn -0.0000 0.9841 -0.1775
vn 1.0000 -0.0007 -0.0043
vn -0.0000 -0.0903 0.9959
vn 0.9996 0.0269 -0.0000
vn -0.9999 -0.0102 0.0018
vn -0.0000 -0.0617 -0.9981
vn -0.0000 -0.1339 0.9910
vn 0.9995 0.0320 -0.0000
vn -0.9995 -0.0320 -0.0000
vn -0.0000 -0.0809 -0.9967
vn -0.0000 -0.3822 -0.9241
vn -0.9999 -0.0100 0.0035
vn -0.0000 0.0507 0.9987
vn 0.9999 -0.0102 0.0018
vn -1.0000 -0.0000 -0.0000
vn -0.8192 0.5513 -0.1582
vn 0.0105 -0.2829 -0.9591
vn 0.8192 -0.5513 0.1583
vn 0.0822 0.2192 0.9722
vn -0.6150 -0.7579 0.2176
vn 0.5425 0.8074 -0.2318
vn 0.8192 0.5513 -0.1583
vn -0.0151 0.2657 0.9639
vn -0.8192 -0.5513 0.1582
vn 0.0945 -0.2104 -0.9730
vn 0.6118 -0.7603 0.2182
vn -0.5424 0.8075 -0.2318
vn -0.6454 0.7342 -0.2107
vn 0.5762 -0.7856 0.2255
vn -0.0055 -0.2796 -0.9601
vn -0.0243 0.2594 0.9655
vn 0.6533 0.7278 -0.2089
vn -0.5762 -0.7856 0.2255
vn 0.0154 0.2655 0.9640
vn -0.0360 -0.2514 -0.9672
vn -0.0944 -0.2105 -0.9730
vn -0.5624 -0.7948 0.2281
vn 0.5568 0.7984 -0.2292
vn 0.0238 0.2598 0.9654
vn -0.0834 0.2183 0.9723
vn 0.5623 -0.7949 0.2282
vn -0.5568 0.7984 -0.2292
vn 0.0355 -0.2518 -0.9671
vn -0.8192 0.5513 -0.1583
vn -0.8192 -0.5513 0.1583
vt 0.287602 0.505930
vt 0.287602 0.534709
vt 0.332511 0.534709
vt 0.332511 0.505930
vt 0.332511 0.785897
vt 0.332511 0.814676
vt 0.293381 0.400435
vt 0.338290 0.400435
vt 0.287602 0.814676
vt 0.333956 0.476308
vt 0.333956 0.880815
vt 0.289047 0.880815
vt 0.289047 0.476308
vt 0.287602 0.310940
vt 0.287602 0.355188
vt 0.332511 0.355188
vt 0.332511 0.310940
vt 0.332511 0.590907
vt 0.332511 0.635154
vt 0.293381 0.205446
vt 0.338290 0.205446
vt 0.287602 0.635154
vt 0.287602 0.590907
vt 0.332385 0.543626
vt 0.337291 0.543626
vt 0.337741 0.424254
vt 0.331934 0.424254
vt 0.323716 0.377269
vt 0.323266 0.257897
vt 0.328878 0.549535
vt 0.329073 0.680590
vt 0.319126 0.750469
vt 0.324544 0.750469
vt 0.324739 0.964455
vt 0.318932 0.964455
vt 0.337741 0.846947
vt 0.331934 0.846947
vt 0.284712 0.353390
vt 0.284712 0.370304
vt 0.329622 0.370304
vt 0.329622 0.353390
vt 0.332511 0.596840
vt 0.332511 0.613753
vt 0.293381 0.211378
vt 0.338290 0.211378
vt 0.286499 0.377761
vt 0.324940 0.377761
vt 0.339388 0.553699
vt 0.300946 0.553699
vt 0.283609 0.405904
vt 0.322051 0.405904
vt 0.336498 0.581841
vt 0.298057 0.581841
vt 0.283609 0.393269
vt 0.322051 0.393269
vt 0.336498 0.569206
vt 0.298057 0.569206
vt 0.332495 0.538562
vt 0.336249 0.538562
vt 0.336763 0.424254
vt 0.331981 0.424254
vt 0.323827 0.372205
vt 0.323313 0.257897
vt 0.323827 0.372205
vt 0.327581 0.372205
vt 0.328094 0.486513
vt 0.327581 0.372205
vt 0.299266 0.615654
vt 0.303020 0.615654
vt 0.303534 0.729962
vt 0.298752 0.729962
vt 0.327641 0.512397
vt 0.327641 0.542047
vt 0.336310 0.678754
vt 0.332435 0.678754
vt 0.332551 0.646424
vt 0.336193 0.646424
vt 0.336763 0.652869
vt 0.331981 0.652869
vt 0.323313 0.486513
vt 0.323766 0.542047
vt 0.323766 0.512397
vt 0.303081 0.785496
vt 0.299205 0.785496
vt 0.336193 0.674290
vt 0.332551 0.674290
vt 0.323883 0.507933
vt 0.323883 0.480067
vt 0.302964 0.751382
vt 0.299322 0.751382
vt 0.327525 0.480067
vt 0.327525 0.507933
vt 0.318932 0.274287
vt 0.324739 0.274287
vt 0.324288 0.469195
vt 0.319382 0.469195
vt 0.329073 0.257897
vt 0.328623 0.377269
vt 0.323460 0.549535
vt 0.323460 0.549535
vt 0.332129 0.715892
vt 0.337547 0.715892
vt 0.298752 0.501346
vt 0.303534 0.501346
vt 0.328094 0.257897
vt 0.323266 0.680590
vt 0.293740 0.781261
vt 0.295815 0.846231
vt 0.312646 0.263236
vt 0.314226 0.312700
vt 0.321714 0.197758
vt 0.320134 0.148295
vt 0.323429 0.325552
vt 0.325505 0.390522
vt 0.302078 0.653274
vt 0.304154 0.718244
vt 0.309743 0.215157
vt 0.317200 0.100706
vt 0.305239 0.588878
vt 0.298555 0.691472
vt 0.305239 0.588878
vt 0.325505 0.781261
vt 0.323429 0.846231
vt 0.306630 0.491546
vt 0.304555 0.556516
vt 0.293740 0.390522
vt 0.295815 0.325552
vt 0.315436 0.398876
vt 0.313856 0.448340
vt 0.320134 0.544705
vt 0.321714 0.495241
vt 0.304464 0.226544
vt 0.296266 0.100706
vt 0.314080 0.590010
vt 0.320690 0.691472
vt 0.296891 0.326177
vt 0.305560 0.459237
vt 0.312522 0.350219
vt 0.312522 0.350219
vt 0.299111 0.148295
vt 0.297531 0.197758
vt 0.305764 0.324135
vt 0.307344 0.274671
vt 0.317258 0.654687
vt 0.315183 0.719657
vt 0.322354 0.326177
vt 0.314469 0.447197
vt 0.301014 0.349148
vt 0.315669 0.541495
vt 0.313594 0.476525
vt 0.303879 0.397800
vt 0.305459 0.447264
vt 0.297531 0.495241
vt 0.299111 0.544705
vt 0.294693 0.446173
vt 0.318773 0.446173
s 0
usemtl Material.001
f 61/1/1 62/2/1 4/3/1 3/4/1
f 3/5/2 4/6/2 2/6/2 1/5/2
f 61/7/3 3/8/3 1/8/3 63/7/3
f 4/6/4 62/9/4 64/9/4 2/6/4
f 1/10/5 2/11/5 64/12/5 63/13/5
f 69/14/6 70/15/6 8/16/6 7/17/6
f 7/18/2 8/19/2 6/19/2 5/18/2
f 69/20/7 7/21/7 5/21/7 71/20/7
f 8/19/8 70/22/8 72/22/8 6/19/8
f 5/18/9 6/19/9 72/22/9 71/23/9
f 47/24/10 45/25/10 12/26/10 11/27/10
f 11/27/11 12/26/11 10/26/11 9/27/11
f 47/28/12 11/29/12 9/29/12 46/28/12
f 55/30/13 14/31/13 16/31/13 54/30/13
f 56/32/14 54/33/14 16/34/14 15/35/14
f 16/36/4 14/36/4 13/37/4 15/37/4
f 85/38/15 86/39/15 20/40/15 19/41/15
f 19/42/2 20/43/2 18/43/2 17/42/2
f 85/44/11 19/45/11 17/45/11 87/44/11
f 20/46/16 86/47/16 88/48/16 18/49/16
f 17/41/17 18/40/17 88/39/17 87/38/17
f 93/38/15 94/39/15 24/40/15 23/41/15
f 23/42/2 24/43/2 22/43/2 21/42/2
f 93/44/11 23/45/11 21/45/11 95/44/11
f 24/50/16 94/51/16 96/52/16 22/53/16
f 21/41/17 22/40/17 96/39/17 95/38/17
f 101/38/15 102/39/15 28/40/15 27/41/15
f 27/42/2 28/43/2 26/43/2 25/42/2
f 101/44/11 27/45/11 25/45/11 103/44/11
f 28/54/16 102/55/16 104/56/16 26/57/16
f 25/41/17 26/40/17 104/39/17 103/38/17
f 51/58/18 49/59/18 32/60/18 31/61/18
f 31/61/11 32/60/11 30/60/11 29/61/11
f 51/62/19 31/63/19 29/63/19 50/64/19
f 49/65/20 34/66/20 36/66/20 52/67/20
f 50/68/21 52/69/21 36/70/21 35/71/21
f 36/66/22 34/66/22 38/72/22 37/73/22
f 38/74/23 39/75/23 43/76/23 42/77/23
f 34/78/24 33/79/24 39/75/24 38/74/24
f 33/80/25 35/80/25 40/81/25 39/82/25
f 35/71/26 36/70/26 37/83/26 40/84/26
f 41/85/27 42/77/27 43/76/27 44/86/27
f 39/82/28 40/81/28 44/87/28 43/88/28
f 40/84/29 37/83/29 41/89/29 44/90/29
f 37/73/30 38/72/30 42/91/30 41/92/30
f 9/93/31 10/94/31 48/95/31 46/96/31
f 12/97/32 45/98/32 48/98/32 10/97/32
f 53/99/33 47/28/33 46/28/33 56/100/33
f 53/101/34 55/102/34 45/25/34 47/24/34
f 29/103/35 30/104/35 52/69/35 50/68/35
f 32/105/36 49/65/36 52/67/36 30/105/36
f 33/80/37 51/62/37 50/64/37 35/80/37
f 33/79/38 34/78/38 49/59/38 51/58/38
f 13/37/39 14/36/39 55/102/39 53/101/39
f 13/106/40 53/99/40 56/100/40 15/106/40
f 46/96/41 48/95/41 54/33/41 56/32/41
f 45/98/42 55/30/42 54/30/42 48/98/42
f 61/1/1 59/4/1 60/3/1 62/2/1
f 59/5/43 57/5/43 58/6/43 60/6/43
f 61/7/3 63/7/3 57/8/3 59/8/3
f 60/6/4 58/6/4 64/9/4 62/9/4
f 57/10/5 63/13/5 64/12/5 58/11/5
f 69/14/6 67/17/6 68/16/6 70/15/6
f 67/18/43 65/18/43 66/19/43 68/19/43
f 69/20/7 71/20/7 65/21/7 67/21/7
f 68/19/8 66/19/8 72/22/8 70/22/8
f 65/18/9 71/23/9 72/22/9 66/19/9
f 123/24/10 75/27/10 76/26/10 121/25/10
f 75/27/11 73/27/11 74/26/11 76/26/11
f 123/28/32 122/28/32 73/29/32 75/29/32
f 131/30/40 130/30/40 80/31/40 78/31/40
f 132/32/14 79/35/14 80/34/14 130/33/14
f 80/36/4 79/37/4 77/37/4 78/36/4
f 85/38/15 83/41/15 84/40/15 86/39/15
f 83/42/43 81/42/43 82/43/43 84/43/43
f 85/44/11 87/44/11 81/45/11 83/45/11
f 84/46/16 82/49/16 88/48/16 86/47/16
f 81/41/17 87/38/17 88/39/17 82/40/17
f 93/38/15 91/41/15 92/40/15 94/39/15
f 91/42/43 89/42/43 90/43/43 92/43/43
f 93/44/11 95/44/11 89/45/11 91/45/11
f 92/50/16 90/53/16 96/52/16 94/51/16
f 89/41/17 95/38/17 96/39/17 90/40/17
f 101/38/15 99/41/15 100/40/15 102/39/15
f 99/42/43 97/42/43 98/43/43 100/43/43
f 101/44/11 103/44/11 97/45/11 99/45/11
f 100/54/16 98/57/16 104/56/16 102/55/16
f 97/41/17 103/38/17 104/39/17 98/40/17
f 127/58/18 107/61/18 108/60/18 125/59/18
f 107/61/11 105/61/11 106/60/11 108/60/11
f 127/62/36 126/64/36 105/63/36 107/63/36
f 125/65/37 128/67/37 112/66/37 110/66/37
f 126/68/21 111/71/21 112/70/21 128/69/21
f 112/66/25 113/73/25 114/72/25 110/66/25
f 114/74/23 118/77/23 119/76/23 115/75/23
f 110/78/24 114/74/24 115/75/24 109/79/24
f 109/80/22 115/82/22 116/81/22 111/80/22
f 111/71/26 116/84/26 113/83/26 112/70/26
f 117/85/27 120/86/27 119/76/27 118/77/27
f 115/82/30 119/88/30 120/87/30 116/81/30
f 116/84/29 120/90/29 117/89/29 113/83/29
f 113/73/28 117/92/28 118/91/28 114/72/28
f 73/93/31 122/96/31 124/95/31 74/94/31
f 76/97/12 74/97/12 124/98/12 121/98/12
f 129/99/42 132/100/42 122/28/42 123/28/42
f 129/101/34 123/24/34 121/25/34 131/102/34
f 105/103/35 126/68/35 128/69/35 106/104/35
f 108/105/19 106/105/19 128/67/19 125/65/19
f 109/80/20 111/80/20 126/64/20 127/62/20
f 109/79/38 127/58/38 125/59/38 110/78/38
f 77/37/39 129/101/39 131/102/39 78/36/39
f 77/106/13 79/106/13 132/100/13 129/99/13
f 122/96/41 132/32/41 130/33/41 124/95/41
f 121/98/33 124/98/33 130/30/33 131/30/33
f 133/107/44 134/108/44 136/108/44 135/107/44
f 153/109/45 154/110/45 140/111/45 139/112/45
f 139/113/46 140/114/46 138/114/46 137/113/46
f 160/115/47 158/116/47 134/108/47 133/107/47
f 153/117/48 139/118/48 137/118/48 155/117/48
f 159/119/49 136/120/49 134/120/49 158/121/49
f 141/122/50 142/123/50 144/123/50 143/122/50
f 149/124/51 150/125/51 148/126/51 147/127/51
f 147/127/52 148/126/52 146/126/52 145/127/52
f 164/128/53 162/129/53 142/130/53 141/131/53
f 149/132/54 147/133/54 145/133/54 151/132/54
f 163/134/55 144/135/55 142/135/55 162/134/55
f 148/136/56 150/137/56 152/137/56 146/136/56
f 161/138/57 149/132/57 151/132/57 164/139/57
f 145/140/58 146/141/58 152/142/58 151/143/58
f 161/144/59 163/145/59 150/125/59 149/124/59
f 140/146/60 154/147/60 156/147/60 138/146/60
f 157/148/61 153/117/61 155/117/61 160/148/61
f 137/113/62 138/114/62 156/149/62 155/150/62
f 157/151/63 159/152/63 154/110/63 153/109/63
f 135/153/64 136/154/64 159/152/64 157/151/64
f 135/155/65 157/148/65 160/148/65 133/155/65
f 154/147/66 159/119/66 158/121/66 156/147/66
f 155/150/67 156/149/67 158/116/67 160/115/67
f 143/122/68 144/123/68 163/145/68 161/144/68
f 143/156/69 161/138/69 164/139/69 141/156/69
f 150/137/70 163/134/70 162/134/70 152/137/70
f 151/143/71 152/142/71 162/129/71 164/128/71
f 165/107/72 166/108/72 168/108/72 167/107/72
f 185/109/45 186/110/45 172/111/45 171/112/45
f 171/113/46 172/114/46 170/114/46 169/113/46
f 192/115/47 190/116/47 166/108/47 165/107/47
f 185/117/48 171/118/48 169/118/48 187/117/48
f 191/119/49 168/120/49 166/120/49 190/121/49
f 173/122/50 174/123/50 176/123/50 175/122/50
f 181/124/51 182/125/51 180/126/51 179/127/51
f 179/127/73 180/126/73 178/126/73 177/127/73
f 196/128/53 194/129/53 174/130/53 173/131/53
f 181/132/54 179/133/54 177/133/54 183/132/54
f 195/134/55 176/135/55 174/135/55 194/134/55
f 180/136/56 182/137/56 184/137/56 178/136/56
f 193/138/57 181/132/57 183/132/57 196/139/57
f 177/140/58 178/141/58 184/142/58 183/143/58
f 193/144/59 195/145/59 182/125/59 181/124/59
f 172/146/60 186/147/60 188/147/60 170/146/60
f 189/148/61 185/117/61 187/117/61 192/148/61
f 169/113/62 170/114/62 188/149/62 187/150/62
f 189/151/63 191/152/63 186/110/63 185/109/63
f 167/153/64 168/154/64 191/152/64 189/151/64
f 167/155/65 189/148/65 192/148/65 165/155/65
f 186/147/66 191/119/66 190/121/66 188/147/66
f 187/150/67 188/149/67 190/116/67 192/115/67
f 175/122/68 176/123/68 195/145/68 193/144/68
f 175/156/69 193/138/69 196/139/69 173/156/69
f 182/137/70 195/134/70 194/134/70 184/137/70
f 183/143/71 184/142/71 194/129/71 196/128/71
f 207/30/13 198/31/13 200/31/13 206/30/13
f 208/32/14 206/33/14 200/34/14 199/35/14
f 200/36/4 198/36/4 197/37/4 199/37/4
f 205/99/33 203/28/33 202/28/33 208/100/33
f 205/101/34 207/102/34 201/25/34 203/24/34
f 197/37/39 198/36/39 207/102/39 205/101/39
f 197/106/40 205/99/40 208/100/40 199/106/40
f 202/96/41 204/95/41 206/33/41 208/32/41
f 201/98/42 207/30/42 206/30/42 204/98/42
