# Blender 5.1.0
# www.blender.org
mtllib bench001.mtl
o bench.001
v 2.476891 2.702939 -0.487996
v 2.476891 2.913063 -0.561746
v 2.476891 2.629189 -0.698120
v 2.476891 2.839313 -0.771869
v 2.476891 1.155271 -0.257380
v 2.476891 1.497413 -0.270218
v 2.476891 1.146920 -0.479913
v 2.476891 1.489062 -0.492752
v 2.445062 -0.138565 -0.303032
v 2.765490 -0.138565 -0.303032
v 2.445062 -0.138565 -0.590463
v 2.765490 -0.138565 -0.590463
v 2.445062 3.048388 -0.932167
v 2.765490 3.048388 -0.932167
v 2.445062 3.143579 -0.660956
v 2.765490 3.143579 -0.660956
v 2.476891 1.196882 0.301916
v 2.476891 1.327759 0.301916
v 2.476891 1.196882 -0.280715
v 2.476891 1.327759 -0.280715
v 2.476891 1.196882 0.978435
v 2.476891 1.327759 0.978435
v 2.476891 1.196882 0.395805
v 2.476891 1.327759 0.395805
v 2.476891 1.196882 1.656272
v 2.476891 1.327759 1.656272
v 2.476891 1.196882 1.073642
v 2.476891 1.327759 1.073642
v 2.447655 -0.138565 1.631898
v 2.711509 -0.138565 1.631898
v 2.447655 -0.138565 1.344466
v 2.711509 -0.138565 1.344466
v 2.447655 1.630434 1.453920
v 2.711509 1.630434 1.453920
v 2.447655 1.630434 1.741352
v 2.711509 1.630434 1.741352
v 2.686496 2.060153 1.111584
v 2.686496 1.830725 1.151851
v 2.472668 1.830725 1.151851
v 2.472668 2.060153 1.111584
v 2.680064 1.796185 -0.351878
v 2.680064 1.580558 -0.314033
v 2.479100 1.580558 -0.314033
v 2.479100 1.796185 -0.351878
v 2.740646 0.785118 -0.462136
v 2.469907 0.785118 -0.219277
v 2.469907 0.785118 -0.462136
v 2.740646 0.785118 -0.219277
v 2.683160 0.745934 1.525752
v 2.476003 0.745934 1.751420
v 2.476003 0.745934 1.525752
v 2.683160 0.745934 1.751420
v 2.455797 2.109887 -0.544007
v 2.754755 2.198699 -0.290967
v 2.754755 2.109887 -0.544007
v 2.455797 2.198699 -0.290967
v -2.479334 2.702939 -0.487996
v -2.479334 2.913063 -0.561746
v -2.479334 2.629189 -0.698120
v -2.479334 2.839313 -0.771869
v -0.001222 2.629189 -0.698120
v -0.001222 2.839313 -0.771869
v -0.001222 2.702939 -0.487996
v -0.001222 2.913063 -0.561746
v -2.479334 1.155271 -0.257380
v -2.479334 1.497413 -0.270218
v -2.479334 1.146920 -0.479913
v -2.479334 1.489062 -0.492752
v -0.001222 1.146920 -0.479913
v -0.001222 1.489062 -0.492752
v -0.001222 1.155271 -0.257380
v -0.001222 1.497413 -0.270218
v -2.447506 -0.138565 -0.303032
v -2.767933 -0.138565 -0.303032
v -2.447506 -0.138565 -0.590463
v -2.767933 -0.138565 -0.590463
v -2.447506 3.048388 -0.932167
v -2.767933 3.048388 -0.932167
v -2.447506 3.143579 -0.660956
v -2.767933 3.143579 -0.660956
v -2.479334 1.196882 0.301916
v -2.479334 1.327759 0.301916
v -2.479334 1.196882 -0.280715
v -2.479334 1.327759 -0.280715
v -0.001222 1.196882 -0.280715
v -0.001222 1.327759 -0.280715
v -0.001222 1.196882 0.301916
v -0.001222 1.327759 0.301916
v -2.479334 1.196882 0.978435
v -2.479334 1.327759 0.978435
v -2.479334 1.196882 0.395805
v -2.479334 1.327759 0.395805
v -0.001222 1.196882 0.395805
v -0.001222 1.327759 0.395805
v -0.001222 1.196882 0.978435
v -0.001222 1.327759 0.978435
v -2.479334 1.196882 1.656272
v -2.479334 1.327759 1.656272
v -2.479334 1.196882 1.073642
v -2.479334 1.327759 1.073642
v -0.001222 1.196882 1.073642
v -0.001222 1.327759 1.073642
v -0.001222 1.196882 1.656272
v -0.001222 1.327759 1.656272
v -2.450098 -0.138565 1.631898
v -2.713952 -0.138565 1.631898
v -2.450098 -0.138565 1.344466
v -2.713952 -0.138565 1.344466
v -2.450098 1.630434 1.453920
v -2.713952 1.630434 1.453920
v -2.450098 1.630434 1.741352
v -2.713952 1.630434 1.741352
v -2.688939 2.060153 1.111584
v -2.688939 1.830725 1.151851
v -2.475111 1.830725 1.151851
v -2.475111 2.060153 1.111584
v -2.682507 1.796185 -0.351878
v -2.682507 1.580558 -0.314033
v -2.481543 1.580558 -0.314033
v -2.481543 1.796185 -0.351878
v -2.743089 0.785118 -0.462136
v -2.472350 0.785118 -0.219277
v -2.472350 0.785118 -0.462136
v -2.743089 0.785118 -0.219277
v -2.685603 0.745934 1.525752
v -2.478447 0.745934 1.751420
v -2.478447 0.745934 1.525752
v -2.685603 0.745934 1.751420
v -2.458240 2.109887 -0.544007
v -2.757199 2.198699 -0.290967
v -2.757199 2.109887 -0.544007
v -2.458240 2.198699 -0.290967
v -2.270032 2.734846 -0.587027
v -2.166658 2.876749 -0.627759
v -2.270032 2.703332 -0.696814
v -2.166658 2.845235 -0.737547
v -0.336168 1.360556 -0.304494
v -0.235152 1.499223 -0.344297
v -0.336168 1.329761 -0.411778
v -0.235152 1.468428 -0.451581
v -0.233973 2.704670 -0.679413
v -0.337347 2.846572 -0.720145
v -0.233973 2.733508 -0.578945
v -0.337347 2.875411 -0.619677
v -2.167836 1.331069 -0.394482
v -2.268853 1.469735 -0.434285
v -2.167836 1.359249 -0.296306
v -2.268853 1.497916 -0.336109
v -1.452585 1.895531 -0.432874
v -1.576126 2.065117 -0.481552
v -1.452585 1.861067 -0.552941
v -1.576126 2.030653 -0.601620
v -0.988240 1.815717 -0.562232
v -0.863653 1.986739 -0.611322
v -0.988240 1.853697 -0.429916
v -0.863653 2.024719 -0.479007
v -1.731689 2.330541 -0.668370
v -1.619406 2.518903 -0.593363
v -1.619406 2.484673 -0.712613
v -1.731689 2.364770 -0.549121
v -0.766374 2.367403 -0.542389
v -0.878559 2.490104 -0.695623
v -0.878559 2.521400 -0.586592
v -0.766374 2.336107 -0.651419
v 0.243587 2.734846 -0.587027
v 0.346961 2.876749 -0.627759
v 0.243587 2.703332 -0.696814
v 0.346961 2.845235 -0.737547
v 2.177451 1.360556 -0.304494
v 2.278467 1.499223 -0.344297
v 2.177451 1.329761 -0.411778
v 2.278467 1.468428 -0.451581
v 2.279646 2.704670 -0.679413
v 2.176272 2.846572 -0.720145
v 2.279646 2.733508 -0.578945
v 2.176272 2.875411 -0.619677
v 0.345782 1.331069 -0.394482
v 0.244766 1.469735 -0.434285
v 0.345782 1.359249 -0.296306
v 0.244766 1.497916 -0.336109
v 1.061034 1.895531 -0.432874
v 0.937493 2.065117 -0.481552
v 1.061034 1.861067 -0.552941
v 0.937493 2.030653 -0.601620
v 1.525379 1.815717 -0.562232
v 1.649965 1.986739 -0.611322
v 1.525379 1.853697 -0.429916
v 1.649965 2.024719 -0.479007
v 0.781930 2.330541 -0.668370
v 0.894213 2.518903 -0.593363
v 0.894213 2.484673 -0.712613
v 0.781930 2.364770 -0.549121
v 1.747244 2.367403 -0.542389
v 1.635060 2.490104 -0.695623
v 1.635060 2.521400 -0.586592
v 1.747244 2.336107 -0.651419
v -0.182177 2.687582 -0.829270
v 0.064838 2.687582 -0.829270
v -0.182177 2.760963 -0.620196
v 0.064838 2.760963 -0.620196
v 0.045685 0.942848 -0.466927
v -0.163025 0.942848 -0.279710
v -0.163025 0.942848 -0.466927
v 0.045685 0.942848 -0.279710
v -0.173902 1.964100 -0.530041
v 0.056562 2.032564 -0.334975
v 0.056562 1.964100 -0.530041
v -0.173902 2.032564 -0.334975
vn -0.0000 -0.3312 -0.9436
vn 1.0000 -0.0000 -0.0000
vn -0.0000 -0.9436 0.3312
vn -0.0000 0.9436 -0.3312
vn -0.0000 0.3312 0.9436
vn -0.0000 -0.0375 -0.9993
vn -0.0000 -0.9993 0.0375
vn -0.0000 0.9993 -0.0375
vn -0.0000 0.0375 0.9993
vn -0.0000 0.1376 -0.9905
vn -0.0000 -1.0000 -0.0000
vn -0.9996 0.0269 -0.0000
vn 0.9999 -0.0100 0.0035
vn -0.0000 0.3646 0.9312
vn -0.0000 -0.0000 -1.0000
vn -0.0000 1.0000 -0.0000
vn -0.0000 -0.0000 1.0000
vn -0.0000 0.2008 -0.9796
vn -0.9995 0.0320 -0.0000
vn 0.9995 -0.0320 -0.0000
vn -0.0000 0.0114 0.9999
vn 0.9990 0.0334 -0.0310
vn -0.0000 -0.9857 0.1682
vn -0.0000 -0.8334 -0.5526
vn -0.9990 0.0334 -0.0310
vn -0.0000 0.8260 0.5636
vn -0.0000 -0.1729 -0.9849
vn -1.0000 -0.0007 -0.0043
vn -0.0000 0.9841 -0.1775
vn 1.0000 -0.0007 -0.0043
vn -0.0000 -0.0903 0.9959
vn 0.9996 0.0269 -0.0000
vn -0.9999 -0.0102 0.0018
vn -0.0000 -0.0617 -0.9981
vn -0.0000 -0.1339 0.9910
vn 0.9995 0.0320 -0.0000
vn -0.9995 -0.0320 -0.0000
vn -0.0000 -0.0809 -0.9967
vn -0.0000 -0.3822 -0.9241
vn -0.9999 -0.0100 0.0035
vn -0.0000 0.0507 0.9987
vn 0.9999 -0.0102 0.0018
vn -1.0000 -0.0000 -0.0000
vn -0.8192 0.5513 -0.1582
vn 0.0105 -0.2829 -0.9591
vn 0.8192 -0.5513 0.1583
vn 0.0822 0.2192 0.9722
vn -0.6150 -0.7579 0.2176
vn 0.5425 0.8074 -0.2318
vn 0.8192 0.5513 -0.1583
vn -0.0151 0.2657 0.9639
vn -0.8192 -0.5513 0.1582
vn 0.0945 -0.2104 -0.9730
vn 0.6118 -0.7603 0.2182
vn -0.5424 0.8075 -0.2318
vn -0.6454 0.7342 -0.2107
vn 0.5762 -0.7856 0.2255
vn -0.0055 -0.2796 -0.9601
vn -0.0243 0.2594 0.9655
vn 0.6533 0.7278 -0.2089
vn -0.5762 -0.7856 0.2255
vn 0.0154 0.2655 0.9640
vn -0.0360 -0.2514 -0.9672
vn -0.0944 -0.2105 -0.9730
vn -0.5624 -0.7948 0.2281
vn 0.5568 0.7984 -0.2292
vn 0.0238 0.2598 0.9654
vn -0.0834 0.2183 0.9723
vn 0.5623 -0.7949 0.2282
vn -0.5568 0.7984 -0.2292
vn 0.0355 -0.2518 -0.9671
vn -0.8192 0.5513 -0.1583
vn -0.8192 -0.5513 0.1583
vt 0.523278 0.466066
vt 0.523278 0.495475
vt 0.583990 0.495475
vt 0.583990 0.466066
vt 0.583990 0.752157
vt 0.583990 0.781566
vt 0.531091 0.358264
vt 0.591803 0.358264
vt 0.523278 0.781566
vt 0.585943 0.435797
vt 0.585943 0.849151
vt 0.525231 0.849151
vt 0.525231 0.435797
vt 0.523278 0.266811
vt 0.523278 0.312027
vt 0.583990 0.312027
vt 0.583990 0.266811
vt 0.583990 0.552902
vt 0.583990 0.598117
vt 0.531091 0.159009
vt 0.591803 0.159009
vt 0.523278 0.598117
vt 0.523278 0.552902
vt 0.583819 0.504586
vt 0.590452 0.504586
vt 0.591061 0.382603
vt 0.583210 0.382603
vt 0.572100 0.334590
vt 0.571492 0.212607
vt 0.579079 0.510625
vt 0.579342 0.644547
vt 0.565895 0.715955
vt 0.573220 0.715955
vt 0.573483 0.934621
vt 0.565632 0.934621
vt 0.591061 0.814543
vt 0.583210 0.814543
vt 0.519372 0.310190
vt 0.519372 0.327474
vt 0.580084 0.327474
vt 0.580084 0.310190
vt 0.583990 0.558964
vt 0.583990 0.576248
vt 0.531091 0.165071
vt 0.591803 0.165071
vt 0.521787 0.335094
vt 0.573755 0.335094
vt 0.593286 0.514880
vt 0.541318 0.514880
vt 0.517881 0.363852
vt 0.569849 0.363852
vt 0.589380 0.543638
vt 0.537412 0.543638
vt 0.517881 0.350941
vt 0.569849 0.350941
vt 0.589380 0.530726
vt 0.537412 0.530726
vt 0.583969 0.499412
vt 0.589044 0.499412
vt 0.589738 0.382603
vt 0.583274 0.382603
vt 0.572250 0.329416
vt 0.571555 0.212607
vt 0.572250 0.329416
vt 0.577325 0.329416
vt 0.578019 0.446224
vt 0.577325 0.329416
vt 0.539047 0.578190
vt 0.544122 0.578190
vt 0.544816 0.694999
vt 0.538352 0.694999
vt 0.577407 0.472675
vt 0.577407 0.502973
vt 0.589126 0.642671
vt 0.583887 0.642671
vt 0.584044 0.609633
vt 0.588968 0.609633
vt 0.589738 0.616220
vt 0.583274 0.616220
vt 0.571555 0.446224
vt 0.572168 0.502973
vt 0.572168 0.472675
vt 0.544204 0.751748
vt 0.538965 0.751748
vt 0.588968 0.638109
vt 0.584044 0.638109
vt 0.572326 0.468113
vt 0.572326 0.439637
vt 0.544046 0.716888
vt 0.539123 0.716888
vt 0.577249 0.439637
vt 0.577249 0.468113
vt 0.565632 0.229355
vt 0.573483 0.229355
vt 0.572874 0.428528
vt 0.566241 0.428528
vt 0.579342 0.212607
vt 0.578733 0.334590
vt 0.571755 0.510625
vt 0.571755 0.510625
vt 0.583473 0.680621
vt 0.590798 0.680621
vt 0.538352 0.461382
vt 0.544816 0.461382
vt 0.578019 0.212607
vt 0.571492 0.644547
vt 0.531576 0.747420
vt 0.534382 0.813811
vt 0.557135 0.218063
vt 0.559271 0.268609
vt 0.569394 0.151153
vt 0.567258 0.100608
vt 0.571713 0.281742
vt 0.574519 0.348133
vt 0.542849 0.616633
vt 0.545654 0.683025
vt 0.553211 0.168933
vt 0.563291 0.051978
vt 0.547121 0.550829
vt 0.538085 0.655667
vt 0.547121 0.550829
vt 0.574519 0.747420
vt 0.571713 0.813811
vt 0.549002 0.451367
vt 0.546196 0.517759
vt 0.531576 0.348133
vt 0.534382 0.281742
vt 0.560907 0.356670
vt 0.558771 0.407216
vt 0.567258 0.505689
vt 0.569394 0.455143
vt 0.546074 0.180569
vt 0.534991 0.051978
vt 0.559073 0.551986
vt 0.568010 0.655667
vt 0.535836 0.282381
vt 0.547556 0.418352
vt 0.556967 0.306949
vt 0.538837 0.100608
vt 0.536701 0.151153
vt 0.547831 0.280295
vt 0.549967 0.229749
vt 0.563371 0.618077
vt 0.560565 0.684468
vt 0.570259 0.282381
vt 0.559600 0.406048
vt 0.541410 0.305855
vt 0.541410 0.305855
vt 0.561222 0.502410
vt 0.558416 0.436018
vt 0.545283 0.355571
vt 0.547419 0.406117
vt 0.536701 0.455143
vt 0.538837 0.505689
vt 0.532864 0.405003
vt 0.565418 0.405003
s 0
usemtl Material.001
f 61/1/1 62/2/1 4/3/1 3/4/1
f 3/5/2 4/6/2 2/6/2 1/5/2
f 61/7/3 3/8/3 1/8/3 63/7/3
f 4/6/4 62/9/4 64/9/4 2/6/4
f 1/10/5 2/11/5 64/12/5 63/13/5
f 69/14/6 70/15/6 8/16/6 7/17/6
f 7/18/2 8/19/2 6/19/2 5/18/2
f 69/20/7 7/21/7 5/21/7 71/20/7
f 8/19/8 70/22/8 72/22/8 6/19/8
f 5/18/9 6/19/9 72/22/9 71/23/9
f 47/24/10 45/25/10 12/26/10 11/27/10
f 11/27/11 12/26/11 10/26/11 9/27/11
f 47/28/12 11/29/12 9/29/12 46/28/12
f 55/30/13 14/31/13 16/31/13 54/30/13
f 56/32/14 54/33/14 16/34/14 15/35/14
f 16/36/4 14/36/4 13/37/4 15/37/4
f 85/38/15 86/39/15 20/40/15 19/41/15
f 19/42/2 20/43/2 18/43/2 17/42/2
f 85/44/11 19/45/11 17/45/11 87/44/11
f 20/46/16 86/47/16 88/48/16 18/49/16
f 17/41/17 18/40/17 88/39/17 87/38/17
f 93/38/15 94/39/15 24/40/15 23/41/15
f 23/42/2 24/43/2 22/43/2 21/42/2
f 93/44/11 23/45/11 21/45/11 95/44/11
f 24/50/16 94/51/16 96/52/16 22/53/16
f 21/41/17 22/40/17 96/39/17 95/38/17
f 101/38/15 102/39/15 28/40/15 27/41/15
f 27/42/2 28/43/2 26/43/2 25/42/2
f 101/44/11 27/45/11 25/45/11 103/44/11
f 28/54/16 102/55/16 104/56/16 26/57/16
f 25/41/17 26/40/17 104/39/17 103/38/17
f 51/58/18 49/59/18 32/60/18 31/61/18
f 31/61/11 32/60/11 30/60/11 29/61/11
f 51/62/19 31/63/19 29/63/19 50/64/19
f 49/65/20 34/66/20 36/66/20 52/67/20
f 50/68/21 52/69/21 36/70/21 35/71/21
f 36/66/22 34/66/22 38/72/22 37/73/22
f 38/74/23 39/75/23 43/76/23 42/77/23
f 34/78/24 33/79/24 39/75/24 38/74/24
f 33/80/25 35/80/25 40/81/25 39/82/25
f 35/71/26 36/70/26 37/83/26 40/84/26
f 41/85/27 42/77/27 43/76/27 44/86/27
f 39/82/28 40/81/28 44/87/28 43/88/28
f 40/84/29 37/83/29 41/89/29 44/90/29
f 37/73/30 38/72/30 42/91/30 41/92/30
f 9/93/31 10/94/31 48/95/31 46/96/31
f 12/97/32 45/98/32 48/98/32 10/97/32
f 53/99/33 47/28/33 46/28/33 56/100/33
f 53/101/34 55/102/34 45/25/34 47/24/34
f 29/103/35 30/104/35 52/69/35 50/68/35
f 32/105/36 49/65/36 52/67/36 30/105/36
f 33/80/37 51/62/37 50/64/37 35/80/37
f 33/79/38 34/78/38 49/59/38 51/58/38
f 13/37/39 14/36/39 55/102/39 53/101/39
f 13/106/40 53/99/40 56/100/40 15/106/40
f 46/96/41 48/95/41 54/33/41 56/32/41
f 45/98/42 55/30/42 54/30/42 48/98/42
f 61/1/1 59/4/1 60/3/1 62/2/1
f 59/5/43 57/5/43 58/6/43 60/6/43
f 61/7/3 63/7/3 57/8/3 59/8/3
f 60/6/4 58/6/4 64/9/4 62/9/4
f 57/10/5 63/13/5 64/12/5 58/11/5
f 69/14/6 67/17/6 68/16/6 70/15/6
f 67/18/43 65/18/43 66/19/43 68/19/43
f 69/20/7 71/20/7 65/21/7 67/21/7
f 68/19/8 66/19/8 72/22/8 70/22/8
f 65/18/9 71/23/9 72/22/9 66/19/9
f 123/24/10 75/27/10 76/26/10 121/25/10
f 75/27/11 73/27/11 74/26/11 76/26/11
f 123/28/32 122/28/32 73/29/32 75/29/32
f 131/30/40 130/30/40 80/31/40 78/31/40
f 132/32/14 79/35/14 80/34/14 130/33/14
f 80/36/4 79/37/4 77/37/4 78/36/4
f 85/38/15 83/41/15 84/40/15 86/39/15
f 83/42/43 81/42/43 82/43/43 84/43/43
f 85/44/11 87/44/11 81/45/11 83/45/11
f 84/46/16 82/49/16 88/48/16 86/47/16
f 81/41/17 87/38/17 88/39/17 82/40/17
f 93/38/15 91/41/15 92/40/15 94/39/15
f 91/42/43 89/42/43 90/43/43 92/43/43
f 93/44/11 95/44/11 89/45/11 91/45/11
f 92/50/16 90/53/16 96/52/16 94/51/16
f 89/41/17 95/38/17 96/39/17 90/40/17
f 101/38/15 99/41/15 100/40/15 102/39/15
f 99/42/43 97/42/43 98/43/43 100/43/43
f 101/44/11 103/44/11 97/45/11 99/45/11
f 100/54/16 98/57/16 104/56/16 102/55/16
f 97/41/17 103/38/17 104/39/17 98/40/17
f 127/58/18 107/61/18 108/60/18 125/59/18
f 107/61/11 105/61/11 106/60/11 108/60/11
f 127/62/36 126/64/36 105/63/36 107/63/36
f 125/65/37 128/67/37 112/66/37 110/66/37
f 126/68/21 111/71/21 112/70/21 128/69/21
f 112/66/25 113/73/25 114/72/25 110/66/25
f 114/74/23 118/77/23 119/76/23 115/75/23
f 110/78/24 114/74/24 115/75/24 109/79/24
f 109/80/22 115/82/22 116/81/22 111/80/22
f 111/71/26 116/84/26 113/83/26 112/70/26
f 117/85/27 120/86/27 119/76/27 118/77/27
f 115/82/30 119/88/30 120/87/30 116/81/30
f 116/84/29 120/90/29 117/89/29 113/83/29
f 113/73/28 117/92/28 118/91/28 114/72/28
f 73/93/31 122/96/31 124/95/31 74/94/31
f 76/97/12 74/97/12 124/98/12 121/98/12
f 129/99/42 132/100/42 122/28/42 123/28/42
f 129/101/34 123/24/34 121/25/34 131/102/34
f 105/103/35 126/68/35 128/69/35 106/104/35
f 108/105/19 106/105/19 128/67/19 125/65/19
f 109/80/20 111/80/20 126/64/20 127/62/20
f 109/79/38 127/58/38 125/59/38 110/78/38
f 77/37/39 129/101/39 131/102/39 78/36/39
f 77/106/13 79/106/13 132/100/13 129/99/13
f 122/96/41 132/32/41 130/33/41 124/95/41
f 121/98/33 124/98/33 130/30/33 131/30/33
f 133/107/44 134/108/44 136/108/44 135/107/44
f 153/109/45 154/110/45 140/111/45 139/112/45
f 139/113/46 140/114/46 138/114/46 137/113/46
f 160/115/47 158/116/47 134/108/47 133/107/47
f 153/117/48 139/118/48 137/118/48 155/117/48
f 159/119/49 136/120/49 134/120/49 158/121/49
f 141/122/50 142/123/50 144/123/50 143/122/50
f 149/124/51 150/125/51 148/126/51 147/127/51
f 147/127/52 148/126/52 146/126/52 145/127/52
f 164/128/53 162/129/53 142/130/53 141/131/53
f 149/132/54 147/133/54 145/133/54 151/132/54
f 163/134/55 144/135/55 142/135/55 162/134/55
f 148/136/56 150/137/56 152/137/56 146/136/56
f 161/138/57 149/132/57 151/132/57 164/138/57
f 145/139/58 146/140/58 152/141/58 151/142/58
f 161/143/59 163/144/59 150/125/59 149/124/59
f 140/145/60 154/146/60 156/146/60 138/145/60
f 157/147/61 153/117/61 155/117/61 160/148/61
f 137/113/62 138/114/62 156/149/62 155/150/62
f 157/151/63 159/152/63 154/110/63 153/109/63
f 135/153/64 136/154/64 159/152/64 157/151/64
f 135/155/65 157/147/65 160/148/65 133/155/65
f 154/146/66 159/119/66 158/121/66 156/146/66
f 155/150/67 156/149/67 158/116/67 160/115/67
f 143/122/68 144/123/68 163/144/68 161/143/68
f 143/156/69 161/138/69 164/138/69 141/156/69
f 150/137/70 163/134/70 162/134/70 152/137/70
f 151/142/71 152/141/71 162/129/71 164/128/71
f 165/107/72 166/108/72 168/108/72 167/107/72
f 185/109/45 186/110/45 172/111/45 171/112/45
f 171/113/46 172/114/46 170/114/46 169/113/46
f 192/115/47 190/116/47 166/108/47 165/107/47
f 185/117/48 171/118/48 169/118/48 187/117/48
f 191/119/49 168/120/49 166/120/49 190/121/49
f 173/122/50 174/123/50 176/123/50 175/122/50
f 181/124/51 182/125/51 180/126/51 179/127/51
f 179/127/73 180/126/73 178/126/73 177/127/73
f 196/128/53 194/129/53 174/130/53 173/131/53
f 181/132/54 179/133/54 177/133/54 183/132/54
f 195/134/55 176/135/55 174/135/55 194/134/55
f 180/136/56 182/137/56 184/137/56 178/136/56
f 193/138/57 181/132/57 183/132/57 196/138/57
f 177/139/58 178/140/58 184/141/58 183/142/58
f 193/143/59 195/144/59 182/125/59 181/124/59
f 172/145/60 186/146/60 188/146/60 170/145/60
f 189/147/61 185/117/61 187/117/61 192/148/61
f 169/113/62 170/114/62 188/149/62 187/150/62
f 189/151/63 191/152/63 186/110/63 185/109/63
f 167/153/64 168/154/64 191/152/64 189/151/64
f 167/155/65 189/147/65 192/148/65 165/155/65
f 186/146/66 191/119/66 190/121/66 188/146/66
f 187/150/67 188/149/67 190/116/67 192/115/67
f 175/122/68 176/123/68 195/144/68 193/143/68
f 175/156/69 193/138/69 196/138/69 173/156/69
f 182/137/70 195/134/70 194/134/70 184/137/70
f 183/142/71 184/141/71 194/129/71 196/128/71
f 207/30/13 198/31/13 200/31/13 206/30/13
f 208/32/14 206/33/14 200/34/14 199/35/14
f 200/36/4 198/36/4 197/37/4 199/37/4
f 205/99/33 203/28/33 202/28/33 208/100/33
f 205/101/34 207/102/34 201/25/34 203/24/34
f 197/37/39 198/36/39 207/102/39 205/101/39
f 197/106/40 205/99/40 208/100/40 199/106/40
f 202/96/41 204/95/41 206/33/41 208/32/41
f 201/98/42 207/30/42 206/30/42 204/98/42
