# Blender 5.1.0
# www.blender.org
mtllib car.mtl
o Untitled.001
v -0.874461 -0.025177 1.389677
v -0.874461 -0.025177 0.889677
v -0.874461 -0.025177 -0.510323
v -0.874461 -0.025177 -1.010323
v -0.874461 0.174823 1.189677
v -0.874461 0.174823 1.089677
v -0.874461 0.174823 -0.710323
v -0.874461 0.174823 -0.810323
v -0.874461 0.274823 1.489677
v -0.874461 0.274823 1.389677
v -0.874461 0.274823 1.189677
v -0.874461 0.274823 1.089677
v -0.874461 0.274823 0.889677
v -0.874461 0.274823 0.789677
v -0.874461 0.274823 -0.410323
v -0.874461 0.274823 -0.510323
v -0.874461 0.274823 -0.710323
v -0.874461 0.274823 -0.810323
v -0.874461 0.274823 -1.010323
v -0.874461 0.274823 -1.110323
v -0.874461 0.474823 1.389677
v -0.874461 0.474823 0.889677
v -0.874461 0.474823 -0.510323
v -0.874461 0.474823 -1.010323
v -0.874461 0.574823 1.489677
v -0.874461 0.574823 0.789677
v -0.874461 0.574823 -0.410323
v -0.874461 0.574823 -1.110323
v -0.874461 0.774823 -0.110323
v -0.874461 0.774823 -0.210323
v -0.874461 0.774823 -0.710323
v -0.874461 0.774823 -0.810323
v -0.874461 0.974823 0.289677
v -0.874461 0.974823 0.189677
v -0.874461 0.974823 -0.110323
v -0.874461 0.974823 -0.210323
v -0.874461 0.974823 -0.710323
v -0.874461 0.974823 -0.810323
v -0.874461 1.174823 0.289677
v -0.874461 1.174823 0.189677
v -0.774462 0.174823 1.689677
v -0.774462 0.174823 1.389677
v -0.774462 0.174823 0.889677
v -0.774462 0.174823 -0.510323
v -0.774462 0.174823 -1.010323
v -0.774462 0.174823 -1.310323
v -0.774462 0.174823 -1.410323
v -0.774462 0.274823 1.689677
v -0.774462 0.274823 1.489677
v -0.774462 0.274823 1.389677
v -0.774462 0.274823 0.889677
v -0.774462 0.274823 0.789677
v -0.774462 0.274823 -0.410323
v -0.774462 0.274823 -0.510323
v -0.774462 0.274823 -1.010323
v -0.774462 0.274823 -1.110323
v -0.774462 0.274823 -1.210323
v -0.774462 0.274823 -1.310323
v -0.774462 0.274823 -1.410323
v -0.774462 0.374823 1.589677
v -0.774462 0.374823 1.489677
v -0.774462 0.374823 -1.210323
v -0.774462 0.374823 -1.310323
v -0.774462 0.474823 1.689677
v -0.774462 0.474823 1.589677
v -0.774462 0.574823 1.489677
v -0.774462 0.574823 0.789677
v -0.774462 0.574823 -0.410323
v -0.774462 0.574823 -1.110323
v -0.774462 0.674823 1.589677
v -0.774462 0.674823 1.489677
v -0.774462 0.774823 1.489677
v -0.774462 0.774823 0.489677
v -0.774462 0.774823 -0.110323
v -0.774462 0.774823 -0.210323
v -0.774462 0.774823 -0.710323
v -0.774462 0.774823 -0.810323
v -0.774462 0.874823 0.489677
v -0.774462 0.874823 0.389677
v -0.774462 0.874823 0.189677
v -0.774462 0.874823 -0.110323
v -0.774462 0.874823 -0.410323
v -0.774462 0.874823 -0.710323
v -0.774462 0.974823 0.289677
v -0.774462 0.974823 0.189677
v -0.774462 0.974823 -0.210323
v -0.774462 0.974823 -0.810323
v -0.774462 1.174823 0.289677
v -0.774462 1.174823 0.189677
v -0.774462 1.274823 0.189677
v -0.774462 1.274823 -0.210323
v -0.774462 1.274823 -0.410323
v -0.774462 1.274823 -0.810323
v -0.774462 1.374823 0.389677
v -0.774462 1.374823 0.289677
v -0.774462 1.374823 -1.110323
v -0.774462 1.374823 -1.210323
v -0.774462 1.474823 0.289677
v -0.774462 1.474823 -1.110323
v -0.674462 0.374823 -1.210323
v -0.674462 0.374823 -1.310323
v -0.674462 0.674823 1.589677
v -0.674462 0.674823 1.489677
v -0.674462 0.774823 1.589677
v -0.674462 0.774823 1.489677
v -0.674462 0.874823 0.489677
v -0.674462 0.874823 0.389677
v -0.674462 0.874823 0.189677
v -0.674462 0.874823 -0.110323
v -0.674462 0.874823 -0.410323
v -0.674462 0.874823 -0.710323
v -0.674462 0.974823 -0.110323
v -0.674462 0.974823 -0.210323
v -0.674462 0.974823 -0.710323
v -0.674462 0.974823 -0.810323
v -0.674462 1.274823 0.189677
v -0.674462 1.274823 -0.210323
v -0.674462 1.274823 -0.410323
v -0.674462 1.274823 -0.810323
v -0.674462 1.374823 0.389677
v -0.674462 1.374823 0.289677
v -0.674462 1.374823 -1.110323
v -0.674462 1.374823 -1.210323
v -0.674462 1.474823 0.489677
v -0.674462 1.474823 0.389677
v -0.674462 1.474823 0.289677
v -0.674462 1.474823 -1.110323
v -0.674462 1.474823 -1.210323
v -0.674462 1.474823 -1.310323
v -0.674462 1.574823 0.389677
v -0.674462 1.574823 0.289677
v -0.674462 1.574823 -1.110323
v -0.674462 1.574823 -1.210323
v -0.674462 1.674823 0.289677
v -0.674462 1.674823 -1.110323
v -0.574461 0.774823 1.389677
v -0.574461 0.774823 0.589677
v -0.574461 0.874823 1.389677
v -0.574461 0.874823 0.589677
v -0.474461 0.374823 -1.210323
v -0.474461 0.374823 -1.310323
v -0.474461 0.874823 -1.210323
v -0.474461 0.874823 -1.310323
v -0.274462 0.474823 1.689677
v -0.274462 0.474823 1.589677
v -0.274462 0.774823 1.589677
v -0.274462 0.774823 1.389677
v -0.274462 0.874823 1.689677
v -0.274462 0.874823 1.389677
v -0.074461 0.474823 1.689677
v -0.074461 0.474823 1.589677
v -0.074461 0.574823 1.689677
v -0.074461 0.574823 1.589677
v 0.125539 0.474823 1.689677
v 0.125539 0.474823 1.589677
v 0.125539 0.774823 1.589677
v 0.125539 0.774823 1.389677
v 0.125539 0.874823 1.689677
v 0.125539 0.874823 1.389677
v 0.325538 0.374823 -1.210323
v 0.325538 0.374823 -1.310323
v 0.325538 0.874823 -1.110323
v 0.325538 0.874823 -1.210323
v 0.325538 0.874823 -1.310323
v 0.325538 0.974823 -1.110323
v 0.325538 0.974823 -1.210323
v 0.425539 0.974823 -1.110323
v 0.425539 0.974823 -1.210323
v 0.425539 1.274822 -1.110323
v 0.425539 1.274822 -1.210323
v 0.525539 0.374823 -1.210323
v 0.525539 0.374823 -1.310323
v 0.525539 0.474823 0.089677
v 0.525539 0.474823 -0.010323
v 0.525539 0.574823 0.089677
v 0.525539 0.574823 -0.010323
v 0.525539 0.774823 0.489677
v 0.525539 0.774823 0.389677
v 0.525539 0.774823 0.189677
v 0.525539 0.774823 -0.910323
v 0.525539 1.374823 0.389677
v 0.525539 1.374823 0.189677
v 0.525539 1.374823 -0.910323
v 0.525539 1.374823 -1.210323
v 0.525539 1.474823 0.489677
v 0.525539 1.474823 0.389677
v 0.525539 1.474823 0.289677
v 0.525539 1.474823 0.089677
v 0.525539 1.474823 -0.010323
v 0.525539 1.474823 -0.210323
v 0.525539 1.474823 -0.310323
v 0.525539 1.474823 -0.510323
v 0.525539 1.474823 -0.610323
v 0.525539 1.474823 -0.810323
v 0.525539 1.474823 -0.910323
v 0.525539 1.474823 -1.110323
v 0.525539 1.474823 -1.210323
v 0.525539 1.474823 -1.310323
v 0.525539 1.574823 0.389677
v 0.525539 1.574823 0.289677
v 0.525539 1.574823 0.089677
v 0.525539 1.574823 -0.010323
v 0.525539 1.574823 -0.210323
v 0.525539 1.574823 -0.310323
v 0.525539 1.574823 -0.510323
v 0.525539 1.574823 -0.610323
v 0.525539 1.574823 -0.810323
v 0.525539 1.574823 -0.910323
v 0.525539 1.574823 -1.110323
v 0.525539 1.574823 -1.210323
v 0.525539 1.674823 0.289677
v 0.525539 1.674823 -1.110323
v 0.625539 0.474823 0.389677
v 0.625539 0.474823 0.289677
v 0.625539 0.474823 -0.010323
v 0.625539 0.474823 -1.110323
v 0.625539 0.574823 0.089677
v 0.625539 0.574823 -0.010323
v 0.625539 0.674823 0.189677
v 0.625539 0.674823 0.089677
v 0.625539 0.774823 0.389677
v 0.625539 0.774823 0.189677
v 0.625539 0.774823 -0.910323
v 0.625539 0.774823 -1.010323
v 0.625539 0.774823 -1.110323
v 0.625539 1.374823 0.389677
v 0.625539 1.374823 0.289677
v 0.625539 1.374823 -0.910323
v 0.625539 1.374823 -1.010323
v 0.725538 -0.025177 1.389677
v 0.725538 -0.025177 0.889677
v 0.725538 -0.025177 -0.510323
v 0.725538 -0.025177 -1.010323
v 0.725538 0.174823 1.389677
v 0.725538 0.174823 1.289677
v 0.725538 0.174823 0.989677
v 0.725538 0.174823 0.889677
v 0.725538 0.174823 -0.510323
v 0.725538 0.174823 -0.610323
v 0.725538 0.174823 -0.910323
v 0.725538 0.174823 -1.010323
v -0.774462 -0.025177 1.389677
v -0.774462 -0.025177 0.889677
v -0.774462 -0.025177 -0.510323
v -0.774462 -0.025177 -1.010323
v -0.774462 0.174823 1.389677
v -0.774462 0.174823 1.289677
v -0.774462 0.174823 0.989677
v -0.774462 0.174823 0.889677
v -0.774462 0.174823 -0.510323
v -0.774462 0.174823 -0.610323
v -0.774462 0.174823 -0.910323
v -0.774462 0.174823 -1.010323
v -0.674462 0.474823 0.389677
v -0.674462 0.474823 0.289677
v -0.674462 0.474823 -0.010323
v -0.674462 0.474823 -1.110323
v -0.674462 0.774823 0.389677
v -0.674462 0.774823 -0.010323
v -0.674462 0.774823 -1.110323
v -0.674462 1.374823 0.389677
v -0.674462 1.374823 0.289677
v -0.574461 0.374823 -1.210323
v -0.574461 0.374823 -1.310323
v -0.574461 0.774823 0.489677
v -0.574461 0.774823 0.389677
v -0.574461 0.774823 0.189677
v -0.574461 0.774823 -0.010323
v -0.574461 0.774823 -1.010323
v -0.574461 1.374823 0.389677
v -0.574461 1.374823 0.189677
v -0.574461 1.374823 -1.010323
v -0.574461 1.374823 -1.210323
v -0.574461 1.474823 0.489677
v -0.574461 1.474823 0.389677
v -0.574461 1.474823 0.289677
v -0.574461 1.474823 0.089677
v -0.574461 1.474823 -0.010323
v -0.574461 1.474823 -0.210323
v -0.574461 1.474823 -0.310323
v -0.574461 1.474823 -0.510323
v -0.574461 1.474823 -0.610323
v -0.574461 1.474823 -0.810323
v -0.574461 1.474823 -0.910323
v -0.574461 1.474823 -1.110323
v -0.574461 1.474823 -1.210323
v -0.574461 1.474823 -1.310323
v -0.574461 1.574823 0.389677
v -0.574461 1.574823 0.289677
v -0.574461 1.574823 0.089677
v -0.574461 1.574823 -0.010323
v -0.574461 1.574823 -0.210323
v -0.574461 1.574823 -0.310323
v -0.574461 1.574823 -0.510323
v -0.574461 1.574823 -0.610323
v -0.574461 1.574823 -0.810323
v -0.574461 1.574823 -0.910323
v -0.574461 1.574823 -1.110323
v -0.574461 1.574823 -1.210323
v -0.574461 1.674823 0.289677
v -0.574461 1.674823 -1.110323
v -0.474461 0.974823 -1.110323
v -0.474461 0.974823 -1.210323
v -0.474461 1.274822 -1.110323
v -0.474461 1.274822 -1.210323
v -0.374461 0.374823 -1.210323
v -0.374461 0.374823 -1.310323
v -0.374461 0.874823 -1.110323
v -0.374461 0.874823 -1.210323
v -0.374461 0.874823 -1.310323
v -0.374461 0.974823 -1.110323
v -0.374461 0.974823 -1.210323
v -0.174462 0.474823 1.689677
v -0.174462 0.474823 1.589677
v -0.174462 0.774823 1.589677
v -0.174462 0.774823 1.389677
v -0.174462 0.874823 1.689677
v -0.174462 0.874823 1.389677
v 0.025539 0.474823 1.689677
v 0.025539 0.474823 1.589677
v 0.025539 0.574823 1.689677
v 0.025539 0.574823 1.589677
v 0.225538 0.474823 1.689677
v 0.225538 0.474823 1.589677
v 0.225538 0.774823 1.589677
v 0.225538 0.774823 1.389677
v 0.225538 0.874823 1.689677
v 0.225538 0.874823 1.389677
v 0.425539 0.374823 -1.210323
v 0.425539 0.374823 -1.310323
v 0.425539 0.474823 0.089677
v 0.425539 0.474823 -0.010323
v 0.425539 0.674823 0.189677
v 0.425539 0.674823 0.089677
v 0.425539 0.774823 0.189677
v 0.425539 0.774823 -0.010323
v 0.425539 0.874823 -1.210323
v 0.425539 0.874823 -1.310323
v 0.525539 0.774823 1.389677
v 0.525539 0.774823 0.589677
v 0.525539 0.874823 1.389677
v 0.525539 0.874823 0.589677
v 0.625539 0.374823 -1.210323
v 0.625539 0.374823 -1.310323
v 0.625539 0.674823 1.589677
v 0.625539 0.674823 1.489677
v 0.625539 0.774823 1.589677
v 0.625539 0.774823 1.489677
v 0.625539 0.874823 0.489677
v 0.625539 0.874823 0.389677
v 0.625539 0.874823 0.189677
v 0.625539 0.874823 -0.110323
v 0.625539 0.874823 -0.410323
v 0.625539 0.874823 -0.710323
v 0.625539 0.974823 -0.110323
v 0.625539 0.974823 -0.210323
v 0.625539 0.974823 -0.710323
v 0.625539 0.974823 -0.810323
v 0.625539 1.274823 0.189677
v 0.625539 1.274823 -0.210323
v 0.625539 1.274823 -0.410323
v 0.625539 1.274823 -0.810323
v 0.625539 1.374823 0.389677
v 0.625539 1.374823 0.289677
v 0.625539 1.374823 -1.110323
v 0.625539 1.374823 -1.210323
v 0.625539 1.474823 0.489677
v 0.625539 1.474823 0.389677
v 0.625539 1.474823 0.289677
v 0.625539 1.474823 -1.110323
v 0.625539 1.474823 -1.210323
v 0.625539 1.474823 -1.310323
v 0.625539 1.574823 0.389677
v 0.625539 1.574823 0.289677
v 0.625539 1.574823 -1.110323
v 0.625539 1.574823 -1.210323
v 0.625539 1.674823 0.289677
v 0.625539 1.674823 -1.110323
v 0.725538 0.174823 1.689677
v 0.725538 0.174823 1.389677
v 0.725538 0.174823 0.889677
v 0.725538 0.174823 -0.510323
v 0.725538 0.174823 -1.010323
v 0.725538 0.174823 -1.310323
v 0.725538 0.174823 -1.410323
v 0.725538 0.274823 1.689677
v 0.725538 0.274823 1.489677
v 0.725538 0.274823 1.389677
v 0.725538 0.274823 0.889677
v 0.725538 0.274823 0.789677
v 0.725538 0.274823 -0.410323
v 0.725538 0.274823 -0.510323
v 0.725538 0.274823 -1.010323
v 0.725538 0.274823 -1.110323
v 0.725538 0.274823 -1.210323
v 0.725538 0.274823 -1.310323
v 0.725538 0.274823 -1.410323
v 0.725538 0.374823 1.589677
v 0.725538 0.374823 1.489677
v 0.725538 0.374823 -1.210323
v 0.725538 0.374823 -1.310323
v 0.725538 0.474823 1.689677
v 0.725538 0.474823 1.589677
v 0.725538 0.574823 1.489677
v 0.725538 0.574823 0.789677
v 0.725538 0.574823 -0.410323
v 0.725538 0.574823 -1.010323
v 0.725538 0.574823 -1.110323
v 0.725538 0.674823 1.589677
v 0.725538 0.674823 1.489677
v 0.725538 0.774823 1.489677
v 0.725538 0.774823 0.489677
v 0.725538 0.774823 -0.110323
v 0.725538 0.774823 -0.210323
v 0.725538 0.774823 -0.710323
v 0.725538 0.774823 -0.810323
v 0.725538 0.874823 0.489677
v 0.725538 0.874823 0.389677
v 0.725538 0.874823 0.189677
v 0.725538 0.874823 -0.110323
v 0.725538 0.874823 -0.410323
v 0.725538 0.874823 -0.710323
v 0.725538 0.974823 0.289677
v 0.725538 0.974823 0.189677
v 0.725538 0.974823 -0.210323
v 0.725538 0.974823 -0.810323
v 0.725538 1.174823 0.289677
v 0.725538 1.174823 0.189677
v 0.725538 1.274823 0.189677
v 0.725538 1.274823 -0.210323
v 0.725538 1.274823 -0.410323
v 0.725538 1.274823 -0.810323
v 0.725538 1.374823 0.389677
v 0.725538 1.374823 0.289677
v 0.725538 1.374823 -1.010323
v 0.725538 1.374823 -1.110323
v 0.725538 1.374823 -1.210323
v 0.725538 1.474823 0.289677
v 0.725538 1.474823 -1.110323
v 0.825538 -0.025177 1.389677
v 0.825538 -0.025177 0.889677
v 0.825538 -0.025177 -0.510323
v 0.825538 -0.025177 -1.010323
v 0.825538 0.174823 1.189677
v 0.825538 0.174823 1.089677
v 0.825538 0.174823 -0.710323
v 0.825538 0.174823 -0.810323
v 0.825538 0.274823 1.489677
v 0.825538 0.274823 1.389677
v 0.825538 0.274823 1.189677
v 0.825538 0.274823 1.089677
v 0.825538 0.274823 0.889677
v 0.825538 0.274823 0.789677
v 0.825538 0.274823 -0.410323
v 0.825538 0.274823 -0.510323
v 0.825538 0.274823 -0.710323
v 0.825538 0.274823 -0.810323
v 0.825538 0.274823 -1.010323
v 0.825538 0.274823 -1.110323
v 0.825538 0.474823 1.389677
v 0.825538 0.474823 0.889677
v 0.825538 0.474823 -0.510323
v 0.825538 0.474823 -1.010323
v 0.825538 0.574823 1.489677
v 0.825538 0.574823 0.789677
v 0.825538 0.574823 -0.410323
v 0.825538 0.574823 -1.010323
v 0.825538 0.574823 -1.110323
v 0.825538 0.774823 -0.110323
v 0.825538 0.774823 -0.210323
v 0.825538 0.774823 -0.710323
v 0.825538 0.774823 -0.810323
v 0.825538 0.974823 0.289677
v 0.825538 0.974823 0.189677
v 0.825538 0.974823 -0.110323
v 0.825538 0.974823 -0.210323
v 0.825538 0.974823 -0.710323
v 0.825538 0.974823 -0.810323
v 0.825538 1.174823 0.289677
v 0.825538 1.174823 0.189677
v 0.825538 1.374823 -1.010323
v 0.825538 1.374823 -1.110323
v -0.774462 0.174823 1.689677
v -0.774462 0.274823 1.689677
v -0.774462 0.474823 1.689677
v -0.674462 0.274823 1.689677
v -0.674462 0.374823 1.689677
v -0.574461 0.274823 1.689677
v -0.574461 0.374823 1.689677
v -0.474461 0.274823 1.689677
v -0.474461 0.374823 1.689677
v -0.374461 0.274823 1.689677
v -0.374461 0.374823 1.689677
v -0.274462 0.274823 1.689677
v -0.274462 0.374823 1.689677
v -0.274462 0.474823 1.689677
v -0.274462 0.874823 1.689677
v -0.174462 0.274823 1.689677
v -0.174462 0.374823 1.689677
v -0.174462 0.474823 1.689677
v -0.174462 0.874823 1.689677
v -0.074461 0.274823 1.689677
v -0.074461 0.374823 1.689677
v -0.074461 0.474823 1.689677
v -0.074461 0.574823 1.689677
v 0.025539 0.274823 1.689677
v 0.025539 0.374823 1.689677
v 0.025539 0.474823 1.689677
v 0.025539 0.574823 1.689677
v 0.125539 0.274823 1.689677
v 0.125539 0.374823 1.689677
v 0.125539 0.474823 1.689677
v 0.125539 0.874823 1.689677
v 0.225538 0.274823 1.689677
v 0.225538 0.374823 1.689677
v 0.225538 0.474823 1.689677
v 0.225538 0.874823 1.689677
v 0.325538 0.274823 1.689677
v 0.325538 0.374823 1.689677
v 0.425539 0.274823 1.689677
v 0.425539 0.374823 1.689677
v 0.525539 0.274823 1.689677
v 0.525539 0.374823 1.689677
v 0.625539 0.274823 1.689677
v 0.625539 0.374823 1.689677
v 0.725538 0.174823 1.689677
v 0.725538 0.274823 1.689677
v 0.725538 0.474823 1.689677
v -0.774462 0.474823 1.589677
v -0.774462 0.674823 1.589677
v -0.674462 0.574823 1.589677
v -0.674462 0.674823 1.589677
v -0.674462 0.774823 1.589677
v -0.474461 0.574823 1.589677
v -0.474461 0.674823 1.589677
v -0.274462 0.474823 1.589677
v -0.274462 0.774823 1.589677
v -0.174462 0.474823 1.589677
v -0.174462 0.774823 1.589677
v -0.074461 0.474823 1.589677
v -0.074461 0.574823 1.589677
v 0.025539 0.474823 1.589677
v 0.025539 0.574823 1.589677
v 0.125539 0.474823 1.589677
v 0.125539 0.774823 1.589677
v 0.225538 0.474823 1.589677
v 0.225538 0.774823 1.589677
v 0.425539 0.574823 1.589677
v 0.425539 0.674823 1.589677
v 0.625539 0.574823 1.589677
v 0.625539 0.674823 1.589677
v 0.625539 0.774823 1.589677
v 0.725538 0.474823 1.589677
v 0.725538 0.674823 1.589677
v -0.874461 0.274823 1.489677
v -0.874461 0.574823 1.489677
v -0.774462 0.274823 1.489677
v -0.774462 0.374823 1.489677
v -0.774462 0.574823 1.489677
v -0.774462 0.674823 1.489677
v -0.774462 0.774823 1.489677
v -0.674462 0.674823 1.489677
v -0.674462 0.774823 1.489677
v 0.625539 0.674823 1.489677
v 0.625539 0.774823 1.489677
v 0.725538 0.274823 1.489677
v 0.725538 0.374823 1.489677
v 0.725538 0.574823 1.489677
v 0.725538 0.674823 1.489677
v 0.725538 0.774823 1.489677
v 0.825538 0.274823 1.489677
v 0.825538 0.574823 1.489677
v -0.874461 -0.025177 1.389677
v -0.874461 0.274823 1.389677
v -0.774462 -0.025177 1.389677
v -0.774462 0.174823 1.389677
v -0.774462 0.274823 1.389677
v -0.574461 0.774823 1.389677
v -0.574461 0.874823 1.389677
v -0.274462 0.774823 1.389677
v -0.274462 0.874823 1.389677
v -0.174462 0.774823 1.389677
v -0.174462 0.874823 1.389677
v 0.125539 0.774823 1.389677
v 0.125539 0.874823 1.389677
v 0.225538 0.774823 1.389677
v 0.225538 0.874823 1.389677
v 0.525539 0.774823 1.389677
v 0.525539 0.874823 1.389677
v 0.725538 -0.025177 1.389677
v 0.725538 0.174823 1.389677
v 0.725538 0.274823 1.389677
v 0.825538 -0.025177 1.389677
v 0.825538 0.274823 1.389677
v -0.774462 0.774823 0.489677
v -0.774462 0.874823 0.489677
v -0.674462 0.774823 0.489677
v -0.674462 0.874823 0.489677
v -0.674462 1.474823 0.489677
v -0.574461 0.774823 0.489677
v -0.574461 1.474823 0.489677
v 0.525539 0.774823 0.489677
v 0.525539 1.474823 0.489677
v 0.625539 0.774823 0.489677
v 0.625539 0.874823 0.489677
v 0.625539 1.474823 0.489677
v 0.725538 0.774823 0.489677
v 0.725538 0.874823 0.489677
v -0.774462 0.874823 0.389677
v -0.774462 1.374823 0.389677
v -0.674462 0.874823 0.389677
v -0.674462 1.374823 0.389677
v -0.674462 1.474823 0.389677
v -0.674462 1.574823 0.389677
v -0.574461 1.374823 0.389677
v -0.574461 1.474823 0.389677
v -0.574461 1.574823 0.389677
v 0.525539 1.374823 0.389677
v 0.525539 1.474823 0.389677
v 0.525539 1.574823 0.389677
v 0.625539 0.874823 0.389677
v 0.625539 1.374823 0.389677
v 0.625539 1.474823 0.389677
v 0.625539 1.574823 0.389677
v 0.725538 0.874823 0.389677
v 0.725538 1.374823 0.389677
v -0.874461 0.974823 0.289677
v -0.874461 1.174823 0.289677
v -0.774462 0.974823 0.289677
v -0.774462 1.174823 0.289677
v -0.774462 1.374823 0.289677
v -0.774462 1.474823 0.289677
v -0.674462 0.474823 0.289677
v -0.674462 1.374823 0.289677
v -0.674462 1.474823 0.289677
v -0.674462 1.574823 0.289677
v -0.674462 1.674823 0.289677
v -0.574461 1.574823 0.289677
v -0.574461 1.674823 0.289677
v 0.525539 1.574823 0.289677
v 0.525539 1.674823 0.289677
v 0.625539 0.474823 0.289677
v 0.625539 1.374823 0.289677
v 0.625539 1.474823 0.289677
v 0.625539 1.574823 0.289677
v 0.625539 1.674823 0.289677
v 0.725538 0.974823 0.289677
v 0.725538 1.174823 0.289677
v 0.725538 1.374823 0.289677
v 0.725538 1.474823 0.289677
v 0.825538 0.974823 0.289677
v 0.825538 1.174823 0.289677
v -0.574461 1.474823 0.089677
v -0.574461 1.574823 0.089677
v 0.525539 1.474823 0.089677
v 0.525539 1.574823 0.089677
v -0.874461 0.774823 -0.110323
v -0.874461 0.974823 -0.110323
v -0.774462 0.774823 -0.110323
v -0.774462 0.874823 -0.110323
v -0.674462 0.874823 -0.110323
v -0.674462 0.974823 -0.110323
v 0.625539 0.874823 -0.110323
v 0.625539 0.974823 -0.110323
v 0.725538 0.774823 -0.110323
v 0.725538 0.874823 -0.110323
v 0.825538 0.774823 -0.110323
v 0.825538 0.974823 -0.110323
v -0.774462 0.974823 -0.210323
v -0.774462 1.274823 -0.210323
v -0.674462 0.974823 -0.210323
v -0.674462 1.274823 -0.210323
v -0.574461 1.474823 -0.210323
v -0.574461 1.574823 -0.210323
v 0.525539 1.474823 -0.210323
v 0.525539 1.574823 -0.210323
v 0.625539 0.974823 -0.210323
v 0.625539 1.274823 -0.210323
v 0.725538 0.974823 -0.210323
v 0.725538 1.274823 -0.210323
v -0.874461 0.274823 -0.410323
v -0.874461 0.574823 -0.410323
v -0.774462 0.274823 -0.410323
v -0.774462 0.574823 -0.410323
v 0.725538 0.274823 -0.410323
v 0.725538 0.574823 -0.410323
v 0.825538 0.274823 -0.410323
v 0.825538 0.574823 -0.410323
v -0.874461 -0.025177 -0.510323
v -0.874461 0.274823 -0.510323
v -0.774462 -0.025177 -0.510323
v -0.774462 0.174823 -0.510323
v -0.774462 0.274823 -0.510323
v -0.574461 1.474823 -0.510323
v -0.574461 1.574823 -0.510323
v 0.525539 1.474823 -0.510323
v 0.525539 1.574823 -0.510323
v 0.725538 -0.025177 -0.510323
v 0.725538 0.174823 -0.510323
v 0.725538 0.274823 -0.510323
v 0.825538 -0.025177 -0.510323
v 0.825538 0.274823 -0.510323
v -0.874461 0.774823 -0.710323
v -0.874461 0.974823 -0.710323
v -0.774462 0.774823 -0.710323
v -0.774462 0.874823 -0.710323
v -0.674462 0.874823 -0.710323
v -0.674462 0.974823 -0.710323
v 0.625539 0.874823 -0.710323
v 0.625539 0.974823 -0.710323
v 0.725538 0.774823 -0.710323
v 0.725538 0.874823 -0.710323
v 0.825538 0.774823 -0.710323
v 0.825538 0.974823 -0.710323
v -0.774462 0.974823 -0.810323
v -0.774462 1.274823 -0.810323
v -0.674462 0.974823 -0.810323
v -0.674462 1.274823 -0.810323
v -0.574461 1.474823 -0.810323
v -0.574461 1.574823 -0.810323
v 0.525539 1.474823 -0.810323
v 0.525539 1.574823 -0.810323
v 0.625539 0.974823 -0.810323
v 0.625539 1.274823 -0.810323
v 0.725538 0.974823 -0.810323
v 0.725538 1.274823 -0.810323
v -0.574461 0.774823 -1.010323
v -0.574461 1.374823 -1.010323
v 0.625539 0.774823 -1.010323
v 0.625539 1.374823 -1.010323
v 0.725538 0.574823 -1.010323
v 0.725538 1.374823 -1.010323
v 0.825538 0.574823 -1.010323
v 0.825538 1.374823 -1.010323
v -0.674462 0.474823 -1.110323
v -0.674462 0.774823 -1.110323
v 0.625539 0.474823 -1.110323
v 0.625539 0.774823 -1.110323
v -0.874461 -0.025177 0.889677
v -0.874461 0.274823 0.889677
v -0.774462 -0.025177 0.889677
v -0.774462 0.174823 0.889677
v -0.774462 0.274823 0.889677
v 0.725538 -0.025177 0.889677
v 0.725538 0.174823 0.889677
v 0.725538 0.274823 0.889677
v 0.825538 -0.025177 0.889677
v 0.825538 0.274823 0.889677
v -0.874461 0.274823 0.789677
v -0.874461 0.574823 0.789677
v -0.774462 0.274823 0.789677
v -0.774462 0.574823 0.789677
v 0.725538 0.274823 0.789677
v 0.725538 0.574823 0.789677
v 0.825538 0.274823 0.789677
v 0.825538 0.574823 0.789677
v -0.574461 0.774823 0.589677
v -0.574461 0.874823 0.589677
v 0.525539 0.774823 0.589677
v 0.525539 0.874823 0.589677
v -0.674462 0.474823 0.389677
v -0.674462 0.774823 0.389677
v -0.674462 1.374823 0.389677
v -0.574461 0.774823 0.389677
v -0.574461 1.374823 0.389677
v 0.525539 0.774823 0.389677
v 0.525539 1.374823 0.389677
v 0.625539 0.474823 0.389677
v 0.625539 0.774823 0.389677
v 0.625539 1.374823 0.389677
v -0.874461 0.974823 0.189677
v -0.874461 1.174823 0.189677
v -0.774462 0.874823 0.189677
v -0.774462 0.974823 0.189677
v -0.774462 1.174823 0.189677
v -0.774462 1.274823 0.189677
v -0.674462 0.874823 0.189677
v -0.674462 1.274823 0.189677
v -0.574461 0.774823 0.189677
v -0.574461 1.374823 0.189677
v 0.425539 0.674823 0.189677
v 0.425539 0.774823 0.189677
v 0.525539 0.774823 0.189677
v 0.525539 1.374823 0.189677
v 0.625539 0.674823 0.189677
v 0.625539 0.774823 0.189677
v 0.625539 0.874823 0.189677
v 0.625539 1.274823 0.189677
v 0.725538 0.874823 0.189677
v 0.725538 0.974823 0.189677
v 0.725538 1.174823 0.189677
v 0.725538 1.274823 0.189677
v 0.825538 0.974823 0.189677
v 0.825538 1.174823 0.189677
v 0.425539 0.474823 0.089677
v 0.425539 0.674823 0.089677
v 0.525539 0.474823 0.089677
v 0.525539 0.574823 0.089677
v 0.625539 0.574823 0.089677
v 0.625539 0.674823 0.089677
v -0.674462 0.474823 -0.010323
v -0.674462 0.774823 -0.010323
v -0.574461 0.774823 -0.010323
v -0.574461 1.474823 -0.010323
v -0.574461 1.574823 -0.010323
v 0.425539 0.474823 -0.010323
v 0.425539 0.774823 -0.010323
v 0.525539 0.474823 -0.010323
v 0.525539 0.574823 -0.010323
v 0.525539 1.474823 -0.010323
v 0.525539 1.574823 -0.010323
v 0.625539 0.474823 -0.010323
v 0.625539 0.574823 -0.010323
v -0.874461 0.774823 -0.210323
v -0.874461 0.974823 -0.210323
v -0.774462 0.774823 -0.210323
v -0.774462 0.974823 -0.210323
v 0.725538 0.774823 -0.210323
v 0.725538 0.974823 -0.210323
v 0.825538 0.774823 -0.210323
v 0.825538 0.974823 -0.210323
v -0.574461 1.474823 -0.310323
v -0.574461 1.574823 -0.310323
v 0.525539 1.474823 -0.310323
v 0.525539 1.574823 -0.310323
v -0.774462 0.874823 -0.410323
v -0.774462 1.274823 -0.410323
v -0.674462 0.874823 -0.410323
v -0.674462 1.274823 -0.410323
v 0.625539 0.874823 -0.410323
v 0.625539 1.274823 -0.410323
v 0.725538 0.874823 -0.410323
v 0.725538 1.274823 -0.410323
v -0.574461 1.474823 -0.610323
v -0.574461 1.574823 -0.610323
v 0.525539 1.474823 -0.610323
v 0.525539 1.574823 -0.610323
v -0.874461 0.774823 -0.810323
v -0.874461 0.974823 -0.810323
v -0.774462 0.774823 -0.810323
v -0.774462 0.974823 -0.810323
v 0.725538 0.774823 -0.810323
v 0.725538 0.974823 -0.810323
v 0.825538 0.774823 -0.810323
v 0.825538 0.974823 -0.810323
v -0.574461 1.474823 -0.910323
v -0.574461 1.574823 -0.910323
v 0.525539 0.774823 -0.910323
v 0.525539 1.374823 -0.910323
v 0.525539 1.474823 -0.910323
v 0.525539 1.574823 -0.910323
v 0.625539 0.774823 -0.910323
v 0.625539 1.374823 -0.910323
v -0.874461 -0.025177 -1.010323
v -0.874461 0.274823 -1.010323
v -0.774462 -0.025177 -1.010323
v -0.774462 0.174823 -1.010323
v -0.774462 0.274823 -1.010323
v 0.725538 -0.025177 -1.010323
v 0.725538 0.174823 -1.010323
v 0.725538 0.274823 -1.010323
v 0.825538 -0.025177 -1.010323
v 0.825538 0.274823 -1.010323
v -0.874461 0.274823 -1.110323
v -0.874461 0.574823 -1.110323
v -0.774462 0.274823 -1.110323
v -0.774462 0.574823 -1.110323
v -0.774462 1.374823 -1.110323
v -0.774462 1.474823 -1.110323
v -0.674462 1.374823 -1.110323
v -0.674462 1.474823 -1.110323
v -0.674462 1.574823 -1.110323
v -0.674462 1.674823 -1.110323
v -0.574461 1.574823 -1.110323
v -0.574461 1.674823 -1.110323
v -0.474461 0.974823 -1.110323
v -0.474461 1.274822 -1.110323
v -0.374461 0.874823 -1.110323
v -0.374461 0.974823 -1.110323
v 0.325538 0.874823 -1.110323
v 0.325538 0.974823 -1.110323
v 0.425539 0.974823 -1.110323
v 0.425539 1.274822 -1.110323
v 0.525539 1.574823 -1.110323
v 0.525539 1.674823 -1.110323
v 0.625539 1.374823 -1.110323
v 0.625539 1.474823 -1.110323
v 0.625539 1.574823 -1.110323
v 0.625539 1.674823 -1.110323
v 0.725538 0.274823 -1.110323
v 0.725538 0.574823 -1.110323
v 0.725538 1.374823 -1.110323
v 0.725538 1.474823 -1.110323
v 0.825538 0.274823 -1.110323
v 0.825538 0.574823 -1.110323
v 0.825538 1.374823 -1.110323
v -0.774462 0.374823 -1.210323
v -0.774462 1.374823 -1.210323
v -0.674462 0.374823 -1.210323
v -0.674462 1.374823 -1.210323
v -0.674462 1.474823 -1.210323
v -0.674462 1.574823 -1.210323
v -0.574461 0.374823 -1.210323
v -0.574461 1.374823 -1.210323
v -0.574461 1.474823 -1.210323
v -0.574461 1.574823 -1.210323
v -0.474461 0.374823 -1.210323
v -0.474461 0.874823 -1.210323
v -0.474461 0.974823 -1.210323
v -0.474461 1.274822 -1.210323
v -0.374461 0.374823 -1.210323
v -0.374461 0.874823 -1.210323
v -0.374461 0.974823 -1.210323
v 0.325538 0.374823 -1.210323
v 0.325538 0.874823 -1.210323
v 0.325538 0.974823 -1.210323
v 0.425539 0.374823 -1.210323
v 0.425539 0.874823 -1.210323
v 0.425539 0.974823 -1.210323
v 0.425539 1.274822 -1.210323
v 0.525539 0.374823 -1.210323
v 0.525539 1.374823 -1.210323
v 0.525539 1.474823 -1.210323
v 0.525539 1.574823 -1.210323
v 0.625539 0.374823 -1.210323
v 0.625539 1.374823 -1.210323
v 0.625539 1.474823 -1.210323
v 0.625539 1.574823 -1.210323
v 0.725538 0.374823 -1.210323
v 0.725538 1.374823 -1.210323
v -0.774462 0.274823 -1.310323
v -0.774462 0.374823 -1.310323
v -0.674462 0.274823 -1.310323
v -0.674462 0.374823 -1.310323
v -0.674462 1.474823 -1.310323
v -0.574461 0.274823 -1.310323
v -0.574461 0.374823 -1.310323
v -0.574461 1.474823 -1.310323
v -0.474461 0.274823 -1.310323
v -0.474461 0.374823 -1.310323
v -0.474461 0.874823 -1.310323
v -0.374461 0.274823 -1.310323
v -0.374461 0.374823 -1.310323
v -0.374461 0.874823 -1.310323
v 0.325538 0.274823 -1.310323
v 0.325538 0.374823 -1.310323
v 0.325538 0.874823 -1.310323
v 0.425539 0.274823 -1.310323
v 0.425539 0.374823 -1.310323
v 0.425539 0.874823 -1.310323
v 0.525539 0.274823 -1.310323
v 0.525539 0.374823 -1.310323
v 0.525539 1.474823 -1.310323
v 0.625539 0.274823 -1.310323
v 0.625539 0.374823 -1.310323
v 0.625539 1.474823 -1.310323
v 0.725538 0.274823 -1.310323
v 0.725538 0.374823 -1.310323
v -0.774462 0.174823 -1.410323
v -0.774462 0.274823 -1.410323
v 0.725538 0.174823 -1.410323
v 0.725538 0.274823 -1.410323
v -0.874461 -0.025177 1.389677
v -0.774462 -0.025177 1.389677
v 0.725538 -0.025177 1.389677
v 0.825538 -0.025177 1.389677
v -0.874461 -0.025177 0.889677
v -0.774462 -0.025177 0.889677
v 0.725538 -0.025177 0.889677
v 0.825538 -0.025177 0.889677
v -0.874461 -0.025177 -0.510323
v -0.774462 -0.025177 -0.510323
v 0.725538 -0.025177 -0.510323
v 0.825538 -0.025177 -0.510323
v -0.874461 -0.025177 -1.010323
v -0.774462 -0.025177 -1.010323
v 0.725538 -0.025177 -1.010323
v 0.825538 -0.025177 -1.010323
v -0.774462 0.174823 1.689677
v 0.725538 0.174823 1.689677
v -0.474461 0.174823 1.489677
v 0.425539 0.174823 1.489677
v -0.774462 0.174823 1.389677
v -0.474461 0.174823 1.389677
v -0.374461 0.174823 1.389677
v 0.325538 0.174823 1.389677
v 0.425539 0.174823 1.389677
v 0.725538 0.174823 1.389677
v -0.774462 0.174823 1.289677
v -0.674462 0.174823 1.289677
v -0.374461 0.174823 1.289677
v -0.274462 0.174823 1.289677
v 0.225538 0.174823 1.289677
v 0.325538 0.174823 1.289677
v 0.625539 0.174823 1.289677
v 0.725538 0.174823 1.289677
v -0.674462 0.174823 1.189677
v -0.274462 0.174823 1.189677
v 0.225538 0.174823 1.189677
v 0.625539 0.174823 1.189677
v -0.674462 0.174823 1.089677
v -0.074461 0.174823 1.089677
v 0.025539 0.174823 1.089677
v 0.625539 0.174823 1.089677
v -0.774462 0.174823 0.989677
v -0.674462 0.174823 0.989677
v -0.474461 0.174823 0.989677
v -0.274462 0.174823 0.989677
v 0.225538 0.174823 0.989677
v 0.525539 0.174823 0.989677
v 0.625539 0.174823 0.989677
v 0.725538 0.174823 0.989677
v -0.774462 0.174823 0.889677
v 0.225538 0.174823 0.889677
v 0.425539 0.174823 0.889677
v 0.725538 0.174823 0.889677
v 0.425539 0.174823 0.789677
v 0.525539 0.174823 0.789677
v -0.474461 0.174823 0.689677
v -0.274462 0.174823 0.689677
v 0.025539 0.174823 0.689677
v 0.325538 0.174823 0.689677
v -0.474461 0.174823 0.589677
v -0.274462 0.174823 0.589677
v 0.025539 0.174823 0.589677
v 0.125539 0.174823 0.589677
v -0.474461 0.174823 0.289677
v -0.274462 0.174823 0.289677
v -0.074461 0.174823 0.289677
v -0.474461 0.174823 0.189677
v -0.374461 0.174823 0.189677
v -0.174462 0.174823 0.089677
v -0.074461 0.174823 0.089677
v 0.125539 0.174823 0.089677
v 0.225538 0.174823 0.089677
v 0.225538 0.174823 -0.010323
v 0.325538 0.174823 -0.010323
v -0.474461 0.174823 -0.210323
v -0.374461 0.174823 -0.210323
v -0.174462 0.174823 -0.210323
v -0.074461 0.174823 -0.210323
v 0.125539 0.174823 -0.210323
v 0.325538 0.174823 -0.210323
v -0.474461 0.174823 -0.310323
v -0.374461 0.174823 -0.310323
v -0.274462 0.174823 -0.310323
v -0.074461 0.174823 -0.310323
v -0.374461 0.174823 -0.410323
v -0.274462 0.174823 -0.410323
v -0.774462 0.174823 -0.510323
v -0.474461 0.174823 -0.510323
v -0.274462 0.174823 -0.510323
v 0.125539 0.174823 -0.510323
v 0.325538 0.174823 -0.510323
v 0.725538 0.174823 -0.510323
v -0.774462 0.174823 -0.610323
v -0.674462 0.174823 -0.610323
v 0.625539 0.174823 -0.610323
v 0.725538 0.174823 -0.610323
v -0.674462 0.174823 -0.710323
v -0.074461 0.174823 -0.710323
v 0.025539 0.174823 -0.710323
v 0.625539 0.174823 -0.710323
v -0.674462 0.174823 -0.810323
v -0.074461 0.174823 -0.810323
v 0.025539 0.174823 -0.810323
v 0.625539 0.174823 -0.810323
v -0.774462 0.174823 -0.910323
v -0.674462 0.174823 -0.910323
v -0.374461 0.174823 -0.910323
v -0.074461 0.174823 -0.910323
v 0.025539 0.174823 -0.910323
v 0.325538 0.174823 -0.910323
v 0.625539 0.174823 -0.910323
v 0.725538 0.174823 -0.910323
v -0.774462 0.174823 -1.010323
v 0.725538 0.174823 -1.010323
v -0.374461 0.174823 -1.210323
v 0.325538 0.174823 -1.210323
v -0.774462 0.174823 -1.310323
v 0.725538 0.174823 -1.310323
v -0.774462 0.174823 -1.410323
v 0.725538 0.174823 -1.410323
v -0.874461 0.274823 1.489677
v -0.774462 0.274823 1.489677
v 0.725538 0.274823 1.489677
v 0.825538 0.274823 1.489677
v -0.874461 0.274823 1.389677
v -0.774462 0.274823 1.389677
v 0.725538 0.274823 1.389677
v 0.825538 0.274823 1.389677
v -0.874461 0.274823 0.889677
v -0.774462 0.274823 0.889677
v 0.725538 0.274823 0.889677
v 0.825538 0.274823 0.889677
v -0.874461 0.274823 0.789677
v -0.774462 0.274823 0.789677
v 0.725538 0.274823 0.789677
v 0.825538 0.274823 0.789677
v -0.874461 0.274823 -0.410323
v -0.774462 0.274823 -0.410323
v 0.725538 0.274823 -0.410323
v 0.825538 0.274823 -0.410323
v -0.874461 0.274823 -0.510323
v -0.774462 0.274823 -0.510323
v 0.725538 0.274823 -0.510323
v 0.825538 0.274823 -0.510323
v -0.874461 0.274823 -1.010323
v -0.774462 0.274823 -1.010323
v 0.725538 0.274823 -1.010323
v 0.825538 0.274823 -1.010323
v -0.874461 0.274823 -1.110323
v -0.774462 0.274823 -1.110323
v 0.725538 0.274823 -1.110323
v 0.825538 0.274823 -1.110323
v 0.525539 0.774823 0.189677
v 0.625539 0.774823 0.189677
v -0.674462 0.774823 -0.010323
v -0.574461 0.774823 -0.010323
v -0.874461 0.774823 -0.110323
v -0.774462 0.774823 -0.110323
v 0.725538 0.774823 -0.110323
v 0.825538 0.774823 -0.110323
v -0.874461 0.774823 -0.210323
v -0.774462 0.774823 -0.210323
v 0.725538 0.774823 -0.210323
v 0.825538 0.774823 -0.210323
v -0.874461 0.774823 -0.710323
v -0.774462 0.774823 -0.710323
v 0.725538 0.774823 -0.710323
v 0.825538 0.774823 -0.710323
v -0.874461 0.774823 -0.810323
v -0.774462 0.774823 -0.810323
v 0.725538 0.774823 -0.810323
v 0.825538 0.774823 -0.810323
v 0.525539 0.774823 -0.910323
v 0.625539 0.774823 -0.910323
v -0.574461 0.774823 -1.010323
v 0.625539 0.774823 -1.010323
v -0.674462 0.774823 -1.110323
v 0.625539 0.774823 -1.110323
v -0.874461 0.974823 0.289677
v -0.774462 0.974823 0.289677
v 0.725538 0.974823 0.289677
v 0.825538 0.974823 0.289677
v -0.874461 0.974823 0.189677
v -0.774462 0.974823 0.189677
v 0.725538 0.974823 0.189677
v 0.825538 0.974823 0.189677
v -0.774462 1.274823 0.189677
v -0.674462 1.274823 0.189677
v 0.625539 1.274823 0.189677
v 0.725538 1.274823 0.189677
v -0.774462 1.274823 -0.210323
v -0.674462 1.274823 -0.210323
v 0.625539 1.274823 -0.210323
v 0.725538 1.274823 -0.210323
v -0.774462 1.274823 -0.410323
v -0.674462 1.274823 -0.410323
v 0.625539 1.274823 -0.410323
v 0.725538 1.274823 -0.410323
v -0.774462 1.274823 -0.810323
v -0.674462 1.274823 -0.810323
v 0.625539 1.274823 -0.810323
v 0.725538 1.274823 -0.810323
v -0.474461 1.274822 -1.110323
v 0.425539 1.274822 -1.110323
v -0.474461 1.274822 -1.210323
v 0.425539 1.274822 -1.210323
v -0.674462 1.374823 0.389677
v -0.574461 1.374823 0.389677
v 0.525539 1.374823 0.389677
v 0.625539 1.374823 0.389677
v -0.674462 1.374823 0.289677
v 0.625539 1.374823 0.289677
v -0.574461 1.374823 0.189677
v 0.525539 1.374823 0.189677
v 0.525539 1.374823 -0.910323
v 0.625539 1.374823 -0.910323
v -0.574461 1.374823 -1.010323
v 0.625539 1.374823 -1.010323
v -0.774462 0.274823 -1.310323
v -0.674462 0.274823 -1.310323
v -0.574461 0.274823 -1.310323
v -0.474461 0.274823 -1.310323
v -0.374461 0.274823 -1.310323
v 0.325538 0.274823 -1.310323
v 0.425539 0.274823 -1.310323
v 0.525539 0.274823 -1.310323
v 0.625539 0.274823 -1.310323
v 0.725538 0.274823 -1.310323
v -0.774462 0.274823 -1.410323
v 0.725538 0.274823 -1.410323
v -0.774462 0.374823 -1.210323
v -0.674462 0.374823 -1.210323
v -0.574461 0.374823 -1.210323
v -0.474461 0.374823 -1.210323
v -0.374461 0.374823 -1.210323
v 0.325538 0.374823 -1.210323
v 0.425539 0.374823 -1.210323
v 0.525539 0.374823 -1.210323
v 0.625539 0.374823 -1.210323
v 0.725538 0.374823 -1.210323
v -0.774462 0.374823 -1.310323
v -0.674462 0.374823 -1.310323
v -0.574461 0.374823 -1.310323
v -0.474461 0.374823 -1.310323
v -0.374461 0.374823 -1.310323
v 0.325538 0.374823 -1.310323
v 0.425539 0.374823 -1.310323
v 0.525539 0.374823 -1.310323
v 0.625539 0.374823 -1.310323
v 0.725538 0.374823 -1.310323
v -0.774462 0.474823 1.689677
v -0.274462 0.474823 1.689677
v -0.174462 0.474823 1.689677
v -0.074461 0.474823 1.689677
v 0.025539 0.474823 1.689677
v 0.125539 0.474823 1.689677
v 0.225538 0.474823 1.689677
v 0.725538 0.474823 1.689677
v -0.774462 0.474823 1.589677
v -0.274462 0.474823 1.589677
v -0.174462 0.474823 1.589677
v -0.074461 0.474823 1.589677
v 0.025539 0.474823 1.589677
v 0.125539 0.474823 1.589677
v 0.225538 0.474823 1.589677
v 0.725538 0.474823 1.589677
v -0.674462 0.474823 0.389677
v 0.625539 0.474823 0.389677
v -0.674462 0.474823 0.289677
v 0.625539 0.474823 0.289677
v 0.425539 0.474823 0.089677
v 0.525539 0.474823 0.089677
v -0.674462 0.474823 -0.010323
v 0.425539 0.474823 -0.010323
v 0.525539 0.474823 -0.010323
v 0.625539 0.474823 -0.010323
v -0.674462 0.474823 -1.110323
v 0.625539 0.474823 -1.110323
v -0.074461 0.574823 1.689677
v 0.025539 0.574823 1.689677
v -0.074461 0.574823 1.589677
v 0.025539 0.574823 1.589677
v -0.874461 0.574823 1.489677
v -0.774462 0.574823 1.489677
v 0.725538 0.574823 1.489677
v 0.825538 0.574823 1.489677
v -0.874461 0.574823 0.789677
v -0.774462 0.574823 0.789677
v 0.725538 0.574823 0.789677
v 0.825538 0.574823 0.789677
v 0.525539 0.574823 0.089677
v 0.625539 0.574823 0.089677
v 0.525539 0.574823 -0.010323
v 0.625539 0.574823 -0.010323
v -0.874461 0.574823 -0.410323
v -0.774462 0.574823 -0.410323
v 0.725538 0.574823 -0.410323
v 0.825538 0.574823 -0.410323
v 0.725538 0.574823 -1.010323
v 0.825538 0.574823 -1.010323
v -0.874461 0.574823 -1.110323
v -0.774462 0.574823 -1.110323
v -0.774462 0.674823 1.589677
v -0.674462 0.674823 1.589677
v 0.625539 0.674823 1.589677
v 0.725538 0.674823 1.589677
v -0.774462 0.674823 1.489677
v -0.674462 0.674823 1.489677
v 0.625539 0.674823 1.489677
v 0.725538 0.674823 1.489677
v 0.425539 0.674823 0.189677
v 0.625539 0.674823 0.189677
v 0.425539 0.674823 0.089677
v 0.625539 0.674823 0.089677
v -0.674462 0.774823 1.589677
v -0.274462 0.774823 1.589677
v -0.174462 0.774823 1.589677
v 0.125539 0.774823 1.589677
v 0.225538 0.774823 1.589677
v 0.625539 0.774823 1.589677
v -0.774462 0.774823 1.489677
v -0.674462 0.774823 1.489677
v 0.625539 0.774823 1.489677
v 0.725538 0.774823 1.489677
v -0.574461 0.774823 1.389677
v -0.274462 0.774823 1.389677
v -0.174462 0.774823 1.389677
v 0.125539 0.774823 1.389677
v 0.225538 0.774823 1.389677
v 0.525539 0.774823 1.389677
v -0.574461 0.774823 0.589677
v 0.525539 0.774823 0.589677
v -0.774462 0.774823 0.489677
v -0.674462 0.774823 0.489677
v -0.574461 0.774823 0.489677
v 0.525539 0.774823 0.489677
v 0.625539 0.774823 0.489677
v 0.725538 0.774823 0.489677
v -0.574461 0.774823 0.389677
v 0.525539 0.774823 0.389677
v -0.574461 0.774823 0.189677
v 0.425539 0.774823 0.189677
v -0.574461 0.774823 -0.010323
v 0.425539 0.774823 -0.010323
v -0.274462 0.874823 1.689677
v -0.174462 0.874823 1.689677
v 0.125539 0.874823 1.689677
v 0.225538 0.874823 1.689677
v -0.574461 0.874823 1.389677
v -0.274462 0.874823 1.389677
v -0.174462 0.874823 1.389677
v 0.125539 0.874823 1.389677
v 0.225538 0.874823 1.389677
v 0.525539 0.874823 1.389677
v -0.574461 0.874823 0.589677
v 0.525539 0.874823 0.589677
v -0.774462 0.874823 0.489677
v -0.674462 0.874823 0.489677
v 0.625539 0.874823 0.489677
v 0.725538 0.874823 0.489677
v -0.774462 0.874823 0.389677
v -0.674462 0.874823 0.389677
v 0.625539 0.874823 0.389677
v 0.725538 0.874823 0.389677
v -0.774462 0.874823 0.189677
v -0.674462 0.874823 0.189677
v 0.625539 0.874823 0.189677
v 0.725538 0.874823 0.189677
v -0.774462 0.874823 -0.110323
v -0.674462 0.874823 -0.110323
v 0.625539 0.874823 -0.110323
v 0.725538 0.874823 -0.110323
v -0.774462 0.874823 -0.410323
v -0.674462 0.874823 -0.410323
v 0.625539 0.874823 -0.410323
v 0.725538 0.874823 -0.410323
v -0.774462 0.874823 -0.710323
v -0.674462 0.874823 -0.710323
v 0.625539 0.874823 -0.710323
v 0.725538 0.874823 -0.710323
v -0.374461 0.874823 -1.110323
v 0.325538 0.874823 -1.110323
v -0.474461 0.874823 -1.210323
v -0.374461 0.874823 -1.210323
v 0.325538 0.874823 -1.210323
v 0.425539 0.874823 -1.210323
v -0.474461 0.874823 -1.310323
v -0.374461 0.874823 -1.310323
v 0.325538 0.874823 -1.310323
v 0.425539 0.874823 -1.310323
v -0.874461 0.974823 -0.110323
v -0.674462 0.974823 -0.110323
v 0.625539 0.974823 -0.110323
v 0.825538 0.974823 -0.110323
v -0.874461 0.974823 -0.210323
v -0.774462 0.974823 -0.210323
v -0.674462 0.974823 -0.210323
v 0.625539 0.974823 -0.210323
v 0.725538 0.974823 -0.210323
v 0.825538 0.974823 -0.210323
v -0.874461 0.974823 -0.710323
v -0.674462 0.974823 -0.710323
v 0.625539 0.974823 -0.710323
v 0.825538 0.974823 -0.710323
v -0.874461 0.974823 -0.810323
v -0.774462 0.974823 -0.810323
v -0.674462 0.974823 -0.810323
v 0.625539 0.974823 -0.810323
v 0.725538 0.974823 -0.810323
v 0.825538 0.974823 -0.810323
v -0.474461 0.974823 -1.110323
v -0.374461 0.974823 -1.110323
v 0.325538 0.974823 -1.110323
v 0.425539 0.974823 -1.110323
v -0.474461 0.974823 -1.210323
v -0.374461 0.974823 -1.210323
v 0.325538 0.974823 -1.210323
v 0.425539 0.974823 -1.210323
v -0.874461 1.174823 0.289677
v -0.774462 1.174823 0.289677
v 0.725538 1.174823 0.289677
v 0.825538 1.174823 0.289677
v -0.874461 1.174823 0.189677
v -0.774462 1.174823 0.189677
v 0.725538 1.174823 0.189677
v 0.825538 1.174823 0.189677
v -0.774462 1.374823 0.389677
v -0.674462 1.374823 0.389677
v 0.625539 1.374823 0.389677
v 0.725538 1.374823 0.389677
v -0.774462 1.374823 0.289677
v -0.674462 1.374823 0.289677
v 0.625539 1.374823 0.289677
v 0.725538 1.374823 0.289677
v 0.725538 1.374823 -1.010323
v 0.825538 1.374823 -1.010323
v -0.774462 1.374823 -1.110323
v -0.674462 1.374823 -1.110323
v 0.625539 1.374823 -1.110323
v 0.725538 1.374823 -1.110323
v 0.825538 1.374823 -1.110323
v -0.774462 1.374823 -1.210323
v -0.674462 1.374823 -1.210323
v 0.625539 1.374823 -1.210323
v 0.725538 1.374823 -1.210323
v -0.674462 1.474823 0.489677
v -0.574461 1.474823 0.489677
v 0.525539 1.474823 0.489677
v 0.625539 1.474823 0.489677
v -0.674462 1.474823 0.389677
v -0.574461 1.474823 0.389677
v 0.525539 1.474823 0.389677
v 0.625539 1.474823 0.389677
v -0.774462 1.474823 0.289677
v -0.674462 1.474823 0.289677
v -0.574461 1.474823 0.289677
v 0.525539 1.474823 0.289677
v 0.625539 1.474823 0.289677
v 0.725538 1.474823 0.289677
v -0.574461 1.474823 0.089677
v 0.525539 1.474823 0.089677
v -0.574461 1.474823 -0.010323
v 0.525539 1.474823 -0.010323
v -0.574461 1.474823 -0.210323
v 0.525539 1.474823 -0.210323
v -0.574461 1.474823 -0.310323
v 0.525539 1.474823 -0.310323
v -0.574461 1.474823 -0.510323
v 0.525539 1.474823 -0.510323
v -0.574461 1.474823 -0.610323
v 0.525539 1.474823 -0.610323
v -0.574461 1.474823 -0.810323
v 0.525539 1.474823 -0.810323
v -0.574461 1.474823 -0.910323
v 0.525539 1.474823 -0.910323
v -0.774462 1.474823 -1.110323
v -0.674462 1.474823 -1.110323
v -0.574461 1.474823 -1.110323
v 0.525539 1.474823 -1.110323
v 0.625539 1.474823 -1.110323
v 0.725538 1.474823 -1.110323
v -0.674462 1.474823 -1.210323
v -0.574461 1.474823 -1.210323
v 0.525539 1.474823 -1.210323
v 0.625539 1.474823 -1.210323
v -0.674462 1.474823 -1.310323
v -0.574461 1.474823 -1.310323
v 0.525539 1.474823 -1.310323
v 0.625539 1.474823 -1.310323
v -0.674462 1.574823 0.389677
v -0.574461 1.574823 0.389677
v 0.525539 1.574823 0.389677
v 0.625539 1.574823 0.389677
v -0.674462 1.574823 0.289677
v -0.574461 1.574823 0.289677
v 0.525539 1.574823 0.289677
v 0.625539 1.574823 0.289677
v -0.574461 1.574823 0.089677
v 0.525539 1.574823 0.089677
v -0.574461 1.574823 -0.010323
v 0.525539 1.574823 -0.010323
v -0.574461 1.574823 -0.210323
v 0.525539 1.574823 -0.210323
v -0.574461 1.574823 -0.310323
v 0.525539 1.574823 -0.310323
v -0.574461 1.574823 -0.510323
v 0.525539 1.574823 -0.510323
v -0.574461 1.574823 -0.610323
v 0.525539 1.574823 -0.610323
v -0.574461 1.574823 -0.810323
v 0.525539 1.574823 -0.810323
v -0.574461 1.574823 -0.910323
v 0.525539 1.574823 -0.910323
v -0.674462 1.574823 -1.110323
v -0.574461 1.574823 -1.110323
v 0.525539 1.574823 -1.110323
v 0.625539 1.574823 -1.110323
v -0.674462 1.574823 -1.210323
v -0.574461 1.574823 -1.210323
v 0.525539 1.574823 -1.210323
v 0.625539 1.574823 -1.210323
v -0.674462 1.674823 0.289677
v -0.574461 1.674823 0.289677
v 0.525539 1.674823 0.289677
v 0.625539 1.674823 0.289677
v -0.674462 1.674823 -1.110323
v -0.574461 1.674823 -1.110323
v 0.525539 1.674823 -1.110323
v 0.625539 1.674823 -1.110323
vn -1.0000 -0.0000 -0.0000
vn -1.0000 -0.0004 -0.0000
vn -1.0000 -0.0005 -0.0000
vn -1.0000 0.0001 -0.0000
vn 1.0000 -0.0000 -0.0000
vn 1.0000 0.0005 -0.0000
vn -0.0000 -0.0000 1.0000
vn -0.0000 -0.0000 -1.0000
vn -0.0000 -1.0000 -0.0000
vn -0.0000 1.0000 -0.0000
vt 0.912109 0.500000
vt 0.943359 0.500000
vt 0.939453 0.500000
vt 0.978516 0.500000
vt 0.908203 0.500000
vt 0.306641 0.500000
vt 0.970703 0.500000
vt 0.876953 0.500000
vt 0.974609 0.500000
vt 0.845703 0.500000
vt 0.916016 0.500000
s 1
usemtl palette
f 5/1/1 2/1/1 1/1/1
f 6/1/1 2/1/1 5/1/1
f 7/1/1 4/1/1 3/1/1
f 8/1/1 4/1/1 7/1/1
f 10/1/1 5/1/1 1/1/1
f 11/2/1 6/2/1 5/2/1
f 11/1/1 5/1/1 10/1/1
f 12/1/1 2/1/1 6/1/1
f 12/2/1 6/2/1 11/2/1
f 13/1/1 2/1/1 12/1/1
f 16/1/1 7/1/1 3/1/1
f 17/2/1 8/2/1 7/2/1
f 17/1/1 7/1/1 16/1/1
f 18/1/1 4/1/1 8/1/1
f 18/2/1 8/2/1 17/2/1
f 19/1/1 4/1/1 18/1/1
f 21/1/1 11/1/1 10/1/1
f 21/3/1 10/3/1 9/3/1
f 21/1/1 13/1/1 12/1/1
f 21/1/1 12/1/1 11/1/1
f 22/3/1 14/3/1 13/3/1
f 22/1/1 13/1/1 21/1/1
f 23/1/1 17/1/1 16/1/1
f 23/1/1 19/1/1 18/1/1
f 23/3/1 16/3/1 15/3/1
f 23/1/1 18/1/1 17/1/1
f 24/3/1 20/3/1 19/3/1
f 24/1/1 19/1/1 23/1/1
f 25/3/1 22/3/1 21/3/1
f 25/3/1 21/3/1 9/3/1
f 26/3/1 14/3/1 22/3/1
f 26/3/1 22/3/1 25/3/1
f 27/3/1 23/3/1 15/3/1
f 27/3/1 24/3/1 23/3/1
f 28/3/1 20/3/1 24/3/1
f 28/3/1 24/3/1 27/3/1
f 35/4/1 30/4/1 29/4/1
f 36/4/1 30/4/1 35/4/1
f 37/4/1 32/4/1 31/4/1
f 38/4/1 32/4/1 37/4/1
f 39/5/1 34/5/1 33/5/1
f 40/5/1 34/5/1 39/5/1
f 48/6/1 42/6/1 41/6/1
f 49/6/1 42/6/1 48/6/1
f 50/6/1 42/6/1 49/6/1
f 51/6/1 44/6/1 43/6/1
f 52/6/2 44/6/1 51/6/1
f 53/6/1 44/6/1 52/6/2
f 54/6/1 44/6/1 53/6/1
f 55/6/1 46/6/1 45/6/1
f 56/6/1 46/6/1 55/6/1
f 57/6/1 46/6/1 56/6/1
f 58/7/1 47/7/1 46/7/1
f 58/6/1 46/6/1 57/6/1
f 59/7/1 47/7/1 58/7/1
f 60/7/1 49/7/1 48/7/1
f 61/7/1 49/7/1 60/7/1
f 62/3/1 57/3/1 56/3/1
f 62/7/1 58/7/1 57/7/1
f 63/7/1 58/7/1 62/7/1
f 64/7/1 60/7/1 48/7/1
f 65/3/1 61/3/1 60/3/1
f 65/7/1 60/7/1 64/7/1
f 66/3/1 61/3/1 65/3/1
f 67/3/1 53/3/1 52/3/2
f 68/3/1 53/3/1 67/3/1
f 69/3/1 62/3/1 56/3/1
f 70/3/1 66/3/1 65/3/1
f 70/3/1 68/3/1 67/3/1
f 70/3/1 69/3/1 68/3/1
f 70/3/1 67/3/1 66/3/1
f 71/3/3 69/3/1 70/3/1
f 72/3/1 69/3/1 71/3/3
f 73/3/1 69/3/1 72/3/1
f 74/3/1 69/3/1 73/3/1
f 75/3/1 69/3/1 74/3/1
f 76/3/1 69/3/1 75/3/1
f 77/3/1 69/3/1 76/3/1
f 78/3/1 74/3/1 73/3/1
f 79/3/1 74/3/1 78/3/1
f 80/3/1 74/3/1 79/3/1
f 81/3/1 74/3/1 80/3/1
f 82/3/1 76/3/1 75/3/1
f 83/3/1 76/3/1 82/3/1
f 84/3/1 80/3/1 79/3/1
f 85/3/1 80/3/1 84/3/1
f 86/3/1 82/3/1 75/3/1
f 87/3/1 69/3/1 77/3/1
f 88/3/1 84/3/1 79/3/1
f 90/3/1 89/3/1 88/3/1
f 91/3/1 82/3/1 86/3/1
f 92/3/1 82/3/1 91/3/1
f 93/3/1 69/3/1 87/3/1
f 94/3/1 90/3/1 88/3/1
f 94/3/1 92/3/1 91/3/1
f 94/3/1 93/3/1 92/3/1
f 94/3/1 88/3/1 79/3/1
f 94/3/1 91/3/1 90/3/1
f 95/3/4 93/3/1 94/3/1
f 96/3/1 62/3/1 69/3/1
f 96/3/1 93/3/1 95/3/4
f 96/3/1 69/3/1 93/3/1
f 97/3/1 62/3/1 96/3/1
f 98/3/1 96/3/1 95/3/4
f 99/3/1 96/3/1 98/3/1
f 104/3/1 103/3/1 102/3/1
f 105/3/1 103/3/1 104/3/1
f 112/8/1 109/8/1 108/8/1
f 114/8/1 111/8/1 110/8/1
f 116/8/1 113/8/1 112/8/1
f 116/8/1 112/8/1 108/8/1
f 117/8/1 113/8/1 116/8/1
f 118/8/1 115/8/1 114/8/1
f 118/8/1 114/8/1 110/8/1
f 119/8/1 115/8/1 118/8/1
f 120/4/1 107/4/1 106/4/1
f 123/4/1 101/4/1 100/4/1
f 124/4/1 120/4/1 106/4/1
f 124/4/1 121/4/1 120/4/1
f 125/4/1 121/4/1 124/4/1
f 126/4/1 121/4/1 125/4/1
f 127/4/1 123/4/1 122/4/1
f 128/4/1 101/4/1 123/4/1
f 128/4/1 123/4/1 127/4/1
f 129/4/1 101/4/1 128/4/1
f 130/4/1 126/4/1 125/4/1
f 130/4/1 128/4/1 127/4/1
f 130/4/1 127/4/1 126/4/1
f 131/4/1 128/4/1 130/4/1
f 132/4/1 128/4/1 131/4/1
f 133/4/1 128/4/1 132/4/1
f 134/4/1 132/4/1 131/4/1
f 135/4/1 132/4/1 134/4/1
f 138/4/1 137/4/1 136/4/1
f 139/4/1 137/4/1 138/4/1
f 142/4/1 141/4/1 140/4/1
f 143/4/1 141/4/1 142/4/1
f 146/4/1 145/4/1 144/4/1
f 148/4/1 146/4/1 144/4/1
f 148/4/1 147/4/1 146/4/1
f 149/4/1 147/4/1 148/4/1
f 152/4/1 151/4/1 150/4/1
f 153/4/1 151/4/1 152/4/1
f 156/4/1 155/4/1 154/4/1
f 158/4/1 156/4/1 154/4/1
f 158/4/1 157/4/1 156/4/1
f 159/4/1 157/4/1 158/4/1
f 163/4/1 161/4/1 160/4/1
f 164/4/1 161/4/1 163/4/1
f 165/4/1 163/4/1 162/4/1
f 166/4/1 163/4/1 165/4/1
f 169/3/1 168/3/1 167/3/1
f 170/3/1 168/3/1 169/3/1
f 175/8/1 174/8/1 173/8/1
f 176/8/1 174/8/1 175/8/1
f 181/4/1 178/4/1 177/4/1
f 182/8/1 180/8/1 179/8/1
f 183/8/1 180/8/1 182/8/1
f 184/4/1 172/4/1 171/4/1
f 185/4/1 181/4/1 177/4/1
f 186/4/1 181/4/1 185/4/1
f 197/4/1 172/4/1 184/4/1
f 198/4/1 172/4/1 197/4/1
f 199/4/1 187/4/1 186/4/1
f 199/4/1 188/4/1 187/4/1
f 200/4/1 188/4/1 199/4/1
f 201/4/1 188/4/1 200/4/1
f 202/4/1 190/4/1 189/4/1
f 203/4/1 190/4/1 202/4/1
f 204/4/1 192/4/1 191/4/1
f 205/4/1 192/4/1 204/4/1
f 206/4/1 194/4/1 193/4/1
f 207/4/1 194/4/1 206/4/1
f 208/4/1 196/4/1 195/4/1
f 208/4/1 197/4/1 196/4/1
f 209/4/1 197/4/1 208/4/1
f 210/4/1 197/4/1 209/4/1
f 211/4/1 207/4/1 206/4/1
f 211/4/1 206/4/1 205/4/1
f 211/4/1 209/4/1 208/4/1
f 211/4/1 208/4/1 207/4/1
f 211/4/1 201/4/1 200/4/1
f 211/4/1 203/4/1 202/4/1
f 211/4/1 204/4/1 203/4/1
f 211/4/1 205/4/1 204/4/1
f 211/4/1 202/4/1 201/4/1
f 212/4/1 209/4/1 211/4/1
f 218/3/1 216/3/1 215/3/1
f 220/3/1 218/3/1 217/3/1
f 221/3/1 214/3/1 213/3/1
f 222/3/1 220/3/1 219/3/1
f 223/3/1 216/3/1 218/3/1
f 223/3/1 220/3/1 222/3/1
f 223/3/1 218/3/1 220/3/1
f 224/3/1 216/3/1 223/3/1
f 225/3/1 216/3/1 224/3/1
f 226/3/1 214/3/1 221/3/1
f 227/3/1 214/3/1 226/3/1
f 228/3/1 224/3/1 223/3/1
f 229/3/1 224/3/1 228/3/1
f 234/1/1 231/1/1 230/1/1
f 235/1/1 231/1/1 234/1/1
f 236/1/1 231/1/1 235/1/1
f 237/1/1 231/1/1 236/1/1
f 238/1/1 233/1/1 232/1/1
f 239/1/1 233/1/1 238/1/1
f 240/1/1 233/1/1 239/1/1
f 241/1/1 233/1/1 240/1/1
f 242/1/5 243/1/5 246/1/5
f 246/1/5 243/1/5 247/1/5
f 247/1/5 243/1/5 248/1/5
f 248/1/5 243/1/5 249/1/5
f 244/1/5 245/1/5 250/1/5
f 250/1/5 245/1/5 251/1/5
f 251/1/5 245/1/5 252/1/5
f 252/1/5 245/1/5 253/1/5
f 254/3/5 255/3/5 258/3/5
f 256/3/5 257/3/5 259/3/5
f 259/3/5 257/3/5 260/3/5
f 258/3/5 255/3/5 261/3/5
f 261/3/5 255/3/5 262/3/5
f 265/4/5 266/4/5 270/4/5
f 268/8/5 269/8/5 271/8/5
f 267/8/5 268/8/5 271/8/5
f 271/8/5 269/8/5 272/8/5
f 263/4/5 264/4/5 273/4/5
f 265/4/5 270/4/5 274/4/5
f 274/4/5 270/4/5 275/4/5
f 273/4/5 264/4/5 286/4/5
f 286/4/5 264/4/5 287/4/5
f 275/4/5 276/4/5 288/4/5
f 276/4/5 277/4/5 288/4/5
f 288/4/5 277/4/5 289/4/5
f 289/4/5 277/4/5 290/4/5
f 278/4/5 279/4/5 291/4/5
f 291/4/5 279/4/5 292/4/5
f 280/4/5 281/4/5 293/4/5
f 293/4/5 281/4/5 294/4/5
f 282/4/5 283/4/5 295/4/5
f 295/4/5 283/4/5 296/4/5
f 284/4/5 285/4/5 297/4/5
f 285/4/5 286/4/5 297/4/5
f 297/4/5 286/4/5 298/4/5
f 298/4/5 286/4/5 299/4/5
f 295/4/5 296/4/5 300/4/5
f 294/4/5 295/4/5 300/4/5
f 297/4/5 298/4/5 300/4/5
f 296/4/5 297/4/5 300/4/5
f 289/4/5 290/4/5 300/4/5
f 291/4/5 292/4/5 300/4/5
f 292/4/5 293/4/5 300/4/5
f 293/4/5 294/4/5 300/4/5
f 290/4/5 291/4/5 300/4/5
f 300/4/5 298/4/5 301/4/5
f 302/3/5 303/3/5 304/3/5
f 304/3/5 303/3/5 305/3/5
f 306/4/5 307/4/5 309/4/5
f 309/4/5 307/4/5 310/4/5
f 308/4/5 309/4/5 311/4/5
f 311/4/5 309/4/5 312/4/5
f 313/4/5 314/4/5 315/4/5
f 313/4/5 315/4/5 317/4/5
f 315/4/5 316/4/5 317/4/5
f 317/4/5 316/4/5 318/4/5
f 319/4/5 320/4/5 321/4/5
f 321/4/5 320/4/5 322/4/5
f 323/4/5 324/4/5 325/4/5
f 323/4/5 325/4/5 327/4/5
f 325/4/5 326/4/5 327/4/5
f 327/4/5 326/4/5 328/4/5
f 331/8/5 332/8/5 334/8/5
f 333/8/5 334/8/5 335/8/5
f 334/8/5 332/8/5 336/8/5
f 335/8/5 334/8/5 336/8/5
f 329/4/5 330/4/5 337/4/5
f 337/4/5 330/4/5 338/4/5
f 339/4/5 340/4/5 341/4/5
f 341/4/5 340/4/5 342/4/5
f 345/3/5 346/3/5 347/3/5
f 347/3/5 346/3/5 348/3/5
f 351/8/5 352/8/5 355/8/5
f 353/8/5 354/8/5 357/8/5
f 355/8/5 356/8/5 359/8/5
f 351/8/5 355/8/5 359/8/5
f 359/8/5 356/8/5 360/8/5
f 357/8/5 358/8/5 361/8/5
f 353/8/5 357/8/5 361/8/5
f 361/8/5 358/8/5 362/8/5
f 349/4/5 350/4/5 363/4/5
f 343/4/5 344/4/5 366/4/5
f 349/4/5 363/4/5 367/4/5
f 363/4/5 364/4/5 367/4/5
f 367/4/5 364/4/5 368/4/5
f 368/4/5 364/4/5 369/4/5
f 365/4/5 366/4/5 370/4/5
f 366/4/5 344/4/5 371/4/5
f 370/4/5 366/4/5 371/4/5
f 371/4/5 344/4/5 372/4/5
f 368/4/5 369/4/5 373/4/5
f 370/4/5 371/4/5 373/4/5
f 369/4/5 370/4/5 373/4/5
f 373/4/5 371/4/5 374/4/5
f 374/4/5 371/4/5 375/4/5
f 375/4/5 371/4/5 376/4/5
f 374/4/5 375/4/5 377/4/5
f 377/4/5 375/4/5 378/4/5
f 379/6/5 380/6/5 386/6/5
f 386/6/5 380/6/5 387/6/5
f 387/6/5 380/6/5 388/6/5
f 381/6/5 382/6/5 389/6/5
f 389/6/5 382/6/5 390/6/6
f 390/6/6 382/6/5 391/6/5
f 391/6/5 382/6/5 392/6/5
f 383/6/5 384/6/5 393/6/5
f 393/6/5 384/6/5 394/6/5
f 394/6/5 384/6/5 395/6/5
f 384/7/5 385/7/5 396/7/5
f 395/6/5 384/6/5 396/6/5
f 396/7/5 385/7/5 397/7/5
f 386/7/5 387/7/5 398/7/5
f 398/7/5 387/7/5 399/7/5
f 394/3/5 395/3/5 400/3/5
f 395/7/5 396/7/5 400/7/5
f 400/7/5 396/7/5 401/7/5
f 386/7/5 398/7/5 402/7/5
f 398/3/5 399/3/5 403/3/5
f 402/7/5 398/7/5 403/7/5
f 403/3/5 399/3/5 404/3/5
f 390/3/6 391/3/5 405/3/5
f 405/3/5 391/3/5 406/3/5
f 394/3/5 400/3/5 408/3/5
f 403/3/5 404/3/5 409/3/5
f 406/3/5 407/3/5 409/3/5
f 405/3/5 406/3/5 409/3/5
f 404/3/5 405/3/5 409/3/5
f 409/3/5 407/3/5 410/3/5
f 410/3/5 407/3/5 411/3/5
f 411/3/5 407/3/5 412/3/5
f 412/3/5 407/3/5 413/3/5
f 413/3/5 407/3/5 414/3/5
f 414/3/5 407/3/5 415/3/5
f 415/3/5 407/3/5 416/3/5
f 412/3/5 413/3/5 417/3/5
f 417/3/5 413/3/5 418/3/5
f 418/3/5 413/3/5 419/3/5
f 419/3/5 413/3/5 420/3/5
f 414/3/5 415/3/5 421/3/5
f 421/3/5 415/3/5 422/3/5
f 418/3/5 419/3/5 423/3/5
f 423/3/5 419/3/5 424/3/5
f 414/3/5 421/3/5 425/3/5
f 416/3/5 407/3/5 426/3/5
f 418/3/5 423/3/5 427/3/5
f 427/3/5 428/3/5 429/3/5
f 425/3/5 421/3/5 430/3/5
f 430/3/5 421/3/5 431/3/5
f 426/3/5 407/3/5 432/3/5
f 427/3/5 429/3/5 433/3/5
f 430/3/5 431/3/5 433/3/5
f 431/3/5 432/3/5 433/3/5
f 418/3/5 427/3/5 433/3/5
f 429/3/5 430/3/5 433/3/5
f 433/3/5 432/3/5 434/3/5
f 432/3/5 407/3/5 435/3/5
f 434/3/5 432/3/5 435/3/5
f 408/3/5 400/3/5 436/3/5
f 436/3/5 400/3/5 437/3/5
f 434/3/5 435/3/5 438/3/5
f 435/3/5 436/3/5 438/3/5
f 438/3/5 436/3/5 439/3/5
f 440/1/5 441/1/5 444/1/5
f 444/1/5 441/1/5 445/1/5
f 442/1/5 443/1/5 446/1/5
f 446/1/5 443/1/5 447/1/5
f 440/1/5 444/1/5 449/1/5
f 444/2/5 445/2/5 450/2/5
f 449/1/5 444/1/5 450/1/5
f 445/1/5 441/1/5 451/1/5
f 450/2/5 445/2/5 451/2/5
f 451/1/5 441/1/5 452/1/5
f 442/1/5 446/1/5 455/1/5
f 446/2/5 447/2/5 456/2/5
f 455/1/5 446/1/5 456/1/5
f 447/1/5 443/1/5 457/1/5
f 456/2/5 447/2/5 457/2/5
f 457/1/5 443/1/5 458/1/5
f 449/1/5 450/1/5 460/1/5
f 448/3/5 449/3/5 460/3/5
f 451/1/5 452/1/5 460/1/5
f 450/1/5 451/1/5 460/1/5
f 452/3/5 453/3/5 461/3/5
f 460/1/5 452/1/5 461/1/5
f 455/1/5 456/1/5 462/1/5
f 457/1/5 458/1/5 462/1/5
f 454/3/5 455/3/5 462/3/5
f 456/1/5 457/1/5 462/1/5
f 458/3/5 459/3/5 463/3/5
f 462/1/5 458/1/5 463/1/5
f 460/3/5 461/3/5 464/3/5
f 448/3/5 460/3/5 464/3/5
f 461/3/5 453/3/5 465/3/5
f 464/3/5 461/3/5 465/3/5
f 454/3/5 462/3/5 466/3/5
f 462/3/5 463/3/5 466/3/5
f 463/3/5 459/3/5 467/3/5
f 466/3/5 463/3/5 467/3/5
f 467/3/5 459/3/5 468/3/5
f 469/4/5 470/4/5 475/4/5
f 475/4/5 470/4/5 476/4/5
f 471/4/5 472/4/5 477/4/5
f 477/4/5 472/4/5 478/4/5
f 473/5/5 474/5/5 479/5/5
f 479/5/5 474/5/5 480/5/5
f 467/4/5 468/4/5 481/4/5
f 481/4/5 468/4/5 482/4/5
f 486/6/7 484/6/7 483/6/7
f 486/7/7 485/7/7 484/7/7
f 487/7/7 485/7/7 486/7/7
f 488/6/7 486/6/7 483/6/7
f 488/9/7 487/9/7 486/9/7
f 489/7/7 485/7/7 487/7/7
f 489/9/7 487/9/7 488/9/7
f 490/6/7 488/6/7 483/6/7
f 490/7/7 489/7/7 488/7/7
f 491/7/7 485/7/7 489/7/7
f 491/7/7 489/7/7 490/7/7
f 492/6/7 490/6/7 483/6/7
f 492/9/7 491/9/7 490/9/7
f 493/7/7 485/7/7 491/7/7
f 493/9/7 491/9/7 492/9/7
f 494/6/7 492/6/7 483/6/7
f 494/7/7 493/7/7 492/7/7
f 495/7/7 485/7/7 493/7/7
f 495/7/7 493/7/7 494/7/7
f 496/7/7 485/7/7 495/7/7
f 498/6/7 494/6/7 483/6/7
f 498/9/7 495/9/7 494/9/7
f 499/7/7 496/7/7 495/7/7
f 499/9/7 495/9/7 498/9/7
f 500/4/7 497/4/7 496/4/7
f 500/7/7 496/7/7 499/7/7
f 501/4/7 497/4/7 500/4/7
f 502/7/7 499/7/7 498/7/7
f 502/6/7 498/6/7 483/6/7
f 502/7/7 500/7/7 499/7/7
f 503/7/7 500/7/7 502/7/7
f 504/7/7 500/7/7 503/7/7
f 506/6/7 502/6/7 483/6/7
f 506/9/7 503/9/7 502/9/7
f 507/7/7 504/7/7 503/7/7
f 507/9/7 503/9/7 506/9/7
f 508/4/7 505/4/7 504/4/7
f 508/7/7 504/7/7 507/7/7
f 509/4/7 505/4/7 508/4/7
f 510/7/7 507/7/7 506/7/7
f 510/6/7 506/6/7 483/6/7
f 510/7/7 508/7/7 507/7/7
f 511/7/7 508/7/7 510/7/7
f 512/7/7 508/7/7 511/7/7
f 514/6/7 510/6/7 483/6/7
f 514/9/7 511/9/7 510/9/7
f 515/7/7 512/7/7 511/7/7
f 515/9/7 511/9/7 514/9/7
f 516/4/7 513/4/7 512/4/7
f 516/7/7 512/7/7 515/7/7
f 517/4/7 513/4/7 516/4/7
f 518/6/7 514/6/7 483/6/7
f 518/7/7 515/7/7 514/7/7
f 518/7/7 516/7/7 515/7/7
f 519/7/7 516/7/7 518/7/7
f 520/6/7 518/6/7 483/6/7
f 520/9/7 519/9/7 518/9/7
f 521/7/7 516/7/7 519/7/7
f 521/9/7 519/9/7 520/9/7
f 522/6/7 520/6/7 483/6/7
f 522/7/7 521/7/7 520/7/7
f 523/7/7 516/7/7 521/7/7
f 523/7/7 521/7/7 522/7/7
f 524/6/7 522/6/7 483/6/7
f 524/9/7 523/9/7 522/9/7
f 525/7/7 516/7/7 523/7/7
f 525/9/7 523/9/7 524/9/7
f 526/6/7 524/6/7 483/6/7
f 527/7/7 525/7/7 524/7/7
f 527/6/7 524/6/7 526/6/7
f 528/7/7 516/7/7 525/7/7
f 528/7/7 525/7/7 527/7/7
f 531/3/7 530/3/7 529/3/7
f 532/3/7 530/3/7 531/3/7
f 534/3/7 531/3/7 529/3/7
f 534/10/7 532/10/7 531/10/7
f 535/3/7 533/3/7 532/3/7
f 535/10/7 532/10/7 534/10/7
f 536/3/7 534/3/7 529/3/7
f 536/3/7 535/3/7 534/3/7
f 537/3/7 533/3/7 535/3/7
f 537/3/7 535/3/7 536/3/7
f 540/3/7 539/3/7 538/3/7
f 541/3/7 539/3/7 540/3/7
f 543/3/7 539/3/7 541/3/7
f 544/3/7 543/3/7 542/3/7
f 545/3/7 539/3/7 543/3/7
f 545/3/7 543/3/7 544/3/7
f 548/3/7 547/3/7 546/3/7
f 549/3/7 547/3/7 548/3/7
f 550/3/7 548/3/7 546/3/7
f 550/10/7 549/10/7 548/10/7
f 551/3/7 547/3/7 549/3/7
f 551/10/7 549/10/7 550/10/7
f 552/3/7 547/3/7 551/3/7
f 553/3/7 550/3/7 546/3/7
f 553/3/7 551/3/7 550/3/7
f 554/3/7 551/3/7 553/3/7
f 557/3/7 556/3/7 555/3/7
f 558/3/7 556/3/7 557/3/7
f 559/3/7 556/3/7 558/3/7
f 562/3/7 561/3/7 560/3/7
f 563/3/7 561/3/7 562/3/7
f 569/3/7 565/3/7 564/3/7
f 570/3/7 565/3/7 569/3/7
f 571/3/7 568/3/7 567/3/7
f 571/3/7 567/3/7 566/3/7
f 572/3/7 568/3/7 571/3/7
f 575/1/7 574/1/7 573/1/7
f 576/1/7 574/1/7 575/1/7
f 577/1/7 574/1/7 576/1/7
f 580/4/7 579/4/7 578/4/7
f 581/4/7 579/4/7 580/4/7
f 584/4/7 583/4/7 582/4/7
f 585/4/7 583/4/7 584/4/7
f 588/4/7 587/4/7 586/4/7
f 589/4/7 587/4/7 588/4/7
f 593/1/7 591/1/7 590/1/7
f 593/1/7 592/1/7 591/1/7
f 594/1/7 592/1/7 593/1/7
f 597/3/7 596/3/7 595/3/7
f 598/3/7 596/3/7 597/3/7
f 600/4/7 598/4/7 597/4/7
f 600/4/7 599/4/7 598/4/7
f 601/4/7 599/4/7 600/4/7
f 604/4/7 603/4/7 602/4/7
f 605/4/7 603/4/7 604/4/7
f 606/4/7 603/4/7 605/4/7
f 607/3/7 605/3/7 604/3/7
f 608/3/7 605/3/7 607/3/7
f 611/3/7 610/3/7 609/3/7
f 612/3/7 610/3/7 611/3/7
f 616/4/7 614/4/7 613/4/7
f 617/4/7 614/4/7 616/4/7
f 618/4/7 616/4/7 615/4/7
f 619/4/7 616/4/7 618/4/7
f 623/4/7 620/4/7 619/4/7
f 624/4/7 620/4/7 623/4/7
f 625/3/7 622/3/7 621/3/7
f 626/3/7 622/3/7 625/3/7
f 629/5/7 628/5/7 627/5/7
f 630/5/7 628/5/7 629/5/7
f 634/3/7 632/3/7 631/3/7
f 635/3/7 632/3/7 634/3/7
f 638/4/7 637/4/7 636/4/7
f 639/4/7 637/4/7 638/4/7
f 642/8/7 634/8/7 633/8/7
f 643/8/7 634/8/7 642/8/7
f 645/4/7 641/4/7 640/4/7
f 646/4/7 641/4/7 645/4/7
f 649/3/7 644/3/7 643/3/7
f 650/3/7 644/3/7 649/3/7
f 651/5/7 648/5/7 647/5/7
f 652/5/7 648/5/7 651/5/7
f 655/4/7 654/4/7 653/4/7
f 656/4/7 654/4/7 655/4/7
f 659/4/7 658/4/7 657/4/7
f 660/4/7 658/4/7 659/4/7
f 661/4/7 658/4/7 660/4/7
f 662/4/7 658/4/7 661/4/7
f 666/4/7 664/4/7 663/4/7
f 667/4/7 666/4/7 665/4/7
f 668/4/7 664/4/7 666/4/7
f 668/4/7 666/4/7 667/4/7
f 671/3/7 670/3/7 669/3/7
f 672/3/7 670/3/7 671/3/7
f 675/4/7 674/4/7 673/4/7
f 676/4/7 674/4/7 675/4/7
f 679/3/7 678/3/7 677/3/7
f 680/3/7 678/3/7 679/3/7
f 683/3/7 682/3/7 681/3/7
f 684/3/7 682/3/7 683/3/7
f 687/3/7 686/3/7 685/3/7
f 688/3/7 686/3/7 687/3/7
f 691/1/7 690/1/7 689/1/7
f 692/1/7 690/1/7 691/1/7
f 693/1/7 690/1/7 692/1/7
f 696/4/7 695/4/7 694/4/7
f 697/4/7 695/4/7 696/4/7
f 701/1/7 699/1/7 698/1/7
f 701/1/7 700/1/7 699/1/7
f 702/1/7 700/1/7 701/1/7
f 705/4/7 704/4/7 703/4/7
f 706/4/7 704/4/7 705/4/7
f 707/4/7 704/4/7 706/4/7
f 708/4/7 704/4/7 707/4/7
f 712/4/7 710/4/7 709/4/7
f 713/4/7 712/4/7 711/4/7
f 714/4/7 710/4/7 712/4/7
f 714/4/7 712/4/7 713/4/7
f 717/3/7 716/3/7 715/3/7
f 718/3/7 716/3/7 717/3/7
f 721/4/7 720/4/7 719/4/7
f 722/4/7 720/4/7 721/4/7
f 725/3/7 724/3/7 723/3/7
f 726/3/7 724/3/7 725/3/7
f 729/8/7 728/8/7 727/8/7
f 730/8/7 728/8/7 729/8/7
f 733/4/7 732/4/7 731/4/7
f 734/4/7 732/4/7 733/4/7
f 737/3/7 736/3/7 735/3/7
f 738/3/7 736/3/7 737/3/7
f 739/1/8 740/1/8 741/1/8
f 741/1/8 740/1/8 742/1/8
f 742/1/8 740/1/8 743/1/8
f 744/1/8 745/1/8 747/1/8
f 745/1/8 746/1/8 747/1/8
f 747/1/8 746/1/8 748/1/8
f 749/3/8 750/3/8 751/3/8
f 751/3/8 750/3/8 752/3/8
f 753/3/8 754/3/8 755/3/8
f 755/3/8 754/3/8 756/3/8
f 757/4/8 758/4/8 759/4/8
f 759/4/8 758/4/8 760/4/8
f 761/3/8 762/3/8 764/3/8
f 762/4/8 763/4/8 764/4/8
f 764/4/8 763/4/8 765/4/8
f 761/3/8 764/3/8 766/3/8
f 761/3/8 766/3/8 768/3/8
f 766/4/8 767/4/8 769/4/8
f 768/3/8 766/3/8 769/3/8
f 769/4/8 767/4/8 770/4/8
f 771/5/8 772/5/8 774/5/8
f 774/5/8 772/5/8 775/5/8
f 773/3/8 774/3/8 777/3/8
f 775/3/8 776/3/8 777/3/8
f 774/3/8 775/3/8 777/3/8
f 777/3/8 776/3/8 778/3/8
f 779/8/8 780/8/8 782/8/8
f 782/8/8 780/8/8 783/8/8
f 781/8/8 782/8/8 783/8/8
f 783/8/8 780/8/8 784/8/8
f 781/8/8 783/8/8 785/8/8
f 785/8/8 783/8/8 786/8/8
f 787/3/8 788/3/8 789/3/8
f 789/3/8 788/3/8 790/3/8
f 790/3/8 788/3/8 791/3/8
f 791/3/8 788/3/8 792/3/8
f 790/5/8 791/5/8 793/5/8
f 793/5/8 791/5/8 794/5/8
f 795/8/8 796/8/8 797/8/8
f 797/8/8 796/8/8 798/8/8
f 798/8/8 796/8/8 799/8/8
f 799/8/8 796/8/8 800/8/8
f 801/8/8 802/8/8 803/8/8
f 801/8/8 803/8/8 806/8/8
f 806/8/8 803/8/8 807/8/8
f 804/4/8 805/4/8 810/4/8
f 810/4/8 805/4/8 811/4/8
f 808/8/8 809/8/8 812/8/8
f 812/8/8 809/8/8 813/8/8
f 814/4/8 815/4/8 816/4/8
f 816/4/8 815/4/8 817/4/8
f 818/4/8 819/4/8 820/4/8
f 820/4/8 819/4/8 821/4/8
f 822/4/8 823/4/8 824/4/8
f 824/4/8 823/4/8 825/4/8
f 826/3/8 827/3/8 828/3/8
f 828/3/8 827/3/8 829/3/8
f 830/3/8 831/3/8 832/3/8
f 832/3/8 831/3/8 833/3/8
f 834/4/8 835/4/8 836/4/8
f 836/4/8 835/4/8 837/4/8
f 838/4/8 839/4/8 840/4/8
f 840/4/8 839/4/8 841/4/8
f 842/4/8 843/4/8 844/4/8
f 844/4/8 843/4/8 845/4/8
f 846/4/8 847/4/8 850/4/8
f 850/4/8 847/4/8 851/4/8
f 848/8/8 849/8/8 852/8/8
f 852/8/8 849/8/8 853/8/8
f 854/1/8 855/1/8 856/1/8
f 856/1/8 855/1/8 857/1/8
f 857/1/8 855/1/8 858/1/8
f 859/1/8 860/1/8 862/1/8
f 860/1/8 861/1/8 862/1/8
f 862/1/8 861/1/8 863/1/8
f 864/3/8 865/3/8 866/3/8
f 866/3/8 865/3/8 867/3/8
f 868/3/8 869/3/8 870/3/8
f 870/3/8 869/3/8 871/3/8
f 872/4/8 873/4/8 874/4/8
f 874/4/8 873/4/8 875/4/8
f 876/8/8 877/8/8 879/8/8
f 878/8/8 879/8/8 880/8/8
f 879/8/8 877/8/8 881/8/8
f 880/8/8 879/8/8 881/8/8
f 881/8/8 877/8/8 882/8/8
f 882/8/8 877/8/8 883/8/8
f 884/4/8 885/4/8 888/4/8
f 888/4/8 885/4/8 889/4/8
f 886/3/8 887/3/8 892/3/8
f 892/3/8 887/3/8 893/3/8
f 890/3/8 891/3/8 894/3/8
f 891/4/8 892/4/8 895/4/8
f 894/3/8 891/3/8 895/3/8
f 895/4/8 892/4/8 896/4/8
f 897/3/8 898/3/8 899/3/8
f 899/3/8 898/3/8 900/3/8
f 901/4/8 902/4/8 905/4/8
f 905/4/8 902/4/8 906/4/8
f 903/3/8 904/3/8 907/3/8
f 907/3/8 904/3/8 908/3/8
f 908/3/8 904/3/8 909/3/8
f 909/3/8 904/3/8 910/3/8
f 908/4/8 909/4/8 912/4/8
f 912/4/8 909/4/8 913/4/8
f 911/3/8 912/3/8 914/3/8
f 914/3/8 912/3/8 915/3/8
f 915/4/8 916/4/8 918/4/8
f 918/4/8 916/4/8 919/4/8
f 910/3/8 904/3/8 920/3/8
f 918/3/8 919/3/8 921/3/8
f 919/3/8 920/3/8 921/3/8
f 917/3/8 918/3/8 921/3/8
f 904/4/8 905/4/8 922/4/8
f 921/3/8 920/3/8 922/3/8
f 920/3/8 904/3/8 922/3/8
f 922/4/8 905/4/8 923/4/8
f 923/4/8 924/4/8 927/4/8
f 927/4/8 924/4/8 928/4/8
f 925/3/8 926/3/8 929/3/8
f 929/3/8 926/3/8 930/3/8
f 931/7/8 932/7/8 933/7/8
f 933/7/8 932/7/8 934/7/8
f 933/9/8 934/9/8 936/9/8
f 934/4/8 935/4/8 937/4/8
f 936/9/8 934/9/8 937/9/8
f 937/4/8 935/4/8 938/4/8
f 936/7/8 937/7/8 939/7/8
f 939/7/8 937/7/8 940/7/8
f 939/9/8 940/9/8 942/9/8
f 940/4/8 941/4/8 943/4/8
f 942/9/8 940/9/8 943/9/8
f 943/4/8 941/4/8 944/4/8
f 942/7/8 943/7/8 945/7/8
f 945/7/8 943/7/8 946/7/8
f 945/9/8 946/9/8 948/9/8
f 946/4/8 947/4/8 949/4/8
f 948/9/8 946/9/8 949/9/8
f 949/4/8 947/4/8 950/4/8
f 948/7/8 949/7/8 951/7/8
f 951/7/8 949/7/8 952/7/8
f 951/9/8 952/9/8 954/9/8
f 952/4/8 953/4/8 955/4/8
f 954/9/8 952/9/8 955/9/8
f 955/4/8 953/4/8 956/4/8
f 954/7/8 955/7/8 957/7/8
f 957/7/8 955/7/8 958/7/8
f 959/7/8 960/7/8 961/7/8
f 961/7/8 960/7/8 962/7/8
f 967/1/9 964/1/9 963/1/9
f 968/1/9 964/1/9 967/1/9
f 969/1/9 966/1/9 965/1/9
f 970/1/9 966/1/9 969/1/9
f 975/1/9 972/1/9 971/1/9
f 976/1/9 972/1/9 975/1/9
f 977/1/9 974/1/9 973/1/9
f 978/1/9 974/1/9 977/1/9
f 981/6/9 980/6/9 979/6/9
f 982/6/9 980/6/9 981/6/9
f 983/6/9 981/6/9 979/6/9
f 984/11/9 982/11/9 981/11/9
f 984/6/9 981/6/9 983/6/9
f 985/11/9 982/11/9 984/11/9
f 986/11/9 982/11/9 985/11/9
f 987/6/9 980/6/9 982/6/9
f 987/11/9 982/11/9 986/11/9
f 988/6/9 980/6/9 987/6/9
f 989/6/9 984/6/9 983/6/9
f 989/6/9 985/6/9 984/6/9
f 990/6/9 985/6/9 989/6/9
f 991/11/9 986/11/9 985/11/9
f 991/6/9 985/6/9 990/6/9
f 992/11/9 986/11/9 991/11/9
f 993/11/9 986/11/9 992/11/9
f 994/6/9 988/6/9 987/6/9
f 994/11/9 986/11/9 993/11/9
f 994/6/9 987/6/9 986/6/9
f 995/6/9 988/6/9 994/6/9
f 996/6/9 988/6/9 995/6/9
f 997/11/9 990/11/9 989/11/9
f 997/6/9 992/6/9 991/6/9
f 997/6/9 991/6/9 990/6/9
f 998/11/9 993/11/9 992/11/9
f 998/6/9 992/6/9 997/6/9
f 999/6/9 995/6/9 994/6/9
f 999/11/9 993/11/9 998/11/9
f 999/6/9 994/6/9 993/6/9
f 1000/11/9 996/11/9 995/11/9
f 1000/6/9 995/6/9 999/6/9
f 1001/11/9 997/11/9 989/11/9
f 1001/11/9 999/11/9 998/11/9
f 1001/11/9 998/11/9 997/11/9
f 1001/11/9 1000/11/9 999/11/9
f 1002/11/9 1000/11/9 1001/11/9
f 1003/11/9 1000/11/9 1002/11/9
f 1004/11/9 996/11/9 1000/11/9
f 1004/11/9 1000/11/9 1003/11/9
f 1005/11/9 1001/11/9 989/11/9
f 1006/6/9 1002/6/9 1001/6/9
f 1006/11/9 1001/11/9 1005/11/9
f 1007/6/9 1002/6/9 1006/6/9
f 1008/6/9 1002/6/9 1007/6/9
f 1009/6/9 1004/6/9 1003/6/9
f 1010/6/9 1004/6/9 1009/6/9
f 1011/11/9 996/11/9 1004/11/9
f 1011/6/9 1004/6/9 1010/6/9
f 1012/11/9 996/11/9 1011/11/9
f 1013/6/9 1006/6/9 1005/6/9
f 1013/6/9 1007/6/9 1006/6/9
f 1014/11/9 1010/11/9 1009/11/9
f 1014/6/9 1009/6/9 1003/6/9
f 1015/11/9 1010/11/9 1014/11/9
f 1016/6/9 1012/6/9 1011/6/9
f 1016/6/9 1011/6/9 1010/6/9
f 1017/11/9 1010/11/9 1015/11/9
f 1017/6/9 1015/6/9 1014/6/9
f 1018/6/9 1016/6/9 1010/6/9
f 1018/11/9 1010/11/9 1017/11/9
f 1019/6/9 1007/6/9 1013/6/9
f 1019/11/9 1008/11/9 1007/11/9
f 1020/6/9 1002/6/9 1008/6/9
f 1020/11/9 1008/11/9 1019/11/9
f 1021/11/9 1003/11/9 1002/11/9
f 1021/6/9 1017/6/9 1014/6/9
f 1021/6/9 1014/6/9 1003/6/9
f 1021/6/9 1018/6/9 1017/6/9
f 1022/6/9 1018/6/9 1021/6/9
f 1023/6/9 1020/6/9 1019/6/9
f 1023/6/9 1019/6/9 1013/6/9
f 1024/6/9 1002/6/9 1020/6/9
f 1024/6/9 1020/6/9 1023/6/9
f 1025/11/9 1022/11/9 1021/11/9
f 1025/11/9 1021/11/9 1002/11/9
f 1026/11/9 1022/11/9 1025/11/9
f 1027/6/9 1023/6/9 1013/6/9
f 1027/11/9 1024/11/9 1023/11/9
f 1028/6/9 1002/6/9 1024/6/9
f 1028/11/9 1024/11/9 1027/11/9
f 1029/11/9 1025/11/9 1002/11/9
f 1029/6/9 1002/6/9 1028/6/9
f 1030/6/9 1027/6/9 1013/6/9
f 1030/6/9 1028/6/9 1027/6/9
f 1031/6/9 1028/6/9 1030/6/9
f 1032/11/9 1029/11/9 1028/11/9
f 1033/11/9 1025/11/9 1029/11/9
f 1033/11/9 1029/11/9 1032/11/9
f 1034/11/9 1022/11/9 1026/11/9
f 1034/6/9 1026/6/9 1025/6/9
f 1035/11/9 1022/11/9 1034/11/9
f 1036/11/9 1022/11/9 1035/11/9
f 1036/6/9 1035/6/9 1034/6/9
f 1037/6/9 1018/6/9 1022/6/9
f 1037/11/9 1022/11/9 1036/11/9
f 1038/11/9 1031/11/9 1030/11/9
f 1038/6/9 1030/6/9 1013/6/9
f 1039/6/9 1028/6/9 1031/6/9
f 1039/11/9 1031/11/9 1038/11/9
f 1040/11/9 1032/11/9 1028/11/9
f 1040/6/9 1033/6/9 1032/6/9
f 1041/11/9 1025/11/9 1033/11/9
f 1041/6/9 1033/6/9 1040/6/9
f 1042/6/9 1036/6/9 1034/6/9
f 1042/6/9 1037/6/9 1036/6/9
f 1042/6/9 1034/6/9 1025/6/9
f 1043/6/9 1018/6/9 1037/6/9
f 1043/6/9 1037/6/9 1042/6/9
f 1044/6/9 1038/6/9 1013/6/9
f 1044/6/9 1039/6/9 1038/6/9
f 1045/6/9 1028/6/9 1039/6/9
f 1045/6/9 1039/6/9 1044/6/9
f 1046/11/9 1040/11/9 1028/11/9
f 1046/6/9 1028/6/9 1045/6/9
f 1046/11/9 1041/11/9 1040/11/9
f 1047/11/9 1025/11/9 1041/11/9
f 1047/11/9 1041/11/9 1046/11/9
f 1048/11/9 1045/11/9 1044/11/9
f 1048/6/9 1046/6/9 1045/6/9
f 1048/6/9 1047/6/9 1046/6/9
f 1049/6/9 1047/6/9 1048/6/9
f 1050/6/9 1044/6/9 1013/6/9
f 1051/11/9 1049/11/9 1048/11/9
f 1051/6/9 1044/6/9 1050/6/9
f 1051/11/9 1048/11/9 1044/11/9
f 1052/6/9 1047/6/9 1049/6/9
f 1052/11/9 1049/11/9 1051/11/9
f 1053/6/9 1042/6/9 1025/6/9
f 1053/11/9 1043/11/9 1042/11/9
f 1054/6/9 1018/6/9 1043/6/9
f 1054/11/9 1043/11/9 1053/11/9
f 1055/6/9 1016/6/9 1018/6/9
f 1055/6/9 1018/6/9 1054/6/9
f 1056/6/9 1051/6/9 1050/6/9
f 1056/6/9 1052/6/9 1051/6/9
f 1057/6/9 1052/6/9 1056/6/9
f 1058/6/9 1055/6/9 1054/6/9
f 1058/6/9 1054/6/9 1053/6/9
f 1059/6/9 1055/6/9 1058/6/9
f 1060/6/9 1052/6/9 1057/6/9
f 1060/11/9 1057/11/9 1056/11/9
f 1061/11/9 1025/11/9 1047/11/9
f 1061/6/9 1052/6/9 1060/6/9
f 1061/6/9 1047/6/9 1052/6/9
f 1062/6/9 1053/6/9 1025/6/9
f 1062/11/9 1025/11/9 1061/11/9
f 1062/6/9 1058/6/9 1053/6/9
f 1063/11/9 1059/11/9 1058/11/9
f 1063/6/9 1058/6/9 1062/6/9
f 1064/11/9 1060/11/9 1056/11/9
f 1064/11/9 1062/11/9 1061/11/9
f 1064/11/9 1063/11/9 1062/11/9
f 1064/11/9 1061/11/9 1060/11/9
f 1065/11/9 1063/11/9 1064/11/9
f 1066/11/9 1063/11/9 1065/11/9
f 1067/11/9 1059/11/9 1063/11/9
f 1067/11/9 1063/11/9 1066/11/9
f 1068/11/9 1064/11/9 1056/11/9
f 1069/6/9 1065/6/9 1064/6/9
f 1069/11/9 1064/11/9 1068/11/9
f 1070/6/9 1065/6/9 1069/6/9
f 1071/11/9 1066/11/9 1065/11/9
f 1071/6/9 1065/6/9 1070/6/9
f 1072/6/9 1067/6/9 1066/6/9
f 1072/11/9 1066/11/9 1071/11/9
f 1073/6/9 1067/6/9 1072/6/9
f 1074/11/9 1059/11/9 1067/11/9
f 1074/6/9 1067/6/9 1073/6/9
f 1075/11/9 1059/11/9 1074/11/9
f 1076/6/9 1070/6/9 1069/6/9
f 1076/6/9 1069/6/9 1068/6/9
f 1077/6/9 1075/6/9 1074/6/9
f 1077/6/9 1074/6/9 1073/6/9
f 1078/11/9 1073/11/9 1072/11/9
f 1078/11/9 1071/11/9 1070/11/9
f 1078/6/9 1070/6/9 1076/6/9
f 1078/11/9 1072/11/9 1071/11/9
f 1079/6/9 1077/6/9 1073/6/9
f 1079/11/9 1073/11/9 1078/11/9
f 1080/6/9 1079/6/9 1078/6/9
f 1080/6/9 1078/6/9 1076/6/9
f 1081/6/9 1077/6/9 1079/6/9
f 1081/6/9 1079/6/9 1080/6/9
f 1082/7/9 1081/7/9 1080/7/9
f 1083/7/9 1081/7/9 1082/7/9
f 1088/3/9 1085/3/9 1084/3/9
f 1089/3/9 1085/3/9 1088/3/9
f 1090/3/9 1087/3/9 1086/3/9
f 1091/3/9 1087/3/9 1090/3/9
f 1096/3/9 1093/3/9 1092/3/9
f 1097/3/9 1093/3/9 1096/3/9
f 1098/3/9 1095/3/9 1094/3/9
f 1099/3/9 1095/3/9 1098/3/9
f 1104/3/9 1101/3/9 1100/3/9
f 1105/3/9 1101/3/9 1104/3/9
f 1106/3/9 1103/3/9 1102/3/9
f 1107/3/9 1103/3/9 1106/3/9
f 1112/3/9 1109/3/9 1108/3/9
f 1113/3/9 1109/3/9 1112/3/9
f 1114/3/9 1111/3/9 1110/3/9
f 1115/3/9 1111/3/9 1114/3/9
f 1124/4/9 1121/4/9 1120/4/9
f 1125/4/9 1121/4/9 1124/4/9
f 1126/4/9 1123/4/9 1122/4/9
f 1127/4/9 1123/4/9 1126/4/9
f 1132/4/9 1129/4/9 1128/4/9
f 1133/4/9 1129/4/9 1132/4/9
f 1134/4/9 1131/4/9 1130/4/9
f 1135/4/9 1131/4/9 1134/4/9
f 1136/8/9 1117/8/9 1116/8/9
f 1137/8/9 1117/8/9 1136/8/9
f 1138/8/9 1119/8/9 1118/8/9
f 1140/8/9 1139/8/9 1138/8/9
f 1140/8/9 1138/8/9 1118/8/9
f 1141/8/9 1139/8/9 1140/8/9
f 1146/5/9 1143/5/9 1142/5/9
f 1147/5/9 1143/5/9 1146/5/9
f 1148/5/9 1145/5/9 1144/5/9
f 1149/5/9 1145/5/9 1148/5/9
f 1154/3/9 1151/3/9 1150/3/9
f 1155/3/9 1151/3/9 1154/3/9
f 1156/3/9 1153/3/9 1152/3/9
f 1157/3/9 1153/3/9 1156/3/9
f 1162/3/9 1159/3/9 1158/3/9
f 1163/3/9 1159/3/9 1162/3/9
f 1164/3/9 1161/3/9 1160/3/9
f 1165/3/9 1161/3/9 1164/3/9
f 1168/3/9 1167/3/9 1166/3/9
f 1169/3/9 1167/3/9 1168/3/9
f 1174/4/9 1171/4/9 1170/4/9
f 1174/4/9 1172/4/9 1171/4/9
f 1174/4/9 1173/4/9 1172/4/9
f 1175/4/9 1173/4/9 1174/4/9
f 1178/3/9 1177/3/9 1176/3/9
f 1180/3/9 1179/3/9 1178/3/9
f 1180/3/9 1178/3/9 1176/3/9
f 1181/3/9 1179/3/9 1180/3/9
f 1182/7/10 1183/7/10 1192/7/10
f 1183/7/10 1184/7/10 1192/7/10
f 1190/7/10 1191/7/10 1192/7/10
f 1189/7/10 1190/7/10 1192/7/10
f 1188/7/10 1189/7/10 1192/7/10
f 1187/7/10 1188/7/10 1192/7/10
f 1186/7/10 1187/7/10 1192/7/10
f 1185/7/10 1186/7/10 1192/7/10
f 1184/7/10 1185/7/10 1192/7/10
f 1192/7/10 1191/7/10 1193/7/10
f 1194/7/10 1195/7/10 1204/7/10
f 1204/7/10 1195/7/10 1205/7/10
f 1196/7/10 1197/7/10 1206/7/10
f 1206/7/10 1197/7/10 1207/7/10
f 1198/7/10 1199/7/10 1208/7/10
f 1208/7/10 1199/7/10 1209/7/10
f 1200/7/10 1201/7/10 1210/7/10
f 1210/7/10 1201/7/10 1211/7/10
f 1202/7/10 1203/7/10 1212/7/10
f 1212/7/10 1203/7/10 1213/7/10
f 1214/7/10 1215/7/10 1222/7/10
f 1222/7/10 1215/7/10 1223/7/10
f 1216/7/10 1217/7/10 1224/7/10
f 1224/7/10 1217/7/10 1225/7/10
f 1218/7/10 1219/7/10 1226/7/10
f 1226/7/10 1219/7/10 1227/7/10
f 1220/7/10 1221/7/10 1228/7/10
f 1228/7/10 1221/7/10 1229/7/10
f 1230/3/10 1231/3/10 1232/3/10
f 1232/3/10 1231/3/10 1233/3/10
f 1234/3/10 1235/3/10 1237/3/10
f 1237/3/10 1235/3/10 1238/3/10
f 1238/3/10 1239/3/10 1240/3/10
f 1236/3/10 1237/3/10 1240/3/10
f 1237/3/10 1238/3/10 1240/3/10
f 1240/3/10 1239/3/10 1241/3/10
f 1242/4/10 1243/4/10 1244/4/10
f 1244/4/10 1243/4/10 1245/4/10
f 1246/3/10 1247/3/10 1250/3/10
f 1250/3/10 1247/3/10 1251/3/10
f 1248/3/10 1249/3/10 1252/3/10
f 1252/3/10 1249/3/10 1253/3/10
f 1254/8/10 1255/8/10 1256/8/10
f 1256/8/10 1255/8/10 1257/8/10
f 1260/3/10 1261/3/10 1262/3/10
f 1262/3/10 1261/3/10 1263/3/10
f 1258/3/10 1259/3/10 1264/3/10
f 1264/3/10 1259/3/10 1265/3/10
f 1266/3/10 1267/3/10 1270/3/10
f 1270/3/10 1267/3/10 1271/3/10
f 1268/3/10 1269/3/10 1272/3/10
f 1272/3/10 1269/3/10 1273/3/10
f 1274/8/10 1275/8/10 1276/8/10
f 1276/8/10 1275/8/10 1277/8/10
f 1278/3/10 1279/3/10 1285/3/10
f 1282/3/10 1283/3/10 1286/3/10
f 1284/3/10 1285/3/10 1288/3/10
f 1285/3/10 1279/3/10 1288/3/10
f 1288/3/10 1279/3/10 1289/3/10
f 1280/3/10 1281/3/10 1290/3/10
f 1290/3/10 1281/3/10 1291/3/10
f 1286/3/10 1287/3/10 1292/3/10
f 1282/3/10 1286/3/10 1292/3/10
f 1292/3/10 1287/3/10 1293/3/10
f 1284/3/10 1288/3/10 1294/3/10
f 1293/3/10 1287/3/10 1295/3/10
f 1284/3/10 1294/3/10 1296/3/10
f 1294/3/10 1295/3/10 1296/3/10
f 1296/3/10 1295/3/10 1297/3/10
f 1297/3/10 1295/3/10 1298/3/10
f 1295/3/10 1287/3/10 1299/3/10
f 1298/3/10 1295/3/10 1299/3/10
f 1299/3/10 1287/3/10 1300/3/10
f 1300/3/10 1287/3/10 1301/3/10
f 1298/3/10 1299/3/10 1302/3/10
f 1302/3/10 1299/3/10 1303/3/10
f 1304/8/10 1305/8/10 1306/8/10
f 1306/8/10 1305/8/10 1307/8/10
f 1308/4/10 1309/4/10 1313/4/10
f 1313/4/10 1309/4/10 1314/4/10
f 1310/4/10 1311/4/10 1315/4/10
f 1315/4/10 1311/4/10 1316/4/10
f 1313/4/10 1314/4/10 1318/4/10
f 1312/4/10 1313/4/10 1318/4/10
f 1314/4/10 1315/4/10 1318/4/10
f 1316/4/10 1317/4/10 1318/4/10
f 1315/4/10 1316/4/10 1318/4/10
f 1318/4/10 1317/4/10 1319/4/10
f 1320/3/10 1321/3/10 1324/3/10
f 1324/3/10 1321/3/10 1325/3/10
f 1322/3/10 1323/3/10 1326/3/10
f 1326/3/10 1323/3/10 1327/3/10
f 1328/3/10 1329/3/10 1332/3/10
f 1332/3/10 1329/3/10 1333/3/10
f 1330/3/10 1331/3/10 1334/3/10
f 1334/3/10 1331/3/10 1335/3/10
f 1336/3/10 1337/3/10 1340/3/10
f 1340/3/10 1337/3/10 1341/3/10
f 1338/3/10 1339/3/10 1342/3/10
f 1342/3/10 1339/3/10 1343/3/10
f 1344/3/10 1345/3/10 1347/3/10
f 1347/3/10 1345/3/10 1348/3/10
f 1346/4/10 1347/4/10 1350/4/10
f 1350/4/10 1347/4/10 1351/4/10
f 1348/4/10 1349/4/10 1352/4/10
f 1352/4/10 1349/4/10 1353/4/10
f 1354/4/10 1355/4/10 1358/4/10
f 1358/4/10 1355/4/10 1359/4/10
f 1359/4/10 1355/4/10 1360/4/10
f 1356/4/10 1357/4/10 1361/4/10
f 1361/4/10 1357/4/10 1362/4/10
f 1362/4/10 1357/4/10 1363/4/10
f 1364/4/10 1365/4/10 1368/4/10
f 1368/4/10 1365/4/10 1369/4/10
f 1369/4/10 1365/4/10 1370/4/10
f 1366/4/10 1367/4/10 1371/4/10
f 1371/4/10 1367/4/10 1372/4/10
f 1372/4/10 1367/4/10 1373/4/10
f 1374/4/10 1375/4/10 1378/4/10
f 1378/4/10 1375/4/10 1379/4/10
f 1376/4/10 1377/4/10 1380/4/10
f 1380/4/10 1377/4/10 1381/4/10
f 1382/5/10 1383/5/10 1386/5/10
f 1386/5/10 1383/5/10 1387/5/10
f 1384/5/10 1385/5/10 1388/5/10
f 1388/5/10 1385/5/10 1389/5/10
f 1390/3/10 1391/3/10 1394/3/10
f 1394/3/10 1391/3/10 1395/3/10
f 1392/3/10 1393/3/10 1396/3/10
f 1396/3/10 1393/3/10 1397/3/10
f 1398/4/10 1399/4/10 1403/4/10
f 1403/4/10 1399/4/10 1404/4/10
f 1400/3/10 1401/3/10 1405/3/10
f 1405/3/10 1401/3/10 1406/3/10
f 1402/3/10 1403/3/10 1407/3/10
f 1407/3/10 1403/3/10 1408/3/10
f 1409/4/10 1410/4/10 1413/4/10
f 1413/4/10 1410/4/10 1414/4/10
f 1411/4/10 1412/4/10 1415/4/10
f 1415/4/10 1412/4/10 1416/4/10
f 1414/4/10 1415/4/10 1419/4/10
f 1419/4/10 1415/4/10 1420/4/10
f 1419/3/10 1420/3/10 1423/3/10
f 1423/3/10 1420/3/10 1424/3/10
f 1425/3/10 1426/3/10 1427/3/10
f 1427/3/10 1426/3/10 1428/3/10
f 1429/3/10 1430/3/10 1431/3/10
f 1431/3/10 1430/3/10 1432/3/10
f 1433/3/10 1434/3/10 1435/3/10
f 1435/3/10 1434/3/10 1436/3/10
f 1417/3/10 1418/3/10 1439/3/10
f 1439/3/10 1418/3/10 1440/3/10
f 1437/3/10 1438/3/10 1441/3/10
f 1441/3/10 1438/3/10 1442/3/10
f 1421/3/10 1422/3/10 1443/3/10
f 1443/3/10 1422/3/10 1444/3/10
f 1441/4/10 1442/4/10 1446/4/10
f 1446/4/10 1442/4/10 1447/4/10
f 1445/4/10 1446/4/10 1449/4/10
f 1449/4/10 1446/4/10 1450/4/10
f 1447/4/10 1448/4/10 1451/4/10
f 1451/4/10 1448/4/10 1452/4/10
f 1453/4/10 1454/4/10 1457/4/10
f 1457/4/10 1454/4/10 1458/4/10
f 1455/4/10 1456/4/10 1459/4/10
f 1459/4/10 1456/4/10 1460/4/10
f 1461/4/10 1462/4/10 1463/4/10
f 1463/4/10 1462/4/10 1464/4/10
f 1465/4/10 1466/4/10 1467/4/10
f 1467/4/10 1466/4/10 1468/4/10
f 1469/4/10 1470/4/10 1471/4/10
f 1471/4/10 1470/4/10 1472/4/10
f 1473/4/10 1474/4/10 1475/4/10
f 1475/4/10 1474/4/10 1476/4/10
f 1477/4/10 1478/4/10 1481/4/10
f 1481/4/10 1478/4/10 1482/4/10
f 1479/4/10 1480/4/10 1483/4/10
f 1483/4/10 1480/4/10 1484/4/10
f 1485/4/10 1486/4/10 1489/4/10
f 1489/4/10 1486/4/10 1490/4/10
f 1487/4/10 1488/4/10 1491/4/10
f 1491/4/10 1488/4/10 1492/4/10
