# Blender 5.1.0
# www.blender.org
mtllib fence003.mtl
o fence.003
v -2.097055 0.146271 0.198291
v -2.097055 2.622106 0.198291
v -2.097055 0.146271 -0.198291
v -2.097055 2.622106 -0.198291
v -1.700473 0.146271 0.198291
v -1.700473 2.622106 0.198291
v -1.700473 0.146271 -0.198291
v -1.700473 2.622106 -0.198291
v -2.173560 -0.058257 -0.274796
v -2.173560 -0.058257 0.274796
v -1.623968 -0.058257 -0.274796
v -1.623968 -0.058257 0.274796
v -2.162566 0.098804 0.263802
v -1.634963 0.098804 0.263802
v -1.634963 0.098804 -0.263801
v -2.162566 0.098804 -0.263801
v -2.162157 2.937943 0.263393
v -2.162157 2.937943 -0.263392
v -1.635372 2.937943 -0.263392
v -1.635372 2.937943 0.263393
v -2.212590 2.780024 -0.313825
v -1.584939 2.780024 -0.313825
v -1.584939 2.780024 0.313825
v -2.212590 2.780024 0.313825
v 1.703754 0.146271 0.198291
v 1.703754 2.622106 0.198291
v 1.703754 0.146271 -0.198291
v 1.703754 2.622106 -0.198291
v 2.100336 0.146271 0.198291
v 2.100336 2.622106 0.198291
v 2.100336 0.146271 -0.198291
v 2.100336 2.622106 -0.198291
v 1.627249 -0.058257 -0.274796
v 1.627249 -0.058257 0.274796
v 2.176842 -0.058257 -0.274796
v 2.176842 -0.058257 0.274796
v 1.638244 0.098804 0.263802
v 2.165847 0.098804 0.263802
v 2.165847 0.098804 -0.263801
v 1.638244 0.098804 -0.263801
v 1.638653 2.937943 0.263393
v 1.638653 2.937943 -0.263392
v 2.165438 2.937943 -0.263392
v 2.165438 2.937943 0.263393
v 1.588220 2.780024 -0.313825
v 2.215870 2.780024 -0.313825
v 2.215870 2.780024 0.313825
v 1.588220 2.780024 0.313825
v -1.692852 2.701065 -0.205913
v -1.692852 2.701065 0.205913
v -2.104677 2.701065 -0.205913
v -2.104677 2.701065 0.205913
v 2.107958 2.701065 -0.205913
v 2.107958 2.701065 0.205913
v 1.696132 2.701065 -0.205913
v 1.696132 2.701065 0.205913
v -1.175735 0.312353 0.112126
v -1.175735 2.456024 0.112126
v -1.175735 0.312353 -0.112126
v -1.175735 2.456024 -0.112126
v -0.951483 0.312353 0.112126
v -0.951483 2.456024 0.112126
v -0.951483 0.312353 -0.112126
v -0.951483 2.456024 -0.112126
v -0.426510 0.312353 0.112126
v -0.426510 2.456024 0.112126
v -0.426510 0.312353 -0.112126
v -0.426510 2.456024 -0.112126
v -0.202258 0.312353 0.112126
v -0.202258 2.456024 0.112126
v -0.202258 0.312353 -0.112126
v -0.202258 2.456024 -0.112126
v 0.322715 0.312353 0.112126
v 0.322715 2.456024 0.112126
v 0.322715 0.312353 -0.112126
v 0.322715 2.456024 -0.112126
v 0.546966 0.312353 0.112126
v 0.546966 2.456024 0.112126
v 0.546966 0.312353 -0.112126
v 0.546966 2.456024 -0.112126
v 1.071939 0.312353 0.112126
v 1.071939 2.456024 0.112126
v 1.071939 0.312353 -0.112126
v 1.071939 2.456024 -0.112126
v 1.296191 0.312353 0.112126
v 1.296191 2.456024 0.112126
v 1.296191 0.312353 -0.112126
v 1.296191 2.456024 -0.112126
v -2.033373 0.401885 0.151994
v 1.780994 0.401885 0.151994
v -2.033373 0.401885 -0.151995
v 1.780994 0.401885 -0.151995
v -2.033373 0.235992 0.151994
v 1.780994 0.235992 0.151994
v -2.033373 0.235992 -0.151995
v 1.780994 0.235992 -0.151995
v -2.033373 2.534755 0.151994
v 1.780994 2.534755 0.151994
v -2.033373 2.534755 -0.151995
v 1.780994 2.534755 -0.151995
v -2.033373 2.368863 0.151994
v 1.780994 2.368863 0.151994
v -2.033373 2.368863 -0.151995
v 1.780994 2.368863 -0.151995
vn -1.0000 -0.0000 -0.0000
vn -0.0000 -0.0000 -1.0000
vn 1.0000 -0.0000 -0.0000
vn -0.0000 -0.0000 1.0000
vn -0.0000 0.0698 0.9976
vn -0.0000 0.3042 -0.9526
vn -0.0000 -1.0000 -0.0000
vn -0.0000 0.0698 -0.9976
vn -0.9976 0.0698 -0.0000
vn 0.9976 0.0698 -0.0000
vn 0.5867 0.8098 -0.0000
vn -0.5867 0.8098 -0.0000
vn -0.0000 0.8098 -0.5867
vn -0.0000 0.8098 0.5867
vn -0.0000 1.0000 -0.0000
vn 0.9526 0.3042 -0.0000
vn -0.9526 0.3042 -0.0000
vn -0.0000 0.3042 0.9526
vn -0.0000 -0.8070 0.5905
vn -0.5905 -0.8070 -0.0000
vn 0.5905 -0.8070 -0.0000
vn -0.0000 -0.8070 -0.5905
vn -0.0000 -0.0961 -0.9954
vn 0.9954 -0.0961 -0.0000
vn -0.9954 -0.0961 -0.0000
vn -0.0000 -0.0961 0.9954
vt 0.537556 0.128256
vt 0.537556 0.473153
vt 0.530926 0.313710
vt 0.530926 0.658608
vt 0.543949 0.658608
vt 0.543949 0.313710
vt 0.550579 0.128256
vt 0.550579 0.473153
vt 0.552789 0.526639
vt 0.552789 0.871537
vt 0.539766 0.871537
vt 0.539766 0.526639
vt 0.552789 0.526639
vt 0.539766 0.526639
vt 0.543949 0.658608
vt 0.530926 0.313710
vt 0.555509 0.087034
vt 0.548324 0.087034
vt 0.544665 0.189362
vt 0.551851 0.189362
vt 0.544665 0.189363
vt 0.556729 0.306851
vt 0.549543 0.306851
vt 0.539766 0.493759
vt 0.552789 0.493759
vt 0.537556 0.095376
vt 0.550579 0.095376
vt 0.550579 0.095376
vt 0.543949 0.280830
vt 0.530926 0.280830
vt 0.543949 0.280830
vt 0.539766 0.493759
vt 0.550579 0.473153
vt 0.554999 0.423609
vt 0.554999 0.768507
vt 0.541976 0.768507
vt 0.541976 0.423609
vt 0.539766 0.595326
vt 0.539766 0.940224
s 0
usemtl Material.001
f 1/1/1 2/2/1 4/2/1 3/1/1
f 3/3/2 4/4/2 8/5/2 7/6/2
f 7/7/3 8/8/3 6/8/3 5/7/3
f 5/9/4 6/10/4 2/11/4 1/12/4
f 14/13/5 13/14/5 10/12/5 12/9/5
f 22/15/6 21/4/6 18/4/6 19/5/6
f 9/3/7 11/6/7 12/6/7 10/3/7
f 16/16/8 15/6/8 11/6/8 9/3/8
f 13/1/9 16/1/9 9/1/9 10/1/9
f 15/7/10 14/7/10 12/7/10 11/7/10
f 7/17/11 5/17/11 14/17/11 15/17/11
f 1/18/12 3/18/12 16/18/12 13/18/12
f 3/19/13 7/20/13 15/20/13 16/21/13
f 5/22/14 1/23/14 13/23/14 14/22/14
f 19/5/15 18/4/15 17/4/15 20/5/15
f 23/8/16 22/8/16 19/8/16 20/8/16
f 21/2/17 24/2/17 17/2/17 18/2/17
f 24/11/18 23/10/18 20/10/18 17/11/18
f 52/24/19 50/25/19 23/25/19 24/24/19
f 51/26/20 52/26/20 24/26/20 21/26/20
f 50/27/21 49/28/21 22/28/21 23/28/21
f 49/29/22 51/30/22 21/30/22 22/31/22
f 25/1/1 26/2/1 28/2/1 27/1/1
f 27/3/2 28/4/2 32/5/2 31/6/2
f 31/7/3 32/8/3 30/8/3 29/7/3
f 29/9/4 30/10/4 26/11/4 25/12/4
f 38/13/5 37/14/5 34/12/5 36/9/5
f 46/15/6 45/4/6 42/4/6 43/5/6
f 33/3/7 35/6/7 36/6/7 34/3/7
f 40/16/8 39/6/8 35/6/8 33/3/8
f 37/1/9 40/1/9 33/1/9 34/1/9
f 39/7/10 38/7/10 36/7/10 35/7/10
f 31/17/11 29/17/11 38/17/11 39/17/11
f 25/18/12 27/18/12 40/18/12 37/18/12
f 27/19/13 31/20/13 39/20/13 40/21/13
f 29/22/14 25/23/14 37/23/14 38/22/14
f 43/5/15 42/4/15 41/4/15 44/5/15
f 47/8/16 46/8/16 43/8/16 44/8/16
f 45/2/17 48/2/17 41/2/17 42/2/17
f 48/11/18 47/10/18 44/10/18 41/11/18
f 56/32/19 54/25/19 47/25/19 48/24/19
f 55/26/20 56/26/20 48/26/20 45/26/20
f 54/28/21 53/27/21 46/28/21 47/28/21
f 53/29/22 55/30/22 45/30/22 46/31/22
f 8/5/23 4/4/23 51/4/23 49/5/23
f 6/8/24 8/8/24 49/8/24 50/33/24
f 4/2/25 2/2/25 52/2/25 51/2/25
f 2/11/26 6/10/26 50/10/26 52/11/26
f 32/5/23 28/4/23 55/4/23 53/5/23
f 30/8/24 32/8/24 53/33/24 54/8/24
f 28/2/25 26/2/25 56/2/25 55/2/25
f 26/11/26 30/10/26 54/10/26 56/11/26
f 57/1/1 58/2/1 60/2/1 59/1/1
f 59/3/2 60/4/2 64/5/2 63/6/2
f 63/7/3 64/8/3 62/8/3 61/7/3
f 61/9/4 62/10/4 58/11/4 57/12/4
f 59/3/7 63/6/7 61/6/7 57/3/7
f 64/5/15 60/4/15 58/4/15 62/5/15
f 65/1/1 66/2/1 68/2/1 67/1/1
f 67/3/2 68/4/2 72/5/2 71/6/2
f 71/7/3 72/8/3 70/8/3 69/7/3
f 69/9/4 70/10/4 66/11/4 65/12/4
f 67/3/7 71/6/7 69/6/7 65/3/7
f 72/5/15 68/4/15 66/4/15 70/5/15
f 73/1/1 74/2/1 76/2/1 75/1/1
f 75/3/2 76/4/2 80/5/2 79/6/2
f 79/7/3 80/8/3 78/8/3 77/7/3
f 77/9/4 78/10/4 74/11/4 73/12/4
f 75/3/7 79/6/7 77/6/7 73/3/7
f 80/5/15 76/4/15 74/4/15 78/5/15
f 81/1/1 82/2/1 84/2/1 83/1/1
f 83/3/2 84/4/2 88/5/2 87/6/2
f 87/7/3 88/8/3 86/8/3 85/7/3
f 85/9/4 86/10/4 82/11/4 81/12/4
f 83/3/7 87/6/7 85/6/7 81/3/7
f 88/5/15 84/4/15 82/4/15 86/5/15
f 89/1/15 90/2/15 92/2/15 91/1/15
f 91/3/2 92/4/2 96/5/2 95/6/2
f 95/7/7 96/8/7 94/8/7 93/7/7
f 93/34/4 94/35/4 90/36/4 89/37/4
f 91/3/1 95/6/1 93/6/1 89/3/1
f 96/5/3 92/4/3 90/4/3 94/5/3
f 97/38/15 98/39/15 100/39/15 99/38/15
f 99/3/2 100/4/2 104/5/2 103/6/2
f 103/7/7 104/8/7 102/8/7 101/7/7
f 101/34/4 102/35/4 98/36/4 97/37/4
f 99/3/1 103/6/1 101/6/1 97/3/1
f 104/5/3 100/4/3 98/4/3 102/5/3
