# Blender 5.1.0
# www.blender.org
mtllib fence002.mtl
o fence.002
v -2.085739 0.189731 0.198448
v -2.085739 2.665566 0.198448
v -2.085739 0.189731 -0.198134
v -2.085739 2.665566 -0.198134
v -1.689157 0.189731 0.198448
v -1.689157 2.665566 0.198448
v -1.689157 0.189731 -0.198134
v -1.689157 2.665566 -0.198134
v -2.162243 -0.014797 -0.274639
v -2.162243 -0.014797 0.274953
v -1.612651 -0.014797 -0.274639
v -1.612651 -0.014797 0.274953
v -2.151249 0.142264 0.263958
v -1.623646 0.142264 0.263958
v -1.623646 0.142264 -0.263644
v -2.151249 0.142264 -0.263644
v -2.150840 2.981402 0.263550
v -2.150840 2.981402 -0.263236
v -1.624055 2.981402 -0.263236
v -1.624055 2.981402 0.263550
v -2.201272 2.823484 -0.313668
v -1.573623 2.823484 -0.313668
v -1.573623 2.823484 0.313982
v -2.201272 2.823484 0.313982
v 1.715071 0.189731 0.198448
v 1.715071 2.665566 0.198448
v 1.715071 0.189731 -0.198134
v 1.715071 2.665566 -0.198134
v 2.111653 0.189731 0.198448
v 2.111653 2.665566 0.198448
v 2.111653 0.189731 -0.198134
v 2.111653 2.665566 -0.198134
v 1.638566 -0.014797 -0.274639
v 1.638566 -0.014797 0.274953
v 2.188159 -0.014797 -0.274639
v 2.188159 -0.014797 0.274953
v 1.649561 0.142264 0.263958
v 2.177164 0.142264 0.263958
v 2.177164 0.142264 -0.263644
v 1.649561 0.142264 -0.263644
v 1.649970 2.981402 0.263550
v 1.649970 2.981402 -0.263236
v 2.176755 2.981402 -0.263236
v 2.176755 2.981402 0.263550
v 1.599537 2.823484 -0.313668
v 2.227187 2.823484 -0.313668
v 2.227187 2.823484 0.313982
v 1.599537 2.823484 0.313982
v -1.681535 2.744525 -0.205756
v -1.681535 2.744525 0.206070
v -2.093360 2.744525 -0.205756
v -2.093360 2.744525 0.206070
v 2.119275 2.744525 -0.205756
v 2.119275 2.744525 0.206070
v 1.707449 2.744525 -0.205756
v 1.707449 2.744525 0.206070
v -1.654950 2.476156 -0.067303
v 0.038396 0.360008 -0.079326
v -1.654950 2.476156 0.067616
v 0.038396 0.360008 0.079640
v -1.758563 2.389742 -0.067303
v -0.083685 0.258192 -0.079326
v -1.758563 2.389742 0.067616
v -0.083685 0.258192 0.079640
v -1.756869 0.345150 0.063782
v -0.091040 2.483780 0.051758
v -1.756869 0.345150 -0.065142
v -0.091040 2.483780 -0.053118
v -1.628665 0.251160 0.063782
v 0.017770 2.404008 0.051758
v -1.628665 0.251160 -0.065142
v 0.017770 2.404008 -0.053118
v 1.790198 2.404008 -0.053118
v 0.143763 0.251160 -0.065142
v 1.790198 2.404008 0.067616
v 0.143763 0.251160 0.079640
v 1.681388 2.483780 -0.053118
v 0.015559 0.345150 -0.065142
v 1.681388 2.483780 0.067616
v 0.015559 0.345150 0.079640
v 1.688742 0.258192 0.063782
v 0.013865 2.389742 0.051758
v 1.688742 0.258192 -0.079326
v 0.013865 2.389742 -0.067303
v 1.810824 0.360008 0.063782
v 0.117478 2.476156 0.051758
v 1.810824 0.360008 -0.079326
v 0.117478 2.476156 -0.067303
v -2.022056 0.445345 0.152151
v 1.792311 0.445345 0.152151
v -2.022056 0.445345 -0.151838
v 1.792311 0.445345 -0.151838
v -2.022056 0.279453 0.152151
v 1.792311 0.279452 0.152151
v -2.022056 0.279453 -0.151838
v 1.792311 0.279452 -0.151838
v -2.022056 2.578215 0.152151
v 1.792311 2.578215 0.152151
v -2.022056 2.578215 -0.151838
v 1.792311 2.578215 -0.151838
v -2.022056 2.412323 0.152151
v 1.792311 2.412323 0.152151
v -2.022056 2.412323 -0.151838
v 1.792311 2.412323 -0.151838
v -0.086219 0.355814 0.112283
v -0.086219 2.499484 0.112283
v -0.086219 0.355814 -0.111969
v -0.086219 2.499484 -0.111969
v 0.106178 0.355814 0.112283
v 0.106178 2.499484 0.112283
v 0.106178 0.355814 -0.111969
v 0.106178 2.499484 -0.111969
v -0.938321 1.424998 0.075584
v -0.938321 1.424998 -0.076944
v -0.791081 1.317051 -0.076944
v -0.791081 1.317051 0.075584
v -0.934805 1.312557 0.091443
v -0.934805 1.312557 -0.091129
v -0.794597 1.429492 -0.091129
v -0.794597 1.429492 0.091443
v 0.834107 1.424998 0.091443
v 0.834107 1.424998 -0.076944
v 0.981347 1.317051 -0.076944
v 0.981347 1.317051 0.091443
v 0.837623 1.312557 0.075584
v 0.837623 1.312557 -0.091129
v 0.977831 1.429492 -0.091129
v 0.977831 1.429492 0.075584
vn -1.0000 -0.0000 -0.0000
vn -0.0000 -0.0000 -1.0000
vn 1.0000 -0.0000 -0.0000
vn -0.0000 -0.0000 1.0000
vn -0.0000 0.0698 0.9976
vn -0.0000 0.3042 -0.9526
vn -0.0000 -1.0000 -0.0000
vn -0.0000 0.0698 -0.9976
vn -0.9976 0.0698 -0.0000
vn 0.9976 0.0698 -0.0000
vn 0.5867 0.8098 -0.0000
vn -0.5867 0.8098 -0.0000
vn -0.0000 0.8098 -0.5867
vn -0.0000 0.8098 0.5867
vn -0.0000 1.0000 -0.0000
vn 0.9526 0.3042 -0.0000
vn -0.9526 0.3042 -0.0000
vn -0.0000 0.3042 0.9526
vn -0.0000 -0.8070 0.5905
vn -0.5905 -0.8070 -0.0000
vn 0.5905 -0.8070 -0.0000
vn -0.0000 -0.8070 -0.5905
vn -0.0000 -0.0961 -0.9954
vn 0.9954 -0.0961 -0.0000
vn -0.9954 -0.0961 -0.0000
vn -0.0000 -0.0961 0.9954
vn -0.6405 0.7680 -0.0000
vn 0.6405 -0.7680 -0.0000
vn -0.0113 0.0135 0.9998
vn 0.7725 0.6350 -0.0000
vn -0.0113 0.0135 -0.9998
vn -0.7943 -0.6075 -0.0000
vn -0.7808 0.6248 -0.0000
vn 0.0104 0.0142 -0.9998
vn 0.8022 -0.5970 -0.0000
vn 0.0104 0.0142 0.9998
vn -0.5913 -0.8065 -0.0000
vn 0.5913 0.8065 -0.0000
vn -0.0052 -0.0070 1.0000
vn 0.7863 -0.6179 -0.0000
vn -0.0052 -0.0070 -1.0000
vn -0.7969 0.6041 -0.0000
vn 0.0056 -0.0067 1.0000
vn 0.7889 0.6145 -0.0000
vn 0.0056 -0.0067 -1.0000
vn -0.7781 -0.6281 -0.0000
vt 0.537556 0.128256
vt 0.537556 0.473153
vt 0.530926 0.313710
vt 0.530926 0.658608
vt 0.543949 0.658608
vt 0.543949 0.313710
vt 0.550579 0.128256
vt 0.550579 0.473153
vt 0.552789 0.526639
vt 0.552789 0.871537
vt 0.539766 0.871537
vt 0.539766 0.526639
vt 0.552789 0.526639
vt 0.539766 0.526639
vt 0.543949 0.658608
vt 0.530926 0.313710
vt 0.555509 0.087034
vt 0.548324 0.087034
vt 0.544665 0.189362
vt 0.551851 0.189362
vt 0.544665 0.189363
vt 0.556729 0.306851
vt 0.549543 0.306851
vt 0.539766 0.493759
vt 0.552789 0.493759
vt 0.537556 0.095376
vt 0.550579 0.095376
vt 0.550579 0.095376
vt 0.543949 0.280830
vt 0.530926 0.280830
vt 0.543949 0.280830
vt 0.539766 0.493759
vt 0.550579 0.473153
vt 0.552789 0.699088
vt 0.539766 0.699088
vt 0.550579 0.300704
vt 0.530926 0.486159
vt 0.543949 0.486159
vt 0.537556 0.300704
vt 0.554999 0.423609
vt 0.554999 0.768507
vt 0.541976 0.768507
vt 0.541976 0.423609
vt 0.539766 0.595326
vt 0.539766 0.940224
s 0
usemtl Material.001
f 1/1/1 2/2/1 4/2/1 3/1/1
f 3/3/2 4/4/2 8/5/2 7/6/2
f 7/7/3 8/8/3 6/8/3 5/7/3
f 5/9/4 6/10/4 2/11/4 1/12/4
f 14/13/5 13/14/5 10/12/5 12/9/5
f 22/15/6 21/4/6 18/4/6 19/5/6
f 9/3/7 11/6/7 12/6/7 10/3/7
f 16/16/8 15/6/8 11/6/8 9/3/8
f 13/1/9 16/1/9 9/1/9 10/1/9
f 15/7/10 14/7/10 12/7/10 11/7/10
f 7/17/11 5/17/11 14/17/11 15/17/11
f 1/18/12 3/18/12 16/18/12 13/18/12
f 3/19/13 7/20/13 15/20/13 16/21/13
f 5/22/14 1/23/14 13/23/14 14/22/14
f 19/5/15 18/4/15 17/4/15 20/5/15
f 23/8/16 22/8/16 19/8/16 20/8/16
f 21/2/17 24/2/17 17/2/17 18/2/17
f 24/11/18 23/10/18 20/10/18 17/11/18
f 52/24/19 50/25/19 23/25/19 24/24/19
f 51/26/20 52/26/20 24/26/20 21/26/20
f 50/27/21 49/28/21 22/28/21 23/28/21
f 49/29/22 51/30/22 21/30/22 22/31/22
f 25/1/1 26/2/1 28/2/1 27/1/1
f 27/3/2 28/4/2 32/5/2 31/6/2
f 31/7/3 32/8/3 30/8/3 29/7/3
f 29/9/4 30/10/4 26/11/4 25/12/4
f 38/13/5 37/14/5 34/12/5 36/9/5
f 46/15/6 45/4/6 42/4/6 43/5/6
f 33/3/7 35/6/7 36/6/7 34/3/7
f 40/16/8 39/6/8 35/6/8 33/3/8
f 37/1/9 40/1/9 33/1/9 34/1/9
f 39/7/10 38/7/10 36/7/10 35/7/10
f 31/17/11 29/17/11 38/17/11 39/17/11
f 25/18/12 27/18/12 40/18/12 37/18/12
f 27/19/13 31/20/13 39/20/13 40/21/13
f 29/22/14 25/23/14 37/23/14 38/22/14
f 43/5/15 42/4/15 41/4/15 44/5/15
f 47/8/16 46/8/16 43/8/16 44/8/16
f 45/2/17 48/2/17 41/2/17 42/2/17
f 48/11/18 47/10/18 44/10/18 41/11/18
f 56/32/19 54/25/19 47/25/19 48/24/19
f 55/26/20 56/26/20 48/26/20 45/26/20
f 54/28/21 53/27/21 46/28/21 47/28/21
f 53/29/22 55/30/22 45/30/22 46/31/22
f 8/5/23 4/4/23 51/4/23 49/5/23
f 6/8/24 8/8/24 49/8/24 50/33/24
f 4/2/25 2/2/25 52/2/25 51/2/25
f 2/11/26 6/10/26 50/10/26 52/11/26
f 32/5/23 28/4/23 55/4/23 53/5/23
f 30/8/24 32/8/24 53/33/24 54/8/24
f 28/2/25 26/2/25 56/2/25 55/2/25
f 26/11/26 30/10/26 54/10/26 56/11/26
f 57/5/27 61/4/27 63/4/27 59/5/27
f 62/3/28 58/6/28 60/6/28 64/3/28
f 120/34/29 59/10/29 63/11/29 117/35/29
f 119/36/30 57/8/30 59/8/30 120/36/30
f 118/37/31 61/4/31 57/5/31 119/38/31
f 117/39/32 63/2/32 61/2/32 118/39/32
f 113/39/33 66/2/33 68/2/33 114/39/33
f 114/37/34 68/4/34 72/5/34 115/38/34
f 115/36/35 72/8/35 70/8/35 116/36/35
f 116/34/36 70/10/36 66/11/36 113/35/36
f 67/3/37 71/6/37 69/6/37 65/3/37
f 72/5/38 68/4/38 66/4/38 70/5/38
f 73/5/38 77/4/38 79/4/38 75/5/38
f 78/3/37 74/6/37 76/6/37 80/3/37
f 124/34/36 75/10/36 79/11/36 121/35/36
f 123/36/35 73/8/35 75/8/35 124/36/35
f 122/37/34 77/4/34 73/5/34 123/38/34
f 121/39/33 79/2/33 77/2/33 122/39/33
f 125/39/32 82/2/32 84/2/32 126/39/32
f 126/37/31 84/4/31 88/5/31 127/38/31
f 127/36/30 88/8/30 86/8/30 128/36/30
f 128/34/29 86/10/29 82/11/29 125/35/29
f 83/3/28 87/6/28 85/6/28 81/3/28
f 88/5/27 84/4/27 82/4/27 86/5/27
f 89/1/15 90/2/15 92/2/15 91/1/15
f 91/3/2 92/4/2 96/5/2 95/6/2
f 95/7/7 96/8/7 94/8/7 93/7/7
f 93/40/4 94/41/4 90/42/4 89/43/4
f 91/3/1 95/6/1 93/6/1 89/3/1
f 96/5/3 92/4/3 90/4/3 94/5/3
f 97/44/15 98/45/15 100/45/15 99/44/15
f 99/3/2 100/4/2 104/5/2 103/6/2
f 103/7/7 104/8/7 102/8/7 101/7/7
f 101/40/4 102/41/4 98/42/4 97/43/4
f 99/3/1 103/6/1 101/6/1 97/3/1
f 104/5/3 100/4/3 98/4/3 102/5/3
f 105/1/1 106/2/1 108/2/1 107/1/1
f 107/3/2 108/4/2 112/5/2 111/6/2
f 111/7/3 112/8/3 110/8/3 109/7/3
f 109/9/4 110/10/4 106/11/4 105/12/4
f 107/3/7 111/6/7 109/6/7 105/3/7
f 112/5/15 108/4/15 106/4/15 110/5/15
f 69/9/39 116/34/39 113/35/39 65/12/39
f 71/7/40 115/36/40 116/36/40 69/7/40
f 67/3/41 114/37/41 115/38/41 71/6/41
f 65/1/42 113/39/42 114/39/42 67/1/42
f 60/9/43 120/34/43 117/35/43 64/12/43
f 58/7/44 119/36/44 120/36/44 60/7/44
f 62/3/45 118/37/45 119/38/45 58/6/45
f 64/1/46 117/39/46 118/39/46 62/1/46
f 76/9/39 124/34/39 121/35/39 80/12/39
f 74/7/40 123/36/40 124/36/40 76/7/40
f 78/3/41 122/37/41 123/38/41 74/6/41
f 80/1/42 121/39/42 122/39/42 78/1/42
f 85/9/43 128/34/43 125/35/43 81/12/43
f 87/7/44 127/36/44 128/36/44 85/7/44
f 83/3/45 126/37/45 127/38/45 87/6/45
f 81/1/46 125/39/46 126/39/46 83/1/46
