# Blender 5.1.0
# www.blender.org
mtllib firefighter.mtl
o Untitled.005
v -0.847075 -0.029986 1.300835
v -0.847075 -0.029986 0.800834
v -0.847075 -0.029986 -0.899166
v -0.847075 -0.029986 -1.399165
v -0.847075 0.170014 1.100835
v -0.847075 0.170014 1.000834
v -0.847075 0.170014 -1.099165
v -0.847075 0.170014 -1.199165
v -0.847075 0.270014 1.400835
v -0.847075 0.270014 1.300834
v -0.847075 0.270014 1.100835
v -0.847075 0.270014 1.000834
v -0.847075 0.270014 0.800834
v -0.847075 0.270014 0.700835
v -0.847075 0.270014 -0.799165
v -0.847075 0.270014 -0.899166
v -0.847075 0.270014 -1.099165
v -0.847075 0.270014 -1.199165
v -0.847075 0.270014 -1.399165
v -0.847075 0.270014 -1.499166
v -0.847075 0.470014 1.300834
v -0.847075 0.470014 0.800834
v -0.847075 0.470014 -0.899166
v -0.847075 0.470014 -1.399165
v -0.847075 0.570014 1.400835
v -0.847075 0.570014 0.700835
v -0.847075 0.570014 -0.799165
v -0.847075 0.570014 -1.499166
v -0.847075 0.870014 0.200835
v -0.847075 0.870014 -1.599165
v -0.847075 0.970014 0.200835
v -0.847075 0.970014 0.100834
v -0.847075 0.970014 0.000834
v -0.847075 0.970014 -0.199165
v -0.847075 0.970014 -0.299165
v -0.847075 0.970014 -0.499166
v -0.847075 0.970014 -0.599165
v -0.847075 0.970014 -0.799165
v -0.847075 0.970014 -0.899166
v -0.847075 0.970014 -1.099165
v -0.847075 0.970014 -1.199165
v -0.847075 0.970014 -1.399165
v -0.847075 0.970014 -1.499166
v -0.847075 0.970014 -1.599165
v -0.847075 1.070014 1.500834
v -0.847075 1.070014 1.400835
v -0.847075 1.270014 1.500834
v -0.847075 1.270014 1.400835
v -0.847075 1.370014 0.200835
v -0.847075 1.370014 0.100834
v -0.847075 1.370014 0.000834
v -0.847075 1.370014 -0.199165
v -0.847075 1.370014 -0.299165
v -0.847075 1.370014 -0.499166
v -0.847075 1.370014 -0.599165
v -0.847075 1.370014 -0.799165
v -0.847075 1.370014 -0.899166
v -0.847075 1.370014 -1.099165
v -0.847075 1.370014 -1.199165
v -0.847075 1.370014 -1.399165
v -0.847075 1.370014 -1.499166
v -0.847075 1.370014 -1.599165
v -0.847075 1.470014 0.200835
v -0.847075 1.470014 -1.599165
v -0.747075 0.170014 1.800835
v -0.747075 0.170014 1.300835
v -0.747075 0.170014 0.800834
v -0.747075 0.170014 -0.899166
v -0.747075 0.170014 -1.399165
v -0.747075 0.170014 -1.899165
v -0.747075 0.270014 1.400835
v -0.747075 0.270014 1.300834
v -0.747075 0.270014 0.800834
v -0.747075 0.270014 0.700835
v -0.747075 0.270014 0.500834
v -0.747075 0.270014 -0.799165
v -0.747075 0.270014 -0.899166
v -0.747075 0.270014 -1.399165
v -0.747075 0.270014 -1.499166
v -0.747075 0.370014 1.800834
v -0.747075 0.370014 1.700835
v -0.747075 0.370014 1.400835
v -0.747075 0.370014 0.500834
v -0.747075 0.370014 -0.799165
v -0.747075 0.370014 -1.499166
v -0.747075 0.370014 -1.799165
v -0.747075 0.570014 1.500834
v -0.747075 0.570014 1.400835
v -0.747075 0.570014 0.700835
v -0.747075 0.570014 0.500834
v -0.747075 0.570014 -0.799165
v -0.747075 0.570014 -1.499166
v -0.747075 0.570014 -1.799165
v -0.747075 0.570014 -1.899165
v -0.747075 0.670014 1.700835
v -0.747075 0.670014 1.500834
v -0.747075 0.670014 0.700835
v -0.747075 0.670014 0.500834
v -0.747075 0.670014 -1.799165
v -0.747075 0.870014 0.200835
v -0.747075 0.870014 -1.599165
v -0.747075 0.970014 1.400835
v -0.747075 0.970014 1.100835
v -0.747075 0.970014 1.000834
v -0.747075 0.970014 0.800834
v -0.747075 0.970014 0.200835
v -0.747075 0.970014 0.100834
v -0.747075 0.970014 0.000834
v -0.747075 0.970014 -0.199165
v -0.747075 0.970014 -0.299165
v -0.747075 0.970014 -0.499166
v -0.747075 0.970014 -0.599165
v -0.747075 0.970014 -0.799165
v -0.747075 0.970014 -0.899166
v -0.747075 0.970014 -1.099165
v -0.747075 0.970014 -1.199165
v -0.747075 0.970014 -1.399165
v -0.747075 0.970014 -1.499166
v -0.747075 0.970014 -1.599165
v -0.747075 1.070014 1.500834
v -0.747075 1.070014 1.400835
v -0.747075 1.270014 1.500834
v -0.747075 1.270014 1.400835
v -0.747075 1.370014 0.200835
v -0.747075 1.370014 0.100834
v -0.747075 1.370014 0.000834
v -0.747075 1.370014 -0.199165
v -0.747075 1.370014 -0.299165
v -0.747075 1.370014 -0.499166
v -0.747075 1.370014 -0.599165
v -0.747075 1.370014 -0.799165
v -0.747075 1.370014 -0.899166
v -0.747075 1.370014 -1.099165
v -0.747075 1.370014 -1.199165
v -0.747075 1.370014 -1.399165
v -0.747075 1.370014 -1.499166
v -0.747075 1.370014 -1.599165
v -0.747075 1.470014 0.200835
v -0.747075 1.470014 -1.599165
v -0.747075 1.570014 1.400835
v -0.747075 1.570014 1.100835
v -0.747075 1.570014 1.000834
v -0.747075 1.570014 0.800834
v -0.747075 1.670014 1.500834
v -0.747075 1.670014 1.400835
v -0.747075 1.670014 0.800834
v -0.747075 1.670014 0.700835
v -0.747075 1.670014 0.500834
v -0.747075 1.670014 0.400835
v -0.747075 1.670014 -1.699165
v -0.747075 1.670014 -1.799165
v -0.747075 1.770014 1.400835
v -0.747075 1.770014 0.800834
v -0.747075 1.770014 0.400835
v -0.747075 1.770014 -1.699165
v -0.647076 0.270014 0.700835
v -0.647076 0.270014 0.500834
v -0.647076 0.370014 0.700835
v -0.647076 0.370014 0.500834
v -0.647076 0.570014 0.700835
v -0.647076 0.570014 0.500834
v -0.647076 0.670014 1.600835
v -0.647076 0.670014 1.500834
v -0.647076 0.670014 0.700835
v -0.647076 0.670014 0.500834
v -0.647076 0.770014 1.600835
v -0.647076 0.770014 1.500834
v -0.647076 0.770014 -1.799165
v -0.647076 0.770014 -1.899165
v -0.647076 0.970014 1.400835
v -0.647076 0.970014 1.100835
v -0.647076 0.970014 1.000834
v -0.647076 0.970014 0.800834
v -0.647076 1.570014 1.400835
v -0.647076 1.570014 1.100835
v -0.647076 1.570014 1.000834
v -0.647076 1.570014 0.800834
v -0.647076 1.570014 -1.799165
v -0.647076 1.570014 -1.899165
v -0.647076 1.670014 1.500834
v -0.647076 1.670014 1.400835
v -0.647076 1.670014 0.800834
v -0.647076 1.670014 0.700835
v -0.647076 1.670014 0.500834
v -0.647076 1.670014 0.400835
v -0.647076 1.670014 -1.699165
v -0.647076 1.670014 -1.799165
v -0.647076 1.770014 1.500834
v -0.647076 1.770014 1.400835
v -0.647076 1.770014 0.800834
v -0.647076 1.770014 0.700835
v -0.647076 1.770014 0.500834
v -0.647076 1.770014 0.400835
v -0.647076 1.770014 -1.699165
v -0.647076 1.770014 -1.799165
v -0.547075 1.770014 1.300834
v -0.547075 1.770014 1.100835
v -0.547075 1.870014 1.300834
v -0.547075 1.870014 1.100834
v -0.447075 0.770014 -1.799165
v -0.447075 0.770014 -1.899165
v -0.447075 1.770014 1.000834
v -0.447075 1.770014 0.700835
v -0.447075 1.770014 0.500834
v -0.447075 1.770014 -1.799165
v -0.447075 1.970014 1.000834
v -0.447075 1.970014 -1.899166
v 0.252925 0.770014 -1.799165
v 0.252925 0.770014 -1.899165
v 0.252925 1.770014 1.000834
v 0.252925 1.770014 0.700835
v 0.252925 1.770014 0.500834
v 0.252925 1.770014 -1.799165
v 0.252925 1.970014 1.000834
v 0.252925 1.970014 -1.899166
v 0.552925 0.770014 -1.799165
v 0.552925 0.770014 -1.899165
v 0.552925 0.870014 1.500834
v 0.552925 0.870014 1.400835
v 0.552925 1.570014 1.500834
v 0.552925 1.570014 1.400835
v 0.552925 1.570014 -1.799165
v 0.552925 1.570014 -1.899165
v 0.652925 1.570014 1.400835
v 0.652925 1.570014 0.700835
v 0.652925 1.670014 1.400835
v 0.652925 1.670014 0.700835
v 0.752925 -0.029986 1.300835
v 0.752925 -0.029986 0.800834
v 0.752925 -0.029986 -0.899166
v 0.752925 -0.029986 -1.399165
v 0.752925 0.170014 1.300835
v 0.752925 0.170014 1.200835
v 0.752925 0.170014 0.900835
v 0.752925 0.170014 0.800834
v 0.752925 0.170014 -0.899166
v 0.752925 0.170014 -0.999165
v 0.752925 0.170014 -1.299165
v 0.752925 0.170014 -1.399165
v -0.747075 -0.029986 1.300835
v -0.747075 -0.029986 0.800834
v -0.747075 -0.029986 -0.899166
v -0.747075 -0.029986 -1.399165
v -0.747075 0.170014 1.300835
v -0.747075 0.170014 1.200835
v -0.747075 0.170014 0.900835
v -0.747075 0.170014 0.800834
v -0.747075 0.170014 -0.899166
v -0.747075 0.170014 -0.999165
v -0.747075 0.170014 -1.299165
v -0.747075 0.170014 -1.399165
v -0.647076 1.570014 1.400835
v -0.647076 1.570014 0.700835
v -0.647076 1.670014 1.400835
v -0.647076 1.670014 0.700835
v -0.547075 0.770014 -1.799165
v -0.547075 0.770014 -1.899165
v -0.547075 0.870014 1.500834
v -0.547075 0.870014 1.400835
v -0.547075 1.570014 1.500834
v -0.547075 1.570014 1.400835
v -0.547075 1.570014 -1.799165
v -0.547075 1.570014 -1.899165
v -0.247075 0.770014 -1.799165
v -0.247075 0.770014 -1.899165
v -0.247075 1.770014 1.000834
v -0.247075 1.770014 0.700835
v -0.247075 1.770014 0.500834
v -0.247075 1.770014 -1.799165
v -0.247075 1.970014 1.000834
v -0.247075 1.970014 -1.899166
v 0.452925 0.770014 -1.799165
v 0.452925 0.770014 -1.899165
v 0.452925 1.770014 1.000834
v 0.452925 1.770014 0.700835
v 0.452925 1.770014 0.500834
v 0.452925 1.770014 -1.799165
v 0.452925 1.970014 1.000834
v 0.452925 1.970014 -1.899166
v 0.552925 1.770014 1.300834
v 0.552925 1.770014 1.100835
v 0.552925 1.870014 1.300834
v 0.552925 1.870014 1.100834
v 0.652925 0.270014 0.700835
v 0.652925 0.270014 0.500834
v 0.652925 0.370014 0.700835
v 0.652925 0.370014 0.500834
v 0.652925 0.570014 0.700835
v 0.652925 0.570014 0.500834
v 0.652925 0.670014 1.600835
v 0.652925 0.670014 1.500834
v 0.652925 0.670014 0.700835
v 0.652925 0.670014 0.500834
v 0.652925 0.770014 1.600835
v 0.652925 0.770014 1.500834
v 0.652925 0.770014 -1.799165
v 0.652925 0.770014 -1.899165
v 0.652925 0.970014 1.400835
v 0.652925 0.970014 1.100835
v 0.652925 0.970014 1.000834
v 0.652925 0.970014 0.800834
v 0.652925 1.570014 1.400835
v 0.652925 1.570014 1.100835
v 0.652925 1.570014 1.000834
v 0.652925 1.570014 0.800834
v 0.652925 1.570014 -1.799165
v 0.652925 1.570014 -1.899165
v 0.652925 1.670014 1.500834
v 0.652925 1.670014 1.400835
v 0.652925 1.670014 0.800834
v 0.652925 1.670014 0.700835
v 0.652925 1.670014 0.500834
v 0.652925 1.670014 0.400835
v 0.652925 1.670014 -1.699165
v 0.652925 1.670014 -1.799165
v 0.652925 1.770014 1.500834
v 0.652925 1.770014 1.400835
v 0.652925 1.770014 0.800834
v 0.652925 1.770014 0.700835
v 0.652925 1.770014 0.500834
v 0.652925 1.770014 0.400835
v 0.652925 1.770014 -1.699165
v 0.652925 1.770014 -1.799165
v 0.752925 0.170014 1.800835
v 0.752925 0.170014 1.300835
v 0.752925 0.170014 0.800834
v 0.752925 0.170014 -0.899166
v 0.752925 0.170014 -1.399165
v 0.752925 0.170014 -1.899165
v 0.752925 0.270014 1.400835
v 0.752925 0.270014 1.300834
v 0.752925 0.270014 0.800834
v 0.752925 0.270014 0.700835
v 0.752925 0.270014 0.500834
v 0.752925 0.270014 -0.799165
v 0.752925 0.270014 -0.899166
v 0.752925 0.270014 -1.399165
v 0.752925 0.270014 -1.499166
v 0.752925 0.370014 1.800834
v 0.752925 0.370014 1.700835
v 0.752925 0.370014 1.400835
v 0.752925 0.370014 0.500834
v 0.752925 0.370014 -0.799165
v 0.752925 0.370014 -1.499166
v 0.752925 0.370014 -1.799165
v 0.752925 0.570014 1.500834
v 0.752925 0.570014 1.400835
v 0.752925 0.570014 0.700835
v 0.752925 0.570014 0.500834
v 0.752925 0.570014 -0.799165
v 0.752925 0.570014 -1.499166
v 0.752925 0.570014 -1.799165
v 0.752925 0.570014 -1.899165
v 0.752925 0.670014 1.700835
v 0.752925 0.670014 1.500834
v 0.752925 0.670014 0.700835
v 0.752925 0.670014 0.500834
v 0.752925 0.670014 -1.799165
v 0.752925 0.870014 0.200835
v 0.752925 0.870014 -1.599165
v 0.752925 0.970014 1.400835
v 0.752925 0.970014 1.100835
v 0.752925 0.970014 1.000834
v 0.752925 0.970014 0.800834
v 0.752925 0.970014 0.200835
v 0.752925 0.970014 0.100834
v 0.752925 0.970014 0.000834
v 0.752925 0.970014 -0.199165
v 0.752925 0.970014 -0.299165
v 0.752925 0.970014 -0.499166
v 0.752925 0.970014 -0.599165
v 0.752925 0.970014 -0.799165
v 0.752925 0.970014 -0.899166
v 0.752925 0.970014 -1.099165
v 0.752925 0.970014 -1.199165
v 0.752925 0.970014 -1.399165
v 0.752925 0.970014 -1.499166
v 0.752925 0.970014 -1.599165
v 0.752925 1.070014 1.500834
v 0.752925 1.070014 1.400835
v 0.752925 1.270014 1.500834
v 0.752925 1.270014 1.400835
v 0.752925 1.370014 0.200835
v 0.752925 1.370014 0.100834
v 0.752925 1.370014 0.000834
v 0.752925 1.370014 -0.199165
v 0.752925 1.370014 -0.299165
v 0.752925 1.370014 -0.499166
v 0.752925 1.370014 -0.599165
v 0.752925 1.370014 -0.799165
v 0.752925 1.370014 -0.899166
v 0.752925 1.370014 -1.099165
v 0.752925 1.370014 -1.199165
v 0.752925 1.370014 -1.399165
v 0.752925 1.370014 -1.499166
v 0.752925 1.370014 -1.599165
v 0.752925 1.470014 0.200835
v 0.752925 1.470014 -1.599165
v 0.752925 1.570014 1.400835
v 0.752925 1.570014 1.100835
v 0.752925 1.570014 1.000834
v 0.752925 1.570014 0.800834
v 0.752925 1.670014 1.500834
v 0.752925 1.670014 1.400835
v 0.752925 1.670014 0.800834
v 0.752925 1.670014 0.700835
v 0.752925 1.670014 0.500834
v 0.752925 1.670014 0.400835
v 0.752925 1.670014 -1.699165
v 0.752925 1.670014 -1.799165
v 0.752925 1.770014 1.400835
v 0.752925 1.770014 0.800834
v 0.752925 1.770014 0.400835
v 0.752925 1.770014 -1.699165
v 0.852924 -0.029986 1.300835
v 0.852924 -0.029986 0.800834
v 0.852924 -0.029986 -0.899166
v 0.852924 -0.029986 -1.399165
v 0.852924 0.170014 1.100835
v 0.852924 0.170014 1.000834
v 0.852924 0.170014 -1.099165
v 0.852924 0.170014 -1.199165
v 0.852924 0.270014 1.400835
v 0.852924 0.270014 1.300834
v 0.852924 0.270014 1.100835
v 0.852924 0.270014 1.000834
v 0.852924 0.270014 0.800834
v 0.852924 0.270014 0.700835
v 0.852924 0.270014 -0.799165
v 0.852924 0.270014 -0.899166
v 0.852924 0.270014 -1.099165
v 0.852924 0.270014 -1.199165
v 0.852924 0.270014 -1.399165
v 0.852924 0.270014 -1.499166
v 0.852924 0.470014 1.300834
v 0.852924 0.470014 0.800834
v 0.852924 0.470014 -0.899166
v 0.852924 0.470014 -1.399165
v 0.852924 0.570014 1.400835
v 0.852924 0.570014 0.700835
v 0.852924 0.570014 -0.799165
v 0.852924 0.570014 -1.499166
v 0.852924 0.870014 0.200835
v 0.852924 0.870014 -1.599165
v 0.852924 0.970014 0.200835
v 0.852924 0.970014 0.100834
v 0.852924 0.970014 0.000834
v 0.852924 0.970014 -0.199165
v 0.852924 0.970014 -0.299165
v 0.852924 0.970014 -0.499166
v 0.852924 0.970014 -0.599165
v 0.852924 0.970014 -0.799165
v 0.852924 0.970014 -0.899166
v 0.852924 0.970014 -1.099165
v 0.852924 0.970014 -1.199165
v 0.852924 0.970014 -1.399165
v 0.852924 0.970014 -1.499166
v 0.852924 0.970014 -1.599165
v 0.852924 1.070014 1.500834
v 0.852924 1.070014 1.400835
v 0.852924 1.270014 1.500834
v 0.852924 1.270014 1.400835
v 0.852924 1.370014 0.200835
v 0.852924 1.370014 0.100834
v 0.852924 1.370014 0.000834
v 0.852924 1.370014 -0.199165
v 0.852924 1.370014 -0.299165
v 0.852924 1.370014 -0.499166
v 0.852924 1.370014 -0.599165
v 0.852924 1.370014 -0.799165
v 0.852924 1.370014 -0.899166
v 0.852924 1.370014 -1.099165
v 0.852924 1.370014 -1.199165
v 0.852924 1.370014 -1.399165
v 0.852924 1.370014 -1.499166
v 0.852924 1.370014 -1.599165
v 0.852924 1.470014 0.200835
v 0.852924 1.470014 -1.599165
v -0.747075 0.170014 1.800835
v -0.747075 0.370014 1.800834
v 0.752925 0.170014 1.800835
v 0.752925 0.370014 1.800834
v -0.747075 0.370014 1.700835
v -0.747075 0.670014 1.700835
v -0.647076 0.470014 1.700835
v -0.647076 0.570014 1.700835
v -0.347075 0.470014 1.700835
v -0.347075 0.570014 1.700835
v 0.352924 0.470014 1.700835
v 0.352924 0.570014 1.700835
v 0.652925 0.470014 1.700835
v 0.652925 0.570014 1.700835
v 0.752925 0.370014 1.700835
v 0.752925 0.670014 1.700835
v -0.647076 0.670014 1.600835
v -0.647076 0.770014 1.600835
v 0.652925 0.670014 1.600835
v 0.652925 0.770014 1.600835
v -0.847075 1.070014 1.500834
v -0.847075 1.270014 1.500834
v -0.747075 0.670014 1.500834
v -0.747075 1.070014 1.500834
v -0.747075 1.270014 1.500834
v -0.747075 1.670014 1.500834
v -0.647076 0.670014 1.500834
v -0.647076 0.770014 1.500834
v -0.647076 1.670014 1.500834
v -0.647076 1.770014 1.500834
v -0.547075 0.870014 1.500834
v -0.547075 1.570014 1.500834
v 0.552925 0.870014 1.500834
v 0.552925 1.570014 1.500834
v 0.652925 0.670014 1.500834
v 0.652925 0.770014 1.500834
v 0.652925 1.670014 1.500834
v 0.652925 1.770014 1.500834
v 0.752925 0.670014 1.500834
v 0.752925 1.070014 1.500834
v 0.752925 1.270014 1.500834
v 0.752925 1.670014 1.500834
v 0.852924 1.070014 1.500834
v 0.852924 1.270014 1.500834
v -0.847075 0.270014 1.400835
v -0.847075 0.570014 1.400835
v -0.747075 0.270014 1.400835
v -0.747075 0.370014 1.400835
v -0.747075 0.570014 1.400835
v -0.747075 1.670014 1.400835
v -0.747075 1.770014 1.400835
v -0.647076 1.670014 1.400835
v -0.647076 1.770014 1.400835
v -0.547075 0.870014 1.400835
v -0.547075 1.570014 1.400835
v 0.552925 0.870014 1.400835
v 0.552925 1.570014 1.400835
v 0.652925 1.670014 1.400835
v 0.652925 1.770014 1.400835
v 0.752925 0.270014 1.400835
v 0.752925 0.370014 1.400835
v 0.752925 0.570014 1.400835
v 0.752925 1.670014 1.400835
v 0.752925 1.770014 1.400835
v 0.852924 0.270014 1.400835
v 0.852924 0.570014 1.400835
v -0.847075 -0.029986 1.300835
v -0.847075 0.270014 1.300834
v -0.747075 -0.029986 1.300835
v -0.747075 0.170014 1.300835
v -0.747075 0.270014 1.300834
v -0.547075 1.770014 1.300834
v -0.547075 1.870014 1.300834
v -0.247075 1.770014 1.300834
v -0.247075 1.870014 1.300834
v 0.252925 1.770014 1.300834
v 0.252925 1.870014 1.300834
v 0.552925 1.770014 1.300834
v 0.552925 1.870014 1.300834
v 0.752925 -0.029986 1.300835
v 0.752925 0.170014 1.300835
v 0.752925 0.270014 1.300834
v 0.852924 -0.029986 1.300835
v 0.852924 0.270014 1.300834
v -0.747075 0.970014 1.100835
v -0.747075 1.570014 1.100835
v -0.647076 0.970014 1.100835
v -0.647076 1.570014 1.100835
v 0.652925 0.970014 1.100835
v 0.652925 1.570014 1.100835
v 0.752925 0.970014 1.100835
v 0.752925 1.570014 1.100835
v -0.447075 1.770014 1.000834
v -0.447075 1.970014 1.000834
v -0.247075 1.770014 1.000834
v -0.247075 1.970014 1.000834
v 0.252925 1.770014 1.000834
v 0.252925 1.970014 1.000834
v 0.452925 1.770014 1.000834
v 0.452925 1.970014 1.000834
v -0.747075 0.970014 0.800834
v -0.747075 1.570014 0.800834
v -0.647076 0.970014 0.800834
v -0.647076 1.570014 0.800834
v 0.652925 0.970014 0.800834
v 0.652925 1.570014 0.800834
v 0.752925 0.970014 0.800834
v 0.752925 1.570014 0.800834
v -0.647076 1.570014 0.700835
v -0.647076 1.670014 0.700835
v 0.652925 1.570014 0.700835
v 0.652925 1.670014 0.700835
v -0.747075 0.270014 0.500834
v -0.747075 0.370014 0.500834
v -0.747075 0.570014 0.500834
v -0.747075 0.670014 0.500834
v -0.747075 1.670014 0.500834
v -0.647076 0.270014 0.500834
v -0.647076 0.370014 0.500834
v -0.647076 0.570014 0.500834
v -0.647076 0.670014 0.500834
v -0.647076 1.670014 0.500834
v -0.647076 1.770014 0.500834
v -0.447075 1.770014 0.500834
v -0.247075 1.770014 0.500834
v 0.252925 1.770014 0.500834
v 0.452925 1.770014 0.500834
v 0.652925 0.270014 0.500834
v 0.652925 0.370014 0.500834
v 0.652925 0.570014 0.500834
v 0.652925 0.670014 0.500834
v 0.652925 1.670014 0.500834
v 0.652925 1.770014 0.500834
v 0.752925 0.270014 0.500834
v 0.752925 0.370014 0.500834
v 0.752925 0.570014 0.500834
v 0.752925 0.670014 0.500834
v 0.752925 1.670014 0.500834
v -0.747075 1.670014 0.400835
v -0.747075 1.770014 0.400835
v -0.647076 1.670014 0.400835
v -0.647076 1.770014 0.400835
v 0.652925 1.670014 0.400835
v 0.652925 1.770014 0.400835
v 0.752925 1.670014 0.400835
v 0.752925 1.770014 0.400835
v -0.847075 0.870014 0.200835
v -0.847075 0.970014 0.200835
v -0.847075 1.370014 0.200835
v -0.847075 1.470014 0.200835
v -0.747075 0.870014 0.200835
v -0.747075 0.970014 0.200835
v -0.747075 1.370014 0.200835
v -0.747075 1.470014 0.200835
v 0.752925 0.870014 0.200835
v 0.752925 0.970014 0.200835
v 0.752925 1.370014 0.200835
v 0.752925 1.470014 0.200835
v 0.852924 0.870014 0.200835
v 0.852924 0.970014 0.200835
v 0.852924 1.370014 0.200835
v 0.852924 1.470014 0.200835
v -0.847075 0.970014 0.100834
v -0.847075 1.370014 0.100834
v -0.747075 0.970014 0.100834
v -0.747075 1.370014 0.100834
v 0.752925 0.970014 0.100834
v 0.752925 1.370014 0.100834
v 0.852924 0.970014 0.100834
v 0.852924 1.370014 0.100834
v -0.847075 0.970014 -0.199165
v -0.847075 1.370014 -0.199165
v -0.747075 0.970014 -0.199165
v -0.747075 1.370014 -0.199165
v 0.752925 0.970014 -0.199165
v 0.752925 1.370014 -0.199165
v 0.852924 0.970014 -0.199165
v 0.852924 1.370014 -0.199165
v -0.847075 0.970014 -0.499166
v -0.847075 1.370014 -0.499166
v -0.747075 0.970014 -0.499166
v -0.747075 1.370014 -0.499166
v 0.752925 0.970014 -0.499166
v 0.752925 1.370014 -0.499166
v 0.852924 0.970014 -0.499166
v 0.852924 1.370014 -0.499166
v -0.847075 0.270014 -0.799165
v -0.847075 0.570014 -0.799165
v -0.847075 0.970014 -0.799165
v -0.847075 1.370014 -0.799165
v -0.747075 0.270014 -0.799165
v -0.747075 0.370014 -0.799165
v -0.747075 0.570014 -0.799165
v -0.747075 0.970014 -0.799165
v -0.747075 1.370014 -0.799165
v 0.752925 0.270014 -0.799165
v 0.752925 0.370014 -0.799165
v 0.752925 0.570014 -0.799165
v 0.752925 0.970014 -0.799165
v 0.752925 1.370014 -0.799165
v 0.852924 0.270014 -0.799165
v 0.852924 0.570014 -0.799165
v 0.852924 0.970014 -0.799165
v 0.852924 1.370014 -0.799165
v -0.847075 -0.029986 -0.899166
v -0.847075 0.270014 -0.899166
v -0.747075 -0.029986 -0.899166
v -0.747075 0.170014 -0.899166
v -0.747075 0.270014 -0.899166
v 0.752925 -0.029986 -0.899166
v 0.752925 0.170014 -0.899166
v 0.752925 0.270014 -0.899166
v 0.852924 -0.029986 -0.899166
v 0.852924 0.270014 -0.899166
v -0.847075 0.970014 -1.099165
v -0.847075 1.370014 -1.099165
v -0.747075 0.970014 -1.099165
v -0.747075 1.370014 -1.099165
v 0.752925 0.970014 -1.099165
v 0.752925 1.370014 -1.099165
v 0.852924 0.970014 -1.099165
v 0.852924 1.370014 -1.099165
v -0.847075 0.970014 -1.399165
v -0.847075 1.370014 -1.399165
v -0.747075 0.970014 -1.399165
v -0.747075 1.370014 -1.399165
v 0.752925 0.970014 -1.399165
v 0.752925 1.370014 -1.399165
v 0.852924 0.970014 -1.399165
v 0.852924 1.370014 -1.399165
v -0.847075 1.070014 1.400835
v -0.847075 1.270014 1.400835
v -0.747075 0.970014 1.400835
v -0.747075 1.070014 1.400835
v -0.747075 1.270014 1.400835
v -0.747075 1.570014 1.400835
v -0.647076 0.970014 1.400835
v -0.647076 1.570014 1.400835
v -0.647076 1.670014 1.400835
v 0.652925 0.970014 1.400835
v 0.652925 1.570014 1.400835
v 0.652925 1.670014 1.400835
v 0.752925 0.970014 1.400835
v 0.752925 1.070014 1.400835
v 0.752925 1.270014 1.400835
v 0.752925 1.570014 1.400835
v 0.852924 1.070014 1.400835
v 0.852924 1.270014 1.400835
v -0.547075 1.770014 1.100835
v -0.547075 1.870014 1.100834
v -0.247075 1.770014 1.100835
v -0.247075 1.870014 1.100834
v 0.252925 1.770014 1.100835
v 0.252925 1.870014 1.100834
v 0.552925 1.770014 1.100835
v 0.552925 1.870014 1.100834
v -0.747075 0.970014 1.000834
v -0.747075 1.570014 1.000834
v -0.647076 0.970014 1.000834
v -0.647076 1.570014 1.000834
v 0.652925 0.970014 1.000834
v 0.652925 1.570014 1.000834
v 0.752925 0.970014 1.000834
v 0.752925 1.570014 1.000834
v -0.847075 -0.029986 0.800834
v -0.847075 0.270014 0.800834
v -0.747075 -0.029986 0.800834
v -0.747075 0.170014 0.800834
v -0.747075 0.270014 0.800834
v -0.747075 1.670014 0.800834
v -0.747075 1.770014 0.800834
v -0.647076 1.670014 0.800834
v -0.647076 1.770014 0.800834
v 0.652925 1.670014 0.800834
v 0.652925 1.770014 0.800834
v 0.752925 -0.029986 0.800834
v 0.752925 0.170014 0.800834
v 0.752925 0.270014 0.800834
v 0.752925 1.670014 0.800834
v 0.752925 1.770014 0.800834
v 0.852924 -0.029986 0.800834
v 0.852924 0.270014 0.800834
v -0.847075 0.270014 0.700835
v -0.847075 0.570014 0.700835
v -0.747075 0.270014 0.700835
v -0.747075 0.370014 0.700835
v -0.747075 0.570014 0.700835
v -0.747075 0.670014 0.700835
v -0.747075 1.670014 0.700835
v -0.647076 0.270014 0.700835
v -0.647076 0.370014 0.700835
v -0.647076 0.570014 0.700835
v -0.647076 0.670014 0.700835
v -0.647076 1.670014 0.700835
v -0.647076 1.770014 0.700835
v -0.447075 1.770014 0.700835
v -0.247075 1.770014 0.700835
v 0.252925 1.770014 0.700835
v 0.452925 1.770014 0.700835
v 0.652925 0.270014 0.700835
v 0.652925 0.370014 0.700835
v 0.652925 0.570014 0.700835
v 0.652925 0.670014 0.700835
v 0.652925 1.670014 0.700835
v 0.652925 1.770014 0.700835
v 0.752925 0.270014 0.700835
v 0.752925 0.370014 0.700835
v 0.752925 0.570014 0.700835
v 0.752925 0.670014 0.700835
v 0.752925 1.670014 0.700835
v 0.852924 0.270014 0.700835
v 0.852924 0.570014 0.700835
v -0.847075 0.970014 0.000834
v -0.847075 1.370014 0.000834
v -0.747075 0.970014 0.000834
v -0.747075 1.370014 0.000834
v 0.752925 0.970014 0.000834
v 0.752925 1.370014 0.000834
v 0.852924 0.970014 0.000834
v 0.852924 1.370014 0.000834
v -0.847075 0.970014 -0.299165
v -0.847075 1.370014 -0.299165
v -0.747075 0.970014 -0.299165
v -0.747075 1.370014 -0.299165
v 0.752925 0.970014 -0.299165
v 0.752925 1.370014 -0.299165
v 0.852924 0.970014 -0.299165
v 0.852924 1.370014 -0.299165
v -0.847075 0.970014 -0.599165
v -0.847075 1.370014 -0.599165
v -0.747075 0.970014 -0.599165
v -0.747075 1.370014 -0.599165
v 0.752925 0.970014 -0.599165
v 0.752925 1.370014 -0.599165
v 0.852924 0.970014 -0.599165
v 0.852924 1.370014 -0.599165
v -0.847075 0.970014 -0.899166
v -0.847075 1.370014 -0.899166
v -0.747075 0.970014 -0.899166
v -0.747075 1.370014 -0.899166
v 0.752925 0.970014 -0.899166
v 0.752925 1.370014 -0.899166
v 0.852924 0.970014 -0.899166
v 0.852924 1.370014 -0.899166
v -0.847075 0.970014 -1.199165
v -0.847075 1.370014 -1.199165
v -0.747075 0.970014 -1.199165
v -0.747075 1.370014 -1.199165
v 0.752925 0.970014 -1.199165
v 0.752925 1.370014 -1.199165
v 0.852924 0.970014 -1.199165
v 0.852924 1.370014 -1.199165
v -0.847075 -0.029986 -1.399165
v -0.847075 0.270014 -1.399165
v -0.747075 -0.029986 -1.399165
v -0.747075 0.170014 -1.399165
v -0.747075 0.270014 -1.399165
v 0.752925 -0.029986 -1.399165
v 0.752925 0.170014 -1.399165
v 0.752925 0.270014 -1.399165
v 0.852924 -0.029986 -1.399165
v 0.852924 0.270014 -1.399165
v -0.847075 0.270014 -1.499166
v -0.847075 0.570014 -1.499166
v -0.847075 0.970014 -1.499166
v -0.847075 1.370014 -1.499166
v -0.747075 0.270014 -1.499166
v -0.747075 0.370014 -1.499166
v -0.747075 0.570014 -1.499166
v -0.747075 0.970014 -1.499166
v -0.747075 1.370014 -1.499166
v 0.752925 0.270014 -1.499166
v 0.752925 0.370014 -1.499166
v 0.752925 0.570014 -1.499166
v 0.752925 0.970014 -1.499166
v 0.752925 1.370014 -1.499166
v 0.852924 0.270014 -1.499166
v 0.852924 0.570014 -1.499166
v 0.852924 0.970014 -1.499166
v 0.852924 1.370014 -1.499166
v -0.847075 0.870014 -1.599165
v -0.847075 0.970014 -1.599165
v -0.847075 1.370014 -1.599165
v -0.847075 1.470014 -1.599165
v -0.747075 0.870014 -1.599165
v -0.747075 0.970014 -1.599165
v -0.747075 1.370014 -1.599165
v -0.747075 1.470014 -1.599165
v 0.752925 0.870014 -1.599165
v 0.752925 0.970014 -1.599165
v 0.752925 1.370014 -1.599165
v 0.752925 1.470014 -1.599165
v 0.852924 0.870014 -1.599165
v 0.852924 0.970014 -1.599165
v 0.852924 1.370014 -1.599165
v 0.852924 1.470014 -1.599165
v -0.747075 1.670014 -1.699165
v -0.747075 1.770014 -1.699165
v -0.647076 1.670014 -1.699165
v -0.647076 1.770014 -1.699165
v 0.652925 1.670014 -1.699165
v 0.652925 1.770014 -1.699165
v 0.752925 1.670014 -1.699165
v 0.752925 1.770014 -1.699165
v -0.747075 0.570014 -1.799165
v -0.747075 0.670014 -1.799165
v -0.747075 1.670014 -1.799165
v -0.647076 0.770014 -1.799165
v -0.647076 1.570014 -1.799165
v -0.647076 1.670014 -1.799165
v -0.647076 1.770014 -1.799165
v -0.547075 0.770014 -1.799165
v -0.547075 1.570014 -1.799165
v -0.447075 0.770014 -1.799165
v -0.447075 1.770014 -1.799165
v -0.247075 0.770014 -1.799165
v -0.247075 1.770014 -1.799165
v 0.252925 0.770014 -1.799165
v 0.252925 1.770014 -1.799165
v 0.452925 0.770014 -1.799165
v 0.452925 1.770014 -1.799165
v 0.552925 0.770014 -1.799165
v 0.552925 1.570014 -1.799165
v 0.652925 0.770014 -1.799165
v 0.652925 1.570014 -1.799165
v 0.652925 1.670014 -1.799165
v 0.652925 1.770014 -1.799165
v 0.752925 0.570014 -1.799165
v 0.752925 0.670014 -1.799165
v 0.752925 1.670014 -1.799165
v -0.747075 0.170014 -1.899165
v -0.747075 0.570014 -1.899165
v -0.647076 0.770014 -1.899165
v -0.647076 1.570014 -1.899165
v -0.547075 0.770014 -1.899165
v -0.547075 1.570014 -1.899165
v -0.447075 0.770014 -1.899165
v -0.447075 1.970014 -1.899166
v -0.247075 0.770014 -1.899165
v -0.247075 1.970014 -1.899166
v 0.252925 0.770014 -1.899165
v 0.252925 1.970014 -1.899166
v 0.452925 0.770014 -1.899165
v 0.452925 1.970014 -1.899166
v 0.552925 0.770014 -1.899165
v 0.552925 1.570014 -1.899165
v 0.652925 0.770014 -1.899165
v 0.652925 1.570014 -1.899165
v 0.752925 0.170014 -1.899165
v 0.752925 0.570014 -1.899165
v -0.847075 -0.029986 1.300835
v -0.747075 -0.029986 1.300835
v 0.752925 -0.029986 1.300835
v 0.852924 -0.029986 1.300835
v -0.847075 -0.029986 0.800834
v -0.747075 -0.029986 0.800834
v 0.752925 -0.029986 0.800834
v 0.852924 -0.029986 0.800834
v -0.847075 -0.029986 -0.899166
v -0.747075 -0.029986 -0.899166
v 0.752925 -0.029986 -0.899166
v 0.852924 -0.029986 -0.899166
v -0.847075 -0.029986 -1.399165
v -0.747075 -0.029986 -1.399165
v 0.752925 -0.029986 -1.399165
v 0.852924 -0.029986 -1.399165
v -0.747075 0.170014 1.800835
v 0.752925 0.170014 1.800835
v -0.547075 0.170014 1.700835
v 0.552925 0.170014 1.700835
v -0.547075 0.170014 1.500834
v -0.447075 0.170014 1.500834
v 0.452925 0.170014 1.500834
v 0.552925 0.170014 1.500834
v -0.747075 0.170014 1.300835
v -0.447075 0.170014 1.300835
v -0.247075 0.170014 1.300835
v 0.252925 0.170014 1.300835
v 0.452925 0.170014 1.300835
v 0.752925 0.170014 1.300835
v -0.747075 0.170014 1.200835
v -0.647076 0.170014 1.200835
v -0.247075 0.170014 1.200835
v -0.047075 0.170014 1.200835
v 0.052925 0.170014 1.200835
v 0.252925 0.170014 1.200835
v 0.652925 0.170014 1.200835
v 0.752925 0.170014 1.200835
v -0.647076 0.170014 1.100835
v -0.047075 0.170014 1.100835
v 0.052925 0.170014 1.100835
v 0.652925 0.170014 1.100835
v -0.647076 0.170014 1.000834
v -0.047075 0.170014 1.000834
v 0.052925 0.170014 1.000834
v 0.652925 0.170014 1.000834
v -0.747075 0.170014 0.900835
v -0.647076 0.170014 0.900835
v 0.152925 0.170014 0.900835
v 0.252925 0.170014 0.900835
v 0.652925 0.170014 0.900835
v 0.752925 0.170014 0.900835
v -0.747075 0.170014 0.800834
v 0.752925 0.170014 0.800834
v -0.547075 0.170014 0.700835
v -0.347075 0.170014 0.700835
v -0.547075 0.170014 0.500834
v -0.347075 0.170014 0.500834
v 0.352924 0.170014 0.500834
v 0.452925 0.170014 0.500834
v -0.547075 0.170014 0.400835
v -0.347075 0.170014 0.400835
v 0.552925 0.170014 0.300835
v 0.652925 0.170014 0.300835
v -0.547075 0.170014 0.200835
v -0.347075 0.170014 0.200835
v -0.547075 0.170014 0.100834
v -0.347075 0.170014 0.100834
v -0.547075 0.170014 -0.199165
v -0.347075 0.170014 -0.199165
v -0.547075 0.170014 -0.299165
v -0.347075 0.170014 -0.299165
v -0.547075 0.170014 -0.499165
v -0.347075 0.170014 -0.499165
v -0.547075 0.170014 -0.599165
v -0.347075 0.170014 -0.599165
v 0.552925 0.170014 -0.599165
v 0.652925 0.170014 -0.599165
v -0.547075 0.170014 -0.799165
v -0.347075 0.170014 -0.799165
v 0.352924 0.170014 -0.799165
v 0.452925 0.170014 -0.799165
v -0.747075 0.170014 -0.899166
v 0.152925 0.170014 -0.899166
v 0.252925 0.170014 -0.899166
v 0.752925 0.170014 -0.899166
v -0.747075 0.170014 -0.999165
v -0.647076 0.170014 -0.999165
v 0.652925 0.170014 -0.999165
v 0.752925 0.170014 -0.999165
v -0.647076 0.170014 -1.099165
v -0.047075 0.170014 -1.099165
v 0.052925 0.170014 -1.099165
v 0.652925 0.170014 -1.099165
v -0.647076 0.170014 -1.199165
v -0.047075 0.170014 -1.199165
v 0.052925 0.170014 -1.199165
v 0.652925 0.170014 -1.199165
v -0.747075 0.170014 -1.299165
v -0.647076 0.170014 -1.299165
v 0.652925 0.170014 -1.299165
v 0.752925 0.170014 -1.299165
v -0.747075 0.170014 -1.399165
v 0.752925 0.170014 -1.399165
v -0.447075 0.170014 -1.499165
v -0.047075 0.170014 -1.499165
v 0.052925 0.170014 -1.499165
v 0.452925 0.170014 -1.499165
v -0.447075 0.170014 -1.799165
v 0.452925 0.170014 -1.799165
v -0.747075 0.170014 -1.899165
v 0.752925 0.170014 -1.899165
v -0.847075 0.270014 1.400835
v -0.747075 0.270014 1.400835
v 0.752925 0.270014 1.400835
v 0.852924 0.270014 1.400835
v -0.847075 0.270014 1.300834
v -0.747075 0.270014 1.300834
v 0.752925 0.270014 1.300834
v 0.852924 0.270014 1.300834
v -0.847075 0.270014 0.800834
v -0.747075 0.270014 0.800834
v 0.752925 0.270014 0.800834
v 0.852924 0.270014 0.800834
v -0.847075 0.270014 0.700835
v -0.747075 0.270014 0.700835
v 0.752925 0.270014 0.700835
v 0.852924 0.270014 0.700835
v -0.847075 0.270014 -0.799165
v -0.747075 0.270014 -0.799165
v 0.752925 0.270014 -0.799165
v 0.852924 0.270014 -0.799165
v -0.847075 0.270014 -0.899166
v -0.747075 0.270014 -0.899166
v 0.752925 0.270014 -0.899166
v 0.852924 0.270014 -0.899166
v -0.847075 0.270014 -1.399165
v -0.747075 0.270014 -1.399165
v 0.752925 0.270014 -1.399165
v 0.852924 0.270014 -1.399165
v -0.847075 0.270014 -1.499166
v -0.747075 0.270014 -1.499166
v 0.752925 0.270014 -1.499166
v 0.852924 0.270014 -1.499166
v -0.647076 0.770014 -1.799165
v -0.547075 0.770014 -1.799165
v -0.447075 0.770014 -1.799165
v -0.247075 0.770014 -1.799165
v 0.252925 0.770014 -1.799165
v 0.452925 0.770014 -1.799165
v 0.552925 0.770014 -1.799165
v 0.652925 0.770014 -1.799165
v -0.647076 0.770014 -1.899165
v -0.547075 0.770014 -1.899165
v -0.447075 0.770014 -1.899165
v -0.247075 0.770014 -1.899165
v 0.252925 0.770014 -1.899165
v 0.452925 0.770014 -1.899165
v 0.552925 0.770014 -1.899165
v 0.652925 0.770014 -1.899165
v -0.847075 0.870014 0.200835
v -0.747075 0.870014 0.200835
v 0.752925 0.870014 0.200835
v 0.852924 0.870014 0.200835
v -0.847075 0.870014 -1.599165
v -0.747075 0.870014 -1.599165
v 0.752925 0.870014 -1.599165
v 0.852924 0.870014 -1.599165
v -0.847075 1.070014 1.500834
v -0.747075 1.070014 1.500834
v 0.752925 1.070014 1.500834
v 0.852924 1.070014 1.500834
v -0.847075 1.070014 1.400835
v -0.747075 1.070014 1.400835
v 0.752925 1.070014 1.400835
v 0.852924 1.070014 1.400835
v -0.847075 1.370014 0.200835
v -0.747075 1.370014 0.200835
v 0.752925 1.370014 0.200835
v 0.852924 1.370014 0.200835
v -0.847075 1.370014 0.100834
v -0.747075 1.370014 0.100834
v 0.752925 1.370014 0.100834
v 0.852924 1.370014 0.100834
v -0.847075 1.370014 0.000834
v -0.747075 1.370014 0.000834
v 0.752925 1.370014 0.000834
v 0.852924 1.370014 0.000834
v -0.847075 1.370014 -0.199165
v -0.747075 1.370014 -0.199165
v 0.752925 1.370014 -0.199165
v 0.852924 1.370014 -0.199165
v -0.847075 1.370014 -0.299165
v -0.747075 1.370014 -0.299165
v 0.752925 1.370014 -0.299165
v 0.852924 1.370014 -0.299165
v -0.847075 1.370014 -0.499166
v -0.747075 1.370014 -0.499166
v 0.752925 1.370014 -0.499166
v 0.852924 1.370014 -0.499166
v -0.847075 1.370014 -0.599165
v -0.747075 1.370014 -0.599165
v 0.752925 1.370014 -0.599165
v 0.852924 1.370014 -0.599165
v -0.847075 1.370014 -0.799165
v -0.747075 1.370014 -0.799165
v 0.752925 1.370014 -0.799165
v 0.852924 1.370014 -0.799165
v -0.847075 1.370014 -0.899166
v -0.747075 1.370014 -0.899166
v 0.752925 1.370014 -0.899166
v 0.852924 1.370014 -0.899166
v -0.847075 1.370014 -1.099165
v -0.747075 1.370014 -1.099165
v 0.752925 1.370014 -1.099165
v 0.852924 1.370014 -1.099165
v -0.847075 1.370014 -1.199165
v -0.747075 1.370014 -1.199165
v 0.752925 1.370014 -1.199165
v 0.852924 1.370014 -1.199165
v -0.847075 1.370014 -1.399165
v -0.747075 1.370014 -1.399165
v 0.752925 1.370014 -1.399165
v 0.852924 1.370014 -1.399165
v -0.847075 1.370014 -1.499166
v -0.747075 1.370014 -1.499166
v 0.752925 1.370014 -1.499166
v 0.852924 1.370014 -1.499166
v -0.847075 1.370014 -1.599165
v -0.747075 1.370014 -1.599165
v 0.752925 1.370014 -1.599165
v 0.852924 1.370014 -1.599165
v -0.547075 1.570014 1.500834
v 0.552925 1.570014 1.500834
v -0.747075 1.570014 1.400835
v -0.647076 1.570014 1.400835
v -0.547075 1.570014 1.400835
v 0.552925 1.570014 1.400835
v 0.652925 1.570014 1.400835
v 0.752925 1.570014 1.400835
v -0.747075 1.570014 1.100835
v -0.647076 1.570014 1.100835
v 0.652925 1.570014 1.100835
v 0.752925 1.570014 1.100835
v -0.747075 1.570014 1.000834
v -0.647076 1.570014 1.000834
v 0.652925 1.570014 1.000834
v 0.752925 1.570014 1.000834
v -0.747075 1.570014 0.800834
v -0.647076 1.570014 0.800834
v 0.652925 1.570014 0.800834
v 0.752925 1.570014 0.800834
v -0.647076 1.670014 1.400835
v 0.652925 1.670014 1.400835
v -0.647076 1.670014 0.700835
v 0.652925 1.670014 0.700835
v -0.447075 1.770014 0.700835
v -0.247075 1.770014 0.700835
v 0.252925 1.770014 0.700835
v 0.452925 1.770014 0.700835
v -0.447075 1.770014 0.500834
v -0.247075 1.770014 0.500834
v 0.252925 1.770014 0.500834
v 0.452925 1.770014 0.500834
v -0.747075 0.270014 0.700835
v -0.647076 0.270014 0.700835
v 0.652925 0.270014 0.700835
v 0.752925 0.270014 0.700835
v -0.747075 0.270014 0.500834
v -0.647076 0.270014 0.500834
v 0.652925 0.270014 0.500834
v 0.752925 0.270014 0.500834
v -0.747075 0.370014 1.800834
v 0.752925 0.370014 1.800834
v -0.747075 0.370014 1.700835
v 0.752925 0.370014 1.700835
v -0.847075 0.570014 1.400835
v -0.747075 0.570014 1.400835
v 0.752925 0.570014 1.400835
v 0.852924 0.570014 1.400835
v -0.847075 0.570014 0.700835
v -0.747075 0.570014 0.700835
v 0.752925 0.570014 0.700835
v 0.852924 0.570014 0.700835
v -0.847075 0.570014 -0.799165
v -0.747075 0.570014 -0.799165
v 0.752925 0.570014 -0.799165
v 0.852924 0.570014 -0.799165
v -0.847075 0.570014 -1.499166
v -0.747075 0.570014 -1.499166
v 0.752925 0.570014 -1.499166
v 0.852924 0.570014 -1.499166
v -0.747075 0.570014 -1.799165
v 0.752925 0.570014 -1.799165
v -0.747075 0.570014 -1.899165
v 0.752925 0.570014 -1.899165
v -0.747075 0.670014 1.700835
v 0.752925 0.670014 1.700835
v -0.647076 0.670014 1.600835
v 0.652925 0.670014 1.600835
v -0.747075 0.670014 1.500834
v -0.647076 0.670014 1.500834
v 0.652925 0.670014 1.500834
v 0.752925 0.670014 1.500834
v -0.647076 0.770014 1.600835
v 0.652925 0.770014 1.600835
v -0.647076 0.770014 1.500834
v 0.652925 0.770014 1.500834
v -0.547075 0.870014 1.500834
v 0.552925 0.870014 1.500834
v -0.547075 0.870014 1.400835
v 0.552925 0.870014 1.400835
v -0.747075 0.970014 1.400835
v -0.647076 0.970014 1.400835
v 0.652925 0.970014 1.400835
v 0.752925 0.970014 1.400835
v -0.747075 0.970014 1.100835
v -0.647076 0.970014 1.100835
v 0.652925 0.970014 1.100835
v 0.752925 0.970014 1.100835
v -0.747075 0.970014 1.000834
v -0.647076 0.970014 1.000834
v 0.652925 0.970014 1.000834
v 0.752925 0.970014 1.000834
v -0.747075 0.970014 0.800834
v -0.647076 0.970014 0.800834
v 0.652925 0.970014 0.800834
v 0.752925 0.970014 0.800834
v -0.847075 0.970014 0.200835
v -0.747075 0.970014 0.200835
v 0.752925 0.970014 0.200835
v 0.852924 0.970014 0.200835
v -0.847075 0.970014 0.100834
v -0.747075 0.970014 0.100834
v 0.752925 0.970014 0.100834
v 0.852924 0.970014 0.100834
v -0.847075 0.970014 0.000834
v -0.747075 0.970014 0.000834
v 0.752925 0.970014 0.000834
v 0.852924 0.970014 0.000834
v -0.847075 0.970014 -0.199165
v -0.747075 0.970014 -0.199165
v 0.752925 0.970014 -0.199165
v 0.852924 0.970014 -0.199165
v -0.847075 0.970014 -0.299165
v -0.747075 0.970014 -0.299165
v 0.752925 0.970014 -0.299165
v 0.852924 0.970014 -0.299165
v -0.847075 0.970014 -0.499166
v -0.747075 0.970014 -0.499166
v 0.752925 0.970014 -0.499166
v 0.852924 0.970014 -0.499166
v -0.847075 0.970014 -0.599165
v -0.747075 0.970014 -0.599165
v 0.752925 0.970014 -0.599165
v 0.852924 0.970014 -0.599165
v -0.847075 0.970014 -0.799165
v -0.747075 0.970014 -0.799165
v 0.752925 0.970014 -0.799165
v 0.852924 0.970014 -0.799165
v -0.847075 0.970014 -0.899166
v -0.747075 0.970014 -0.899166
v 0.752925 0.970014 -0.899166
v 0.852924 0.970014 -0.899166
v -0.847075 0.970014 -1.099165
v -0.747075 0.970014 -1.099165
v 0.752925 0.970014 -1.099165
v 0.852924 0.970014 -1.099165
v -0.847075 0.970014 -1.199165
v -0.747075 0.970014 -1.199165
v 0.752925 0.970014 -1.199165
v 0.852924 0.970014 -1.199165
v -0.847075 0.970014 -1.399165
v -0.747075 0.970014 -1.399165
v 0.752925 0.970014 -1.399165
v 0.852924 0.970014 -1.399165
v -0.847075 0.970014 -1.499166
v -0.747075 0.970014 -1.499166
v 0.752925 0.970014 -1.499166
v 0.852924 0.970014 -1.499166
v -0.847075 0.970014 -1.599165
v -0.747075 0.970014 -1.599165
v 0.752925 0.970014 -1.599165
v 0.852924 0.970014 -1.599165
v -0.847075 1.270014 1.500834
v -0.747075 1.270014 1.500834
v 0.752925 1.270014 1.500834
v 0.852924 1.270014 1.500834
v -0.847075 1.270014 1.400835
v -0.747075 1.270014 1.400835
v 0.752925 1.270014 1.400835
v 0.852924 1.270014 1.400835
v -0.847075 1.470014 0.200835
v -0.747075 1.470014 0.200835
v 0.752925 1.470014 0.200835
v 0.852924 1.470014 0.200835
v -0.847075 1.470014 -1.599165
v -0.747075 1.470014 -1.599165
v 0.752925 1.470014 -1.599165
v 0.852924 1.470014 -1.599165
v -0.647076 1.570014 1.400835
v 0.652925 1.570014 1.400835
v -0.647076 1.570014 0.700835
v 0.652925 1.570014 0.700835
v -0.647076 1.570014 -1.799165
v -0.547075 1.570014 -1.799165
v 0.552925 1.570014 -1.799165
v 0.652925 1.570014 -1.799165
v -0.647076 1.570014 -1.899165
v -0.547075 1.570014 -1.899165
v 0.552925 1.570014 -1.899165
v 0.652925 1.570014 -1.899165
v -0.747075 1.670014 1.500834
v -0.647076 1.670014 1.500834
v 0.652925 1.670014 1.500834
v 0.752925 1.670014 1.500834
v -0.747075 1.670014 1.400835
v -0.647076 1.670014 1.400835
v 0.652925 1.670014 1.400835
v 0.752925 1.670014 1.400835
v -0.747075 1.670014 0.800834
v -0.647076 1.670014 0.800834
v 0.652925 1.670014 0.800834
v 0.752925 1.670014 0.800834
v -0.747075 1.670014 0.700835
v -0.647076 1.670014 0.700835
v 0.652925 1.670014 0.700835
v 0.752925 1.670014 0.700835
v -0.747075 1.670014 0.500834
v -0.647076 1.670014 0.500834
v 0.652925 1.670014 0.500834
v 0.752925 1.670014 0.500834
v -0.747075 1.670014 0.400835
v -0.647076 1.670014 0.400835
v 0.652925 1.670014 0.400835
v 0.752925 1.670014 0.400835
v -0.747075 1.670014 -1.699165
v -0.647076 1.670014 -1.699165
v 0.652925 1.670014 -1.699165
v 0.752925 1.670014 -1.699165
v -0.747075 1.670014 -1.799165
v -0.647076 1.670014 -1.799165
v 0.652925 1.670014 -1.799165
v 0.752925 1.670014 -1.799165
v -0.647076 1.770014 1.500834
v 0.652925 1.770014 1.500834
v -0.747075 1.770014 1.400835
v -0.647076 1.770014 1.400835
v 0.652925 1.770014 1.400835
v 0.752925 1.770014 1.400835
v -0.547075 1.770014 1.300834
v -0.247075 1.770014 1.300834
v 0.252925 1.770014 1.300834
v 0.552925 1.770014 1.300834
v -0.547075 1.770014 1.100835
v -0.247075 1.770014 1.100835
v 0.252925 1.770014 1.100835
v 0.552925 1.770014 1.100835
v -0.447075 1.770014 1.000834
v -0.247075 1.770014 1.000834
v 0.252925 1.770014 1.000834
v 0.452925 1.770014 1.000834
v -0.747075 1.770014 0.800834
v -0.647076 1.770014 0.800834
v 0.652925 1.770014 0.800834
v 0.752925 1.770014 0.800834
v -0.647076 1.770014 0.700835
v -0.447075 1.770014 0.700835
v -0.247075 1.770014 0.700835
v 0.252925 1.770014 0.700835
v 0.452925 1.770014 0.700835
v 0.652925 1.770014 0.700835
v -0.647076 1.770014 0.500834
v -0.447075 1.770014 0.500834
v -0.247075 1.770014 0.500834
v 0.252925 1.770014 0.500834
v 0.452925 1.770014 0.500834
v 0.652925 1.770014 0.500834
v -0.747075 1.770014 0.400835
v -0.647076 1.770014 0.400835
v 0.652925 1.770014 0.400835
v 0.752925 1.770014 0.400835
v -0.747075 1.770014 -1.699165
v -0.647076 1.770014 -1.699165
v 0.652925 1.770014 -1.699165
v 0.752925 1.770014 -1.699165
v -0.647076 1.770014 -1.799165
v -0.447075 1.770014 -1.799165
v -0.247075 1.770014 -1.799165
v 0.252925 1.770014 -1.799165
v 0.452925 1.770014 -1.799165
v 0.652925 1.770014 -1.799165
v -0.547075 1.870014 1.300834
v -0.247075 1.870014 1.300834
v 0.252925 1.870014 1.300834
v 0.552925 1.870014 1.300834
v -0.547075 1.870014 1.100834
v -0.247075 1.870014 1.100834
v 0.252925 1.870014 1.100834
v 0.552925 1.870014 1.100834
v -0.447075 1.970014 1.000834
v -0.247075 1.970014 1.000834
v 0.252925 1.970014 1.000834
v 0.452925 1.970014 1.000834
v -0.447075 1.970014 -1.899166
v -0.247075 1.970014 -1.899166
v 0.252925 1.970014 -1.899166
v 0.452925 1.970014 -1.899166
vn -1.0000 -0.0000 -0.0000
vn 1.0000 -0.0000 -0.0000
vn -0.0000 -0.0000 1.0000
vn -0.0001 -0.0000 1.0000
vn -0.0000 -0.0000 -1.0000
vn -0.0000 -1.0000 -0.0000
vn -0.0000 1.0000 -0.0000
vt 0.912109 0.500000
vt 0.943359 0.500000
vt 0.626953 0.500000
vt 0.564453 0.500000
vt 0.908203 0.500000
vt 0.970703 0.500000
vt 0.568359 0.500000
vt 0.876953 0.500000
vt 0.697266 0.500000
vt 0.638672 0.500000
vt 0.845703 0.500000
vt 0.701172 0.500000
vt 0.916016 0.500000
s 1
usemtl palette
f 5/1/1 2/1/1 1/1/1
f 6/1/1 2/1/1 5/1/1
f 7/1/1 4/1/1 3/1/1
f 8/1/1 4/1/1 7/1/1
f 10/1/1 5/1/1 1/1/1
f 11/2/1 6/2/1 5/2/1
f 11/1/1 5/1/1 10/1/1
f 12/1/1 2/1/1 6/1/1
f 12/2/1 6/2/1 11/2/1
f 13/1/1 2/1/1 12/1/1
f 16/1/1 7/1/1 3/1/1
f 17/2/1 8/2/1 7/2/1
f 17/1/1 7/1/1 16/1/1
f 18/1/1 4/1/1 8/1/1
f 18/2/1 8/2/1 17/2/1
f 19/1/1 4/1/1 18/1/1
f 21/1/1 11/1/1 10/1/1
f 21/3/1 10/3/1 9/3/1
f 21/1/1 12/1/1 11/1/1
f 21/1/1 13/1/1 12/1/1
f 22/3/1 14/3/1 13/3/1
f 22/1/1 13/1/1 21/1/1
f 23/1/1 17/1/1 16/1/1
f 23/3/1 16/3/1 15/3/1
f 23/1/1 18/1/1 17/1/1
f 23/1/1 19/1/1 18/1/1
f 24/3/1 20/3/1 19/3/1
f 24/1/1 19/1/1 23/1/1
f 25/3/1 21/3/1 9/3/1
f 25/3/1 22/3/1 21/3/1
f 26/3/1 14/3/1 22/3/1
f 26/3/1 22/3/1 25/3/1
f 27/3/1 23/3/1 15/3/1
f 27/3/1 24/3/1 23/3/1
f 28/3/1 20/3/1 24/3/1
f 28/3/1 24/3/1 27/3/1
f 31/4/1 30/4/1 29/4/1
f 32/4/1 30/4/1 31/4/1
f 33/4/1 30/4/1 32/4/1
f 34/4/1 30/4/1 33/4/1
f 35/4/1 30/4/1 34/4/1
f 36/4/1 30/4/1 35/4/1
f 37/4/1 30/4/1 36/4/1
f 38/4/1 30/4/1 37/4/1
f 39/4/1 30/4/1 38/4/1
f 40/4/1 30/4/1 39/4/1
f 41/4/1 30/4/1 40/4/1
f 42/4/1 30/4/1 41/4/1
f 43/4/1 30/4/1 42/4/1
f 44/4/1 30/4/1 43/4/1
f 47/5/1 46/5/1 45/5/1
f 48/5/1 46/5/1 47/5/1
f 50/4/1 33/4/1 32/4/1
f 51/4/1 33/4/1 50/4/1
f 52/4/1 35/4/1 34/4/1
f 53/4/1 35/4/1 52/4/1
f 54/4/1 37/4/1 36/4/1
f 55/4/1 37/4/1 54/4/1
f 56/4/1 39/4/1 38/4/1
f 57/4/1 39/4/1 56/4/1
f 58/4/1 41/4/1 40/4/1
f 59/4/1 41/4/1 58/4/1
f 60/4/1 43/4/1 42/4/1
f 61/4/1 43/4/1 60/4/1
f 63/4/1 51/4/1 50/4/1
f 63/4/1 62/4/1 61/4/1
f 63/4/1 61/4/1 60/4/1
f 63/4/1 60/4/1 59/4/1
f 63/4/1 59/4/1 58/4/1
f 63/4/1 58/4/1 57/4/1
f 63/4/1 53/4/1 52/4/1
f 63/4/1 56/4/1 55/4/1
f 63/4/1 57/4/1 56/4/1
f 63/4/1 54/4/1 53/4/1
f 63/4/1 55/4/1 54/4/1
f 63/4/1 52/4/1 51/4/1
f 63/4/1 50/4/1 49/4/1
f 64/4/1 62/4/1 63/4/1
f 71/6/1 66/6/1 65/6/1
f 72/6/1 66/6/1 71/6/1
f 73/6/1 68/6/1 67/6/1
f 74/6/1 68/6/1 73/6/1
f 75/6/1 68/6/1 74/6/1
f 76/6/1 68/6/1 75/6/1
f 77/6/1 68/6/1 76/6/1
f 78/6/1 70/6/1 69/6/1
f 79/6/1 70/6/1 78/6/1
f 80/6/1 71/6/1 65/6/1
f 81/6/1 71/6/1 80/6/1
f 82/6/1 71/6/1 81/6/1
f 83/6/1 76/6/1 75/6/1
f 84/6/1 76/6/1 83/6/1
f 85/6/1 70/6/1 79/6/1
f 86/6/1 70/6/1 85/6/1
f 87/3/1 82/3/1 81/3/1
f 88/3/1 82/3/1 87/3/1
f 90/3/1 84/3/1 83/3/1
f 91/3/1 84/3/1 90/3/1
f 92/3/1 86/3/1 85/3/1
f 93/6/1 70/6/1 86/6/1
f 93/3/1 86/3/1 92/3/1
f 94/6/1 70/6/1 93/6/1
f 95/3/1 87/3/1 81/3/1
f 96/7/1 89/7/1 88/7/1
f 96/3/1 87/3/1 95/3/1
f 96/7/1 88/7/1 87/7/1
f 97/7/1 89/7/1 96/7/1
f 98/7/1 92/7/1 91/7/1
f 98/7/1 91/7/1 90/7/1
f 98/7/1 93/7/1 92/7/1
f 99/7/1 93/7/1 98/7/1
f 100/3/1 99/3/1 98/3/1
f 101/3/1 99/3/1 100/3/1
f 102/3/1 97/3/1 96/3/1
f 103/3/1 97/3/1 102/3/1
f 104/3/1 97/3/1 103/3/1
f 105/3/1 97/3/1 104/3/1
f 106/3/1 100/3/1 98/3/1
f 119/3/1 99/3/1 101/3/1
f 120/3/1 102/3/1 96/3/1
f 121/3/1 102/3/1 120/3/1
f 124/3/1 106/3/1 98/3/1
f 124/3/1 107/3/1 106/3/1
f 125/3/1 107/3/1 124/3/1
f 126/3/1 109/3/1 108/3/1
f 127/3/1 109/3/1 126/3/1
f 128/3/1 111/3/1 110/3/1
f 129/3/1 111/3/1 128/3/1
f 130/3/1 113/3/1 112/3/1
f 131/3/1 113/3/1 130/3/1
f 132/3/1 115/3/1 114/3/1
f 133/3/1 115/3/1 132/3/1
f 134/3/1 117/3/1 116/3/1
f 135/3/1 117/3/1 134/3/1
f 136/3/1 119/3/1 118/3/1
f 137/3/1 99/3/1 119/3/1
f 137/3/1 119/3/1 136/3/1
f 138/3/1 124/3/1 98/3/1
f 139/3/1 99/3/1 137/3/1
f 140/3/1 123/3/1 122/3/1
f 141/3/1 104/3/1 103/3/1
f 142/3/1 104/3/1 141/3/1
f 143/3/1 97/3/1 105/3/1
f 144/3/1 142/3/1 141/3/1
f 144/3/1 143/3/1 142/3/1
f 144/3/1 140/3/1 122/3/1
f 144/3/1 141/3/1 140/3/1
f 145/3/1 143/3/1 144/3/1
f 146/3/1 97/3/1 143/3/1
f 146/3/1 143/3/1 145/3/1
f 147/3/1 97/3/1 146/3/1
f 148/3/1 138/3/1 98/3/1
f 148/3/1 139/3/1 138/3/1
f 149/3/1 139/3/1 148/3/1
f 150/3/1 99/3/1 139/3/1
f 150/3/1 139/3/1 149/3/1
f 151/3/1 99/3/1 150/3/1
f 152/3/1 146/3/1 145/3/1
f 153/3/1 146/3/1 152/3/1
f 154/3/1 150/3/1 149/3/1
f 155/3/1 150/3/1 154/3/1
f 158/6/1 157/6/1 156/6/1
f 159/6/1 157/6/1 158/6/1
f 160/7/1 159/7/1 158/7/1
f 161/7/1 159/7/1 160/7/1
f 164/7/1 161/7/1 160/7/1
f 165/7/1 161/7/1 164/7/1
f 166/3/1 163/3/1 162/3/1
f 167/3/1 163/3/1 166/3/1
f 174/8/1 171/8/1 170/8/1
f 175/8/1 171/8/1 174/8/1
f 176/8/1 173/8/1 172/8/1
f 177/8/1 173/8/1 176/8/1
f 178/4/1 169/4/1 168/4/1
f 179/4/1 169/4/1 178/4/1
f 183/7/1 165/7/1 164/7/1
f 184/7/1 165/7/1 183/7/1
f 188/3/1 181/3/1 180/3/1
f 189/3/1 181/3/1 188/3/1
f 190/3/1 183/3/1 182/3/1
f 191/3/1 183/3/1 190/3/1
f 192/3/1 185/3/1 184/3/1
f 193/3/1 185/3/1 192/3/1
f 194/3/1 187/3/1 186/3/1
f 195/3/1 187/3/1 194/3/1
f 198/9/1 197/9/1 196/9/1
f 199/9/1 197/9/1 198/9/1
f 205/4/1 201/4/1 200/4/1
f 206/4/1 204/4/1 203/4/1
f 206/4/1 205/4/1 204/4/1
f 206/4/1 203/4/1 202/4/1
f 207/4/1 201/4/1 205/4/1
f 207/4/1 205/4/1 206/4/1
f 213/4/1 209/4/1 208/4/1
f 214/4/1 212/4/1 211/4/1
f 214/4/1 213/4/1 212/4/1
f 214/4/1 211/4/1 210/4/1
f 215/4/1 209/4/1 213/4/1
f 215/4/1 213/4/1 214/4/1
f 220/3/1 219/3/1 218/3/1
f 221/3/1 219/3/1 220/3/1
f 222/4/1 217/4/1 216/4/1
f 223/4/1 217/4/1 222/4/1
f 226/3/1 225/3/1 224/3/1
f 227/3/1 225/3/1 226/3/1
f 232/1/1 229/1/1 228/1/1
f 233/1/1 229/1/1 232/1/1
f 234/1/1 229/1/1 233/1/1
f 235/1/1 229/1/1 234/1/1
f 236/1/1 231/1/1 230/1/1
f 237/1/1 231/1/1 236/1/1
f 238/1/1 231/1/1 237/1/1
f 239/1/1 231/1/1 238/1/1
f 240/1/2 241/1/2 244/1/2
f 244/1/2 241/1/2 245/1/2
f 245/1/2 241/1/2 246/1/2
f 246/1/2 241/1/2 247/1/2
f 242/1/2 243/1/2 248/1/2
f 248/1/2 243/1/2 249/1/2
f 249/1/2 243/1/2 250/1/2
f 250/1/2 243/1/2 251/1/2
f 252/3/2 253/3/2 254/3/2
f 254/3/2 253/3/2 255/3/2
f 258/3/2 259/3/2 260/3/2
f 260/3/2 259/3/2 261/3/2
f 256/4/2 257/4/2 262/4/2
f 262/4/2 257/4/2 263/4/2
f 264/4/2 265/4/2 269/4/2
f 267/4/2 268/4/2 270/4/2
f 268/4/2 269/4/2 270/4/2
f 266/4/2 267/4/2 270/4/2
f 269/4/2 265/4/2 271/4/2
f 270/4/2 269/4/2 271/4/2
f 272/4/2 273/4/2 277/4/2
f 275/4/2 276/4/2 278/4/2
f 276/4/2 277/4/2 278/4/2
f 274/4/2 275/4/2 278/4/2
f 277/4/2 273/4/2 279/4/2
f 278/4/2 277/4/2 279/4/2
f 280/10/2 281/10/2 282/10/2
f 282/10/2 281/10/2 283/10/2
f 284/6/2 285/6/2 286/6/2
f 286/6/2 285/6/2 287/6/2
f 286/7/2 287/7/2 288/7/2
f 288/7/2 287/7/2 289/7/2
f 288/7/2 289/7/2 292/7/2
f 292/7/2 289/7/2 293/7/2
f 290/3/2 291/3/2 294/3/2
f 294/3/2 291/3/2 295/3/2
f 298/8/2 299/8/2 302/8/2
f 302/8/2 299/8/2 303/8/2
f 300/8/2 301/8/2 304/8/2
f 304/8/2 301/8/2 305/8/2
f 296/4/2 297/4/2 306/4/2
f 306/4/2 297/4/2 307/4/2
f 292/7/2 293/7/2 311/7/2
f 311/7/2 293/7/2 312/7/2
f 308/3/2 309/3/2 316/3/2
f 316/3/2 309/3/2 317/3/2
f 310/3/2 311/3/2 318/3/2
f 318/3/2 311/3/2 319/3/2
f 312/3/2 313/3/2 320/3/2
f 320/3/2 313/3/2 321/3/2
f 314/3/2 315/3/2 322/3/2
f 322/3/2 315/3/2 323/3/2
f 324/6/2 325/6/2 330/6/2
f 330/6/2 325/6/2 331/6/2
f 326/6/2 327/6/2 332/6/2
f 332/6/2 327/6/2 333/6/2
f 333/6/2 327/6/2 334/6/2
f 334/6/2 327/6/2 335/6/2
f 335/6/2 327/6/2 336/6/2
f 328/6/2 329/6/2 337/6/2
f 337/6/2 329/6/2 338/6/2
f 324/6/2 330/6/2 339/6/2
f 339/6/2 330/6/2 340/6/2
f 340/6/2 330/6/2 341/6/2
f 334/6/2 335/6/2 342/6/2
f 342/6/2 335/6/2 343/6/2
f 338/6/2 329/6/2 344/6/2
f 344/6/2 329/6/2 345/6/2
f 340/3/2 341/3/2 346/3/2
f 346/3/2 341/3/2 347/3/2
f 342/3/2 343/3/2 349/3/2
f 349/3/2 343/3/2 350/3/2
f 344/3/2 345/3/2 351/3/2
f 345/6/2 329/6/2 352/6/2
f 351/3/2 345/3/2 352/3/2
f 352/6/2 329/6/2 353/6/2
f 340/3/2 346/3/2 354/3/2
f 347/7/2 348/7/2 355/7/2
f 354/3/2 346/3/2 355/3/2
f 346/7/2 347/7/2 355/7/2
f 355/7/2 348/7/2 356/7/2
f 350/7/2 351/7/2 357/7/2
f 349/7/2 350/7/2 357/7/2
f 351/7/2 352/7/2 357/7/2
f 357/7/2 352/7/2 358/7/2
f 357/3/2 358/3/2 359/3/2
f 359/3/2 358/3/2 360/3/2
f 355/3/2 356/3/2 361/3/2
f 361/3/2 356/3/2 362/3/2
f 362/3/2 356/3/2 363/3/2
f 363/3/2 356/3/2 364/3/2
f 357/3/2 359/3/2 365/3/2
f 360/3/2 358/3/2 378/3/2
f 355/3/2 361/3/2 379/3/2
f 379/3/2 361/3/2 380/3/2
f 357/3/2 365/3/2 383/3/2
f 365/3/2 366/3/2 383/3/2
f 383/3/2 366/3/2 384/3/2
f 367/3/2 368/3/2 385/3/2
f 385/3/2 368/3/2 386/3/2
f 369/3/2 370/3/2 387/3/2
f 387/3/2 370/3/2 388/3/2
f 371/3/2 372/3/2 389/3/2
f 389/3/2 372/3/2 390/3/2
f 373/3/2 374/3/2 391/3/2
f 391/3/2 374/3/2 392/3/2
f 375/3/2 376/3/2 393/3/2
f 393/3/2 376/3/2 394/3/2
f 377/3/2 378/3/2 395/3/2
f 378/3/2 358/3/2 396/3/2
f 395/3/2 378/3/2 396/3/2
f 357/3/2 383/3/2 397/3/2
f 396/3/2 358/3/2 398/3/2
f 381/3/2 382/3/2 399/3/2
f 362/3/2 363/3/2 400/3/2
f 400/3/2 363/3/2 401/3/2
f 364/3/2 356/3/2 402/3/2
f 400/3/2 401/3/2 403/3/2
f 401/3/2 402/3/2 403/3/2
f 381/3/2 399/3/2 403/3/2
f 399/3/2 400/3/2 403/3/2
f 403/3/2 402/3/2 404/3/2
f 402/3/2 356/3/2 405/3/2
f 404/3/2 402/3/2 405/3/2
f 405/3/2 356/3/2 406/3/2
f 357/3/2 397/3/2 407/3/2
f 397/3/2 398/3/2 407/3/2
f 407/3/2 398/3/2 408/3/2
f 398/3/2 358/3/2 409/3/2
f 408/3/2 398/3/2 409/3/2
f 409/3/2 358/3/2 410/3/2
f 404/3/2 405/3/2 411/3/2
f 411/3/2 405/3/2 412/3/2
f 408/3/2 409/3/2 413/3/2
f 413/3/2 409/3/2 414/3/2
f 415/1/2 416/1/2 419/1/2
f 419/1/2 416/1/2 420/1/2
f 417/1/2 418/1/2 421/1/2
f 421/1/2 418/1/2 422/1/2
f 415/1/2 419/1/2 424/1/2
f 419/2/2 420/2/2 425/2/2
f 424/1/2 419/1/2 425/1/2
f 420/1/2 416/1/2 426/1/2
f 425/2/2 420/2/2 426/2/2
f 426/1/2 416/1/2 427/1/2
f 417/1/2 421/1/2 430/1/2
f 421/2/2 422/2/2 431/2/2
f 430/1/2 421/1/2 431/1/2
f 422/1/2 418/1/2 432/1/2
f 431/2/2 422/2/2 432/2/2
f 432/1/2 418/1/2 433/1/2
f 424/1/2 425/1/2 435/1/2
f 423/3/2 424/3/2 435/3/2
f 425/1/2 426/1/2 435/1/2
f 426/1/2 427/1/2 435/1/2
f 427/3/2 428/3/2 436/3/2
f 435/1/2 427/1/2 436/1/2
f 430/1/2 431/1/2 437/1/2
f 429/3/2 430/3/2 437/3/2
f 431/1/2 432/1/2 437/1/2
f 432/1/2 433/1/2 437/1/2
f 433/3/2 434/3/2 438/3/2
f 437/1/2 433/1/2 438/1/2
f 423/3/2 435/3/2 439/3/2
f 435/3/2 436/3/2 439/3/2
f 436/3/2 428/3/2 440/3/2
f 439/3/2 436/3/2 440/3/2
f 429/3/2 437/3/2 441/3/2
f 437/3/2 438/3/2 441/3/2
f 438/3/2 434/3/2 442/3/2
f 441/3/2 438/3/2 442/3/2
f 443/4/2 444/4/2 445/4/2
f 445/4/2 444/4/2 446/4/2
f 446/4/2 444/4/2 447/4/2
f 447/4/2 444/4/2 448/4/2
f 448/4/2 444/4/2 449/4/2
f 449/4/2 444/4/2 450/4/2
f 450/4/2 444/4/2 451/4/2
f 451/4/2 444/4/2 452/4/2
f 452/4/2 444/4/2 453/4/2
f 453/4/2 444/4/2 454/4/2
f 454/4/2 444/4/2 455/4/2
f 455/4/2 444/4/2 456/4/2
f 456/4/2 444/4/2 457/4/2
f 457/4/2 444/4/2 458/4/2
f 459/5/2 460/5/2 461/5/2
f 461/5/2 460/5/2 462/5/2
f 446/4/2 447/4/2 464/4/2
f 464/4/2 447/4/2 465/4/2
f 448/4/2 449/4/2 466/4/2
f 466/4/2 449/4/2 467/4/2
f 450/4/2 451/4/2 468/4/2
f 468/4/2 451/4/2 469/4/2
f 452/4/2 453/4/2 470/4/2
f 470/4/2 453/4/2 471/4/2
f 454/4/2 455/4/2 472/4/2
f 472/4/2 455/4/2 473/4/2
f 456/4/2 457/4/2 474/4/2
f 474/4/2 457/4/2 475/4/2
f 464/4/2 465/4/2 477/4/2
f 475/4/2 476/4/2 477/4/2
f 474/4/2 475/4/2 477/4/2
f 473/4/2 474/4/2 477/4/2
f 472/4/2 473/4/2 477/4/2
f 471/4/2 472/4/2 477/4/2
f 466/4/2 467/4/2 477/4/2
f 469/4/2 470/4/2 477/4/2
f 470/4/2 471/4/2 477/4/2
f 467/4/2 468/4/2 477/4/2
f 468/4/2 469/4/2 477/4/2
f 465/4/2 466/4/2 477/4/2
f 463/4/2 464/4/2 477/4/2
f 477/4/2 476/4/2 478/4/2
f 481/6/3 480/6/3 479/6/3
f 482/6/3 480/6/3 481/6/3
f 485/3/3 484/3/3 483/3/3
f 486/3/3 484/3/3 485/3/3
f 487/3/3 485/3/3 483/3/3
f 487/11/3 486/11/3 485/11/3
f 488/3/3 484/3/3 486/3/3
f 488/11/3 486/11/3 487/11/3
f 489/3/3 487/3/3 483/3/3
f 489/3/3 488/3/3 487/3/3
f 490/3/3 484/3/3 488/3/3
f 490/3/3 488/3/3 489/3/3
f 491/3/3 489/3/3 483/3/3
f 491/11/3 490/11/3 489/11/3
f 492/3/3 484/3/3 490/3/3
f 492/11/3 490/11/3 491/11/3
f 493/3/3 491/3/3 483/3/3
f 493/3/3 492/3/3 491/3/3
f 494/3/3 484/3/3 492/3/3
f 494/3/3 492/3/3 493/3/3
f 497/3/3 496/3/3 495/3/3
f 498/3/3 496/3/3 497/3/3
f 502/5/3 500/5/3 499/5/3
f 503/5/3 500/5/3 502/5/3
f 505/3/3 502/3/3 501/3/3
f 505/3/3 504/3/3 503/3/3
f 505/3/3 503/3/3 502/3/3
f 506/3/4 504/3/3 505/3/3
f 507/3/3 504/3/3 506/3/4
f 509/3/3 508/3/3 507/3/3
f 509/3/3 507/3/3 506/3/4
f 510/3/3 508/3/3 509/3/3
f 511/3/3 509/3/3 506/3/4
f 512/3/3 508/3/3 510/3/3
f 514/3/3 511/3/3 506/3/4
f 514/3/3 512/3/3 511/3/3
f 515/3/3 508/3/3 512/3/3
f 515/3/3 512/3/3 514/3/3
f 516/3/3 508/3/3 515/3/3
f 517/3/3 514/3/3 513/3/3
f 517/3/3 515/3/3 514/3/3
f 518/3/3 515/3/3 517/3/3
f 519/3/3 515/3/3 518/3/3
f 520/3/3 515/3/3 519/3/3
f 521/5/3 519/5/3 518/5/3
f 522/5/3 519/5/3 521/5/3
f 525/3/3 524/3/3 523/3/3
f 526/3/3 524/3/3 525/3/3
f 527/3/3 524/3/3 526/3/3
f 530/3/3 529/3/3 528/3/3
f 531/3/3 529/3/3 530/3/3
f 534/8/3 533/8/3 532/8/3
f 535/8/3 533/8/3 534/8/3
f 541/3/3 537/3/3 536/3/3
f 542/3/3 537/3/3 541/3/3
f 543/3/3 540/3/3 539/3/3
f 543/3/3 539/3/3 538/3/3
f 544/3/3 540/3/3 543/3/3
f 547/1/3 546/1/3 545/1/3
f 548/1/3 546/1/3 547/1/3
f 549/1/3 546/1/3 548/1/3
f 552/9/3 551/9/3 550/9/3
f 553/9/3 551/9/3 552/9/3
f 554/12/3 553/12/3 552/12/3
f 555/12/3 553/12/3 554/12/3
f 556/10/3 555/10/3 554/10/3
f 557/10/3 555/10/3 556/10/3
f 561/1/3 559/1/3 558/1/3
f 561/1/3 560/1/3 559/1/3
f 562/1/3 560/1/3 561/1/3
f 565/3/3 564/3/3 563/3/3
f 566/3/3 564/3/3 565/3/3
f 569/3/3 568/3/3 567/3/3
f 570/3/3 568/3/3 569/3/3
f 573/4/3 572/4/3 571/4/3
f 574/4/3 572/4/3 573/4/3
f 577/4/3 576/4/3 575/4/3
f 578/4/3 576/4/3 577/4/3
f 581/3/3 580/3/3 579/3/3
f 582/3/3 580/3/3 581/3/3
f 585/3/3 584/3/3 583/3/3
f 586/3/3 584/3/3 585/3/3
f 589/7/3 588/7/3 587/7/3
f 590/7/3 588/7/3 589/7/3
f 596/6/3 592/6/3 591/6/3
f 597/3/3 593/3/3 592/3/3
f 597/6/3 592/6/3 596/6/3
f 598/7/3 594/7/3 593/7/3
f 598/3/3 593/3/3 597/3/3
f 599/3/3 595/3/3 594/3/3
f 599/7/3 594/7/3 598/7/3
f 600/3/3 595/3/3 599/3/3
f 602/3/3 601/3/3 600/3/3
f 603/3/3 602/3/3 600/3/3
f 604/3/3 603/3/3 600/3/3
f 605/3/3 604/3/3 600/3/3
f 610/3/3 605/3/3 600/3/3
f 611/3/3 605/3/3 610/3/3
f 612/6/3 607/6/3 606/6/3
f 613/3/3 608/3/3 607/3/3
f 613/6/3 607/6/3 612/6/3
f 614/7/3 609/7/3 608/7/3
f 614/3/3 608/3/3 613/3/3
f 615/3/3 610/3/3 609/3/3
f 615/7/3 609/7/3 614/7/3
f 616/3/3 610/3/3 615/3/3
f 619/3/3 618/3/3 617/3/3
f 620/3/3 618/3/3 619/3/3
f 623/3/3 622/3/3 621/3/3
f 624/3/3 622/3/3 623/3/3
f 629/4/3 626/4/3 625/4/3
f 630/4/3 626/4/3 629/4/3
f 631/4/3 628/4/3 627/4/3
f 632/4/3 628/4/3 631/4/3
f 637/4/3 634/4/3 633/4/3
f 638/4/3 634/4/3 637/4/3
f 639/4/3 636/4/3 635/4/3
f 640/4/3 636/4/3 639/4/3
f 643/4/3 642/4/3 641/4/3
f 644/4/3 642/4/3 643/4/3
f 647/4/3 646/4/3 645/4/3
f 648/4/3 646/4/3 647/4/3
f 651/4/3 650/4/3 649/4/3
f 652/4/3 650/4/3 651/4/3
f 655/4/3 654/4/3 653/4/3
f 656/4/3 654/4/3 655/4/3
f 659/4/3 658/4/3 657/4/3
f 660/4/3 658/4/3 659/4/3
f 663/4/3 662/4/3 661/4/3
f 664/4/3 662/4/3 663/4/3
f 669/3/3 666/3/3 665/3/3
f 670/3/3 666/3/3 669/3/3
f 671/3/3 666/3/3 670/3/3
f 672/4/3 668/4/3 667/4/3
f 673/4/3 668/4/3 672/4/3
f 679/3/3 675/3/3 674/3/3
f 679/3/3 676/3/3 675/3/3
f 680/3/3 676/3/3 679/3/3
f 681/4/3 678/4/3 677/4/3
f 682/4/3 678/4/3 681/4/3
f 685/1/3 684/1/3 683/1/3
f 686/1/3 684/1/3 685/1/3
f 687/1/3 684/1/3 686/1/3
f 691/1/3 689/1/3 688/1/3
f 691/1/3 690/1/3 689/1/3
f 692/1/3 690/1/3 691/1/3
f 695/4/3 694/4/3 693/4/3
f 696/4/3 694/4/3 695/4/3
f 699/4/3 698/4/3 697/4/3
f 700/4/3 698/4/3 699/4/3
f 703/4/3 702/4/3 701/4/3
f 704/4/3 702/4/3 703/4/3
f 707/4/3 706/4/3 705/4/3
f 708/4/3 706/4/3 707/4/3
f 709/5/5 710/5/5 712/5/5
f 712/5/5 710/5/5 713/5/5
f 711/3/5 712/3/5 715/3/5
f 713/3/5 714/3/5 715/3/5
f 712/3/5 713/3/5 715/3/5
f 715/3/5 714/3/5 716/3/5
f 716/3/5 717/3/5 719/3/5
f 719/3/5 717/3/5 720/3/5
f 718/3/5 719/3/5 721/3/5
f 721/3/5 719/3/5 722/3/5
f 722/3/5 719/3/5 723/3/5
f 723/3/5 719/3/5 724/3/5
f 722/5/5 723/5/5 725/5/5
f 725/5/5 723/5/5 726/5/5
f 727/9/5 728/9/5 729/9/5
f 729/9/5 728/9/5 730/9/5
f 729/12/5 730/12/5 731/12/5
f 731/12/5 730/12/5 732/12/5
f 731/10/5 732/10/5 733/10/5
f 733/10/5 732/10/5 734/10/5
f 735/3/5 736/3/5 737/3/5
f 737/3/5 736/3/5 738/3/5
f 739/3/5 740/3/5 741/3/5
f 741/3/5 740/3/5 742/3/5
f 743/1/5 744/1/5 745/1/5
f 745/1/5 744/1/5 746/1/5
f 746/1/5 744/1/5 747/1/5
f 748/3/5 749/3/5 750/3/5
f 750/3/5 749/3/5 751/3/5
f 752/3/5 753/3/5 757/3/5
f 757/3/5 753/3/5 758/3/5
f 755/1/5 756/1/5 759/1/5
f 754/1/5 755/1/5 759/1/5
f 759/1/5 756/1/5 760/1/5
f 761/3/5 762/3/5 763/3/5
f 763/3/5 762/3/5 764/3/5
f 764/3/5 762/3/5 765/3/5
f 763/6/5 764/6/5 768/6/5
f 764/3/5 765/3/5 769/3/5
f 768/6/5 764/6/5 769/6/5
f 765/7/5 766/7/5 770/7/5
f 769/3/5 765/3/5 770/3/5
f 766/3/5 767/3/5 771/3/5
f 770/7/5 766/7/5 771/7/5
f 771/3/5 767/3/5 772/3/5
f 772/3/5 773/3/5 774/3/5
f 772/3/5 774/3/5 775/3/5
f 772/3/5 775/3/5 776/3/5
f 772/3/5 776/3/5 777/3/5
f 772/3/5 777/3/5 782/3/5
f 782/3/5 777/3/5 783/3/5
f 778/6/5 779/6/5 784/6/5
f 779/3/5 780/3/5 785/3/5
f 784/6/5 779/6/5 785/6/5
f 780/7/5 781/7/5 786/7/5
f 785/3/5 780/3/5 786/3/5
f 781/3/5 782/3/5 787/3/5
f 786/7/5 781/7/5 787/7/5
f 787/3/5 782/3/5 788/3/5
f 784/3/5 785/3/5 789/3/5
f 785/3/5 786/3/5 789/3/5
f 789/3/5 786/3/5 790/3/5
f 791/4/5 792/4/5 793/4/5
f 793/4/5 792/4/5 794/4/5
f 795/4/5 796/4/5 797/4/5
f 797/4/5 796/4/5 798/4/5
f 799/4/5 800/4/5 801/4/5
f 801/4/5 800/4/5 802/4/5
f 803/4/5 804/4/5 805/4/5
f 805/4/5 804/4/5 806/4/5
f 807/4/5 808/4/5 809/4/5
f 809/4/5 808/4/5 810/4/5
f 811/4/5 812/4/5 813/4/5
f 813/4/5 812/4/5 814/4/5
f 815/4/5 816/4/5 817/4/5
f 817/4/5 816/4/5 818/4/5
f 819/4/5 820/4/5 821/4/5
f 821/4/5 820/4/5 822/4/5
f 823/4/5 824/4/5 825/4/5
f 825/4/5 824/4/5 826/4/5
f 827/4/5 828/4/5 829/4/5
f 829/4/5 828/4/5 830/4/5
f 831/1/5 832/1/5 833/1/5
f 833/1/5 832/1/5 834/1/5
f 834/1/5 832/1/5 835/1/5
f 836/1/5 837/1/5 839/1/5
f 837/1/5 838/1/5 839/1/5
f 839/1/5 838/1/5 840/1/5
f 841/3/5 842/3/5 845/3/5
f 845/3/5 842/3/5 846/3/5
f 846/3/5 842/3/5 847/3/5
f 843/4/5 844/4/5 848/4/5
f 848/4/5 844/4/5 849/4/5
f 850/3/5 851/3/5 855/3/5
f 851/3/5 852/3/5 855/3/5
f 855/3/5 852/3/5 856/3/5
f 853/4/5 854/4/5 857/4/5
f 857/4/5 854/4/5 858/4/5
f 859/4/5 860/4/5 863/4/5
f 863/4/5 860/4/5 864/4/5
f 861/4/5 862/4/5 865/4/5
f 865/4/5 862/4/5 866/4/5
f 867/4/5 868/4/5 871/4/5
f 871/4/5 868/4/5 872/4/5
f 869/4/5 870/4/5 873/4/5
f 873/4/5 870/4/5 874/4/5
f 875/3/5 876/3/5 877/3/5
f 877/3/5 876/3/5 878/3/5
f 879/3/5 880/3/5 881/3/5
f 881/3/5 880/3/5 882/3/5
f 884/3/5 885/3/5 886/3/5
f 886/3/5 885/3/5 887/3/5
f 887/3/5 885/3/5 888/3/5
f 884/3/5 886/3/5 890/3/5
f 888/3/5 889/3/5 891/3/5
f 887/3/5 888/3/5 891/3/5
f 884/3/5 890/3/5 892/3/5
f 890/3/5 891/3/5 892/3/5
f 891/3/5 889/3/5 893/3/5
f 892/3/5 891/3/5 893/3/5
f 884/3/5 892/3/5 894/3/5
f 884/3/5 894/3/5 896/3/5
f 894/3/5 895/3/5 896/3/5
f 896/3/5 895/3/5 897/3/5
f 884/3/5 896/3/5 898/3/5
f 884/3/5 898/3/5 900/3/5
f 898/3/5 899/3/5 900/3/5
f 900/3/5 899/3/5 901/3/5
f 884/3/5 900/3/5 902/3/5
f 901/3/5 899/3/5 903/3/5
f 903/3/5 899/3/5 904/3/5
f 904/3/5 899/3/5 905/3/5
f 883/7/5 884/7/5 906/7/5
f 884/3/5 902/3/5 907/3/5
f 906/7/5 884/7/5 907/7/5
f 902/3/5 903/3/5 907/3/5
f 903/3/5 904/3/5 907/3/5
f 907/3/5 904/3/5 908/3/5
f 911/4/5 912/4/5 913/4/5
f 913/4/5 912/4/5 914/4/5
f 915/4/5 916/4/5 917/4/5
f 917/4/5 916/4/5 918/4/5
f 919/4/5 920/4/5 921/4/5
f 921/4/5 920/4/5 922/4/5
f 923/4/5 924/4/5 925/4/5
f 925/4/5 924/4/5 926/4/5
f 909/6/5 910/6/5 927/6/5
f 927/6/5 910/6/5 928/6/5
f 933/1/6 930/1/6 929/1/6
f 934/1/6 930/1/6 933/1/6
f 935/1/6 932/1/6 931/1/6
f 936/1/6 932/1/6 935/1/6
f 941/1/6 938/1/6 937/1/6
f 942/1/6 938/1/6 941/1/6
f 943/1/6 940/1/6 939/1/6
f 944/1/6 940/1/6 943/1/6
f 947/6/6 946/6/6 945/6/6
f 948/6/6 946/6/6 947/6/6
f 949/6/6 947/6/6 945/6/6
f 949/13/6 948/13/6 947/13/6
f 950/13/6 948/13/6 949/13/6
f 951/13/6 948/13/6 950/13/6
f 952/6/6 946/6/6 948/6/6
f 952/13/6 948/13/6 951/13/6
f 953/6/6 949/6/6 945/6/6
f 953/6/6 950/6/6 949/6/6
f 954/13/6 951/13/6 950/13/6
f 954/6/6 950/6/6 953/6/6
f 955/13/6 951/13/6 954/13/6
f 956/13/6 951/13/6 955/13/6
f 957/6/6 952/6/6 951/6/6
f 957/13/6 951/13/6 956/13/6
f 958/6/6 946/6/6 952/6/6
f 958/6/6 952/6/6 957/6/6
f 959/6/6 954/6/6 953/6/6
f 959/6/6 955/6/6 954/6/6
f 960/6/6 955/6/6 959/6/6
f 961/13/6 956/13/6 955/13/6
f 961/6/6 955/6/6 960/6/6
f 962/13/6 956/13/6 961/13/6
f 963/13/6 956/13/6 962/13/6
f 964/6/6 958/6/6 957/6/6
f 964/13/6 956/13/6 963/13/6
f 964/6/6 957/6/6 956/6/6
f 965/6/6 958/6/6 964/6/6
f 966/6/6 958/6/6 965/6/6
f 967/6/6 962/6/6 961/6/6
f 967/13/6 960/13/6 959/13/6
f 967/6/6 961/6/6 960/6/6
f 968/13/6 963/13/6 962/13/6
f 968/6/6 962/6/6 967/6/6
f 969/6/6 965/6/6 964/6/6
f 969/13/6 963/13/6 968/13/6
f 969/6/6 964/6/6 963/6/6
f 970/13/6 966/13/6 965/13/6
f 970/6/6 965/6/6 969/6/6
f 971/13/6 967/13/6 959/13/6
f 971/13/6 969/13/6 968/13/6
f 971/13/6 968/13/6 967/13/6
f 971/13/6 970/13/6 969/13/6
f 972/13/6 970/13/6 971/13/6
f 973/13/6 970/13/6 972/13/6
f 974/13/6 966/13/6 970/13/6
f 974/13/6 970/13/6 973/13/6
f 975/13/6 971/13/6 959/13/6
f 976/6/6 972/6/6 971/6/6
f 976/13/6 971/13/6 975/13/6
f 977/6/6 974/6/6 973/6/6
f 978/6/6 974/6/6 977/6/6
f 979/13/6 966/13/6 974/13/6
f 979/6/6 974/6/6 978/6/6
f 980/13/6 966/13/6 979/13/6
f 981/6/6 976/6/6 975/6/6
f 982/6/6 980/6/6 979/6/6
f 982/6/6 979/6/6 978/6/6
f 983/6/6 976/6/6 981/6/6
f 983/6/6 972/6/6 976/6/6
f 984/6/6 972/6/6 983/6/6
f 985/13/6 984/13/6 983/13/6
f 985/6/6 983/6/6 981/6/6
f 986/6/6 972/6/6 984/6/6
f 986/13/6 984/13/6 985/13/6
f 987/6/6 982/6/6 978/6/6
f 988/6/6 982/6/6 987/6/6
f 989/6/6 985/6/6 981/6/6
f 989/6/6 986/6/6 985/6/6
f 990/6/6 972/6/6 986/6/6
f 990/6/6 986/6/6 989/6/6
f 991/6/6 982/6/6 988/6/6
f 992/6/6 982/6/6 991/6/6
f 993/6/6 989/6/6 981/6/6
f 993/13/6 990/13/6 989/13/6
f 994/6/6 972/6/6 990/6/6
f 994/13/6 990/13/6 993/13/6
f 995/6/6 993/6/6 981/6/6
f 995/6/6 994/6/6 993/6/6
f 996/6/6 972/6/6 994/6/6
f 996/6/6 994/6/6 995/6/6
f 997/6/6 995/6/6 981/6/6
f 997/13/6 996/13/6 995/13/6
f 998/6/6 972/6/6 996/6/6
f 998/13/6 996/13/6 997/13/6
f 999/6/6 997/6/6 981/6/6
f 999/6/6 998/6/6 997/6/6
f 1000/6/6 972/6/6 998/6/6
f 1000/6/6 998/6/6 999/6/6
f 1001/6/6 999/6/6 981/6/6
f 1001/13/6 1000/13/6 999/13/6
f 1002/6/6 972/6/6 1000/6/6
f 1002/13/6 1000/13/6 1001/13/6
f 1003/6/6 1001/6/6 981/6/6
f 1003/6/6 1002/6/6 1001/6/6
f 1004/6/6 972/6/6 1002/6/6
f 1004/6/6 1002/6/6 1003/6/6
f 1005/13/6 992/13/6 991/13/6
f 1005/6/6 991/6/6 988/6/6
f 1006/6/6 982/6/6 992/6/6
f 1006/13/6 992/13/6 1005/13/6
f 1007/6/6 1003/6/6 981/6/6
f 1007/13/6 1004/13/6 1003/13/6
f 1008/6/6 972/6/6 1004/6/6
f 1008/13/6 1004/13/6 1007/13/6
f 1009/13/6 988/13/6 987/13/6
f 1009/6/6 987/6/6 978/6/6
f 1010/6/6 1005/6/6 988/6/6
f 1010/13/6 988/13/6 1009/13/6
f 1010/6/6 1006/6/6 1005/6/6
f 1011/6/6 1007/6/6 981/6/6
f 1011/6/6 1008/6/6 1007/6/6
f 1012/13/6 978/13/6 977/13/6
f 1012/6/6 977/6/6 973/6/6
f 1013/6/6 1009/6/6 978/6/6
f 1013/13/6 978/13/6 1012/13/6
f 1013/6/6 1010/6/6 1009/6/6
f 1014/6/6 982/6/6 1006/6/6
f 1014/6/6 1010/6/6 1013/6/6
f 1014/6/6 1006/6/6 1010/6/6
f 1015/6/6 1008/6/6 1011/6/6
f 1016/6/6 1008/6/6 1015/6/6
f 1017/6/6 1013/6/6 1012/6/6
f 1017/6/6 1014/6/6 1013/6/6
f 1018/6/6 1014/6/6 1017/6/6
f 1019/6/6 1008/6/6 1016/6/6
f 1019/13/6 1016/13/6 1015/13/6
f 1020/13/6 973/13/6 972/13/6
f 1020/6/6 1008/6/6 1019/6/6
f 1020/6/6 972/6/6 1008/6/6
f 1021/6/6 1012/6/6 973/6/6
f 1021/13/6 973/13/6 1020/13/6
f 1021/6/6 1017/6/6 1012/6/6
f 1022/13/6 1018/13/6 1017/13/6
f 1022/6/6 1017/6/6 1021/6/6
f 1023/13/6 1021/13/6 1020/13/6
f 1023/13/6 1019/13/6 1015/13/6
f 1023/13/6 1020/13/6 1019/13/6
f 1023/13/6 1022/13/6 1021/13/6
f 1024/13/6 1022/13/6 1023/13/6
f 1025/13/6 1022/13/6 1024/13/6
f 1026/13/6 1018/13/6 1022/13/6
f 1026/13/6 1022/13/6 1025/13/6
f 1027/13/6 1023/13/6 1015/13/6
f 1028/6/6 1024/6/6 1023/6/6
f 1028/13/6 1023/13/6 1027/13/6
f 1029/13/6 1018/13/6 1026/13/6
f 1029/6/6 1026/6/6 1025/6/6
f 1030/13/6 1018/13/6 1029/13/6
f 1031/6/6 1028/6/6 1027/6/6
f 1032/6/6 1030/6/6 1029/6/6
f 1033/6/6 1024/6/6 1028/6/6
f 1033/6/6 1028/6/6 1031/6/6
f 1034/13/6 1025/13/6 1024/13/6
f 1034/6/6 1024/6/6 1033/6/6
f 1035/6/6 1029/6/6 1025/6/6
f 1035/13/6 1025/13/6 1034/13/6
f 1035/6/6 1032/6/6 1029/6/6
f 1036/6/6 1032/6/6 1035/6/6
f 1037/6/6 1033/6/6 1031/6/6
f 1037/13/6 1034/13/6 1033/13/6
f 1037/13/6 1036/13/6 1035/13/6
f 1037/13/6 1035/13/6 1034/13/6
f 1038/6/6 1032/6/6 1036/6/6
f 1038/13/6 1036/13/6 1037/13/6
f 1039/6/6 1038/6/6 1037/6/6
f 1039/6/6 1037/6/6 1031/6/6
f 1040/6/6 1032/6/6 1038/6/6
f 1040/6/6 1038/6/6 1039/6/6
f 1045/3/6 1042/3/6 1041/3/6
f 1046/3/6 1042/3/6 1045/3/6
f 1047/3/6 1044/3/6 1043/3/6
f 1048/3/6 1044/3/6 1047/3/6
f 1053/3/6 1050/3/6 1049/3/6
f 1054/3/6 1050/3/6 1053/3/6
f 1055/3/6 1052/3/6 1051/3/6
f 1056/3/6 1052/3/6 1055/3/6
f 1061/3/6 1058/3/6 1057/3/6
f 1062/3/6 1058/3/6 1061/3/6
f 1063/3/6 1060/3/6 1059/3/6
f 1064/3/6 1060/3/6 1063/3/6
f 1069/3/6 1066/3/6 1065/3/6
f 1070/3/6 1066/3/6 1069/3/6
f 1071/3/6 1068/3/6 1067/3/6
f 1072/3/6 1068/3/6 1071/3/6
f 1081/4/6 1074/4/6 1073/4/6
f 1082/4/6 1074/4/6 1081/4/6
f 1083/4/6 1076/4/6 1075/4/6
f 1084/4/6 1076/4/6 1083/4/6
f 1085/4/6 1078/4/6 1077/4/6
f 1086/4/6 1078/4/6 1085/4/6
f 1087/4/6 1080/4/6 1079/4/6
f 1088/4/6 1080/4/6 1087/4/6
f 1093/4/6 1090/4/6 1089/4/6
f 1094/4/6 1090/4/6 1093/4/6
f 1095/4/6 1092/4/6 1091/4/6
f 1096/4/6 1092/4/6 1095/4/6
f 1101/5/6 1098/5/6 1097/5/6
f 1102/5/6 1098/5/6 1101/5/6
f 1103/5/6 1100/5/6 1099/5/6
f 1104/5/6 1100/5/6 1103/5/6
f 1109/4/6 1106/4/6 1105/4/6
f 1110/4/6 1106/4/6 1109/4/6
f 1111/4/6 1108/4/6 1107/4/6
f 1112/4/6 1108/4/6 1111/4/6
f 1117/4/6 1114/4/6 1113/4/6
f 1118/4/6 1114/4/6 1117/4/6
f 1119/4/6 1116/4/6 1115/4/6
f 1120/4/6 1116/4/6 1119/4/6
f 1125/4/6 1122/4/6 1121/4/6
f 1126/4/6 1122/4/6 1125/4/6
f 1127/4/6 1124/4/6 1123/4/6
f 1128/4/6 1124/4/6 1127/4/6
f 1133/4/6 1130/4/6 1129/4/6
f 1134/4/6 1130/4/6 1133/4/6
f 1135/4/6 1132/4/6 1131/4/6
f 1136/4/6 1132/4/6 1135/4/6
f 1141/4/6 1138/4/6 1137/4/6
f 1142/4/6 1138/4/6 1141/4/6
f 1143/4/6 1140/4/6 1139/4/6
f 1144/4/6 1140/4/6 1143/4/6
f 1149/4/6 1146/4/6 1145/4/6
f 1150/4/6 1146/4/6 1149/4/6
f 1151/4/6 1148/4/6 1147/4/6
f 1152/4/6 1148/4/6 1151/4/6
f 1157/4/6 1154/4/6 1153/4/6
f 1158/4/6 1154/4/6 1157/4/6
f 1159/4/6 1156/4/6 1155/4/6
f 1160/4/6 1156/4/6 1159/4/6
f 1165/3/6 1162/3/6 1161/3/6
f 1166/3/6 1162/3/6 1165/3/6
f 1169/3/6 1164/3/6 1163/3/6
f 1170/3/6 1164/3/6 1169/3/6
f 1171/3/6 1168/3/6 1167/3/6
f 1172/3/6 1168/3/6 1171/3/6
f 1177/3/6 1174/3/6 1173/3/6
f 1178/3/6 1174/3/6 1177/3/6
f 1179/3/6 1176/3/6 1175/3/6
f 1180/3/6 1176/3/6 1179/3/6
f 1183/3/6 1182/3/6 1181/3/6
f 1184/3/6 1182/3/6 1183/3/6
f 1189/4/6 1186/4/6 1185/4/6
f 1190/4/6 1186/4/6 1189/4/6
f 1191/4/6 1188/4/6 1187/4/6
f 1192/4/6 1188/4/6 1191/4/6
f 1193/6/7 1194/6/7 1197/6/7
f 1197/6/7 1194/6/7 1198/6/7
f 1195/6/7 1196/6/7 1199/6/7
f 1199/6/7 1196/6/7 1200/6/7
f 1201/6/7 1202/6/7 1203/6/7
f 1203/6/7 1202/6/7 1204/6/7
f 1205/3/7 1206/3/7 1209/3/7
f 1209/3/7 1206/3/7 1210/3/7
f 1207/3/7 1208/3/7 1211/3/7
f 1211/3/7 1208/3/7 1212/3/7
f 1213/3/7 1214/3/7 1217/3/7
f 1217/3/7 1214/3/7 1218/3/7
f 1215/3/7 1216/3/7 1219/3/7
f 1219/3/7 1216/3/7 1220/3/7
f 1221/6/7 1222/6/7 1223/6/7
f 1223/6/7 1222/6/7 1224/6/7
f 1225/3/7 1226/3/7 1227/3/7
f 1227/3/7 1226/3/7 1228/3/7
f 1225/3/7 1227/3/7 1229/3/7
f 1229/3/7 1227/3/7 1230/3/7
f 1228/3/7 1226/3/7 1231/3/7
f 1231/3/7 1226/3/7 1232/3/7
f 1233/3/7 1234/3/7 1235/3/7
f 1235/3/7 1234/3/7 1236/3/7
f 1237/3/7 1238/3/7 1239/3/7
f 1239/3/7 1238/3/7 1240/3/7
f 1241/3/7 1242/3/7 1245/3/7
f 1245/3/7 1242/3/7 1246/3/7
f 1243/3/7 1244/3/7 1247/3/7
f 1247/3/7 1244/3/7 1248/3/7
f 1249/3/7 1250/3/7 1253/3/7
f 1253/3/7 1250/3/7 1254/3/7
f 1251/3/7 1252/3/7 1255/3/7
f 1255/3/7 1252/3/7 1256/3/7
f 1257/4/7 1258/4/7 1261/4/7
f 1261/4/7 1258/4/7 1262/4/7
f 1259/4/7 1260/4/7 1263/4/7
f 1263/4/7 1260/4/7 1264/4/7
f 1265/4/7 1266/4/7 1269/4/7
f 1269/4/7 1266/4/7 1270/4/7
f 1267/4/7 1268/4/7 1271/4/7
f 1271/4/7 1268/4/7 1272/4/7
f 1273/4/7 1274/4/7 1277/4/7
f 1277/4/7 1274/4/7 1278/4/7
f 1275/4/7 1276/4/7 1279/4/7
f 1279/4/7 1276/4/7 1280/4/7
f 1281/4/7 1282/4/7 1285/4/7
f 1285/4/7 1282/4/7 1286/4/7
f 1283/4/7 1284/4/7 1287/4/7
f 1287/4/7 1284/4/7 1288/4/7
f 1289/4/7 1290/4/7 1293/4/7
f 1293/4/7 1290/4/7 1294/4/7
f 1291/4/7 1292/4/7 1295/4/7
f 1295/4/7 1292/4/7 1296/4/7
f 1297/4/7 1298/4/7 1301/4/7
f 1301/4/7 1298/4/7 1302/4/7
f 1299/4/7 1300/4/7 1303/4/7
f 1303/4/7 1300/4/7 1304/4/7
f 1305/4/7 1306/4/7 1309/4/7
f 1309/4/7 1306/4/7 1310/4/7
f 1307/4/7 1308/4/7 1311/4/7
f 1311/4/7 1308/4/7 1312/4/7
f 1313/5/7 1314/5/7 1317/5/7
f 1317/5/7 1314/5/7 1318/5/7
f 1315/5/7 1316/5/7 1319/5/7
f 1319/5/7 1316/5/7 1320/5/7
f 1321/4/7 1322/4/7 1325/4/7
f 1325/4/7 1322/4/7 1326/4/7
f 1323/4/7 1324/4/7 1327/4/7
f 1327/4/7 1324/4/7 1328/4/7
f 1329/8/7 1330/8/7 1331/8/7
f 1331/8/7 1330/8/7 1332/8/7
f 1333/4/7 1334/4/7 1337/4/7
f 1337/4/7 1334/4/7 1338/4/7
f 1335/4/7 1336/4/7 1339/4/7
f 1339/4/7 1336/4/7 1340/4/7
f 1341/3/7 1342/3/7 1345/3/7
f 1345/3/7 1342/3/7 1346/3/7
f 1343/3/7 1344/3/7 1347/3/7
f 1347/3/7 1344/3/7 1348/3/7
f 1349/3/7 1350/3/7 1353/3/7
f 1353/3/7 1350/3/7 1354/3/7
f 1351/3/7 1352/3/7 1355/3/7
f 1355/3/7 1352/3/7 1356/3/7
f 1354/7/7 1355/7/7 1358/7/7
f 1358/7/7 1355/7/7 1359/7/7
f 1357/3/7 1358/3/7 1361/3/7
f 1361/3/7 1358/3/7 1362/3/7
f 1359/3/7 1360/3/7 1363/3/7
f 1363/3/7 1360/3/7 1364/3/7
f 1365/3/7 1366/3/7 1369/3/7
f 1369/3/7 1366/3/7 1370/3/7
f 1367/3/7 1368/3/7 1371/3/7
f 1371/3/7 1368/3/7 1372/3/7
f 1373/3/7 1374/3/7 1376/3/7
f 1376/3/7 1374/3/7 1377/3/7
f 1375/3/7 1376/3/7 1379/3/7
f 1377/3/7 1378/3/7 1379/3/7
f 1376/3/7 1377/3/7 1379/3/7
f 1379/3/7 1378/3/7 1380/3/7
f 1380/3/7 1378/3/7 1381/3/7
f 1381/3/7 1378/3/7 1382/3/7
f 1375/3/7 1379/3/7 1383/3/7
f 1382/3/7 1378/3/7 1386/3/7
f 1384/3/7 1385/3/7 1387/3/7
f 1385/3/7 1386/3/7 1387/3/7
f 1383/3/7 1384/3/7 1387/3/7
f 1387/3/7 1386/3/7 1388/3/7
f 1388/3/7 1386/3/7 1389/3/7
f 1389/3/7 1386/3/7 1390/3/7
f 1375/3/7 1383/3/7 1391/3/7
f 1383/3/7 1387/3/7 1391/3/7
f 1391/3/7 1387/3/7 1392/3/7
f 1386/3/7 1378/3/7 1393/3/7
f 1390/3/7 1386/3/7 1393/3/7
f 1393/3/7 1378/3/7 1394/3/7
f 1392/3/7 1387/3/7 1395/3/7
f 1395/3/7 1387/3/7 1396/3/7
f 1388/3/7 1389/3/7 1397/3/7
f 1397/3/7 1389/3/7 1398/3/7
f 1390/3/7 1393/3/7 1399/3/7
f 1399/3/7 1393/3/7 1400/3/7
f 1401/3/7 1402/3/7 1408/3/7
f 1405/3/7 1406/3/7 1409/3/7
f 1407/3/7 1408/3/7 1411/3/7
f 1408/3/7 1402/3/7 1412/3/7
f 1411/3/7 1408/3/7 1412/3/7
f 1405/3/7 1409/3/7 1413/3/7
f 1409/3/7 1410/3/7 1413/3/7
f 1413/3/7 1410/3/7 1414/3/7
f 1412/3/7 1402/3/7 1415/3/7
f 1415/3/7 1402/3/7 1416/3/7
f 1403/3/7 1404/3/7 1417/3/7
f 1417/3/7 1404/3/7 1418/3/7
f 1405/3/7 1413/3/7 1419/3/7
f 1419/3/7 1413/3/7 1420/3/7
f 1421/9/7 1422/9/7 1425/9/7
f 1422/12/7 1423/12/7 1426/12/7
f 1425/9/7 1422/9/7 1426/9/7
f 1423/10/7 1424/10/7 1427/10/7
f 1426/12/7 1423/12/7 1427/12/7
f 1427/10/7 1424/10/7 1428/10/7
f 1429/4/7 1430/4/7 1433/4/7
f 1433/4/7 1430/4/7 1434/4/7
f 1431/4/7 1432/4/7 1435/4/7
f 1435/4/7 1432/4/7 1436/4/7
