# Blender 5.1.0
# www.blender.org
mtllib manhole001.mtl
o Manhole.001
v -0.000149 -0.121573 -1.649010
v -0.890737 -0.121573 -1.359640
v -1.441150 -0.121573 -0.602061
v -1.441150 -0.121573 0.602061
v -0.890737 -0.121573 1.359640
v -0.000149 -0.121573 1.649010
v 0.890439 -0.121573 1.359640
v 1.440852 -0.121573 0.602061
v 1.440852 -0.121573 -0.602061
v 0.890438 -0.121573 -1.359641
v -1.441150 -0.121573 0.289921
v -1.441150 -0.121573 -0.289921
v 1.440852 -0.121573 -0.289921
v 1.440852 -0.121573 0.289921
v -0.000149 0.108337 -1.649010
v -0.890737 0.108337 -1.359640
v -1.441150 0.108337 -0.602061
v -1.441150 0.108337 0.602061
v -0.890737 0.108337 1.359640
v -0.000149 0.108337 1.649010
v 0.890439 0.108337 1.359640
v 1.440852 0.108337 0.602061
v 1.440852 0.108337 -0.602061
v 0.890438 0.108337 -1.359641
v -1.441150 0.108337 0.289921
v -1.441150 0.108337 -0.289921
v 1.440852 0.108337 -0.289921
v 1.440852 0.108337 0.289921
v -0.000149 0.108337 -1.355557
v -0.732251 0.108337 -1.117683
v -1.184714 0.108337 -0.494920
v -1.184714 0.108337 0.494920
v -0.732251 0.108337 1.117683
v -0.000149 0.108337 1.355557
v 0.731952 0.108337 1.117683
v 1.184415 0.108337 0.494920
v 1.184415 0.108337 -0.494920
v 0.731952 0.108337 -1.117683
v -1.184714 0.108337 0.238328
v -1.184714 0.108337 -0.238328
v 1.184415 0.108337 -0.238328
v 1.184415 0.108337 0.238328
v -0.000149 0.108337 -1.239501
v -0.669572 0.108337 -1.021993
v -1.083298 0.108337 -0.452548
v -1.083298 0.108337 0.452548
v -0.669572 0.108337 1.021993
v -0.000149 0.108337 1.239501
v 0.669274 0.108337 1.021993
v 1.082999 0.108337 0.452548
v 1.082999 0.108337 -0.452548
v 0.669273 0.108337 -1.021993
v -1.083298 0.108337 0.217923
v -1.083298 0.108337 -0.217923
v 1.082999 0.108337 -0.217923
v 1.082999 0.108337 0.217923
v -0.000149 0.108337 -0.960696
v -0.518997 0.108337 -0.792113
v -0.839662 0.108337 -0.350755
v -0.839662 0.108337 0.350755
v -0.518997 0.108337 0.792113
v -0.000149 0.108337 0.960696
v 0.518698 0.108337 0.792113
v 0.839363 0.108337 0.350755
v 0.839363 0.108337 -0.350755
v 0.518698 0.108337 -0.792113
v -0.839662 0.108337 0.168905
v -0.839662 0.108337 -0.168905
v 0.839363 0.108337 -0.168905
v 0.839363 0.108337 0.168905
v -0.000149 0.108337 -0.828687
v -0.447702 0.108337 -0.683268
v -0.724304 0.108337 -0.302557
v -0.724304 0.108337 0.302557
v -0.447702 0.108337 0.683268
v -0.000149 0.108337 0.828687
v 0.447403 0.108337 0.683268
v 0.724006 0.108337 0.302557
v 0.724006 0.108337 -0.302557
v 0.447403 0.108337 -0.683268
v -0.724304 0.108337 0.145696
v -0.724304 0.108337 -0.145696
v 0.724006 0.108337 -0.145696
v 0.724006 0.108337 0.145696
v -0.000149 0.108337 -0.442245
v -0.238994 0.108337 -0.364639
v -0.386609 0.108337 -0.161466
v -0.386609 0.108337 0.161466
v -0.238994 0.108337 0.364639
v -0.000149 0.108337 0.442245
v 0.238696 0.108337 0.364639
v 0.386310 0.108337 0.161466
v 0.386310 0.108337 -0.161466
v 0.238696 0.108337 -0.364639
v -0.386609 0.108337 0.077753
v -0.386609 0.108337 -0.077753
v 0.386310 0.108337 -0.077753
v 0.386310 0.108337 0.077753
v -0.000149 0.108337 -0.359395
v -0.194249 0.108337 -0.296328
v -0.314209 0.108337 -0.131217
v -0.314209 0.108337 0.131217
v -0.194249 0.108337 0.296328
v -0.000149 0.108337 0.359395
v 0.193950 0.108337 0.296328
v 0.313911 0.108337 0.131217
v 0.313911 0.108337 -0.131217
v 0.193950 0.108337 -0.296328
v -0.314209 0.108337 0.063187
v -0.314209 0.108337 -0.063187
v 0.313911 0.108337 -0.063187
v 0.313911 0.108337 0.063187
v -0.000149 0.108337 -0.063187
v -0.000149 0.108337 -0.131217
v -0.000149 0.108337 0.063187
v -0.000149 0.108337 0.131217
v -0.000149 0.132009 -1.355557
v -0.732251 0.132009 -1.117683
v -1.184714 0.132009 -0.494920
v -1.184714 0.132009 0.494920
v -0.732251 0.132009 1.117683
v -0.000149 0.132009 1.355557
v 0.731952 0.132009 1.117683
v 1.184415 0.132009 0.494920
v 1.184415 0.132009 -0.494920
v 0.731952 0.132009 -1.117683
v -1.184714 0.132009 0.238328
v -1.184714 0.132009 -0.238328
v 1.184415 0.132009 -0.238328
v 1.184415 0.132009 0.238328
v -0.000149 0.132009 -1.239501
v -0.669572 0.132009 -1.021993
v -1.083298 0.132009 -0.452548
v -1.083298 0.132009 0.452548
v -0.669572 0.132009 1.021993
v -0.000149 0.132009 1.239501
v 0.669274 0.132009 1.021993
v 1.082999 0.132009 0.452548
v 1.082999 0.132009 -0.452548
v 0.669273 0.132009 -1.021993
v -1.083298 0.132009 0.217923
v -1.083298 0.132009 -0.217923
v 1.082999 0.132009 -0.217923
v 1.082999 0.132009 0.217923
v -0.000149 0.132009 -0.442245
v -0.238994 0.132009 -0.364639
v -0.386609 0.132009 -0.161466
v -0.386609 0.132009 0.161466
v -0.238994 0.132009 0.364639
v -0.000149 0.132009 0.442245
v 0.238696 0.132009 0.364639
v 0.386310 0.132009 0.161466
v 0.386310 0.132009 -0.161466
v 0.238696 0.132009 -0.364639
v -0.386609 0.132009 0.077753
v -0.386609 0.132009 -0.077753
v 0.386310 0.132009 -0.077753
v 0.386310 0.132009 0.077753
v -0.000149 0.132009 -0.359395
v -0.194249 0.132009 -0.296328
v -0.314209 0.132009 -0.131217
v -0.314209 0.132009 0.131217
v -0.194249 0.132009 0.296328
v -0.000149 0.132009 0.359395
v 0.193950 0.132009 0.296328
v 0.313911 0.132009 0.131217
v 0.313911 0.132009 -0.131217
v 0.193950 0.132009 -0.296328
v -0.314209 0.132009 0.063187
v -0.314209 0.132009 -0.063187
v 0.313911 0.132009 -0.063187
v 0.313911 0.132009 0.063187
v -0.000149 0.132009 -0.960696
v -0.518997 0.132009 -0.792113
v -0.839662 0.132009 -0.350755
v -0.839662 0.132009 0.350755
v -0.518997 0.132009 0.792113
v -0.000149 0.132009 0.960696
v 0.518698 0.132009 0.792113
v 0.839363 0.132009 0.350755
v 0.839363 0.132009 -0.350755
v 0.518698 0.132009 -0.792113
v -0.839662 0.132009 0.168905
v -0.839662 0.132009 -0.168905
v 0.839363 0.132009 -0.168905
v 0.839363 0.132009 0.168905
v -0.000149 0.132009 -0.828687
v -0.447702 0.132009 -0.683268
v -0.724304 0.132009 -0.302557
v -0.724304 0.132009 0.302557
v -0.447702 0.132009 0.683268
v -0.000149 0.132009 0.828687
v 0.447403 0.132009 0.683268
v 0.724006 0.132009 0.302557
v 0.724006 0.132009 -0.302557
v 0.447403 0.132009 -0.683268
v -0.724304 0.132009 0.145696
v -0.724304 0.132009 -0.145696
v 0.724006 0.132009 -0.145696
v 0.724006 0.132009 0.145696
v -1.692717 -0.072966 0.167332
v -1.692717 0.059730 0.167332
v -1.692717 0.059730 -0.167332
v -1.692717 -0.072966 -0.167332
v 1.700220 0.059442 0.166605
v 1.700220 -0.072678 0.166605
v 1.700220 -0.072678 -0.166605
v 1.700220 0.059442 -0.166605
v -0.000149 -0.121573 0.000000
vn 0.8090 -0.0000 0.5878
vn -0.3090 -0.0000 -0.9511
vn -1.0000 -0.0000 -0.0000
vn -0.8090 -0.0000 0.5878
vn 1.0000 -0.0000 -0.0000
vn -0.3090 -0.0000 0.9511
vn 0.8090 -0.0000 -0.5878
vn 0.3090 -0.0000 0.9511
vn -0.8090 -0.0000 -0.5878
vn 0.3090 -0.0000 -0.9511
vn 0.1853 -0.9827 -0.0000
vn -0.1897 0.9818 -0.0000
vn -0.0000 1.0000 -0.0000
vn -0.4381 -0.0000 0.8989
vn -0.1897 -0.9818 -0.0000
vn -0.4381 -0.0000 -0.8989
vn 0.4294 -0.0000 -0.9031
vn 0.4294 -0.0000 0.9031
vn 0.1853 0.9827 -0.0000
vn -0.0000 -1.0000 -0.0000
vt 0.315230 0.538279
vt 0.310715 0.575375
vt 0.296102 0.442222
vt 0.303408 0.428052
vt 0.291587 0.538279
vt 0.291587 0.522995
vt 0.296102 0.575375
vt 0.315230 0.522995
vt 0.303408 0.589545
vt 0.315230 0.479318
vt 0.315230 0.494602
vt 0.291587 0.494602
vt 0.291587 0.479318
vt 0.310715 0.442222
vt 0.317358 0.500640
vt 0.317358 0.516957
vt 0.293390 0.316977
vt 0.291327 0.322980
vt 0.291327 0.339367
vt 0.293390 0.345370
vt 0.312518 0.264597
vt 0.311218 0.276444
vt 0.314930 0.306939
vt 0.317034 0.301693
vt 0.295494 0.319503
vt 0.295494 0.306939
vt 0.293390 0.301693
vt 0.305212 0.250427
vt 0.305212 0.264797
vt 0.299206 0.276444
vt 0.297906 0.264597
vt 0.293390 0.360654
vt 0.295494 0.355408
vt 0.295494 0.342844
vt 0.314930 0.319503
vt 0.317034 0.316977
vt 0.314930 0.342844
vt 0.317034 0.345370
vt 0.305212 0.411920
vt 0.305212 0.397550
vt 0.299206 0.385903
vt 0.297906 0.397750
vt 0.312518 0.397750
vt 0.311218 0.385903
vt 0.317034 0.360654
vt 0.314930 0.355408
vt 0.302507 0.469670
vt 0.300914 0.472758
vt 0.293621 0.497939
vt 0.293621 0.509428
vt 0.305212 0.508923
vt 0.303253 0.505123
vt 0.299930 0.480843
vt 0.314930 0.463034
vt 0.314930 0.475598
vt 0.307998 0.437225
vt 0.302507 0.426574
vt 0.303253 0.469413
vt 0.305212 0.465613
vt 0.299930 0.484174
vt 0.295494 0.511503
vt 0.295494 0.498938
vt 0.311393 0.465108
vt 0.302042 0.479362
vt 0.299930 0.493693
vt 0.300914 0.501778
vt 0.305212 0.420891
vt 0.311218 0.432539
vt 0.311393 0.509428
vt 0.311393 0.497939
vt 0.296326 0.309014
vt 0.298325 0.313998
vt 0.300955 0.292386
vt 0.299720 0.281130
vt 0.296326 0.353333
vt 0.298325 0.348349
vt 0.298325 0.339444
vt 0.296326 0.341844
vt 0.305212 0.284132
vt 0.305212 0.270479
vt 0.314098 0.309014
vt 0.312099 0.313998
vt 0.312099 0.322903
vt 0.314098 0.320502
vt 0.305212 0.391868
vt 0.305212 0.378215
vt 0.300955 0.369961
vt 0.299720 0.381217
vt 0.312099 0.339444
vt 0.314098 0.341844
vt 0.310704 0.381217
vt 0.309469 0.369961
vt 0.298325 0.322903
vt 0.296326 0.320502
vt 0.314098 0.353333
vt 0.312099 0.348349
vt 0.310704 0.281130
vt 0.309469 0.292386
vt 0.296566 0.472453
vt 0.296566 0.480134
vt 0.298325 0.470093
vt 0.300955 0.448481
vt 0.296566 0.502083
vt 0.298835 0.520725
vt 0.298325 0.478997
vt 0.296566 0.494402
vt 0.300955 0.526055
vt 0.298325 0.504443
vt 0.308447 0.494402
vt 0.308447 0.480134
vt 0.298325 0.495539
vt 0.308447 0.472453
vt 0.312099 0.478997
vt 0.312099 0.495539
vt 0.312099 0.470093
vt 0.306178 0.453811
vt 0.302507 0.446690
vt 0.308884 0.364631
vt 0.307171 0.349029
vt 0.305212 0.352829
vt 0.305212 0.371751
vt 0.299271 0.338308
vt 0.302042 0.334981
vt 0.302042 0.327366
vt 0.299271 0.324039
vt 0.311153 0.345989
vt 0.308382 0.339080
vt 0.311153 0.338308
vt 0.308382 0.334981
vt 0.301540 0.364631
vt 0.303253 0.349029
vt 0.302042 0.339080
vt 0.299271 0.345989
vt 0.308884 0.297716
vt 0.307171 0.313318
vt 0.308382 0.323267
vt 0.311153 0.316358
vt 0.302042 0.323267
vt 0.299271 0.316358
vt 0.305212 0.290596
vt 0.305212 0.309518
vt 0.303253 0.313318
vt 0.301540 0.297716
vt 0.308382 0.327366
vt 0.311153 0.324039
vt 0.302042 0.483461
vt 0.307998 0.537311
vt 0.302042 0.495175
vt 0.314930 0.498938
vt 0.314930 0.511503
vt 0.302507 0.547962
vt 0.311218 0.541997
vt 0.297015 0.537311
vt 0.305212 0.553645
vt 0.297015 0.437225
vt 0.299206 0.541997
vt 0.293621 0.465108
vt 0.299206 0.432539
vt 0.293621 0.476597
vt 0.305212 0.328079
vt 0.307788 0.328079
vt 0.307788 0.324748
vt 0.305212 0.324748
vt 0.305212 0.334268
vt 0.302636 0.334268
vt 0.302636 0.337599
vt 0.305212 0.337599
vt 0.302636 0.328079
vt 0.307788 0.334268
vt 0.307788 0.337599
vt 0.302636 0.324748
vt 0.306804 0.316663
vt 0.305212 0.313575
vt 0.303620 0.316663
vt 0.305212 0.348772
vt 0.306804 0.345684
vt 0.303620 0.345684
vt 0.308513 0.093437
vt 0.307998 0.098122
vt 0.311393 0.126006
vt 0.312225 0.123932
vt 0.292789 0.136496
vt 0.293621 0.137495
vt 0.293621 0.126006
vt 0.292789 0.123932
vt 0.302507 0.081789
vt 0.302507 0.087472
vt 0.297015 0.098122
vt 0.296501 0.093437
vt 0.292789 0.172400
vt 0.293621 0.170326
vt 0.293621 0.158837
vt 0.292789 0.159836
vt 0.311393 0.137495
vt 0.312225 0.136496
vt 0.302507 0.214543
vt 0.302507 0.208860
vt 0.297015 0.198209
vt 0.296501 0.202895
vt 0.311393 0.158837
vt 0.312225 0.159836
vt 0.308513 0.202895
vt 0.307998 0.198209
vt 0.312225 0.172400
vt 0.311393 0.170326
vt 0.305677 0.151973
vt 0.305083 0.151260
vt 0.305083 0.154591
vt 0.305677 0.156072
vt 0.300547 0.166021
vt 0.300914 0.162676
vt 0.299930 0.154591
vt 0.299336 0.156072
vt 0.304466 0.130311
vt 0.304099 0.133656
vt 0.305083 0.141741
vt 0.305677 0.140260
vt 0.299336 0.144359
vt 0.299930 0.145072
vt 0.299930 0.141741
vt 0.299336 0.140260
vt 0.302507 0.126511
vt 0.302507 0.130568
vt 0.300914 0.133656
vt 0.300547 0.130311
vt 0.299930 0.151260
vt 0.299336 0.151973
vt 0.305083 0.145072
vt 0.305677 0.144359
vt 0.302507 0.169821
vt 0.302507 0.165764
vt 0.304466 0.166021
vt 0.304099 0.162676
vt 0.307171 0.505123
vt 0.311393 0.476597
vt 0.302507 0.504866
vt 0.295494 0.475598
vt 0.308382 0.495175
vt 0.304099 0.501778
vt 0.308382 0.491075
vt 0.305083 0.493693
vt 0.307171 0.469413
vt 0.308382 0.479362
vt 0.305083 0.490362
vt 0.305083 0.480843
vt 0.304099 0.472758
vt 0.302042 0.491075
vt 0.308382 0.483461
vt 0.299930 0.490362
vt 0.305083 0.484174
vt 0.295494 0.463034
vt 0.309394 0.130991
vt 0.308447 0.133351
vt 0.308447 0.141032
vt 0.309394 0.139895
vt 0.302507 0.195208
vt 0.302507 0.188744
vt 0.298835 0.181623
vt 0.298250 0.186953
vt 0.308447 0.155300
vt 0.309394 0.156437
vt 0.306763 0.186953
vt 0.306178 0.181623
vt 0.295619 0.156437
vt 0.296566 0.155300
vt 0.296566 0.141032
vt 0.295619 0.139895
vt 0.309394 0.165341
vt 0.308447 0.162981
vt 0.296566 0.162981
vt 0.295619 0.165341
vt 0.306763 0.109379
vt 0.306178 0.114709
vt 0.296566 0.133351
vt 0.295619 0.130991
vt 0.302507 0.101124
vt 0.302507 0.107588
vt 0.298835 0.114709
vt 0.298250 0.109379
vt 0.305212 0.440226
vt 0.298835 0.453811
vt 0.305212 0.534310
vt 0.309469 0.526055
vt 0.302507 0.527846
vt 0.312099 0.504443
vt 0.306178 0.520725
vt 0.308447 0.502083
vt 0.309469 0.448481
vt 0.289523 0.516992
vt 0.289523 0.500605
vt 0.319161 0.339332
vt 0.319161 0.323015
vt 0.312525 0.920442
vt 0.312525 0.905158
vt 0.288881 0.920442
vt 0.293397 0.957538
vt 0.314328 0.549291
vt 0.309813 0.512195
vt 0.290685 0.549291
vt 0.290685 0.564575
vt 0.302507 0.498025
vt 0.314328 0.592968
vt 0.314328 0.564575
vt 0.295200 0.512195
vt 0.288881 0.905158
vt 0.290685 0.592968
vt 0.300703 0.971707
vt 0.308009 0.957538
s 0
usemtl Material.001
f 8/1/1 22/1/1 21/2/1 7/2/1
f 2/3/2 16/3/2 15/4/2 1/4/2
f 4/5/3 18/5/3 25/6/3 11/6/3
f 5/7/4 19/7/4 18/5/4 4/5/4
f 14/8/5 28/8/5 22/1/5 8/1/5
f 6/9/6 20/9/6 19/7/6 5/7/6
f 9/10/5 23/10/5 27/11/5 13/11/5
f 12/12/3 26/12/3 17/13/3 3/13/3
f 10/14/7 24/14/7 23/10/7 9/10/7
f 7/2/8 21/2/8 20/9/8 6/9/8
f 3/13/9 17/13/9 16/3/9 2/3/9
f 1/4/10 15/4/10 24/14/10 10/14/10
f 13/11/11 207/15/11 206/16/11 14/8/11
f 26/17/12 203/18/12 202/19/12 25/20/12
f 24/21/13 38/22/13 37/23/13 23/24/13
f 26/17/13 40/25/13 31/26/13 17/27/13
f 15/28/13 29/29/13 38/22/13 24/21/13
f 17/27/13 31/26/13 30/30/13 16/31/13
f 18/32/13 32/33/13 39/34/13 25/20/13
f 16/31/13 30/30/13 29/29/13 15/28/13
f 23/24/13 37/23/13 41/35/13 27/36/13
f 27/36/13 41/35/13 42/37/13 28/38/13
f 20/39/13 34/40/13 33/41/13 19/42/13
f 21/43/13 35/44/13 34/40/13 20/39/13
f 22/45/13 36/46/13 35/44/13 21/43/13
f 25/20/13 39/34/13 40/25/13 26/17/13
f 28/38/13 42/37/13 36/46/13 22/45/13
f 19/42/13 33/41/13 32/33/13 18/32/13
f 99/47/8 159/47/8 160/48/8 100/48/8
f 53/49/5 141/49/5 134/50/5 46/50/5
f 90/51/6 150/51/6 149/52/6 89/52/6
f 100/48/1 160/48/1 161/53/1 101/53/1
f 37/54/5 125/54/5 129/55/5 41/55/5
f 52/56/6 140/56/6 131/57/6 43/57/6
f 86/58/2 146/58/2 145/59/2 85/59/2
f 101/53/5 161/53/5 170/60/5 110/60/5
f 32/61/3 120/61/3 127/62/3 39/62/3
f 51/63/4 139/63/4 140/56/4 52/56/4
f 87/64/9 147/64/9 146/58/9 86/58/9
f 102/65/7 162/65/7 163/66/7 103/66/7
f 29/67/10 117/67/10 126/68/10 38/68/10
f 50/69/3 138/69/3 144/70/3 56/70/3
f 45/71/13 59/72/13 58/73/13 44/74/13
f 46/75/13 60/76/13 67/77/13 53/78/13
f 44/74/13 58/73/13 57/79/13 43/80/13
f 51/81/13 65/82/13 69/83/13 55/84/13
f 48/85/13 62/86/13 61/87/13 47/88/13
f 55/84/13 69/83/13 70/89/13 56/90/13
f 49/91/13 63/92/13 62/86/13 48/85/13
f 53/78/13 67/77/13 68/93/13 54/94/13
f 50/95/13 64/96/13 63/92/13 49/91/13
f 56/90/13 70/89/13 64/96/13 50/95/13
f 47/88/13 61/87/13 60/76/13 46/75/13
f 52/97/13 66/98/13 65/82/13 51/81/13
f 54/94/13 68/93/13 59/72/13 45/71/13
f 43/80/13 57/79/13 66/98/13 52/97/13
f 73/99/5 189/99/5 198/100/5 82/100/5
f 59/101/9 175/101/9 174/102/9 58/102/9
f 74/103/7 190/103/7 191/104/7 75/104/7
f 68/105/3 184/105/3 175/101/3 59/101/3
f 82/100/5 198/100/5 197/106/5 81/106/5
f 61/107/4 177/107/4 176/108/4 60/108/4
f 84/109/3 200/109/3 199/110/3 83/110/3
f 67/111/3 183/111/3 184/105/3 68/105/3
f 83/110/3 199/110/3 195/112/3 79/112/3
f 69/113/5 185/113/5 186/114/5 70/114/5
f 81/106/5 197/106/5 190/103/5 74/103/5
f 65/115/5 181/115/5 185/113/5 69/113/5
f 80/116/6 196/116/6 187/117/6 71/117/6
f 60/108/3 176/108/3 183/111/3 67/111/3
f 77/118/13 91/119/13 90/120/13 76/121/13
f 81/122/13 95/123/13 96/124/13 82/125/13
f 78/126/13 92/127/13 91/119/13 77/118/13
f 84/128/13 98/129/13 92/127/13 78/126/13
f 75/130/13 89/131/13 88/132/13 74/133/13
f 80/134/13 94/135/13 93/136/13 79/137/13
f 82/125/13 96/124/13 87/138/13 73/139/13
f 71/140/13 85/141/13 94/135/13 80/134/13
f 73/139/13 87/138/13 86/142/13 72/143/13
f 74/133/13 88/132/13 95/123/13 81/122/13
f 72/143/13 86/142/13 85/141/13 71/140/13
f 79/137/13 93/136/13 97/144/13 83/145/13
f 76/121/13 90/120/13 89/131/13 75/130/13
f 83/145/13 97/144/13 98/129/13 84/128/13
f 96/146/3 156/146/3 147/64/3 87/64/3
f 38/68/7 126/68/7 125/54/7 37/54/7
f 49/147/9 137/147/9 138/69/9 50/69/9
f 89/52/4 149/52/4 148/148/4 88/148/4
f 42/149/5 130/149/5 124/150/5 36/150/5
f 48/151/2 136/151/2 137/147/2 49/147/2
f 36/150/1 124/150/1 123/152/1 35/152/1
f 47/153/10 135/153/10 136/151/10 48/151/10
f 35/152/8 123/152/8 122/154/8 34/154/8
f 43/57/8 131/57/8 132/155/8 44/155/8
f 34/154/6 122/154/6 121/156/6 33/156/6
f 44/155/1 132/155/1 133/157/1 45/157/1
f 30/158/2 118/158/2 117/67/2 29/67/2
f 45/157/5 133/157/5 142/159/5 54/159/5
f 113/160/13 111/161/13 107/162/13 114/163/13
f 115/164/13 109/165/13 102/166/13 116/167/13
f 113/160/13 110/168/13 109/165/13 115/164/13
f 111/161/13 113/160/13 115/164/13 112/169/13
f 112/169/13 115/164/13 116/167/13 106/170/13
f 110/168/13 113/160/13 114/163/13 101/171/13
f 107/162/13 108/172/13 99/173/13 114/163/13
f 101/171/13 114/163/13 99/173/13 100/174/13
f 104/175/13 105/176/13 106/170/13 116/167/13
f 102/166/13 103/177/13 104/175/13 116/167/13
f 126/178/13 140/179/13 139/180/13 125/181/13
f 128/182/13 142/183/13 133/184/13 119/185/13
f 117/186/13 131/187/13 140/179/13 126/178/13
f 119/185/13 133/184/13 132/188/13 118/189/13
f 120/190/13 134/191/13 141/192/13 127/193/13
f 118/189/13 132/188/13 131/187/13 117/186/13
f 125/181/13 139/180/13 143/194/13 129/195/13
f 122/196/13 136/197/13 135/198/13 121/199/13
f 129/195/13 143/194/13 144/200/13 130/201/13
f 123/202/13 137/203/13 136/197/13 122/196/13
f 127/193/13 141/192/13 142/183/13 128/182/13
f 124/204/13 138/205/13 137/203/13 123/202/13
f 130/201/13 144/200/13 138/205/13 124/204/13
f 121/199/13 135/198/13 134/191/13 120/190/13
f 158/206/13 172/207/13 166/208/13 152/209/13
f 149/210/13 163/211/13 162/212/13 148/213/13
f 154/214/13 168/215/13 167/216/13 153/217/13
f 156/218/13 170/219/13 161/220/13 147/221/13
f 145/222/13 159/223/13 168/215/13 154/214/13
f 147/221/13 161/220/13 160/224/13 146/225/13
f 148/213/13 162/212/13 169/226/13 155/227/13
f 146/225/13 160/224/13 159/223/13 145/222/13
f 153/217/13 167/216/13 171/228/13 157/229/13
f 150/230/13 164/231/13 163/211/13 149/210/13
f 157/229/13 171/228/13 172/207/13 158/206/13
f 151/232/13 165/233/13 164/231/13 150/230/13
f 155/227/13 169/226/13 170/219/13 156/218/13
f 152/209/13 166/208/13 165/233/13 151/232/13
f 41/55/5 129/55/5 130/149/5 42/149/5
f 91/234/8 151/234/8 150/51/8 90/51/8
f 55/235/3 143/235/3 139/63/3 51/63/3
f 103/66/10 163/66/10 164/236/10 104/236/10
f 39/62/3 127/62/3 128/237/3 40/237/3
f 92/238/1 152/238/1 151/234/1 91/234/1
f 56/70/3 144/70/3 143/235/3 55/235/3
f 104/236/2 164/236/2 165/239/2 105/239/2
f 98/240/5 158/240/5 152/238/5 92/238/5
f 54/159/5 142/159/5 141/49/5 53/49/5
f 105/239/9 165/239/9 166/241/9 106/241/9
f 94/242/7 154/242/7 153/243/7 93/243/7
f 106/241/3 166/241/3 172/244/3 112/244/3
f 85/59/10 145/59/10 154/242/10 94/242/10
f 107/245/4 167/245/4 168/246/4 108/246/4
f 88/148/3 148/148/3 155/247/3 95/247/3
f 108/246/6 168/246/6 159/47/6 99/47/6
f 93/243/5 153/243/5 157/248/5 97/248/5
f 109/249/5 169/249/5 162/65/5 102/65/5
f 97/248/5 157/248/5 158/240/5 98/240/5
f 111/250/3 171/250/3 167/245/3 107/245/3
f 95/247/3 155/247/3 156/146/3 96/146/3
f 112/244/3 172/244/3 171/250/3 111/250/3
f 110/60/5 170/60/5 169/249/5 109/249/5
f 33/156/4 121/156/4 120/61/4 32/61/4
f 40/237/3 128/237/3 119/251/3 31/251/3
f 46/50/7 134/50/7 135/153/7 47/153/7
f 31/251/9 119/251/9 118/158/9 30/158/9
f 181/252/13 195/253/13 199/254/13 185/255/13
f 178/256/13 192/257/13 191/258/13 177/259/13
f 185/255/13 199/254/13 200/260/13 186/261/13
f 179/262/13 193/263/13 192/257/13 178/256/13
f 183/264/13 197/265/13 198/266/13 184/267/13
f 180/268/13 194/269/13 193/263/13 179/262/13
f 186/261/13 200/260/13 194/269/13 180/268/13
f 177/259/13 191/258/13 190/270/13 176/271/13
f 182/272/13 196/273/13 195/253/13 181/252/13
f 184/267/13 198/266/13 189/274/13 175/275/13
f 173/276/13 187/277/13 196/273/13 182/272/13
f 175/275/13 189/274/13 188/278/13 174/279/13
f 176/271/13 190/270/13 197/265/13 183/264/13
f 174/279/13 188/278/13 187/277/13 173/276/13
f 58/102/2 174/102/2 173/280/2 57/280/2
f 72/281/1 188/281/1 189/99/1 73/99/1
f 62/282/6 178/282/6 177/107/6 61/107/6
f 71/117/8 187/117/8 188/281/8 72/281/8
f 63/283/8 179/283/8 178/282/8 62/282/8
f 75/104/10 191/104/10 192/284/10 76/284/10
f 64/285/1 180/285/1 179/283/1 63/283/1
f 76/284/2 192/284/2 193/286/2 77/286/2
f 70/114/5 186/114/5 180/285/5 64/285/5
f 77/286/9 193/286/9 194/287/9 78/287/9
f 66/288/7 182/288/7 181/115/7 65/115/7
f 78/287/3 194/287/3 200/109/3 84/109/3
f 57/280/10 173/280/10 182/288/10 66/288/10
f 79/112/4 195/112/4 196/116/4 80/116/4
f 201/289/3 202/289/3 203/290/3 204/290/3
f 25/6/14 202/289/14 201/289/14 11/6/14
f 11/6/15 201/289/15 204/290/15 12/12/15
f 12/12/16 204/290/16 203/290/16 26/12/16
f 205/16/5 206/16/5 207/15/5 208/15/5
f 27/11/17 208/15/17 207/15/17 13/11/17
f 14/8/18 206/16/18 205/16/18 28/8/18
f 28/38/19 205/291/19 208/292/19 27/36/19
f 8/293/20 209/293/20 14/294/20
f 4/295/20 209/295/20 5/296/20
f 9/297/20 209/297/20 10/298/20
f 3/299/20 209/299/20 12/300/20
f 10/298/20 209/298/20 1/301/20
f 14/302/20 209/302/20 13/303/20
f 2/304/20 209/304/20 3/299/20
f 11/305/20 209/305/20 4/295/20
f 12/300/20 209/300/20 11/306/20
f 1/301/20 209/301/20 2/304/20
f 13/303/20 209/303/20 9/297/20
f 5/296/20 209/296/20 6/307/20
f 6/307/20 209/307/20 7/308/20
f 7/308/20 209/308/20 8/293/20
