# Blender 5.1.0
# www.blender.org
mtllib manhole002.mtl
o Manhole.002
v 0.002687 -0.145800 -1.755677
v -1.029274 -0.145800 -1.420372
v -1.667061 -0.145800 -0.542534
v -1.667061 -0.145800 0.542534
v -1.029274 -0.145800 1.420372
v 0.002687 -0.145800 1.755677
v 1.034648 -0.145800 1.420372
v 1.672434 -0.145800 0.542534
v 1.672434 -0.145800 -0.542534
v 1.034647 -0.145800 -1.420373
v 0.002687 0.168351 -1.755677
v -1.029274 0.168351 -1.420372
v -1.667061 0.168351 -0.542534
v -1.667061 0.168351 0.542534
v -1.029274 0.168351 1.420372
v 0.002687 0.168351 1.755677
v 1.034648 0.168351 1.420372
v 1.672434 0.168351 0.542534
v 1.672434 0.168351 -0.542534
v 1.034647 0.168351 -1.420373
v -1.667061 -0.145800 0.180845
v -1.667061 -0.145800 -0.180845
v -1.667061 0.168351 0.180845
v -1.667061 0.168351 -0.180845
v 1.672434 -0.145800 -0.180845
v 1.672434 -0.145800 0.180845
v 1.672434 0.168351 -0.180845
v 1.672434 0.168351 0.180845
v 0.002687 0.168351 -1.717422
v -0.978573 0.168351 -1.398592
v -1.585024 0.168351 -0.563882
v -1.585024 0.168351 0.563883
v -0.978573 0.168351 1.398592
v 0.002687 0.168351 1.717422
v 0.983946 0.168351 1.398592
v 1.590398 0.168351 0.563883
v 1.590398 0.168351 -0.563883
v 0.983945 0.168351 -1.398592
v -1.585024 0.168351 0.219963
v -1.585024 0.168351 -0.219963
v 1.590398 0.168351 -0.219963
v 1.590398 0.168351 0.219963
v 0.002687 0.034177 -1.671100
v -0.917179 0.034177 -1.372217
v -1.485687 0.034177 -0.589733
v -1.485686 0.034177 0.589733
v -0.917178 0.034177 1.372218
v 0.002687 0.034177 1.671100
v 0.922552 0.034177 1.372217
v 1.491060 0.034177 0.589734
v 1.491060 0.034177 -0.589734
v 0.922551 0.034177 -1.372218
v -1.485686 0.034177 0.267332
v -1.485686 0.034177 -0.267332
v 1.491060 0.034177 -0.267332
v 1.491060 0.034177 0.267332
v 0.002687 0.034177 -1.649010
v -0.887901 0.034177 -1.359640
v -1.438315 0.034177 -0.602061
v -1.438314 0.034177 0.602061
v -0.887901 0.034177 1.359640
v 0.002687 0.034177 1.649010
v 0.893275 0.034177 1.359640
v 1.443688 0.034177 0.602061
v 1.443688 0.034177 -0.602061
v 0.893274 0.034177 -1.359641
v -1.438314 0.034177 0.289921
v -1.438314 0.034177 -0.289921
v 1.443688 0.034177 -0.289921
v 1.443688 0.034177 0.289921
v -1.485686 -0.144411 0.267332
v -1.485686 -0.144411 -0.267332
v 1.491060 -0.144411 -0.267332
v 1.491060 -0.144411 0.267332
v -1.832404 0.034177 0.267332
v -1.832404 0.034177 -0.267332
v -1.832404 -0.144411 0.267332
v -1.832404 -0.144411 -0.267332
v 1.772627 0.034177 0.267332
v 1.772627 0.034177 -0.267332
v 1.772627 -0.144411 0.267332
v 1.772627 -0.144411 -0.267332
v 0.002687 -0.166761 -1.243808
v -0.669062 -0.166761 -1.025544
v -1.084226 -0.166761 -0.454120
v -1.084226 -0.166761 0.454120
v -0.669062 -0.166761 1.025544
v 0.002687 -0.166761 1.243808
v 0.674436 -0.166761 1.025544
v 1.089599 -0.166761 0.454120
v 1.089599 -0.166761 -0.454120
v 0.674435 -0.166761 -1.025544
v -1.084226 -0.166761 0.218681
v -1.084226 -0.166761 -0.218681
v 1.089599 -0.166761 -0.218681
v 1.089599 -0.166761 0.218681
v 0.002687 -0.276363 -0.000000
vn -0.8090 -0.0000 -0.5878
vn 0.8090 -0.0000 -0.5878
vn 0.3090 -0.0000 0.9511
vn -1.0000 -0.0000 -0.0000
vn 0.3090 -0.0000 -0.9511
vn 0.8090 -0.0000 0.5878
vn -0.8090 -0.0000 0.5878
vn -0.3090 -0.0000 -0.9511
vn 1.0000 -0.0000 -0.0000
vn -0.3090 -0.0000 0.9511
vn -0.0000 1.0000 -0.0000
vn -0.8037 0.5950 -0.0000
vn 0.2936 0.3120 -0.9036
vn 0.2936 0.3120 0.9036
vn -0.7277 0.4369 0.5287
vn -0.2936 0.3120 -0.9036
vn 0.8037 0.5950 -0.0000
vn -0.2936 0.3120 0.9036
vn 0.7277 0.4369 0.5287
vn -0.7277 0.4369 -0.5287
vn 0.7277 0.4369 -0.5287
vn -0.0000 -0.0000 -1.0000
vn -0.0000 -1.0000 -0.0000
vn -0.4304 -0.0000 0.9026
vn -0.4304 -0.0000 -0.9026
vn 0.4304 -0.0000 0.9026
vn 0.4304 -0.0000 -0.9026
vn -0.0000 -0.0000 1.0000
vn -0.3834 0.8806 -0.2785
vn -0.4935 0.8697 -0.0000
vn 0.3834 0.8806 -0.2785
vn -0.3834 0.8806 0.2785
vn 0.4935 0.8697 -0.0000
vn -0.1429 0.8867 0.4397
vn 0.3834 0.8806 0.2785
vn 0.1429 0.8867 0.4397
vn 0.1429 0.8867 -0.4397
vn -0.1429 0.8867 -0.4397
vn -0.0285 0.9957 0.0877
vn 0.0770 0.9955 0.0559
vn 0.1003 0.9950 -0.0000
vn 0.0285 0.9957 0.0877
vn -0.1003 0.9950 -0.0000
vn 0.0285 0.9957 -0.0877
vn -0.0285 0.9957 -0.0877
vn -0.0770 0.9955 -0.0559
vn 0.0770 0.9955 -0.0559
vn -0.0770 0.9955 0.0559
vt 0.288987 0.715703
vt 0.293082 0.682061
vt 0.306334 0.682061
vt 0.310429 0.715703
vt 0.306334 0.790930
vt 0.299708 0.803780
vt 0.288987 0.729565
vt 0.299708 0.669210
vt 0.310429 0.757287
vt 0.293082 0.790930
vt 0.288987 0.757287
vt 0.310429 0.743426
vt 0.288987 0.743426
vt 0.309157 0.345042
vt 0.308832 0.345877
vt 0.312726 0.377867
vt 0.313253 0.378685
vt 0.310429 0.729565
vt 0.291810 0.378685
vt 0.292337 0.377867
vt 0.296231 0.345877
vt 0.295906 0.345042
vt 0.291810 0.420269
vt 0.292337 0.421087
vt 0.292337 0.407907
vt 0.291810 0.406408
vt 0.309157 0.453911
vt 0.308832 0.453077
vt 0.302531 0.465296
vt 0.302531 0.466762
vt 0.291810 0.392546
vt 0.292337 0.391047
vt 0.302531 0.332192
vt 0.302531 0.333658
vt 0.313253 0.420269
vt 0.312726 0.421087
vt 0.295906 0.453911
vt 0.296231 0.453077
vt 0.313253 0.406408
vt 0.312726 0.407907
vt 0.312726 0.391047
vt 0.313253 0.392546
vt 0.316255 0.631181
vt 0.315617 0.632997
vt 0.315617 0.645353
vt 0.316255 0.644362
vt 0.306060 0.688570
vt 0.306060 0.686795
vt 0.300154 0.675341
vt 0.299760 0.676351
vt 0.316255 0.601141
vt 0.315617 0.600150
vt 0.315617 0.612506
vt 0.316255 0.614322
vt 0.299760 0.569152
vt 0.300154 0.570162
vt 0.306060 0.558708
vt 0.306060 0.556933
vt 0.312361 0.569152
vt 0.311967 0.570162
vt 0.312361 0.676351
vt 0.311967 0.675341
vt 0.295866 0.614322
vt 0.296504 0.612506
vt 0.296504 0.600150
vt 0.295866 0.601141
vt 0.295866 0.644362
vt 0.296504 0.645353
vt 0.296504 0.632997
vt 0.295866 0.631181
vt 0.311967 0.717468
vt 0.311779 0.716986
vt 0.306060 0.728076
vt 0.306060 0.728922
vt 0.296504 0.642278
vt 0.296808 0.641805
vt 0.300342 0.612772
vt 0.300154 0.612290
vt 0.306060 0.600835
vt 0.306060 0.601682
vt 0.311779 0.612772
vt 0.311967 0.612290
vt 0.315617 0.687480
vt 0.315313 0.687952
vt 0.296504 0.687480
vt 0.296808 0.687952
vt 0.296808 0.675990
vt 0.296504 0.675124
vt 0.300154 0.717468
vt 0.300342 0.716986
vt 0.315617 0.675124
vt 0.315313 0.675990
vt 0.315617 0.642278
vt 0.315313 0.641805
vt 0.315313 0.653768
vt 0.315617 0.654634
vt 0.296504 0.654634
vt 0.296808 0.653768
vt 0.314205 0.477699
vt 0.316013 0.477699
vt 0.295092 0.498190
vt 0.292866 0.498190
vt 0.292866 0.477699
vt 0.295092 0.477699
vt 0.315370 0.481013
vt 0.314843 0.479514
vt 0.315370 0.494875
vt 0.314205 0.498190
vt 0.314843 0.496374
vt 0.293928 0.481013
vt 0.294455 0.479514
vt 0.293928 0.494875
vt 0.294455 0.496374
vt 0.316013 0.498190
vt 0.702871 0.578818
vt 0.699934 0.310281
vt 0.693771 0.310282
vt 0.694700 0.578818
vt 0.668256 0.578818
vt 0.673825 0.310282
vt 0.667661 0.310281
vt 0.660085 0.578818
vt 0.693771 0.310281
vt 0.681478 0.578818
vt 0.683798 0.310281
vt 0.673825 0.310281
vt 0.683798 0.310282
vt 0.681478 0.227903
s 0
usemtl Material.001
f 3/1/1 13/1/1 12/2/1 2/2/1
f 10/3/2 20/3/2 19/4/2 9/4/2
f 7/5/3 17/5/3 16/6/3 6/6/3
f 22/7/4 24/7/4 13/1/4 3/1/4
f 1/8/5 11/8/5 20/3/5 10/3/5
f 8/9/6 18/9/6 17/5/6 7/5/6
f 5/10/7 15/10/7 14/11/7 4/11/7
f 2/2/8 12/2/8 11/8/8 1/8/8
f 26/12/9 28/12/9 18/9/9 8/9/9
f 6/6/10 16/6/10 15/10/10 5/10/10
f 4/11/4 14/11/4 23/13/4 21/13/4
f 20/14/11 38/15/11 37/16/11 19/17/11
f 9/4/9 19/4/9 27/18/9 25/18/9
f 13/19/11 31/20/11 30/21/11 12/22/11
f 14/23/11 32/24/11 39/25/11 23/26/11
f 17/27/11 35/28/11 34/29/11 16/30/11
f 24/31/11 40/32/11 31/20/11 13/19/11
f 11/33/11 29/34/11 38/15/11 20/14/11
f 18/35/11 36/36/11 35/28/11 17/27/11
f 15/37/11 33/38/11 32/24/11 14/23/11
f 12/22/11 30/21/11 29/34/11 11/33/11
f 28/39/11 42/40/11 36/36/11 18/35/11
f 16/30/11 34/29/11 33/38/11 15/37/11
f 19/17/11 37/16/11 41/41/11 27/42/11
f 42/43/12 56/44/12 50/45/12 36/46/12
f 34/47/13 48/48/13 47/49/13 33/50/13
f 37/51/12 51/52/12 55/53/12 41/54/12
f 30/55/14 44/56/14 43/57/14 29/58/14
f 38/59/15 52/60/15 51/52/15 37/51/15
f 35/61/16 49/62/16 48/48/16 34/47/16
f 40/63/17 54/64/17 45/65/17 31/66/17
f 29/58/18 43/57/18 52/60/18 38/59/18
f 31/66/19 45/65/19 44/56/19 30/55/19
f 36/46/20 50/45/20 49/62/20 35/61/20
f 32/67/17 46/68/17 53/69/17 39/70/17
f 33/50/21 47/49/21 46/68/21 32/67/21
f 49/71/11 63/72/11 62/73/11 48/74/11
f 45/75/11 59/76/11 58/77/11 44/78/11
f 43/79/11 57/80/11 66/81/11 52/82/11
f 50/83/11 64/84/11 63/72/11 49/71/11
f 44/78/11 58/77/11 57/80/11 43/79/11
f 46/85/11 60/86/11 67/87/11 53/88/11
f 47/89/11 61/90/11 60/86/11 46/85/11
f 56/91/11 70/92/11 64/84/11 50/83/11
f 48/74/11 62/73/11 61/90/11 47/89/11
f 51/93/11 65/94/11 69/95/11 55/96/11
f 54/97/11 68/98/11 59/76/11 45/75/11
f 52/82/11 66/81/11 65/94/11 51/93/11
f 53/88/11 67/87/11 68/98/11 54/97/11
f 70/92/11 56/91/11 55/96/11 69/95/11
f 55/99/22 80/100/22 82/100/22 73/99/22
f 71/101/23 77/102/23 78/103/23 72/104/23
f 25/105/24 27/105/24 41/106/24 55/99/24 73/99/24
f 28/107/25 26/107/25 74/108/25 56/108/25 42/109/25
f 24/110/26 22/110/26 72/104/26 54/104/26 40/111/26
f 21/112/27 23/112/27 39/113/27 53/101/27 71/101/27
f 76/103/4 78/103/4 77/102/4 75/102/4
f 54/104/11 76/103/11 75/102/11 53/101/11
f 53/101/28 75/102/28 77/102/28 71/101/28
f 72/104/22 78/103/22 76/103/22 54/104/22
f 79/114/9 81/114/9 82/100/9 80/100/9
f 73/99/23 82/100/23 81/114/23 74/108/23
f 56/108/11 79/114/11 80/100/11 55/99/11
f 74/108/28 81/114/28 79/114/28 56/108/28
f 64/115/29 90/116/29 89/117/29 63/118/29
f 70/115/30 96/116/30 90/116/30 64/115/30
f 61/119/31 87/120/31 86/121/31 60/122/31
f 66/118/32 92/123/32 91/116/32 65/115/32
f 68/122/33 94/121/33 85/121/33 59/122/33
f 57/124/34 83/125/34 92/123/34 66/118/34
f 59/122/35 85/121/35 84/126/35 58/119/35
f 60/122/33 86/121/33 93/121/33 67/122/33
f 58/119/36 84/126/36 83/125/36 57/124/36
f 65/115/30 91/116/30 95/116/30 69/115/30
f 69/115/30 95/116/30 96/116/30 70/115/30
f 62/124/37 88/127/37 87/120/37 61/119/37
f 67/122/33 93/121/33 94/121/33 68/122/33
f 63/118/38 89/117/38 88/127/38 62/124/38
f 83/125/39 97/128/39 92/123/39
f 85/121/40 97/128/40 84/126/40
f 86/121/41 97/128/41 93/121/41
f 84/126/42 97/128/42 83/125/42
f 91/116/43 97/128/43 95/116/43
f 88/127/44 97/128/44 87/120/44
f 95/116/43 97/128/43 96/116/43
f 89/117/45 97/128/45 88/127/45
f 93/121/41 97/128/41 94/121/41
f 90/116/46 97/128/46 89/117/46
f 96/116/43 97/128/43 90/116/43
f 87/120/47 97/128/47 86/121/47
f 92/123/48 97/128/48 91/116/48
f 94/121/41 97/128/41 85/121/41
