# Blender 5.1.0
# www.blender.org
mtllib manhole.mtl
o Manhole
v 0.000831 -0.150859 -1.755677
v -1.031130 -0.150859 -1.420372
v -1.668917 -0.150859 -0.542534
v -1.668916 -0.150859 0.542534
v -1.031130 -0.150859 1.420372
v 0.000831 -0.150859 1.755677
v 1.032792 -0.150859 1.420372
v 1.670579 -0.150859 0.542534
v 1.670579 -0.150859 -0.542534
v 1.032791 -0.150859 -1.420373
v 0.000831 0.163292 -1.755677
v -1.031130 0.163292 -1.420372
v -1.668917 0.163292 -0.542534
v -1.668916 0.163292 0.542534
v -1.031130 0.163292 1.420372
v 0.000831 0.163292 1.755677
v 1.032792 0.163292 1.420372
v 1.670579 0.163292 0.542534
v 1.670579 0.163292 -0.542534
v 1.032791 0.163292 -1.420373
v -1.668916 -0.150859 0.180845
v -1.668916 -0.150859 -0.180845
v -1.668916 0.163292 0.180845
v -1.668916 0.163292 -0.180845
v 1.670579 -0.150859 -0.180845
v 1.670579 -0.150859 0.180845
v 1.670579 0.163292 -0.180845
v 1.670579 0.163292 0.180845
v 0.000831 0.163292 -1.717422
v -0.980428 0.163292 -1.398592
v -1.586880 0.163292 -0.563882
v -1.586880 0.163292 0.563883
v -0.980428 0.163292 1.398592
v 0.000831 0.163292 1.717422
v 0.982091 0.163292 1.398592
v 1.588542 0.163292 0.563883
v 1.588542 0.163292 -0.563883
v 0.982090 0.163292 -1.398592
v -1.586880 0.163292 0.219963
v -1.586880 0.163292 -0.219963
v 1.588542 0.163292 -0.219963
v 1.588542 0.163292 0.219963
v 0.000831 0.029118 -1.671100
v -0.919034 0.029118 -1.372217
v -1.487542 0.029118 -0.589733
v -1.487542 0.029118 0.589733
v -0.919034 0.029118 1.372218
v 0.000831 0.029118 1.671100
v 0.920697 0.029118 1.372217
v 1.489204 0.029118 0.589734
v 1.489204 0.029118 -0.589734
v 0.920696 0.029118 -1.372218
v -1.487542 0.029118 0.267332
v -1.487542 0.029118 -0.267332
v 1.489204 0.029118 -0.267332
v 1.489204 0.029118 0.267332
v 0.000831 0.029118 -1.649010
v -0.889757 0.029118 -1.359640
v -1.440170 0.029118 -0.602061
v -1.440170 0.029118 0.602061
v -0.889756 0.029118 1.359640
v 0.000831 0.029118 1.649010
v 0.891419 0.029118 1.359640
v 1.441832 0.029118 0.602061
v 1.441832 0.029118 -0.602061
v 0.891418 0.029118 -1.359641
v -1.440170 0.029118 0.289921
v -1.440170 0.029118 -0.289921
v 1.441832 0.029118 -0.289921
v 1.441832 0.029118 0.289921
v 0.000831 0.259028 -1.649010
v -0.889757 0.259028 -1.359640
v -1.440170 0.259028 -0.602061
v -1.440170 0.259028 0.602061
v -0.889756 0.259028 1.359640
v 0.000831 0.259028 1.649010
v 0.891419 0.259028 1.359640
v 1.441832 0.259028 0.602061
v 1.441832 0.259028 -0.602061
v 0.891418 0.259028 -1.359641
v -1.440170 0.259028 0.289921
v -1.440170 0.259028 -0.289921
v 1.441832 0.259028 -0.289921
v 1.441832 0.259028 0.289921
v 0.000831 0.259028 -1.355557
v -0.731270 0.259028 -1.117683
v -1.183734 0.259028 -0.494920
v -1.183734 0.259028 0.494920
v -0.731270 0.259028 1.117683
v 0.000831 0.259028 1.355557
v 0.732933 0.259028 1.117683
v 1.185396 0.259028 0.494920
v 1.185396 0.259028 -0.494920
v 0.732932 0.259028 -1.117683
v -1.183734 0.259028 0.238328
v -1.183734 0.259028 -0.238328
v 1.185396 0.259028 -0.238328
v 1.185396 0.259028 0.238328
v 0.000831 0.259028 -1.239501
v -0.668592 0.259028 -1.021993
v -1.082317 0.259028 -0.452548
v -1.082317 0.259028 0.452548
v -0.668591 0.259028 1.021993
v 0.000831 0.259028 1.239501
v 0.670254 0.259028 1.021993
v 1.083980 0.259028 0.452548
v 1.083980 0.259028 -0.452548
v 0.670253 0.259028 -1.021993
v -1.082317 0.259028 0.217923
v -1.082317 0.259028 -0.217923
v 1.083980 0.259028 -0.217923
v 1.083980 0.259028 0.217923
v 0.000831 0.259028 -0.960696
v -0.518016 0.259028 -0.792113
v -0.838681 0.259028 -0.350755
v -0.838681 0.259028 0.350755
v -0.518016 0.259028 0.792113
v 0.000831 0.259028 0.960696
v 0.519679 0.259028 0.792113
v 0.840344 0.259028 0.350755
v 0.840344 0.259028 -0.350755
v 0.519678 0.259028 -0.792113
v -0.838681 0.259028 0.168905
v -0.838681 0.259028 -0.168905
v 0.840344 0.259028 -0.168905
v 0.840344 0.259028 0.168905
v 0.000831 0.259028 -0.828687
v -0.446721 0.259028 -0.683268
v -0.723324 0.259028 -0.302557
v -0.723324 0.259028 0.302557
v -0.446721 0.259028 0.683268
v 0.000831 0.259028 0.828687
v 0.448384 0.259028 0.683268
v 0.724986 0.259028 0.302557
v 0.724986 0.259028 -0.302557
v 0.448383 0.259028 -0.683268
v -0.723324 0.259028 0.145696
v -0.723324 0.259028 -0.145696
v 0.724986 0.259028 -0.145696
v 0.724986 0.259028 0.145696
v 0.000831 0.259028 -0.442245
v -0.238014 0.259028 -0.364639
v -0.385628 0.259028 -0.161466
v -0.385628 0.259028 0.161466
v -0.238014 0.259028 0.364639
v 0.000831 0.259028 0.442245
v 0.239676 0.259028 0.364639
v 0.387290 0.259028 0.161466
v 0.387290 0.259028 -0.161466
v 0.239676 0.259028 -0.364639
v -0.385628 0.259028 0.077753
v -0.385628 0.259028 -0.077753
v 0.387290 0.259028 -0.077753
v 0.387290 0.259028 0.077753
v 0.000831 0.259028 -0.359395
v -0.193269 0.259028 -0.296328
v -0.313229 0.259028 -0.131217
v -0.313229 0.259028 0.131217
v -0.193269 0.259028 0.296328
v 0.000831 0.259028 0.359395
v 0.194931 0.259028 0.296328
v 0.314891 0.259028 0.131217
v 0.314891 0.259028 -0.131217
v 0.194931 0.259028 -0.296328
v -0.313229 0.259028 0.063187
v -0.313229 0.259028 -0.063187
v 0.314891 0.259028 -0.063187
v 0.314891 0.259028 0.063187
v 0.000831 0.259028 -0.063187
v 0.000831 0.259028 -0.131217
v 0.000831 0.259028 0.063187
v 0.000831 0.259028 0.131217
v 0.000831 0.282700 -1.355557
v -0.731270 0.282700 -1.117683
v -1.183734 0.282700 -0.494920
v -1.183734 0.282700 0.494920
v -0.731270 0.282700 1.117683
v 0.000831 0.282700 1.355557
v 0.732933 0.282700 1.117683
v 1.185396 0.282700 0.494920
v 1.185396 0.282700 -0.494920
v 0.732932 0.282700 -1.117683
v -1.183734 0.282700 0.238328
v -1.183734 0.282700 -0.238328
v 1.185396 0.282700 -0.238328
v 1.185396 0.282700 0.238328
v 0.000831 0.282700 -1.239501
v -0.668592 0.282700 -1.021993
v -1.082317 0.282700 -0.452548
v -1.082317 0.282700 0.452548
v -0.668591 0.282700 1.021993
v 0.000831 0.282700 1.239501
v 0.670254 0.282700 1.021993
v 1.083980 0.282700 0.452548
v 1.083980 0.282700 -0.452548
v 0.670253 0.282700 -1.021993
v -1.082317 0.282700 0.217923
v -1.082317 0.282700 -0.217923
v 1.083980 0.282700 -0.217923
v 1.083980 0.282700 0.217923
v 0.000831 0.282700 -0.442245
v -0.238014 0.282700 -0.364639
v -0.385628 0.282700 -0.161466
v -0.385628 0.282700 0.161466
v -0.238014 0.282700 0.364639
v 0.000831 0.282700 0.442245
v 0.239676 0.282700 0.364639
v 0.387290 0.282700 0.161466
v 0.387290 0.282700 -0.161466
v 0.239676 0.282700 -0.364639
v -0.385628 0.282700 0.077753
v -0.385628 0.282700 -0.077753
v 0.387290 0.282700 -0.077753
v 0.387290 0.282700 0.077753
v 0.000831 0.282700 -0.359395
v -0.193269 0.282700 -0.296328
v -0.313229 0.282700 -0.131217
v -0.313229 0.282700 0.131217
v -0.193269 0.282700 0.296328
v 0.000831 0.282700 0.359395
v 0.194931 0.282700 0.296328
v 0.314891 0.282700 0.131217
v 0.314891 0.282700 -0.131217
v 0.194931 0.282700 -0.296328
v -0.313229 0.282700 0.063187
v -0.313229 0.282700 -0.063187
v 0.314891 0.282700 -0.063187
v 0.314891 0.282700 0.063187
v 0.000831 0.282700 -0.960696
v -0.518016 0.282700 -0.792113
v -0.838681 0.282700 -0.350755
v -0.838681 0.282700 0.350755
v -0.518016 0.282700 0.792113
v 0.000831 0.282700 0.960696
v 0.519679 0.282700 0.792113
v 0.840344 0.282700 0.350755
v 0.840344 0.282700 -0.350755
v 0.519678 0.282700 -0.792113
v -0.838681 0.282700 0.168905
v -0.838681 0.282700 -0.168905
v 0.840344 0.282700 -0.168905
v 0.840344 0.282700 0.168905
v 0.000831 0.282700 -0.828687
v -0.446721 0.282700 -0.683268
v -0.723324 0.282700 -0.302557
v -0.723324 0.282700 0.302557
v -0.446721 0.282700 0.683268
v 0.000831 0.282700 0.828687
v 0.448384 0.282700 0.683268
v 0.724986 0.282700 0.302557
v 0.724986 0.282700 -0.302557
v 0.448383 0.282700 -0.683268
v -0.723324 0.282700 0.145696
v -0.723324 0.282700 -0.145696
v 0.724986 0.282700 -0.145696
v 0.724986 0.282700 0.145696
v -1.487542 -0.149471 0.267332
v -1.487542 -0.149471 -0.267332
v 1.489204 -0.149471 -0.267332
v 1.489204 -0.149471 0.267332
v -1.834260 0.029118 0.267332
v -1.834260 0.029118 -0.267332
v -1.834260 -0.149471 0.267332
v -1.834260 -0.149471 -0.267332
v -1.691736 0.077725 0.167332
v -1.691736 0.210421 0.167332
v -1.691736 0.210421 -0.167332
v -1.691736 0.077725 -0.167332
v 1.770771 0.029118 0.267332
v 1.770771 0.029118 -0.267332
v 1.770771 -0.149471 0.267332
v 1.770771 -0.149471 -0.267332
v 1.701200 0.210133 0.166605
v 1.701200 0.078014 0.166605
v 1.701200 0.078014 -0.166605
v 1.701200 0.210133 -0.166605
vn -0.8090 -0.0000 -0.5878
vn 0.8090 -0.0000 -0.5878
vn 0.3090 -0.0000 0.9511
vn -1.0000 -0.0000 -0.0000
vn 0.3090 -0.0000 -0.9511
vn 0.8090 -0.0000 0.5878
vn -0.8090 -0.0000 0.5878
vn -0.3090 -0.0000 -0.9511
vn 1.0000 -0.0000 -0.0000
vn -0.3090 -0.0000 0.9511
vn -0.0000 1.0000 -0.0000
vn -0.8037 0.5950 -0.0000
vn 0.2936 0.3120 -0.9036
vn 0.2936 0.3120 0.9036
vn -0.7277 0.4369 0.5287
vn -0.2936 0.3120 -0.9036
vn 0.8037 0.5950 -0.0000
vn -0.2936 0.3120 0.9036
vn 0.7277 0.4369 0.5287
vn -0.7277 0.4369 -0.5287
vn 0.7277 0.4369 -0.5287
vn 0.1853 -0.9827 -0.0000
vn -0.1897 0.9818 -0.0000
vn -0.0000 -0.0000 -1.0000
vn -0.0000 -1.0000 -0.0000
vn -0.4304 -0.0000 0.9026
vn -0.4304 -0.0000 -0.9026
vn 0.4304 -0.0000 0.9026
vn 0.4304 -0.0000 -0.9026
vn -0.0000 -0.0000 1.0000
vn -0.4381 -0.0000 0.8989
vn -0.1897 -0.9818 -0.0000
vn -0.4381 -0.0000 -0.8989
vn 0.4294 -0.0000 -0.9031
vn 0.4294 -0.0000 0.9031
vn 0.1853 0.9827 -0.0000
vt 0.288987 0.715703
vt 0.293082 0.682061
vt 0.306334 0.682061
vt 0.310429 0.715703
vt 0.306334 0.790930
vt 0.299708 0.803780
vt 0.288987 0.729565
vt 0.299708 0.669210
vt 0.310429 0.757287
vt 0.293082 0.790930
vt 0.288987 0.757287
vt 0.310429 0.743426
vt 0.288987 0.743426
vt 0.309157 0.345042
vt 0.308832 0.345877
vt 0.312726 0.377867
vt 0.313253 0.378685
vt 0.310429 0.729565
vt 0.291810 0.378685
vt 0.292337 0.377867
vt 0.296231 0.345877
vt 0.295906 0.345042
vt 0.291810 0.420269
vt 0.292337 0.421087
vt 0.292337 0.407907
vt 0.291810 0.406408
vt 0.309157 0.453911
vt 0.308832 0.453077
vt 0.302531 0.465296
vt 0.302531 0.466762
vt 0.291810 0.392546
vt 0.292337 0.391047
vt 0.302531 0.332192
vt 0.302531 0.333658
vt 0.313253 0.420269
vt 0.312726 0.421087
vt 0.295906 0.453911
vt 0.296231 0.453077
vt 0.313253 0.406408
vt 0.312726 0.407907
vt 0.312726 0.391047
vt 0.313253 0.392546
vt 0.316255 0.631181
vt 0.315617 0.632997
vt 0.315617 0.645353
vt 0.316255 0.644362
vt 0.306060 0.688570
vt 0.306060 0.686795
vt 0.300154 0.675341
vt 0.299760 0.676351
vt 0.316255 0.601141
vt 0.315617 0.600150
vt 0.315617 0.612506
vt 0.316255 0.614322
vt 0.299760 0.569152
vt 0.300154 0.570162
vt 0.306060 0.558708
vt 0.306060 0.556933
vt 0.312361 0.569152
vt 0.311967 0.570162
vt 0.312361 0.676351
vt 0.311967 0.675341
vt 0.295866 0.614322
vt 0.296504 0.612506
vt 0.296504 0.600150
vt 0.295866 0.601141
vt 0.295866 0.644362
vt 0.296504 0.645353
vt 0.296504 0.632997
vt 0.295866 0.631181
vt 0.311967 0.717468
vt 0.311779 0.716986
vt 0.306060 0.728076
vt 0.306060 0.728922
vt 0.296504 0.642278
vt 0.296808 0.641805
vt 0.300342 0.612772
vt 0.300154 0.612290
vt 0.306060 0.600835
vt 0.306060 0.601682
vt 0.311779 0.612772
vt 0.311967 0.612290
vt 0.315617 0.687480
vt 0.315313 0.687952
vt 0.296504 0.687480
vt 0.296808 0.687952
vt 0.296808 0.675990
vt 0.296504 0.675124
vt 0.300154 0.717468
vt 0.300342 0.716986
vt 0.315617 0.675124
vt 0.315313 0.675990
vt 0.315617 0.642278
vt 0.315313 0.641805
vt 0.315313 0.653768
vt 0.315617 0.654634
vt 0.296504 0.654634
vt 0.296808 0.653768
vt 0.311784 0.704803
vt 0.308250 0.733837
vt 0.296813 0.629623
vt 0.302531 0.618533
vt 0.293279 0.704803
vt 0.293279 0.692841
vt 0.296813 0.733837
vt 0.311784 0.692841
vt 0.302531 0.744927
vt 0.311784 0.658656
vt 0.311784 0.670619
vt 0.293279 0.670619
vt 0.293279 0.658656
vt 0.308250 0.629623
vt 0.313449 0.675345
vt 0.313449 0.688115
vt 0.295397 0.476833
vt 0.293781 0.481532
vt 0.293781 0.494357
vt 0.295397 0.499055
vt 0.310367 0.435837
vt 0.309350 0.445110
vt 0.312255 0.468977
vt 0.313901 0.464871
vt 0.297043 0.478811
vt 0.297043 0.468977
vt 0.295397 0.464871
vt 0.304649 0.424747
vt 0.304649 0.435994
vt 0.299948 0.445110
vt 0.298931 0.435837
vt 0.295397 0.511018
vt 0.297043 0.506912
vt 0.297043 0.497078
vt 0.312255 0.478810
vt 0.313901 0.476833
vt 0.312255 0.497078
vt 0.313901 0.499055
vt 0.304649 0.551141
vt 0.304649 0.539895
vt 0.299948 0.530779
vt 0.298931 0.540051
vt 0.310367 0.540051
vt 0.309350 0.530779
vt 0.313901 0.511018
vt 0.312255 0.506912
vt 0.302531 0.596340
vt 0.301285 0.598757
vt 0.295577 0.618465
vt 0.295577 0.627457
vt 0.304649 0.627062
vt 0.303115 0.624088
vt 0.300515 0.605085
vt 0.312255 0.591146
vt 0.312255 0.600980
vt 0.306830 0.570946
vt 0.302531 0.562610
vt 0.303115 0.596139
vt 0.304649 0.593165
vt 0.300515 0.607692
vt 0.297043 0.629081
vt 0.297043 0.619247
vt 0.309486 0.592770
vt 0.302168 0.603925
vt 0.300515 0.615142
vt 0.301285 0.621470
vt 0.304649 0.558163
vt 0.309350 0.567279
vt 0.309486 0.627457
vt 0.309486 0.618465
vt 0.297694 0.470601
vt 0.299259 0.474502
vt 0.301318 0.457587
vt 0.300351 0.448777
vt 0.297694 0.505288
vt 0.299259 0.501387
vt 0.299259 0.494417
vt 0.297694 0.496296
vt 0.304649 0.451126
vt 0.304649 0.440441
vt 0.311603 0.470601
vt 0.310039 0.474502
vt 0.310039 0.481471
vt 0.311603 0.479593
vt 0.304649 0.535447
vt 0.304649 0.524762
vt 0.301318 0.518301
vt 0.300351 0.527111
vt 0.310039 0.494417
vt 0.311603 0.496296
vt 0.308947 0.527111
vt 0.307980 0.518301
vt 0.299259 0.481471
vt 0.297694 0.479593
vt 0.311603 0.505288
vt 0.310039 0.501387
vt 0.308947 0.448777
vt 0.307980 0.457587
vt 0.297882 0.598518
vt 0.297882 0.604530
vt 0.299259 0.596671
vt 0.301318 0.579756
vt 0.297882 0.621709
vt 0.299658 0.636299
vt 0.299259 0.603640
vt 0.297882 0.615697
vt 0.301318 0.640471
vt 0.299259 0.623556
vt 0.307181 0.615697
vt 0.307181 0.604530
vt 0.299259 0.616586
vt 0.307181 0.598518
vt 0.310039 0.603640
vt 0.310039 0.616586
vt 0.310039 0.596671
vt 0.305405 0.583928
vt 0.302531 0.578355
vt 0.307523 0.514130
vt 0.306182 0.501919
vt 0.304649 0.504893
vt 0.304649 0.519703
vt 0.299999 0.493528
vt 0.302168 0.490924
vt 0.302168 0.484964
vt 0.299999 0.482361
vt 0.309299 0.499539
vt 0.307130 0.494132
vt 0.309299 0.493528
vt 0.307130 0.490924
vt 0.301775 0.514130
vt 0.303115 0.501919
vt 0.302168 0.494132
vt 0.299999 0.499539
vt 0.307523 0.461759
vt 0.306182 0.473970
vt 0.307130 0.481756
vt 0.309299 0.476349
vt 0.302168 0.481756
vt 0.299999 0.476349
vt 0.304649 0.456185
vt 0.304649 0.470996
vt 0.303115 0.473970
vt 0.301775 0.461759
vt 0.307130 0.484964
vt 0.309299 0.482361
vt 0.302168 0.607134
vt 0.306830 0.649280
vt 0.302168 0.616301
vt 0.312255 0.619247
vt 0.312255 0.629081
vt 0.302531 0.657616
vt 0.309350 0.652948
vt 0.298233 0.649280
vt 0.304649 0.662064
vt 0.298233 0.570946
vt 0.299948 0.652948
vt 0.295577 0.592770
vt 0.299948 0.567279
vt 0.295577 0.601762
vt 0.304649 0.485523
vt 0.306665 0.485523
vt 0.306665 0.482916
vt 0.304649 0.482916
vt 0.304649 0.490366
vt 0.302632 0.490366
vt 0.302632 0.492973
vt 0.304649 0.492973
vt 0.302632 0.485523
vt 0.306665 0.490366
vt 0.306665 0.492973
vt 0.302632 0.482916
vt 0.305895 0.476588
vt 0.304649 0.474171
vt 0.303403 0.476588
vt 0.304649 0.501718
vt 0.305895 0.499301
vt 0.303403 0.499301
vt 0.307232 0.301877
vt 0.306830 0.305544
vt 0.309486 0.327368
vt 0.310137 0.325744
vt 0.294926 0.335578
vt 0.295577 0.336360
vt 0.295577 0.327368
vt 0.294926 0.325744
vt 0.302531 0.292761
vt 0.302531 0.297209
vt 0.298233 0.305544
vt 0.297831 0.301877
vt 0.294926 0.363679
vt 0.295577 0.362055
vt 0.295577 0.353063
vt 0.294926 0.353845
vt 0.309486 0.336360
vt 0.310137 0.335578
vt 0.302531 0.396662
vt 0.302531 0.392214
vt 0.298233 0.383878
vt 0.297831 0.387546
vt 0.309486 0.353063
vt 0.310137 0.353845
vt 0.307232 0.387546
vt 0.306830 0.383878
vt 0.310137 0.363679
vt 0.309486 0.362055
vt 0.305013 0.347691
vt 0.304548 0.347133
vt 0.304548 0.349740
vt 0.305013 0.350900
vt 0.300998 0.358686
vt 0.301285 0.356068
vt 0.300515 0.349740
vt 0.300050 0.350900
vt 0.304065 0.330737
vt 0.303778 0.333355
vt 0.304548 0.339683
vt 0.305013 0.338524
vt 0.300050 0.341732
vt 0.300515 0.342290
vt 0.300515 0.339683
vt 0.300050 0.338524
vt 0.302531 0.327763
vt 0.302531 0.330938
vt 0.301285 0.333355
vt 0.300998 0.330737
vt 0.300515 0.347133
vt 0.300050 0.347691
vt 0.304548 0.342290
vt 0.305013 0.341732
vt 0.302531 0.361660
vt 0.302531 0.358485
vt 0.304065 0.358686
vt 0.303778 0.356068
vt 0.306182 0.624088
vt 0.309486 0.601762
vt 0.302531 0.623887
vt 0.297043 0.600980
vt 0.307130 0.616301
vt 0.303778 0.621470
vt 0.307130 0.613093
vt 0.304548 0.615142
vt 0.306182 0.596139
vt 0.307130 0.603925
vt 0.304548 0.612535
vt 0.304548 0.605085
vt 0.303778 0.598757
vt 0.302168 0.613093
vt 0.307130 0.607134
vt 0.300515 0.612535
vt 0.304548 0.607692
vt 0.297043 0.591146
vt 0.307922 0.331269
vt 0.307181 0.333116
vt 0.307181 0.339128
vt 0.307922 0.338238
vt 0.302531 0.381530
vt 0.302531 0.376470
vt 0.299658 0.370897
vt 0.299200 0.375068
vt 0.307181 0.350295
vt 0.307922 0.351185
vt 0.305863 0.375068
vt 0.305405 0.370897
vt 0.297141 0.351185
vt 0.297882 0.350295
vt 0.297882 0.339128
vt 0.297141 0.338238
vt 0.307922 0.358154
vt 0.307181 0.356307
vt 0.297882 0.356307
vt 0.297141 0.358154
vt 0.305863 0.314355
vt 0.305405 0.318526
vt 0.297882 0.333116
vt 0.297141 0.331269
vt 0.302531 0.307894
vt 0.302531 0.312953
vt 0.299658 0.318526
vt 0.299200 0.314355
vt 0.304649 0.573296
vt 0.299658 0.583928
vt 0.304649 0.646931
vt 0.307980 0.640471
vt 0.302531 0.641872
vt 0.310039 0.623556
vt 0.305405 0.636299
vt 0.307181 0.621709
vt 0.307980 0.579756
vt 0.314205 0.477699
vt 0.316013 0.477699
vt 0.295092 0.498190
vt 0.292866 0.498190
vt 0.292866 0.477699
vt 0.295092 0.477699
vt 0.315370 0.481013
vt 0.314843 0.479514
vt 0.315370 0.494875
vt 0.314205 0.498190
vt 0.314843 0.496374
vt 0.293928 0.481013
vt 0.294455 0.479514
vt 0.293928 0.494875
vt 0.294455 0.496374
vt 0.291664 0.688143
vt 0.291664 0.675317
vt 0.316013 0.498190
vt 0.315567 0.494329
vt 0.315567 0.481559
s 0
usemtl Material.001
f 3/1/1 13/1/1 12/2/1 2/2/1
f 10/3/2 20/3/2 19/4/2 9/4/2
f 7/5/3 17/5/3 16/6/3 6/6/3
f 22/7/4 24/7/4 13/1/4 3/1/4
f 1/8/5 11/8/5 20/3/5 10/3/5
f 8/9/6 18/9/6 17/5/6 7/5/6
f 5/10/7 15/10/7 14/11/7 4/11/7
f 2/2/8 12/2/8 11/8/8 1/8/8
f 26/12/9 28/12/9 18/9/9 8/9/9
f 6/6/10 16/6/10 15/10/10 5/10/10
f 4/11/4 14/11/4 23/13/4 21/13/4
f 20/14/11 38/15/11 37/16/11 19/17/11
f 9/4/9 19/4/9 27/18/9 25/18/9
f 13/19/11 31/20/11 30/21/11 12/22/11
f 14/23/11 32/24/11 39/25/11 23/26/11
f 17/27/11 35/28/11 34/29/11 16/30/11
f 24/31/11 40/32/11 31/20/11 13/19/11
f 11/33/11 29/34/11 38/15/11 20/14/11
f 18/35/11 36/36/11 35/28/11 17/27/11
f 15/37/11 33/38/11 32/24/11 14/23/11
f 12/22/11 30/21/11 29/34/11 11/33/11
f 28/39/11 42/40/11 36/36/11 18/35/11
f 16/30/11 34/29/11 33/38/11 15/37/11
f 19/17/11 37/16/11 41/41/11 27/42/11
f 42/43/12 56/44/12 50/45/12 36/46/12
f 34/47/13 48/48/13 47/49/13 33/50/13
f 37/51/12 51/52/12 55/53/12 41/54/12
f 30/55/14 44/56/14 43/57/14 29/58/14
f 38/59/15 52/60/15 51/52/15 37/51/15
f 35/61/16 49/62/16 48/48/16 34/47/16
f 40/63/17 54/64/17 45/65/17 31/66/17
f 29/58/18 43/57/18 52/60/18 38/59/18
f 31/66/19 45/65/19 44/56/19 30/55/19
f 36/46/20 50/45/20 49/62/20 35/61/20
f 32/67/17 46/68/17 53/69/17 39/70/17
f 33/50/21 47/49/21 46/68/21 32/67/21
f 49/71/11 63/72/11 62/73/11 48/74/11
f 45/75/11 59/76/11 58/77/11 44/78/11
f 43/79/11 57/80/11 66/81/11 52/82/11
f 50/83/11 64/84/11 63/72/11 49/71/11
f 44/78/11 58/77/11 57/80/11 43/79/11
f 46/85/11 60/86/11 67/87/11 53/88/11
f 47/89/11 61/90/11 60/86/11 46/85/11
f 56/91/11 70/92/11 64/84/11 50/83/11
f 48/74/11 62/73/11 61/90/11 47/89/11
f 51/93/11 65/94/11 69/95/11 55/96/11
f 54/97/11 68/98/11 59/76/11 45/75/11
f 52/82/11 66/81/11 65/94/11 51/93/11
f 64/99/6 78/99/6 77/100/6 63/100/6
f 58/101/8 72/101/8 71/102/8 57/102/8
f 60/103/4 74/103/4 81/104/4 67/104/4
f 61/105/7 75/105/7 74/103/7 60/103/7
f 70/106/9 84/106/9 78/99/9 64/99/9
f 62/107/10 76/107/10 75/105/10 61/105/10
f 65/108/9 79/108/9 83/109/9 69/109/9
f 68/110/4 82/110/4 73/111/4 59/111/4
f 66/112/2 80/112/2 79/108/2 65/108/2
f 63/100/3 77/100/3 76/107/3 62/107/3
f 59/111/1 73/111/1 72/101/1 58/101/1
f 57/102/5 71/102/5 80/112/5 66/112/5
f 69/109/22 275/113/22 274/114/22 70/106/22
f 82/115/23 267/116/23 266/117/23 81/118/23
f 80/119/11 94/120/11 93/121/11 79/122/11
f 82/115/11 96/123/11 87/124/11 73/125/11
f 71/126/11 85/127/11 94/120/11 80/119/11
f 73/125/11 87/124/11 86/128/11 72/129/11
f 74/130/11 88/131/11 95/132/11 81/118/11
f 72/129/11 86/128/11 85/127/11 71/126/11
f 79/122/11 93/121/11 97/133/11 83/134/11
f 83/134/11 97/133/11 98/135/11 84/136/11
f 76/137/11 90/138/11 89/139/11 75/140/11
f 77/141/11 91/142/11 90/138/11 76/137/11
f 78/143/11 92/144/11 91/142/11 77/141/11
f 81/118/11 95/132/11 96/123/11 82/115/11
f 84/136/11 98/135/11 92/144/11 78/143/11
f 75/140/11 89/139/11 88/131/11 74/130/11
f 155/145/3 215/145/3 216/146/3 156/146/3
f 109/147/9 197/147/9 190/148/9 102/148/9
f 146/149/10 206/149/10 205/150/10 145/150/10
f 156/146/6 216/146/6 217/151/6 157/151/6
f 93/152/9 181/152/9 185/153/9 97/153/9
f 108/154/10 196/154/10 187/155/10 99/155/10
f 142/156/8 202/156/8 201/157/8 141/157/8
f 157/151/9 217/151/9 226/158/9 166/158/9
f 88/159/4 176/159/4 183/160/4 95/160/4
f 107/161/7 195/161/7 196/154/7 108/154/7
f 143/162/1 203/162/1 202/156/1 142/156/1
f 158/163/2 218/163/2 219/164/2 159/164/2
f 85/165/5 173/165/5 182/166/5 94/166/5
f 106/167/4 194/167/4 200/168/4 112/168/4
f 101/169/11 115/170/11 114/171/11 100/172/11
f 102/173/11 116/174/11 123/175/11 109/176/11
f 100/172/11 114/171/11 113/177/11 99/178/11
f 107/179/11 121/180/11 125/181/11 111/182/11
f 104/183/11 118/184/11 117/185/11 103/186/11
f 111/182/11 125/181/11 126/187/11 112/188/11
f 105/189/11 119/190/11 118/184/11 104/183/11
f 109/176/11 123/175/11 124/191/11 110/192/11
f 106/193/11 120/194/11 119/190/11 105/189/11
f 112/188/11 126/187/11 120/194/11 106/193/11
f 103/186/11 117/185/11 116/174/11 102/173/11
f 108/195/11 122/196/11 121/180/11 107/179/11
f 110/192/11 124/191/11 115/170/11 101/169/11
f 99/178/11 113/177/11 122/196/11 108/195/11
f 129/197/9 245/197/9 254/198/9 138/198/9
f 115/199/1 231/199/1 230/200/1 114/200/1
f 130/201/2 246/201/2 247/202/2 131/202/2
f 124/203/4 240/203/4 231/199/4 115/199/4
f 138/198/9 254/198/9 253/204/9 137/204/9
f 117/205/7 233/205/7 232/206/7 116/206/7
f 140/207/4 256/207/4 255/208/4 139/208/4
f 123/209/4 239/209/4 240/203/4 124/203/4
f 139/208/4 255/208/4 251/210/4 135/210/4
f 125/211/9 241/211/9 242/212/9 126/212/9
f 137/204/9 253/204/9 246/201/9 130/201/9
f 121/213/9 237/213/9 241/211/9 125/211/9
f 136/214/10 252/214/10 243/215/10 127/215/10
f 116/206/4 232/206/4 239/209/4 123/209/4
f 133/216/11 147/217/11 146/218/11 132/219/11
f 137/220/11 151/221/11 152/222/11 138/223/11
f 134/224/11 148/225/11 147/217/11 133/216/11
f 140/226/11 154/227/11 148/225/11 134/224/11
f 131/228/11 145/229/11 144/230/11 130/231/11
f 136/232/11 150/233/11 149/234/11 135/235/11
f 138/223/11 152/222/11 143/236/11 129/237/11
f 127/238/11 141/239/11 150/233/11 136/232/11
f 129/237/11 143/236/11 142/240/11 128/241/11
f 130/231/11 144/230/11 151/221/11 137/220/11
f 128/241/11 142/240/11 141/239/11 127/238/11
f 135/235/11 149/234/11 153/242/11 139/243/11
f 132/219/11 146/218/11 145/229/11 131/228/11
f 139/243/11 153/242/11 154/227/11 140/226/11
f 152/244/4 212/244/4 203/162/4 143/162/4
f 94/166/2 182/166/2 181/152/2 93/152/2
f 105/245/1 193/245/1 194/167/1 106/167/1
f 145/150/7 205/150/7 204/246/7 144/246/7
f 98/247/9 186/247/9 180/248/9 92/248/9
f 104/249/8 192/249/8 193/245/8 105/245/8
f 92/248/6 180/248/6 179/250/6 91/250/6
f 103/251/5 191/251/5 192/249/5 104/249/5
f 91/250/3 179/250/3 178/252/3 90/252/3
f 99/155/3 187/155/3 188/253/3 100/253/3
f 90/252/10 178/252/10 177/254/10 89/254/10
f 100/253/6 188/253/6 189/255/6 101/255/6
f 86/256/8 174/256/8 173/165/8 85/165/8
f 101/255/9 189/255/9 198/257/9 110/257/9
f 169/258/11 167/259/11 163/260/11 170/261/11
f 171/262/11 165/263/11 158/264/11 172/265/11
f 169/258/11 166/266/11 165/263/11 171/262/11
f 167/259/11 169/258/11 171/262/11 168/267/11
f 168/267/11 171/262/11 172/265/11 162/268/11
f 166/266/11 169/258/11 170/261/11 157/269/11
f 163/260/11 164/270/11 155/271/11 170/261/11
f 157/269/11 170/261/11 155/271/11 156/272/11
f 160/273/11 161/274/11 162/268/11 172/265/11
f 158/264/11 159/275/11 160/273/11 172/265/11
f 182/276/11 196/277/11 195/278/11 181/279/11
f 184/280/11 198/281/11 189/282/11 175/283/11
f 173/284/11 187/285/11 196/277/11 182/276/11
f 175/283/11 189/282/11 188/286/11 174/287/11
f 176/288/11 190/289/11 197/290/11 183/291/11
f 174/287/11 188/286/11 187/285/11 173/284/11
f 181/279/11 195/278/11 199/292/11 185/293/11
f 178/294/11 192/295/11 191/296/11 177/297/11
f 185/293/11 199/292/11 200/298/11 186/299/11
f 179/300/11 193/301/11 192/295/11 178/294/11
f 183/291/11 197/290/11 198/281/11 184/280/11
f 180/302/11 194/303/11 193/301/11 179/300/11
f 186/299/11 200/298/11 194/303/11 180/302/11
f 177/297/11 191/296/11 190/289/11 176/288/11
f 214/304/11 228/305/11 222/306/11 208/307/11
f 205/308/11 219/309/11 218/310/11 204/311/11
f 210/312/11 224/313/11 223/314/11 209/315/11
f 212/316/11 226/317/11 217/318/11 203/319/11
f 201/320/11 215/321/11 224/313/11 210/312/11
f 203/319/11 217/318/11 216/322/11 202/323/11
f 204/311/11 218/310/11 225/324/11 211/325/11
f 202/323/11 216/322/11 215/321/11 201/320/11
f 209/315/11 223/314/11 227/326/11 213/327/11
f 206/328/11 220/329/11 219/309/11 205/308/11
f 213/327/11 227/326/11 228/305/11 214/304/11
f 207/330/11 221/331/11 220/329/11 206/328/11
f 211/325/11 225/324/11 226/317/11 212/316/11
f 208/307/11 222/306/11 221/331/11 207/330/11
f 97/153/9 185/153/9 186/247/9 98/247/9
f 147/332/3 207/332/3 206/149/3 146/149/3
f 111/333/4 199/333/4 195/161/4 107/161/4
f 159/164/5 219/164/5 220/334/5 160/334/5
f 95/160/4 183/160/4 184/335/4 96/335/4
f 148/336/6 208/336/6 207/332/6 147/332/6
f 112/168/4 200/168/4 199/333/4 111/333/4
f 160/334/8 220/334/8 221/337/8 161/337/8
f 154/338/9 214/338/9 208/336/9 148/336/9
f 110/257/9 198/257/9 197/147/9 109/147/9
f 161/337/1 221/337/1 222/339/1 162/339/1
f 150/340/2 210/340/2 209/341/2 149/341/2
f 162/339/4 222/339/4 228/342/4 168/342/4
f 141/157/5 201/157/5 210/340/5 150/340/5
f 163/343/7 223/343/7 224/344/7 164/344/7
f 144/246/4 204/246/4 211/345/4 151/345/4
f 164/344/10 224/344/10 215/145/10 155/145/10
f 149/341/9 209/341/9 213/346/9 153/346/9
f 165/347/9 225/347/9 218/163/9 158/163/9
f 153/346/9 213/346/9 214/338/9 154/338/9
f 167/348/4 227/348/4 223/343/4 163/343/4
f 151/345/4 211/345/4 212/244/4 152/244/4
f 168/342/4 228/342/4 227/348/4 167/348/4
f 166/158/9 226/158/9 225/347/9 165/347/9
f 89/254/7 177/254/7 176/159/7 88/159/7
f 96/335/4 184/335/4 175/349/4 87/349/4
f 102/148/2 190/148/2 191/251/2 103/251/2
f 87/349/1 175/349/1 174/256/1 86/256/1
f 237/350/11 251/351/11 255/352/11 241/353/11
f 234/354/11 248/355/11 247/356/11 233/357/11
f 241/353/11 255/352/11 256/358/11 242/359/11
f 235/360/11 249/361/11 248/355/11 234/354/11
f 239/362/11 253/363/11 254/364/11 240/365/11
f 236/366/11 250/367/11 249/361/11 235/360/11
f 242/359/11 256/358/11 250/367/11 236/366/11
f 233/357/11 247/356/11 246/368/11 232/369/11
f 238/370/11 252/371/11 251/351/11 237/350/11
f 240/365/11 254/364/11 245/372/11 231/373/11
f 229/374/11 243/375/11 252/371/11 238/370/11
f 231/373/11 245/372/11 244/376/11 230/377/11
f 232/369/11 246/368/11 253/363/11 239/362/11
f 230/377/11 244/376/11 243/375/11 229/374/11
f 114/200/8 230/200/8 229/378/8 113/378/8
f 128/379/6 244/379/6 245/197/6 129/197/6
f 118/380/10 234/380/10 233/205/10 117/205/10
f 127/215/3 243/215/3 244/379/3 128/379/3
f 119/381/3 235/381/3 234/380/3 118/380/3
f 131/202/5 247/202/5 248/382/5 132/382/5
f 120/383/6 236/383/6 235/381/6 119/381/6
f 132/382/8 248/382/8 249/384/8 133/384/8
f 126/212/9 242/212/9 236/383/9 120/383/9
f 133/384/1 249/384/1 250/385/1 134/385/1
f 122/386/2 238/386/2 237/213/2 121/213/2
f 134/385/4 250/385/4 256/207/4 140/207/4
f 113/378/5 229/378/5 238/386/5 122/386/5
f 135/210/7 251/210/7 252/214/7 136/214/7
f 53/88/11 67/87/11 68/98/11 54/97/11
f 70/92/11 56/91/11 55/96/11 69/95/11
f 55/387/24 270/388/24 272/388/24 259/387/24
f 257/389/25 263/390/25 264/391/25 258/392/25
f 25/393/26 27/393/26 41/394/26 55/387/26 259/387/26
f 28/395/27 26/395/27 260/396/27 56/396/27 42/397/27
f 24/398/28 22/398/28 258/392/28 54/392/28 40/399/28
f 21/400/29 23/400/29 39/401/29 53/389/29 257/389/29
f 262/391/4 264/391/4 263/390/4 261/390/4
f 54/392/11 262/391/11 261/390/11 53/389/11
f 53/389/30 261/390/30 263/390/30 257/389/30
f 258/392/24 264/391/24 262/391/24 54/392/24
f 265/402/4 266/402/4 267/403/4 268/403/4
f 81/104/31 266/402/31 265/402/31 67/104/31
f 67/104/32 265/402/32 268/403/32 68/110/32
f 68/110/33 268/403/33 267/403/33 82/110/33
f 269/404/9 271/404/9 272/388/9 270/388/9
f 259/387/25 272/388/25 271/404/25 260/396/25
f 56/396/11 269/404/11 270/388/11 55/387/11
f 260/396/30 271/404/30 269/404/30 56/396/30
f 273/114/9 274/114/9 275/113/9 276/113/9
f 83/109/34 276/113/34 275/113/34 69/109/34
f 70/106/35 274/114/35 273/114/35 84/106/35
f 84/136/36 273/405/36 276/406/36 83/134/36
