# Blender 5.1.0
# www.blender.org
mtllib police.mtl
o Untitled.003
v -0.874243 -0.029667 1.203855
v -0.874243 -0.029667 0.703855
v -0.874243 -0.029668 -0.396145
v -0.874243 -0.029668 -0.896145
v -0.874243 0.170333 1.003855
v -0.874243 0.170333 0.903855
v -0.874243 0.170332 -0.596145
v -0.874243 0.170332 -0.696145
v -0.874243 0.270333 1.303855
v -0.874243 0.270333 1.203855
v -0.874243 0.270333 1.003855
v -0.874243 0.270333 0.903855
v -0.874243 0.270333 0.703855
v -0.874243 0.270333 0.603855
v -0.874243 0.270332 -0.296145
v -0.874243 0.270332 -0.396145
v -0.874243 0.270332 -0.596145
v -0.874243 0.270332 -0.696145
v -0.874243 0.270332 -0.896145
v -0.874243 0.270332 -0.996145
v -0.874243 0.470333 1.203855
v -0.874243 0.470333 0.703855
v -0.874243 0.470332 -0.396145
v -0.874243 0.470332 -0.896145
v -0.874243 0.570333 1.303855
v -0.874243 0.570333 0.603855
v -0.874243 0.570332 -0.296145
v -0.874243 0.570332 -0.996145
v -0.874243 0.770332 -0.096145
v -0.874243 0.770332 -0.196145
v -0.874243 0.770332 -0.696145
v -0.874243 0.770332 -0.796145
v -0.874243 0.970333 0.303855
v -0.874243 0.970333 0.203855
v -0.874243 0.970333 -0.096145
v -0.874243 0.970333 -0.196145
v -0.874243 0.970332 -0.696145
v -0.874243 0.970332 -0.796145
v -0.874243 1.170333 0.303855
v -0.874243 1.170333 0.203855
v -0.774243 0.170333 1.603855
v -0.774243 0.170333 1.503855
v -0.774243 0.170333 1.303855
v -0.774243 0.170333 1.203855
v -0.774243 0.170333 0.703855
v -0.774243 0.170332 -0.396145
v -0.774243 0.170332 -0.896145
v -0.774243 0.170332 -1.196145
v -0.774243 0.270333 1.503855
v -0.774243 0.270333 1.303855
v -0.774243 0.270333 1.203855
v -0.774243 0.270333 0.703855
v -0.774243 0.270333 0.603855
v -0.774243 0.270332 -0.296145
v -0.774243 0.270332 -0.396145
v -0.774243 0.270332 -0.896145
v -0.774243 0.270332 -0.996145
v -0.774243 0.270332 -1.096145
v -0.774243 0.270332 -1.196145
v -0.774243 0.270332 -1.296145
v -0.774243 0.370333 1.603855
v -0.774243 0.370333 1.503855
v -0.774243 0.470332 -1.196145
v -0.774243 0.470332 -1.296145
v -0.774243 0.570333 1.303855
v -0.774243 0.570333 0.603855
v -0.774243 0.570332 -0.296145
v -0.774243 0.570332 -0.996145
v -0.774243 0.570332 -1.096145
v -0.774243 0.570332 -1.196145
v -0.774243 0.670333 1.503855
v -0.774243 0.670333 1.403855
v -0.774243 0.770333 1.403855
v -0.774243 0.770333 0.503855
v -0.774243 0.770332 -0.096145
v -0.774243 0.770332 -0.196145
v -0.774243 0.770332 -0.696145
v -0.774243 0.770332 -0.796145
v -0.774243 0.870332 0.503855
v -0.774243 0.870332 0.403855
v -0.774243 0.870332 0.203855
v -0.774243 0.870332 -0.096145
v -0.774243 0.870332 -0.396145
v -0.774243 0.870332 -0.696145
v -0.774243 0.970333 0.303855
v -0.774243 0.970333 0.203855
v -0.774243 0.970333 -0.196145
v -0.774243 0.970332 -0.796145
v -0.774243 1.170333 0.303855
v -0.774243 1.170333 0.203855
v -0.774243 1.270332 0.203855
v -0.774243 1.270332 -0.196145
v -0.774243 1.270332 -0.396145
v -0.774243 1.270332 -0.796145
v -0.774243 1.370332 0.403855
v -0.774243 1.370332 -1.096145
v -0.674243 0.170332 -1.196145
v -0.674243 0.170332 -1.296145
v -0.674243 0.270332 -1.196145
v -0.674243 0.270332 -1.296145
v -0.674243 0.370333 1.603855
v -0.674243 0.370333 1.503855
v -0.674243 0.470333 1.603855
v -0.674243 0.470333 1.503855
v -0.674243 0.470332 -1.196145
v -0.674243 0.470332 -1.296145
v -0.674243 0.570332 -1.096145
v -0.674243 0.570332 -1.196145
v -0.674243 0.570332 -1.296145
v -0.674243 0.670333 1.503855
v -0.674243 0.670333 1.403855
v -0.674243 0.770333 1.503855
v -0.674243 0.770333 1.403855
v -0.674243 0.770333 0.603855
v -0.674243 0.770333 0.503855
v -0.674243 0.870332 0.603855
v -0.674243 0.870332 0.503855
v -0.674243 0.870332 0.203855
v -0.674243 0.870332 -0.096145
v -0.674243 0.870332 -0.396145
v -0.674243 0.870332 -0.696145
v -0.674243 0.970333 -0.096145
v -0.674243 0.970333 -0.196145
v -0.674243 0.970332 -0.696145
v -0.674243 0.970332 -0.796145
v -0.674243 1.270332 0.203855
v -0.674243 1.270332 -0.196145
v -0.674243 1.270332 -0.396145
v -0.674243 1.270332 -0.796145
v -0.674243 1.370332 -1.096145
v -0.674243 1.370332 -1.196145
v -0.574244 1.370332 0.003855
v -0.574244 1.370332 -0.296145
v -0.574244 1.470333 0.003855
v -0.574244 1.470333 -0.296145
v 0.425756 0.870332 -1.096145
v 0.425756 0.870332 -1.196145
v 0.425756 1.270332 -1.096145
v 0.425756 1.270332 -1.196145
v 0.525757 0.470333 0.103855
v 0.525757 0.470332 0.003855
v 0.525757 0.570333 0.103855
v 0.525757 0.570333 0.003855
v 0.525757 0.770333 0.203855
v 0.525757 0.770332 -0.896145
v 0.525757 0.870332 0.403855
v 0.525757 0.870332 0.303855
v 0.525757 1.270333 0.403855
v 0.525757 1.270332 0.303855
v 0.525757 1.270332 0.203855
v 0.525757 1.270332 -0.896145
v 0.625757 0.470333 0.403855
v 0.625757 0.470333 0.303855
v 0.625757 0.470332 0.003855
v 0.625757 0.470332 -1.096145
v 0.625757 0.570333 0.103855
v 0.625757 0.570333 0.003855
v 0.625757 0.570332 -1.096145
v 0.625757 0.670332 0.403855
v 0.625757 0.670332 0.203855
v 0.625757 0.670332 0.103855
v 0.625757 0.770333 0.403855
v 0.625757 0.770333 0.303855
v 0.625757 0.770333 0.203855
v 0.625757 0.770332 -0.896145
v 0.625757 0.770332 -0.996145
v 0.625757 0.770332 -1.096145
v 0.625757 1.270332 -0.896145
v 0.625757 1.270332 -0.996145
v 0.725757 -0.029667 1.203855
v 0.725757 -0.029667 0.703855
v 0.725757 -0.029668 -0.396145
v 0.725757 -0.029668 -0.896145
v 0.725757 0.170333 1.203855
v 0.725757 0.170333 1.003855
v 0.725757 0.170333 0.703855
v 0.725757 0.170332 -0.396145
v 0.725757 0.170332 -0.596145
v 0.725757 0.170332 -0.896145
v 0.725757 0.870332 -0.696145
v 0.725757 0.870332 -0.796145
v 0.725757 0.970332 -0.696145
v 0.725757 0.970332 -0.796145
v -0.774243 -0.029667 1.203855
v -0.774243 -0.029667 0.703855
v -0.774243 -0.029668 -0.396145
v -0.774243 -0.029668 -0.896145
v -0.774243 0.170333 1.203855
v -0.774243 0.170333 1.003855
v -0.774243 0.170333 0.703855
v -0.774243 0.170332 -0.396145
v -0.774243 0.170332 -0.596145
v -0.774243 0.170332 -0.896145
v -0.674243 0.470333 0.403855
v -0.674243 0.470333 0.303855
v -0.674243 0.470332 0.003855
v -0.674243 0.470332 -1.096145
v -0.674243 0.570332 -1.096145
v -0.674243 0.670332 0.403855
v -0.674243 0.770333 0.403855
v -0.674243 0.770333 0.303855
v -0.674243 0.770333 0.003855
v -0.674243 0.770332 -1.096145
v -0.574244 0.770333 0.203855
v -0.574244 0.770333 0.003855
v -0.574244 0.770332 -0.996145
v -0.574244 0.870332 0.403855
v -0.574244 0.870332 0.303855
v -0.574244 1.270333 0.403855
v -0.574244 1.270332 0.303855
v -0.574244 1.270332 0.203855
v -0.574244 1.270332 -0.996145
v -0.474243 0.870332 -1.096145
v -0.474243 0.870332 -1.196145
v -0.474243 1.270332 -1.096145
v -0.474243 1.270332 -1.196145
v 0.425756 0.470333 0.103855
v 0.425756 0.470332 0.003855
v 0.425756 0.670332 0.203855
v 0.425756 0.670332 0.103855
v 0.425756 0.770333 0.203855
v 0.425756 0.770333 0.003855
v 0.525757 1.370332 0.003855
v 0.525757 1.370332 -0.296145
v 0.525757 1.470333 0.003855
v 0.525757 1.470333 -0.296145
v 0.625757 0.170332 -1.196145
v 0.625757 0.170332 -1.296145
v 0.625757 0.270332 -1.196145
v 0.625757 0.270332 -1.296145
v 0.625757 0.370333 1.603855
v 0.625757 0.370333 1.503855
v 0.625757 0.470333 1.603855
v 0.625757 0.470333 1.503855
v 0.625757 0.470332 -1.196145
v 0.625757 0.470332 -1.296145
v 0.625757 0.570332 -1.096145
v 0.625757 0.570332 -1.196145
v 0.625757 0.570332 -1.296145
v 0.625757 0.670333 1.503855
v 0.625757 0.670333 1.403855
v 0.625757 0.770333 1.503855
v 0.625757 0.770333 1.403855
v 0.625757 0.770333 0.603855
v 0.625757 0.770333 0.503855
v 0.625757 0.870332 0.603855
v 0.625757 0.870332 0.503855
v 0.625757 0.870332 0.203855
v 0.625757 0.870332 -0.096145
v 0.625757 0.870332 -0.396145
v 0.625757 0.870332 -0.796145
v 0.625757 0.970333 -0.096145
v 0.625757 0.970333 -0.196145
v 0.625757 1.270332 0.203855
v 0.625757 1.270332 -0.196145
v 0.625757 1.270332 -0.396145
v 0.625757 1.270332 -0.796145
v 0.625757 1.370332 -1.096145
v 0.625757 1.370332 -1.196145
v 0.725757 0.170333 1.603855
v 0.725757 0.170333 1.503855
v 0.725757 0.170333 1.303855
v 0.725757 0.170333 1.203855
v 0.725757 0.170333 0.703855
v 0.725757 0.170332 -0.396145
v 0.725757 0.170332 -0.896145
v 0.725757 0.170332 -1.196145
v 0.725757 0.270333 1.503855
v 0.725757 0.270333 1.303855
v 0.725757 0.270333 1.203855
v 0.725757 0.270333 0.703855
v 0.725757 0.270333 0.603855
v 0.725757 0.270332 -0.296145
v 0.725757 0.270332 -0.396145
v 0.725757 0.270332 -0.896145
v 0.725757 0.270332 -0.996145
v 0.725757 0.270332 -1.196145
v 0.725757 0.270332 -1.296145
v 0.725757 0.370333 1.603855
v 0.725757 0.370333 1.503855
v 0.725757 0.470332 -0.996145
v 0.725757 0.470332 -1.096145
v 0.725757 0.470332 -1.196145
v 0.725757 0.470332 -1.296145
v 0.725757 0.570333 1.303855
v 0.725757 0.570333 0.603855
v 0.725757 0.570332 -0.296145
v 0.725757 0.570332 -0.996145
v 0.725757 0.570332 -1.096145
v 0.725757 0.570332 -1.196145
v 0.725757 0.670333 1.503855
v 0.725757 0.670333 1.403855
v 0.725757 0.770333 1.403855
v 0.725757 0.770333 0.503855
v 0.725757 0.770332 -0.096145
v 0.725757 0.770332 -0.196145
v 0.725757 0.770332 -0.696145
v 0.725757 0.770332 -0.796145
v 0.725757 0.870332 0.503855
v 0.725757 0.870332 0.403855
v 0.725757 0.870332 0.203855
v 0.725757 0.870332 -0.096145
v 0.725757 0.870332 -0.396145
v 0.725757 0.870332 -0.696145
v 0.725757 0.970333 0.303855
v 0.725757 0.970333 0.203855
v 0.725757 0.970333 -0.196145
v 0.725757 0.970332 -0.796145
v 0.725757 1.170333 0.303855
v 0.725757 1.170333 0.203855
v 0.725757 1.270332 0.203855
v 0.725757 1.270332 -0.196145
v 0.725757 1.270332 -0.396145
v 0.725757 1.270332 -0.796145
v 0.725757 1.370332 0.403855
v 0.725757 1.370332 -1.096145
v 0.825757 -0.029667 1.203855
v 0.825757 -0.029667 0.703855
v 0.825757 -0.029668 -0.396145
v 0.825757 -0.029668 -0.896145
v 0.825757 0.170333 1.003855
v 0.825757 0.170333 0.903855
v 0.825757 0.170332 -0.596145
v 0.825757 0.170332 -0.696145
v 0.825757 0.270333 1.303855
v 0.825757 0.270333 1.203855
v 0.825757 0.270333 1.003855
v 0.825757 0.270333 0.903855
v 0.825757 0.270333 0.703855
v 0.825757 0.270333 0.603855
v 0.825757 0.270332 -0.296145
v 0.825757 0.270332 -0.396145
v 0.825757 0.270332 -0.596145
v 0.825757 0.270332 -0.696145
v 0.825757 0.270332 -0.896145
v 0.825757 0.270332 -0.996145
v 0.825757 0.470333 1.203855
v 0.825757 0.470333 0.703855
v 0.825757 0.470332 -0.396145
v 0.825757 0.470332 -0.896145
v 0.825757 0.570333 1.303855
v 0.825757 0.570333 0.603855
v 0.825757 0.570332 -0.296145
v 0.825757 0.570332 -0.996145
v 0.825757 0.770332 -0.096145
v 0.825757 0.770332 -0.196145
v 0.825757 0.770332 -0.696145
v 0.825757 0.770332 -0.796145
v 0.825757 0.970333 0.303855
v 0.825757 0.970333 0.203855
v 0.825757 0.970333 -0.096145
v 0.825757 0.970333 -0.196145
v 0.825757 0.970332 -0.696145
v 0.825757 0.970332 -0.796145
v 0.825757 1.170333 0.303855
v 0.825757 1.170333 0.203855
v -0.774243 0.170333 1.603855
v -0.774243 0.370333 1.603855
v -0.674243 0.370333 1.603855
v -0.674243 0.470333 1.603855
v -0.574244 0.270333 1.603855
v -0.574244 0.370333 1.603855
v -0.474243 0.270333 1.603855
v -0.474243 0.370333 1.603855
v -0.374243 0.270333 1.603855
v -0.374243 0.370333 1.603855
v -0.274243 0.270333 1.603855
v -0.274243 0.370333 1.603855
v -0.174243 0.270333 1.603855
v -0.174243 0.370333 1.603855
v -0.074244 0.270333 1.603855
v -0.074244 0.370333 1.603855
v 0.025757 0.270333 1.603855
v 0.025757 0.370333 1.603855
v 0.125757 0.270333 1.603855
v 0.125757 0.370333 1.603855
v 0.225757 0.270333 1.603855
v 0.225757 0.370333 1.603855
v 0.325757 0.270333 1.603855
v 0.325757 0.370333 1.603855
v 0.425756 0.270333 1.603855
v 0.425756 0.370333 1.603855
v 0.525757 0.270333 1.603855
v 0.525757 0.370333 1.603855
v 0.625757 0.370333 1.603855
v 0.625757 0.470333 1.603855
v 0.725757 0.170333 1.603855
v 0.725757 0.370333 1.603855
v -0.774243 0.370333 1.503855
v -0.774243 0.670333 1.503855
v -0.674243 0.370333 1.503855
v -0.674243 0.470333 1.503855
v -0.674243 0.570333 1.503855
v -0.674243 0.670333 1.503855
v -0.674243 0.770333 1.503855
v -0.474243 0.470333 1.503855
v -0.474243 0.570333 1.503855
v 0.425756 0.470333 1.503855
v 0.425756 0.570333 1.503855
v 0.625757 0.370333 1.503855
v 0.625757 0.470333 1.503855
v 0.625757 0.570333 1.503855
v 0.625757 0.670333 1.503855
v 0.625757 0.770333 1.503855
v 0.725757 0.370333 1.503855
v 0.725757 0.670333 1.503855
v -0.774243 0.670333 1.403855
v -0.774243 0.770333 1.403855
v -0.674243 0.670333 1.403855
v -0.674243 0.770333 1.403855
v 0.625757 0.670333 1.403855
v 0.625757 0.770333 1.403855
v 0.725757 0.670333 1.403855
v 0.725757 0.770333 1.403855
v -0.874243 0.270333 1.303855
v -0.874243 0.570333 1.303855
v -0.774243 0.270333 1.303855
v -0.774243 0.570333 1.303855
v 0.725757 0.270333 1.303855
v 0.725757 0.570333 1.303855
v 0.825757 0.270333 1.303855
v 0.825757 0.570333 1.303855
v -0.874243 -0.029667 1.203855
v -0.874243 0.270333 1.203855
v -0.774243 -0.029667 1.203855
v -0.774243 0.170333 1.203855
v -0.774243 0.270333 1.203855
v 0.725757 -0.029667 1.203855
v 0.725757 0.170333 1.203855
v 0.725757 0.270333 1.203855
v 0.825757 -0.029667 1.203855
v 0.825757 0.270333 1.203855
v -0.674243 0.770333 0.603855
v -0.674243 0.870332 0.603855
v -0.474243 0.770333 0.603855
v -0.274243 0.770333 0.603855
v 0.225757 0.770333 0.603855
v 0.425756 0.770333 0.603855
v 0.625757 0.770333 0.603855
v 0.625757 0.870332 0.603855
v -0.774243 0.770333 0.503855
v -0.774243 0.870332 0.503855
v -0.674243 0.770333 0.503855
v -0.674243 0.870332 0.503855
v 0.625757 0.770333 0.503855
v 0.625757 0.870332 0.503855
v 0.725757 0.770333 0.503855
v 0.725757 0.870332 0.503855
v -0.774243 0.870332 0.403855
v -0.774243 1.370332 0.403855
v -0.574244 0.870332 0.403855
v -0.574244 1.270333 0.403855
v -0.474243 1.270333 0.403855
v -0.474243 1.370332 0.403855
v -0.274243 1.270333 0.403855
v -0.274243 1.370332 0.403855
v 0.225757 1.270333 0.403855
v 0.225757 1.370332 0.403855
v 0.425756 1.270333 0.403855
v 0.425756 1.370332 0.403855
v 0.525757 0.870332 0.403855
v 0.525757 1.270333 0.403855
v 0.725757 0.870332 0.403855
v 0.725757 1.370332 0.403855
v -0.874243 0.970333 0.303855
v -0.874243 1.170333 0.303855
v -0.774243 0.970333 0.303855
v -0.774243 1.170333 0.303855
v -0.674243 0.470333 0.303855
v -0.674243 0.770333 0.303855
v -0.574244 0.770333 0.303855
v -0.574244 0.870332 0.303855
v -0.574244 1.270332 0.303855
v -0.474243 1.270332 0.303855
v -0.274243 1.270332 0.303855
v 0.225757 1.270332 0.303855
v 0.425756 1.270332 0.303855
v 0.525757 0.770333 0.303855
v 0.525757 0.870332 0.303855
v 0.525757 1.270332 0.303855
v 0.625757 0.470333 0.303855
v 0.625757 0.770333 0.303855
v 0.725757 0.970333 0.303855
v 0.725757 1.170333 0.303855
v 0.825757 0.970333 0.303855
v 0.825757 1.170333 0.303855
v -0.574244 1.370332 0.003855
v -0.574244 1.470333 0.003855
v -0.474243 1.370332 0.003855
v -0.274243 1.370332 0.003855
v -0.174243 1.370332 0.003855
v -0.174243 1.470333 0.003855
v 0.125757 1.370332 0.003855
v 0.125757 1.470333 0.003855
v 0.225757 1.370332 0.003855
v 0.425756 1.370332 0.003855
v 0.525757 1.370332 0.003855
v 0.525757 1.470333 0.003855
v -0.874243 0.770332 -0.096145
v -0.874243 0.970333 -0.096145
v -0.774243 0.770332 -0.096145
v -0.774243 0.870332 -0.096145
v -0.674243 0.870332 -0.096145
v -0.674243 0.970333 -0.096145
v 0.625757 0.870332 -0.096145
v 0.625757 0.970333 -0.096145
v 0.725757 0.770332 -0.096145
v 0.725757 0.870332 -0.096145
v 0.825757 0.770332 -0.096145
v 0.825757 0.970333 -0.096145
v -0.774243 0.970333 -0.196145
v -0.774243 1.270332 -0.196145
v -0.674243 0.970333 -0.196145
v -0.674243 1.270332 -0.196145
v 0.625757 0.970333 -0.196145
v 0.625757 1.270332 -0.196145
v 0.725757 0.970333 -0.196145
v 0.725757 1.270332 -0.196145
v -0.874243 0.270332 -0.296145
v -0.874243 0.570332 -0.296145
v -0.774243 0.270332 -0.296145
v -0.774243 0.570332 -0.296145
v 0.725757 0.270332 -0.296145
v 0.725757 0.570332 -0.296145
v 0.825757 0.270332 -0.296145
v 0.825757 0.570332 -0.296145
v -0.874243 -0.029668 -0.396145
v -0.874243 0.270332 -0.396145
v -0.774243 -0.029668 -0.396145
v -0.774243 0.170332 -0.396145
v -0.774243 0.270332 -0.396145
v 0.725757 -0.029668 -0.396145
v 0.725757 0.170332 -0.396145
v 0.725757 0.270332 -0.396145
v 0.825757 -0.029668 -0.396145
v 0.825757 0.270332 -0.396145
v -0.874243 0.770332 -0.696145
v -0.874243 0.970332 -0.696145
v -0.774243 0.770332 -0.696145
v -0.774243 0.870332 -0.696145
v -0.674243 0.870332 -0.696145
v -0.674243 0.970332 -0.696145
v 0.725757 0.770332 -0.696145
v 0.725757 0.870332 -0.696145
v 0.725757 0.970332 -0.696145
v 0.825757 0.770332 -0.696145
v 0.825757 0.970332 -0.696145
v -0.774243 0.970332 -0.796145
v -0.774243 1.270332 -0.796145
v -0.674243 0.970332 -0.796145
v -0.674243 1.270332 -0.796145
v 0.625757 0.870332 -0.796145
v 0.625757 1.270332 -0.796145
v 0.725757 0.870332 -0.796145
v 0.725757 0.970332 -0.796145
v 0.725757 1.270332 -0.796145
v -0.574244 0.770332 -0.996145
v -0.574244 1.270332 -0.996145
v -0.474243 1.270332 -0.996145
v -0.274243 1.270332 -0.996145
v 0.225757 1.270332 -0.996145
v 0.425756 1.270332 -0.996145
v 0.625757 0.770332 -0.996145
v 0.625757 1.270332 -0.996145
v -0.674243 0.470332 -1.096145
v -0.674243 0.570332 -1.096145
v -0.674243 0.770332 -1.096145
v 0.625757 0.470332 -1.096145
v 0.625757 0.570332 -1.096145
v 0.625757 0.770332 -1.096145
v -0.874243 -0.029667 0.703855
v -0.874243 0.270333 0.703855
v -0.774243 -0.029667 0.703855
v -0.774243 0.170333 0.703855
v -0.774243 0.270333 0.703855
v 0.725757 -0.029667 0.703855
v 0.725757 0.170333 0.703855
v 0.725757 0.270333 0.703855
v 0.825757 -0.029667 0.703855
v 0.825757 0.270333 0.703855
v -0.874243 0.270333 0.603855
v -0.874243 0.570333 0.603855
v -0.774243 0.270333 0.603855
v -0.774243 0.570333 0.603855
v 0.725757 0.270333 0.603855
v 0.725757 0.570333 0.603855
v 0.825757 0.270333 0.603855
v 0.825757 0.570333 0.603855
v -0.674243 0.470333 0.403855
v -0.674243 0.670332 0.403855
v -0.674243 0.770333 0.403855
v -0.574244 0.770333 0.403855
v 0.525757 0.770333 0.403855
v 0.625757 0.470333 0.403855
v 0.625757 0.670332 0.403855
v 0.625757 0.770333 0.403855
v -0.874243 0.970333 0.203855
v -0.874243 1.170333 0.203855
v -0.774243 0.870332 0.203855
v -0.774243 0.970333 0.203855
v -0.774243 1.170333 0.203855
v -0.774243 1.270332 0.203855
v -0.674243 0.870332 0.203855
v -0.674243 1.270332 0.203855
v -0.574244 0.770333 0.203855
v -0.574244 1.270332 0.203855
v -0.474243 1.270332 0.203855
v -0.274243 1.270332 0.203855
v 0.225757 1.270332 0.203855
v 0.425756 0.670332 0.203855
v 0.425756 0.770333 0.203855
v 0.425756 1.270332 0.203855
v 0.525757 0.770333 0.203855
v 0.525757 1.270332 0.203855
v 0.625757 0.670332 0.203855
v 0.625757 0.770333 0.203855
v 0.625757 0.870332 0.203855
v 0.625757 1.270332 0.203855
v 0.725757 0.870332 0.203855
v 0.725757 0.970333 0.203855
v 0.725757 1.170333 0.203855
v 0.725757 1.270332 0.203855
v 0.825757 0.970333 0.203855
v 0.825757 1.170333 0.203855
v 0.425756 0.470333 0.103855
v 0.425756 0.670332 0.103855
v 0.525757 0.470333 0.103855
v 0.525757 0.570333 0.103855
v 0.625757 0.570333 0.103855
v 0.625757 0.670332 0.103855
v -0.674243 0.470332 0.003855
v -0.674243 0.770333 0.003855
v -0.574244 0.770333 0.003855
v 0.425756 0.470332 0.003855
v 0.425756 0.770333 0.003855
v 0.525757 0.470332 0.003855
v 0.525757 0.570333 0.003855
v 0.625757 0.470332 0.003855
v 0.625757 0.570333 0.003855
v -0.874243 0.770332 -0.196145
v -0.874243 0.970333 -0.196145
v -0.774243 0.770332 -0.196145
v -0.774243 0.970333 -0.196145
v 0.725757 0.770332 -0.196145
v 0.725757 0.970333 -0.196145
v 0.825757 0.770332 -0.196145
v 0.825757 0.970333 -0.196145
v -0.574244 1.370332 -0.296145
v -0.574244 1.470333 -0.296145
v -0.474243 1.370332 -0.296145
v -0.274243 1.370332 -0.296145
v -0.174243 1.370332 -0.296145
v -0.174243 1.470333 -0.296145
v 0.125757 1.370332 -0.296145
v 0.125757 1.470333 -0.296145
v 0.225757 1.370332 -0.296145
v 0.425756 1.370332 -0.296145
v 0.525757 1.370332 -0.296145
v 0.525757 1.470333 -0.296145
v -0.774243 0.870332 -0.396145
v -0.774243 1.270332 -0.396145
v -0.674243 0.870332 -0.396145
v -0.674243 1.270332 -0.396145
v 0.625757 0.870332 -0.396145
v 0.625757 1.270332 -0.396145
v 0.725757 0.870332 -0.396145
v 0.725757 1.270332 -0.396145
v -0.874243 0.770332 -0.796145
v -0.874243 0.970332 -0.796145
v -0.774243 0.770332 -0.796145
v -0.774243 0.970332 -0.796145
v 0.725757 0.770332 -0.796145
v 0.725757 0.970332 -0.796145
v 0.825757 0.770332 -0.796145
v 0.825757 0.970332 -0.796145
v -0.874243 -0.029668 -0.896145
v -0.874243 0.270332 -0.896145
v -0.774243 -0.029668 -0.896145
v -0.774243 0.170332 -0.896145
v -0.774243 0.270332 -0.896145
v 0.525757 0.770332 -0.896145
v 0.525757 1.270332 -0.896145
v 0.625757 0.770332 -0.896145
v 0.625757 1.270332 -0.896145
v 0.725757 -0.029668 -0.896145
v 0.725757 0.170332 -0.896145
v 0.725757 0.270332 -0.896145
v 0.825757 -0.029668 -0.896145
v 0.825757 0.270332 -0.896145
v -0.874243 0.270332 -0.996145
v -0.874243 0.570332 -0.996145
v -0.774243 0.270332 -0.996145
v -0.774243 0.570332 -0.996145
v 0.725757 0.270332 -0.996145
v 0.725757 0.470332 -0.996145
v 0.725757 0.570332 -0.996145
v 0.825757 0.270332 -0.996145
v 0.825757 0.570332 -0.996145
v -0.774243 0.570332 -1.096145
v -0.774243 1.370332 -1.096145
v -0.674243 0.570332 -1.096145
v -0.674243 1.370332 -1.096145
v -0.474243 0.870332 -1.096145
v -0.474243 1.270332 -1.096145
v -0.274243 1.270332 -1.096145
v 0.225757 1.270332 -1.096145
v 0.425756 0.870332 -1.096145
v 0.425756 1.270332 -1.096145
v 0.625757 0.570332 -1.096145
v 0.625757 1.370332 -1.096145
v 0.725757 0.570332 -1.096145
v 0.725757 1.370332 -1.096145
v -0.774243 0.170332 -1.196145
v -0.774243 0.270332 -1.196145
v -0.774243 0.470332 -1.196145
v -0.774243 0.570332 -1.196145
v -0.674243 0.170332 -1.196145
v -0.674243 0.270332 -1.196145
v -0.674243 0.470332 -1.196145
v -0.674243 0.570332 -1.196145
v -0.674243 1.370332 -1.196145
v -0.474243 0.870332 -1.196145
v -0.474243 1.270332 -1.196145
v -0.474243 1.370332 -1.196145
v -0.274243 1.270332 -1.196145
v -0.274243 1.370332 -1.196145
v 0.225757 1.270332 -1.196145
v 0.225757 1.370332 -1.196145
v 0.425756 0.870332 -1.196145
v 0.425756 1.270332 -1.196145
v 0.425756 1.370332 -1.196145
v 0.625757 0.170332 -1.196145
v 0.625757 0.270332 -1.196145
v 0.625757 0.470332 -1.196145
v 0.625757 0.570332 -1.196145
v 0.625757 1.370332 -1.196145
v 0.725757 0.170332 -1.196145
v 0.725757 0.270332 -1.196145
v 0.725757 0.470332 -1.196145
v 0.725757 0.570332 -1.196145
v -0.774243 0.270332 -1.296145
v -0.774243 0.470332 -1.296145
v -0.674243 0.170332 -1.296145
v -0.674243 0.270332 -1.296145
v -0.674243 0.470332 -1.296145
v -0.674243 0.570332 -1.296145
v -0.574244 0.370332 -1.296145
v -0.574244 0.470332 -1.296145
v -0.274243 0.370332 -1.296145
v -0.274243 0.470332 -1.296145
v -0.174243 0.370332 -1.296145
v -0.174243 0.470332 -1.296145
v 0.125757 0.370332 -1.296145
v 0.125757 0.470332 -1.296145
v 0.225757 0.370332 -1.296145
v 0.225757 0.470332 -1.296145
v 0.525757 0.370332 -1.296145
v 0.525757 0.470332 -1.296145
v 0.625757 0.170332 -1.296145
v 0.625757 0.270332 -1.296145
v 0.625757 0.470332 -1.296145
v 0.625757 0.570332 -1.296145
v 0.725757 0.270332 -1.296145
v 0.725757 0.470332 -1.296145
v -0.874243 -0.029667 1.203855
v -0.774243 -0.029667 1.203855
v 0.725757 -0.029667 1.203855
v 0.825757 -0.029667 1.203855
v -0.874243 -0.029667 0.703855
v -0.774243 -0.029667 0.703855
v 0.725757 -0.029667 0.703855
v 0.825757 -0.029667 0.703855
v -0.874243 -0.029668 -0.396145
v -0.774243 -0.029668 -0.396145
v 0.725757 -0.029668 -0.396145
v 0.825757 -0.029668 -0.396145
v -0.874243 -0.029668 -0.896145
v -0.774243 -0.029668 -0.896145
v 0.725757 -0.029668 -0.896145
v 0.825757 -0.029668 -0.896145
v -0.774243 0.170333 1.603855
v 0.725757 0.170333 1.603855
v -0.774243 0.170333 1.503855
v -0.474243 0.170333 1.503855
v 0.425756 0.170333 1.503855
v 0.725757 0.170333 1.503855
v -0.474243 0.170333 1.403855
v -0.374243 0.170333 1.403855
v 0.325757 0.170333 1.403855
v 0.425756 0.170333 1.403855
v -0.774243 0.170333 1.303855
v -0.674243 0.170333 1.303855
v -0.374243 0.170333 1.303855
v -0.274243 0.170333 1.303855
v 0.225757 0.170333 1.303855
v 0.325757 0.170333 1.303855
v 0.625757 0.170333 1.303855
v 0.725757 0.170333 1.303855
v -0.774243 0.170333 1.203855
v -0.674243 0.170333 1.203855
v -0.274243 0.170333 1.203855
v 0.225757 0.170333 1.203855
v 0.625757 0.170333 1.203855
v 0.725757 0.170333 1.203855
v -0.674243 0.170333 1.103855
v -0.074244 0.170333 1.103855
v 0.025757 0.170333 1.103855
v 0.625757 0.170333 1.103855
v -0.774243 0.170333 1.003855
v -0.674243 0.170333 1.003855
v -0.474243 0.170333 1.003855
v -0.274243 0.170333 1.003855
v 0.225757 0.170333 1.003855
v 0.525757 0.170333 1.003855
v 0.625757 0.170333 1.003855
v 0.725757 0.170333 1.003855
v 0.225757 0.170333 0.903855
v 0.425756 0.170333 0.903855
v 0.425756 0.170333 0.803855
v 0.525757 0.170333 0.803855
v -0.774243 0.170333 0.703855
v -0.474243 0.170333 0.703855
v -0.274243 0.170333 0.703855
v 0.025757 0.170333 0.703855
v 0.325757 0.170333 0.703855
v 0.725757 0.170333 0.703855
v -0.474243 0.170333 0.603855
v -0.274243 0.170333 0.603855
v 0.025757 0.170333 0.603855
v 0.125757 0.170333 0.603855
v -0.474243 0.170332 0.303855
v -0.274243 0.170332 0.303855
v -0.074244 0.170332 0.303855
v -0.474243 0.170332 0.203855
v -0.374243 0.170332 0.203855
v -0.174243 0.170332 0.103855
v -0.074244 0.170332 0.103855
v 0.125757 0.170332 0.103855
v 0.225757 0.170332 0.103855
v 0.225757 0.170332 0.003855
v 0.325757 0.170332 0.003855
v -0.474243 0.170332 -0.196145
v -0.374243 0.170332 -0.196145
v -0.174243 0.170332 -0.196145
v -0.074244 0.170332 -0.196145
v 0.125757 0.170332 -0.196145
v 0.325757 0.170332 -0.196145
v -0.474243 0.170332 -0.296145
v -0.374243 0.170332 -0.296145
v -0.274243 0.170332 -0.296145
v -0.074244 0.170332 -0.296145
v -0.774243 0.170332 -0.396145
v -0.374243 0.170332 -0.396145
v -0.274243 0.170332 -0.396145
v 0.725757 0.170332 -0.396145
v -0.474243 0.170332 -0.496145
v -0.274243 0.170332 -0.496145
v 0.125757 0.170332 -0.496145
v 0.325757 0.170332 -0.496145
v -0.774243 0.170332 -0.596145
v -0.674243 0.170332 -0.596145
v 0.625757 0.170332 -0.596145
v 0.725757 0.170332 -0.596145
v -0.674243 0.170332 -0.696145
v -0.074244 0.170332 -0.696145
v 0.025757 0.170332 -0.696145
v 0.625757 0.170332 -0.696145
v -0.674243 0.170332 -0.796145
v -0.074244 0.170332 -0.796145
v 0.025757 0.170332 -0.796145
v 0.625757 0.170332 -0.796145
v -0.774243 0.170332 -0.896145
v -0.674243 0.170332 -0.896145
v -0.374243 0.170332 -0.896145
v -0.074244 0.170332 -0.896145
v 0.025757 0.170332 -0.896145
v 0.325757 0.170332 -0.896145
v 0.625757 0.170332 -0.896145
v 0.725757 0.170332 -0.896145
v -0.774243 0.170332 -1.196145
v -0.674243 0.170332 -1.196145
v -0.374243 0.170332 -1.196145
v 0.325757 0.170332 -1.196145
v 0.625757 0.170332 -1.196145
v 0.725757 0.170332 -1.196145
v -0.674243 0.170332 -1.296145
v 0.625757 0.170332 -1.296145
v -0.874243 0.270333 1.303855
v -0.774243 0.270333 1.303855
v 0.725757 0.270333 1.303855
v 0.825757 0.270333 1.303855
v -0.874243 0.270333 1.203855
v -0.774243 0.270333 1.203855
v 0.725757 0.270333 1.203855
v 0.825757 0.270333 1.203855
v -0.874243 0.270333 0.703855
v -0.774243 0.270333 0.703855
v 0.725757 0.270333 0.703855
v 0.825757 0.270333 0.703855
v -0.874243 0.270333 0.603855
v -0.774243 0.270333 0.603855
v 0.725757 0.270333 0.603855
v 0.825757 0.270333 0.603855
v -0.874243 0.270332 -0.296145
v -0.774243 0.270332 -0.296145
v 0.725757 0.270332 -0.296145
v 0.825757 0.270332 -0.296145
v -0.874243 0.270332 -0.396145
v -0.774243 0.270332 -0.396145
v 0.725757 0.270332 -0.396145
v 0.825757 0.270332 -0.396145
v -0.874243 0.270332 -0.896145
v -0.774243 0.270332 -0.896145
v 0.725757 0.270332 -0.896145
v 0.825757 0.270332 -0.896145
v -0.874243 0.270332 -0.996145
v -0.774243 0.270332 -0.996145
v 0.725757 0.270332 -0.996145
v 0.825757 0.270332 -0.996145
v -0.774243 0.270332 -1.196145
v -0.674243 0.270332 -1.196145
v 0.625757 0.270332 -1.196145
v 0.725757 0.270332 -1.196145
v -0.774243 0.270332 -1.296145
v -0.674243 0.270332 -1.296145
v 0.625757 0.270332 -1.296145
v 0.725757 0.270332 -1.296145
v -0.674243 0.770333 0.403855
v -0.574244 0.770333 0.403855
v 0.525757 0.770333 0.403855
v 0.625757 0.770333 0.403855
v -0.674243 0.770333 0.303855
v -0.574244 0.770333 0.303855
v 0.525757 0.770333 0.303855
v 0.625757 0.770333 0.303855
v 0.525757 0.770333 0.203855
v 0.625757 0.770333 0.203855
v -0.674243 0.770333 0.003855
v -0.574244 0.770333 0.003855
v -0.874243 0.770332 -0.096145
v -0.774243 0.770332 -0.096145
v 0.725757 0.770332 -0.096145
v 0.825757 0.770332 -0.096145
v -0.874243 0.770332 -0.196145
v -0.774243 0.770332 -0.196145
v 0.725757 0.770332 -0.196145
v 0.825757 0.770332 -0.196145
v -0.874243 0.770332 -0.696145
v -0.774243 0.770332 -0.696145
v 0.725757 0.770332 -0.696145
v 0.825757 0.770332 -0.696145
v -0.874243 0.770332 -0.796145
v -0.774243 0.770332 -0.796145
v 0.725757 0.770332 -0.796145
v 0.825757 0.770332 -0.796145
v 0.525757 0.770332 -0.896145
v 0.625757 0.770332 -0.896145
v -0.574244 0.770332 -0.996145
v 0.625757 0.770332 -0.996145
v -0.674243 0.770332 -1.096145
v 0.625757 0.770332 -1.096145
v -0.874243 0.970333 0.303855
v -0.774243 0.970333 0.303855
v 0.725757 0.970333 0.303855
v 0.825757 0.970333 0.303855
v -0.874243 0.970333 0.203855
v -0.774243 0.970333 0.203855
v 0.725757 0.970333 0.203855
v 0.825757 0.970333 0.203855
v -0.574244 1.270333 0.403855
v -0.474243 1.270333 0.403855
v -0.274243 1.270333 0.403855
v 0.225757 1.270333 0.403855
v 0.425756 1.270333 0.403855
v 0.525757 1.270333 0.403855
v -0.574244 1.270332 0.303855
v -0.474243 1.270332 0.303855
v -0.274243 1.270332 0.303855
v 0.225757 1.270332 0.303855
v 0.425756 1.270332 0.303855
v 0.525757 1.270332 0.303855
v -0.774243 1.270332 0.203855
v -0.674243 1.270332 0.203855
v -0.574244 1.270332 0.203855
v -0.474243 1.270332 0.203855
v -0.274243 1.270332 0.203855
v 0.225757 1.270332 0.203855
v 0.425756 1.270332 0.203855
v 0.525757 1.270332 0.203855
v 0.625757 1.270332 0.203855
v 0.725757 1.270332 0.203855
v -0.774243 1.270332 -0.196145
v -0.674243 1.270332 -0.196145
v 0.625757 1.270332 -0.196145
v 0.725757 1.270332 -0.196145
v -0.774243 1.270332 -0.396145
v -0.674243 1.270332 -0.396145
v 0.625757 1.270332 -0.396145
v 0.725757 1.270332 -0.396145
v -0.774243 1.270332 -0.796145
v -0.674243 1.270332 -0.796145
v 0.625757 1.270332 -0.796145
v 0.725757 1.270332 -0.796145
v 0.525757 1.270332 -0.896145
v 0.625757 1.270332 -0.896145
v -0.574244 1.270332 -0.996145
v -0.474243 1.270332 -0.996145
v -0.274243 1.270332 -0.996145
v 0.225757 1.270332 -0.996145
v 0.425756 1.270332 -0.996145
v 0.625757 1.270332 -0.996145
v -0.474243 1.270332 -1.096145
v -0.274243 1.270332 -1.096145
v 0.225757 1.270332 -1.096145
v 0.425756 1.270332 -1.096145
v -0.474243 1.270332 -1.196145
v -0.274243 1.270332 -1.196145
v 0.225757 1.270332 -1.196145
v 0.425756 1.270332 -1.196145
v -0.774243 0.370333 1.603855
v -0.674243 0.370333 1.603855
v 0.625757 0.370333 1.603855
v 0.725757 0.370333 1.603855
v -0.774243 0.370333 1.503855
v -0.674243 0.370333 1.503855
v 0.625757 0.370333 1.503855
v 0.725757 0.370333 1.503855
v -0.674243 0.470333 1.603855
v 0.625757 0.470333 1.603855
v -0.674243 0.470333 1.503855
v -0.474243 0.470333 1.503855
v 0.425756 0.470333 1.503855
v 0.625757 0.470333 1.503855
v -0.674243 0.470333 0.403855
v 0.625757 0.470333 0.403855
v -0.674243 0.470333 0.303855
v 0.625757 0.470333 0.303855
v 0.425756 0.470333 0.103855
v 0.525757 0.470333 0.103855
v -0.674243 0.470332 0.003855
v 0.425756 0.470332 0.003855
v 0.525757 0.470332 0.003855
v 0.625757 0.470332 0.003855
v -0.674243 0.470332 -1.096145
v 0.625757 0.470332 -1.096145
v -0.774243 0.470332 -1.196145
v -0.674243 0.470332 -1.196145
v 0.625757 0.470332 -1.196145
v 0.725757 0.470332 -1.196145
v -0.774243 0.470332 -1.296145
v -0.674243 0.470332 -1.296145
v 0.625757 0.470332 -1.296145
v 0.725757 0.470332 -1.296145
v -0.874243 0.570333 1.303855
v -0.774243 0.570333 1.303855
v 0.725757 0.570333 1.303855
v 0.825757 0.570333 1.303855
v -0.874243 0.570333 0.603855
v -0.774243 0.570333 0.603855
v 0.725757 0.570333 0.603855
v 0.825757 0.570333 0.603855
v 0.525757 0.570333 0.103855
v 0.625757 0.570333 0.103855
v 0.525757 0.570333 0.003855
v 0.625757 0.570333 0.003855
v -0.874243 0.570332 -0.296145
v -0.774243 0.570332 -0.296145
v 0.725757 0.570332 -0.296145
v 0.825757 0.570332 -0.296145
v -0.874243 0.570332 -0.996145
v -0.774243 0.570332 -0.996145
v 0.725757 0.570332 -0.996145
v 0.825757 0.570332 -0.996145
v -0.774243 0.570332 -1.096145
v -0.674243 0.570332 -1.096145
v 0.625757 0.570332 -1.096145
v 0.725757 0.570332 -1.096145
v -0.774243 0.570332 -1.196145
v -0.674243 0.570332 -1.196145
v 0.625757 0.570332 -1.196145
v 0.725757 0.570332 -1.196145
v -0.674243 0.570332 -1.296145
v 0.625757 0.570332 -1.296145
v -0.774243 0.670333 1.503855
v -0.674243 0.670333 1.503855
v 0.625757 0.670333 1.503855
v 0.725757 0.670333 1.503855
v -0.774243 0.670333 1.403855
v -0.674243 0.670333 1.403855
v 0.625757 0.670333 1.403855
v 0.725757 0.670333 1.403855
v 0.425756 0.670332 0.203855
v 0.625757 0.670332 0.203855
v 0.425756 0.670332 0.103855
v 0.625757 0.670332 0.103855
v -0.674243 0.770333 1.503855
v 0.625757 0.770333 1.503855
v -0.774243 0.770333 1.403855
v -0.674243 0.770333 1.403855
v -0.474243 0.770333 1.403855
v -0.274243 0.770333 1.403855
v 0.225757 0.770333 1.403855
v 0.425756 0.770333 1.403855
v 0.625757 0.770333 1.403855
v 0.725757 0.770333 1.403855
v -0.674243 0.770333 0.603855
v -0.474243 0.770333 0.603855
v -0.274243 0.770333 0.603855
v 0.225757 0.770333 0.603855
v 0.425756 0.770333 0.603855
v 0.625757 0.770333 0.603855
v -0.774243 0.770333 0.503855
v -0.674243 0.770333 0.503855
v 0.625757 0.770333 0.503855
v 0.725757 0.770333 0.503855
v -0.574244 0.770333 0.203855
v 0.425756 0.770333 0.203855
v -0.574244 0.770333 0.003855
v 0.425756 0.770333 0.003855
v -0.674243 0.870332 0.603855
v 0.625757 0.870332 0.603855
v -0.774243 0.870332 0.503855
v -0.674243 0.870332 0.503855
v 0.625757 0.870332 0.503855
v 0.725757 0.870332 0.503855
v -0.774243 0.870332 0.403855
v -0.574244 0.870332 0.403855
v 0.525757 0.870332 0.403855
v 0.725757 0.870332 0.403855
v -0.574244 0.870332 0.303855
v 0.525757 0.870332 0.303855
v -0.774243 0.870332 0.203855
v -0.674243 0.870332 0.203855
v 0.625757 0.870332 0.203855
v 0.725757 0.870332 0.203855
v -0.774243 0.870332 -0.096145
v -0.674243 0.870332 -0.096145
v 0.625757 0.870332 -0.096145
v 0.725757 0.870332 -0.096145
v -0.774243 0.870332 -0.396145
v -0.674243 0.870332 -0.396145
v 0.625757 0.870332 -0.396145
v 0.725757 0.870332 -0.396145
v -0.774243 0.870332 -0.696145
v -0.674243 0.870332 -0.696145
v 0.725757 0.870332 -0.696145
v 0.625757 0.870332 -0.796145
v 0.725757 0.870332 -0.796145
v -0.474243 0.870332 -1.096145
v 0.425756 0.870332 -1.096145
v -0.474243 0.870332 -1.196145
v 0.425756 0.870332 -1.196145
v -0.874243 0.970333 -0.096145
v -0.674243 0.970333 -0.096145
v 0.625757 0.970333 -0.096145
v 0.825757 0.970333 -0.096145
v -0.874243 0.970333 -0.196145
v -0.774243 0.970333 -0.196145
v -0.674243 0.970333 -0.196145
v 0.625757 0.970333 -0.196145
v 0.725757 0.970333 -0.196145
v 0.825757 0.970333 -0.196145
v -0.874243 0.970332 -0.696145
v -0.674243 0.970332 -0.696145
v 0.725757 0.970332 -0.696145
v 0.825757 0.970332 -0.696145
v -0.874243 0.970332 -0.796145
v -0.774243 0.970332 -0.796145
v -0.674243 0.970332 -0.796145
v 0.725757 0.970332 -0.796145
v 0.825757 0.970332 -0.796145
v -0.874243 1.170333 0.303855
v -0.774243 1.170333 0.303855
v 0.725757 1.170333 0.303855
v 0.825757 1.170333 0.303855
v -0.874243 1.170333 0.203855
v -0.774243 1.170333 0.203855
v 0.725757 1.170333 0.203855
v 0.825757 1.170333 0.203855
v -0.774243 1.370332 0.403855
v -0.474243 1.370332 0.403855
v -0.274243 1.370332 0.403855
v 0.225757 1.370332 0.403855
v 0.425756 1.370332 0.403855
v 0.725757 1.370332 0.403855
v -0.574244 1.370332 0.003855
v -0.474243 1.370332 0.003855
v -0.274243 1.370332 0.003855
v -0.174243 1.370332 0.003855
v 0.125757 1.370332 0.003855
v 0.225757 1.370332 0.003855
v 0.425756 1.370332 0.003855
v 0.525757 1.370332 0.003855
v -0.574244 1.370332 -0.296145
v -0.474243 1.370332 -0.296145
v -0.274243 1.370332 -0.296145
v -0.174243 1.370332 -0.296145
v 0.125757 1.370332 -0.296145
v 0.225757 1.370332 -0.296145
v 0.425756 1.370332 -0.296145
v 0.525757 1.370332 -0.296145
v -0.774243 1.370332 -1.096145
v -0.674243 1.370332 -1.096145
v 0.625757 1.370332 -1.096145
v 0.725757 1.370332 -1.096145
v -0.674243 1.370332 -1.196145
v -0.474243 1.370332 -1.196145
v -0.274243 1.370332 -1.196145
v 0.225757 1.370332 -1.196145
v 0.425756 1.370332 -1.196145
v 0.625757 1.370332 -1.196145
v -0.574244 1.470333 0.003855
v -0.174243 1.470333 0.003855
v 0.125757 1.470333 0.003855
v 0.525757 1.470333 0.003855
v -0.574244 1.470333 -0.296145
v -0.174243 1.470333 -0.296145
v 0.125757 1.470333 -0.296145
v 0.525757 1.470333 -0.296145
vn -1.0000 -0.0000 -0.0000
vn -1.0000 0.0001 -0.0000
vn 1.0000 -0.0000 -0.0000
vn 1.0000 -0.0001 -0.0000
vn -0.0000 -0.0000 1.0000
vn -0.0000 -0.0000 -1.0000
vn -0.0000 -1.0000 -0.0000
vn -0.0000 1.0000 -0.0000
vt 0.912109 0.500000
vt 0.943359 0.500000
vt 0.689453 0.500000
vt 0.978516 0.500000
vt 0.908203 0.500000
vt 0.970703 0.500000
vt 0.306641 0.500000
vt 0.916016 0.500000
vt 0.876953 0.500000
vt 0.697266 0.500000
vt 0.705078 0.500000
vt 0.974609 0.500000
vt 0.845703 0.500000
vt 0.693359 0.500000
vt 0.701172 0.500000
vt 0.939453 0.500000
vt 0.751953 0.500000
s 1
usemtl palette
f 5/1/1 2/1/1 1/1/1
f 6/1/1 2/1/1 5/1/1
f 7/1/1 4/1/1 3/1/1
f 8/1/1 4/1/1 7/1/1
f 10/1/1 5/1/1 1/1/1
f 11/2/1 6/2/1 5/2/1
f 11/1/1 5/1/1 10/1/1
f 12/1/1 2/1/1 6/1/1
f 12/2/1 6/2/1 11/2/1
f 13/1/1 2/1/1 12/1/1
f 16/1/1 7/1/1 3/1/1
f 17/2/1 8/2/1 7/2/1
f 17/1/1 7/1/1 16/1/1
f 18/1/1 4/1/1 8/1/1
f 18/2/1 8/2/1 17/2/1
f 19/1/1 4/1/1 18/1/1
f 21/1/1 11/1/1 10/1/1
f 21/3/1 10/3/1 9/3/1
f 21/1/1 12/1/1 11/1/1
f 21/1/1 13/1/1 12/1/1
f 22/3/1 14/3/1 13/3/1
f 22/1/1 13/1/1 21/1/1
f 23/1/1 17/1/1 16/1/1
f 23/1/1 19/1/1 18/1/1
f 23/3/1 16/3/1 15/3/1
f 23/1/1 18/1/1 17/1/1
f 24/3/1 20/3/1 19/3/1
f 24/1/1 19/1/1 23/1/1
f 25/3/1 22/3/1 21/3/1
f 25/3/1 21/3/1 9/3/1
f 26/3/1 14/3/1 22/3/1
f 26/3/1 22/3/1 25/3/1
f 27/3/1 23/3/1 15/3/1
f 27/3/1 24/3/1 23/3/1
f 28/3/1 20/3/1 24/3/1
f 28/3/1 24/3/1 27/3/1
f 35/4/1 30/4/1 29/4/1
f 36/4/1 30/4/1 35/4/1
f 37/4/1 32/4/1 31/4/1
f 38/4/1 32/4/1 37/4/1
f 39/5/1 34/5/1 33/5/1
f 40/5/1 34/5/1 39/5/1
f 49/6/1 42/6/1 41/6/1
f 49/7/1 43/7/1 42/7/1
f 50/8/1 44/8/1 43/8/1
f 50/7/1 43/7/1 49/7/1
f 51/8/1 44/8/1 50/8/1
f 52/7/1 46/7/1 45/7/1
f 53/7/1 46/7/1 52/7/1
f 54/7/1 46/7/1 53/7/1
f 55/7/1 46/7/1 54/7/1
f 56/7/1 48/7/1 47/7/1
f 57/7/1 48/7/1 56/7/1
f 58/7/1 48/7/1 57/7/1
f 59/7/1 48/7/1 58/7/1
f 61/6/1 49/6/1 41/6/1
f 62/3/1 50/3/1 49/3/1
f 62/6/1 49/6/1 61/6/1
f 63/6/1 60/6/1 59/6/1
f 63/6/1 59/6/1 58/6/1
f 64/6/1 60/6/1 63/6/1
f 65/3/1 50/3/1 62/3/1
f 66/3/1 54/3/1 53/3/1
f 67/3/1 54/3/1 66/3/1
f 68/3/1 58/3/1 57/3/1
f 69/6/1 63/6/1 58/6/1
f 69/3/1 58/3/1 68/3/1
f 70/6/1 63/6/1 69/6/1
f 71/3/1 65/3/1 62/3/1
f 71/3/1 67/3/1 66/3/1
f 71/3/1 69/3/1 68/3/1
f 71/3/1 68/3/1 67/3/1
f 71/3/1 66/3/1 65/3/1
f 72/3/2 69/3/1 71/3/1
f 73/3/1 69/3/1 72/3/2
f 74/3/1 69/3/1 73/3/1
f 75/3/1 69/3/1 74/3/1
f 76/3/1 69/3/1 75/3/1
f 77/3/1 69/3/1 76/3/1
f 78/3/1 69/3/1 77/3/1
f 79/3/1 75/3/1 74/3/1
f 80/3/1 75/3/1 79/3/1
f 81/3/1 75/3/1 80/3/1
f 82/3/1 75/3/1 81/3/1
f 83/3/1 77/3/1 76/3/1
f 84/3/1 77/3/1 83/3/1
f 85/3/1 81/3/1 80/3/1
f 86/3/1 81/3/1 85/3/1
f 87/3/1 83/3/1 76/3/1
f 88/3/1 69/3/1 78/3/1
f 89/3/1 85/3/1 80/3/1
f 91/3/1 90/3/1 89/3/1
f 92/3/1 83/3/1 87/3/1
f 93/3/1 83/3/1 92/3/1
f 94/3/1 69/3/1 88/3/1
f 95/3/1 91/3/1 89/3/1
f 95/3/1 94/3/1 93/3/1
f 95/3/1 93/3/1 92/3/1
f 95/3/1 89/3/1 80/3/1
f 95/3/1 92/3/1 91/3/1
f 96/3/1 69/3/1 94/3/1
f 96/3/1 94/3/1 95/3/1
f 99/7/1 98/7/1 97/7/1
f 100/7/1 98/7/1 99/7/1
f 103/6/1 102/6/1 101/6/1
f 104/6/1 102/6/1 103/6/1
f 108/6/1 106/6/1 105/6/1
f 109/6/1 106/6/1 108/6/1
f 112/3/1 111/3/1 110/3/1
f 113/3/1 111/3/1 112/3/1
f 116/3/1 115/3/1 114/3/1
f 117/3/1 115/3/1 116/3/1
f 122/9/1 119/9/1 118/9/1
f 124/9/1 121/9/1 120/9/1
f 126/9/1 123/9/1 122/9/1
f 126/9/1 122/9/1 118/9/1
f 127/9/1 123/9/1 126/9/1
f 128/9/1 125/9/1 124/9/1
f 128/9/1 124/9/1 120/9/1
f 129/9/1 125/9/1 128/9/1
f 130/3/1 108/3/1 107/3/1
f 131/3/1 108/3/1 130/3/1
f 134/10/1 133/10/1 132/10/1
f 135/10/1 133/10/1 134/10/1
f 138/3/1 137/3/1 136/3/1
f 139/3/1 137/3/1 138/3/1
f 142/9/1 141/9/1 140/9/1
f 143/9/1 141/9/1 142/9/1
f 148/3/1 147/3/1 146/3/1
f 149/3/1 147/3/1 148/3/1
f 150/9/1 145/9/1 144/9/1
f 151/9/1 145/9/1 150/9/1
f 157/3/1 155/3/1 154/3/1
f 158/3/1 155/3/1 157/3/1
f 159/3/1 153/3/1 152/3/1
f 161/3/1 157/3/1 156/3/1
f 161/3/1 158/3/1 157/3/1
f 162/3/1 153/3/1 159/3/1
f 163/3/1 153/3/1 162/3/1
f 164/3/1 161/3/1 160/3/1
f 165/3/1 158/3/1 161/3/1
f 165/3/1 161/3/1 164/3/1
f 166/3/1 158/3/1 165/3/1
f 167/3/1 158/3/1 166/3/1
f 168/3/1 166/3/1 165/3/1
f 169/3/1 166/3/1 168/3/1
f 174/1/1 171/1/1 170/1/1
f 175/1/1 171/1/1 174/1/1
f 176/1/1 171/1/1 175/1/1
f 177/1/1 173/1/1 172/1/1
f 178/1/1 173/1/1 177/1/1
f 179/1/1 173/1/1 178/1/1
f 182/4/1 181/4/1 180/4/1
f 183/4/1 181/4/1 182/4/1
f 184/1/3 185/1/3 188/1/3
f 188/1/3 185/1/3 189/1/3
f 189/1/3 185/1/3 190/1/3
f 186/1/3 187/1/3 191/1/3
f 191/1/3 187/1/3 192/1/3
f 192/1/3 187/1/3 193/1/3
f 196/3/3 197/3/3 198/3/3
f 194/3/3 195/3/3 199/3/3
f 199/3/3 195/3/3 200/3/3
f 200/3/3 195/3/3 201/3/3
f 196/3/3 198/3/3 202/3/3
f 202/3/3 198/3/3 203/3/3
f 207/3/3 208/3/3 209/3/3
f 209/3/3 208/3/3 210/3/3
f 204/9/3 205/9/3 211/9/3
f 205/9/3 206/9/3 211/9/3
f 211/9/3 206/9/3 212/9/3
f 213/3/3 214/3/3 215/3/3
f 215/3/3 214/3/3 216/3/3
f 217/9/3 218/9/3 220/9/3
f 219/9/3 220/9/3 221/9/3
f 220/9/3 218/9/3 222/9/3
f 221/9/3 220/9/3 222/9/3
f 223/11/3 224/11/3 225/11/3
f 225/11/3 224/11/3 226/11/3
f 227/7/3 228/7/3 229/7/3
f 229/7/3 228/7/3 230/7/3
f 231/6/3 232/6/3 233/6/3
f 233/6/3 232/6/3 234/6/3
f 235/6/3 236/6/3 238/6/3
f 238/6/3 236/6/3 239/6/3
f 240/3/3 241/3/3 242/3/3
f 242/3/3 241/3/3 243/3/3
f 244/3/3 245/3/3 246/3/3
f 246/3/3 245/3/3 247/3/3
f 248/9/3 249/9/3 252/9/3
f 248/9/3 252/9/3 254/9/3
f 252/9/3 253/9/3 254/9/3
f 254/9/3 253/9/3 255/9/3
f 250/9/3 251/9/3 256/9/3
f 256/9/3 251/9/3 257/9/3
f 237/3/3 238/3/3 258/3/3
f 258/3/3 238/3/3 259/3/3
f 260/6/3 261/6/3 268/6/3
f 261/7/3 262/7/3 268/7/3
f 262/8/3 263/8/3 269/8/3
f 268/7/3 262/7/3 269/7/3
f 269/8/3 263/8/3 270/8/3
f 264/7/3 265/7/3 271/7/3
f 271/7/3 265/7/3 272/7/3
f 272/7/3 265/7/3 273/7/3
f 273/7/3 265/7/3 274/7/3
f 266/7/3 267/7/3 275/7/3
f 275/7/3 267/7/3 276/7/3
f 276/7/3 267/7/3 277/7/3
f 260/6/3 268/6/3 279/6/3
f 268/3/3 269/3/3 280/3/3
f 279/6/3 268/6/3 280/6/3
f 277/6/3 278/6/3 281/6/3
f 276/6/3 277/6/3 281/6/3
f 281/6/3 278/6/3 282/6/3
f 282/6/3 278/6/3 283/6/3
f 283/6/3 278/6/3 284/6/3
f 280/3/3 269/3/3 285/3/3
f 272/3/3 273/3/3 286/3/3
f 286/3/3 273/3/3 287/3/3
f 281/3/3 282/3/3 288/3/4
f 282/6/3 283/6/3 289/6/3
f 288/3/4 282/3/3 289/3/3
f 289/6/3 283/6/3 290/6/3
f 280/3/3 285/3/3 291/3/3
f 286/3/3 287/3/3 291/3/3
f 287/3/3 288/3/4 291/3/3
f 288/3/4 289/3/3 291/3/3
f 285/3/3 286/3/3 291/3/3
f 291/3/3 289/3/3 292/3/3
f 292/3/3 289/3/3 293/3/3
f 293/3/3 289/3/3 294/3/3
f 294/3/3 289/3/3 295/3/3
f 295/3/3 289/3/3 296/3/3
f 296/3/3 289/3/3 297/3/3
f 297/3/3 289/3/3 298/3/3
f 294/3/3 295/3/3 299/3/3
f 299/3/3 295/3/3 300/3/3
f 300/3/3 295/3/3 301/3/3
f 301/3/3 295/3/3 302/3/3
f 296/3/3 297/3/3 303/3/3
f 303/3/3 297/3/3 304/3/3
f 300/3/3 301/3/3 305/3/3
f 305/3/3 301/3/3 306/3/3
f 296/3/3 303/3/3 307/3/3
f 298/3/3 289/3/3 308/3/3
f 300/3/3 305/3/3 309/3/3
f 309/3/3 310/3/3 311/3/3
f 307/3/3 303/3/3 312/3/3
f 312/3/3 303/3/3 313/3/3
f 308/3/3 289/3/3 314/3/3
f 309/3/3 311/3/3 315/3/3
f 313/3/3 314/3/3 315/3/3
f 312/3/3 313/3/3 315/3/3
f 300/3/3 309/3/3 315/3/3
f 311/3/3 312/3/3 315/3/3
f 314/3/3 289/3/3 316/3/3
f 315/3/3 314/3/3 316/3/3
f 317/1/3 318/1/3 321/1/3
f 321/1/3 318/1/3 322/1/3
f 319/1/3 320/1/3 323/1/3
f 323/1/3 320/1/3 324/1/3
f 317/1/3 321/1/3 326/1/3
f 321/2/3 322/2/3 327/2/3
f 326/1/3 321/1/3 327/1/3
f 322/1/3 318/1/3 328/1/3
f 327/2/3 322/2/3 328/2/3
f 328/1/3 318/1/3 329/1/3
f 319/1/3 323/1/3 332/1/3
f 323/2/3 324/2/3 333/2/3
f 332/1/3 323/1/3 333/1/3
f 324/1/3 320/1/3 334/1/3
f 333/2/3 324/2/3 334/2/3
f 334/1/3 320/1/3 335/1/3
f 326/1/3 327/1/3 337/1/3
f 325/3/3 326/3/3 337/3/3
f 327/1/3 328/1/3 337/1/3
f 328/1/3 329/1/3 337/1/3
f 329/3/3 330/3/3 338/3/3
f 337/1/3 329/1/3 338/1/3
f 332/1/3 333/1/3 339/1/3
f 334/1/3 335/1/3 339/1/3
f 331/3/3 332/3/3 339/3/3
f 333/1/3 334/1/3 339/1/3
f 335/3/3 336/3/3 340/3/3
f 339/1/3 335/1/3 340/1/3
f 337/3/3 338/3/3 341/3/3
f 325/3/3 337/3/3 341/3/3
f 338/3/3 330/3/3 342/3/3
f 341/3/3 338/3/3 342/3/3
f 331/3/3 339/3/3 343/3/3
f 339/3/3 340/3/3 343/3/3
f 340/3/3 336/3/3 344/3/3
f 343/3/3 340/3/3 344/3/3
f 345/4/3 346/4/3 351/4/3
f 351/4/3 346/4/3 352/4/3
f 347/4/3 348/4/3 353/4/3
f 353/4/3 348/4/3 354/4/3
f 349/5/3 350/5/3 355/5/3
f 355/5/3 350/5/3 356/5/3
f 359/6/5 358/6/5 357/6/5
f 361/6/5 359/6/5 357/6/5
f 361/6/5 360/6/5 359/6/5
f 362/6/5 360/6/5 361/6/5
f 363/6/5 361/6/5 357/6/5
f 363/12/5 362/12/5 361/12/5
f 364/6/5 360/6/5 362/6/5
f 364/12/5 362/12/5 363/12/5
f 365/6/5 363/6/5 357/6/5
f 365/6/5 364/6/5 363/6/5
f 366/6/5 360/6/5 364/6/5
f 366/6/5 364/6/5 365/6/5
f 367/6/5 365/6/5 357/6/5
f 367/12/5 366/12/5 365/12/5
f 368/6/5 360/6/5 366/6/5
f 368/12/5 366/12/5 367/12/5
f 369/6/5 367/6/5 357/6/5
f 369/6/5 368/6/5 367/6/5
f 370/6/5 360/6/5 368/6/5
f 370/6/5 368/6/5 369/6/5
f 371/6/5 369/6/5 357/6/5
f 371/12/5 370/12/5 369/12/5
f 372/6/5 360/6/5 370/6/5
f 372/12/5 370/12/5 371/12/5
f 373/6/5 371/6/5 357/6/5
f 373/6/5 372/6/5 371/6/5
f 374/6/5 360/6/5 372/6/5
f 374/6/5 372/6/5 373/6/5
f 375/6/5 373/6/5 357/6/5
f 375/12/5 374/12/5 373/12/5
f 376/6/5 360/6/5 374/6/5
f 376/12/5 374/12/5 375/12/5
f 377/6/5 375/6/5 357/6/5
f 377/6/5 376/6/5 375/6/5
f 378/6/5 360/6/5 376/6/5
f 378/6/5 376/6/5 377/6/5
f 379/6/5 377/6/5 357/6/5
f 379/12/5 378/12/5 377/12/5
f 380/6/5 360/6/5 378/6/5
f 380/12/5 378/12/5 379/12/5
f 381/6/5 379/6/5 357/6/5
f 381/6/5 380/6/5 379/6/5
f 382/6/5 360/6/5 380/6/5
f 382/6/5 380/6/5 381/6/5
f 383/6/5 381/6/5 357/6/5
f 383/12/5 382/12/5 381/12/5
f 384/6/5 360/6/5 382/6/5
f 384/12/5 382/12/5 383/12/5
f 385/6/5 384/6/5 383/6/5
f 385/6/5 360/6/5 384/6/5
f 386/6/5 360/6/5 385/6/5
f 387/6/5 383/6/5 357/6/5
f 387/6/5 385/6/5 383/6/5
f 388/6/5 385/6/5 387/6/5
f 391/3/5 390/3/5 389/3/5
f 392/3/5 390/3/5 391/3/5
f 393/3/5 390/3/5 392/3/5
f 394/3/5 390/3/5 393/3/5
f 396/13/5 393/13/5 392/13/5
f 397/3/5 395/3/5 394/3/5
f 397/13/5 393/13/5 396/13/5
f 397/3/5 394/3/5 393/3/5
f 398/3/5 397/3/5 396/3/5
f 399/3/5 395/3/5 397/3/5
f 399/3/5 397/3/5 398/3/5
f 401/13/5 399/13/5 398/13/5
f 402/3/5 395/3/5 399/3/5
f 402/13/5 399/13/5 401/13/5
f 403/3/5 395/3/5 402/3/5
f 404/3/5 395/3/5 403/3/5
f 405/3/5 401/3/5 400/3/5
f 405/3/5 402/3/5 401/3/5
f 405/3/5 403/3/5 402/3/5
f 406/3/5 403/3/5 405/3/5
f 409/3/5 408/3/5 407/3/5
f 410/3/5 408/3/5 409/3/5
f 413/3/5 412/3/5 411/3/5
f 414/3/5 412/3/5 413/3/5
f 417/3/5 416/3/5 415/3/5
f 418/3/5 416/3/5 417/3/5
f 421/3/5 420/3/5 419/3/5
f 422/3/5 420/3/5 421/3/5
f 425/1/5 424/1/5 423/1/5
f 426/1/5 424/1/5 425/1/5
f 427/1/5 424/1/5 426/1/5
f 431/1/5 429/1/5 428/1/5
f 431/1/5 430/1/5 429/1/5
f 432/1/5 430/1/5 431/1/5
f 435/3/5 434/3/5 433/3/5
f 436/3/5 434/3/5 435/3/5
f 437/3/5 434/3/5 436/3/5
f 438/3/5 434/3/5 437/3/5
f 439/3/5 434/3/5 438/3/5
f 440/3/5 434/3/5 439/3/5
f 443/3/5 442/3/5 441/3/5
f 444/3/5 442/3/5 443/3/5
f 447/3/5 446/3/5 445/3/5
f 448/3/5 446/3/5 447/3/5
f 451/3/5 450/3/5 449/3/5
f 452/3/5 450/3/5 451/3/5
f 453/3/5 450/3/5 452/3/5
f 454/3/5 450/3/5 453/3/5
f 455/14/5 454/14/5 453/14/5
f 456/14/5 454/14/5 455/14/5
f 457/3/5 456/3/5 455/3/5
f 458/3/5 456/3/5 457/3/5
f 459/14/5 458/14/5 457/14/5
f 460/14/5 458/14/5 459/14/5
f 462/3/5 460/3/5 459/3/5
f 463/3/5 462/3/5 461/3/5
f 464/3/5 460/3/5 462/3/5
f 464/3/5 462/3/5 463/3/5
f 467/5/5 466/5/5 465/5/5
f 468/5/5 466/5/5 467/5/5
f 471/9/5 470/9/5 469/9/5
f 474/9/5 473/9/5 472/9/5
f 475/9/5 474/9/5 472/9/5
f 476/9/5 475/9/5 472/9/5
f 477/9/5 476/9/5 472/9/5
f 478/9/5 471/9/5 469/9/5
f 479/9/5 477/9/5 472/9/5
f 480/9/5 477/9/5 479/9/5
f 481/9/5 478/9/5 469/9/5
f 482/9/5 478/9/5 481/9/5
f 485/5/5 484/5/5 483/5/5
f 486/5/5 484/5/5 485/5/5
f 489/10/5 488/10/5 487/10/5
f 490/10/5 488/10/5 489/10/5
f 491/10/5 488/10/5 490/10/5
f 492/10/5 488/10/5 491/10/5
f 493/15/5 492/15/5 491/15/5
f 494/15/5 492/15/5 493/15/5
f 495/11/5 494/11/5 493/11/5
f 496/11/5 494/11/5 495/11/5
f 497/11/5 494/11/5 496/11/5
f 498/11/5 494/11/5 497/11/5
f 501/4/5 500/4/5 499/4/5
f 502/4/5 500/4/5 501/4/5
f 503/4/5 500/4/5 502/4/5
f 504/4/5 500/4/5 503/4/5
f 508/4/5 506/4/5 505/4/5
f 509/4/5 508/4/5 507/4/5
f 510/4/5 506/4/5 508/4/5
f 510/4/5 508/4/5 509/4/5
f 513/3/5 512/3/5 511/3/5
f 514/3/5 512/3/5 513/3/5
f 517/3/5 516/3/5 515/3/5
f 518/3/5 516/3/5 517/3/5
f 521/3/5 520/3/5 519/3/5
f 522/3/5 520/3/5 521/3/5
f 525/3/5 524/3/5 523/3/5
f 526/3/5 524/3/5 525/3/5
f 529/1/5 528/1/5 527/1/5
f 530/1/5 528/1/5 529/1/5
f 531/1/5 528/1/5 530/1/5
f 535/1/5 533/1/5 532/1/5
f 535/1/5 534/1/5 533/1/5
f 536/1/5 534/1/5 535/1/5
f 539/4/5 538/4/5 537/4/5
f 540/4/5 538/4/5 539/4/5
f 541/4/5 538/4/5 540/4/5
f 542/4/5 538/4/5 541/4/5
f 546/4/5 544/4/5 543/4/5
f 546/4/5 545/4/5 544/4/5
f 547/4/5 545/4/5 546/4/5
f 550/3/5 549/3/5 548/3/5
f 551/3/5 549/3/5 550/3/5
f 554/3/5 553/3/5 552/3/5
f 555/3/5 553/3/5 554/3/5
f 556/3/5 553/3/5 555/3/5
f 559/9/5 558/9/5 557/9/5
f 560/9/5 559/9/5 557/9/5
f 561/9/5 560/9/5 557/9/5
f 562/9/5 561/9/5 557/9/5
f 563/9/5 562/9/5 557/9/5
f 564/9/5 562/9/5 563/9/5
f 568/16/5 566/16/5 565/16/5
f 569/3/5 567/3/5 566/3/5
f 569/16/5 566/16/5 568/16/5
f 570/3/5 567/3/5 569/3/5
f 571/1/6 572/1/6 573/1/6
f 573/1/6 572/1/6 574/1/6
f 574/1/6 572/1/6 575/1/6
f 576/1/6 577/1/6 579/1/6
f 577/1/6 578/1/6 579/1/6
f 579/1/6 578/1/6 580/1/6
f 581/3/6 582/3/6 583/3/6
f 583/3/6 582/3/6 584/3/6
f 585/3/6 586/3/6 587/3/6
f 587/3/6 586/3/6 588/3/6
f 590/17/6 591/17/6 592/17/6
f 590/17/6 592/17/6 593/17/6
f 589/16/6 590/16/6 594/16/6
f 590/17/6 593/17/6 595/17/6
f 594/16/6 590/16/6 595/16/6
f 595/17/6 593/17/6 596/17/6
f 597/5/6 598/5/6 600/5/6
f 600/5/6 598/5/6 601/5/6
f 599/3/6 600/3/6 603/3/6
f 601/3/6 602/3/6 603/3/6
f 600/3/6 601/3/6 603/3/6
f 603/3/6 602/3/6 604/3/6
f 605/9/6 606/9/6 607/9/6
f 605/9/6 607/9/6 608/9/6
f 605/9/6 608/9/6 609/9/6
f 605/9/6 609/9/6 611/9/6
f 611/9/6 609/9/6 612/9/6
f 610/9/6 611/9/6 613/9/6
f 611/9/6 612/9/6 613/9/6
f 613/9/6 612/9/6 614/9/6
f 610/9/6 613/9/6 615/9/6
f 615/9/6 613/9/6 616/9/6
f 617/3/6 618/3/6 619/3/6
f 619/3/6 618/3/6 620/3/6
f 620/3/6 618/3/6 621/3/6
f 621/3/6 618/3/6 622/3/6
f 620/5/6 621/5/6 623/5/6
f 623/5/6 621/5/6 624/5/6
f 625/9/6 626/9/6 627/9/6
f 627/9/6 626/9/6 628/9/6
f 628/9/6 626/9/6 629/9/6
f 629/9/6 626/9/6 630/9/6
f 631/9/6 632/9/6 633/9/6
f 631/9/6 633/9/6 634/9/6
f 634/9/6 633/9/6 635/9/6
f 636/9/6 637/9/6 638/9/6
f 638/9/6 637/9/6 639/9/6
f 640/4/6 641/4/6 642/4/6
f 642/4/6 641/4/6 643/4/6
f 644/4/6 645/4/6 646/4/6
f 646/4/6 645/4/6 647/4/6
f 648/10/6 649/10/6 650/10/6
f 650/10/6 649/10/6 651/10/6
f 651/10/6 649/10/6 652/10/6
f 652/10/6 649/10/6 653/10/6
f 652/15/6 653/15/6 654/15/6
f 654/15/6 653/15/6 655/15/6
f 654/11/6 655/11/6 656/11/6
f 656/11/6 655/11/6 657/11/6
f 657/11/6 655/11/6 658/11/6
f 658/11/6 655/11/6 659/11/6
f 660/3/6 661/3/6 662/3/6
f 662/3/6 661/3/6 663/3/6
f 664/3/6 665/3/6 666/3/6
f 666/3/6 665/3/6 667/3/6
f 668/4/6 669/4/6 670/4/6
f 670/4/6 669/4/6 671/4/6
f 672/4/6 673/4/6 674/4/6
f 674/4/6 673/4/6 675/4/6
f 676/1/6 677/1/6 678/1/6
f 678/1/6 677/1/6 679/1/6
f 679/1/6 677/1/6 680/1/6
f 681/9/6 682/9/6 683/9/6
f 683/9/6 682/9/6 684/9/6
f 685/1/6 686/1/6 688/1/6
f 686/1/6 687/1/6 688/1/6
f 688/1/6 687/1/6 689/1/6
f 690/3/6 691/3/6 692/3/6
f 692/3/6 691/3/6 693/3/6
f 694/3/6 695/3/6 697/3/6
f 695/3/6 696/3/6 697/3/6
f 697/3/6 696/3/6 698/3/6
f 699/3/6 700/3/6 701/3/6
f 701/3/6 700/3/6 702/3/6
f 703/9/6 704/9/6 705/9/6
f 703/9/6 705/9/6 706/9/6
f 703/9/6 706/9/6 707/9/6
f 707/9/6 706/9/6 708/9/6
f 709/3/6 710/3/6 711/3/6
f 711/3/6 710/3/6 712/3/6
f 713/7/6 714/7/6 717/7/6
f 717/7/6 714/7/6 718/7/6
f 715/6/6 716/6/6 719/6/6
f 719/6/6 716/6/6 720/6/6
f 720/3/6 721/3/6 722/3/6
f 722/3/6 721/3/6 723/3/6
f 723/3/6 721/3/6 724/3/6
f 723/14/6 724/14/6 725/14/6
f 725/14/6 724/14/6 726/14/6
f 725/3/6 726/3/6 727/3/6
f 727/3/6 726/3/6 728/3/6
f 720/3/6 722/3/6 729/3/6
f 727/14/6 728/14/6 730/14/6
f 730/14/6 728/14/6 731/14/6
f 720/3/6 729/3/6 735/3/6
f 729/3/6 730/3/6 735/3/6
f 730/3/6 731/3/6 735/3/6
f 735/3/6 731/3/6 736/3/6
f 732/7/6 733/7/6 737/7/6
f 737/7/6 733/7/6 738/7/6
f 734/6/6 735/6/6 739/6/6
f 739/6/6 735/6/6 740/6/6
f 741/6/6 742/6/6 744/6/6
f 744/6/6 742/6/6 745/6/6
f 744/6/6 745/6/6 747/6/6
f 745/6/6 746/6/6 747/6/6
f 747/6/6 746/6/6 748/6/6
f 744/6/6 747/6/6 749/6/6
f 747/12/6 748/12/6 749/12/6
f 748/6/6 746/6/6 750/6/6
f 749/12/6 748/12/6 750/12/6
f 744/6/6 749/6/6 751/6/6
f 749/6/6 750/6/6 751/6/6
f 750/6/6 746/6/6 752/6/6
f 751/6/6 750/6/6 752/6/6
f 744/6/6 751/6/6 753/6/6
f 751/12/6 752/12/6 753/12/6
f 752/6/6 746/6/6 754/6/6
f 753/12/6 752/12/6 754/12/6
f 744/6/6 753/6/6 755/6/6
f 753/6/6 754/6/6 755/6/6
f 754/6/6 746/6/6 756/6/6
f 755/6/6 754/6/6 756/6/6
f 744/6/6 755/6/6 757/6/6
f 755/12/6 756/12/6 757/12/6
f 756/6/6 746/6/6 758/6/6
f 757/12/6 756/12/6 758/12/6
f 743/7/6 744/7/6 759/7/6
f 744/6/6 757/6/6 760/6/6
f 759/7/6 744/7/6 760/7/6
f 757/6/6 758/6/6 760/6/6
f 758/6/6 746/6/6 761/6/6
f 760/6/6 758/6/6 761/6/6
f 761/6/6 746/6/6 762/6/6
f 760/6/6 761/6/6 763/6/6
f 763/6/6 761/6/6 764/6/6
f 769/1/7 766/1/7 765/1/7
f 770/1/7 766/1/7 769/1/7
f 771/1/7 768/1/7 767/1/7
f 772/1/7 768/1/7 771/1/7
f 777/1/7 774/1/7 773/1/7
f 778/1/7 774/1/7 777/1/7
f 779/1/7 776/1/7 775/1/7
f 780/1/7 776/1/7 779/1/7
f 783/6/7 782/6/7 781/6/7
f 784/6/7 782/6/7 783/6/7
f 785/6/7 782/6/7 784/6/7
f 786/6/7 782/6/7 785/6/7
f 787/7/7 784/7/7 783/7/7
f 787/8/7 785/8/7 784/8/7
f 788/8/7 785/8/7 787/8/7
f 789/8/7 785/8/7 788/8/7
f 790/7/7 786/7/7 785/7/7
f 790/8/7 785/8/7 789/8/7
f 791/7/7 788/7/7 787/7/7
f 791/7/7 787/7/7 783/7/7
f 792/7/7 788/7/7 791/7/7
f 793/8/7 789/8/7 788/8/7
f 793/7/7 788/7/7 792/7/7
f 794/8/7 789/8/7 793/8/7
f 795/8/7 789/8/7 794/8/7
f 796/7/7 790/7/7 789/7/7
f 796/8/7 789/8/7 795/8/7
f 797/7/7 786/7/7 790/7/7
f 797/7/7 790/7/7 796/7/7
f 798/7/7 786/7/7 797/7/7
f 799/8/7 792/8/7 791/8/7
f 800/7/7 794/7/7 793/7/7
f 800/8/7 792/8/7 799/8/7
f 800/7/7 793/7/7 792/7/7
f 801/8/7 795/8/7 794/8/7
f 801/7/7 794/7/7 800/7/7
f 802/7/7 796/7/7 795/7/7
f 802/8/7 795/8/7 801/8/7
f 802/7/7 797/7/7 796/7/7
f 803/8/7 798/8/7 797/8/7
f 803/7/7 797/7/7 802/7/7
f 804/8/7 798/8/7 803/8/7
f 805/8/7 801/8/7 800/8/7
f 805/8/7 800/8/7 799/8/7
f 805/8/7 802/8/7 801/8/7
f 805/8/7 803/8/7 802/8/7
f 805/8/7 804/8/7 803/8/7
f 806/8/7 804/8/7 805/8/7
f 807/8/7 804/8/7 806/8/7
f 808/8/7 804/8/7 807/8/7
f 809/8/7 805/8/7 799/8/7
f 810/7/7 806/7/7 805/7/7
f 810/8/7 805/8/7 809/8/7
f 811/7/7 806/7/7 810/7/7
f 812/7/7 806/7/7 811/7/7
f 813/7/7 808/7/7 807/7/7
f 814/7/7 808/7/7 813/7/7
f 815/8/7 804/8/7 808/8/7
f 815/7/7 808/7/7 814/7/7
f 816/8/7 804/8/7 815/8/7
f 817/8/7 814/8/7 813/8/7
f 817/7/7 813/7/7 807/7/7
f 818/8/7 814/8/7 817/8/7
f 819/8/7 814/8/7 818/8/7
f 819/7/7 818/7/7 817/7/7
f 820/7/7 815/7/7 814/7/7
f 820/8/7 814/8/7 819/8/7
f 820/7/7 816/7/7 815/7/7
f 821/7/7 811/7/7 810/7/7
f 821/7/7 810/7/7 809/7/7
f 822/8/7 812/8/7 811/8/7
f 822/7/7 811/7/7 821/7/7
f 823/7/7 806/7/7 812/7/7
f 823/8/7 812/8/7 822/8/7
f 824/7/7 819/7/7 817/7/7
f 824/7/7 817/7/7 807/7/7
f 824/7/7 820/7/7 819/7/7
f 824/8/7 807/8/7 806/8/7
f 825/7/7 820/7/7 824/7/7
f 826/7/7 816/7/7 820/7/7
f 826/7/7 820/7/7 825/7/7
f 827/7/7 823/7/7 822/7/7
f 827/7/7 822/7/7 821/7/7
f 828/7/7 806/7/7 823/7/7
f 828/7/7 823/7/7 827/7/7
f 829/8/7 825/8/7 824/8/7
f 829/8/7 824/8/7 806/8/7
f 830/8/7 825/8/7 829/8/7
f 831/7/7 827/7/7 821/7/7
f 831/8/7 828/8/7 827/8/7
f 832/7/7 806/7/7 828/7/7
f 832/8/7 828/8/7 831/8/7
f 833/8/7 829/8/7 806/8/7
f 833/7/7 806/7/7 832/7/7
f 834/7/7 831/7/7 821/7/7
f 834/7/7 832/7/7 831/7/7
f 835/7/7 832/7/7 834/7/7
f 836/8/7 833/8/7 832/8/7
f 837/8/7 829/8/7 833/8/7
f 837/8/7 833/8/7 836/8/7
f 838/8/7 825/8/7 830/8/7
f 838/7/7 830/7/7 829/7/7
f 839/8/7 825/8/7 838/8/7
f 840/7/7 839/7/7 838/7/7
f 840/8/7 825/8/7 839/8/7
f 841/7/7 826/7/7 825/7/7
f 841/8/7 825/8/7 840/8/7
f 842/7/7 834/7/7 821/7/7
f 842/8/7 835/8/7 834/8/7
f 843/7/7 832/7/7 835/7/7
f 843/8/7 835/8/7 842/8/7
f 844/8/7 836/8/7 832/8/7
f 844/7/7 837/7/7 836/7/7
f 845/8/7 829/8/7 837/8/7
f 845/7/7 837/7/7 844/7/7
f 846/7/7 840/7/7 838/7/7
f 846/7/7 841/7/7 840/7/7
f 846/7/7 838/7/7 829/7/7
f 847/7/7 826/7/7 841/7/7
f 847/7/7 841/7/7 846/7/7
f 848/7/7 842/7/7 821/7/7
f 848/7/7 843/7/7 842/7/7
f 849/7/7 832/7/7 843/7/7
f 849/7/7 843/7/7 848/7/7
f 850/8/7 844/8/7 832/8/7
f 850/7/7 832/7/7 849/7/7
f 850/8/7 845/8/7 844/8/7
f 851/8/7 829/8/7 845/8/7
f 851/8/7 845/8/7 850/8/7
f 852/7/7 848/7/7 821/7/7
f 853/8/7 849/8/7 848/8/7
f 853/7/7 850/7/7 849/7/7
f 853/7/7 851/7/7 850/7/7
f 854/7/7 851/7/7 853/7/7
f 855/7/7 826/7/7 847/7/7
f 856/7/7 848/7/7 852/7/7
f 856/8/7 853/8/7 848/8/7
f 856/8/7 854/8/7 853/8/7
f 857/7/7 851/7/7 854/7/7
f 857/8/7 854/8/7 856/8/7
f 858/8/7 847/8/7 846/8/7
f 858/7/7 846/7/7 829/7/7
f 859/7/7 855/7/7 847/7/7
f 859/8/7 847/8/7 858/8/7
f 860/7/7 856/7/7 852/7/7
f 860/7/7 857/7/7 856/7/7
f 861/7/7 857/7/7 860/7/7
f 862/7/7 855/7/7 859/7/7
f 862/7/7 859/7/7 858/7/7
f 863/7/7 855/7/7 862/7/7
f 864/7/7 857/7/7 861/7/7
f 864/8/7 861/8/7 860/8/7
f 865/8/7 829/8/7 851/8/7
f 865/7/7 857/7/7 864/7/7
f 865/7/7 851/7/7 857/7/7
f 866/7/7 862/7/7 858/7/7
f 866/8/7 829/8/7 865/8/7
f 866/7/7 858/7/7 829/7/7
f 867/8/7 863/8/7 862/8/7
f 867/7/7 862/7/7 866/7/7
f 868/8/7 864/8/7 860/8/7
f 868/8/7 866/8/7 865/8/7
f 868/8/7 865/8/7 864/8/7
f 868/8/7 867/8/7 866/8/7
f 869/8/7 867/8/7 868/8/7
f 870/8/7 867/8/7 869/8/7
f 871/8/7 863/8/7 867/8/7
f 871/8/7 867/8/7 870/8/7
f 872/8/7 868/8/7 860/8/7
f 873/7/7 869/7/7 868/7/7
f 873/8/7 868/8/7 872/8/7
f 874/7/7 869/7/7 873/7/7
f 875/8/7 870/8/7 869/8/7
f 875/7/7 869/7/7 874/7/7
f 876/7/7 871/7/7 870/7/7
f 876/8/7 870/8/7 875/8/7
f 877/7/7 871/7/7 876/7/7
f 878/8/7 863/8/7 871/8/7
f 878/7/7 871/7/7 877/7/7
f 879/8/7 863/8/7 878/8/7
f 880/7/7 873/7/7 872/7/7
f 880/7/7 874/7/7 873/7/7
f 881/7/7 874/7/7 880/7/7
f 882/8/7 877/8/7 876/8/7
f 882/7/7 874/7/7 881/7/7
f 882/8/7 875/8/7 874/8/7
f 882/8/7 876/8/7 875/8/7
f 883/7/7 879/7/7 878/7/7
f 883/8/7 877/8/7 882/8/7
f 883/7/7 878/7/7 877/7/7
f 884/7/7 879/7/7 883/7/7
f 885/7/7 879/7/7 884/7/7
f 886/7/7 882/7/7 881/7/7
f 886/7/7 884/7/7 883/7/7
f 886/7/7 883/7/7 882/7/7
f 887/7/7 884/7/7 886/7/7
f 892/3/7 889/3/7 888/3/7
f 893/3/7 889/3/7 892/3/7
f 894/3/7 891/3/7 890/3/7
f 895/3/7 891/3/7 894/3/7
f 900/3/7 897/3/7 896/3/7
f 901/3/7 897/3/7 900/3/7
f 902/3/7 899/3/7 898/3/7
f 903/3/7 899/3/7 902/3/7
f 908/3/7 905/3/7 904/3/7
f 909/3/7 905/3/7 908/3/7
f 910/3/7 907/3/7 906/3/7
f 911/3/7 907/3/7 910/3/7
f 916/3/7 913/3/7 912/3/7
f 917/3/7 913/3/7 916/3/7
f 918/3/7 915/3/7 914/3/7
f 919/3/7 915/3/7 918/3/7
f 924/6/7 921/6/7 920/6/7
f 925/6/7 921/6/7 924/6/7
f 926/6/7 923/6/7 922/6/7
f 927/6/7 923/6/7 926/6/7
f 932/17/7 929/17/7 928/17/7
f 933/3/7 930/3/7 929/3/7
f 933/17/7 929/17/7 932/17/7
f 934/17/7 931/17/7 930/17/7
f 934/3/7 930/3/7 933/3/7
f 935/17/7 931/17/7 934/17/7
f 944/4/7 941/4/7 940/4/7
f 945/4/7 941/4/7 944/4/7
f 946/4/7 943/4/7 942/4/7
f 947/4/7 943/4/7 946/4/7
f 952/4/7 949/4/7 948/4/7
f 953/4/7 949/4/7 952/4/7
f 954/4/7 951/4/7 950/4/7
f 955/4/7 951/4/7 954/4/7
f 956/9/7 937/9/7 936/9/7
f 957/9/7 937/9/7 956/9/7
f 958/9/7 939/9/7 938/9/7
f 960/9/7 959/9/7 958/9/7
f 960/9/7 958/9/7 938/9/7
f 961/9/7 959/9/7 960/9/7
f 966/5/7 963/5/7 962/5/7
f 967/5/7 963/5/7 966/5/7
f 968/5/7 965/5/7 964/5/7
f 969/5/7 965/5/7 968/5/7
f 976/3/7 971/3/7 970/3/7
f 977/14/7 972/14/7 971/14/7
f 977/3/7 971/3/7 976/3/7
f 978/3/7 973/3/7 972/3/7
f 978/14/7 972/14/7 977/14/7
f 979/14/7 974/14/7 973/14/7
f 979/3/7 973/3/7 978/3/7
f 980/3/7 975/3/7 974/3/7
f 980/14/7 974/14/7 979/14/7
f 981/3/7 975/3/7 980/3/7
f 992/3/7 983/3/7 982/3/7
f 993/3/7 983/3/7 992/3/7
f 994/3/7 991/3/7 990/3/7
f 995/3/7 991/3/7 994/3/7
f 1000/3/7 997/3/7 996/3/7
f 1001/3/7 997/3/7 1000/3/7
f 1002/3/7 999/3/7 998/3/7
f 1003/3/7 999/3/7 1002/3/7
f 1004/3/7 989/3/7 988/3/7
f 1006/3/7 985/3/7 984/3/7
f 1007/14/7 986/14/7 985/14/7
f 1007/3/7 985/3/7 1006/3/7
f 1008/3/7 987/3/7 986/3/7
f 1008/14/7 986/14/7 1007/14/7
f 1009/14/7 988/14/7 987/14/7
f 1009/3/7 987/3/7 1008/3/7
f 1010/3/7 1004/3/7 988/3/7
f 1010/14/7 988/14/7 1009/14/7
f 1010/3/7 1005/3/7 1004/3/7
f 1011/3/7 1005/3/7 1010/3/7
f 1016/14/7 1013/14/7 1012/14/7
f 1017/3/7 1014/3/7 1013/3/7
f 1017/14/7 1013/14/7 1016/14/7
f 1018/14/7 1015/14/7 1014/14/7
f 1018/3/7 1014/3/7 1017/3/7
f 1019/14/7 1015/14/7 1018/14/7
f 1020/6/8 1021/6/8 1024/6/8
f 1024/6/8 1021/6/8 1025/6/8
f 1022/6/8 1023/6/8 1026/6/8
f 1026/6/8 1023/6/8 1027/6/8
f 1028/6/8 1029/6/8 1030/6/8
f 1030/6/8 1029/6/8 1031/6/8
f 1031/6/8 1029/6/8 1032/6/8
f 1032/6/8 1029/6/8 1033/6/8
f 1034/16/8 1035/16/8 1036/16/8
f 1036/16/8 1035/16/8 1037/16/8
f 1038/16/8 1039/16/8 1041/16/8
f 1041/16/8 1039/16/8 1042/16/8
f 1042/16/8 1043/16/8 1044/16/8
f 1040/16/8 1041/16/8 1044/16/8
f 1041/16/8 1042/16/8 1044/16/8
f 1044/16/8 1043/16/8 1045/16/8
f 1046/6/8 1047/6/8 1050/6/8
f 1050/6/8 1047/6/8 1051/6/8
f 1048/6/8 1049/6/8 1052/6/8
f 1052/6/8 1049/6/8 1053/6/8
f 1054/3/8 1055/3/8 1058/3/8
f 1058/3/8 1055/3/8 1059/3/8
f 1056/3/8 1057/3/8 1060/3/8
f 1060/3/8 1057/3/8 1061/3/8
f 1062/9/8 1063/9/8 1064/9/8
f 1064/9/8 1063/9/8 1065/9/8
f 1066/3/8 1067/3/8 1070/3/8
f 1070/3/8 1067/3/8 1071/3/8
f 1068/3/8 1069/3/8 1072/3/8
f 1072/3/8 1069/3/8 1073/3/8
f 1074/6/8 1075/6/8 1078/6/8
f 1078/6/8 1075/6/8 1079/6/8
f 1076/6/8 1077/6/8 1080/6/8
f 1080/6/8 1077/6/8 1081/6/8
f 1079/6/8 1080/6/8 1082/6/8
f 1082/6/8 1080/6/8 1083/6/8
f 1084/3/8 1085/3/8 1088/3/8
f 1088/3/8 1085/3/8 1089/3/8
f 1086/3/8 1087/3/8 1090/3/8
f 1090/3/8 1087/3/8 1091/3/8
f 1092/9/8 1093/9/8 1094/9/8
f 1094/9/8 1093/9/8 1095/9/8
f 1096/3/8 1097/3/8 1099/3/8
f 1099/3/8 1097/3/8 1100/3/8
f 1100/3/8 1097/3/8 1101/3/8
f 1101/3/8 1097/3/8 1102/3/8
f 1102/3/8 1097/3/8 1103/3/8
f 1103/3/8 1097/3/8 1104/3/8
f 1098/3/8 1099/3/8 1106/3/8
f 1099/3/8 1100/3/8 1106/3/8
f 1100/14/8 1101/14/8 1107/14/8
f 1106/3/8 1100/3/8 1107/3/8
f 1101/3/8 1102/3/8 1108/3/8
f 1107/14/8 1101/14/8 1108/14/8
f 1102/14/8 1103/14/8 1109/14/8
f 1108/3/8 1102/3/8 1109/3/8
f 1104/3/8 1105/3/8 1110/3/8
f 1109/14/8 1103/14/8 1110/14/8
f 1103/3/8 1104/3/8 1110/3/8
f 1110/3/8 1105/3/8 1111/3/8
f 1098/3/8 1106/3/8 1112/3/8
f 1112/3/8 1106/3/8 1113/3/8
f 1111/3/8 1105/3/8 1114/3/8
f 1114/3/8 1105/3/8 1115/3/8
f 1116/9/8 1117/9/8 1118/9/8
f 1118/9/8 1117/9/8 1119/9/8
f 1120/3/8 1121/3/8 1123/3/8
f 1123/3/8 1121/3/8 1124/3/8
f 1124/3/8 1125/3/8 1126/3/8
f 1123/3/8 1124/3/8 1126/3/8
f 1122/3/8 1123/3/8 1126/3/8
f 1126/3/8 1125/3/8 1127/3/8
f 1127/3/8 1125/3/8 1128/3/8
f 1128/3/8 1125/3/8 1129/3/8
f 1127/3/8 1128/3/8 1130/3/8
f 1130/3/8 1128/3/8 1131/3/8
f 1132/3/8 1133/3/8 1136/3/8
f 1136/3/8 1133/3/8 1137/3/8
f 1134/3/8 1135/3/8 1138/3/8
f 1138/3/8 1135/3/8 1139/3/8
f 1140/3/8 1141/3/8 1144/3/8
f 1144/3/8 1141/3/8 1145/3/8
f 1142/3/8 1143/3/8 1146/3/8
f 1142/3/8 1146/3/8 1147/3/8
f 1147/3/8 1146/3/8 1148/3/8
f 1149/3/8 1150/3/8 1151/3/8
f 1151/3/8 1150/3/8 1152/3/8
f 1153/4/8 1154/4/8 1157/4/8
f 1157/4/8 1154/4/8 1158/4/8
f 1158/4/8 1154/4/8 1159/4/8
f 1155/4/8 1156/4/8 1160/4/8
f 1160/4/8 1156/4/8 1161/4/8
f 1161/4/8 1156/4/8 1162/4/8
f 1163/4/8 1164/4/8 1167/4/8
f 1167/4/8 1164/4/8 1168/4/8
f 1168/4/8 1164/4/8 1169/4/8
f 1165/4/8 1166/4/8 1170/4/8
f 1170/4/8 1166/4/8 1171/4/8
f 1172/5/8 1173/5/8 1176/5/8
f 1176/5/8 1173/5/8 1177/5/8
f 1174/5/8 1175/5/8 1178/5/8
f 1178/5/8 1175/5/8 1179/5/8
f 1180/3/8 1181/3/8 1186/3/8
f 1181/14/8 1182/14/8 1187/14/8
f 1186/3/8 1181/3/8 1187/3/8
f 1182/3/8 1183/3/8 1188/3/8
f 1187/14/8 1182/14/8 1188/14/8
f 1188/3/8 1183/3/8 1189/3/8
f 1189/3/8 1183/3/8 1190/3/8
f 1183/14/8 1184/14/8 1191/14/8
f 1190/3/8 1183/3/8 1191/3/8
f 1184/3/8 1185/3/8 1192/3/8
f 1191/14/8 1184/14/8 1192/14/8
f 1192/3/8 1185/3/8 1193/3/8
f 1180/3/8 1186/3/8 1194/3/8
f 1193/3/8 1185/3/8 1201/3/8
f 1180/3/8 1194/3/8 1202/3/8
f 1194/3/8 1195/3/8 1202/3/8
f 1202/3/8 1195/3/8 1203/3/8
f 1201/3/8 1185/3/8 1204/3/8
f 1200/3/8 1201/3/8 1204/3/8
f 1204/3/8 1185/3/8 1205/3/8
f 1203/3/8 1195/3/8 1206/3/8
f 1195/14/8 1196/14/8 1207/14/8
f 1206/3/8 1195/3/8 1207/3/8
f 1196/3/8 1197/3/8 1208/3/8
f 1207/14/8 1196/14/8 1208/14/8
f 1197/3/8 1198/3/8 1208/3/8
f 1198/3/8 1199/3/8 1208/3/8
f 1199/14/8 1200/14/8 1209/14/8
f 1208/3/8 1199/3/8 1209/3/8
f 1200/3/8 1204/3/8 1210/3/8
f 1209/14/8 1200/14/8 1210/14/8
f 1210/3/8 1204/3/8 1211/3/8
f 1212/10/8 1213/10/8 1216/10/8
f 1213/15/8 1214/15/8 1217/15/8
f 1216/10/8 1213/10/8 1217/10/8
f 1214/11/8 1215/11/8 1218/11/8
f 1217/15/8 1214/15/8 1218/15/8
f 1218/11/8 1215/11/8 1219/11/8
