# Blender 5.1.0
# www.blender.org
mtllib schoolbus.mtl
o Untitled
v -0.855896 -0.025833 1.671775
v -0.855896 -0.025833 1.171775
v -0.855896 -0.025833 -0.728224
v -0.855896 -0.025833 -1.228224
v -0.855896 0.174167 1.471776
v -0.855896 0.174167 1.371776
v -0.855896 0.174167 -0.928224
v -0.855896 0.174167 -1.028224
v -0.855896 0.274167 1.771776
v -0.855896 0.274167 1.671775
v -0.855896 0.274167 1.471776
v -0.855896 0.274167 1.371776
v -0.855896 0.274167 1.171775
v -0.855896 0.274167 1.071776
v -0.855896 0.274167 -0.628224
v -0.855896 0.274167 -0.728225
v -0.855896 0.274167 -0.928224
v -0.855896 0.274167 -1.028224
v -0.855896 0.274167 -1.228224
v -0.855896 0.274167 -1.328224
v -0.855896 0.474167 1.671775
v -0.855896 0.474167 1.171775
v -0.855896 0.474167 -0.728225
v -0.855896 0.474167 -1.228224
v -0.855896 0.574167 1.771776
v -0.855896 0.574167 1.071776
v -0.855896 0.574167 -0.628224
v -0.855896 0.574167 -1.328224
v -0.855896 0.774167 1.071776
v -0.855896 0.774167 0.971776
v -0.855896 0.974167 1.071776
v -0.855896 0.974167 0.971776
v -0.755896 0.174167 1.971776
v -0.755896 0.174167 1.671775
v -0.755896 0.174167 1.171775
v -0.755896 0.174167 -0.728224
v -0.755896 0.174167 -1.228224
v -0.755896 0.174167 -1.728224
v -0.755896 0.274167 1.971776
v -0.755896 0.274167 1.871776
v -0.755896 0.274167 1.771776
v -0.755896 0.274167 1.671775
v -0.755896 0.274167 1.171775
v -0.755896 0.274167 1.071776
v -0.755896 0.274167 -0.628224
v -0.755896 0.274167 -0.728225
v -0.755896 0.274167 -1.228224
v -0.755896 0.274167 -1.328224
v -0.755896 0.374167 0.871776
v -0.755896 0.374167 0.771776
v -0.755896 0.374167 0.671775
v -0.755896 0.374167 0.571776
v -0.755896 0.374167 0.471776
v -0.755896 0.374167 0.371776
v -0.755896 0.374167 0.271776
v -0.755896 0.374167 0.171776
v -0.755896 0.374167 0.071776
v -0.755896 0.374167 -0.028224
v -0.755896 0.374167 -0.128224
v -0.755896 0.374167 -0.228225
v -0.755896 0.374167 -0.328224
v -0.755896 0.374167 -0.428224
v -0.755896 0.374167 -0.528224
v -0.755896 0.374167 -0.628224
v -0.755896 0.374167 -1.328224
v -0.755896 0.374167 -1.728224
v -0.755896 0.474167 1.071776
v -0.755896 0.474167 0.871776
v -0.755896 0.474167 0.771776
v -0.755896 0.474167 0.671775
v -0.755896 0.474167 0.571776
v -0.755896 0.474167 0.471776
v -0.755896 0.474167 0.371776
v -0.755896 0.474167 0.271775
v -0.755896 0.474167 0.171776
v -0.755896 0.474167 0.071776
v -0.755896 0.474167 -0.028224
v -0.755896 0.474167 -0.128224
v -0.755896 0.474167 -0.228225
v -0.755896 0.474167 -0.328224
v -0.755896 0.474167 -0.428224
v -0.755896 0.474167 -0.528224
v -0.755896 0.474167 -0.628224
v -0.755896 0.474167 -1.328224
v -0.755896 0.474167 -1.728224
v -0.755896 0.574167 1.771776
v -0.755896 0.574167 1.071776
v -0.755896 0.574167 0.771776
v -0.755896 0.574167 0.671775
v -0.755896 0.574167 0.571776
v -0.755896 0.574167 0.471776
v -0.755896 0.574167 0.371776
v -0.755896 0.574167 0.271775
v -0.755896 0.574167 0.171776
v -0.755896 0.574167 0.071776
v -0.755896 0.574167 -0.028224
v -0.755896 0.574167 -0.128224
v -0.755896 0.574167 -0.228225
v -0.755896 0.574167 -0.328224
v -0.755896 0.574167 -0.428224
v -0.755896 0.574167 -0.528224
v -0.755896 0.574167 -0.628224
v -0.755896 0.574167 -0.728225
v -0.755896 0.574167 -0.828224
v -0.755896 0.574167 -0.928224
v -0.755896 0.574167 -1.328224
v -0.755896 0.574167 -1.728224
v -0.755896 0.674167 1.871776
v -0.755896 0.674167 1.071776
v -0.755896 0.674167 0.771776
v -0.755896 0.674167 0.671775
v -0.755896 0.674167 0.571776
v -0.755896 0.674167 0.471776
v -0.755896 0.674167 0.371776
v -0.755896 0.674167 0.271775
v -0.755896 0.674167 0.171776
v -0.755896 0.674167 0.071776
v -0.755896 0.674167 -0.028224
v -0.755896 0.674167 -0.128224
v -0.755896 0.674167 -0.228225
v -0.755896 0.674167 -0.328224
v -0.755896 0.674167 -0.428224
v -0.755896 0.674167 -0.528224
v -0.755896 0.674167 -0.628224
v -0.755896 0.674167 -0.728225
v -0.755896 0.674167 -0.828224
v -0.755896 0.674167 -0.928224
v -0.755896 0.774167 1.071776
v -0.755896 0.774167 0.971776
v -0.755896 0.774167 0.871776
v -0.755896 0.774167 0.471776
v -0.755896 0.874167 0.371776
v -0.755896 0.874167 0.071776
v -0.755896 0.874167 -0.028224
v -0.755896 0.874167 -0.328224
v -0.755896 0.874167 -0.428224
v -0.755896 0.874167 -0.728225
v -0.755896 0.874167 -0.828224
v -0.755896 0.874167 -1.128224
v -0.755896 0.874167 -1.228224
v -0.755896 0.874167 -1.528224
v -0.755896 0.974167 1.071776
v -0.755896 0.974167 0.971776
v -0.755896 1.174167 0.871776
v -0.755896 1.174167 0.471776
v -0.755896 1.174167 0.371776
v -0.755896 1.174167 0.071776
v -0.755896 1.174167 -0.028224
v -0.755896 1.174167 -0.328224
v -0.755896 1.174167 -0.428224
v -0.755896 1.174167 -0.728225
v -0.755896 1.174167 -0.828224
v -0.755896 1.174167 -1.128224
v -0.755896 1.174167 -1.228224
v -0.755896 1.174167 -1.528224
v -0.755896 1.274167 1.071776
v -0.755896 1.274167 -1.728224
v -0.655895 0.774167 0.871776
v -0.655895 0.774167 0.471776
v -0.655895 0.874167 0.371776
v -0.655895 0.874167 0.071776
v -0.655895 0.874167 -0.028224
v -0.655895 0.874167 -0.328224
v -0.655895 0.874167 -0.428224
v -0.655895 0.874167 -0.728225
v -0.655895 0.874167 -0.828224
v -0.655895 0.874167 -1.128224
v -0.655895 0.874167 -1.228224
v -0.655895 0.874167 -1.528224
v -0.655895 1.174167 0.871776
v -0.655895 1.174167 0.471776
v -0.655895 1.174167 0.371776
v -0.655895 1.174167 0.071776
v -0.655895 1.174167 -0.028224
v -0.655895 1.174167 -0.328224
v -0.655895 1.174167 -0.428224
v -0.655895 1.174167 -0.728225
v -0.655895 1.174167 -0.828224
v -0.655895 1.174167 -1.128224
v -0.655895 1.174167 -1.228224
v -0.655895 1.174167 -1.528224
v -0.655895 1.274167 1.071776
v -0.655895 1.274167 -1.628224
v -0.655895 1.374167 1.071776
v -0.655895 1.374167 -1.628224
v -0.555896 0.674167 1.771776
v -0.555896 0.674167 1.271776
v -0.555896 0.774167 1.771776
v -0.555896 0.774167 1.271776
v -0.455895 0.674167 1.171775
v -0.455895 0.674167 1.071776
v -0.455895 0.774167 1.171775
v -0.455895 0.774167 1.071776
v 0.444104 0.274167 -1.528224
v 0.444104 0.274167 -1.628224
v 0.444104 0.374167 -1.528224
v 0.444104 0.374167 -1.628224
v 0.444104 0.474167 -1.628224
v 0.444104 0.574167 -1.628224
v 0.444104 0.774167 -1.528224
v 0.444104 0.774167 -1.628224
v 0.444104 0.874167 -1.628224
v 0.444104 0.874167 -1.728224
v 0.444104 1.174167 -1.628224
v 0.444104 1.174167 -1.728224
v 0.544105 0.774167 1.071776
v 0.544105 0.774167 0.971776
v 0.544105 1.274167 1.071776
v 0.544105 1.274167 0.971775
v 0.744104 -0.025833 1.671775
v 0.744104 -0.025833 1.171775
v 0.744104 -0.025833 -0.728224
v 0.744104 -0.025833 -1.228224
v 0.744104 0.174167 1.671775
v 0.744104 0.174167 1.571776
v 0.744104 0.174167 1.271776
v 0.744104 0.174167 1.171775
v 0.744104 0.174167 -0.728224
v 0.744104 0.174167 -0.828224
v 0.744104 0.174167 -1.128224
v 0.744104 0.174167 -1.228224
v -0.755896 -0.025833 1.671775
v -0.755896 -0.025833 1.171775
v -0.755896 -0.025833 -0.728224
v -0.755896 -0.025833 -1.228224
v -0.755896 0.174167 1.671775
v -0.755896 0.174167 1.571776
v -0.755896 0.174167 1.271776
v -0.755896 0.174167 1.171775
v -0.755896 0.174167 -0.728224
v -0.755896 0.174167 -0.828224
v -0.755896 0.174167 -1.128224
v -0.755896 0.174167 -1.228224
v -0.555896 0.774167 1.071776
v -0.555896 0.774167 0.971776
v -0.555896 1.274167 1.071776
v -0.555896 1.274167 0.971775
v -0.455895 0.274167 -1.528224
v -0.455895 0.274167 -1.628224
v -0.455895 0.374167 -1.528224
v -0.455895 0.374167 -1.628224
v -0.455895 0.474167 -1.628224
v -0.455895 0.574167 -1.628224
v -0.455895 0.774167 -1.528224
v -0.455895 0.774167 -1.628224
v -0.455895 0.874167 -1.628224
v -0.455895 0.874167 -1.728224
v -0.455895 1.174167 -1.628224
v -0.455895 1.174167 -1.728224
v 0.444104 0.674167 1.171775
v 0.444104 0.674167 1.071776
v 0.444104 0.774167 1.171775
v 0.444104 0.774167 1.071776
v 0.544105 0.674167 1.771776
v 0.544105 0.674167 1.271776
v 0.544105 0.774167 1.771776
v 0.544105 0.774167 1.271776
v 0.644104 0.774167 0.871776
v 0.644104 0.774167 0.471776
v 0.644104 0.874167 0.371776
v 0.644104 0.874167 0.071776
v 0.644104 0.874167 -0.028224
v 0.644104 0.874167 -0.328224
v 0.644104 0.874167 -0.428224
v 0.644104 0.874167 -0.728225
v 0.644104 0.874167 -0.828224
v 0.644104 0.874167 -1.128224
v 0.644104 0.874167 -1.228224
v 0.644104 0.874167 -1.528224
v 0.644104 1.174167 0.871776
v 0.644104 1.174167 0.471776
v 0.644104 1.174167 0.371776
v 0.644104 1.174167 0.071776
v 0.644104 1.174167 -0.028224
v 0.644104 1.174167 -0.328224
v 0.644104 1.174167 -0.428224
v 0.644104 1.174167 -0.728225
v 0.644104 1.174167 -0.828224
v 0.644104 1.174167 -1.128224
v 0.644104 1.174167 -1.228224
v 0.644104 1.174167 -1.528224
v 0.644104 1.274167 1.071776
v 0.644104 1.274167 -1.628224
v 0.644104 1.374167 1.071776
v 0.644104 1.374167 -1.628224
v 0.744104 0.174167 1.971776
v 0.744104 0.174167 1.671775
v 0.744104 0.174167 1.171775
v 0.744104 0.174167 -0.728224
v 0.744104 0.174167 -1.228224
v 0.744104 0.174167 -1.728224
v 0.744104 0.274167 1.971776
v 0.744104 0.274167 1.871776
v 0.744104 0.274167 1.771776
v 0.744104 0.274167 1.671775
v 0.744104 0.274167 1.171775
v 0.744104 0.274167 1.071776
v 0.744104 0.274167 -0.628224
v 0.744104 0.274167 -0.728225
v 0.744104 0.274167 -1.228224
v 0.744104 0.274167 -1.328224
v 0.744104 0.274167 -1.528224
v 0.744104 0.374167 0.871776
v 0.744104 0.374167 0.771776
v 0.744104 0.374167 0.671775
v 0.744104 0.374167 0.571776
v 0.744104 0.374167 0.471776
v 0.744104 0.374167 0.371776
v 0.744104 0.374167 0.271776
v 0.744104 0.374167 0.171776
v 0.744104 0.374167 0.071776
v 0.744104 0.374167 -0.028224
v 0.744104 0.374167 -0.128224
v 0.744104 0.374167 -0.228225
v 0.744104 0.374167 -0.328224
v 0.744104 0.374167 -0.428224
v 0.744104 0.374167 -0.528224
v 0.744104 0.374167 -0.628224
v 0.744104 0.374167 -1.328224
v 0.744104 0.374167 -1.428224
v 0.744104 0.374167 -1.528224
v 0.744104 0.374167 -1.728224
v 0.744104 0.474167 1.071776
v 0.744104 0.474167 0.871776
v 0.744104 0.474167 0.771776
v 0.744104 0.474167 0.671775
v 0.744104 0.474167 0.571776
v 0.744104 0.474167 0.471776
v 0.744104 0.474167 0.371776
v 0.744104 0.474167 0.271775
v 0.744104 0.474167 0.171776
v 0.744104 0.474167 0.071776
v 0.744104 0.474167 -0.028224
v 0.744104 0.474167 -0.128224
v 0.744104 0.474167 -0.228225
v 0.744104 0.474167 -0.328224
v 0.744104 0.474167 -0.428224
v 0.744104 0.474167 -0.528224
v 0.744104 0.474167 -0.628224
v 0.744104 0.474167 -1.328224
v 0.744104 0.474167 -1.428224
v 0.744104 0.474167 -1.728224
v 0.744104 0.574167 1.771776
v 0.744104 0.574167 1.071776
v 0.744104 0.574167 0.771776
v 0.744104 0.574167 0.671775
v 0.744104 0.574167 0.571776
v 0.744104 0.574167 0.471776
v 0.744104 0.574167 0.371776
v 0.744104 0.574167 0.271775
v 0.744104 0.574167 0.171776
v 0.744104 0.574167 0.071776
v 0.744104 0.574167 -0.028224
v 0.744104 0.574167 -0.128224
v 0.744104 0.574167 -0.228225
v 0.744104 0.574167 -0.328224
v 0.744104 0.574167 -0.428224
v 0.744104 0.574167 -0.528224
v 0.744104 0.574167 -0.628224
v 0.744104 0.574167 -0.728225
v 0.744104 0.574167 -0.828224
v 0.744104 0.574167 -0.928224
v 0.744104 0.574167 -1.028224
v 0.744104 0.574167 -1.128224
v 0.744104 0.574167 -1.228224
v 0.744104 0.574167 -1.328224
v 0.744104 0.574167 -1.728224
v 0.744104 0.674167 1.871776
v 0.744104 0.674167 1.071776
v 0.744104 0.674167 0.771776
v 0.744104 0.674167 0.671775
v 0.744104 0.674167 0.571776
v 0.744104 0.674167 0.471776
v 0.744104 0.674167 0.371776
v 0.744104 0.674167 0.271775
v 0.744104 0.674167 0.171776
v 0.744104 0.674167 0.071776
v 0.744104 0.674167 -0.028224
v 0.744104 0.674167 -0.128224
v 0.744104 0.674167 -0.228225
v 0.744104 0.674167 -0.328224
v 0.744104 0.674167 -0.428224
v 0.744104 0.674167 -0.528224
v 0.744104 0.674167 -0.628224
v 0.744104 0.674167 -0.728225
v 0.744104 0.674167 -0.828224
v 0.744104 0.674167 -0.928224
v 0.744104 0.674167 -1.028224
v 0.744104 0.674167 -1.128224
v 0.744104 0.674167 -1.228224
v 0.744104 0.674167 -1.328224
v 0.744104 0.774167 1.071776
v 0.744104 0.774167 0.971776
v 0.744104 0.774167 0.871776
v 0.744104 0.774167 0.471776
v 0.744104 0.874167 0.371776
v 0.744104 0.874167 0.071776
v 0.744104 0.874167 -0.028224
v 0.744104 0.874167 -0.328224
v 0.744104 0.874167 -0.428224
v 0.744104 0.874167 -0.728225
v 0.744104 0.874167 -0.828224
v 0.744104 0.874167 -1.128224
v 0.744104 0.874167 -1.228224
v 0.744104 0.874167 -1.528224
v 0.744104 0.974167 1.071776
v 0.744104 0.974167 0.971776
v 0.744104 1.174167 0.871776
v 0.744104 1.174167 0.471776
v 0.744104 1.174167 0.371776
v 0.744104 1.174167 0.071776
v 0.744104 1.174167 -0.028224
v 0.744104 1.174167 -0.328224
v 0.744104 1.174167 -0.428224
v 0.744104 1.174167 -0.728225
v 0.744104 1.174167 -0.828224
v 0.744104 1.174167 -1.128224
v 0.744104 1.174167 -1.228224
v 0.744104 1.174167 -1.528224
v 0.744104 1.274167 1.071776
v 0.744104 1.274167 -1.728224
v 0.844105 -0.025833 1.671775
v 0.844105 -0.025833 1.171775
v 0.844105 -0.025833 -0.728224
v 0.844105 -0.025833 -1.228224
v 0.844105 0.174167 1.471776
v 0.844105 0.174167 1.371776
v 0.844105 0.174167 -0.928224
v 0.844105 0.174167 -1.028224
v 0.844105 0.274167 1.771776
v 0.844105 0.274167 1.671775
v 0.844105 0.274167 1.471776
v 0.844105 0.274167 1.371776
v 0.844105 0.274167 1.171775
v 0.844105 0.274167 1.071776
v 0.844105 0.274167 -0.628224
v 0.844105 0.274167 -0.728225
v 0.844105 0.274167 -0.928224
v 0.844105 0.274167 -1.028224
v 0.844105 0.274167 -1.228224
v 0.844105 0.274167 -1.328224
v 0.844105 0.474167 1.671775
v 0.844105 0.474167 1.171775
v 0.844105 0.474167 -0.728225
v 0.844105 0.474167 -1.228224
v 0.844105 0.574167 1.771776
v 0.844105 0.574167 1.071776
v 0.844105 0.574167 -0.628224
v 0.844105 0.574167 -1.328224
v 0.844105 0.774167 1.071776
v 0.844105 0.774167 0.971776
v 0.844105 0.974167 1.071776
v 0.844105 0.974167 0.971776
v -0.755896 0.174167 1.971776
v -0.755896 0.274167 1.971776
v 0.744104 0.174167 1.971776
v 0.744104 0.274167 1.971776
v -0.755896 0.274167 1.871776
v -0.755896 0.674167 1.871776
v -0.655895 0.374167 1.871776
v -0.655895 0.574167 1.871776
v -0.355896 0.374167 1.871776
v -0.355896 0.574167 1.871776
v 0.344105 0.374167 1.871776
v 0.344105 0.574167 1.871776
v 0.644104 0.374167 1.871776
v 0.644104 0.574167 1.871776
v 0.744104 0.274167 1.871776
v 0.744104 0.674167 1.871776
v -0.855896 0.274167 1.771776
v -0.855896 0.574167 1.771776
v -0.755896 0.274167 1.771776
v -0.755896 0.574167 1.771776
v -0.555896 0.674167 1.771776
v -0.555896 0.774167 1.771776
v 0.544105 0.674167 1.771776
v 0.544105 0.774167 1.771776
v 0.744104 0.274167 1.771776
v 0.744104 0.574167 1.771776
v 0.844105 0.274167 1.771776
v 0.844105 0.574167 1.771776
v -0.855896 -0.025833 1.671775
v -0.855896 0.274167 1.671775
v -0.755896 -0.025833 1.671775
v -0.755896 0.174167 1.671775
v -0.755896 0.274167 1.671775
v 0.744104 -0.025833 1.671775
v 0.744104 0.174167 1.671775
v 0.744104 0.274167 1.671775
v 0.844105 -0.025833 1.671775
v 0.844105 0.274167 1.671775
v -0.455895 0.674167 1.171775
v -0.455895 0.774167 1.171775
v 0.444104 0.674167 1.171775
v 0.444104 0.774167 1.171775
v -0.855896 0.774167 1.071776
v -0.855896 0.974167 1.071776
v -0.755896 0.674167 1.071776
v -0.755896 0.774167 1.071776
v -0.755896 0.974167 1.071776
v -0.755896 1.274167 1.071776
v -0.655895 1.274167 1.071776
v -0.655895 1.374167 1.071776
v -0.555896 0.774167 1.071776
v -0.555896 1.274167 1.071776
v -0.455895 0.674167 1.071776
v -0.455895 0.774167 1.071776
v 0.444104 0.674167 1.071776
v 0.444104 0.774167 1.071776
v 0.544105 0.774167 1.071776
v 0.544105 1.274167 1.071776
v 0.644104 1.274167 1.071776
v 0.644104 1.374167 1.071776
v 0.744104 0.674167 1.071776
v 0.744104 0.774167 1.071776
v 0.744104 0.974167 1.071776
v 0.744104 1.274167 1.071776
v 0.844105 0.774167 1.071776
v 0.844105 0.974167 1.071776
v -0.555896 0.774167 0.971776
v -0.555896 1.274167 0.971775
v 0.544105 0.774167 0.971776
v 0.544105 1.274167 0.971775
v -0.755896 0.774167 0.471776
v -0.755896 1.174167 0.471776
v -0.655895 0.774167 0.471776
v -0.655895 1.174167 0.471776
v 0.644104 0.774167 0.471776
v 0.644104 1.174167 0.471776
v 0.744104 0.774167 0.471776
v 0.744104 1.174167 0.471776
v -0.755896 0.874167 0.071776
v -0.755896 1.174167 0.071776
v -0.655895 0.874167 0.071776
v -0.655895 1.174167 0.071776
v 0.644104 0.874167 0.071776
v 0.644104 1.174167 0.071776
v 0.744104 0.874167 0.071776
v 0.744104 1.174167 0.071776
v -0.755896 0.874167 -0.328224
v -0.755896 1.174167 -0.328224
v -0.655895 0.874167 -0.328224
v -0.655895 1.174167 -0.328224
v 0.644104 0.874167 -0.328224
v 0.644104 1.174167 -0.328224
v 0.744104 0.874167 -0.328224
v 0.744104 1.174167 -0.328224
v -0.855896 0.274167 -0.628224
v -0.855896 0.574167 -0.628224
v -0.755896 0.274167 -0.628224
v -0.755896 0.374167 -0.628224
v -0.755896 0.474167 -0.628224
v -0.755896 0.574167 -0.628224
v 0.744104 0.274167 -0.628224
v 0.744104 0.374167 -0.628224
v 0.744104 0.474167 -0.628224
v 0.744104 0.574167 -0.628224
v 0.844105 0.274167 -0.628224
v 0.844105 0.574167 -0.628224
v -0.855896 -0.025833 -0.728224
v -0.855896 0.274167 -0.728225
v -0.755896 -0.025833 -0.728224
v -0.755896 0.174167 -0.728224
v -0.755896 0.274167 -0.728225
v -0.755896 0.874167 -0.728225
v -0.755896 1.174167 -0.728225
v -0.655895 0.874167 -0.728225
v -0.655895 1.174167 -0.728225
v 0.644104 0.874167 -0.728225
v 0.644104 1.174167 -0.728225
v 0.744104 -0.025833 -0.728224
v 0.744104 0.174167 -0.728224
v 0.744104 0.274167 -0.728225
v 0.744104 0.874167 -0.728225
v 0.744104 1.174167 -0.728225
v 0.844105 -0.025833 -0.728224
v 0.844105 0.274167 -0.728225
v -0.755896 0.874167 -1.128224
v -0.755896 1.174167 -1.128224
v -0.655895 0.874167 -1.128224
v -0.655895 1.174167 -1.128224
v 0.644104 0.874167 -1.128224
v 0.644104 1.174167 -1.128224
v 0.744104 0.874167 -1.128224
v 0.744104 1.174167 -1.128224
v -0.755896 0.874167 -1.528224
v -0.755896 1.174167 -1.528224
v -0.655895 0.874167 -1.528224
v -0.655895 1.174167 -1.528224
v 0.644104 0.874167 -1.528224
v 0.644104 1.174167 -1.528224
v 0.744104 0.874167 -1.528224
v 0.744104 1.174167 -1.528224
v -0.455895 0.274167 -1.628224
v -0.455895 0.374167 -1.628224
v -0.455895 0.474167 -1.628224
v -0.455895 0.574167 -1.628224
v -0.455895 0.774167 -1.628224
v 0.444104 0.274167 -1.628224
v 0.444104 0.374167 -1.628224
v 0.444104 0.474167 -1.628224
v 0.444104 0.574167 -1.628224
v 0.444104 0.774167 -1.628224
v -0.555896 0.674167 1.271776
v -0.555896 0.774167 1.271776
v 0.544105 0.674167 1.271776
v 0.544105 0.774167 1.271776
v -0.855896 -0.025833 1.171775
v -0.855896 0.274167 1.171775
v -0.755896 -0.025833 1.171775
v -0.755896 0.174167 1.171775
v -0.755896 0.274167 1.171775
v 0.744104 -0.025833 1.171775
v 0.744104 0.174167 1.171775
v 0.744104 0.274167 1.171775
v 0.844105 -0.025833 1.171775
v 0.844105 0.274167 1.171775
v -0.855896 0.274167 1.071776
v -0.855896 0.574167 1.071776
v -0.755896 0.274167 1.071776
v -0.755896 0.474167 1.071776
v -0.755896 0.574167 1.071776
v 0.744104 0.274167 1.071776
v 0.744104 0.474167 1.071776
v 0.744104 0.574167 1.071776
v 0.844105 0.274167 1.071776
v 0.844105 0.574167 1.071776
v -0.855896 0.774167 0.971776
v -0.855896 0.974167 0.971776
v -0.755896 0.774167 0.971776
v -0.755896 0.974167 0.971776
v 0.744104 0.774167 0.971776
v 0.744104 0.974167 0.971776
v 0.844105 0.774167 0.971776
v 0.844105 0.974167 0.971776
v -0.755896 0.774167 0.871776
v -0.755896 1.174167 0.871776
v -0.655895 0.774167 0.871776
v -0.655895 1.174167 0.871776
v 0.644104 0.774167 0.871776
v 0.644104 1.174167 0.871776
v 0.744104 0.774167 0.871776
v 0.744104 1.174167 0.871776
v -0.755896 0.874167 0.371776
v -0.755896 1.174167 0.371776
v -0.655895 0.874167 0.371776
v -0.655895 1.174167 0.371776
v 0.644104 0.874167 0.371776
v 0.644104 1.174167 0.371776
v 0.744104 0.874167 0.371776
v 0.744104 1.174167 0.371776
v -0.755896 0.874167 -0.028224
v -0.755896 1.174167 -0.028224
v -0.655895 0.874167 -0.028224
v -0.655895 1.174167 -0.028224
v 0.644104 0.874167 -0.028224
v 0.644104 1.174167 -0.028224
v 0.744104 0.874167 -0.028224
v 0.744104 1.174167 -0.028224
v -0.755896 0.874167 -0.428224
v -0.755896 1.174167 -0.428224
v -0.655895 0.874167 -0.428224
v -0.655895 1.174167 -0.428224
v 0.644104 0.874167 -0.428224
v 0.644104 1.174167 -0.428224
v 0.744104 0.874167 -0.428224
v 0.744104 1.174167 -0.428224
v -0.755896 0.874167 -0.828224
v -0.755896 1.174167 -0.828224
v -0.655895 0.874167 -0.828224
v -0.655895 1.174167 -0.828224
v 0.644104 0.874167 -0.828224
v 0.644104 1.174167 -0.828224
v 0.744104 0.874167 -0.828224
v 0.744104 1.174167 -0.828224
v -0.855896 -0.025833 -1.228224
v -0.855896 0.274167 -1.228224
v -0.755896 -0.025833 -1.228224
v -0.755896 0.174167 -1.228224
v -0.755896 0.274167 -1.228224
v -0.755896 0.874167 -1.228224
v -0.755896 1.174167 -1.228224
v -0.655895 0.874167 -1.228224
v -0.655895 1.174167 -1.228224
v 0.644104 0.874167 -1.228224
v 0.644104 1.174167 -1.228224
v 0.744104 -0.025833 -1.228224
v 0.744104 0.174167 -1.228224
v 0.744104 0.274167 -1.228224
v 0.744104 0.874167 -1.228224
v 0.744104 1.174167 -1.228224
v 0.844105 -0.025833 -1.228224
v 0.844105 0.274167 -1.228224
v -0.855896 0.274167 -1.328224
v -0.855896 0.574167 -1.328224
v -0.755896 0.274167 -1.328224
v -0.755896 0.374167 -1.328224
v -0.755896 0.474167 -1.328224
v -0.755896 0.574167 -1.328224
v 0.744104 0.274167 -1.328224
v 0.744104 0.374167 -1.328224
v 0.744104 0.474167 -1.328224
v 0.744104 0.574167 -1.328224
v 0.844105 0.274167 -1.328224
v 0.844105 0.574167 -1.328224
v -0.455895 0.274167 -1.528224
v -0.455895 0.374167 -1.528224
v -0.455895 0.774167 -1.528224
v 0.444104 0.274167 -1.528224
v 0.444104 0.374167 -1.528224
v 0.444104 0.774167 -1.528224
v -0.655895 1.274167 -1.628224
v -0.655895 1.374167 -1.628224
v -0.455895 0.874167 -1.628224
v -0.455895 1.174167 -1.628224
v 0.444104 0.874167 -1.628224
v 0.444104 1.174167 -1.628224
v 0.644104 1.274167 -1.628224
v 0.644104 1.374167 -1.628224
v -0.755896 0.174167 -1.728224
v -0.755896 0.374167 -1.728224
v -0.755896 0.474167 -1.728224
v -0.755896 0.574167 -1.728224
v -0.755896 1.274167 -1.728224
v -0.455895 0.874167 -1.728224
v -0.455895 1.174167 -1.728224
v 0.444104 0.874167 -1.728224
v 0.444104 1.174167 -1.728224
v 0.744104 0.174167 -1.728224
v 0.744104 0.374167 -1.728224
v 0.744104 0.474167 -1.728224
v 0.744104 0.574167 -1.728224
v 0.744104 1.274167 -1.728224
v -0.855896 -0.025833 1.671775
v -0.755896 -0.025833 1.671775
v 0.744104 -0.025833 1.671775
v 0.844105 -0.025833 1.671775
v -0.855896 -0.025833 1.171775
v -0.755896 -0.025833 1.171775
v 0.744104 -0.025833 1.171775
v 0.844105 -0.025833 1.171775
v -0.855896 -0.025833 -0.728224
v -0.755896 -0.025833 -0.728224
v 0.744104 -0.025833 -0.728224
v 0.844105 -0.025833 -0.728224
v -0.855896 -0.025833 -1.228224
v -0.755896 -0.025833 -1.228224
v 0.744104 -0.025833 -1.228224
v 0.844105 -0.025833 -1.228224
v -0.755896 0.174167 1.971776
v 0.744104 0.174167 1.971776
v -0.555896 0.174167 1.871776
v 0.544105 0.174167 1.871776
v -0.755896 0.174167 1.671775
v -0.555896 0.174167 1.671775
v -0.455895 0.174167 1.671775
v 0.444104 0.174167 1.671775
v 0.544105 0.174167 1.671775
v 0.744104 0.174167 1.671775
v -0.755896 0.174167 1.571776
v -0.655895 0.174167 1.571776
v -0.455895 0.174167 1.571776
v -0.055896 0.174167 1.571776
v 0.044105 0.174167 1.571776
v 0.444104 0.174167 1.571776
v 0.644104 0.174167 1.571776
v 0.744104 0.174167 1.571776
v -0.655895 0.174167 1.471776
v -0.055896 0.174167 1.471776
v 0.044105 0.174167 1.471776
v 0.644104 0.174167 1.471776
v -0.655895 0.174167 1.371776
v -0.055896 0.174167 1.371776
v 0.044105 0.174167 1.371776
v 0.644104 0.174167 1.371776
v -0.755896 0.174167 1.271776
v -0.655895 0.174167 1.271776
v 0.644104 0.174167 1.271776
v 0.744104 0.174167 1.271776
v -0.755896 0.174167 1.171775
v 0.744104 0.174167 1.171775
v 0.144104 0.174167 1.071776
v 0.244104 0.174167 1.071776
v -0.555896 0.174167 0.871776
v -0.355896 0.174167 0.871776
v -0.555896 0.174167 0.671775
v -0.355896 0.174167 0.671775
v 0.344105 0.174167 0.671775
v 0.444104 0.174167 0.671775
v -0.555896 0.174167 0.571776
v -0.355896 0.174167 0.571776
v 0.544105 0.174167 0.471776
v 0.644104 0.174167 0.471776
v -0.555896 0.174167 0.371776
v -0.355896 0.174167 0.371776
v -0.555896 0.174167 0.271776
v -0.355896 0.174167 0.271776
v -0.555896 0.174167 -0.028224
v -0.355896 0.174167 -0.028224
v -0.555896 0.174167 -0.128224
v -0.355896 0.174167 -0.128224
v -0.555896 0.174167 -0.328224
v -0.355896 0.174167 -0.328224
v -0.555896 0.174167 -0.428224
v -0.355896 0.174167 -0.428224
v 0.544105 0.174167 -0.428224
v 0.644104 0.174167 -0.428224
v -0.555896 0.174167 -0.628224
v -0.355896 0.174167 -0.628224
v 0.344105 0.174167 -0.628224
v 0.444104 0.174167 -0.628224
v -0.755896 0.174167 -0.728224
v 0.144104 0.174167 -0.728224
v 0.244104 0.174167 -0.728224
v 0.744104 0.174167 -0.728224
v -0.755896 0.174167 -0.828224
v -0.655895 0.174167 -0.828224
v 0.644104 0.174167 -0.828224
v 0.744104 0.174167 -0.828224
v -0.655895 0.174167 -0.928224
v -0.055896 0.174167 -0.928224
v 0.044105 0.174167 -0.928224
v 0.644104 0.174167 -0.928224
v -0.655895 0.174167 -1.028224
v -0.055896 0.174167 -1.028224
v 0.044105 0.174167 -1.028224
v 0.644104 0.174167 -1.028224
v -0.755896 0.174167 -1.128224
v -0.655895 0.174167 -1.128224
v 0.644104 0.174167 -1.128224
v 0.744104 0.174167 -1.128224
v -0.755896 0.174167 -1.228224
v 0.744104 0.174167 -1.228224
v -0.455895 0.174167 -1.328224
v -0.055896 0.174167 -1.328224
v 0.044105 0.174167 -1.328224
v 0.444104 0.174167 -1.328224
v -0.455895 0.174167 -1.628224
v 0.444104 0.174167 -1.628224
v -0.755896 0.174167 -1.728224
v 0.744104 0.174167 -1.728224
v -0.855896 0.274167 1.771776
v -0.755896 0.274167 1.771776
v 0.744104 0.274167 1.771776
v 0.844105 0.274167 1.771776
v -0.855896 0.274167 1.671775
v -0.755896 0.274167 1.671775
v 0.744104 0.274167 1.671775
v 0.844105 0.274167 1.671775
v -0.855896 0.274167 1.171775
v -0.755896 0.274167 1.171775
v 0.744104 0.274167 1.171775
v 0.844105 0.274167 1.171775
v -0.855896 0.274167 1.071776
v -0.755896 0.274167 1.071776
v 0.744104 0.274167 1.071776
v 0.844105 0.274167 1.071776
v -0.855896 0.274167 -0.628224
v -0.755896 0.274167 -0.628224
v 0.744104 0.274167 -0.628224
v 0.844105 0.274167 -0.628224
v -0.855896 0.274167 -0.728225
v -0.755896 0.274167 -0.728225
v 0.744104 0.274167 -0.728225
v 0.844105 0.274167 -0.728225
v -0.855896 0.274167 -1.228224
v -0.755896 0.274167 -1.228224
v 0.744104 0.274167 -1.228224
v 0.844105 0.274167 -1.228224
v -0.855896 0.274167 -1.328224
v -0.755896 0.274167 -1.328224
v 0.744104 0.274167 -1.328224
v 0.844105 0.274167 -1.328224
v -0.855896 0.774167 1.071776
v -0.755896 0.774167 1.071776
v 0.744104 0.774167 1.071776
v 0.844105 0.774167 1.071776
v -0.855896 0.774167 0.971776
v -0.755896 0.774167 0.971776
v 0.744104 0.774167 0.971776
v 0.844105 0.774167 0.971776
v -0.455895 0.774167 -1.528224
v 0.444104 0.774167 -1.528224
v -0.455895 0.774167 -1.628224
v 0.444104 0.774167 -1.628224
v -0.755896 1.174167 0.871776
v -0.655895 1.174167 0.871776
v 0.644104 1.174167 0.871776
v 0.744104 1.174167 0.871776
v -0.755896 1.174167 0.471776
v -0.655895 1.174167 0.471776
v 0.644104 1.174167 0.471776
v 0.744104 1.174167 0.471776
v -0.755896 1.174167 0.371776
v -0.655895 1.174167 0.371776
v 0.644104 1.174167 0.371776
v 0.744104 1.174167 0.371776
v -0.755896 1.174167 0.071776
v -0.655895 1.174167 0.071776
v 0.644104 1.174167 0.071776
v 0.744104 1.174167 0.071776
v -0.755896 1.174167 -0.028224
v -0.655895 1.174167 -0.028224
v 0.644104 1.174167 -0.028224
v 0.744104 1.174167 -0.028224
v -0.755896 1.174167 -0.328224
v -0.655895 1.174167 -0.328224
v 0.644104 1.174167 -0.328224
v 0.744104 1.174167 -0.328224
v -0.755896 1.174167 -0.428224
v -0.655895 1.174167 -0.428224
v 0.644104 1.174167 -0.428224
v 0.744104 1.174167 -0.428224
v -0.755896 1.174167 -0.728225
v -0.655895 1.174167 -0.728225
v 0.644104 1.174167 -0.728225
v 0.744104 1.174167 -0.728225
v -0.755896 1.174167 -0.828224
v -0.655895 1.174167 -0.828224
v 0.644104 1.174167 -0.828224
v 0.744104 1.174167 -0.828224
v -0.755896 1.174167 -1.128224
v -0.655895 1.174167 -1.128224
v 0.644104 1.174167 -1.128224
v 0.744104 1.174167 -1.128224
v -0.755896 1.174167 -1.228224
v -0.655895 1.174167 -1.228224
v 0.644104 1.174167 -1.228224
v 0.744104 1.174167 -1.228224
v -0.755896 1.174167 -1.528224
v -0.655895 1.174167 -1.528224
v 0.644104 1.174167 -1.528224
v 0.744104 1.174167 -1.528224
v -0.455895 1.174167 -1.628224
v 0.444104 1.174167 -1.628224
v -0.455895 1.174167 -1.728224
v 0.444104 1.174167 -1.728224
v -0.555896 1.274167 1.071776
v 0.544105 1.274167 1.071776
v -0.555896 1.274167 0.971775
v 0.544105 1.274167 0.971775
v -0.755896 0.274167 1.971776
v 0.744104 0.274167 1.971776
v -0.755896 0.274167 1.871776
v 0.744104 0.274167 1.871776
v -0.455895 0.274167 -1.528224
v 0.444104 0.274167 -1.528224
v -0.455895 0.274167 -1.628224
v 0.444104 0.274167 -1.628224
v -0.855896 0.574167 1.771776
v -0.755896 0.574167 1.771776
v 0.744104 0.574167 1.771776
v 0.844105 0.574167 1.771776
v -0.855896 0.574167 1.071776
v -0.755896 0.574167 1.071776
v 0.744104 0.574167 1.071776
v 0.844105 0.574167 1.071776
v -0.855896 0.574167 -0.628224
v -0.755896 0.574167 -0.628224
v 0.744104 0.574167 -0.628224
v 0.844105 0.574167 -0.628224
v -0.755896 0.574167 -0.728225
v 0.744104 0.574167 -0.728225
v -0.755896 0.574167 -0.828224
v 0.744104 0.574167 -0.828224
v -0.755896 0.574167 -0.928224
v 0.744104 0.574167 -0.928224
v 0.744104 0.574167 -1.028224
v 0.744104 0.574167 -1.128224
v 0.744104 0.574167 -1.228224
v -0.855896 0.574167 -1.328224
v -0.755896 0.574167 -1.328224
v 0.744104 0.574167 -1.328224
v 0.844105 0.574167 -1.328224
v -0.755896 0.674167 1.871776
v 0.744104 0.674167 1.871776
v -0.555896 0.674167 1.771776
v 0.544105 0.674167 1.771776
v -0.555896 0.674167 1.271776
v 0.544105 0.674167 1.271776
v -0.455895 0.674167 1.171775
v 0.444104 0.674167 1.171775
v -0.755896 0.674167 1.071776
v -0.455895 0.674167 1.071776
v 0.444104 0.674167 1.071776
v 0.744104 0.674167 1.071776
v -0.555896 0.774167 1.771776
v 0.544105 0.774167 1.771776
v -0.555896 0.774167 1.271776
v 0.544105 0.774167 1.271776
v -0.455895 0.774167 1.171775
v 0.444104 0.774167 1.171775
v -0.555896 0.774167 1.071776
v -0.455895 0.774167 1.071776
v 0.444104 0.774167 1.071776
v 0.544105 0.774167 1.071776
v -0.555896 0.774167 0.971776
v 0.544105 0.774167 0.971776
v -0.755896 0.774167 0.871776
v -0.655895 0.774167 0.871776
v 0.644104 0.774167 0.871776
v 0.744104 0.774167 0.871776
v -0.755896 0.774167 0.471776
v -0.655895 0.774167 0.471776
v 0.644104 0.774167 0.471776
v 0.744104 0.774167 0.471776
v -0.755896 0.874167 0.371776
v -0.655895 0.874167 0.371776
v 0.644104 0.874167 0.371776
v 0.744104 0.874167 0.371776
v -0.755896 0.874167 0.071776
v -0.655895 0.874167 0.071776
v 0.644104 0.874167 0.071776
v 0.744104 0.874167 0.071776
v -0.755896 0.874167 -0.028224
v -0.655895 0.874167 -0.028224
v 0.644104 0.874167 -0.028224
v 0.744104 0.874167 -0.028224
v -0.755896 0.874167 -0.328224
v -0.655895 0.874167 -0.328224
v 0.644104 0.874167 -0.328224
v 0.744104 0.874167 -0.328224
v -0.755896 0.874167 -0.428224
v -0.655895 0.874167 -0.428224
v 0.644104 0.874167 -0.428224
v 0.744104 0.874167 -0.428224
v -0.755896 0.874167 -0.728225
v -0.655895 0.874167 -0.728225
v 0.644104 0.874167 -0.728225
v 0.744104 0.874167 -0.728225
v -0.755896 0.874167 -0.828224
v -0.655895 0.874167 -0.828224
v 0.644104 0.874167 -0.828224
v 0.744104 0.874167 -0.828224
v -0.755896 0.874167 -1.128224
v -0.655895 0.874167 -1.128224
v 0.644104 0.874167 -1.128224
v 0.744104 0.874167 -1.128224
v -0.755896 0.874167 -1.228224
v -0.655895 0.874167 -1.228224
v 0.644104 0.874167 -1.228224
v 0.744104 0.874167 -1.228224
v -0.755896 0.874167 -1.528224
v -0.655895 0.874167 -1.528224
v 0.644104 0.874167 -1.528224
v 0.744104 0.874167 -1.528224
v -0.455895 0.874167 -1.628224
v 0.444104 0.874167 -1.628224
v -0.455895 0.874167 -1.728224
v 0.444104 0.874167 -1.728224
v -0.855896 0.974167 1.071776
v -0.755896 0.974167 1.071776
v 0.744104 0.974167 1.071776
v 0.844105 0.974167 1.071776
v -0.855896 0.974167 0.971776
v -0.755896 0.974167 0.971776
v 0.744104 0.974167 0.971776
v 0.844105 0.974167 0.971776
v -0.755896 1.274167 1.071776
v -0.655895 1.274167 1.071776
v 0.644104 1.274167 1.071776
v 0.744104 1.274167 1.071776
v -0.655895 1.274167 -1.628224
v 0.644104 1.274167 -1.628224
v -0.755896 1.274167 -1.728224
v 0.744104 1.274167 -1.728224
v -0.655895 1.374167 1.071776
v 0.644104 1.374167 1.071776
v -0.655895 1.374167 -1.628224
v 0.644104 1.374167 -1.628224
vn -1.0000 -0.0000 -0.0000
vn -1.0000 -0.0001 -0.0000
vn 1.0000 -0.0000 -0.0000
vn 1.0000 0.0001 -0.0000
vn 1.0000 -0.0005 -0.0000
vn 1.0000 -0.0001 -0.0000
vn -0.0000 -0.0000 1.0000
vn -0.0000 -0.0000 -1.0000
vn -0.0000 -1.0000 -0.0000
vn -0.0000 1.0000 -0.0000
vt 0.912109 0.500000
vt 0.943359 0.500000
vt 0.501953 0.500000
vt 0.908203 0.500000
vt 0.970703 0.500000
vt 0.755859 0.500000
vt 0.568359 0.500000
vt 0.876953 0.500000
vt 0.564453 0.500000
vt 0.845703 0.500000
vt 0.916016 0.500000
s 1
usemtl palette
f 5/1/1 2/1/1 1/1/1
f 6/1/1 2/1/1 5/1/1
f 7/1/1 4/1/1 3/1/1
f 8/1/1 4/1/1 7/1/1
f 10/1/1 5/1/1 1/1/1
f 11/2/1 6/2/1 5/2/1
f 11/1/1 5/1/1 10/1/1
f 12/1/1 2/1/1 6/1/1
f 12/2/1 6/2/1 11/2/1
f 13/1/1 2/1/1 12/1/1
f 16/1/1 7/1/1 3/1/1
f 17/2/1 8/2/1 7/2/1
f 17/1/1 7/1/1 16/1/1
f 18/1/1 4/1/1 8/1/1
f 18/2/1 8/2/1 17/2/1
f 19/1/1 4/1/1 18/1/1
f 21/1/1 11/1/1 10/1/1
f 21/3/1 10/3/1 9/3/1
f 21/1/1 12/1/1 11/1/1
f 21/1/1 13/1/1 12/1/1
f 22/3/1 14/3/1 13/3/1
f 22/1/1 13/1/1 21/1/1
f 23/1/1 17/1/1 16/1/1
f 23/1/1 19/1/1 18/1/1
f 23/3/1 16/3/1 15/3/1
f 23/1/1 18/1/1 17/1/1
f 24/3/1 20/3/1 19/3/1
f 24/1/1 19/1/1 23/1/1
f 25/3/1 22/3/1 21/3/1
f 25/3/1 21/3/1 9/3/1
f 26/3/1 14/3/1 22/3/1
f 26/3/1 22/3/1 25/3/1
f 27/3/1 23/3/1 15/3/1
f 27/3/1 24/3/1 23/3/1
f 28/3/1 20/3/1 24/3/1
f 28/3/1 24/3/1 27/3/1
f 31/4/1 30/4/1 29/4/1
f 32/4/1 30/4/1 31/4/1
f 39/5/1 34/5/1 33/5/1
f 40/5/1 34/5/1 39/5/1
f 41/5/1 34/5/1 40/5/1
f 42/5/1 34/5/1 41/5/1
f 43/5/1 36/5/1 35/5/1
f 44/5/1 36/5/1 43/5/1
f 45/5/1 36/5/1 44/5/1
f 46/5/1 36/5/1 45/5/1
f 47/5/1 38/5/1 37/5/1
f 48/5/1 38/5/1 47/5/1
f 49/3/1 45/3/1 44/3/1
f 50/3/1 45/3/1 49/3/1
f 51/3/1 45/3/1 50/3/1
f 52/3/1 45/3/1 51/3/1
f 53/3/1 45/3/1 52/3/1
f 54/3/1 45/3/1 53/3/1
f 55/3/1 45/3/1 54/3/1
f 56/3/1 45/3/1 55/3/1
f 57/3/1 45/3/1 56/3/1
f 58/3/1 45/3/1 57/3/1
f 59/3/1 45/3/1 58/3/1
f 60/3/1 45/3/1 59/3/1
f 61/3/1 45/3/1 60/3/1
f 62/3/1 45/3/1 61/3/1
f 63/3/1 45/3/1 62/3/1
f 64/3/1 45/3/1 63/3/1
f 65/5/1 38/5/1 48/5/1
f 66/5/1 38/5/1 65/5/1
f 67/3/1 49/3/1 44/3/1
f 68/6/1 50/6/1 49/6/1
f 68/3/1 49/3/1 67/3/1
f 69/3/1 51/3/1 50/3/1
f 69/6/1 50/6/1 68/6/1
f 70/6/1 52/6/1 51/6/1
f 70/3/1 51/3/1 69/3/1
f 71/3/1 53/3/1 52/3/1
f 71/6/1 52/6/1 70/6/1
f 72/6/1 54/6/1 53/6/1
f 72/3/1 53/3/1 71/3/1
f 73/3/1 55/3/1 54/3/1
f 73/6/1 54/6/1 72/6/1
f 74/6/1 56/6/1 55/6/1
f 74/3/1 55/3/1 73/3/1
f 75/3/1 57/3/1 56/3/1
f 75/6/1 56/6/1 74/6/1
f 76/6/1 58/6/1 57/6/1
f 76/3/1 57/3/1 75/3/1
f 77/3/1 59/3/1 58/3/1
f 77/6/1 58/6/1 76/6/1
f 78/6/1 60/6/1 59/6/1
f 78/3/1 59/3/1 77/3/1
f 79/3/1 61/3/1 60/3/1
f 79/6/1 60/6/1 78/6/1
f 80/6/1 62/6/1 61/6/1
f 80/3/1 61/3/1 79/3/1
f 81/3/1 63/3/1 62/3/1
f 81/6/1 62/6/1 80/6/1
f 82/6/1 64/6/1 63/6/1
f 82/3/1 63/3/1 81/3/1
f 83/6/1 64/6/1 82/6/1
f 84/3/1 66/3/1 65/3/1
f 85/3/1 66/3/1 84/3/1
f 86/3/1 41/3/1 40/3/1
f 87/7/1 81/7/1 80/7/1
f 87/7/1 68/7/1 67/7/1
f 87/7/1 69/7/1 68/7/1
f 87/7/1 70/7/1 69/7/1
f 87/7/1 82/7/1 81/7/1
f 87/7/1 83/7/1 82/7/1
f 87/7/1 71/7/1 70/7/1
f 87/7/1 80/7/1 79/7/1
f 87/7/1 79/7/1 78/7/1
f 87/7/1 78/7/1 77/7/1
f 87/7/1 77/7/1 76/7/1
f 87/7/1 76/7/1 75/7/1
f 87/7/1 75/7/1 74/7/1
f 87/7/1 74/7/1 73/7/1
f 87/7/1 73/7/1 72/7/1
f 87/7/1 72/7/1 71/7/1
f 88/7/1 83/7/1 87/7/1
f 89/7/1 83/7/1 88/7/1
f 90/7/1 83/7/1 89/7/1
f 91/7/1 83/7/1 90/7/1
f 92/7/1 83/7/1 91/7/1
f 93/7/1 83/7/1 92/7/1
f 94/7/1 83/7/1 93/7/1
f 95/7/1 83/7/1 94/7/1
f 96/7/1 83/7/1 95/7/1
f 97/7/1 83/7/1 96/7/1
f 98/7/1 83/7/1 97/7/1
f 99/7/1 83/7/1 98/7/1
f 100/7/1 83/7/1 99/7/1
f 101/7/1 83/7/1 100/7/1
f 102/7/1 83/7/1 101/7/1
f 106/7/1 85/7/1 84/7/1
f 107/7/1 85/7/1 106/7/1
f 108/3/1 86/3/1 40/3/1
f 108/3/1 87/3/1 86/3/1
f 108/3/1 88/3/1 87/3/1
f 109/3/1 88/3/1 108/3/1
f 110/6/1 89/6/1 88/6/1
f 110/3/1 88/3/1 109/3/1
f 111/3/1 90/3/1 89/3/1
f 111/6/1 89/6/1 110/6/1
f 112/6/1 91/6/1 90/6/1
f 112/3/1 90/3/1 111/3/1
f 113/3/1 92/3/1 91/3/1
f 113/6/1 91/6/1 112/6/1
f 114/6/1 93/6/1 92/6/1
f 114/3/1 92/3/1 113/3/1
f 115/3/1 94/3/1 93/3/1
f 115/6/1 93/6/1 114/6/1
f 116/6/1 95/6/1 94/6/1
f 116/3/1 94/3/1 115/3/1
f 117/3/1 96/3/1 95/3/1
f 117/6/1 95/6/1 116/6/1
f 118/6/1 97/6/1 96/6/1
f 118/3/1 96/3/1 117/3/1
f 119/3/1 98/3/1 97/3/1
f 119/6/1 97/6/1 118/6/1
f 120/6/1 99/6/1 98/6/1
f 120/3/1 98/3/1 119/3/1
f 121/3/1 100/3/1 99/3/1
f 121/6/1 99/6/1 120/6/1
f 122/6/1 101/6/1 100/6/1
f 122/3/1 100/3/1 121/3/1
f 123/3/1 102/3/1 101/3/1
f 123/6/1 101/6/1 122/6/1
f 124/6/1 103/6/1 102/6/1
f 124/3/1 102/3/1 123/3/1
f 125/3/1 104/3/1 103/3/1
f 125/6/1 103/6/1 124/6/1
f 126/6/1 105/6/1 104/6/1
f 126/3/1 104/3/1 125/3/1
f 127/3/1 107/3/1 106/3/1
f 127/6/1 105/6/1 126/6/1
f 127/3/1 106/3/1 105/3/1
f 128/3/1 125/3/1 124/3/1
f 128/3/1 126/3/1 125/3/1
f 128/3/1 127/3/1 126/3/1
f 128/3/1 124/3/1 123/3/1
f 128/3/1 123/3/1 122/3/1
f 128/3/1 122/3/1 121/3/1
f 128/3/1 121/3/1 120/3/1
f 128/3/1 120/3/1 119/3/1
f 128/3/1 119/3/1 118/3/1
f 128/3/1 118/3/1 117/3/1
f 128/3/1 117/3/1 116/3/1
f 128/3/1 116/3/1 115/3/1
f 128/3/1 115/3/1 114/3/1
f 128/3/1 114/3/1 113/3/1
f 128/3/1 113/3/1 112/3/1
f 128/3/1 112/3/1 111/3/1
f 128/3/1 111/3/1 110/3/1
f 128/3/1 110/3/1 109/3/1
f 129/3/1 127/3/1 128/3/1
f 130/3/1 127/3/1 129/3/1
f 131/3/1 127/3/1 130/3/1
f 132/3/1 127/3/1 131/3/1
f 133/3/1 127/3/1 132/3/1
f 134/3/1 127/3/1 133/3/1
f 135/3/1 127/3/1 134/3/1
f 136/3/1 127/3/1 135/3/1
f 137/3/1 127/3/1 136/3/1
f 138/3/1 127/3/1 137/3/1
f 139/3/1 107/3/1 127/3/1
f 139/3/1 127/3/1 138/3/1
f 140/3/1 107/3/1 139/3/1
f 141/3/1 107/3/1 140/3/1
f 143/3/1 130/3/1 129/3/1
f 144/3/1 130/3/1 143/3/1
f 144/3/1 143/3/1 142/3/1
f 145/3/1 132/3/1 131/3/1
f 146/3/1 132/3/1 145/3/1
f 147/3/1 134/3/1 133/3/1
f 148/3/1 134/3/1 147/3/1
f 149/3/1 136/3/1 135/3/1
f 150/3/1 136/3/1 149/3/1
f 151/3/1 138/3/1 137/3/1
f 152/3/1 138/3/1 151/3/1
f 153/3/2 140/3/1 139/3/1
f 154/3/1 140/3/1 153/3/2
f 155/3/1 107/3/1 141/3/1
f 156/3/1 150/3/1 149/3/1
f 156/3/1 155/3/1 154/3/1
f 156/3/1 148/3/1 147/3/1
f 156/3/1 144/3/1 142/3/1
f 156/3/1 153/3/2 152/3/1
f 156/3/1 154/3/1 153/3/2
f 156/3/1 151/3/1 150/3/1
f 156/3/1 146/3/1 145/3/1
f 156/3/1 149/3/1 148/3/1
f 156/3/1 152/3/1 151/3/1
f 156/3/1 147/3/1 146/3/1
f 156/3/1 145/3/1 144/3/1
f 157/3/1 107/3/1 155/3/1
f 157/3/1 155/3/1 156/3/1
f 170/8/1 159/8/1 158/8/1
f 171/8/1 159/8/1 170/8/1
f 172/8/1 161/8/1 160/8/1
f 173/8/1 161/8/1 172/8/1
f 174/8/1 163/8/1 162/8/1
f 175/8/1 163/8/1 174/8/1
f 176/8/1 165/8/1 164/8/1
f 177/8/1 165/8/1 176/8/1
f 178/8/1 167/8/1 166/8/1
f 179/8/1 167/8/1 178/8/1
f 180/8/1 169/8/1 168/8/1
f 181/8/1 169/8/1 180/8/1
f 184/3/1 183/3/1 182/3/1
f 185/3/1 183/3/1 184/3/1
f 188/9/1 187/9/1 186/9/1
f 189/9/1 187/9/1 188/9/1
f 192/3/1 191/3/1 190/3/1
f 193/3/1 191/3/1 192/3/1
f 196/5/1 195/5/1 194/5/1
f 197/5/1 195/5/1 196/5/1
f 198/3/1 197/3/1 196/3/1
f 199/3/1 198/3/1 196/3/1
f 200/3/1 199/3/1 196/3/1
f 201/3/1 199/3/1 200/3/1
f 204/3/1 203/3/1 202/3/1
f 205/3/1 203/3/1 204/3/1
f 208/3/1 207/3/1 206/3/1
f 209/3/1 207/3/1 208/3/1
f 214/1/1 211/1/1 210/1/1
f 215/1/1 211/1/1 214/1/1
f 216/1/1 211/1/1 215/1/1
f 217/1/1 211/1/1 216/1/1
f 218/1/1 213/1/1 212/1/1
f 219/1/1 213/1/1 218/1/1
f 220/1/1 213/1/1 219/1/1
f 221/1/1 213/1/1 220/1/1
f 222/1/3 223/1/3 226/1/3
f 226/1/3 223/1/3 227/1/3
f 227/1/3 223/1/3 228/1/3
f 228/1/3 223/1/3 229/1/3
f 224/1/3 225/1/3 230/1/3
f 230/1/3 225/1/3 231/1/3
f 231/1/3 225/1/3 232/1/3
f 232/1/3 225/1/3 233/1/3
f 234/3/3 235/3/3 236/3/3
f 236/3/3 235/3/3 237/3/3
f 238/5/3 239/5/3 240/5/3
f 240/5/3 239/5/3 241/5/3
f 240/3/3 241/3/3 242/3/3
f 240/3/3 242/3/3 243/3/3
f 240/3/3 243/3/3 244/3/3
f 244/3/3 243/3/3 245/3/3
f 246/3/3 247/3/3 248/3/3
f 248/3/3 247/3/3 249/3/3
f 250/3/3 251/3/3 252/3/3
f 252/3/3 251/3/3 253/3/3
f 254/9/3 255/9/3 256/9/3
f 256/9/3 255/9/3 257/9/3
f 258/8/3 259/8/3 270/8/3
f 270/8/3 259/8/3 271/8/3
f 260/8/3 261/8/3 272/8/3
f 272/8/3 261/8/3 273/8/3
f 262/8/3 263/8/3 274/8/3
f 274/8/3 263/8/3 275/8/3
f 264/8/3 265/8/3 276/8/3
f 276/8/3 265/8/3 277/8/3
f 266/8/3 267/8/3 278/8/3
f 278/8/3 267/8/3 279/8/3
f 268/8/3 269/8/3 280/8/3
f 280/8/3 269/8/3 281/8/3
f 282/3/3 283/3/3 284/3/3
f 284/3/3 283/3/3 285/3/3
f 286/5/3 287/5/3 292/5/3
f 292/5/3 287/5/3 293/5/3
f 293/5/3 287/5/3 294/5/3
f 294/5/3 287/5/3 295/5/3
f 288/5/3 289/5/3 296/5/3
f 296/5/3 289/5/3 297/5/3
f 297/5/3 289/5/3 298/5/3
f 298/5/3 289/5/3 299/5/3
f 290/5/3 291/5/3 300/5/3
f 300/5/3 291/5/3 301/5/3
f 301/5/3 291/5/3 302/5/3
f 297/3/3 298/3/3 303/3/3
f 303/3/3 298/3/3 304/3/3
f 304/3/3 298/3/3 305/3/3
f 305/3/3 298/3/3 306/3/3
f 306/3/3 298/3/3 307/3/3
f 307/3/3 298/3/3 308/3/3
f 308/3/3 298/3/3 309/3/3
f 309/3/3 298/3/3 310/3/3
f 310/3/3 298/3/3 311/3/3
f 311/3/3 298/3/3 312/3/3
f 312/3/3 298/3/3 313/3/3
f 313/3/3 298/3/3 314/3/3
f 314/3/3 298/3/3 315/3/3
f 315/3/3 298/3/3 316/3/3
f 316/3/3 298/3/3 317/3/3
f 317/3/3 298/3/3 318/3/3
f 301/3/3 302/3/3 319/3/3
f 319/3/3 302/3/3 320/3/3
f 302/5/3 291/5/3 321/5/3
f 320/3/3 302/3/3 321/3/3
f 321/5/3 291/5/3 322/5/3
f 297/3/3 303/3/3 323/3/3
f 303/6/3 304/6/3 324/6/3
f 323/3/3 303/3/3 324/3/3
f 304/3/3 305/3/3 325/3/3
f 324/6/3 304/6/3 325/6/3
f 305/6/3 306/6/3 326/6/3
f 325/3/3 305/3/3 326/3/3
f 306/3/3 307/3/3 327/3/3
f 326/6/3 306/6/3 327/6/3
f 307/6/3 308/6/3 328/6/3
f 327/3/3 307/3/3 328/3/3
f 308/3/3 309/3/3 329/3/3
f 328/6/3 308/6/3 329/6/3
f 309/6/3 310/6/3 330/6/3
f 329/3/3 309/3/3 330/3/3
f 310/3/3 311/3/3 331/3/3
f 330/6/3 310/6/3 331/6/3
f 311/6/3 312/6/3 332/6/3
f 331/3/3 311/3/3 332/3/3
f 312/3/3 313/3/3 333/3/3
f 332/6/3 312/6/3 333/6/3
f 313/6/3 314/6/3 334/6/3
f 333/3/3 313/3/3 334/3/3
f 314/3/3 315/3/3 335/3/3
f 334/6/3 314/6/3 335/6/3
f 315/6/3 316/6/3 336/6/3
f 335/3/3 315/3/3 336/3/3
f 316/3/3 317/3/3 337/3/3
f 336/6/3 316/6/3 337/6/3
f 317/6/3 318/6/3 338/6/3
f 337/3/3 317/3/3 338/3/3
f 338/6/3 318/6/3 339/6/3
f 319/6/3 320/6/3 340/6/3
f 320/3/3 321/3/3 341/3/3
f 340/6/3 320/6/3 341/6/3
f 321/3/3 322/3/3 341/3/3
f 341/3/3 322/3/3 342/3/3
f 293/3/3 294/3/3 343/3/3
f 338/7/3 339/7/3 344/7/3
f 336/7/3 337/7/3 344/7/3
f 323/7/3 324/7/3 344/7/3
f 324/7/3 325/7/3 344/7/3
f 337/7/3 338/7/3 344/7/3
f 325/7/3 326/7/3 344/7/3
f 326/7/3 327/7/3 344/7/3
f 335/7/3 336/7/3 344/7/3
f 334/7/3 335/7/3 344/7/3
f 333/7/3 334/7/3 344/7/3
f 332/7/3 333/7/3 344/7/3
f 331/7/3 332/7/3 344/7/3
f 330/7/3 331/7/3 344/7/3
f 329/7/3 330/7/3 344/7/3
f 328/7/3 329/7/3 344/7/3
f 327/7/3 328/7/3 344/7/3
f 344/7/3 339/7/3 345/7/3
f 345/7/3 339/7/3 346/7/3
f 346/7/3 339/7/3 347/7/3
f 347/7/3 339/7/3 348/7/3
f 348/7/3 339/7/3 349/7/3
f 349/7/3 339/7/3 350/7/3
f 350/7/3 339/7/3 351/7/3
f 351/7/3 339/7/3 352/7/3
f 352/7/3 339/7/3 353/7/3
f 353/7/3 339/7/3 354/7/3
f 354/7/3 339/7/3 355/7/3
f 355/7/3 339/7/3 356/7/3
f 356/7/3 339/7/3 357/7/3
f 357/7/3 339/7/3 358/7/3
f 358/7/3 339/7/3 359/7/3
f 341/7/3 342/7/3 366/7/3
f 340/7/3 341/7/3 366/7/3
f 366/7/3 342/7/3 367/7/3
f 293/3/3 343/3/3 368/3/3
f 343/3/3 344/3/3 368/3/3
f 344/3/3 345/3/3 368/3/3
f 368/3/3 345/3/3 369/3/3
f 345/6/3 346/6/3 370/6/3
f 369/3/3 345/3/3 370/3/3
f 346/3/3 347/3/3 371/3/3
f 370/6/3 346/6/3 371/6/3
f 347/6/3 348/6/3 372/6/3
f 371/3/3 347/3/3 372/3/3
f 348/3/3 349/3/3 373/3/3
f 372/6/3 348/6/3 373/6/3
f 349/6/3 350/6/3 374/6/3
f 373/3/3 349/3/3 374/3/3
f 350/3/3 351/3/3 375/3/3
f 374/6/3 350/6/3 375/6/3
f 351/6/3 352/6/3 376/6/3
f 375/3/3 351/3/3 376/3/3
f 352/3/3 353/3/3 377/3/3
f 376/6/3 352/6/3 377/6/3
f 353/6/3 354/6/3 378/6/3
f 377/3/3 353/3/3 378/3/3
f 354/3/3 355/3/3 379/3/3
f 378/6/3 354/6/3 379/6/3
f 355/6/3 356/6/3 380/6/3
f 379/3/3 355/3/3 380/3/3
f 356/3/3 357/3/3 381/3/3
f 380/6/3 356/6/3 381/6/3
f 357/6/3 358/6/3 382/6/3
f 381/3/3 357/3/3 382/3/3
f 358/3/3 359/3/3 383/3/3
f 382/6/3 358/6/3 383/6/3
f 359/6/3 360/6/3 384/6/3
f 383/3/3 359/3/3 384/3/3
f 360/3/3 361/3/3 385/3/4
f 384/6/3 360/6/3 385/6/4
f 361/6/3 362/6/3 386/6/3
f 385/3/4 361/3/3 386/3/3
f 362/3/3 363/3/3 387/3/3
f 386/6/3 362/6/3 387/6/3
f 363/6/3 364/6/3 388/6/3
f 387/3/3 363/3/3 388/3/3
f 364/3/3 365/3/3 389/3/4
f 388/6/3 364/6/3 389/6/4
f 365/6/3 366/6/3 390/6/3
f 389/3/4 365/3/3 390/3/3
f 366/3/3 367/3/3 391/3/3
f 390/6/3 366/6/3 391/6/3
f 387/3/3 388/3/3 392/3/3
f 386/3/3 387/3/3 392/3/3
f 390/3/3 391/3/3 392/3/3
f 389/3/4 390/3/3 392/3/3
f 388/3/3 389/3/4 392/3/3
f 385/3/4 386/3/3 392/3/3
f 384/3/3 385/3/4 392/3/3
f 383/3/3 384/3/3 392/3/3
f 382/3/3 383/3/3 392/3/3
f 381/3/3 382/3/3 392/3/3
f 380/3/3 381/3/3 392/3/3
f 379/3/3 380/3/3 392/3/3
f 378/3/3 379/3/3 392/3/3
f 377/3/3 378/3/3 392/3/3
f 376/3/3 377/3/3 392/3/3
f 375/3/3 376/3/3 392/3/3
f 374/3/3 375/3/3 392/3/3
f 373/3/3 374/3/3 392/3/3
f 372/3/3 373/3/3 392/3/3
f 371/3/3 372/3/3 392/3/3
f 370/3/3 371/3/3 392/3/3
f 369/3/3 370/3/3 392/3/3
f 392/3/3 391/3/3 393/3/3
f 393/3/3 391/3/3 394/3/5
f 394/3/5 391/3/3 395/3/3
f 395/3/3 391/3/3 396/3/3
f 396/3/3 391/3/3 397/3/3
f 397/3/3 391/3/3 398/3/3
f 398/3/3 391/3/3 399/3/3
f 399/3/3 391/3/3 400/3/3
f 400/3/3 391/3/3 401/3/3
f 401/3/3 391/3/3 402/3/3
f 402/3/3 391/3/3 403/3/3
f 403/3/3 391/3/3 404/3/3
f 391/3/3 367/3/3 405/3/3
f 404/3/3 391/3/3 405/3/3
f 393/3/3 394/3/5 407/3/3
f 407/3/3 394/3/5 408/3/3
f 406/3/3 407/3/3 408/3/3
f 395/3/3 396/3/3 409/3/3
f 409/3/3 396/3/3 410/3/3
f 397/3/3 398/3/3 411/3/6
f 411/3/6 398/3/3 412/3/3
f 399/3/3 400/3/3 413/3/3
f 413/3/3 400/3/3 414/3/3
f 401/3/3 402/3/3 415/3/4
f 415/3/4 402/3/3 416/3/3
f 403/3/3 404/3/3 417/3/4
f 417/3/4 404/3/3 418/3/3
f 405/3/3 367/3/3 419/3/3
f 415/3/4 416/3/3 420/3/3
f 418/3/3 419/3/3 420/3/3
f 411/3/6 412/3/3 420/3/3
f 406/3/3 408/3/3 420/3/3
f 416/3/3 417/3/4 420/3/3
f 417/3/4 418/3/3 420/3/3
f 414/3/3 415/3/4 420/3/3
f 409/3/3 410/3/3 420/3/3
f 412/3/3 413/3/3 420/3/3
f 413/3/3 414/3/3 420/3/3
f 410/3/3 411/3/6 420/3/3
f 408/3/3 409/3/3 420/3/3
f 419/3/3 367/3/3 421/3/3
f 420/3/3 419/3/3 421/3/3
f 422/1/3 423/1/3 426/1/3
f 426/1/3 423/1/3 427/1/3
f 424/1/3 425/1/3 428/1/3
f 428/1/3 425/1/3 429/1/3
f 422/1/3 426/1/3 431/1/3
f 426/2/3 427/2/3 432/2/3
f 431/1/3 426/1/3 432/1/3
f 427/1/3 423/1/3 433/1/3
f 432/2/3 427/2/3 433/2/3
f 433/1/3 423/1/3 434/1/3
f 424/1/3 428/1/3 437/1/3
f 428/2/3 429/2/3 438/2/3
f 437/1/3 428/1/3 438/1/3
f 429/1/3 425/1/3 439/1/3
f 438/2/3 429/2/3 439/2/3
f 439/1/3 425/1/3 440/1/3
f 431/1/3 432/1/3 442/1/3
f 430/3/3 431/3/3 442/3/3
f 432/1/3 433/1/3 442/1/3
f 433/1/3 434/1/3 442/1/3
f 434/3/3 435/3/3 443/3/3
f 442/1/3 434/1/3 443/1/3
f 437/1/3 438/1/3 444/1/3
f 439/1/3 440/1/3 444/1/3
f 436/3/3 437/3/3 444/3/3
f 438/1/3 439/1/3 444/1/3
f 440/3/3 441/3/3 445/3/3
f 444/1/3 440/1/3 445/1/3
f 442/3/3 443/3/3 446/3/3
f 430/3/3 442/3/3 446/3/3
f 443/3/3 435/3/3 447/3/3
f 446/3/3 443/3/3 447/3/3
f 436/3/3 444/3/3 448/3/3
f 444/3/3 445/3/3 448/3/3
f 445/3/3 441/3/3 449/3/3
f 448/3/3 445/3/3 449/3/3
f 450/4/3 451/4/3 452/4/3
f 452/4/3 451/4/3 453/4/3
f 456/5/7 455/5/7 454/5/7
f 457/5/7 455/5/7 456/5/7
f 460/3/7 459/3/7 458/3/7
f 461/3/7 459/3/7 460/3/7
f 462/3/7 460/3/7 458/3/7
f 462/10/7 461/10/7 460/10/7
f 463/3/7 459/3/7 461/3/7
f 463/10/7 461/10/7 462/10/7
f 464/3/7 462/3/7 458/3/7
f 464/3/7 463/3/7 462/3/7
f 465/3/7 459/3/7 463/3/7
f 465/3/7 463/3/7 464/3/7
f 466/3/7 464/3/7 458/3/7
f 466/10/7 465/10/7 464/10/7
f 467/3/7 459/3/7 465/3/7
f 467/10/7 465/10/7 466/10/7
f 468/3/7 466/3/7 458/3/7
f 468/3/7 467/3/7 466/3/7
f 469/3/7 459/3/7 467/3/7
f 469/3/7 467/3/7 468/3/7
f 472/3/7 471/3/7 470/3/7
f 473/3/7 471/3/7 472/3/7
f 476/9/7 475/9/7 474/9/7
f 477/9/7 475/9/7 476/9/7
f 480/3/7 479/3/7 478/3/7
f 481/3/7 479/3/7 480/3/7
f 484/1/7 483/1/7 482/1/7
f 485/1/7 483/1/7 484/1/7
f 486/1/7 483/1/7 485/1/7
f 490/1/7 488/1/7 487/1/7
f 490/1/7 489/1/7 488/1/7
f 491/1/7 489/1/7 490/1/7
f 494/3/7 493/3/7 492/3/7
f 495/3/7 493/3/7 494/3/7
f 499/4/7 497/4/7 496/4/7
f 500/4/7 497/4/7 499/4/7
f 502/3/7 499/3/7 498/3/7
f 502/3/7 501/3/7 500/3/7
f 502/3/7 500/3/7 499/3/7
f 504/3/7 502/3/7 498/3/7
f 504/3/7 503/3/7 502/3/7
f 505/3/7 503/3/7 504/3/7
f 506/3/7 504/3/7 498/3/7
f 507/3/7 504/3/7 506/3/7
f 510/3/7 509/3/7 508/3/7
f 511/3/7 503/3/7 505/3/7
f 512/3/7 503/3/7 511/3/7
f 512/3/7 511/3/7 510/3/7
f 513/3/7 503/3/7 512/3/7
f 514/3/7 510/3/7 508/3/7
f 514/3/7 512/3/7 510/3/7
f 515/3/7 512/3/7 514/3/7
f 516/3/7 512/3/7 515/3/7
f 517/3/7 512/3/7 516/3/7
f 518/4/7 516/4/7 515/4/7
f 519/4/7 516/4/7 518/4/7
f 522/8/7 521/8/7 520/8/7
f 523/8/7 521/8/7 522/8/7
f 526/3/7 525/3/7 524/3/7
f 527/3/7 525/3/7 526/3/7
f 530/3/7 529/3/7 528/3/7
f 531/3/7 529/3/7 530/3/7
f 534/3/7 533/3/7 532/3/7
f 535/3/7 533/3/7 534/3/7
f 538/3/7 537/3/7 536/3/7
f 539/3/7 537/3/7 538/3/7
f 542/3/7 541/3/7 540/3/7
f 543/3/7 541/3/7 542/3/7
f 546/3/7 545/3/7 544/3/7
f 547/3/7 545/3/7 546/3/7
f 550/3/7 549/3/7 548/3/7
f 551/3/7 549/3/7 550/3/7
f 552/3/7 549/3/7 551/3/7
f 553/3/7 549/3/7 552/3/7
f 558/3/7 555/3/7 554/3/7
f 558/3/7 557/3/7 556/3/7
f 558/3/7 556/3/7 555/3/7
f 559/3/7 557/3/7 558/3/7
f 562/1/7 561/1/7 560/1/7
f 563/1/7 561/1/7 562/1/7
f 564/1/7 561/1/7 563/1/7
f 567/3/7 566/3/7 565/3/7
f 568/3/7 566/3/7 567/3/7
f 574/3/7 570/3/7 569/3/7
f 575/3/7 570/3/7 574/3/7
f 576/1/7 573/1/7 572/1/7
f 576/1/7 572/1/7 571/1/7
f 577/1/7 573/1/7 576/1/7
f 580/3/7 579/3/7 578/3/7
f 581/3/7 579/3/7 580/3/7
f 584/3/7 583/3/7 582/3/7
f 585/3/7 583/3/7 584/3/7
f 588/3/7 587/3/7 586/3/7
f 589/3/7 587/3/7 588/3/7
f 592/3/7 591/3/7 590/3/7
f 593/3/7 591/3/7 592/3/7
f 599/5/7 595/5/7 594/5/7
f 600/3/7 596/3/7 595/3/7
f 600/5/7 595/5/7 599/5/7
f 601/7/7 597/7/7 596/7/7
f 601/3/7 596/3/7 600/3/7
f 602/3/7 598/3/7 597/3/7
f 602/7/7 597/7/7 601/7/7
f 603/3/7 598/3/7 602/3/7
f 604/9/8 605/9/8 606/9/8
f 606/9/8 605/9/8 607/9/8
f 608/1/8 609/1/8 610/1/8
f 610/1/8 609/1/8 611/1/8
f 611/1/8 609/1/8 612/1/8
f 613/1/8 614/1/8 616/1/8
f 614/1/8 615/1/8 616/1/8
f 616/1/8 615/1/8 617/1/8
f 618/3/8 619/3/8 620/3/8
f 620/3/8 619/3/8 621/3/8
f 621/3/8 619/3/8 622/3/8
f 623/3/8 624/3/8 626/3/8
f 624/3/8 625/3/8 626/3/8
f 626/3/8 625/3/8 627/3/8
f 628/4/8 629/4/8 630/4/8
f 630/4/8 629/4/8 631/4/8
f 632/4/8 633/4/8 634/4/8
f 634/4/8 633/4/8 635/4/8
f 636/3/8 637/3/8 638/3/8
f 638/3/8 637/3/8 639/3/8
f 640/3/8 641/3/8 642/3/8
f 642/3/8 641/3/8 643/3/8
f 644/3/8 645/3/8 646/3/8
f 646/3/8 645/3/8 647/3/8
f 648/3/8 649/3/8 650/3/8
f 650/3/8 649/3/8 651/3/8
f 652/3/8 653/3/8 654/3/8
f 654/3/8 653/3/8 655/3/8
f 656/3/8 657/3/8 658/3/8
f 658/3/8 657/3/8 659/3/8
f 660/3/8 661/3/8 662/3/8
f 662/3/8 661/3/8 663/3/8
f 664/3/8 665/3/8 666/3/8
f 666/3/8 665/3/8 667/3/8
f 668/3/8 669/3/8 670/3/8
f 670/3/8 669/3/8 671/3/8
f 672/3/8 673/3/8 674/3/8
f 674/3/8 673/3/8 675/3/8
f 676/1/8 677/1/8 678/1/8
f 678/1/8 677/1/8 679/1/8
f 679/1/8 677/1/8 680/1/8
f 681/3/8 682/3/8 683/3/8
f 683/3/8 682/3/8 684/3/8
f 685/3/8 686/3/8 690/3/8
f 690/3/8 686/3/8 691/3/8
f 688/1/8 689/1/8 692/1/8
f 687/1/8 688/1/8 692/1/8
f 692/1/8 689/1/8 693/1/8
f 694/3/8 695/3/8 696/3/8
f 696/3/8 695/3/8 697/3/8
f 697/3/8 695/3/8 698/3/8
f 698/3/8 695/3/8 699/3/8
f 700/3/8 701/3/8 704/3/8
f 702/3/8 703/3/8 704/3/8
f 701/3/8 702/3/8 704/3/8
f 704/3/8 703/3/8 705/3/8
f 706/8/8 707/8/8 709/8/8
f 707/8/8 708/8/8 709/8/8
f 709/8/8 708/8/8 710/8/8
f 710/8/8 708/8/8 711/8/8
f 714/8/8 715/8/8 716/8/8
f 716/8/8 715/8/8 717/8/8
f 712/3/8 713/3/8 718/3/8
f 718/3/8 713/3/8 719/3/8
f 723/3/8 724/3/8 725/3/8
f 725/3/8 724/3/8 726/3/8
f 723/3/8 725/3/8 727/3/8
f 726/3/8 724/3/8 728/3/8
f 720/5/8 721/5/8 729/5/8
f 721/3/8 722/3/8 730/3/8
f 729/5/8 721/5/8 730/5/8
f 722/7/8 723/7/8 731/7/8
f 730/3/8 722/3/8 731/3/8
f 727/3/8 728/3/8 732/3/8
f 731/7/8 723/7/8 732/7/8
f 723/3/8 727/3/8 732/3/8
f 728/3/8 724/3/8 733/3/8
f 732/3/8 728/3/8 733/3/8
f 738/1/9 735/1/9 734/1/9
f 739/1/9 735/1/9 738/1/9
f 740/1/9 737/1/9 736/1/9
f 741/1/9 737/1/9 740/1/9
f 746/1/9 743/1/9 742/1/9
f 747/1/9 743/1/9 746/1/9
f 748/1/9 745/1/9 744/1/9
f 749/1/9 745/1/9 748/1/9
f 752/5/9 751/5/9 750/5/9
f 753/5/9 751/5/9 752/5/9
f 754/5/9 752/5/9 750/5/9
f 755/11/9 753/11/9 752/11/9
f 755/5/9 752/5/9 754/5/9
f 756/11/9 753/11/9 755/11/9
f 757/11/9 753/11/9 756/11/9
f 758/5/9 751/5/9 753/5/9
f 758/11/9 753/11/9 757/11/9
f 759/5/9 751/5/9 758/5/9
f 760/5/9 755/5/9 754/5/9
f 760/5/9 756/5/9 755/5/9
f 761/5/9 756/5/9 760/5/9
f 762/11/9 757/11/9 756/11/9
f 762/5/9 756/5/9 761/5/9
f 763/11/9 757/11/9 762/11/9
f 764/11/9 757/11/9 763/11/9
f 765/5/9 759/5/9 758/5/9
f 765/11/9 757/11/9 764/11/9
f 765/5/9 758/5/9 757/5/9
f 766/5/9 759/5/9 765/5/9
f 767/5/9 759/5/9 766/5/9
f 768/11/9 761/11/9 760/11/9
f 768/5/9 763/5/9 762/5/9
f 768/5/9 762/5/9 761/5/9
f 769/11/9 764/11/9 763/11/9
f 769/5/9 763/5/9 768/5/9
f 770/5/9 766/5/9 765/5/9
f 770/11/9 764/11/9 769/11/9
f 770/5/9 765/5/9 764/5/9
f 771/11/9 767/11/9 766/11/9
f 771/5/9 766/5/9 770/5/9
f 772/11/9 770/11/9 769/11/9
f 772/11/9 768/11/9 760/11/9
f 772/11/9 771/11/9 770/11/9
f 772/11/9 769/11/9 768/11/9
f 773/11/9 771/11/9 772/11/9
f 774/11/9 771/11/9 773/11/9
f 775/11/9 767/11/9 771/11/9
f 775/11/9 771/11/9 774/11/9
f 776/11/9 772/11/9 760/11/9
f 777/5/9 773/5/9 772/5/9
f 777/11/9 772/11/9 776/11/9
f 778/11/9 767/11/9 775/11/9
f 778/5/9 775/5/9 774/5/9
f 779/11/9 767/11/9 778/11/9
f 780/5/9 777/5/9 776/5/9
f 781/5/9 779/5/9 778/5/9
f 782/5/9 781/5/9 778/5/9
f 782/5/9 778/5/9 774/5/9
f 783/5/9 781/5/9 782/5/9
f 784/5/9 777/5/9 780/5/9
f 784/5/9 773/5/9 777/5/9
f 785/5/9 773/5/9 784/5/9
f 786/11/9 785/11/9 784/11/9
f 786/5/9 784/5/9 780/5/9
f 787/5/9 773/5/9 785/5/9
f 787/11/9 785/11/9 786/11/9
f 788/5/9 781/5/9 783/5/9
f 789/5/9 781/5/9 788/5/9
f 790/5/9 786/5/9 780/5/9
f 790/5/9 787/5/9 786/5/9
f 791/5/9 773/5/9 787/5/9
f 791/5/9 787/5/9 790/5/9
f 792/5/9 781/5/9 789/5/9
f 793/5/9 781/5/9 792/5/9
f 794/5/9 790/5/9 780/5/9
f 794/11/9 791/11/9 790/11/9
f 795/5/9 773/5/9 791/5/9
f 795/11/9 791/11/9 794/11/9
f 796/5/9 794/5/9 780/5/9
f 796/5/9 795/5/9 794/5/9
f 797/5/9 773/5/9 795/5/9
f 797/5/9 795/5/9 796/5/9
f 798/5/9 796/5/9 780/5/9
f 798/11/9 797/11/9 796/11/9
f 799/5/9 773/5/9 797/5/9
f 799/11/9 797/11/9 798/11/9
f 800/5/9 798/5/9 780/5/9
f 800/5/9 799/5/9 798/5/9
f 801/5/9 773/5/9 799/5/9
f 801/5/9 799/5/9 800/5/9
f 802/5/9 800/5/9 780/5/9
f 802/11/9 801/11/9 800/11/9
f 803/5/9 773/5/9 801/5/9
f 803/11/9 801/11/9 802/11/9
f 804/5/9 802/5/9 780/5/9
f 804/5/9 803/5/9 802/5/9
f 805/5/9 773/5/9 803/5/9
f 805/5/9 803/5/9 804/5/9
f 806/11/9 793/11/9 792/11/9
f 806/5/9 792/5/9 789/5/9
f 807/5/9 781/5/9 793/5/9
f 807/11/9 793/11/9 806/11/9
f 808/5/9 804/5/9 780/5/9
f 808/11/9 805/11/9 804/11/9
f 809/5/9 773/5/9 805/5/9
f 809/11/9 805/11/9 808/11/9
f 810/11/9 789/11/9 788/11/9
f 810/5/9 788/5/9 783/5/9
f 811/5/9 806/5/9 789/5/9
f 811/11/9 789/11/9 810/11/9
f 811/5/9 807/5/9 806/5/9
f 812/5/9 809/5/9 808/5/9
f 812/5/9 808/5/9 780/5/9
f 813/11/9 783/11/9 782/11/9
f 813/5/9 782/5/9 774/5/9
f 814/5/9 811/5/9 810/5/9
f 814/11/9 783/11/9 813/11/9
f 814/5/9 810/5/9 783/5/9
f 815/5/9 807/5/9 811/5/9
f 815/5/9 811/5/9 814/5/9
f 815/5/9 781/5/9 807/5/9
f 816/5/9 809/5/9 812/5/9
f 817/5/9 809/5/9 816/5/9
f 818/5/9 814/5/9 813/5/9
f 818/5/9 815/5/9 814/5/9
f 819/5/9 815/5/9 818/5/9
f 820/5/9 809/5/9 817/5/9
f 820/11/9 817/11/9 816/11/9
f 821/11/9 774/11/9 773/11/9
f 821/5/9 809/5/9 820/5/9
f 821/5/9 773/5/9 809/5/9
f 822/5/9 813/5/9 774/5/9
f 822/11/9 774/11/9 821/11/9
f 822/5/9 818/5/9 813/5/9
f 823/11/9 819/11/9 818/11/9
f 823/5/9 818/5/9 822/5/9
f 824/11/9 820/11/9 816/11/9
f 824/11/9 821/11/9 820/11/9
f 824/11/9 823/11/9 822/11/9
f 824/11/9 822/11/9 821/11/9
f 825/11/9 823/11/9 824/11/9
f 826/11/9 823/11/9 825/11/9
f 827/11/9 819/11/9 823/11/9
f 827/11/9 823/11/9 826/11/9
f 828/11/9 824/11/9 816/11/9
f 829/5/9 825/5/9 824/5/9
f 829/11/9 824/11/9 828/11/9
f 830/11/9 819/11/9 827/11/9
f 830/5/9 827/5/9 826/5/9
f 831/11/9 819/11/9 830/11/9
f 832/5/9 829/5/9 828/5/9
f 833/5/9 831/5/9 830/5/9
f 834/5/9 829/5/9 832/5/9
f 834/5/9 825/5/9 829/5/9
f 835/11/9 826/11/9 825/11/9
f 835/5/9 825/5/9 834/5/9
f 836/5/9 830/5/9 826/5/9
f 836/11/9 826/11/9 835/11/9
f 836/5/9 833/5/9 830/5/9
f 837/5/9 833/5/9 836/5/9
f 838/11/9 837/11/9 836/11/9
f 838/5/9 834/5/9 832/5/9
f 838/11/9 835/11/9 834/11/9
f 838/11/9 836/11/9 835/11/9
f 839/5/9 833/5/9 837/5/9
f 839/11/9 837/11/9 838/11/9
f 840/5/9 838/5/9 832/5/9
f 840/5/9 839/5/9 838/5/9
f 841/5/9 833/5/9 839/5/9
f 841/5/9 839/5/9 840/5/9
f 846/3/9 843/3/9 842/3/9
f 847/3/9 843/3/9 846/3/9
f 848/3/9 845/3/9 844/3/9
f 849/3/9 845/3/9 848/3/9
f 854/3/9 851/3/9 850/3/9
f 855/3/9 851/3/9 854/3/9
f 856/3/9 853/3/9 852/3/9
f 857/3/9 853/3/9 856/3/9
f 862/3/9 859/3/9 858/3/9
f 863/3/9 859/3/9 862/3/9
f 864/3/9 861/3/9 860/3/9
f 865/3/9 861/3/9 864/3/9
f 870/3/9 867/3/9 866/3/9
f 871/3/9 867/3/9 870/3/9
f 872/3/9 869/3/9 868/3/9
f 873/3/9 869/3/9 872/3/9
f 878/4/9 875/4/9 874/4/9
f 879/4/9 875/4/9 878/4/9
f 880/4/9 877/4/9 876/4/9
f 881/4/9 877/4/9 880/4/9
f 884/8/9 883/8/9 882/8/9
f 885/8/9 883/8/9 884/8/9
f 890/3/9 887/3/9 886/3/9
f 891/3/9 887/3/9 890/3/9
f 892/3/9 889/3/9 888/3/9
f 893/3/9 889/3/9 892/3/9
f 898/3/9 895/3/9 894/3/9
f 899/3/9 895/3/9 898/3/9
f 900/3/9 897/3/9 896/3/9
f 901/3/9 897/3/9 900/3/9
f 906/3/9 903/3/9 902/3/9
f 907/3/9 903/3/9 906/3/9
f 908/3/9 905/3/9 904/3/9
f 909/3/9 905/3/9 908/3/9
f 914/3/9 911/3/9 910/3/9
f 915/3/9 911/3/9 914/3/9
f 916/3/9 913/3/9 912/3/9
f 917/3/9 913/3/9 916/3/9
f 922/3/9 919/3/9 918/3/9
f 923/3/9 919/3/9 922/3/9
f 924/3/9 921/3/9 920/3/9
f 925/3/9 921/3/9 924/3/9
f 930/3/9 927/3/9 926/3/9
f 931/3/9 927/3/9 930/3/9
f 932/3/9 929/3/9 928/3/9
f 933/3/9 929/3/9 932/3/9
f 936/3/9 935/3/9 934/3/9
f 937/3/9 935/3/9 936/3/9
f 940/3/9 939/3/9 938/3/9
f 941/3/9 939/3/9 940/3/9
f 942/5/10 943/5/10 944/5/10
f 944/5/10 943/5/10 945/5/10
f 946/11/10 947/11/10 948/11/10
f 948/11/10 947/11/10 949/11/10
f 950/3/10 951/3/10 954/3/10
f 954/3/10 951/3/10 955/3/10
f 952/3/10 953/3/10 956/3/10
f 956/3/10 953/3/10 957/3/10
f 958/3/10 959/3/10 962/3/10
f 960/3/10 961/3/10 963/3/10
f 958/3/10 962/3/10 964/3/10
f 963/3/10 961/3/10 965/3/10
f 958/3/10 964/3/10 966/3/10
f 965/3/10 961/3/10 967/3/10
f 967/3/10 961/3/10 968/3/10
f 968/3/10 961/3/10 969/3/10
f 969/3/10 961/3/10 970/3/10
f 958/3/10 966/3/10 971/3/10
f 971/3/10 966/3/10 972/3/10
f 970/3/10 961/3/10 973/3/10
f 973/3/10 961/3/10 974/3/10
f 975/3/10 976/3/10 977/3/10
f 977/3/10 976/3/10 978/3/10
f 975/3/10 977/3/10 979/3/10
f 978/3/10 976/3/10 980/3/10
f 979/3/10 980/3/10 981/3/10
f 981/3/10 980/3/10 982/3/10
f 975/3/10 979/3/10 983/3/10
f 979/3/10 981/3/10 983/3/10
f 983/3/10 981/3/10 984/3/10
f 982/3/10 980/3/10 985/3/10
f 980/3/10 976/3/10 986/3/10
f 985/3/10 980/3/10 986/3/10
f 987/9/10 988/9/10 989/9/10
f 989/9/10 988/9/10 990/9/10
f 991/3/10 992/3/10 994/3/10
f 994/3/10 992/3/10 995/3/10
f 993/3/10 994/3/10 997/3/10
f 995/3/10 996/3/10 997/3/10
f 994/3/10 995/3/10 997/3/10
f 997/3/10 996/3/10 998/3/10
f 999/3/10 1000/3/10 1003/3/10
f 1003/3/10 1000/3/10 1004/3/10
f 1001/3/10 1002/3/10 1005/3/10
f 1005/3/10 1002/3/10 1006/3/10
f 1007/3/10 1008/3/10 1011/3/10
f 1011/3/10 1008/3/10 1012/3/10
f 1009/3/10 1010/3/10 1013/3/10
f 1013/3/10 1010/3/10 1014/3/10
f 1015/3/10 1016/3/10 1019/3/10
f 1019/3/10 1016/3/10 1020/3/10
f 1017/3/10 1018/3/10 1021/3/10
f 1021/3/10 1018/3/10 1022/3/10
f 1023/3/10 1024/3/10 1027/3/10
f 1027/3/10 1024/3/10 1028/3/10
f 1025/3/10 1026/3/10 1029/3/10
f 1029/3/10 1026/3/10 1030/3/10
f 1031/3/10 1032/3/10 1035/3/10
f 1035/3/10 1032/3/10 1036/3/10
f 1033/3/10 1034/3/10 1037/3/10
f 1037/3/10 1034/3/10 1038/3/10
f 1039/3/10 1040/3/10 1043/3/10
f 1043/3/10 1040/3/10 1044/3/10
f 1041/3/10 1042/3/10 1045/3/10
f 1045/3/10 1042/3/10 1046/3/10
f 1047/3/10 1048/3/10 1049/3/10
f 1049/3/10 1048/3/10 1050/3/10
f 1051/4/10 1052/4/10 1055/4/10
f 1055/4/10 1052/4/10 1056/4/10
f 1053/4/10 1054/4/10 1057/4/10
f 1057/4/10 1054/4/10 1058/4/10
f 1059/3/10 1060/3/10 1063/3/10
f 1061/3/10 1062/3/10 1064/3/10
f 1059/3/10 1063/3/10 1065/3/10
f 1063/3/10 1064/3/10 1065/3/10
f 1064/3/10 1062/3/10 1066/3/10
f 1065/3/10 1064/3/10 1066/3/10
f 1067/3/10 1068/3/10 1069/3/10
f 1069/3/10 1068/3/10 1070/3/10
