# Blender 5.1.0
# www.blender.org
mtllib sign001.mtl
o sign.001
v -0.011842 -0.098832 -0.447744
v -0.011842 11.774349 -0.447744
v 0.257032 -0.098832 -0.292509
v 0.257032 11.774349 -0.292509
v 0.257032 -0.098832 0.017959
v 0.257032 11.774349 0.017959
v -0.011842 -0.098832 0.173194
v -0.011842 11.774349 0.173194
v -0.280716 -0.098832 0.017959
v -0.280716 11.774349 0.017959
v -0.280716 -0.098832 -0.292509
v -0.280716 11.774349 -0.292509
v -0.011842 8.709707 -0.447744
v 0.257032 8.709707 -0.292509
v 0.257032 8.709707 0.017959
v -0.011842 8.709707 0.173194
v -0.280716 8.709707 0.017959
v -0.280716 8.709707 -0.292509
v -0.011842 8.998405 -0.447744
v 0.257032 8.998405 -0.292509
v 0.257032 8.998405 0.017959
v -0.011842 8.998405 0.173194
v -0.280716 8.998405 0.017959
v -0.280716 8.998405 -0.292509
v -0.011842 10.237873 -0.447744
v -0.011842 10.534880 -0.447744
v 0.257032 10.534880 -0.292509
v 0.257032 10.237873 -0.292509
v 0.257032 10.534880 0.017959
v 0.257032 10.237873 0.017959
v -0.011842 10.534880 0.173194
v -0.011842 10.237873 0.173194
v -0.280716 10.534880 0.017959
v -0.280716 10.237873 0.017959
v -0.280716 10.534880 -0.292509
v -0.280716 10.237873 -0.292509
v 0.372005 9.008647 -0.309105
v 0.372005 8.699465 -0.309105
v 0.372005 9.008647 0.134124
v 0.372005 8.699465 0.134124
v -0.395689 9.008647 0.134124
v -0.395689 8.699465 0.134124
v -0.395689 9.008647 -0.309104
v -0.395689 8.699465 -0.309104
v -0.011842 8.699465 -0.530718
v -0.011842 9.008647 -0.530718
v -0.011842 10.227337 -0.530718
v -0.011842 10.545416 -0.530718
v 0.372005 10.545416 -0.309105
v 0.372005 10.227337 -0.309105
v 0.372005 10.545416 0.134124
v 0.372005 10.227337 0.134124
v -0.395689 10.545416 0.134124
v -0.395689 10.227337 0.134124
v -0.395689 10.545416 -0.309105
v -0.395689 10.227337 -0.309105
v 0.031578 11.144736 0.500219
v -1.699815 8.107893 0.500219
v 1.762971 8.107893 0.500219
v -1.961049 8.010155 0.165661
v -1.866351 8.017135 0.089879
v -1.916339 7.951017 0.165661
v 1.979496 7.951017 0.165661
v 1.929508 8.017135 0.089879
v 2.024206 8.010155 0.165661
v -0.004593 11.414958 0.165661
v 0.067750 11.414958 0.165661
v 0.031578 11.326252 0.089879
v -1.916339 7.951017 0.608114
v -1.699815 8.107893 0.683895
v -1.961049 8.010155 0.608114
v 1.979496 7.951017 0.608114
v 2.024206 8.010155 0.608114
v 1.762971 8.107893 0.683895
v -0.004593 11.414958 0.608114
v 0.031578 11.144736 0.683895
v 0.067750 11.414958 0.608114
vn 0.5000 -0.0000 -0.8660
vn 1.0000 -0.0000 -0.0000
vn 0.5000 -0.0000 0.8660
vn -0.5000 -0.0000 0.8660
vn -0.0000 1.0000 -0.0000
vn -1.0000 -0.0000 -0.0000
vn -0.5000 -0.0000 -0.8660
vn -0.0000 -1.0000 -0.0000
vn -0.0913 -0.9958 -0.0000
vn -0.7107 -0.0000 0.7035
vn 0.0725 -0.9894 0.1256
vn 0.0706 -0.9900 0.1222
vn 0.0887 0.9961 -0.0000
vn 0.7107 -0.0000 0.7035
vn -0.0706 -0.9900 0.1222
vn 0.0887 -0.9961 -0.0000
vn -0.0887 0.9961 -0.0000
vn 0.0725 0.9894 0.1256
vn -0.0913 0.9958 -0.0000
vn -0.0706 0.9900 0.1222
vn 0.0913 -0.9958 -0.0000
vn -0.0725 -0.9894 0.1256
vn 0.0913 0.9958 -0.0000
vn -0.0725 0.9894 0.1256
vn -0.0887 -0.9961 -0.0000
vn 0.0706 0.9900 0.1222
vn -0.8687 -0.4953 -0.0000
vn 0.8670 0.4982 -0.0000
vn -0.0000 -0.0000 -1.0000
vn -0.5495 -0.4154 -0.7249
vn 0.5495 -0.4154 -0.7249
vn -0.0000 0.6495 -0.7603
vn -0.2176 -0.1645 0.9621
vn 0.2176 -0.1645 0.9621
vn -0.0000 0.2700 0.9629
vn -0.6080 0.3490 -0.7131
vn -0.0000 -0.7535 -0.6574
vn -0.0000 -0.4350 0.9004
vn -0.3501 0.2004 0.9150
vn 0.6080 0.3490 -0.7131
vn 0.3501 0.2004 0.9150
vn 0.7977 -0.6031 -0.0000
vn -0.7977 -0.6031 -0.0000
vn -0.8670 0.4982 -0.0000
vn 0.8687 -0.4953 -0.0000
vt 0.676834 0.608506
vt 0.676834 0.644317
vt 0.679190 0.644317
vt 0.679190 0.608506
vt 0.674478 0.644317
vt 0.674478 0.608506
vt 0.676834 0.212710
vt 0.679190 0.212710
vt 0.674478 0.212710
vt 0.674478 0.525711
vt 0.676834 0.525711
vt 0.674478 0.525711
vt 0.679190 0.525711
vt 0.682553 0.456791
vt 0.679190 0.572695
vt 0.676834 0.536884
vt 0.674478 0.536884
vt 0.679190 0.536884
vt 0.680198 0.456791
vt 0.677842 0.456791
vt 0.680198 0.409807
vt 0.677842 0.409807
vt 0.674478 0.572695
vt 0.676834 0.572695
vt 0.676497 0.426924
vt 0.682553 0.409807
vt 0.306618 0.347018
vt 0.306618 0.358192
vt 0.308974 0.358192
vt 0.308974 0.347018
vt 0.306618 0.347019
vt 0.306618 0.358192
vt 0.311329 0.347019
vt 0.311329 0.358192
vt 0.306618 0.394003
vt 0.306618 0.429814
vt 0.308974 0.429814
vt 0.308974 0.394003
vt 0.306618 0.394003
vt 0.306618 0.429814
vt 0.311329 0.394003
vt 0.311329 0.429814
vt 0.677842 0.409807
vt 0.681208 0.426924
vt 0.676497 0.498546
vt 0.678852 0.498546
vt 0.681208 0.498546
vt 0.678852 0.426924
vt 0.154128 0.123361
vt 0.203087 0.123361
vt 0.197934 0.108724
vt 0.176176 0.224539
vt 0.203649 0.128762
vt 0.179062 0.439709
vt 0.167692 0.110279
vt 0.184488 0.323093
vt 0.201284 0.110279
vt 0.166854 0.109830
vt 0.167250 0.106027
vt 0.201726 0.106027
vt 0.202122 0.109830
vt 0.184168 0.328798
vt 0.184808 0.328798
vt 0.152912 0.412782
vt 0.155633 0.418764
vt 0.152350 0.415037
vt 0.201871 0.412782
vt 0.202433 0.415037
vt 0.199150 0.418764
vt 0.176937 0.544885
vt 0.177392 0.534580
vt 0.177846 0.544885
vt 0.178153 0.439709
vt 0.153566 0.128762
vt 0.154418 0.108724
s 0
usemtl Material.001
f 26/1/1 2/2/1 4/3/1 27/4/1
f 27/4/2 4/3/2 6/3/2 29/4/2
f 29/4/3 6/3/3 8/2/3 31/1/3
f 31/1/4 8/2/4 10/5/4 33/6/4
f 4/3/5 2/2/5 12/5/5 10/5/5 8/2/5 6/3/5
f 33/6/6 10/5/6 12/5/6 35/6/6
f 35/6/7 12/5/7 2/2/7 26/1/7
f 1/7/8 3/8/8 5/8/8 7/7/8 9/9/8 11/9/8
f 11/9/7 18/10/7 13/11/7 1/7/7
f 9/9/6 17/12/6 18/10/6 11/9/6
f 7/7/4 16/11/4 17/12/4 9/9/4
f 5/8/3 15/13/3 16/11/3 7/7/3
f 3/8/2 14/13/2 15/13/2 5/8/2
f 1/7/1 13/11/1 14/13/1 3/8/1
f 30/14/9 28/14/9 50/14/9 52/14/9
f 29/4/10 30/15/10 52/15/10 51/4/10
f 16/11/4 22/16/4 23/17/4 17/12/4
f 15/13/3 21/18/3 22/16/3 16/11/3
f 25/19/11 36/20/11 56/20/11 47/19/11
f 13/21/12 18/22/12 44/22/12 45/21/12
f 24/17/7 36/23/7 25/24/7 19/16/7
f 23/25/13 24/25/13 43/25/13 41/25/13
f 23/17/6 34/23/6 36/23/6 24/17/6
f 17/12/14 23/17/14 41/17/14 42/12/14
f 22/16/4 32/24/4 34/23/4 23/17/4
f 32/24/4 31/1/4 33/6/4 34/23/4
f 21/18/3 30/15/3 32/24/3 22/16/3
f 30/15/3 29/4/3 31/1/3 32/24/3
f 20/18/2 28/15/2 30/15/2 21/18/2
f 14/26/15 13/21/15 45/21/15 38/26/15
f 19/16/1 25/24/1 28/15/1 20/18/1
f 34/23/14 33/6/14 53/6/14 54/23/14
f 44/27/7 43/28/7 46/29/7 45/30/7
f 42/31/6 41/32/6 43/28/6 44/27/6
f 38/33/2 37/34/2 39/34/2 40/33/2
f 45/30/1 46/29/1 37/34/1 38/33/1
f 56/35/7 55/36/7 48/37/7 47/38/7
f 54/39/6 53/40/6 55/36/6 56/35/6
f 50/41/2 49/42/2 51/42/2 52/41/2
f 47/38/1 48/37/1 49/42/1 50/41/1
f 18/22/16 17/43/16 42/43/16 44/22/16
f 20/44/17 21/44/17 39/44/17 37/44/17
f 35/45/18 26/46/18 48/46/18 55/45/18
f 27/47/19 29/47/19 51/47/19 49/47/19
f 19/48/20 20/44/20 37/44/20 46/48/20
f 36/20/21 34/20/21 54/20/21 56/20/21
f 28/14/22 25/19/22 47/19/22 50/14/22
f 33/45/23 35/45/23 55/45/23 53/45/23
f 21/18/10 15/13/10 40/13/10 39/18/10
f 26/46/24 27/47/24 49/47/24 48/46/24
f 15/26/25 14/26/25 38/26/25 40/26/25
f 24/25/26 19/48/26 46/48/26 43/25/26
f 62/49/8 63/50/8 72/50/8 69/49/8
f 74/51/27 76/52/27 57/52/27 59/51/27
f 65/53/28 67/54/28 77/54/28 73/53/28
f 61/55/29 68/56/29 64/57/29
f 60/58/30 61/55/30 62/59/30
f 63/60/31 64/57/31 65/61/31
f 66/62/32 67/63/32 68/56/32
f 69/64/33 70/65/33 71/66/33
f 72/67/34 73/68/34 74/69/34
f 75/70/35 76/71/35 77/72/35
f 68/56/36 61/55/36 60/58/36 66/62/36
f 61/55/37 64/57/37 63/60/37 62/59/37
f 69/64/38 72/67/38 74/69/38 70/65/38
f 75/70/39 71/66/39 70/65/39 76/71/39
f 64/57/40 68/56/40 67/63/40 65/61/40
f 73/68/41 77/72/41 76/71/41 74/69/41
f 66/73/5 75/73/5 77/54/5 67/54/5
f 72/50/42 63/50/42 65/53/42 73/53/42
f 71/74/43 60/74/43 62/49/43 69/49/43
f 66/73/44 60/74/44 71/74/44 75/73/44
f 76/52/45 70/75/45 58/75/45 57/52/45
f 70/75/5 74/51/5 59/51/5 58/75/5
