# Blender 5.1.0
# www.blender.org
mtllib sign002.mtl
o sign.002
v 0.005467 -0.111103 -0.464526
v 0.005467 11.762077 -0.464526
v 0.274341 -0.111103 -0.309292
v 0.274341 11.762077 -0.309292
v 0.274341 -0.111103 0.001177
v 0.274341 11.762077 0.001177
v 0.005467 -0.111103 0.156411
v 0.005467 11.762077 0.156411
v -0.263407 -0.111103 0.001177
v -0.263407 11.762077 0.001177
v -0.263407 -0.111103 -0.309292
v -0.263407 11.762077 -0.309292
v 0.005467 8.697436 -0.464526
v 0.274341 8.697436 -0.309292
v 0.274341 8.697436 0.001177
v 0.005467 8.697436 0.156411
v -0.263407 8.697436 0.001177
v -0.263407 8.697436 -0.309292
v 0.005467 8.986134 -0.464526
v 0.274341 8.986134 -0.309292
v 0.274341 8.986134 0.001177
v 0.005467 8.986134 0.156411
v -0.263407 8.986134 0.001177
v -0.263407 8.986134 -0.309292
v 0.005467 10.225602 -0.464526
v 0.005467 10.522609 -0.464526
v 0.274341 10.522609 -0.309292
v 0.274341 10.225602 -0.309292
v 0.274341 10.522609 0.001177
v 0.274341 10.225602 0.001177
v 0.005467 10.522609 0.156411
v 0.005467 10.225602 0.156411
v -0.263407 10.522609 0.001177
v -0.263407 10.225602 0.001177
v -0.263407 10.522609 -0.309292
v -0.263407 10.225602 -0.309292
v 0.389314 8.996376 -0.325887
v 0.389314 8.687194 -0.325887
v 0.389314 8.996376 0.117341
v 0.389314 8.687194 0.117341
v -0.378380 8.996376 0.117341
v -0.378380 8.687194 0.117341
v -0.378380 8.996376 -0.325887
v -0.378380 8.687194 -0.325887
v 0.005467 8.687194 -0.547501
v 0.005467 8.996376 -0.547501
v 0.005467 10.215066 -0.547501
v 0.005467 10.533145 -0.547501
v 0.389314 10.533145 -0.325887
v 0.389314 10.215066 -0.325887
v 0.389314 10.533145 0.117341
v 0.389314 10.215066 0.117341
v -0.378380 10.533145 0.117341
v -0.378380 10.215066 0.117341
v -0.378380 10.533145 -0.325887
v -0.378380 10.215066 -0.325887
v -1.456831 7.962781 0.478164
v -1.456831 8.153788 0.497440
v -1.647838 8.153788 0.478164
v -1.456831 11.045581 0.497440
v -1.456831 11.236588 0.478164
v -1.647838 11.045581 0.478164
v -1.456831 7.962781 0.186328
v -1.647838 8.153788 0.186328
v -1.456831 8.153788 0.167052
v -1.456831 11.236588 0.186328
v -1.456831 11.045581 0.167052
v -1.647838 11.045581 0.186328
v 1.434963 7.962781 0.478164
v 1.625969 8.153788 0.478164
v 1.434963 8.153788 0.497440
v 1.434963 11.236588 0.478164
v 1.434963 11.045581 0.497440
v 1.625969 11.045581 0.478164
v 1.434963 7.962781 0.186328
v 1.434963 8.153788 0.167052
v 1.625969 8.153788 0.186328
v 1.434963 11.236588 0.186328
v 1.625969 11.045581 0.186328
v 1.434963 11.045581 0.167052
v -1.456831 8.153788 0.357638
v -1.456831 11.045581 0.357638
v 1.434963 11.045581 0.357638
v 1.434963 8.153788 0.357638
vn 0.5000 -0.0000 -0.8660
vn 1.0000 -0.0000 -0.0000
vn 0.5000 -0.0000 0.8660
vn -0.5000 -0.0000 0.8660
vn -0.0000 1.0000 -0.0000
vn -1.0000 -0.0000 -0.0000
vn -0.5000 -0.0000 -0.8660
vn -0.0000 -1.0000 -0.0000
vn -0.0913 -0.9958 -0.0000
vn -0.7107 -0.0000 0.7035
vn 0.0725 -0.9894 0.1256
vn 0.0706 -0.9900 0.1222
vn 0.0887 0.9961 -0.0000
vn 0.7107 -0.0000 0.7035
vn -0.0706 -0.9900 0.1222
vn 0.0887 -0.9961 -0.0000
vn -0.0887 0.9961 -0.0000
vn 0.0725 0.9894 0.1256
vn -0.0913 0.9958 -0.0000
vn -0.0706 0.9900 0.1222
vn 0.0913 -0.9958 -0.0000
vn -0.0725 -0.9894 0.1256
vn 0.0913 0.9958 -0.0000
vn -0.0725 0.9894 0.1256
vn -0.0887 -0.9961 -0.0000
vn 0.0706 0.9900 0.1222
vn -0.0000 -0.0000 -1.0000
vn -0.0999 -0.0999 0.9900
vn -0.0999 0.0999 0.9900
vn -0.0999 -0.0999 -0.9900
vn -0.0999 0.0999 -0.9900
vn 0.0999 -0.0999 0.9900
vn 0.0999 0.0999 0.9900
vn 0.0999 -0.0999 -0.9900
vn 0.0999 0.0999 -0.9900
vn -0.7071 -0.7071 -0.0000
vn -0.1004 -0.0000 0.9949
vn -0.7071 0.7071 -0.0000
vn -0.1004 -0.0000 -0.9949
vn -0.0000 -0.1004 -0.9949
vn -0.0000 0.1004 -0.9949
vn 0.1004 -0.0000 -0.9949
vn 0.7071 -0.7071 -0.0000
vn 0.7071 0.7071 -0.0000
vn 0.1004 -0.0000 0.9949
vn -0.0000 -0.1004 0.9949
vn -0.0000 0.1004 0.9949
vt 0.676834 0.608506
vt 0.676834 0.644317
vt 0.679190 0.644317
vt 0.679190 0.608506
vt 0.674478 0.644317
vt 0.674478 0.608506
vt 0.676834 0.212710
vt 0.679190 0.212710
vt 0.674478 0.212710
vt 0.674478 0.525711
vt 0.676834 0.525711
vt 0.674478 0.525711
vt 0.679190 0.525711
vt 0.682553 0.456791
vt 0.679190 0.572695
vt 0.676834 0.536884
vt 0.674478 0.536884
vt 0.679190 0.536884
vt 0.680198 0.456791
vt 0.677842 0.456791
vt 0.680198 0.409807
vt 0.677842 0.409807
vt 0.674478 0.572695
vt 0.676834 0.572695
vt 0.676497 0.426924
vt 0.682553 0.409807
vt 0.306618 0.347018
vt 0.306618 0.358192
vt 0.308974 0.358192
vt 0.308974 0.347018
vt 0.306618 0.347019
vt 0.306618 0.358192
vt 0.311329 0.347019
vt 0.311329 0.358192
vt 0.306618 0.394003
vt 0.306618 0.429814
vt 0.308974 0.429814
vt 0.308974 0.394003
vt 0.306618 0.394003
vt 0.306618 0.429814
vt 0.311329 0.394003
vt 0.311329 0.429814
vt 0.677842 0.409807
vt 0.681208 0.426924
vt 0.676497 0.498546
vt 0.678852 0.498546
vt 0.681208 0.498546
vt 0.678852 0.426924
vt 0.321886 0.070358
vt 0.338673 0.070358
vt 0.312512 0.084214
vt 0.312512 0.464757
vt 0.310483 0.489893
vt 0.279764 0.489893
vt 0.277735 0.084214
vt 0.277735 0.464757
vt 0.286113 0.068348
vt 0.286113 0.339998
vt 0.308041 0.339998
vt 0.308041 0.068348
vt 0.286565 0.393498
vt 0.286565 0.410141
vt 0.285222 0.410141
vt 0.286565 0.662115
vt 0.286565 0.678759
vt 0.285222 0.662115
vt 0.286113 0.050405
vt 0.284664 0.068348
vt 0.286113 0.357941
vt 0.284664 0.339998
vt 0.306905 0.393498
vt 0.308249 0.410141
vt 0.306905 0.410141
vt 0.306905 0.678759
vt 0.306905 0.662115
vt 0.308249 0.662115
vt 0.308041 0.050405
vt 0.309489 0.068348
vt 0.308041 0.357941
vt 0.309489 0.339998
vt 0.279764 0.059078
vt 0.310483 0.059078
vt 0.321886 0.278317
vt 0.338673 0.278317
s 0
usemtl Material.001
f 26/1/1 2/2/1 4/3/1 27/4/1
f 27/4/2 4/3/2 6/3/2 29/4/2
f 29/4/3 6/3/3 8/2/3 31/1/3
f 31/1/4 8/2/4 10/5/4 33/6/4
f 4/3/5 2/2/5 12/5/5 10/5/5 8/2/5 6/3/5
f 33/6/6 10/5/6 12/5/6 35/6/6
f 35/6/7 12/5/7 2/2/7 26/1/7
f 1/7/8 3/8/8 5/8/8 7/7/8 9/9/8 11/9/8
f 11/9/7 18/10/7 13/11/7 1/7/7
f 9/9/6 17/12/6 18/10/6 11/9/6
f 7/7/4 16/11/4 17/12/4 9/9/4
f 5/8/3 15/13/3 16/11/3 7/7/3
f 3/8/2 14/13/2 15/13/2 5/8/2
f 1/7/1 13/11/1 14/13/1 3/8/1
f 30/14/9 28/14/9 50/14/9 52/14/9
f 29/4/10 30/15/10 52/15/10 51/4/10
f 16/11/4 22/16/4 23/17/4 17/12/4
f 15/13/3 21/18/3 22/16/3 16/11/3
f 25/19/11 36/20/11 56/20/11 47/19/11
f 13/21/12 18/22/12 44/22/12 45/21/12
f 24/17/7 36/23/7 25/24/7 19/16/7
f 23/25/13 24/25/13 43/25/13 41/25/13
f 23/17/6 34/23/6 36/23/6 24/17/6
f 17/12/14 23/17/14 41/17/14 42/12/14
f 22/16/4 32/24/4 34/23/4 23/17/4
f 32/24/4 31/1/4 33/6/4 34/23/4
f 21/18/3 30/15/3 32/24/3 22/16/3
f 30/15/3 29/4/3 31/1/3 32/24/3
f 20/18/2 28/15/2 30/15/2 21/18/2
f 14/26/15 13/21/15 45/21/15 38/26/15
f 19/16/1 25/24/1 28/15/1 20/18/1
f 34/23/14 33/6/14 53/6/14 54/23/14
f 44/27/7 43/28/7 46/29/7 45/30/7
f 42/31/6 41/32/6 43/28/6 44/27/6
f 38/33/2 37/34/2 39/34/2 40/33/2
f 45/30/1 46/29/1 37/34/1 38/33/1
f 56/35/7 55/36/7 48/37/7 47/38/7
f 54/39/6 53/40/6 55/36/6 56/35/6
f 50/41/2 49/42/2 51/42/2 52/41/2
f 47/38/1 48/37/1 49/42/1 50/41/1
f 18/22/16 17/43/16 42/43/16 44/22/16
f 20/44/17 21/44/17 39/44/17 37/44/17
f 35/45/18 26/46/18 48/46/18 55/45/18
f 27/47/19 29/47/19 51/47/19 49/47/19
f 19/48/20 20/44/20 37/44/20 46/48/20
f 36/20/21 34/20/21 54/20/21 56/20/21
f 28/14/22 25/19/22 47/19/22 50/14/22
f 33/45/23 35/45/23 55/45/23 53/45/23
f 21/18/10 15/13/10 40/13/10 39/18/10
f 26/46/24 27/47/24 49/47/24 48/46/24
f 15/26/25 14/26/25 38/26/25 40/26/25
f 24/25/26 19/48/26 46/48/26 43/25/26
f 58/49/5 71/50/5 84/50/5 81/49/5
f 77/51/2 79/52/2 74/52/2 70/51/2
f 78/53/5 66/54/5 61/54/5 72/53/5
f 59/55/6 62/56/6 68/56/6 64/55/6
f 65/57/27 67/58/27 80/59/27 76/60/27
f 57/61/28 58/62/28 59/63/28
f 60/64/29 61/65/29 62/66/29
f 63/67/30 64/68/30 65/57/30
f 66/69/31 67/58/31 68/70/31
f 69/71/32 70/72/32 71/73/32
f 72/74/33 73/75/33 74/76/33
f 75/77/34 76/60/34 77/78/34
f 78/79/35 79/80/35 80/59/35
f 63/81/36 57/81/36 59/55/36 64/55/36
f 58/62/37 60/64/37 62/66/37 59/63/37
f 61/54/38 66/54/38 68/56/38 62/56/38
f 67/58/39 65/57/39 64/68/39 68/70/39
f 75/77/40 63/67/40 65/57/40 76/60/40
f 66/69/41 78/79/41 80/59/41 67/58/41
f 79/80/42 77/78/42 76/60/42 80/59/42
f 69/82/43 75/82/43 77/51/43 70/51/43
f 78/53/44 72/53/44 74/52/44 79/52/44
f 73/75/45 71/73/45 70/72/45 74/76/45
f 57/61/46 69/71/46 71/73/46 58/62/46
f 72/74/47 61/65/47 60/64/47 73/75/47
f 63/81/8 75/82/8 69/82/8 57/81/8
f 60/83/2 58/49/2 81/49/2 82/83/2
f 71/50/6 73/84/6 83/84/6 84/50/6
f 73/84/8 60/83/8 82/83/8 83/84/8
