# Blender 5.1.0
# www.blender.org
mtllib sign.mtl
o sign
v 0.003592 -0.210336 -0.571084
v 0.003592 11.662846 -0.571084
v 0.272466 -0.210336 -0.415849
v 0.272466 11.662846 -0.415849
v 0.272466 -0.210336 -0.105381
v 0.272466 11.662846 -0.105381
v 0.003592 -0.210336 0.049854
v 0.003592 11.662846 0.049854
v -0.265282 -0.210336 -0.105381
v -0.265282 11.662846 -0.105381
v -0.265282 -0.210336 -0.415849
v -0.265282 11.662846 -0.415849
v 0.003592 8.598204 -0.571084
v 0.272466 8.598204 -0.415849
v 0.272466 8.598204 -0.105381
v 0.003592 8.598204 0.049854
v -0.265282 8.598204 -0.105381
v -0.265282 8.598204 -0.415849
v 0.003592 8.886901 -0.571084
v 0.272466 8.886901 -0.415849
v 0.272466 8.886901 -0.105381
v 0.003592 8.886901 0.049854
v -0.265282 8.886901 -0.105381
v -0.265282 8.886901 -0.415849
v 0.003592 10.126369 -0.571084
v 0.003592 10.423376 -0.571084
v 0.272466 10.423376 -0.415849
v 0.272466 10.126369 -0.415849
v 0.272466 10.423376 -0.105381
v 0.272466 10.126369 -0.105381
v 0.003592 10.423376 0.049854
v 0.003592 10.126369 0.049854
v -0.265282 10.423376 -0.105381
v -0.265282 10.126369 -0.105381
v -0.265282 10.423376 -0.415849
v -0.265282 10.126369 -0.415849
v 0.387439 8.897143 -0.432444
v 0.387439 8.587961 -0.432444
v 0.387439 8.897143 0.010784
v 0.387439 8.587961 0.010784
v -0.380255 8.897143 0.010784
v -0.380255 8.587961 0.010784
v -0.380255 8.897143 -0.432444
v -0.380255 8.587961 -0.432444
v 0.003592 8.587961 -0.654058
v 0.003592 8.897143 -0.654058
v 0.003592 10.115833 -0.654058
v 0.003592 10.433912 -0.654058
v 0.387439 10.433912 -0.432444
v 0.387439 10.115833 -0.432444
v 0.387439 10.433912 0.010784
v 0.387439 10.115833 0.010784
v -0.380255 10.433912 0.010784
v -0.380255 10.115833 0.010784
v -0.380255 10.433912 -0.432444
v -0.380255 10.115833 -0.432444
v -0.006286 11.314756 0.621736
v -1.379158 10.746095 0.621736
v -1.947820 9.373223 0.621735
v -1.379158 8.000352 0.621735
v -0.006286 7.431690 0.621735
v 1.366585 8.000353 0.621735
v 1.935247 9.373223 0.621735
v 1.366585 10.746095 0.621736
v -0.006286 10.999824 0.621736
v -1.156466 10.523403 0.621736
v -1.632886 9.373223 0.621735
v -1.156466 8.223043 0.621735
v -0.006286 7.746624 0.621735
v 1.143894 8.223043 0.621735
v 1.620314 9.373223 0.621735
v 1.143894 10.523403 0.621736
v -0.006286 10.995485 0.443575
v -1.153399 10.520336 0.443575
v -1.628548 9.373223 0.443575
v -1.153399 8.226111 0.443575
v -0.006286 7.750962 0.443575
v 1.140827 8.226111 0.443575
v 1.615976 9.373223 0.443575
v 1.140827 10.520336 0.443575
v -0.006286 11.314756 0.234409
v -1.379158 10.746095 0.234409
v -1.947820 9.373223 0.234409
v -1.379158 8.000352 0.234409
v -0.006286 7.431690 0.234409
v 1.366585 8.000353 0.234409
v 1.935247 9.373223 0.234409
v 1.366585 10.746095 0.234409
vn 0.5000 -0.0000 -0.8660
vn 1.0000 -0.0000 -0.0000
vn 0.5000 -0.0000 0.8660
vn -0.5000 -0.0000 0.8660
vn -0.0000 1.0000 -0.0000
vn -1.0000 -0.0000 -0.0000
vn -0.5000 -0.0000 -0.8660
vn -0.0000 -1.0000 -0.0000
vn -0.0913 -0.9958 -0.0000
vn -0.7107 -0.0000 0.7035
vn 0.0725 -0.9894 0.1256
vn 0.0706 -0.9900 0.1222
vn 0.0887 0.9961 -0.0000
vn 0.7107 -0.0000 0.7035
vn -0.0706 -0.9900 0.1222
vn 0.0887 -0.9961 -0.0000
vn -0.0887 0.9961 -0.0000
vn 0.0725 0.9894 0.1256
vn -0.0913 0.9958 -0.0000
vn -0.0706 0.9900 0.1222
vn 0.0913 -0.9958 -0.0000
vn -0.0725 -0.9894 0.1256
vn 0.0913 0.9958 -0.0000
vn -0.0725 0.9894 0.1256
vn -0.0887 -0.9961 -0.0000
vn 0.0706 0.9900 0.1222
vn -0.0000 -0.0000 1.0000
vn -0.9236 0.3826 0.0225
vn 0.3826 0.9236 0.0225
vn 0.9236 -0.3826 0.0225
vn -0.9236 -0.3826 0.0225
vn -0.3826 0.9236 0.0225
vn 0.9236 0.3826 0.0225
vn 0.3826 -0.9236 0.0225
vn -0.3826 -0.9236 0.0225
vn -0.9239 -0.3827 -0.0000
vn -0.3827 0.9239 -0.0000
vn 0.3827 0.9239 -0.0000
vn 0.9239 -0.3827 -0.0000
vn -0.3827 -0.9239 -0.0000
vn -0.9239 0.3827 -0.0000
vn 0.9239 0.3827 -0.0000
vn 0.3827 -0.9239 -0.0000
vn -0.0000 -0.0000 -1.0000
vt 0.676834 0.608506
vt 0.676834 0.644317
vt 0.679190 0.644317
vt 0.679190 0.608506
vt 0.674478 0.644317
vt 0.674478 0.608506
vt 0.676834 0.212710
vt 0.679190 0.212710
vt 0.674478 0.212710
vt 0.674478 0.525711
vt 0.676834 0.525711
vt 0.674478 0.525711
vt 0.679190 0.525711
vt 0.682553 0.456791
vt 0.679190 0.572695
vt 0.676834 0.536884
vt 0.674478 0.536884
vt 0.679190 0.536884
vt 0.680198 0.456791
vt 0.677842 0.456791
vt 0.680198 0.409807
vt 0.677842 0.409807
vt 0.674478 0.572695
vt 0.676834 0.572695
vt 0.676497 0.426924
vt 0.682553 0.409807
vt 0.306618 0.347018
vt 0.306618 0.358192
vt 0.308974 0.358192
vt 0.308974 0.347018
vt 0.306618 0.347019
vt 0.306618 0.358192
vt 0.311329 0.347019
vt 0.311329 0.358192
vt 0.306618 0.394003
vt 0.306618 0.429814
vt 0.308974 0.429814
vt 0.308974 0.394003
vt 0.306618 0.394003
vt 0.306618 0.429814
vt 0.311329 0.394003
vt 0.311329 0.429814
vt 0.677842 0.409807
vt 0.681208 0.426924
vt 0.676497 0.498546
vt 0.678852 0.498546
vt 0.681208 0.498546
vt 0.678852 0.426924
vt 0.173660 0.356986
vt 0.175790 0.378634
vt 0.171233 0.490442
vt 0.168222 0.490442
vt 0.173660 0.623898
vt 0.175790 0.602251
vt 0.186789 0.648563
vt 0.186789 0.679178
vt 0.197788 0.602251
vt 0.199917 0.623898
vt 0.205356 0.490442
vt 0.202344 0.490442
vt 0.197788 0.378634
vt 0.199917 0.356986
vt 0.186789 0.301706
vt 0.186789 0.332321
vt 0.206289 0.164136
vt 0.206258 0.164136
vt 0.202846 0.080403
vt 0.202868 0.080179
vt 0.194608 0.045403
vt 0.194608 0.045719
vt 0.186371 0.080403
vt 0.186349 0.080179
vt 0.182928 0.164136
vt 0.182959 0.164136
vt 0.186371 0.247869
vt 0.186349 0.248093
vt 0.202868 0.248093
vt 0.202846 0.247869
vt 0.194608 0.282553
vt 0.194608 0.282869
vt 0.166658 0.368489
vt 0.172096 0.188998
vt 0.185225 0.622328
vt 0.172096 0.547981
vt 0.198354 0.547981
vt 0.198354 0.188998
vt 0.203792 0.368489
vt 0.185225 0.114650
vt 0.179903 0.405043
vt 0.189148 0.457398
vt 0.189148 0.099893
vt 0.179903 0.152248
vt 0.176073 0.278646
vt 0.198393 0.152248
vt 0.198393 0.405043
vt 0.202223 0.278646
s 0
usemtl Material.001
f 26/1/1 2/2/1 4/3/1 27/4/1
f 27/4/2 4/3/2 6/3/2 29/4/2
f 29/4/3 6/3/3 8/2/3 31/1/3
f 31/1/4 8/2/4 10/5/4 33/6/4
f 4/3/5 2/2/5 12/5/5 10/5/5 8/2/5 6/3/5
f 33/6/6 10/5/6 12/5/6 35/6/6
f 35/6/7 12/5/7 2/2/7 26/1/7
f 1/7/8 3/8/8 5/8/8 7/7/8 9/9/8 11/9/8
f 11/9/7 18/10/7 13/11/7 1/7/7
f 9/9/6 17/12/6 18/10/6 11/9/6
f 7/7/4 16/11/4 17/12/4 9/9/4
f 5/8/3 15/13/3 16/11/3 7/7/3
f 3/8/2 14/13/2 15/13/2 5/8/2
f 1/7/1 13/11/1 14/13/1 3/8/1
f 30/14/9 28/14/9 50/14/9 52/14/9
f 29/4/10 30/15/10 52/15/10 51/4/10
f 16/11/4 22/16/4 23/17/4 17/12/4
f 15/13/3 21/18/3 22/16/3 16/11/3
f 25/19/11 36/20/11 56/20/11 47/19/11
f 13/21/12 18/22/12 44/22/12 45/21/12
f 24/17/7 36/23/7 25/24/7 19/16/7
f 23/25/13 24/25/13 43/25/13 41/25/13
f 23/17/6 34/23/6 36/23/6 24/17/6
f 17/12/14 23/17/14 41/17/14 42/12/14
f 22/16/4 32/24/4 34/23/4 23/17/4
f 32/24/4 31/1/4 33/6/4 34/23/4
f 21/18/3 30/15/3 32/24/3 22/16/3
f 30/15/3 29/4/3 31/1/3 32/24/3
f 20/18/2 28/15/2 30/15/2 21/18/2
f 14/26/15 13/21/15 45/21/15 38/26/15
f 19/16/1 25/24/1 28/15/1 20/18/1
f 34/23/14 33/6/14 53/6/14 54/23/14
f 44/27/7 43/28/7 46/29/7 45/30/7
f 42/31/6 41/32/6 43/28/6 44/27/6
f 38/33/2 37/34/2 39/34/2 40/33/2
f 45/30/1 46/29/1 37/34/1 38/33/1
f 56/35/7 55/36/7 48/37/7 47/38/7
f 54/39/6 53/40/6 55/36/6 56/35/6
f 50/41/2 49/42/2 51/42/2 52/41/2
f 47/38/1 48/37/1 49/42/1 50/41/1
f 18/22/16 17/43/16 42/43/16 44/22/16
f 20/44/17 21/44/17 39/44/17 37/44/17
f 35/45/18 26/46/18 48/46/18 55/45/18
f 27/47/19 29/47/19 51/47/19 49/47/19
f 19/48/20 20/44/20 37/44/20 46/48/20
f 36/20/21 34/20/21 54/20/21 56/20/21
f 28/14/22 25/19/22 47/19/22 50/14/22
f 33/45/23 35/45/23 55/45/23 53/45/23
f 21/18/10 15/13/10 40/13/10 39/18/10
f 26/46/24 27/47/24 49/47/24 48/46/24
f 15/26/25 14/26/25 38/26/25 40/26/25
f 24/25/26 19/48/26 46/48/26 43/25/26
f 60/49/27 68/50/27 67/51/27 59/52/27
f 58/53/27 66/54/27 65/55/27 57/56/27
f 57/56/27 65/55/27 72/57/27 64/58/27
f 63/59/27 71/60/27 70/61/27 62/62/27
f 61/63/27 69/64/27 68/50/27 60/49/27
f 59/52/27 67/51/27 66/54/27 58/53/27
f 64/58/27 72/57/27 71/60/27 63/59/27
f 62/62/27 70/61/27 69/64/27 61/63/27
f 71/65/28 79/66/28 78/67/28 70/68/28
f 69/69/29 77/70/29 76/71/29 68/72/29
f 67/73/30 75/74/30 74/75/30 66/76/30
f 72/77/31 80/78/31 79/66/31 71/65/31
f 70/68/32 78/67/32 77/70/32 69/69/32
f 68/72/33 76/71/33 75/74/33 67/73/33
f 66/76/34 74/75/34 73/79/34 65/80/34
f 65/80/35 73/79/35 80/78/35 72/77/35
f 59/81/36 83/81/36 84/82/36 60/82/36
f 57/83/37 81/83/37 82/84/37 58/84/37
f 64/85/38 88/85/38 81/83/38 57/83/38
f 62/86/39 86/86/39 87/87/39 63/87/39
f 60/82/40 84/82/40 85/88/40 61/88/40
f 58/84/41 82/84/41 83/81/41 59/81/41
f 63/87/42 87/87/42 88/85/42 64/85/42
f 61/88/43 85/88/43 86/86/43 62/86/43
f 82/89/44 81/90/44 85/91/44 84/92/44
f 83/93/44 82/89/44 84/92/44
f 86/94/44 85/91/44 81/90/44 88/95/44
f 87/96/44 86/94/44 88/95/44
