# Blender 5.1.0
# www.blender.org
mtllib taxi.mtl
o Untitled.002
v -0.870747 -0.050562 1.239645
v -0.870747 -0.050562 0.739646
v -0.870747 -0.050562 -0.360354
v -0.870747 -0.050562 -0.860355
v -0.870747 0.149438 1.039645
v -0.870747 0.149438 0.939646
v -0.870747 0.149438 -0.560354
v -0.870747 0.149438 -0.660355
v -0.870747 0.249438 1.339646
v -0.870747 0.249438 1.239645
v -0.870747 0.249438 1.039645
v -0.870747 0.249438 0.939646
v -0.870747 0.249438 0.739646
v -0.870747 0.249438 0.639645
v -0.870747 0.249438 -0.260354
v -0.870747 0.249438 -0.360354
v -0.870747 0.249438 -0.560354
v -0.870747 0.249438 -0.660355
v -0.870747 0.249438 -0.860355
v -0.870747 0.249438 -0.960355
v -0.870747 0.449438 1.239645
v -0.870747 0.449438 0.739645
v -0.870747 0.449438 -0.360354
v -0.870747 0.449438 -0.860355
v -0.870747 0.549438 1.339646
v -0.870747 0.549438 0.639645
v -0.870747 0.549438 -0.260355
v -0.870747 0.549438 -0.960355
v -0.870747 0.749438 -0.060354
v -0.870747 0.749438 -0.160354
v -0.870747 0.749438 -0.660355
v -0.870747 0.749438 -0.760354
v -0.870747 0.949438 0.339646
v -0.870747 0.949438 0.239645
v -0.870747 0.949438 -0.060354
v -0.870747 0.949438 -0.160354
v -0.870747 0.949438 -0.660355
v -0.870747 0.949438 -0.760354
v -0.870747 1.149438 0.339646
v -0.870747 1.149438 0.239645
v -0.770747 0.149438 1.639646
v -0.770747 0.149438 1.539645
v -0.770747 0.149438 1.339646
v -0.770747 0.149438 1.239645
v -0.770747 0.149438 0.739646
v -0.770747 0.149438 -0.360354
v -0.770747 0.149438 -0.860355
v -0.770747 0.149438 -1.260354
v -0.770747 0.149438 -1.360355
v -0.770747 0.249438 1.539645
v -0.770747 0.249438 1.339646
v -0.770747 0.249438 1.239645
v -0.770747 0.249438 0.739646
v -0.770747 0.249438 0.639645
v -0.770747 0.249438 -0.260354
v -0.770747 0.249438 -0.360354
v -0.770747 0.249438 -0.860355
v -0.770747 0.249438 -0.960355
v -0.770747 0.249438 -1.260354
v -0.770747 0.249438 -1.360355
v -0.770747 0.449438 1.639646
v -0.770747 0.449438 1.539645
v -0.770747 0.449438 0.639645
v -0.770747 0.449438 0.539645
v -0.770747 0.449438 0.439646
v -0.770747 0.449438 0.339646
v -0.770747 0.449438 0.239645
v -0.770747 0.449438 0.139645
v -0.770747 0.449438 0.039645
v -0.770747 0.449438 -0.060354
v -0.770747 0.449438 -0.160354
v -0.770747 0.449438 -0.260354
v -0.770747 0.449438 -0.960355
v -0.770747 0.449438 -1.060354
v -0.770747 0.549438 1.339646
v -0.770747 0.549438 0.639645
v -0.770747 0.549438 0.539645
v -0.770747 0.549438 0.439646
v -0.770747 0.549438 0.339646
v -0.770747 0.549438 0.239645
v -0.770747 0.549438 0.139645
v -0.770747 0.549438 0.039645
v -0.770747 0.549438 -0.060354
v -0.770747 0.549438 -0.160354
v -0.770747 0.549438 -0.260355
v -0.770747 0.549438 -0.960355
v -0.770747 0.549438 -1.060354
v -0.770747 0.549438 -1.260354
v -0.770747 0.649438 1.539645
v -0.770747 0.649438 1.439646
v -0.770747 0.649438 0.539645
v -0.770747 0.649438 0.439646
v -0.770747 0.649438 0.339646
v -0.770747 0.649438 0.239645
v -0.770747 0.649438 0.139645
v -0.770747 0.649438 0.039645
v -0.770747 0.649438 -0.060354
v -0.770747 0.649438 -0.160354
v -0.770747 0.749438 1.439646
v -0.770747 0.749438 0.539645
v -0.770747 0.749438 -0.060354
v -0.770747 0.749438 -0.160354
v -0.770747 0.749438 -0.660355
v -0.770747 0.749438 -0.760354
v -0.770747 0.849438 0.539645
v -0.770747 0.849438 0.439646
v -0.770747 0.849438 0.239645
v -0.770747 0.849438 -0.060354
v -0.770747 0.849438 -0.360354
v -0.770747 0.849438 -0.660355
v -0.770747 0.949438 0.339646
v -0.770747 0.949438 0.239645
v -0.770747 0.949438 -0.160354
v -0.770747 0.949438 -0.760354
v -0.770747 1.149438 0.339646
v -0.770747 1.149438 0.239645
v -0.770747 1.249438 0.239645
v -0.770747 1.249438 -0.160354
v -0.770747 1.249438 -0.360354
v -0.770747 1.249438 -0.760354
v -0.770747 1.449438 0.439645
v -0.770747 1.449438 -1.060354
v -0.670747 0.549438 -1.060354
v -0.670747 0.549438 -1.160355
v -0.670747 0.649438 1.539645
v -0.670747 0.649438 1.439646
v -0.670747 0.749438 1.539645
v -0.670747 0.749438 1.439646
v -0.670747 0.749438 0.639645
v -0.670747 0.749438 0.539645
v -0.670747 0.849438 0.639645
v -0.670747 0.849438 0.539645
v -0.670747 0.849438 0.239645
v -0.670747 0.849438 -0.060354
v -0.670747 0.849438 -0.360354
v -0.670747 0.849438 -0.660355
v -0.670747 0.949438 -0.060354
v -0.670747 0.949438 -0.160354
v -0.670747 0.949438 -0.660355
v -0.670747 0.949438 -0.760354
v -0.670747 1.249438 0.239645
v -0.670747 1.249438 -0.160354
v -0.670747 1.249438 -0.360354
v -0.670747 1.249438 -0.760354
v -0.670747 1.449438 -1.060354
v -0.670747 1.449438 -1.160355
v -0.370747 0.749438 1.439646
v -0.370747 0.749438 0.839646
v -0.370747 0.849438 1.439646
v -0.370747 0.849438 0.839646
v -0.370747 1.449438 0.239645
v -0.370747 1.449438 -0.060355
v -0.370747 1.549438 0.239645
v -0.370747 1.549438 -0.060355
v -0.270747 1.549438 0.139645
v -0.270747 1.549438 0.039645
v -0.270747 1.749438 0.139645
v -0.270747 1.749438 0.039645
v 0.429253 0.849438 -1.060354
v 0.429253 0.849438 -1.160355
v 0.429253 1.249438 -1.060354
v 0.429253 1.249438 -1.160355
v 0.529254 0.449438 0.139645
v 0.529254 0.449438 0.039645
v 0.529254 0.549438 0.139645
v 0.529254 0.549438 0.039645
v 0.529254 0.749438 0.239645
v 0.529254 0.749438 -0.860355
v 0.529254 1.349438 0.239645
v 0.529254 1.349438 -0.860355
v 0.629253 0.449438 0.439646
v 0.629253 0.449438 0.339646
v 0.629253 0.449438 0.039645
v 0.629253 0.449438 -0.060354
v 0.629253 0.449438 -0.160354
v 0.629253 0.449438 -0.260354
v 0.629253 0.449438 -1.060354
v 0.629253 0.549438 0.439646
v 0.629253 0.549438 0.339646
v 0.629253 0.549438 0.139645
v 0.629253 0.549438 0.039645
v 0.629253 0.549438 -0.060354
v 0.629253 0.549438 -0.160354
v 0.629253 0.549438 -0.260355
v 0.629253 0.549438 -1.060354
v 0.629253 0.649438 0.439646
v 0.629253 0.649438 0.239645
v 0.629253 0.649438 0.139645
v 0.629253 0.649438 0.039645
v 0.629253 0.649438 -0.060354
v 0.629253 0.649438 -0.160354
v 0.629253 0.749438 0.439646
v 0.629253 0.749438 0.339646
v 0.629253 0.749438 0.239645
v 0.629253 0.749438 -0.860355
v 0.629253 0.749438 -0.960355
v 0.629253 0.749438 -1.060354
v 0.629253 0.849438 0.439646
v 0.629253 0.849438 0.339646
v 0.629253 1.249438 -0.960355
v 0.629253 1.349438 0.439645
v 0.629253 1.349438 0.339646
v 0.629253 1.349438 -0.860355
v 0.629253 1.349438 -0.960355
v 0.729253 -0.050562 1.239645
v 0.729253 -0.050562 0.739646
v 0.729253 -0.050562 -0.360354
v 0.729253 -0.050562 -0.860355
v 0.729253 0.149438 1.239645
v 0.729253 0.149438 1.039645
v 0.729253 0.149438 0.739646
v 0.729253 0.149438 -0.360354
v 0.729253 0.149438 -0.560354
v 0.729253 0.149438 -0.860355
v 0.729253 0.849438 -0.660355
v 0.729253 0.849438 -0.760354
v 0.729253 0.949438 -0.660355
v 0.729253 0.949438 -0.760354
v -0.770747 -0.050562 1.239645
v -0.770747 -0.050562 0.739646
v -0.770747 -0.050562 -0.360354
v -0.770747 -0.050562 -0.860355
v -0.770747 0.149438 1.239645
v -0.770747 0.149438 1.039645
v -0.770747 0.149438 0.739646
v -0.770747 0.149438 -0.360354
v -0.770747 0.149438 -0.560354
v -0.770747 0.149438 -0.860355
v -0.670747 0.449438 0.439646
v -0.670747 0.449438 0.339646
v -0.670747 0.449438 0.039645
v -0.670747 0.449438 -0.060354
v -0.670747 0.449438 -0.160354
v -0.670747 0.449438 -0.260354
v -0.670747 0.449438 -0.960355
v -0.670747 0.449438 -1.060354
v -0.670747 0.549438 0.439646
v -0.670747 0.549438 0.339646
v -0.670747 0.549438 0.039645
v -0.670747 0.549438 -0.060354
v -0.670747 0.549438 -0.160354
v -0.670747 0.549438 -0.260355
v -0.670747 0.549438 -0.960355
v -0.670747 0.549438 -1.060354
v -0.670747 0.649438 0.439646
v -0.670747 0.649438 -0.060354
v -0.670747 0.649438 -0.160354
v -0.670747 0.749438 0.439646
v -0.670747 0.749438 0.339646
v -0.670747 0.749438 0.039645
v -0.670747 0.749438 -1.060354
v -0.670747 0.849438 0.439646
v -0.670747 0.849438 0.339646
v -0.670747 1.349438 0.439645
v -0.670747 1.349438 0.339646
v -0.570747 0.749438 0.239645
v -0.570747 0.749438 0.039645
v -0.570747 0.749438 -0.960355
v -0.570747 1.249438 -0.960355
v -0.570747 1.349438 0.239645
v -0.570747 1.349438 -0.960355
v -0.470746 0.849438 -1.060354
v -0.470746 0.849438 -1.160355
v -0.470746 1.249438 -1.060354
v -0.470746 1.249438 -1.160355
v 0.229253 1.549438 0.139645
v 0.229253 1.549438 0.039645
v 0.229253 1.749438 0.139645
v 0.229253 1.749438 0.039645
v 0.329253 0.749438 1.439646
v 0.329253 0.749438 0.839646
v 0.329253 0.849438 1.439646
v 0.329253 0.849438 0.839646
v 0.329253 1.449438 0.239645
v 0.329253 1.449438 -0.060355
v 0.329253 1.549438 0.239645
v 0.329253 1.549438 -0.060355
v 0.429253 0.449438 0.139645
v 0.429253 0.449438 0.039645
v 0.429253 0.649438 0.239645
v 0.429253 0.649438 0.139645
v 0.429253 0.749438 0.239645
v 0.429253 0.749438 0.039645
v 0.629253 0.549438 -1.060354
v 0.629253 0.549438 -1.160355
v 0.629253 0.649438 1.539645
v 0.629253 0.649438 1.439646
v 0.629253 0.749438 1.539645
v 0.629253 0.749438 1.439646
v 0.629253 0.749438 0.639645
v 0.629253 0.749438 0.539645
v 0.629253 0.849438 0.639645
v 0.629253 0.849438 0.539645
v 0.629253 0.849438 0.239645
v 0.629253 0.849438 -0.060354
v 0.629253 0.849438 -0.360354
v 0.629253 0.849438 -0.660355
v 0.629253 0.849438 -0.760354
v 0.629253 0.949438 -0.060354
v 0.629253 0.949438 -0.160354
v 0.629253 1.249438 0.239645
v 0.629253 1.249438 -0.160354
v 0.629253 1.249438 -0.360354
v 0.629253 1.249438 -0.760354
v 0.629253 1.449438 -1.060354
v 0.629253 1.449438 -1.160355
v 0.729253 0.149438 1.639646
v 0.729253 0.149438 1.539645
v 0.729253 0.149438 1.339646
v 0.729253 0.149438 1.239645
v 0.729253 0.149438 0.739646
v 0.729253 0.149438 -0.360354
v 0.729253 0.149438 -0.860355
v 0.729253 0.149438 -1.260354
v 0.729253 0.149438 -1.360355
v 0.729253 0.249438 1.539645
v 0.729253 0.249438 1.339646
v 0.729253 0.249438 1.239645
v 0.729253 0.249438 0.739646
v 0.729253 0.249438 0.639645
v 0.729253 0.249438 -0.260354
v 0.729253 0.249438 -0.360354
v 0.729253 0.249438 -0.860355
v 0.729253 0.249438 -0.960355
v 0.729253 0.249438 -1.260354
v 0.729253 0.249438 -1.360355
v 0.729253 0.449438 1.639646
v 0.729253 0.449438 1.539645
v 0.729253 0.449438 0.639645
v 0.729253 0.449438 0.539645
v 0.729253 0.449438 0.439646
v 0.729253 0.449438 0.339646
v 0.729253 0.449438 0.239645
v 0.729253 0.449438 0.139645
v 0.729253 0.449438 0.039645
v 0.729253 0.449438 -0.060354
v 0.729253 0.449438 -0.160354
v 0.729253 0.449438 -0.260354
v 0.729253 0.449438 -0.960355
v 0.729253 0.449438 -1.060354
v 0.729253 0.549438 1.339646
v 0.729253 0.549438 0.639645
v 0.729253 0.549438 0.539645
v 0.729253 0.549438 0.439646
v 0.729253 0.549438 0.339646
v 0.729253 0.549438 0.239645
v 0.729253 0.549438 0.139645
v 0.729253 0.549438 0.039645
v 0.729253 0.549438 -0.060354
v 0.729253 0.549438 -0.160354
v 0.729253 0.549438 -0.260355
v 0.729253 0.549438 -0.960355
v 0.729253 0.549438 -1.060354
v 0.729253 0.549438 -1.260354
v 0.729253 0.649438 1.539645
v 0.729253 0.649438 1.439646
v 0.729253 0.649438 0.539645
v 0.729253 0.649438 0.439646
v 0.729253 0.649438 0.339646
v 0.729253 0.649438 0.239645
v 0.729253 0.649438 0.139645
v 0.729253 0.649438 0.039645
v 0.729253 0.649438 -0.060354
v 0.729253 0.649438 -0.160354
v 0.729253 0.749438 1.439646
v 0.729253 0.749438 0.539645
v 0.729253 0.749438 -0.060354
v 0.729253 0.749438 -0.160354
v 0.729253 0.749438 -0.660355
v 0.729253 0.749438 -0.760354
v 0.729253 0.849438 0.539645
v 0.729253 0.849438 0.439646
v 0.729253 0.849438 0.239645
v 0.729253 0.849438 -0.060354
v 0.729253 0.849438 -0.360354
v 0.729253 0.849438 -0.660355
v 0.729253 0.949438 0.339646
v 0.729253 0.949438 0.239645
v 0.729253 0.949438 -0.160354
v 0.729253 0.949438 -0.760354
v 0.729253 1.149438 0.339646
v 0.729253 1.149438 0.239645
v 0.729253 1.249438 0.239645
v 0.729253 1.249438 -0.160354
v 0.729253 1.249438 -0.360354
v 0.729253 1.249438 -0.760354
v 0.729253 1.449438 0.439645
v 0.729253 1.449438 -1.060354
v 0.829253 -0.050562 1.239645
v 0.829253 -0.050562 0.739646
v 0.829253 -0.050562 -0.360354
v 0.829253 -0.050562 -0.860355
v 0.829253 0.149438 1.039645
v 0.829253 0.149438 0.939646
v 0.829253 0.149438 -0.560354
v 0.829253 0.149438 -0.660355
v 0.829253 0.249438 1.339646
v 0.829253 0.249438 1.239645
v 0.829253 0.249438 1.039645
v 0.829253 0.249438 0.939646
v 0.829253 0.249438 0.739646
v 0.829253 0.249438 0.639645
v 0.829253 0.249438 -0.260354
v 0.829253 0.249438 -0.360354
v 0.829253 0.249438 -0.560354
v 0.829253 0.249438 -0.660355
v 0.829253 0.249438 -0.860355
v 0.829253 0.249438 -0.960355
v 0.829253 0.449438 1.239645
v 0.829253 0.449438 0.739645
v 0.829253 0.449438 -0.360354
v 0.829253 0.449438 -0.860355
v 0.829253 0.549438 1.339646
v 0.829253 0.549438 0.639645
v 0.829253 0.549438 -0.260355
v 0.829253 0.549438 -0.960355
v 0.829253 0.749438 -0.060354
v 0.829253 0.749438 -0.160354
v 0.829253 0.749438 -0.660355
v 0.829253 0.749438 -0.760354
v 0.829253 0.949438 0.339646
v 0.829253 0.949438 0.239645
v 0.829253 0.949438 -0.060354
v 0.829253 0.949438 -0.160354
v 0.829253 0.949438 -0.660355
v 0.829253 0.949438 -0.760354
v 0.829253 1.149438 0.339646
v 0.829253 1.149438 0.239645
v -0.770747 0.149438 1.639646
v -0.770747 0.449438 1.639646
v -0.370747 0.249438 1.639646
v -0.370747 0.349438 1.639646
v 0.329253 0.249438 1.639646
v 0.329253 0.349438 1.639646
v 0.729253 0.149438 1.639646
v 0.729253 0.449438 1.639646
v -0.770747 0.449438 1.539645
v -0.770747 0.649438 1.539645
v -0.670747 0.449438 1.539645
v -0.670747 0.549438 1.539645
v -0.670747 0.649438 1.539645
v -0.670747 0.749438 1.539645
v -0.470746 0.449438 1.539645
v -0.470746 0.549438 1.539645
v 0.429253 0.449438 1.539645
v 0.429253 0.549438 1.539645
v 0.629253 0.449438 1.539645
v 0.629253 0.549438 1.539645
v 0.629253 0.649438 1.539645
v 0.629253 0.749438 1.539645
v 0.729253 0.449438 1.539645
v 0.729253 0.649438 1.539645
v -0.770747 0.649438 1.439646
v -0.770747 0.749438 1.439646
v -0.670747 0.649438 1.439646
v -0.670747 0.749438 1.439646
v -0.370747 0.749438 1.439646
v -0.370747 0.849438 1.439646
v 0.329253 0.749438 1.439646
v 0.329253 0.849438 1.439646
v 0.629253 0.649438 1.439646
v 0.629253 0.749438 1.439646
v 0.729253 0.649438 1.439646
v 0.729253 0.749438 1.439646
v -0.870747 0.249438 1.339646
v -0.870747 0.549438 1.339646
v -0.770747 0.249438 1.339646
v -0.770747 0.549438 1.339646
v 0.729253 0.249438 1.339646
v 0.729253 0.549438 1.339646
v 0.829253 0.249438 1.339646
v 0.829253 0.549438 1.339646
v -0.870747 -0.050562 1.239645
v -0.870747 0.249438 1.239645
v -0.770747 -0.050562 1.239645
v -0.770747 0.149438 1.239645
v -0.770747 0.249438 1.239645
v 0.729253 -0.050562 1.239645
v 0.729253 0.149438 1.239645
v 0.729253 0.249438 1.239645
v 0.829253 -0.050562 1.239645
v 0.829253 0.249438 1.239645
v -0.670747 0.749438 0.639645
v -0.670747 0.849438 0.639645
v 0.629253 0.749438 0.639645
v 0.629253 0.849438 0.639645
v -0.770747 0.749438 0.539645
v -0.770747 0.849438 0.539645
v -0.670747 0.749438 0.539645
v -0.670747 0.849438 0.539645
v 0.629253 0.749438 0.539645
v 0.629253 0.849438 0.539645
v 0.729253 0.749438 0.539645
v 0.729253 0.849438 0.539645
v -0.770747 0.849438 0.439646
v -0.770747 1.449438 0.439645
v -0.670747 0.849438 0.439646
v -0.670747 1.349438 0.439645
v 0.629253 0.849438 0.439646
v 0.629253 1.349438 0.439645
v 0.729253 0.849438 0.439646
v 0.729253 1.449438 0.439645
v -0.870747 0.949438 0.339646
v -0.870747 1.149438 0.339646
v -0.770747 0.949438 0.339646
v -0.770747 1.149438 0.339646
v -0.670747 0.449438 0.339646
v -0.670747 0.549438 0.339646
v -0.670747 0.749438 0.339646
v -0.670747 0.849438 0.339646
v -0.670747 1.349438 0.339646
v 0.629253 0.449438 0.339646
v 0.629253 0.549438 0.339646
v 0.629253 0.749438 0.339646
v 0.629253 0.849438 0.339646
v 0.629253 1.349438 0.339646
v 0.729253 0.949438 0.339646
v 0.729253 1.149438 0.339646
v 0.829253 0.949438 0.339646
v 0.829253 1.149438 0.339646
v -0.370747 1.449438 0.239645
v -0.370747 1.549438 0.239645
v 0.329253 1.449438 0.239645
v 0.329253 1.549438 0.239645
v -0.270747 1.549438 0.139645
v -0.270747 1.749438 0.139645
v 0.229253 1.549438 0.139645
v 0.229253 1.749438 0.139645
v -0.870747 0.749438 -0.060354
v -0.870747 0.949438 -0.060354
v -0.770747 0.749438 -0.060354
v -0.770747 0.849438 -0.060354
v -0.670747 0.849438 -0.060354
v -0.670747 0.949438 -0.060354
v 0.629253 0.849438 -0.060354
v 0.629253 0.949438 -0.060354
v 0.729253 0.749438 -0.060354
v 0.729253 0.849438 -0.060354
v 0.829253 0.749438 -0.060354
v 0.829253 0.949438 -0.060354
v -0.770747 0.949438 -0.160354
v -0.770747 1.249438 -0.160354
v -0.670747 0.949438 -0.160354
v -0.670747 1.249438 -0.160354
v 0.629253 0.949438 -0.160354
v 0.629253 1.249438 -0.160354
v 0.729253 0.949438 -0.160354
v 0.729253 1.249438 -0.160354
v -0.870747 0.249438 -0.260354
v -0.870747 0.549438 -0.260355
v -0.770747 0.249438 -0.260354
v -0.770747 0.449438 -0.260354
v -0.770747 0.549438 -0.260355
v 0.729253 0.249438 -0.260354
v 0.729253 0.449438 -0.260354
v 0.729253 0.549438 -0.260355
v 0.829253 0.249438 -0.260354
v 0.829253 0.549438 -0.260355
v -0.870747 -0.050562 -0.360354
v -0.870747 0.249438 -0.360354
v -0.770747 -0.050562 -0.360354
v -0.770747 0.149438 -0.360354
v -0.770747 0.249438 -0.360354
v 0.729253 -0.050562 -0.360354
v 0.729253 0.149438 -0.360354
v 0.729253 0.249438 -0.360354
v 0.829253 -0.050562 -0.360354
v 0.829253 0.249438 -0.360354
v -0.870747 0.749438 -0.660355
v -0.870747 0.949438 -0.660355
v -0.770747 0.749438 -0.660355
v -0.770747 0.849438 -0.660355
v -0.670747 0.849438 -0.660355
v -0.670747 0.949438 -0.660355
v 0.729253 0.749438 -0.660355
v 0.729253 0.849438 -0.660355
v 0.729253 0.949438 -0.660355
v 0.829253 0.749438 -0.660355
v 0.829253 0.949438 -0.660355
v -0.770747 0.949438 -0.760354
v -0.770747 1.249438 -0.760354
v -0.670747 0.949438 -0.760354
v -0.670747 1.249438 -0.760354
v 0.629253 0.849438 -0.760354
v 0.629253 1.249438 -0.760354
v 0.729253 0.849438 -0.760354
v 0.729253 0.949438 -0.760354
v 0.729253 1.249438 -0.760354
v -0.570747 0.749438 -0.960355
v -0.570747 1.249438 -0.960355
v -0.570747 1.349438 -0.960355
v -0.470746 1.349438 -0.960355
v -0.370747 1.349438 -0.960355
v 0.329253 1.349438 -0.960355
v 0.429253 1.349438 -0.960355
v 0.629253 0.749438 -0.960355
v 0.629253 1.249438 -0.960355
v 0.629253 1.349438 -0.960355
v -0.670747 0.449438 -1.060354
v -0.670747 0.549438 -1.060354
v -0.670747 0.749438 -1.060354
v 0.629253 0.449438 -1.060354
v 0.629253 0.549438 -1.060354
v 0.629253 0.749438 -1.060354
v -0.370747 0.749438 0.839646
v -0.370747 0.849438 0.839646
v 0.329253 0.749438 0.839646
v 0.329253 0.849438 0.839646
v -0.870747 -0.050562 0.739646
v -0.870747 0.249438 0.739646
v -0.770747 -0.050562 0.739646
v -0.770747 0.149438 0.739646
v -0.770747 0.249438 0.739646
v 0.729253 -0.050562 0.739646
v 0.729253 0.149438 0.739646
v 0.729253 0.249438 0.739646
v 0.829253 -0.050562 0.739646
v 0.829253 0.249438 0.739646
v -0.870747 0.249438 0.639645
v -0.870747 0.549438 0.639645
v -0.770747 0.249438 0.639645
v -0.770747 0.449438 0.639645
v -0.770747 0.549438 0.639645
v 0.729253 0.249438 0.639645
v 0.729253 0.449438 0.639645
v 0.729253 0.549438 0.639645
v 0.829253 0.249438 0.639645
v 0.829253 0.549438 0.639645
v -0.670747 0.449438 0.439646
v -0.670747 0.549438 0.439646
v -0.670747 0.649438 0.439646
v -0.670747 0.749438 0.439646
v 0.629253 0.449438 0.439646
v 0.629253 0.549438 0.439646
v 0.629253 0.649438 0.439646
v 0.629253 0.749438 0.439646
v -0.870747 0.949438 0.239645
v -0.870747 1.149438 0.239645
v -0.770747 0.849438 0.239645
v -0.770747 0.949438 0.239645
v -0.770747 1.149438 0.239645
v -0.770747 1.249438 0.239645
v -0.670747 0.849438 0.239645
v -0.670747 1.249438 0.239645
v -0.570747 0.749438 0.239645
v -0.570747 1.349438 0.239645
v -0.370747 1.349438 0.239645
v 0.329253 1.349438 0.239645
v 0.429253 0.649438 0.239645
v 0.429253 0.749438 0.239645
v 0.529254 0.749438 0.239645
v 0.529254 1.349438 0.239645
v 0.629253 0.649438 0.239645
v 0.629253 0.749438 0.239645
v 0.629253 0.849438 0.239645
v 0.629253 1.249438 0.239645
v 0.729253 0.849438 0.239645
v 0.729253 0.949438 0.239645
v 0.729253 1.149438 0.239645
v 0.729253 1.249438 0.239645
v 0.829253 0.949438 0.239645
v 0.829253 1.149438 0.239645
v 0.429253 0.449438 0.139645
v 0.429253 0.649438 0.139645
v 0.529254 0.449438 0.139645
v 0.529254 0.549438 0.139645
v 0.629253 0.549438 0.139645
v 0.629253 0.649438 0.139645
v -0.670747 0.449438 0.039645
v -0.670747 0.549438 0.039645
v -0.670747 0.749438 0.039645
v -0.570747 0.749438 0.039645
v -0.270747 1.549438 0.039645
v -0.270747 1.749438 0.039645
v 0.229253 1.549438 0.039645
v 0.229253 1.749438 0.039645
v 0.429253 0.449438 0.039645
v 0.429253 0.749438 0.039645
v 0.529254 0.449438 0.039645
v 0.529254 0.549438 0.039645
v 0.629253 0.449438 0.039645
v 0.629253 0.549438 0.039645
v -0.370747 1.449438 -0.060355
v -0.370747 1.549438 -0.060355
v 0.329253 1.449438 -0.060355
v 0.329253 1.549438 -0.060355
v -0.870747 0.749438 -0.160354
v -0.870747 0.949438 -0.160354
v -0.770747 0.749438 -0.160354
v -0.770747 0.949438 -0.160354
v 0.729253 0.749438 -0.160354
v 0.729253 0.949438 -0.160354
v 0.829253 0.749438 -0.160354
v 0.829253 0.949438 -0.160354
v -0.770747 0.849438 -0.360354
v -0.770747 1.249438 -0.360354
v -0.670747 0.849438 -0.360354
v -0.670747 1.249438 -0.360354
v 0.629253 0.849438 -0.360354
v 0.629253 1.249438 -0.360354
v 0.729253 0.849438 -0.360354
v 0.729253 1.249438 -0.360354
v -0.870747 0.749438 -0.760354
v -0.870747 0.949438 -0.760354
v -0.770747 0.749438 -0.760354
v -0.770747 0.949438 -0.760354
v 0.729253 0.749438 -0.760354
v 0.729253 0.949438 -0.760354
v 0.829253 0.749438 -0.760354
v 0.829253 0.949438 -0.760354
v -0.870747 -0.050562 -0.860355
v -0.870747 0.249438 -0.860355
v -0.770747 -0.050562 -0.860355
v -0.770747 0.149438 -0.860355
v -0.770747 0.249438 -0.860355
v 0.529254 0.749438 -0.860355
v 0.529254 1.349438 -0.860355
v 0.629253 0.749438 -0.860355
v 0.629253 1.349438 -0.860355
v 0.729253 -0.050562 -0.860355
v 0.729253 0.149438 -0.860355
v 0.729253 0.249438 -0.860355
v 0.829253 -0.050562 -0.860355
v 0.829253 0.249438 -0.860355
v -0.870747 0.249438 -0.960355
v -0.870747 0.549438 -0.960355
v -0.770747 0.249438 -0.960355
v -0.770747 0.449438 -0.960355
v -0.770747 0.549438 -0.960355
v 0.729253 0.249438 -0.960355
v 0.729253 0.449438 -0.960355
v 0.729253 0.549438 -0.960355
v 0.829253 0.249438 -0.960355
v 0.829253 0.549438 -0.960355
v -0.770747 0.549438 -1.060354
v -0.770747 1.449438 -1.060354
v -0.670747 0.549438 -1.060354
v -0.670747 1.449438 -1.060354
v -0.470746 0.849438 -1.060354
v -0.470746 1.249438 -1.060354
v 0.429253 0.849438 -1.060354
v 0.429253 1.249438 -1.060354
v 0.629253 0.549438 -1.060354
v 0.629253 1.449438 -1.060354
v 0.729253 0.549438 -1.060354
v 0.729253 1.449438 -1.060354
v -0.670747 0.549438 -1.160355
v -0.670747 1.449438 -1.160355
v -0.470746 0.849438 -1.160355
v -0.470746 1.249438 -1.160355
v 0.429253 0.849438 -1.160355
v 0.429253 1.249438 -1.160355
v 0.629253 0.549438 -1.160355
v 0.629253 1.449438 -1.160355
v -0.770747 0.249438 -1.260354
v -0.770747 0.549438 -1.260354
v -0.570747 0.349438 -1.260354
v -0.570747 0.449438 -1.260354
v -0.470746 0.349438 -1.260354
v -0.470746 0.449438 -1.260354
v -0.370747 0.349438 -1.260354
v -0.370747 0.449438 -1.260354
v -0.270747 0.349438 -1.260354
v -0.270747 0.449438 -1.260354
v -0.170747 0.349438 -1.260354
v -0.170747 0.449438 -1.260354
v -0.070747 0.349438 -1.260354
v -0.070747 0.449438 -1.260354
v 0.029254 0.349438 -1.260354
v 0.029254 0.449438 -1.260354
v 0.129253 0.349438 -1.260354
v 0.129253 0.449438 -1.260354
v 0.229253 0.349438 -1.260354
v 0.229253 0.449438 -1.260354
v 0.329253 0.349438 -1.260354
v 0.329253 0.449438 -1.260354
v 0.429253 0.349438 -1.260354
v 0.429253 0.449438 -1.260354
v 0.529254 0.349438 -1.260354
v 0.529254 0.449438 -1.260354
v 0.729253 0.249438 -1.260354
v 0.729253 0.549438 -1.260354
v -0.770747 0.149438 -1.360355
v -0.770747 0.249438 -1.360355
v 0.729253 0.149438 -1.360355
v 0.729253 0.249438 -1.360355
v -0.870747 -0.050562 1.239645
v -0.770747 -0.050562 1.239645
v 0.729253 -0.050562 1.239645
v 0.829253 -0.050562 1.239645
v -0.870747 -0.050562 0.739646
v -0.770747 -0.050562 0.739646
v 0.729253 -0.050562 0.739646
v 0.829253 -0.050562 0.739646
v -0.870747 -0.050562 -0.360354
v -0.770747 -0.050562 -0.360354
v 0.729253 -0.050562 -0.360354
v 0.829253 -0.050562 -0.360354
v -0.870747 -0.050562 -0.860355
v -0.770747 -0.050562 -0.860355
v 0.729253 -0.050562 -0.860355
v 0.829253 -0.050562 -0.860355
v -0.770747 0.149438 1.639646
v 0.729253 0.149438 1.639646
v -0.770747 0.149438 1.539645
v -0.470746 0.149438 1.539645
v 0.429253 0.149438 1.539645
v 0.729253 0.149438 1.539645
v -0.470746 0.149438 1.439646
v -0.370747 0.149438 1.439646
v 0.329253 0.149438 1.439646
v 0.429253 0.149438 1.439646
v -0.770747 0.149438 1.339646
v -0.670747 0.149438 1.339646
v -0.370747 0.149438 1.339646
v -0.270747 0.149438 1.339646
v 0.229253 0.149438 1.339646
v 0.329253 0.149438 1.339646
v 0.629253 0.149438 1.339646
v 0.729253 0.149438 1.339646
v -0.770747 0.149438 1.239645
v -0.670747 0.149438 1.239645
v -0.270747 0.149438 1.239645
v 0.229253 0.149438 1.239645
v 0.629253 0.149438 1.239645
v 0.729253 0.149438 1.239645
v -0.670747 0.149438 1.139645
v -0.070747 0.149438 1.139645
v 0.029254 0.149438 1.139645
v 0.629253 0.149438 1.139645
v -0.770747 0.149438 1.039645
v -0.670747 0.149438 1.039645
v -0.470746 0.149438 1.039645
v -0.270747 0.149438 1.039645
v 0.229253 0.149438 1.039645
v 0.529254 0.149438 1.039645
v 0.629253 0.149438 1.039645
v 0.729253 0.149438 1.039645
v 0.229253 0.149438 0.939646
v 0.429253 0.149438 0.939646
v 0.429253 0.149438 0.839646
v 0.529254 0.149438 0.839646
v -0.770747 0.149438 0.739646
v -0.470746 0.149438 0.739646
v -0.270747 0.149438 0.739646
v 0.029254 0.149438 0.739646
v 0.329253 0.149438 0.739646
v 0.729253 0.149438 0.739646
v -0.470746 0.149438 0.639645
v -0.270747 0.149438 0.639645
v 0.029254 0.149438 0.639645
v 0.129253 0.149438 0.639645
v -0.470746 0.149438 0.339646
v -0.270747 0.149438 0.339646
v -0.070747 0.149438 0.339646
v -0.470746 0.149438 0.239646
v -0.370747 0.149438 0.239646
v -0.170747 0.149438 0.139645
v -0.070747 0.149438 0.139645
v 0.129253 0.149438 0.139645
v 0.229253 0.149438 0.139645
v 0.229253 0.149438 0.039645
v 0.329253 0.149438 0.039645
v -0.470746 0.149438 -0.160354
v -0.370747 0.149438 -0.160354
v -0.170747 0.149438 -0.160354
v -0.070747 0.149438 -0.160354
v 0.129253 0.149438 -0.160354
v 0.329253 0.149438 -0.160354
v -0.470746 0.149438 -0.260354
v -0.370747 0.149438 -0.260354
v -0.270747 0.149438 -0.260354
v -0.070747 0.149438 -0.260354
v -0.770747 0.149438 -0.360354
v -0.370747 0.149438 -0.360354
v -0.270747 0.149438 -0.360354
v 0.729253 0.149438 -0.360354
v -0.470746 0.149438 -0.460355
v -0.270747 0.149438 -0.460355
v 0.129253 0.149438 -0.460355
v 0.329253 0.149438 -0.460355
v -0.770747 0.149438 -0.560354
v -0.670747 0.149438 -0.560354
v 0.629253 0.149438 -0.560354
v 0.729253 0.149438 -0.560354
v -0.670747 0.149438 -0.660355
v -0.070747 0.149438 -0.660355
v 0.029254 0.149438 -0.660355
v 0.629253 0.149438 -0.660355
v -0.670747 0.149438 -0.760354
v -0.070747 0.149438 -0.760354
v 0.029254 0.149438 -0.760354
v 0.629253 0.149438 -0.760354
v -0.770747 0.149438 -0.860355
v -0.670747 0.149438 -0.860355
v -0.370747 0.149438 -0.860355
v -0.070747 0.149438 -0.860355
v 0.029254 0.149438 -0.860355
v 0.329253 0.149438 -0.860355
v 0.629253 0.149438 -0.860355
v 0.729253 0.149438 -0.860355
v -0.370747 0.149438 -1.160355
v 0.329253 0.149438 -1.160355
v -0.770747 0.149438 -1.260354
v 0.729253 0.149438 -1.260354
v -0.770747 0.149438 -1.360355
v 0.729253 0.149438 -1.360355
v -0.870747 0.249438 1.339646
v -0.770747 0.249438 1.339646
v 0.729253 0.249438 1.339646
v 0.829253 0.249438 1.339646
v -0.870747 0.249438 1.239645
v -0.770747 0.249438 1.239645
v 0.729253 0.249438 1.239645
v 0.829253 0.249438 1.239645
v -0.870747 0.249438 0.739646
v -0.770747 0.249438 0.739646
v 0.729253 0.249438 0.739646
v 0.829253 0.249438 0.739646
v -0.870747 0.249438 0.639645
v -0.770747 0.249438 0.639645
v 0.729253 0.249438 0.639645
v 0.829253 0.249438 0.639645
v -0.870747 0.249438 -0.260354
v -0.770747 0.249438 -0.260354
v 0.729253 0.249438 -0.260354
v 0.829253 0.249438 -0.260354
v -0.870747 0.249438 -0.360354
v -0.770747 0.249438 -0.360354
v 0.729253 0.249438 -0.360354
v 0.829253 0.249438 -0.360354
v -0.870747 0.249438 -0.860355
v -0.770747 0.249438 -0.860355
v 0.729253 0.249438 -0.860355
v 0.829253 0.249438 -0.860355
v -0.870747 0.249438 -0.960355
v -0.770747 0.249438 -0.960355
v 0.729253 0.249438 -0.960355
v 0.829253 0.249438 -0.960355
v -0.670747 0.749438 0.439646
v 0.629253 0.749438 0.439646
v -0.670747 0.749438 0.339646
v 0.629253 0.749438 0.339646
v 0.529254 0.749438 0.239645
v 0.629253 0.749438 0.239645
v -0.670747 0.749438 0.039645
v -0.570747 0.749438 0.039645
v -0.870747 0.749438 -0.060354
v -0.770747 0.749438 -0.060354
v 0.729253 0.749438 -0.060354
v 0.829253 0.749438 -0.060354
v -0.870747 0.749438 -0.160354
v -0.770747 0.749438 -0.160354
v 0.729253 0.749438 -0.160354
v 0.829253 0.749438 -0.160354
v -0.870747 0.749438 -0.660355
v -0.770747 0.749438 -0.660355
v 0.729253 0.749438 -0.660355
v 0.829253 0.749438 -0.660355
v -0.870747 0.749438 -0.760354
v -0.770747 0.749438 -0.760354
v 0.729253 0.749438 -0.760354
v 0.829253 0.749438 -0.760354
v 0.529254 0.749438 -0.860355
v 0.629253 0.749438 -0.860355
v -0.570747 0.749438 -0.960355
v 0.629253 0.749438 -0.960355
v -0.670747 0.749438 -1.060354
v 0.629253 0.749438 -1.060354
v -0.870747 0.949438 0.339646
v -0.770747 0.949438 0.339646
v 0.729253 0.949438 0.339646
v 0.829253 0.949438 0.339646
v -0.870747 0.949438 0.239645
v -0.770747 0.949438 0.239645
v 0.729253 0.949438 0.239645
v 0.829253 0.949438 0.239645
v -0.770747 1.249438 0.239645
v -0.670747 1.249438 0.239645
v 0.629253 1.249438 0.239645
v 0.729253 1.249438 0.239645
v -0.770747 1.249438 -0.160354
v -0.670747 1.249438 -0.160354
v 0.629253 1.249438 -0.160354
v 0.729253 1.249438 -0.160354
v -0.770747 1.249438 -0.360354
v -0.670747 1.249438 -0.360354
v 0.629253 1.249438 -0.360354
v 0.729253 1.249438 -0.360354
v -0.770747 1.249438 -0.760354
v -0.670747 1.249438 -0.760354
v 0.629253 1.249438 -0.760354
v 0.729253 1.249438 -0.760354
v -0.470746 1.249438 -1.060354
v 0.429253 1.249438 -1.060354
v -0.470746 1.249438 -1.160355
v 0.429253 1.249438 -1.160355
v -0.670747 1.349438 0.439645
v 0.629253 1.349438 0.439645
v -0.670747 1.349438 0.339646
v 0.629253 1.349438 0.339646
v -0.570747 1.349438 0.239645
v -0.370747 1.349438 0.239645
v 0.329253 1.349438 0.239645
v 0.529254 1.349438 0.239645
v -0.470746 1.349438 -0.060355
v -0.370747 1.349438 -0.060355
v 0.329253 1.349438 -0.060355
v 0.429253 1.349438 -0.060355
v -0.470746 1.349438 -0.160354
v -0.370747 1.349438 -0.160354
v -0.270747 1.349438 -0.160354
v 0.229253 1.349438 -0.160354
v 0.329253 1.349438 -0.160354
v 0.429253 1.349438 -0.160354
v -0.470746 1.349438 -0.260355
v -0.370747 1.349438 -0.260355
v -0.270747 1.349438 -0.260355
v 0.229253 1.349438 -0.260355
v 0.329253 1.349438 -0.260355
v 0.429253 1.349438 -0.260355
v -0.470746 1.349438 -0.360354
v -0.370747 1.349438 -0.360354
v -0.270747 1.349438 -0.360354
v 0.229253 1.349438 -0.360354
v 0.329253 1.349438 -0.360354
v 0.429253 1.349438 -0.360354
v -0.470746 1.349438 -0.460355
v -0.370747 1.349438 -0.460355
v -0.270747 1.349438 -0.460355
v 0.229253 1.349438 -0.460355
v 0.329253 1.349438 -0.460355
v 0.429253 1.349438 -0.460355
v -0.470746 1.349438 -0.560355
v -0.370747 1.349438 -0.560355
v -0.270747 1.349438 -0.560355
v 0.229253 1.349438 -0.560355
v 0.329253 1.349438 -0.560355
v 0.429253 1.349438 -0.560355
v -0.470746 1.349438 -0.660355
v -0.370747 1.349438 -0.660355
v -0.270747 1.349438 -0.660355
v 0.229253 1.349438 -0.660355
v 0.329253 1.349438 -0.660355
v 0.429253 1.349438 -0.660355
v -0.470746 1.349438 -0.760354
v -0.370747 1.349438 -0.760354
v -0.270747 1.349438 -0.760354
v 0.229253 1.349438 -0.760354
v 0.329253 1.349438 -0.760354
v 0.429253 1.349438 -0.760354
v -0.470746 1.349438 -0.860355
v -0.370747 1.349438 -0.860355
v -0.270747 1.349438 -0.860355
v 0.229253 1.349438 -0.860355
v 0.329253 1.349438 -0.860355
v 0.429253 1.349438 -0.860355
v 0.529254 1.349438 -0.860355
v 0.629253 1.349438 -0.860355
v -0.570747 1.349438 -0.960355
v -0.470746 1.349438 -0.960355
v -0.370747 1.349438 -0.960355
v 0.329253 1.349438 -0.960355
v 0.429253 1.349438 -0.960355
v 0.629253 1.349438 -0.960355
v -0.770747 0.249438 -1.260354
v 0.729253 0.249438 -1.260354
v -0.770747 0.249438 -1.360355
v 0.729253 0.249438 -1.360355
v -0.770747 0.449438 1.639646
v 0.729253 0.449438 1.639646
v -0.770747 0.449438 1.539645
v -0.670747 0.449438 1.539645
v -0.470746 0.449438 1.539645
v 0.429253 0.449438 1.539645
v 0.629253 0.449438 1.539645
v 0.729253 0.449438 1.539645
v -0.670747 0.449438 0.439646
v 0.629253 0.449438 0.439646
v -0.670747 0.449438 0.339646
v 0.629253 0.449438 0.339646
v 0.429253 0.449438 0.139645
v 0.529254 0.449438 0.139645
v -0.670747 0.449438 0.039645
v 0.429253 0.449438 0.039645
v 0.529254 0.449438 0.039645
v 0.629253 0.449438 0.039645
v -0.670747 0.449438 -0.060354
v 0.629253 0.449438 -0.060354
v -0.670747 0.449438 -0.160354
v 0.629253 0.449438 -0.160354
v -0.670747 0.449438 -0.260354
v 0.629253 0.449438 -0.260354
v -0.670747 0.449438 -0.960355
v -0.670747 0.449438 -1.060354
v 0.629253 0.449438 -1.060354
v -0.870747 0.549438 1.339646
v -0.770747 0.549438 1.339646
v 0.729253 0.549438 1.339646
v 0.829253 0.549438 1.339646
v -0.870747 0.549438 0.639645
v -0.770747 0.549438 0.639645
v 0.729253 0.549438 0.639645
v 0.829253 0.549438 0.639645
v 0.529254 0.549438 0.139645
v 0.629253 0.549438 0.139645
v 0.529254 0.549438 0.039645
v 0.629253 0.549438 0.039645
v -0.870747 0.549438 -0.260355
v -0.770747 0.549438 -0.260355
v 0.729253 0.549438 -0.260355
v 0.829253 0.549438 -0.260355
v -0.870747 0.549438 -0.960355
v -0.770747 0.549438 -0.960355
v 0.729253 0.549438 -0.960355
v 0.829253 0.549438 -0.960355
v -0.770747 0.549438 -1.060354
v -0.670747 0.549438 -1.060354
v 0.629253 0.549438 -1.060354
v 0.729253 0.549438 -1.060354
v -0.670747 0.549438 -1.160355
v 0.629253 0.549438 -1.160355
v -0.770747 0.549438 -1.260354
v 0.729253 0.549438 -1.260354
v -0.770747 0.649438 1.539645
v -0.670747 0.649438 1.539645
v 0.629253 0.649438 1.539645
v 0.729253 0.649438 1.539645
v -0.770747 0.649438 1.439646
v -0.670747 0.649438 1.439646
v 0.629253 0.649438 1.439646
v 0.729253 0.649438 1.439646
v 0.429253 0.649438 0.239645
v 0.629253 0.649438 0.239645
v 0.429253 0.649438 0.139645
v 0.629253 0.649438 0.139645
v -0.670747 0.749438 1.539645
v 0.629253 0.749438 1.539645
v -0.770747 0.749438 1.439646
v -0.670747 0.749438 1.439646
v -0.370747 0.749438 1.439646
v 0.329253 0.749438 1.439646
v 0.629253 0.749438 1.439646
v 0.729253 0.749438 1.439646
v -0.370747 0.749438 0.839646
v 0.329253 0.749438 0.839646
v -0.670747 0.749438 0.639645
v 0.629253 0.749438 0.639645
v -0.770747 0.749438 0.539645
v -0.670747 0.749438 0.539645
v 0.629253 0.749438 0.539645
v 0.729253 0.749438 0.539645
v -0.570747 0.749438 0.239645
v 0.429253 0.749438 0.239645
v -0.570747 0.749438 0.039645
v 0.429253 0.749438 0.039645
v -0.370747 0.849438 1.439646
v 0.329253 0.849438 1.439646
v -0.370747 0.849438 0.839646
v 0.329253 0.849438 0.839646
v -0.670747 0.849438 0.639645
v 0.629253 0.849438 0.639645
v -0.770747 0.849438 0.539645
v -0.670747 0.849438 0.539645
v 0.629253 0.849438 0.539645
v 0.729253 0.849438 0.539645
v -0.770747 0.849438 0.439646
v -0.670747 0.849438 0.439646
v 0.629253 0.849438 0.439646
v 0.729253 0.849438 0.439646
v -0.670747 0.849438 0.339646
v 0.629253 0.849438 0.339646
v -0.770747 0.849438 0.239645
v -0.670747 0.849438 0.239645
v 0.629253 0.849438 0.239645
v 0.729253 0.849438 0.239645
v -0.770747 0.849438 -0.060354
v -0.670747 0.849438 -0.060354
v 0.629253 0.849438 -0.060354
v 0.729253 0.849438 -0.060354
v -0.770747 0.849438 -0.360354
v -0.670747 0.849438 -0.360354
v 0.629253 0.849438 -0.360354
v 0.729253 0.849438 -0.360354
v -0.770747 0.849438 -0.660355
v -0.670747 0.849438 -0.660355
v 0.629253 0.849438 -0.660355
v 0.729253 0.849438 -0.660355
v 0.629253 0.849438 -0.760354
v 0.729253 0.849438 -0.760354
v -0.470746 0.849438 -1.060354
v 0.429253 0.849438 -1.060354
v -0.470746 0.849438 -1.160355
v 0.429253 0.849438 -1.160355
v -0.870747 0.949438 -0.060354
v -0.670747 0.949438 -0.060354
v 0.629253 0.949438 -0.060354
v 0.829253 0.949438 -0.060354
v -0.870747 0.949438 -0.160354
v -0.770747 0.949438 -0.160354
v -0.670747 0.949438 -0.160354
v 0.629253 0.949438 -0.160354
v 0.729253 0.949438 -0.160354
v 0.829253 0.949438 -0.160354
v -0.870747 0.949438 -0.660355
v -0.670747 0.949438 -0.660355
v 0.729253 0.949438 -0.660355
v 0.829253 0.949438 -0.660355
v -0.870747 0.949438 -0.760354
v -0.770747 0.949438 -0.760354
v -0.670747 0.949438 -0.760354
v 0.729253 0.949438 -0.760354
v 0.829253 0.949438 -0.760354
v -0.870747 1.149438 0.339646
v -0.770747 1.149438 0.339646
v 0.729253 1.149438 0.339646
v 0.829253 1.149438 0.339646
v -0.870747 1.149438 0.239645
v -0.770747 1.149438 0.239645
v 0.729253 1.149438 0.239645
v 0.829253 1.149438 0.239645
v -0.770747 1.449438 0.439645
v 0.729253 1.449438 0.439645
v -0.370747 1.449438 0.239645
v 0.329253 1.449438 0.239645
v -0.470746 1.449438 -0.060355
v -0.370747 1.449438 -0.060355
v 0.329253 1.449438 -0.060355
v 0.429253 1.449438 -0.060355
v -0.470746 1.449438 -0.160354
v -0.370747 1.449438 -0.160354
v -0.270747 1.449438 -0.160354
v 0.229253 1.449438 -0.160354
v 0.329253 1.449438 -0.160354
v 0.429253 1.449438 -0.160354
v -0.470746 1.449438 -0.260355
v -0.370747 1.449438 -0.260355
v -0.270747 1.449438 -0.260355
v 0.229253 1.449438 -0.260355
v 0.329253 1.449438 -0.260355
v 0.429253 1.449438 -0.260355
v -0.470746 1.449438 -0.360354
v -0.370747 1.449438 -0.360354
v -0.270747 1.449438 -0.360354
v 0.229253 1.449438 -0.360354
v 0.329253 1.449438 -0.360354
v 0.429253 1.449438 -0.360354
v -0.470746 1.449438 -0.460355
v -0.370747 1.449438 -0.460355
v -0.270747 1.449438 -0.460355
v 0.229253 1.449438 -0.460355
v 0.329253 1.449438 -0.460355
v 0.429253 1.449438 -0.460355
v -0.470746 1.449438 -0.560355
v -0.370747 1.449438 -0.560355
v -0.270747 1.449438 -0.560355
v 0.229253 1.449438 -0.560355
v 0.329253 1.449438 -0.560355
v 0.429253 1.449438 -0.560355
v -0.470746 1.449438 -0.660355
v -0.370747 1.449438 -0.660355
v -0.270747 1.449438 -0.660355
v 0.229253 1.449438 -0.660355
v 0.329253 1.449438 -0.660355
v 0.429253 1.449438 -0.660355
v -0.470746 1.449438 -0.760354
v -0.370747 1.449438 -0.760354
v -0.270747 1.449438 -0.760354
v 0.229253 1.449438 -0.760354
v 0.329253 1.449438 -0.760354
v 0.429253 1.449438 -0.760354
v -0.470746 1.449438 -0.860355
v -0.370747 1.449438 -0.860355
v -0.270747 1.449438 -0.860355
v 0.229253 1.449438 -0.860355
v 0.329253 1.449438 -0.860355
v 0.429253 1.449438 -0.860355
v -0.470746 1.449438 -0.960355
v -0.370747 1.449438 -0.960355
v 0.329253 1.449438 -0.960355
v 0.429253 1.449438 -0.960355
v -0.770747 1.449438 -1.060354
v -0.670747 1.449438 -1.060354
v 0.629253 1.449438 -1.060354
v 0.729253 1.449438 -1.060354
v -0.670747 1.449438 -1.160355
v 0.629253 1.449438 -1.160355
v -0.370747 1.549438 0.239645
v 0.329253 1.549438 0.239645
v -0.270747 1.549438 0.139645
v 0.229253 1.549438 0.139645
v -0.270747 1.549438 0.039645
v 0.229253 1.549438 0.039645
v -0.370747 1.549438 -0.060355
v 0.329253 1.549438 -0.060355
v -0.270747 1.749438 0.139645
v 0.229253 1.749438 0.139645
v -0.270747 1.749438 0.039645
v 0.229253 1.749438 0.039645
vn -1.0000 -0.0000 -0.0000
vn 1.0000 -0.0000 -0.0000
vn -0.0000 -0.0000 1.0000
vn -0.0000 -0.0000 -1.0000
vn -0.0000 -1.0000 -0.0000
vn -0.0000 1.0000 -0.0000
vt 0.912109 0.500000
vt 0.943359 0.500000
vt 0.751953 0.500000
vt 0.978516 0.500000
vt 0.908203 0.500000
vt 0.970703 0.500000
vt 0.306641 0.500000
vt 0.916016 0.500000
vt 0.755859 0.500000
vt 0.876953 0.500000
vt 0.939453 0.500000
vt 0.974609 0.500000
vt 0.845703 0.500000
s 1
usemtl palette
f 5/1/1 2/1/1 1/1/1
f 6/1/1 2/1/1 5/1/1
f 7/1/1 4/1/1 3/1/1
f 8/1/1 4/1/1 7/1/1
f 10/1/1 5/1/1 1/1/1
f 11/2/1 6/2/1 5/2/1
f 11/1/1 5/1/1 10/1/1
f 12/1/1 2/1/1 6/1/1
f 12/2/1 6/2/1 11/2/1
f 13/1/1 2/1/1 12/1/1
f 16/1/1 7/1/1 3/1/1
f 17/2/1 8/2/1 7/2/1
f 17/1/1 7/1/1 16/1/1
f 18/1/1 4/1/1 8/1/1
f 18/2/1 8/2/1 17/2/1
f 19/1/1 4/1/1 18/1/1
f 21/1/1 11/1/1 10/1/1
f 21/3/1 10/3/1 9/3/1
f 21/1/1 13/1/1 12/1/1
f 21/1/1 12/1/1 11/1/1
f 22/3/1 14/3/1 13/3/1
f 22/1/1 13/1/1 21/1/1
f 23/1/1 17/1/1 16/1/1
f 23/1/1 19/1/1 18/1/1
f 23/3/1 16/3/1 15/3/1
f 23/1/1 18/1/1 17/1/1
f 24/3/1 20/3/1 19/3/1
f 24/1/1 19/1/1 23/1/1
f 25/3/1 22/3/1 21/3/1
f 25/3/1 21/3/1 9/3/1
f 26/3/1 14/3/1 22/3/1
f 26/3/1 22/3/1 25/3/1
f 27/3/1 23/3/1 15/3/1
f 27/3/1 24/3/1 23/3/1
f 28/3/1 20/3/1 24/3/1
f 28/3/1 24/3/1 27/3/1
f 35/4/1 30/4/1 29/4/1
f 36/4/1 30/4/1 35/4/1
f 37/4/1 32/4/1 31/4/1
f 38/4/1 32/4/1 37/4/1
f 39/5/1 34/5/1 33/5/1
f 40/5/1 34/5/1 39/5/1
f 50/6/1 42/6/1 41/6/1
f 50/7/1 43/7/1 42/7/1
f 51/8/1 44/8/1 43/8/1
f 51/7/1 43/7/1 50/7/1
f 52/8/1 44/8/1 51/8/1
f 53/7/1 46/7/1 45/7/1
f 54/7/1 46/7/1 53/7/1
f 55/7/1 46/7/1 54/7/1
f 56/7/1 46/7/1 55/7/1
f 57/7/1 48/7/1 47/7/1
f 58/7/1 48/7/1 57/7/1
f 59/6/1 49/6/1 48/6/1
f 59/7/1 48/7/1 58/7/1
f 60/6/1 49/6/1 59/6/1
f 61/6/1 50/6/1 41/6/1
f 62/3/1 51/3/1 50/3/1
f 62/6/1 50/6/1 61/6/1
f 63/3/1 55/3/1 54/3/1
f 64/3/1 55/3/1 63/3/1
f 65/3/1 55/3/1 64/3/1
f 66/3/1 55/3/1 65/3/1
f 67/3/1 55/3/1 66/3/1
f 68/3/1 55/3/1 67/3/1
f 69/3/1 55/3/1 68/3/1
f 70/3/1 55/3/1 69/3/1
f 71/3/1 55/3/1 70/3/1
f 72/3/1 55/3/1 71/3/1
f 73/6/1 59/6/1 58/6/1
f 74/6/1 59/6/1 73/6/1
f 75/3/1 51/3/1 62/3/1
f 76/9/1 64/9/1 63/9/1
f 77/3/1 65/3/1 64/3/1
f 77/9/1 64/9/1 76/9/1
f 78/9/1 66/9/1 65/9/1
f 78/3/1 65/3/1 77/3/1
f 79/3/1 67/3/1 66/3/1
f 79/9/1 66/9/1 78/9/1
f 80/9/1 68/9/1 67/9/1
f 80/3/1 67/3/1 79/3/1
f 81/3/1 69/3/1 68/3/1
f 81/9/1 68/9/1 80/9/1
f 82/9/1 70/9/1 69/9/1
f 82/3/1 69/3/1 81/3/1
f 83/3/1 71/3/1 70/3/1
f 83/9/1 70/9/1 82/9/1
f 84/9/1 72/9/1 71/9/1
f 84/3/1 71/3/1 83/3/1
f 85/9/1 72/9/1 84/9/1
f 86/3/1 74/3/1 73/3/1
f 87/6/1 59/6/1 74/6/1
f 87/3/1 74/3/1 86/3/1
f 88/6/1 59/6/1 87/6/1
f 89/3/1 75/3/1 62/3/1
f 89/3/1 76/3/1 75/3/1
f 89/3/1 77/3/1 76/3/1
f 90/3/1 77/3/1 89/3/1
f 91/9/1 78/9/1 77/9/1
f 91/3/1 77/3/1 90/3/1
f 92/3/1 79/3/1 78/3/1
f 92/9/1 78/9/1 91/9/1
f 93/9/1 80/9/1 79/9/1
f 93/3/1 79/3/1 92/3/1
f 94/3/1 81/3/1 80/3/1
f 94/9/1 80/9/1 93/9/1
f 95/9/1 82/9/1 81/9/1
f 95/3/1 81/3/1 94/3/1
f 96/3/1 83/3/1 82/3/1
f 96/9/1 82/9/1 95/9/1
f 97/9/1 84/9/1 83/9/1
f 97/3/1 83/3/1 96/3/1
f 98/3/1 86/3/1 85/3/1
f 98/9/1 84/9/1 97/9/1
f 98/3/1 85/3/1 84/3/1
f 98/3/1 87/3/1 86/3/1
f 99/3/1 95/3/1 94/3/1
f 99/3/1 97/3/1 96/3/1
f 99/3/1 98/3/1 97/3/1
f 99/3/1 91/3/1 90/3/1
f 99/3/1 96/3/1 95/3/1
f 99/3/1 92/3/1 91/3/1
f 99/3/1 94/3/1 93/3/1
f 99/3/1 93/3/1 92/3/1
f 100/3/1 98/3/1 99/3/1
f 101/3/1 98/3/1 100/3/1
f 102/3/1 87/3/1 98/3/1
f 102/3/1 98/3/1 101/3/1
f 103/3/1 87/3/1 102/3/1
f 104/3/1 87/3/1 103/3/1
f 105/3/1 101/3/1 100/3/1
f 106/3/1 101/3/1 105/3/1
f 107/3/1 101/3/1 106/3/1
f 108/3/1 101/3/1 107/3/1
f 109/3/1 103/3/1 102/3/1
f 110/3/1 103/3/1 109/3/1
f 111/3/1 107/3/1 106/3/1
f 112/3/1 107/3/1 111/3/1
f 113/3/1 109/3/1 102/3/1
f 114/3/1 87/3/1 104/3/1
f 115/3/1 111/3/1 106/3/1
f 117/3/1 116/3/1 115/3/1
f 118/3/1 109/3/1 113/3/1
f 119/3/1 109/3/1 118/3/1
f 120/3/1 87/3/1 114/3/1
f 121/3/1 117/3/1 115/3/1
f 121/3/1 119/3/1 118/3/1
f 121/3/1 120/3/1 119/3/1
f 121/3/1 115/3/1 106/3/1
f 121/3/1 118/3/1 117/3/1
f 122/3/1 87/3/1 120/3/1
f 122/3/1 120/3/1 121/3/1
f 127/3/1 126/3/1 125/3/1
f 128/3/1 126/3/1 127/3/1
f 131/3/1 130/3/1 129/3/1
f 132/3/1 130/3/1 131/3/1
f 137/10/1 134/10/1 133/10/1
f 139/10/1 136/10/1 135/10/1
f 141/10/1 138/10/1 137/10/1
f 141/10/1 137/10/1 133/10/1
f 142/10/1 138/10/1 141/10/1
f 143/10/1 140/10/1 139/10/1
f 143/10/1 139/10/1 135/10/1
f 144/10/1 140/10/1 143/10/1
f 145/3/1 124/3/1 123/3/1
f 146/3/1 124/3/1 145/3/1
f 149/3/1 148/3/1 147/3/1
f 150/3/1 148/3/1 149/3/1
f 153/9/1 152/9/1 151/9/1
f 154/9/1 152/9/1 153/9/1
f 157/9/1 156/9/1 155/9/1
f 158/9/1 156/9/1 157/9/1
f 161/3/1 160/3/1 159/3/1
f 162/3/1 160/3/1 161/3/1
f 165/10/1 164/10/1 163/10/1
f 166/10/1 164/10/1 165/10/1
f 169/10/1 168/10/1 167/10/1
f 170/10/1 168/10/1 169/10/1
f 178/9/1 172/9/1 171/9/1
f 179/9/1 172/9/1 178/9/1
f 181/9/1 174/9/1 173/9/1
f 182/3/1 175/3/1 174/3/1
f 182/9/1 174/9/1 181/9/1
f 183/9/1 176/9/1 175/9/1
f 183/3/1 175/3/1 182/3/1
f 184/3/1 177/3/1 176/3/1
f 184/9/1 176/9/1 183/9/1
f 185/3/1 177/3/1 184/3/1
f 186/3/1 179/3/1 178/3/1
f 188/9/1 181/9/1 180/9/1
f 189/3/1 182/3/1 181/3/1
f 189/9/1 181/9/1 188/9/1
f 190/9/1 183/9/1 182/9/1
f 190/3/1 182/3/1 189/3/1
f 191/3/1 184/3/1 183/3/1
f 191/9/1 183/9/1 190/9/1
f 191/3/1 185/3/1 184/3/1
f 192/3/1 179/3/1 186/3/1
f 193/3/1 179/3/1 192/3/1
f 194/3/1 189/3/1 188/3/1
f 194/3/1 188/3/1 187/3/1
f 194/3/1 190/3/1 189/3/1
f 194/3/1 191/3/1 190/3/1
f 195/3/1 185/3/1 191/3/1
f 195/3/1 191/3/1 194/3/1
f 196/3/1 185/3/1 195/3/1
f 197/3/1 185/3/1 196/3/1
f 200/3/1 196/3/1 195/3/1
f 201/3/1 199/3/1 198/3/1
f 202/3/1 199/3/1 201/3/1
f 203/3/1 200/3/1 195/3/1
f 204/3/1 200/3/1 203/3/1
f 209/1/1 206/1/1 205/1/1
f 210/1/1 206/1/1 209/1/1
f 211/1/1 206/1/1 210/1/1
f 212/1/1 208/1/1 207/1/1
f 213/1/1 208/1/1 212/1/1
f 214/1/1 208/1/1 213/1/1
f 217/4/1 216/4/1 215/4/1
f 218/4/1 216/4/1 217/4/1
f 219/1/2 220/1/2 223/1/2
f 223/1/2 220/1/2 224/1/2
f 224/1/2 220/1/2 225/1/2
f 221/1/2 222/1/2 226/1/2
f 226/1/2 222/1/2 227/1/2
f 227/1/2 222/1/2 228/1/2
f 229/9/2 230/9/2 237/9/2
f 237/9/2 230/9/2 238/9/2
f 231/9/2 232/9/2 239/9/2
f 232/3/2 233/3/2 240/3/2
f 239/9/2 232/9/2 240/9/2
f 233/9/2 234/9/2 241/9/2
f 240/3/2 233/3/2 241/3/2
f 234/11/2 235/11/2 242/11/2
f 241/9/2 234/9/2 242/9/2
f 235/3/2 236/3/2 243/3/2
f 242/11/2 235/11/2 243/11/2
f 243/3/2 236/3/2 244/3/2
f 237/3/2 238/3/2 245/3/2
f 239/3/2 240/3/2 246/3/2
f 240/9/2 241/9/2 246/9/2
f 241/3/2 242/3/2 247/3/2
f 246/9/2 241/9/2 247/9/2
f 242/3/2 243/3/2 247/3/2
f 243/3/2 244/3/2 247/3/2
f 245/3/2 238/3/2 248/3/2
f 248/3/2 238/3/2 249/3/2
f 239/3/2 246/3/2 250/3/2
f 246/3/2 247/3/2 250/3/2
f 247/3/2 244/3/2 251/3/2
f 250/3/2 247/3/2 251/3/2
f 252/3/2 253/3/2 254/3/2
f 254/3/2 253/3/2 255/3/2
f 256/10/2 257/10/2 259/10/2
f 257/10/2 258/10/2 259/10/2
f 256/10/2 259/10/2 260/10/2
f 260/10/2 259/10/2 261/10/2
f 262/3/2 263/3/2 264/3/2
f 264/3/2 263/3/2 265/3/2
f 266/9/2 267/9/2 268/9/2
f 268/9/2 267/9/2 269/9/2
f 270/3/2 271/3/2 272/3/2
f 272/3/2 271/3/2 273/3/2
f 274/9/2 275/9/2 276/9/2
f 276/9/2 275/9/2 277/9/2
f 278/10/2 279/10/2 281/10/2
f 280/10/2 281/10/2 282/10/2
f 281/10/2 279/10/2 283/10/2
f 282/10/2 281/10/2 283/10/2
f 286/3/2 287/3/2 288/3/2
f 288/3/2 287/3/2 289/3/2
f 290/3/2 291/3/2 292/3/2
f 292/3/2 291/3/2 293/3/2
f 294/10/2 295/10/2 299/10/2
f 294/10/2 299/10/2 301/10/2
f 299/10/2 300/10/2 301/10/2
f 301/10/2 300/10/2 302/10/2
f 297/10/2 298/10/2 303/10/2
f 296/10/2 297/10/2 303/10/2
f 303/10/2 298/10/2 304/10/2
f 284/3/2 285/3/2 305/3/2
f 305/3/2 285/3/2 306/3/2
f 307/6/2 308/6/2 316/6/2
f 308/7/2 309/7/2 316/7/2
f 309/8/2 310/8/2 317/8/2
f 316/7/2 309/7/2 317/7/2
f 317/8/2 310/8/2 318/8/2
f 311/7/2 312/7/2 319/7/2
f 319/7/2 312/7/2 320/7/2
f 320/7/2 312/7/2 321/7/2
f 321/7/2 312/7/2 322/7/2
f 313/7/2 314/7/2 323/7/2
f 323/7/2 314/7/2 324/7/2
f 314/6/2 315/6/2 325/6/2
f 324/7/2 314/7/2 325/7/2
f 325/6/2 315/6/2 326/6/2
f 307/6/2 316/6/2 327/6/2
f 316/3/2 317/3/2 328/3/2
f 327/6/2 316/6/2 328/6/2
f 320/3/2 321/3/2 329/3/2
f 329/3/2 321/3/2 330/3/2
f 330/3/2 321/3/2 331/3/2
f 331/3/2 321/3/2 332/3/2
f 332/3/2 321/3/2 333/3/2
f 333/3/2 321/3/2 334/3/2
f 334/3/2 321/3/2 335/3/2
f 335/3/2 321/3/2 336/3/2
f 336/3/2 321/3/2 337/3/2
f 337/3/2 321/3/2 338/3/2
f 324/6/2 325/6/2 339/6/2
f 339/6/2 325/6/2 340/6/2
f 328/3/2 317/3/2 341/3/2
f 329/9/2 330/9/2 342/9/2
f 330/3/2 331/3/2 343/3/2
f 342/9/2 330/9/2 343/9/2
f 331/9/2 332/9/2 344/9/2
f 343/3/2 331/3/2 344/3/2
f 332/3/2 333/3/2 345/3/2
f 344/9/2 332/9/2 345/9/2
f 333/9/2 334/9/2 346/9/2
f 345/3/2 333/3/2 346/3/2
f 334/3/2 335/3/2 347/3/2
f 346/9/2 334/9/2 347/9/2
f 335/9/2 336/9/2 348/9/2
f 347/3/2 335/3/2 348/3/2
f 336/3/2 337/3/2 349/3/2
f 348/9/2 336/9/2 349/9/2
f 337/9/2 338/9/2 350/9/2
f 349/3/2 337/3/2 350/3/2
f 350/9/2 338/9/2 351/9/2
f 339/3/2 340/3/2 352/3/2
f 340/6/2 325/6/2 353/6/2
f 352/3/2 340/3/2 353/3/2
f 353/6/2 325/6/2 354/6/2
f 328/3/2 341/3/2 355/3/2
f 341/3/2 342/3/2 355/3/2
f 342/3/2 343/3/2 355/3/2
f 355/3/2 343/3/2 356/3/2
f 343/9/2 344/9/2 357/9/2
f 356/3/2 343/3/2 357/3/2
f 344/3/2 345/3/2 358/3/2
f 357/9/2 344/9/2 358/9/2
f 345/9/2 346/9/2 359/9/2
f 358/3/2 345/3/2 359/3/2
f 346/3/2 347/3/2 360/3/2
f 359/9/2 346/9/2 360/9/2
f 347/9/2 348/9/2 361/9/2
f 360/3/2 347/3/2 361/3/2
f 348/3/2 349/3/2 362/3/2
f 361/9/2 348/9/2 362/9/2
f 349/9/2 350/9/2 363/9/2
f 362/3/2 349/3/2 363/3/2
f 351/3/2 352/3/2 364/3/2
f 363/9/2 350/9/2 364/9/2
f 350/3/2 351/3/2 364/3/2
f 352/3/2 353/3/2 364/3/2
f 360/3/2 361/3/2 365/3/2
f 362/3/2 363/3/2 365/3/2
f 363/3/2 364/3/2 365/3/2
f 356/3/2 357/3/2 365/3/2
f 361/3/2 362/3/2 365/3/2
f 357/3/2 358/3/2 365/3/2
f 359/3/2 360/3/2 365/3/2
f 358/3/2 359/3/2 365/3/2
f 365/3/2 364/3/2 366/3/2
f 366/3/2 364/3/2 367/3/2
f 364/3/2 353/3/2 368/3/2
f 367/3/2 364/3/2 368/3/2
f 368/3/2 353/3/2 369/3/2
f 369/3/2 353/3/2 370/3/2
f 366/3/2 367/3/2 371/3/2
f 371/3/2 367/3/2 372/3/2
f 372/3/2 367/3/2 373/3/2
f 373/3/2 367/3/2 374/3/2
f 368/3/2 369/3/2 375/3/2
f 375/3/2 369/3/2 376/3/2
f 372/3/2 373/3/2 377/3/2
f 377/3/2 373/3/2 378/3/2
f 368/3/2 375/3/2 379/3/2
f 370/3/2 353/3/2 380/3/2
f 372/3/2 377/3/2 381/3/2
f 381/3/2 382/3/2 383/3/2
f 379/3/2 375/3/2 384/3/2
f 384/3/2 375/3/2 385/3/2
f 380/3/2 353/3/2 386/3/2
f 381/3/2 383/3/2 387/3/2
f 384/3/2 385/3/2 387/3/2
f 385/3/2 386/3/2 387/3/2
f 372/3/2 381/3/2 387/3/2
f 383/3/2 384/3/2 387/3/2
f 386/3/2 353/3/2 388/3/2
f 387/3/2 386/3/2 388/3/2
f 389/1/2 390/1/2 393/1/2
f 393/1/2 390/1/2 394/1/2
f 391/1/2 392/1/2 395/1/2
f 395/1/2 392/1/2 396/1/2
f 389/1/2 393/1/2 398/1/2
f 393/2/2 394/2/2 399/2/2
f 398/1/2 393/1/2 399/1/2
f 394/1/2 390/1/2 400/1/2
f 399/2/2 394/2/2 400/2/2
f 400/1/2 390/1/2 401/1/2
f 391/1/2 395/1/2 404/1/2
f 395/2/2 396/2/2 405/2/2
f 404/1/2 395/1/2 405/1/2
f 396/1/2 392/1/2 406/1/2
f 405/2/2 396/2/2 406/2/2
f 406/1/2 392/1/2 407/1/2
f 398/1/2 399/1/2 409/1/2
f 397/3/2 398/3/2 409/3/2
f 400/1/2 401/1/2 409/1/2
f 399/1/2 400/1/2 409/1/2
f 401/3/2 402/3/2 410/3/2
f 409/1/2 401/1/2 410/1/2
f 404/1/2 405/1/2 411/1/2
f 406/1/2 407/1/2 411/1/2
f 403/3/2 404/3/2 411/3/2
f 405/1/2 406/1/2 411/1/2
f 407/3/2 408/3/2 412/3/2
f 411/1/2 407/1/2 412/1/2
f 409/3/2 410/3/2 413/3/2
f 397/3/2 409/3/2 413/3/2
f 410/3/2 402/3/2 414/3/2
f 413/3/2 410/3/2 414/3/2
f 403/3/2 411/3/2 415/3/2
f 411/3/2 412/3/2 415/3/2
f 412/3/2 408/3/2 416/3/2
f 415/3/2 412/3/2 416/3/2
f 417/4/2 418/4/2 423/4/2
f 423/4/2 418/4/2 424/4/2
f 419/4/2 420/4/2 425/4/2
f 425/4/2 420/4/2 426/4/2
f 421/5/2 422/5/2 427/5/2
f 427/5/2 422/5/2 428/5/2
f 431/6/3 430/6/3 429/6/3
f 432/6/3 430/6/3 431/6/3
f 433/6/3 431/6/3 429/6/3
f 433/12/3 432/12/3 431/12/3
f 434/6/3 430/6/3 432/6/3
f 434/12/3 432/12/3 433/12/3
f 435/6/3 433/6/3 429/6/3
f 435/6/3 434/6/3 433/6/3
f 436/6/3 430/6/3 434/6/3
f 436/6/3 434/6/3 435/6/3
f 439/3/3 438/3/3 437/3/3
f 440/3/3 438/3/3 439/3/3
f 441/3/3 438/3/3 440/3/3
f 443/13/3 440/13/3 439/13/3
f 444/3/3 442/3/3 441/3/3
f 444/13/3 440/13/3 443/13/3
f 444/3/3 441/3/3 440/3/3
f 445/3/3 444/3/3 443/3/3
f 446/3/3 442/3/3 444/3/3
f 446/3/3 444/3/3 445/3/3
f 447/13/3 446/13/3 445/13/3
f 448/3/3 442/3/3 446/3/3
f 448/13/3 446/13/3 447/13/3
f 449/3/3 442/3/3 448/3/3
f 450/3/3 442/3/3 449/3/3
f 451/3/3 448/3/3 447/3/3
f 451/3/3 449/3/3 448/3/3
f 452/3/3 449/3/3 451/3/3
f 455/3/3 454/3/3 453/3/3
f 456/3/3 454/3/3 455/3/3
f 459/3/3 458/3/3 457/3/3
f 460/3/3 458/3/3 459/3/3
f 463/3/3 462/3/3 461/3/3
f 464/3/3 462/3/3 463/3/3
f 467/3/3 466/3/3 465/3/3
f 468/3/3 466/3/3 467/3/3
f 471/3/3 470/3/3 469/3/3
f 472/3/3 470/3/3 471/3/3
f 475/1/3 474/1/3 473/1/3
f 476/1/3 474/1/3 475/1/3
f 477/1/3 474/1/3 476/1/3
f 481/1/3 479/1/3 478/1/3
f 481/1/3 480/1/3 479/1/3
f 482/1/3 480/1/3 481/1/3
f 485/3/3 484/3/3 483/3/3
f 486/3/3 484/3/3 485/3/3
f 489/3/3 488/3/3 487/3/3
f 490/3/3 488/3/3 489/3/3
f 493/3/3 492/3/3 491/3/3
f 494/3/3 492/3/3 493/3/3
f 497/3/3 496/3/3 495/3/3
f 498/3/3 496/3/3 497/3/3
f 500/3/3 496/3/3 498/3/3
f 501/3/3 500/3/3 499/3/3
f 502/3/3 496/3/3 500/3/3
f 502/3/3 500/3/3 501/3/3
f 505/5/3 504/5/3 503/5/3
f 506/5/3 504/5/3 505/5/3
f 512/10/3 509/10/3 508/10/3
f 512/10/3 508/10/3 507/10/3
f 513/10/3 509/10/3 512/10/3
f 514/10/3 509/10/3 513/10/3
f 515/10/3 511/10/3 510/10/3
f 516/10/3 511/10/3 515/10/3
f 519/5/3 518/5/3 517/5/3
f 520/5/3 518/5/3 519/5/3
f 523/9/3 522/9/3 521/9/3
f 524/9/3 522/9/3 523/9/3
f 527/9/3 526/9/3 525/9/3
f 528/9/3 526/9/3 527/9/3
f 531/4/3 530/4/3 529/4/3
f 532/4/3 530/4/3 531/4/3
f 533/4/3 530/4/3 532/4/3
f 534/4/3 530/4/3 533/4/3
f 538/4/3 536/4/3 535/4/3
f 539/4/3 538/4/3 537/4/3
f 540/4/3 536/4/3 538/4/3
f 540/4/3 538/4/3 539/4/3
f 543/3/3 542/3/3 541/3/3
f 544/3/3 542/3/3 543/3/3
f 547/3/3 546/3/3 545/3/3
f 548/3/3 546/3/3 547/3/3
f 551/3/3 550/3/3 549/3/3
f 552/3/3 550/3/3 551/3/3
f 553/3/3 550/3/3 552/3/3
f 557/3/3 555/3/3 554/3/3
f 557/3/3 556/3/3 555/3/3
f 558/3/3 556/3/3 557/3/3
f 561/1/3 560/1/3 559/1/3
f 562/1/3 560/1/3 561/1/3
f 563/1/3 560/1/3 562/1/3
f 567/1/3 565/1/3 564/1/3
f 567/1/3 566/1/3 565/1/3
f 568/1/3 566/1/3 567/1/3
f 571/4/3 570/4/3 569/4/3
f 572/4/3 570/4/3 571/4/3
f 573/4/3 570/4/3 572/4/3
f 574/4/3 570/4/3 573/4/3
f 578/4/3 576/4/3 575/4/3
f 578/4/3 577/4/3 576/4/3
f 579/4/3 577/4/3 578/4/3
f 582/3/3 581/3/3 580/3/3
f 583/3/3 581/3/3 582/3/3
f 586/3/3 585/3/3 584/3/3
f 587/3/3 585/3/3 586/3/3
f 588/3/3 585/3/3 587/3/3
f 592/3/3 591/3/3 590/3/3
f 593/3/3 592/3/3 590/3/3
f 594/3/3 593/3/3 590/3/3
f 595/3/3 594/3/3 590/3/3
f 596/10/3 590/10/3 589/10/3
f 597/3/3 595/3/3 590/3/3
f 597/10/3 590/10/3 596/10/3
f 598/3/3 595/3/3 597/3/3
f 602/11/3 600/11/3 599/11/3
f 603/3/3 601/3/3 600/3/3
f 603/11/3 600/11/3 602/11/3
f 604/3/3 601/3/3 603/3/3
f 605/3/4 606/3/4 607/3/4
f 607/3/4 606/3/4 608/3/4
f 609/1/4 610/1/4 611/1/4
f 611/1/4 610/1/4 612/1/4
f 612/1/4 610/1/4 613/1/4
f 614/1/4 615/1/4 617/1/4
f 615/1/4 616/1/4 617/1/4
f 617/1/4 616/1/4 618/1/4
f 619/3/4 620/3/4 621/3/4
f 621/3/4 620/3/4 622/3/4
f 622/3/4 620/3/4 623/3/4
f 624/3/4 625/3/4 627/3/4
f 625/3/4 626/3/4 627/3/4
f 627/3/4 626/3/4 628/3/4
f 629/11/4 630/11/4 633/11/4
f 630/11/4 631/11/4 633/11/4
f 633/11/4 631/11/4 634/11/4
f 631/3/4 632/3/4 635/3/4
f 634/11/4 631/11/4 635/11/4
f 635/3/4 632/3/4 636/3/4
f 637/5/4 638/5/4 640/5/4
f 640/5/4 638/5/4 641/5/4
f 640/3/4 641/3/4 643/3/4
f 641/3/4 642/3/4 643/3/4
f 639/3/4 640/3/4 643/3/4
f 643/3/4 642/3/4 644/3/4
f 645/10/4 646/10/4 647/10/4
f 645/10/4 647/10/4 648/10/4
f 645/10/4 648/10/4 650/10/4
f 650/10/4 648/10/4 651/10/4
f 649/10/4 650/10/4 651/10/4
f 651/10/4 648/10/4 652/10/4
f 649/10/4 651/10/4 653/10/4
f 653/10/4 651/10/4 654/10/4
f 655/3/4 656/3/4 657/3/4
f 657/3/4 656/3/4 658/3/4
f 658/3/4 656/3/4 659/3/4
f 659/3/4 656/3/4 660/3/4
f 658/5/4 659/5/4 661/5/4
f 661/5/4 659/5/4 662/5/4
f 663/10/4 664/10/4 665/10/4
f 665/10/4 664/10/4 666/10/4
f 666/10/4 664/10/4 667/10/4
f 667/10/4 664/10/4 668/10/4
f 669/10/4 670/10/4 672/10/4
f 670/10/4 671/10/4 672/10/4
f 673/9/4 674/9/4 675/9/4
f 675/9/4 674/9/4 676/9/4
f 669/10/4 672/10/4 677/10/4
f 677/10/4 672/10/4 678/10/4
f 679/10/4 680/10/4 681/10/4
f 681/10/4 680/10/4 682/10/4
f 683/9/4 684/9/4 685/9/4
f 685/9/4 684/9/4 686/9/4
f 687/4/4 688/4/4 689/4/4
f 689/4/4 688/4/4 690/4/4
f 691/4/4 692/4/4 693/4/4
f 693/4/4 692/4/4 694/4/4
f 695/3/4 696/3/4 697/3/4
f 697/3/4 696/3/4 698/3/4
f 699/3/4 700/3/4 701/3/4
f 701/3/4 700/3/4 702/3/4
f 703/4/4 704/4/4 705/4/4
f 705/4/4 704/4/4 706/4/4
f 707/4/4 708/4/4 709/4/4
f 709/4/4 708/4/4 710/4/4
f 711/1/4 712/1/4 713/1/4
f 713/1/4 712/1/4 714/1/4
f 714/1/4 712/1/4 715/1/4
f 716/10/4 717/10/4 718/10/4
f 718/10/4 717/10/4 719/10/4
f 720/1/4 721/1/4 723/1/4
f 721/1/4 722/1/4 723/1/4
f 723/1/4 722/1/4 724/1/4
f 725/3/4 726/3/4 727/3/4
f 727/3/4 726/3/4 728/3/4
f 728/3/4 726/3/4 729/3/4
f 730/3/4 731/3/4 733/3/4
f 731/3/4 732/3/4 733/3/4
f 733/3/4 732/3/4 734/3/4
f 735/3/4 736/3/4 737/3/4
f 737/3/4 736/3/4 738/3/4
f 739/10/4 740/10/4 741/10/4
f 741/10/4 740/10/4 742/10/4
f 743/3/4 744/3/4 745/3/4
f 745/3/4 744/3/4 746/3/4
f 747/3/4 748/3/4 749/3/4
f 749/3/4 748/3/4 750/3/4
f 747/3/4 749/3/4 751/3/4
f 750/3/4 748/3/4 752/3/4
f 747/3/4 751/3/4 753/3/4
f 751/3/4 752/3/4 753/3/4
f 752/3/4 748/3/4 754/3/4
f 753/3/4 752/3/4 754/3/4
f 755/6/4 756/6/4 757/6/4
f 757/6/4 756/6/4 758/6/4
f 755/6/4 757/6/4 759/6/4
f 757/12/4 758/12/4 759/12/4
f 758/6/4 756/6/4 760/6/4
f 759/12/4 758/12/4 760/12/4
f 755/6/4 759/6/4 761/6/4
f 759/6/4 760/6/4 761/6/4
f 760/6/4 756/6/4 762/6/4
f 761/6/4 760/6/4 762/6/4
f 755/6/4 761/6/4 763/6/4
f 761/12/4 762/12/4 763/12/4
f 762/6/4 756/6/4 764/6/4
f 763/12/4 762/12/4 764/12/4
f 755/6/4 763/6/4 765/6/4
f 763/6/4 764/6/4 765/6/4
f 764/6/4 756/6/4 766/6/4
f 765/6/4 764/6/4 766/6/4
f 755/6/4 765/6/4 767/6/4
f 765/12/4 766/12/4 767/12/4
f 766/6/4 756/6/4 768/6/4
f 767/12/4 766/12/4 768/12/4
f 755/6/4 767/6/4 769/6/4
f 767/6/4 768/6/4 769/6/4
f 768/6/4 756/6/4 770/6/4
f 769/6/4 768/6/4 770/6/4
f 755/6/4 769/6/4 771/6/4
f 769/12/4 770/12/4 771/12/4
f 770/6/4 756/6/4 772/6/4
f 771/12/4 770/12/4 772/12/4
f 755/6/4 771/6/4 773/6/4
f 771/6/4 772/6/4 773/6/4
f 772/6/4 756/6/4 774/6/4
f 773/6/4 772/6/4 774/6/4
f 755/6/4 773/6/4 775/6/4
f 773/12/4 774/12/4 775/12/4
f 774/6/4 756/6/4 776/6/4
f 775/12/4 774/12/4 776/12/4
f 755/6/4 775/6/4 777/6/4
f 775/6/4 776/6/4 777/6/4
f 776/6/4 756/6/4 778/6/4
f 777/6/4 776/6/4 778/6/4
f 755/6/4 777/6/4 779/6/4
f 777/12/4 778/12/4 779/12/4
f 778/6/4 756/6/4 780/6/4
f 779/12/4 778/12/4 780/12/4
f 755/6/4 779/6/4 781/6/4
f 779/6/4 780/6/4 781/6/4
f 780/6/4 756/6/4 782/6/4
f 781/6/4 780/6/4 782/6/4
f 783/6/4 784/6/4 785/6/4
f 785/6/4 784/6/4 786/6/4
f 791/1/5 788/1/5 787/1/5
f 792/1/5 788/1/5 791/1/5
f 793/1/5 790/1/5 789/1/5
f 794/1/5 790/1/5 793/1/5
f 799/1/5 796/1/5 795/1/5
f 800/1/5 796/1/5 799/1/5
f 801/1/5 798/1/5 797/1/5
f 802/1/5 798/1/5 801/1/5
f 805/6/5 804/6/5 803/6/5
f 806/6/5 804/6/5 805/6/5
f 807/6/5 804/6/5 806/6/5
f 808/6/5 804/6/5 807/6/5
f 809/7/5 806/7/5 805/7/5
f 809/8/5 807/8/5 806/8/5
f 810/8/5 807/8/5 809/8/5
f 811/8/5 807/8/5 810/8/5
f 812/7/5 808/7/5 807/7/5
f 812/8/5 807/8/5 811/8/5
f 813/7/5 809/7/5 805/7/5
f 813/7/5 810/7/5 809/7/5
f 814/7/5 810/7/5 813/7/5
f 815/8/5 811/8/5 810/8/5
f 815/7/5 810/7/5 814/7/5
f 816/8/5 811/8/5 815/8/5
f 817/8/5 811/8/5 816/8/5
f 818/7/5 812/7/5 811/7/5
f 818/8/5 811/8/5 817/8/5
f 819/7/5 808/7/5 812/7/5
f 819/7/5 812/7/5 818/7/5
f 820/7/5 808/7/5 819/7/5
f 821/8/5 814/8/5 813/8/5
f 822/7/5 815/7/5 814/7/5
f 822/8/5 814/8/5 821/8/5
f 822/7/5 816/7/5 815/7/5
f 823/8/5 817/8/5 816/8/5
f 823/7/5 816/7/5 822/7/5
f 824/7/5 818/7/5 817/7/5
f 824/8/5 817/8/5 823/8/5
f 824/7/5 819/7/5 818/7/5
f 825/8/5 820/8/5 819/8/5
f 825/7/5 819/7/5 824/7/5
f 826/8/5 820/8/5 825/8/5
f 827/8/5 823/8/5 822/8/5
f 827/8/5 822/8/5 821/8/5
f 827/8/5 824/8/5 823/8/5
f 827/8/5 826/8/5 825/8/5
f 827/8/5 825/8/5 824/8/5
f 828/8/5 826/8/5 827/8/5
f 829/8/5 826/8/5 828/8/5
f 830/8/5 826/8/5 829/8/5
f 831/8/5 827/8/5 821/8/5
f 832/7/5 828/7/5 827/7/5
f 832/8/5 827/8/5 831/8/5
f 833/7/5 828/7/5 832/7/5
f 834/7/5 828/7/5 833/7/5
f 835/7/5 830/7/5 829/7/5
f 836/7/5 830/7/5 835/7/5
f 837/8/5 826/8/5 830/8/5
f 837/7/5 830/7/5 836/7/5
f 838/8/5 826/8/5 837/8/5
f 839/8/5 836/8/5 835/8/5
f 839/7/5 835/7/5 829/7/5
f 840/8/5 836/8/5 839/8/5
f 841/8/5 836/8/5 840/8/5
f 841/7/5 840/7/5 839/7/5
f 842/7/5 838/7/5 837/7/5
f 842/8/5 836/8/5 841/8/5
f 842/7/5 837/7/5 836/7/5
f 843/7/5 833/7/5 832/7/5
f 843/7/5 832/7/5 831/7/5
f 844/8/5 834/8/5 833/8/5
f 844/7/5 833/7/5 843/7/5
f 845/7/5 828/7/5 834/7/5
f 845/8/5 834/8/5 844/8/5
f 846/7/5 841/7/5 839/7/5
f 846/8/5 829/8/5 828/8/5
f 846/7/5 839/7/5 829/7/5
f 846/7/5 842/7/5 841/7/5
f 847/7/5 842/7/5 846/7/5
f 848/7/5 838/7/5 842/7/5
f 848/7/5 842/7/5 847/7/5
f 849/7/5 845/7/5 844/7/5
f 849/7/5 844/7/5 843/7/5
f 850/7/5 828/7/5 845/7/5
f 850/7/5 845/7/5 849/7/5
f 851/8/5 847/8/5 846/8/5
f 851/8/5 846/8/5 828/8/5
f 852/8/5 847/8/5 851/8/5
f 853/7/5 849/7/5 843/7/5
f 853/8/5 850/8/5 849/8/5
f 854/7/5 828/7/5 850/7/5
f 854/8/5 850/8/5 853/8/5
f 855/8/5 851/8/5 828/8/5
f 855/7/5 828/7/5 854/7/5
f 856/7/5 854/7/5 853/7/5
f 856/7/5 853/7/5 843/7/5
f 857/7/5 854/7/5 856/7/5
f 858/8/5 855/8/5 854/8/5
f 859/8/5 851/8/5 855/8/5
f 859/8/5 855/8/5 858/8/5
f 860/8/5 847/8/5 852/8/5
f 860/7/5 852/7/5 851/7/5
f 861/8/5 847/8/5 860/8/5
f 862/8/5 847/8/5 861/8/5
f 862/7/5 861/7/5 860/7/5
f 863/7/5 848/7/5 847/7/5
f 863/8/5 847/8/5 862/8/5
f 864/8/5 857/8/5 856/8/5
f 864/7/5 856/7/5 843/7/5
f 865/7/5 854/7/5 857/7/5
f 865/8/5 857/8/5 864/8/5
f 866/8/5 858/8/5 854/8/5
f 866/7/5 859/7/5 858/7/5
f 867/8/5 851/8/5 859/8/5
f 867/7/5 859/7/5 866/7/5
f 868/7/5 862/7/5 860/7/5
f 868/7/5 860/7/5 851/7/5
f 868/7/5 863/7/5 862/7/5
f 869/7/5 848/7/5 863/7/5
f 869/7/5 863/7/5 868/7/5
f 870/7/5 864/7/5 843/7/5
f 870/7/5 865/7/5 864/7/5
f 871/7/5 854/7/5 865/7/5
f 871/7/5 865/7/5 870/7/5
f 872/8/5 866/8/5 854/8/5
f 872/7/5 854/7/5 871/7/5
f 872/8/5 867/8/5 866/8/5
f 873/8/5 851/8/5 867/8/5
f 873/8/5 867/8/5 872/8/5
f 874/7/5 870/7/5 843/7/5
f 875/7/5 872/7/5 871/7/5
f 875/8/5 871/8/5 870/8/5
f 875/7/5 873/7/5 872/7/5
f 876/7/5 873/7/5 875/7/5
f 877/7/5 848/7/5 869/7/5
f 878/7/5 870/7/5 874/7/5
f 878/8/5 876/8/5 875/8/5
f 878/8/5 875/8/5 870/8/5
f 879/7/5 873/7/5 876/7/5
f 879/8/5 876/8/5 878/8/5
f 880/8/5 869/8/5 868/8/5
f 880/7/5 868/7/5 851/7/5
f 881/7/5 877/7/5 869/7/5
f 881/8/5 869/8/5 880/8/5
f 882/7/5 878/7/5 874/7/5
f 882/7/5 879/7/5 878/7/5
f 883/7/5 879/7/5 882/7/5
f 884/7/5 877/7/5 881/7/5
f 884/7/5 881/7/5 880/7/5
f 885/7/5 877/7/5 884/7/5
f 886/7/5 879/7/5 883/7/5
f 886/8/5 883/8/5 882/8/5
f 887/7/5 873/7/5 879/7/5
f 887/7/5 879/7/5 886/7/5
f 887/8/5 851/8/5 873/8/5
f 888/7/5 880/7/5 851/7/5
f 888/8/5 851/8/5 887/8/5
f 888/7/5 884/7/5 880/7/5
f 889/8/5 885/8/5 884/8/5
f 889/7/5 884/7/5 888/7/5
f 890/8/5 888/8/5 887/8/5
f 890/8/5 886/8/5 882/8/5
f 890/8/5 889/8/5 888/8/5
f 890/8/5 887/8/5 886/8/5
f 891/8/5 889/8/5 890/8/5
f 892/8/5 889/8/5 891/8/5
f 893/8/5 885/8/5 889/8/5
f 893/8/5 889/8/5 892/8/5
f 894/8/5 890/8/5 882/8/5
f 895/7/5 891/7/5 890/7/5
f 895/8/5 890/8/5 894/8/5
f 896/7/5 891/7/5 895/7/5
f 897/8/5 892/8/5 891/8/5
f 897/7/5 891/7/5 896/7/5
f 898/7/5 893/7/5 892/7/5
f 898/8/5 892/8/5 897/8/5
f 899/7/5 893/7/5 898/7/5
f 900/8/5 885/8/5 893/8/5
f 900/7/5 893/7/5 899/7/5
f 901/8/5 885/8/5 900/8/5
f 902/8/5 899/8/5 898/8/5
f 902/7/5 896/7/5 895/7/5
f 902/8/5 897/8/5 896/8/5
f 902/8/5 898/8/5 897/8/5
f 902/7/5 895/7/5 894/7/5
f 903/7/5 901/7/5 900/7/5
f 903/8/5 899/8/5 902/8/5
f 903/7/5 900/7/5 899/7/5
f 904/7/5 902/7/5 894/7/5
f 904/7/5 903/7/5 902/7/5
f 905/7/5 901/7/5 903/7/5
f 905/7/5 903/7/5 904/7/5
f 906/6/5 905/6/5 904/6/5
f 907/6/5 905/6/5 906/6/5
f 912/3/5 909/3/5 908/3/5
f 913/3/5 909/3/5 912/3/5
f 914/3/5 911/3/5 910/3/5
f 915/3/5 911/3/5 914/3/5
f 920/3/5 917/3/5 916/3/5
f 921/3/5 917/3/5 920/3/5
f 922/3/5 919/3/5 918/3/5
f 923/3/5 919/3/5 922/3/5
f 928/3/5 925/3/5 924/3/5
f 929/3/5 925/3/5 928/3/5
f 930/3/5 927/3/5 926/3/5
f 931/3/5 927/3/5 930/3/5
f 936/3/5 933/3/5 932/3/5
f 937/3/5 933/3/5 936/3/5
f 938/3/5 935/3/5 934/3/5
f 939/3/5 935/3/5 938/3/5
f 942/3/5 941/3/5 940/3/5
f 943/3/5 941/3/5 942/3/5
f 952/4/5 949/4/5 948/4/5
f 953/4/5 949/4/5 952/4/5
f 954/4/5 951/4/5 950/4/5
f 955/4/5 951/4/5 954/4/5
f 960/4/5 957/4/5 956/4/5
f 961/4/5 957/4/5 960/4/5
f 962/4/5 959/4/5 958/4/5
f 963/4/5 959/4/5 962/4/5
f 964/10/5 945/10/5 944/10/5
f 965/10/5 945/10/5 964/10/5
f 966/10/5 947/10/5 946/10/5
f 968/10/5 967/10/5 966/10/5
f 968/10/5 966/10/5 946/10/5
f 969/10/5 967/10/5 968/10/5
f 974/5/5 971/5/5 970/5/5
f 975/5/5 971/5/5 974/5/5
f 976/5/5 973/5/5 972/5/5
f 977/5/5 973/5/5 976/5/5
f 982/3/5 979/3/5 978/3/5
f 983/3/5 979/3/5 982/3/5
f 984/3/5 981/3/5 980/3/5
f 985/3/5 981/3/5 984/3/5
f 990/3/5 987/3/5 986/3/5
f 991/3/5 987/3/5 990/3/5
f 992/3/5 989/3/5 988/3/5
f 993/3/5 989/3/5 992/3/5
f 996/3/5 995/3/5 994/3/5
f 997/3/5 995/3/5 996/3/5
f 1000/3/5 999/3/5 998/3/5
f 1001/3/5 999/3/5 1000/3/5
f 1006/3/5 1003/3/5 1002/3/5
f 1007/11/5 1004/11/5 1003/11/5
f 1007/3/5 1003/3/5 1006/3/5
f 1008/3/5 1005/3/5 1004/3/5
f 1008/11/5 1004/11/5 1007/11/5
f 1009/3/5 1005/3/5 1008/3/5
f 1010/9/5 1007/9/5 1006/9/5
f 1010/3/5 1006/3/5 1002/3/5
f 1011/3/5 1008/3/5 1007/3/5
f 1011/9/5 1007/9/5 1010/9/5
f 1012/3/5 1008/3/5 1011/3/5
f 1013/3/5 1008/3/5 1012/3/5
f 1014/9/5 1009/9/5 1008/9/5
f 1014/3/5 1008/3/5 1013/3/5
f 1015/3/5 1005/3/5 1009/3/5
f 1015/9/5 1009/9/5 1014/9/5
f 1016/3/5 1010/3/5 1002/3/5
f 1016/3/5 1011/3/5 1010/3/5
f 1017/9/5 1012/9/5 1011/9/5
f 1017/3/5 1011/3/5 1016/3/5
f 1018/3/5 1013/3/5 1012/3/5
f 1018/9/5 1012/9/5 1017/9/5
f 1019/9/5 1014/9/5 1013/9/5
f 1019/3/5 1013/3/5 1018/3/5
f 1020/3/5 1015/3/5 1014/3/5
f 1020/9/5 1014/9/5 1019/9/5
f 1021/3/5 1005/3/5 1015/3/5
f 1021/3/5 1015/3/5 1020/3/5
f 1022/9/5 1017/9/5 1016/9/5
f 1022/3/5 1016/3/5 1002/3/5
f 1023/3/5 1018/3/5 1017/3/5
f 1023/9/5 1017/9/5 1022/9/5
f 1023/3/5 1020/3/5 1019/3/5
f 1023/3/5 1019/3/5 1018/3/5
f 1024/3/5 1020/3/5 1023/3/5
f 1025/3/5 1020/3/5 1024/3/5
f 1026/9/5 1021/9/5 1020/9/5
f 1026/3/5 1020/3/5 1025/3/5
f 1027/3/5 1005/3/5 1021/3/5
f 1027/9/5 1021/9/5 1026/9/5
f 1028/3/5 1022/3/5 1002/3/5
f 1028/3/5 1023/3/5 1022/3/5
f 1029/9/5 1024/9/5 1023/9/5
f 1029/3/5 1023/3/5 1028/3/5
f 1030/3/5 1025/3/5 1024/3/5
f 1030/9/5 1024/9/5 1029/9/5
f 1031/9/5 1026/9/5 1025/9/5
f 1031/3/5 1025/3/5 1030/3/5
f 1032/3/5 1027/3/5 1026/3/5
f 1032/9/5 1026/9/5 1031/9/5
f 1033/3/5 1005/3/5 1027/3/5
f 1033/3/5 1027/3/5 1032/3/5
f 1034/9/5 1029/9/5 1028/9/5
f 1034/3/5 1028/3/5 1002/3/5
f 1035/3/5 1032/3/5 1031/3/5
f 1035/9/5 1029/9/5 1034/9/5
f 1035/3/5 1030/3/5 1029/3/5
f 1035/3/5 1031/3/5 1030/3/5
f 1036/3/5 1032/3/5 1035/3/5
f 1037/3/5 1032/3/5 1036/3/5
f 1038/9/5 1033/9/5 1032/9/5
f 1038/3/5 1032/3/5 1037/3/5
f 1039/3/5 1005/3/5 1033/3/5
f 1039/9/5 1033/9/5 1038/9/5
f 1040/3/5 1034/3/5 1002/3/5
f 1040/3/5 1035/3/5 1034/3/5
f 1041/9/5 1036/9/5 1035/9/5
f 1041/3/5 1035/3/5 1040/3/5
f 1042/3/5 1037/3/5 1036/3/5
f 1042/9/5 1036/9/5 1041/9/5
f 1043/9/5 1038/9/5 1037/9/5
f 1043/3/5 1037/3/5 1042/3/5
f 1044/3/5 1039/3/5 1038/3/5
f 1044/9/5 1038/9/5 1043/9/5
f 1045/3/5 1005/3/5 1039/3/5
f 1045/3/5 1039/3/5 1044/3/5
f 1046/9/5 1041/9/5 1040/9/5
f 1046/3/5 1040/3/5 1002/3/5
f 1047/3/5 1044/3/5 1043/3/5
f 1047/9/5 1041/9/5 1046/9/5
f 1047/3/5 1042/3/5 1041/3/5
f 1047/3/5 1043/3/5 1042/3/5
f 1048/3/5 1044/3/5 1047/3/5
f 1049/3/5 1044/3/5 1048/3/5
f 1050/9/5 1045/9/5 1044/9/5
f 1050/3/5 1044/3/5 1049/3/5
f 1051/3/5 1005/3/5 1045/3/5
f 1051/9/5 1045/9/5 1050/9/5
f 1052/3/5 1046/3/5 1002/3/5
f 1052/3/5 1047/3/5 1046/3/5
f 1053/9/5 1048/9/5 1047/9/5
f 1053/3/5 1047/3/5 1052/3/5
f 1054/3/5 1049/3/5 1048/3/5
f 1054/9/5 1048/9/5 1053/9/5
f 1055/9/5 1050/9/5 1049/9/5
f 1055/3/5 1049/3/5 1054/3/5
f 1056/3/5 1051/3/5 1050/3/5
f 1056/9/5 1050/9/5 1055/9/5
f 1057/3/5 1005/3/5 1051/3/5
f 1057/3/5 1051/3/5 1056/3/5
f 1058/3/5 1005/3/5 1057/3/5
f 1060/3/5 1052/3/5 1002/3/5
f 1061/9/5 1053/9/5 1052/9/5
f 1061/3/5 1052/3/5 1060/3/5
f 1062/3/5 1056/3/5 1055/3/5
f 1062/9/5 1053/9/5 1061/9/5
f 1062/3/5 1054/3/5 1053/3/5
f 1062/3/5 1055/3/5 1054/3/5
f 1063/9/5 1057/9/5 1056/9/5
f 1063/3/5 1056/3/5 1062/3/5
f 1064/3/5 1059/3/5 1058/3/5
f 1064/9/5 1057/9/5 1063/9/5
f 1064/3/5 1058/3/5 1057/3/5
f 1065/3/5 1059/3/5 1064/3/5
f 1066/6/6 1067/6/6 1068/6/6
f 1068/6/6 1067/6/6 1069/6/6
f 1070/6/6 1071/6/6 1072/6/6
f 1072/6/6 1071/6/6 1073/6/6
f 1073/6/6 1071/6/6 1074/6/6
f 1074/6/6 1071/6/6 1075/6/6
f 1075/6/6 1071/6/6 1076/6/6
f 1076/6/6 1071/6/6 1077/6/6
f 1078/11/6 1079/11/6 1080/11/6
f 1080/11/6 1079/11/6 1081/11/6
f 1082/11/6 1083/11/6 1085/11/6
f 1085/11/6 1083/11/6 1086/11/6
f 1084/11/6 1085/11/6 1088/11/6
f 1085/11/6 1086/11/6 1088/11/6
f 1086/11/6 1087/11/6 1088/11/6
f 1088/11/6 1087/11/6 1089/11/6
f 1088/11/6 1089/11/6 1090/11/6
f 1090/11/6 1089/11/6 1091/11/6
f 1090/11/6 1091/11/6 1092/11/6
f 1092/11/6 1091/11/6 1093/11/6
f 1092/11/6 1093/11/6 1094/11/6
f 1094/11/6 1093/11/6 1095/11/6
f 1095/11/6 1093/11/6 1096/11/6
f 1097/3/6 1098/3/6 1101/3/6
f 1101/3/6 1098/3/6 1102/3/6
f 1099/3/6 1100/3/6 1103/3/6
f 1103/3/6 1100/3/6 1104/3/6
f 1105/10/6 1106/10/6 1107/10/6
f 1107/10/6 1106/10/6 1108/10/6
f 1109/3/6 1110/3/6 1113/3/6
f 1113/3/6 1110/3/6 1114/3/6
f 1111/3/6 1112/3/6 1115/3/6
f 1115/3/6 1112/3/6 1116/3/6
f 1117/6/6 1118/6/6 1121/6/6
f 1119/6/6 1120/6/6 1122/6/6
f 1117/6/6 1121/6/6 1123/6/6
f 1121/6/6 1122/6/6 1123/6/6
f 1122/6/6 1120/6/6 1124/6/6
f 1123/6/6 1122/6/6 1124/6/6
f 1125/3/6 1126/3/6 1129/3/6
f 1129/3/6 1126/3/6 1130/3/6
f 1127/3/6 1128/3/6 1131/3/6
f 1131/3/6 1128/3/6 1132/3/6
f 1133/10/6 1134/10/6 1135/10/6
f 1135/10/6 1134/10/6 1136/10/6
f 1137/3/6 1138/3/6 1140/3/6
f 1140/3/6 1138/3/6 1141/3/6
f 1141/3/6 1138/3/6 1142/3/6
f 1142/3/6 1138/3/6 1143/3/6
f 1140/3/6 1141/3/6 1145/3/6
f 1139/3/6 1140/3/6 1145/3/6
f 1143/3/6 1144/3/6 1146/3/6
f 1142/3/6 1143/3/6 1146/3/6
f 1139/3/6 1145/3/6 1147/3/6
f 1145/3/6 1146/3/6 1147/3/6
f 1146/3/6 1144/3/6 1148/3/6
f 1147/3/6 1146/3/6 1148/3/6
f 1139/3/6 1147/3/6 1149/3/6
f 1149/3/6 1147/3/6 1150/3/6
f 1148/3/6 1144/3/6 1151/3/6
f 1151/3/6 1144/3/6 1152/3/6
f 1153/10/6 1154/10/6 1155/10/6
f 1155/10/6 1154/10/6 1156/10/6
f 1157/3/6 1158/3/6 1159/3/6
f 1159/3/6 1158/3/6 1160/3/6
f 1161/3/6 1162/3/6 1164/3/6
f 1164/3/6 1162/3/6 1165/3/6
f 1163/3/6 1164/3/6 1167/3/6
f 1164/3/6 1165/3/6 1167/3/6
f 1165/3/6 1166/3/6 1167/3/6
f 1167/3/6 1166/3/6 1168/3/6
f 1168/3/6 1166/3/6 1169/3/6
f 1169/3/6 1166/3/6 1170/3/6
f 1168/3/6 1169/3/6 1171/3/6
f 1171/3/6 1169/3/6 1172/3/6
f 1173/3/6 1174/3/6 1177/3/6
f 1177/3/6 1174/3/6 1178/3/6
f 1175/3/6 1176/3/6 1179/3/6
f 1179/3/6 1176/3/6 1180/3/6
f 1181/3/6 1182/3/6 1185/3/6
f 1185/3/6 1182/3/6 1186/3/6
f 1183/3/6 1184/3/6 1187/3/6
f 1187/3/6 1184/3/6 1188/3/6
f 1187/4/6 1188/4/6 1189/4/6
f 1189/4/6 1188/4/6 1190/4/6
f 1191/3/6 1192/3/6 1193/3/6
f 1193/3/6 1192/3/6 1194/3/6
f 1195/4/6 1196/4/6 1199/4/6
f 1199/4/6 1196/4/6 1200/4/6
f 1200/4/6 1196/4/6 1201/4/6
f 1197/4/6 1198/4/6 1202/4/6
f 1202/4/6 1198/4/6 1203/4/6
f 1203/4/6 1198/4/6 1204/4/6
f 1205/4/6 1206/4/6 1209/4/6
f 1209/4/6 1206/4/6 1210/4/6
f 1210/4/6 1206/4/6 1211/4/6
f 1207/4/6 1208/4/6 1212/4/6
f 1212/4/6 1208/4/6 1213/4/6
f 1214/5/6 1215/5/6 1218/5/6
f 1218/5/6 1215/5/6 1219/5/6
f 1216/5/6 1217/5/6 1220/5/6
f 1220/5/6 1217/5/6 1221/5/6
f 1222/3/6 1223/3/6 1224/3/6
f 1224/3/6 1223/3/6 1225/3/6
f 1222/3/6 1224/3/6 1226/3/6
f 1226/3/6 1224/3/6 1227/3/6
f 1225/3/6 1223/3/6 1228/3/6
f 1228/3/6 1223/3/6 1229/3/6
f 1226/9/6 1227/9/6 1230/9/6
f 1222/3/6 1226/3/6 1230/3/6
f 1227/3/6 1228/3/6 1231/3/6
f 1230/9/6 1227/9/6 1231/9/6
f 1231/3/6 1228/3/6 1232/3/6
f 1232/3/6 1228/3/6 1233/3/6
f 1228/9/6 1229/9/6 1234/9/6
f 1233/3/6 1228/3/6 1234/3/6
f 1229/3/6 1223/3/6 1235/3/6
f 1234/9/6 1229/9/6 1235/9/6
f 1222/3/6 1230/3/6 1236/3/6
f 1230/3/6 1231/3/6 1236/3/6
f 1231/9/6 1232/9/6 1237/9/6
f 1236/3/6 1231/3/6 1237/3/6
f 1232/3/6 1233/3/6 1238/3/6
f 1237/9/6 1232/9/6 1238/9/6
f 1233/9/6 1234/9/6 1239/9/6
f 1238/3/6 1233/3/6 1239/3/6
f 1234/3/6 1235/3/6 1240/3/6
f 1239/9/6 1234/9/6 1240/9/6
f 1235/3/6 1223/3/6 1241/3/6
f 1240/3/6 1235/3/6 1241/3/6
f 1236/9/6 1237/9/6 1242/9/6
f 1222/3/6 1236/3/6 1242/3/6
f 1237/3/6 1238/3/6 1243/3/6
f 1242/9/6 1237/9/6 1243/9/6
f 1239/3/6 1240/3/6 1243/3/6
f 1238/3/6 1239/3/6 1243/3/6
f 1243/3/6 1240/3/6 1244/3/6
f 1244/3/6 1240/3/6 1245/3/6
f 1240/9/6 1241/9/6 1246/9/6
f 1245/3/6 1240/3/6 1246/3/6
f 1241/3/6 1223/3/6 1247/3/6
f 1246/9/6 1241/9/6 1247/9/6
f 1222/3/6 1242/3/6 1248/3/6
f 1242/3/6 1243/3/6 1248/3/6
f 1243/9/6 1244/9/6 1249/9/6
f 1248/3/6 1243/3/6 1249/3/6
f 1244/3/6 1245/3/6 1250/3/6
f 1249/9/6 1244/9/6 1250/9/6
f 1245/9/6 1246/9/6 1251/9/6
f 1250/3/6 1245/3/6 1251/3/6
f 1246/3/6 1247/3/6 1252/3/6
f 1251/9/6 1246/9/6 1252/9/6
f 1247/3/6 1223/3/6 1253/3/6
f 1252/3/6 1247/3/6 1253/3/6
f 1248/9/6 1249/9/6 1254/9/6
f 1222/3/6 1248/3/6 1254/3/6
f 1250/3/6 1251/3/6 1255/3/6
f 1254/9/6 1249/9/6 1255/9/6
f 1249/3/6 1250/3/6 1255/3/6
f 1251/3/6 1252/3/6 1255/3/6
f 1255/3/6 1252/3/6 1256/3/6
f 1256/3/6 1252/3/6 1257/3/6
f 1252/9/6 1253/9/6 1258/9/6
f 1257/3/6 1252/3/6 1258/3/6
f 1253/3/6 1223/3/6 1259/3/6
f 1258/9/6 1253/9/6 1259/9/6
f 1222/3/6 1254/3/6 1260/3/6
f 1254/3/6 1255/3/6 1260/3/6
f 1255/9/6 1256/9/6 1261/9/6
f 1260/3/6 1255/3/6 1261/3/6
f 1256/3/6 1257/3/6 1262/3/6
f 1261/9/6 1256/9/6 1262/9/6
f 1257/9/6 1258/9/6 1263/9/6
f 1262/3/6 1257/3/6 1263/3/6
f 1258/3/6 1259/3/6 1264/3/6
f 1263/9/6 1258/9/6 1264/9/6
f 1259/3/6 1223/3/6 1265/3/6
f 1264/3/6 1259/3/6 1265/3/6
f 1260/9/6 1261/9/6 1266/9/6
f 1222/3/6 1260/3/6 1266/3/6
f 1261/3/6 1262/3/6 1267/3/6
f 1266/9/6 1261/9/6 1267/9/6
f 1263/3/6 1264/3/6 1267/3/6
f 1262/3/6 1263/3/6 1267/3/6
f 1267/3/6 1264/3/6 1268/3/6
f 1268/3/6 1264/3/6 1269/3/6
f 1264/9/6 1265/9/6 1270/9/6
f 1269/3/6 1264/3/6 1270/3/6
f 1265/3/6 1223/3/6 1271/3/6
f 1270/9/6 1265/9/6 1271/9/6
f 1222/3/6 1266/3/6 1272/3/6
f 1266/3/6 1267/3/6 1272/3/6
f 1267/9/6 1268/9/6 1273/9/6
f 1272/3/6 1267/3/6 1273/3/6
f 1268/3/6 1269/3/6 1274/3/6
f 1273/9/6 1268/9/6 1274/9/6
f 1269/9/6 1270/9/6 1275/9/6
f 1274/3/6 1269/3/6 1275/3/6
f 1270/3/6 1271/3/6 1276/3/6
f 1275/9/6 1270/9/6 1276/9/6
f 1271/3/6 1223/3/6 1277/3/6
f 1276/3/6 1271/3/6 1277/3/6
f 1272/9/6 1273/9/6 1278/9/6
f 1222/3/6 1272/3/6 1278/3/6
f 1273/3/6 1274/3/6 1279/3/6
f 1278/9/6 1273/9/6 1279/9/6
f 1275/3/6 1276/3/6 1279/3/6
f 1274/3/6 1275/3/6 1279/3/6
f 1276/9/6 1277/9/6 1280/9/6
f 1279/3/6 1276/3/6 1280/3/6
f 1277/3/6 1223/3/6 1281/3/6
f 1280/9/6 1277/9/6 1281/9/6
f 1222/3/6 1278/3/6 1282/3/6
f 1279/3/6 1280/3/6 1282/3/6
f 1278/3/6 1279/3/6 1282/3/6
f 1280/3/6 1281/3/6 1282/3/6
f 1282/3/6 1281/3/6 1283/3/6
f 1281/3/6 1223/3/6 1284/3/6
f 1283/3/6 1281/3/6 1284/3/6
f 1284/3/6 1223/3/6 1285/3/6
f 1283/3/6 1284/3/6 1286/3/6
f 1286/3/6 1284/3/6 1287/3/6
f 1288/9/6 1289/9/6 1290/9/6
f 1290/9/6 1289/9/6 1291/9/6
f 1288/9/6 1290/9/6 1292/9/6
f 1291/9/6 1289/9/6 1293/9/6
f 1288/9/6 1292/9/6 1294/9/6
f 1292/9/6 1293/9/6 1294/9/6
f 1293/9/6 1289/9/6 1295/9/6
f 1294/9/6 1293/9/6 1295/9/6
f 1296/9/6 1297/9/6 1298/9/6
f 1298/9/6 1297/9/6 1299/9/6
