# Blender 5.1.0
# www.blender.org
mtllib traffic_light001.mtl
o traffic_light.001
v 0.091259 -0.333551 -0.926755
v -0.258594 11.651697 -0.421477
v 0.360133 -0.333551 -0.771520
v 0.008362 11.654715 -0.262995
v 0.360133 -0.333551 -0.461052
v 0.008362 11.597714 0.042197
v 0.091259 -0.333551 -0.305817
v -0.258594 11.537698 0.188906
v -0.177614 -0.333551 -0.461052
v -0.525549 11.534681 0.030424
v -0.177614 -0.333551 -0.771520
v -0.525549 11.591681 -0.274767
v 0.106849 8.660643 -0.980110
v 0.373804 8.663659 -0.821628
v 0.373804 8.606659 -0.516436
v 0.106849 8.546642 -0.369727
v -0.160107 8.543626 -0.528209
v -0.160107 8.600626 -0.833400
v 0.072423 8.942409 -0.927485
v 0.339378 8.945425 -0.769003
v 0.339378 8.888426 -0.463811
v 0.072423 8.828408 -0.317102
v -0.194532 8.825392 -0.475584
v -0.194532 8.882391 -0.780776
v -0.075377 10.152115 -0.701551
v -0.110794 10.441990 -0.647411
v 0.156162 10.445007 -0.488929
v 0.191578 10.155132 -0.543069
v 0.156162 10.388007 -0.183738
v 0.191578 10.098132 -0.237877
v -0.110794 10.327991 -0.037028
v -0.075377 10.038116 -0.091168
v -0.377749 10.324973 -0.195510
v -0.342333 10.035098 -0.249650
v -0.377749 10.381973 -0.500702
v -0.342333 10.092098 -0.554841
v 0.452310 8.971945 -0.780932
v 0.489178 8.670187 -0.837290
v 0.452310 8.890572 -0.345237
v 0.489178 8.588813 -0.401596
v -0.309906 8.800584 -0.362044
v -0.273038 8.498826 -0.418403
v -0.309906 8.881957 -0.797738
v -0.273038 8.580200 -0.854097
v 0.108070 8.665880 -1.063541
v 0.071202 8.967638 -1.007182
v -0.074121 10.157064 -0.785036
v -0.112050 10.467507 -0.727055
v 0.269058 10.471814 -0.500804
v 0.306987 10.161372 -0.558785
v 0.269058 10.390440 -0.065110
v 0.306987 10.079998 -0.123091
v -0.493158 10.300453 -0.081917
v -0.455229 9.990011 -0.139897
v -0.493158 10.381826 -0.517611
v -0.455229 10.071384 -0.575592
v -0.514008 7.312354 -0.511974
v -0.545188 7.564178 -0.446209
v -0.661203 7.553862 -0.466868
v -1.042820 11.181597 0.234753
v -1.076198 11.458406 0.266401
v -1.167011 11.170553 0.212639
v -0.514008 7.357627 -0.754376
v -0.661203 7.599134 -0.709270
v -0.545188 7.616212 -0.724812
v -1.076198 11.506870 0.006914
v -1.042820 11.237298 -0.063485
v -1.167011 11.219017 -0.046848
v 1.039712 7.495786 -0.477714
v 1.124546 7.764688 -0.427492
v 1.008531 7.747610 -0.411950
v 0.587028 11.654768 0.303075
v 0.620406 11.377957 0.271427
v 0.744598 11.396237 0.254790
v 1.039712 7.541059 -0.720117
v 1.008531 7.799644 -0.690553
v 1.124546 7.809961 -0.669895
v 0.587028 11.703232 0.043588
v 0.744598 11.444702 -0.004697
v 0.620406 11.433659 -0.026811
v -0.514008 7.281669 -0.347681
v -0.545188 7.533493 -0.281917
v -1.042820 11.148749 0.410626
v -1.076198 11.425559 0.442273
v 1.008531 7.716926 -0.247657
v 1.039712 7.465101 -0.313421
v 0.587028 11.621921 0.478947
v 0.620406 11.345110 0.447300
v -0.863048 10.543674 0.331002
v -0.968113 10.534888 0.309310
v 0.695113 10.731249 0.345984
v 0.586235 10.714776 0.362959
v -0.863048 10.407249 1.061451
v -0.968113 10.398464 1.039758
v 0.695113 10.594825 1.076432
v 0.586235 10.578352 1.093407
v 0.213953 11.217054 0.436717
v -0.214469 11.271227 0.446834
v -0.617659 11.118874 0.418380
v -0.584281 10.842064 0.386732
v -0.181091 10.994417 0.415187
v 0.247332 10.940245 0.405069
v 0.213953 11.080630 1.167165
v -0.214469 11.134803 1.177282
v -0.617659 10.982450 1.148828
v -0.584281 10.705640 1.117181
v -0.181091 10.857993 1.145635
v 0.247332 10.803820 1.135517
v -0.838200 10.340293 0.293017
v -0.943264 10.331508 0.271325
v 0.719961 10.527869 0.307999
v 0.611083 10.511396 0.324974
v -0.838200 10.203869 1.023466
v -0.943264 10.195084 1.001773
v 0.719961 10.391445 1.038447
v 0.611083 10.374972 1.055422
v -0.186351 11.014341 0.367486
v -0.186351 10.976776 0.568617
v 0.330076 10.872111 0.340922
v 0.330076 10.834546 0.542053
v 0.592934 10.412578 0.255096
v 0.592934 10.375012 0.456227
v 0.448245 9.904930 0.160283
v 0.448245 9.867365 0.361415
v -0.019235 9.646540 0.112024
v -0.019235 9.608974 0.313156
v -0.535661 9.788770 0.138588
v -0.535661 9.751204 0.339720
v -0.798519 10.248302 0.224414
v -0.798519 10.210737 0.425546
v -0.653830 10.755951 0.319227
v -0.653830 10.718386 0.520358
v -0.167240 10.790780 0.697798
v 0.231076 10.681079 0.677310
v 0.433816 10.326644 0.611112
v 0.322218 9.935099 0.537984
v -0.038345 9.735806 0.500763
v -0.436661 9.845506 0.521251
v -0.639401 10.199940 0.587448
v -0.527804 10.591486 0.660576
v -0.102793 10.247023 0.686393
v -0.195757 11.093443 0.370543
v -0.195757 11.051649 0.594317
v 0.378804 10.935203 0.340989
v 0.378804 10.893409 0.564762
v 0.671253 10.423939 0.245502
v 0.671253 10.382145 0.469275
v 0.510276 9.859143 0.140016
v 0.510276 9.817350 0.363789
v -0.009829 9.571667 0.086325
v -0.009829 9.529873 0.310098
v -0.584390 9.729907 0.115879
v -0.584390 9.688113 0.339652
v -0.876838 10.241171 0.211366
v -0.876838 10.199377 0.435140
v -0.715861 10.805965 0.316852
v -0.715861 10.764172 0.540625
v -0.633459 8.664542 -0.019959
v -0.738524 8.655757 -0.041652
v 0.924702 8.852118 -0.004978
v 0.815824 8.835645 0.011997
v -0.633459 8.528117 0.710489
v -0.738524 8.519332 0.688797
v 0.924702 8.715693 0.725471
v 0.815824 8.699220 0.742446
v 0.443543 9.337924 0.085755
v 0.015120 9.392097 0.095873
v -0.388070 9.239743 0.067418
v -0.354692 8.962933 0.035771
v 0.048498 9.115286 0.064225
v 0.476921 9.061113 0.054108
v 0.443543 9.201500 0.816203
v 0.015120 9.255672 0.826321
v -0.388070 9.103319 0.797867
v -0.354692 8.826509 0.766219
v 0.048498 8.978861 0.794674
v 0.476921 8.924689 0.784556
v -0.608610 8.461163 -0.057944
v -0.713675 8.452377 -0.079637
v 0.949551 8.648738 -0.042963
v 0.840673 8.632265 -0.025988
v -0.608610 8.324738 0.672504
v -0.713675 8.315952 0.650812
v 0.949551 8.512314 0.687486
v 0.840673 8.495840 0.704461
v 0.043239 9.135209 0.016524
v 0.043239 9.097644 0.217656
v 0.559665 8.992979 -0.010040
v 0.559665 8.955415 0.191092
v 0.822523 8.533446 -0.095866
v 0.822523 8.495882 0.105266
v 0.677834 8.025798 -0.190678
v 0.677834 7.988233 0.010453
v 0.210355 7.767408 -0.238937
v 0.210355 7.729843 -0.037806
v -0.306072 7.909638 -0.212373
v -0.306072 7.872073 -0.011242
v -0.568930 8.369171 -0.126547
v -0.568930 8.331606 0.074584
v -0.424240 8.876820 -0.031735
v -0.424240 8.839254 0.169397
v 0.062349 8.911649 0.346837
v 0.460665 8.801948 0.326348
v 0.663405 8.447514 0.260151
v 0.551808 8.055967 0.187023
v 0.191244 7.856673 0.149801
v -0.207071 7.966374 0.170290
v -0.409812 8.320808 0.236487
v -0.298214 8.712354 0.309615
v 0.126797 8.367890 0.335432
v 0.033833 9.214312 0.019582
v 0.033833 9.172518 0.243355
v 0.608394 9.056071 -0.009972
v 0.608394 9.014277 0.213801
v 0.900842 8.544807 -0.105460
v 0.900842 8.503014 0.118313
v 0.739865 7.980012 -0.210945
v 0.739865 7.938219 0.012828
v 0.219761 7.692534 -0.264637
v 0.219761 7.650741 -0.040864
v -0.354800 7.850776 -0.235083
v -0.354800 7.808982 -0.011309
v -0.647248 8.362040 -0.139595
v -0.647248 8.320246 0.084178
v -0.486272 8.926834 -0.034109
v -0.486272 8.885040 0.189664
v -0.753979 9.273081 -0.127041
v -0.869994 9.262765 -0.147699
v -0.753979 9.325115 -0.405644
v -0.869994 9.308038 -0.390102
v 0.915755 9.518864 -0.350726
v 0.799740 9.508548 -0.371384
v 0.799740 9.456513 -0.092782
v 0.915755 9.473591 -0.108324
v -0.753979 9.242396 0.037252
v 0.799740 9.425829 0.071511
v 0.625954 5.538807 -0.771520
v 0.625954 2.602628 -0.771520
v 0.625954 5.538807 -0.461052
v 0.625954 2.602628 -0.461052
v 0.357080 5.538807 -0.305817
v 0.357080 2.602628 -0.305817
v 0.088207 5.538807 -0.461052
v 0.088207 2.602628 -0.461052
v 0.088207 5.538807 -0.771520
v 0.088207 2.602628 -0.771520
v 0.357080 2.602628 -0.926755
v 0.357080 5.538808 -0.926755
v 0.003329 4.070718 -0.771520
v 0.003329 4.070718 -0.461052
v -0.265545 4.070718 -0.305817
v -0.534419 4.070718 -0.461052
v -0.534419 4.070718 -0.771520
v -0.265545 4.070718 -0.926755
v -0.170287 4.587140 -0.926755
v 0.098586 4.587140 -0.771520
v 0.098586 4.587140 -0.461052
v -0.170287 4.587140 -0.305817
v -0.439161 4.587140 -0.461052
v -0.439161 4.587140 -0.771520
vn 0.4964 0.2176 -0.8404
vn 0.9929 0.1172 0.0219
vn 0.4964 -0.1004 0.8623
vn -0.4964 -0.2176 0.8404
vn -0.1192 0.9760 0.1823
vn -0.9929 -0.1172 -0.0219
vn -0.4964 0.1004 -0.8623
vn -0.0000 -1.0000 -0.0000
vn -0.4855 -0.0554 -0.8725
vn -0.9966 -0.0817 -0.0076
vn -0.5050 -0.0231 0.8628
vn 0.4852 0.0573 0.8725
vn 0.9967 0.0813 0.0075
vn 0.5050 0.0263 -0.8627
vn 0.0281 -0.9826 -0.1835
vn -0.7057 -0.2125 0.6759
vn 0.1900 -0.9802 -0.0553
vn 0.1881 -0.9804 -0.0588
vn -0.0307 0.9825 0.1835
vn 0.7057 -0.0458 0.7071
vn 0.0480 -0.9969 -0.0619
vn 0.2069 -0.9617 -0.1796
vn -0.2069 0.9617 0.1796
vn -0.0460 0.9511 0.3055
vn -0.2094 0.9612 0.1795
vn -0.1881 0.9355 0.2990
vn 0.2094 -0.9612 -0.1795
vn 0.0460 -0.9972 -0.0584
vn -0.0281 0.9826 0.1835
vn -0.1900 0.9341 0.3023
vn 0.0307 -0.9825 -0.1835
vn -0.0480 0.9521 0.3021
vn 0.9962 0.0857 0.0160
vn -0.9885 -0.1487 -0.0278
vn 0.0009 0.1763 -0.9843
vn -0.1459 -0.2668 0.9526
vn -0.1624 -0.1314 0.9779
vn -0.1459 0.0950 -0.9847
vn -0.1624 0.2304 -0.9594
vn 0.1625 -0.2304 0.9594
vn 0.1459 -0.0950 0.9847
vn 0.1624 0.1314 -0.9779
vn 0.1459 0.2668 -0.9526
vn -0.8578 -0.5052 -0.0944
vn -0.1537 -0.2064 0.9663
vn -0.9551 0.2912 0.0544
vn -0.1545 0.1631 -0.9744
vn 0.0084 0.1146 -0.9934
vn -0.0084 0.2517 -0.9678
vn 0.1545 0.1996 -0.9676
vn 0.9551 -0.2912 -0.0544
vn 0.8578 0.5052 0.0944
vn 0.1545 -0.1631 0.9744
vn 0.1192 -0.9760 -0.1823
vn 0.0010 -0.1921 0.9814
vn 0.0084 -0.2517 0.9678
vn -0.0084 -0.1146 0.9934
vn 0.9958 0.0898 0.0168
vn 0.1202 0.0988 -0.9878
vn -0.1202 -0.0988 0.9878
vn -0.8613 0.4995 0.0933
vn -0.1818 -0.2020 0.9624
vn -0.5605 -0.8141 -0.1520
vn 0.7365 -0.6649 -0.1242
vn 0.3588 -0.9175 -0.1714
vn -0.1276 -0.9750 -0.1821
vn 0.7165 0.6857 0.1281
vn 0.1276 0.9750 0.1821
vn -0.3588 0.9175 0.1714
vn 0.0962 -0.0744 0.9926
vn 0.0092 -0.1125 0.9936
vn -0.0260 -0.1166 0.9928
vn -0.0962 0.0744 -0.9926
vn -0.0092 0.1125 -0.9936
vn 0.0260 0.1166 -0.9928
vn 0.1818 0.2020 -0.9624
vn 0.1756 -0.1600 0.9714
vn -0.1756 0.1600 -0.9714
vn -0.1361 0.1061 -0.9850
vn -0.0765 -0.0476 0.9959
vn -0.0765 0.3151 -0.9460
vn 0.1361 -0.1061 0.9850
vn 0.1361 0.2565 -0.9569
vn -0.0421 -0.3291 0.9434
vn -0.3609 0.5067 0.7829
vn 0.0765 -0.3151 0.9460
vn -0.1503 -0.1399 0.9787
vn -0.1987 -0.8212 0.5349
vn 0.1987 0.5728 0.7953
vn 0.7090 -0.3195 0.6286
vn -0.6418 -0.4790 0.5989
vn 0.3609 -0.7551 0.5473
vn -0.7090 0.0711 0.7016
vn 0.6418 0.2305 0.7314
vn 0.1523 -0.0966 0.9836
vn -0.1683 -0.1344 0.9765
vn -0.0471 -0.3462 0.9370
vn 0.1683 -0.2271 0.9592
vn 0.0471 -0.0154 0.9988
vn -0.0856 -0.0310 0.9958
vn -0.1523 -0.2650 0.9522
vn 0.0856 -0.3305 0.9399
vn 0.2698 0.9466 0.1768
vn 0.8717 0.4818 0.0900
vn 0.9629 -0.2652 -0.0495
vn 0.4901 -0.8568 -0.1600
vn -0.2698 -0.9466 -0.1768
vn -0.8717 -0.4818 -0.0900
vn -0.9629 0.2652 0.0495
vn -0.4901 0.8568 0.1600
vn 0.1503 0.1399 -0.9787
vn -0.1361 -0.2565 0.9569
vn 0.1503 -0.2227 0.9632
vn 0.0421 0.3291 -0.9434
vn 0.0421 -0.0336 0.9985
vn -0.1503 0.2227 -0.9632
vn 0.0765 0.0476 -0.9959
vn -0.0421 0.0336 -0.9985
vn -0.0000 -0.1836 0.9830
vn -0.9891 -0.1446 -0.0270
vn 0.1554 -0.1700 0.9731
vn 0.1559 0.1881 -0.9697
vn -0.1531 0.1516 -0.9765
vn -0.1545 -0.1996 0.9676
vn -0.0000 0.1836 -0.9830
vn 0.4995 -0.0452 -0.8651
vn 0.4818 -0.2670 -0.8346
vn 0.9959 -0.0902 -0.0000
vn 0.8747 -0.4847 -0.0000
vn 0.4995 -0.0452 0.8651
vn 0.4818 -0.2670 0.8346
vn -0.4995 0.0452 0.8651
vn -0.4818 0.2670 0.8346
vn -0.9959 0.0902 -0.0000
vn -0.8747 0.4847 -0.0000
vn -0.4995 0.0452 -0.8651
vn -0.4818 0.2670 -0.8346
vn -0.4891 -0.2074 -0.8472
vn -0.9206 -0.3904 -0.0000
vn -0.4891 -0.2074 0.8472
vn 0.4891 0.2074 0.8472
vn 0.9206 0.3904 -0.0000
vn 0.4891 0.2074 -0.8472
vn -0.4979 0.0918 -0.8624
vn -0.9834 0.1814 -0.0000
vn -0.4979 0.0918 0.8624
vn 0.4979 -0.0918 0.8624
vn 0.9834 -0.1814 -0.0000
vn 0.4979 -0.0918 -0.8624
vt 0.676834 0.608506
vt 0.676834 0.644317
vt 0.679190 0.644317
vt 0.679190 0.608506
vt 0.674478 0.644317
vt 0.674478 0.608506
vt 0.676834 0.212710
vt 0.679190 0.212710
vt 0.674478 0.212710
vt 0.674478 0.421377
vt 0.674478 0.525711
vt 0.676834 0.525711
vt 0.676834 0.421377
vt 0.674478 0.421377
vt 0.674478 0.525711
vt 0.676834 0.421377
vt 0.679190 0.421377
vt 0.679190 0.525711
vt 0.682553 0.456791
vt 0.679190 0.572695
vt 0.676834 0.536884
vt 0.674478 0.536884
vt 0.679190 0.536884
vt 0.680198 0.456791
vt 0.677842 0.456791
vt 0.680198 0.409807
vt 0.677842 0.409807
vt 0.674478 0.572695
vt 0.676834 0.572695
vt 0.676497 0.426924
vt 0.682553 0.409807
vt 0.168442 0.335640
vt 0.168442 0.379726
vt 0.170797 0.379726
vt 0.170797 0.335640
vt 0.168442 0.335641
vt 0.168442 0.379726
vt 0.173153 0.335641
vt 0.173153 0.379726
vt 0.168442 0.521026
vt 0.168442 0.662326
vt 0.170797 0.662326
vt 0.170797 0.521026
vt 0.168442 0.521026
vt 0.168442 0.662326
vt 0.173153 0.521026
vt 0.173153 0.662326
vt 0.677842 0.409807
vt 0.681208 0.426924
vt 0.676497 0.498546
vt 0.678852 0.498546
vt 0.681208 0.498546
vt 0.678852 0.426924
vt 0.693437 0.609066
vt 0.671241 0.609066
vt 0.696552 0.485885
vt 0.696552 0.595599
vt 0.671041 0.485885
vt 0.671041 0.595599
vt 0.675902 0.202830
vt 0.675902 0.312544
vt 0.698099 0.312544
vt 0.698099 0.202830
vt 0.678038 0.336198
vt 0.678038 0.352583
vt 0.676381 0.352583
vt 0.678038 0.572011
vt 0.678038 0.588396
vt 0.676381 0.572011
vt 0.675902 0.076731
vt 0.674245 0.093116
vt 0.675902 0.093116
vt 0.675902 0.328929
vt 0.674245 0.312544
vt 0.700234 0.336198
vt 0.701892 0.352583
vt 0.700234 0.352583
vt 0.700234 0.588396
vt 0.700234 0.572011
vt 0.701892 0.572011
vt 0.698099 0.076731
vt 0.698099 0.093116
vt 0.699756 0.093116
vt 0.698099 0.328929
vt 0.699756 0.312544
vt 0.672699 0.359786
vt 0.671041 0.376171
vt 0.678038 0.462297
vt 0.676381 0.462297
vt 0.672699 0.611984
vt 0.674245 0.202830
vt 0.699756 0.202830
vt 0.694895 0.359786
vt 0.696552 0.376171
vt 0.694895 0.611984
vt 0.700234 0.462297
vt 0.701892 0.462297
vt 0.674835 0.498762
vt 0.674835 0.482377
vt 0.674835 0.372663
vt 0.674835 0.262949
vt 0.669495 0.067296
vt 0.691691 0.067296
vt 0.694895 0.485885
vt 0.694895 0.595599
vt 0.672699 0.595599
vt 0.672699 0.485885
vt 0.694895 0.376171
vt 0.672699 0.376171
vt 0.697031 0.372663
vt 0.697031 0.482377
vt 0.697031 0.498762
vt 0.674835 0.246564
vt 0.697031 0.246564
vt 0.697031 0.262949
vt 0.684302 0.526429
vt 0.684302 0.460411
vt 0.680155 0.397169
vt 0.678753 0.397169
vt 0.684044 0.767903
vt 0.678495 0.646980
vt 0.679897 0.646980
vt 0.684044 0.706143
vt 0.678959 0.542080
vt 0.673410 0.421158
vt 0.678495 0.601002
vt 0.679897 0.601002
vt 0.695400 0.460411
vt 0.699496 0.397169
vt 0.673410 0.375180
vt 0.689851 0.485365
vt 0.695606 0.421158
vt 0.690057 0.542080
vt 0.684508 0.565424
vt 0.700692 0.646980
vt 0.695142 0.767903
vt 0.695142 0.706143
vt 0.699238 0.646980
vt 0.689593 0.791247
vt 0.689593 0.729487
vt 0.700949 0.397169
vt 0.695400 0.526429
vt 0.689851 0.551383
vt 0.678753 0.348021
vt 0.680155 0.348021
vt 0.699496 0.348021
vt 0.700949 0.348021
vt 0.695606 0.375180
vt 0.699238 0.601002
vt 0.700692 0.601002
vt 0.000000 0.000000
vt 0.701971 0.517402
vt 0.688158 0.492126
vt 0.674345 0.517402
vt 0.668624 0.578423
vt 0.688158 0.664720
vt 0.701971 0.639444
vt 0.186809 0.493888
vt 0.154979 0.441866
vt 0.162259 0.413143
vt 0.186809 0.453267
vt 0.674345 0.639444
vt 0.707693 0.578423
vt 0.154979 0.190685
vt 0.186809 0.138663
vt 0.186809 0.179285
vt 0.162259 0.219409
vt 0.218639 0.441866
vt 0.211359 0.413143
vt 0.218639 0.190685
vt 0.231823 0.316275
vt 0.221528 0.316275
vt 0.211359 0.219409
vt 0.141795 0.316275
vt 0.152090 0.316275
vt 0.183709 0.976869
vt 0.688158 0.569620
vt 0.701971 0.544344
vt 0.707693 0.483323
vt 0.701971 0.422302
vt 0.688158 0.397026
vt 0.674345 0.422302
vt 0.668624 0.483323
vt 0.674345 0.544344
vt 0.055042 0.486021
vt 0.023213 0.433996
vt 0.030492 0.405271
vt 0.055042 0.445397
vt 0.023213 0.182800
vt 0.055042 0.130775
vt 0.055042 0.171399
vt 0.030492 0.211525
vt 0.086872 0.433996
vt 0.079593 0.405271
vt 0.086872 0.182800
vt 0.100057 0.308398
vt 0.089762 0.308398
vt 0.079593 0.211525
vt 0.010028 0.308398
vt 0.020323 0.308398
vt 0.051942 0.969031
vt 0.676834 0.317043
vt 0.679190 0.317043
vt 0.676834 0.387561
vt 0.679190 0.387561
vt 0.676834 0.387561
vt 0.674478 0.317043
vt 0.674478 0.387561
vt 0.674478 0.387561
vt 0.674478 0.369210
vt 0.676834 0.369210
vt 0.676834 0.369210
vt 0.679190 0.369210
s 0
usemtl Material.001
f 26/1/1 2/2/1 4/3/1 27/4/1
f 27/4/2 4/3/2 6/3/2 29/4/2
f 29/4/3 6/3/3 8/2/3 31/1/3
f 31/1/4 8/2/4 10/5/4 33/6/4
f 4/3/5 2/2/5 12/5/5 10/5/5 8/2/5 6/3/5
f 33/6/6 10/5/6 12/5/6 35/6/6
f 35/6/7 12/5/7 2/2/7 26/1/7
f 1/7/8 3/8/8 5/8/8 7/7/8 9/9/8 11/9/8
f 245/10/9 18/11/9 13/12/9 248/13/9
f 243/14/10 17/15/10 18/11/10 245/10/10
f 241/16/11 16/12/11 17/15/11 243/14/11
f 239/17/12 15/18/12 16/12/12 241/16/12
f 237/17/13 14/18/13 15/18/13 239/17/13
f 248/13/14 13/12/14 14/18/14 237/17/14
f 30/19/15 28/19/15 50/19/15 52/19/15
f 29/4/16 30/20/16 52/20/16 51/4/16
f 16/12/4 22/21/4 23/22/4 17/15/4
f 15/18/3 21/23/3 22/21/3 16/12/3
f 25/24/17 36/25/17 56/25/17 47/24/17
f 13/26/18 18/27/18 44/27/18 45/26/18
f 24/22/7 36/28/7 25/29/7 19/21/7
f 23/30/19 24/30/19 43/30/19 41/30/19
f 23/22/6 34/28/6 36/28/6 24/22/6
f 17/15/20 23/22/20 41/22/20 42/15/20
f 22/21/4 32/29/4 34/28/4 23/22/4
f 32/29/4 31/1/4 33/6/4 34/28/4
f 21/23/3 30/20/3 32/29/3 22/21/3
f 30/20/3 29/4/3 31/1/3 32/29/3
f 20/23/2 28/20/2 30/20/2 21/23/2
f 14/31/21 13/26/21 45/26/21 38/31/21
f 19/21/1 25/29/1 28/20/1 20/23/1
f 34/28/20 33/6/20 53/6/20 54/28/20
f 44/32/7 43/33/7 46/34/7 45/35/7
f 42/36/6 41/37/6 43/33/6 44/32/6
f 38/38/2 37/39/2 39/39/2 40/38/2
f 45/35/1 46/34/1 37/39/1 38/38/1
f 56/40/7 55/41/7 48/42/7 47/43/7
f 54/44/6 53/45/6 55/41/6 56/40/6
f 50/46/2 49/47/2 51/47/2 52/46/2
f 47/43/1 48/42/1 49/47/1 50/46/1
f 18/27/22 17/48/22 42/48/22 44/27/22
f 20/49/23 21/49/23 39/49/23 37/49/23
f 35/50/24 26/51/24 48/51/24 55/50/24
f 27/52/25 29/52/25 51/52/25 49/52/25
f 19/53/26 20/49/26 37/49/26 46/53/26
f 36/25/27 34/25/27 54/25/27 56/25/27
f 28/19/28 25/24/28 47/24/28 50/19/28
f 33/50/29 35/50/29 55/50/29 53/50/29
f 21/23/16 15/18/16 40/18/16 39/23/16
f 26/51/30 27/52/30 49/52/30 48/51/30
f 15/31/31 14/31/31 38/31/31 40/31/31
f 24/30/32 19/53/32 46/53/32 43/30/32
f 72/54/5 61/55/5 84/55/5 87/54/5
f 231/56/33 79/57/33 74/57/33 234/56/33
f 78/54/5 66/55/5 61/55/5 72/54/5
f 228/58/34 62/59/34 68/59/34 230/58/34
f 229/60/35 67/61/35 80/62/35 232/63/35
f 57/64/36 58/65/36 59/66/36
f 60/67/37 61/68/37 62/69/37
f 63/70/38 64/71/38 65/72/38
f 66/73/39 67/61/39 68/74/39
f 69/75/40 70/76/40 71/77/40
f 72/78/41 73/79/41 74/80/41
f 75/81/42 76/82/42 77/83/42
f 78/84/43 79/85/43 80/62/43
f 63/86/44 57/86/44 59/87/44 64/87/44
f 227/88/45 60/67/45 62/69/45 228/89/45
f 61/90/46 66/90/46 68/59/46 62/59/46
f 229/60/47 65/72/47 64/71/47 230/91/47
f 75/81/48 63/70/48 65/72/48 76/82/48
f 66/73/49 78/84/49 80/62/49 67/61/49
f 231/92/50 77/83/50 76/82/50 232/63/50
f 69/93/51 75/93/51 77/94/51 70/94/51
f 78/95/52 72/95/52 74/57/52 79/57/52
f 233/96/53 71/77/53 70/76/53 234/97/53
f 61/98/6 60/99/6 83/99/6 84/98/6
f 227/100/6 58/101/6 82/101/6 235/100/6
f 63/102/54 75/103/54 69/103/54 57/102/54
f 236/104/55 88/105/55 83/106/55 235/107/55
f 81/86/56 86/93/56 85/108/56 82/109/56
f 87/95/57 84/90/57 83/106/57 88/105/57
f 57/102/54 69/103/54 86/103/54 81/102/54
f 233/110/58 73/111/58 88/111/58 236/110/58
f 73/111/2 72/112/2 87/112/2 88/111/2
f 58/101/6 57/113/6 81/113/6 82/101/6
f 69/114/2 71/115/2 85/115/2 86/114/2
f 99/116/59 100/117/59 89/118/59 90/119/59
f 105/120/60 94/121/60 93/122/60 106/123/60
f 99/124/61 90/125/61 94/125/61 105/124/61
f 93/122/62 94/121/62 114/126/62 113/127/62
f 102/128/63 92/129/63 96/129/63 108/128/63
f 94/125/6 90/125/6 110/130/6 114/130/6
f 89/118/64 100/117/64 106/117/64 93/118/64
f 100/117/65 101/131/65 107/131/65 106/117/65
f 101/131/66 102/128/66 108/128/66 107/131/66
f 91/132/67 97/133/67 103/133/67 95/132/67
f 97/133/68 98/134/68 104/134/68 103/133/68
f 98/134/69 99/124/69 105/124/69 104/134/69
f 95/135/70 103/136/70 108/137/70 96/138/70
f 103/136/71 104/139/71 107/140/71 108/137/71
f 104/139/72 105/120/72 106/123/72 107/140/72
f 91/141/73 92/129/73 102/128/73 97/142/73
f 97/142/74 102/128/74 101/131/74 98/143/74
f 98/143/75 101/131/75 100/117/75 99/116/75
f 110/144/54 109/145/54 113/145/54 114/144/54
f 112/146/54 111/147/54 115/147/54 116/146/54
f 96/129/6 92/129/6 112/146/6 116/146/6
f 90/119/76 89/118/76 109/145/76 110/144/76
f 91/132/2 95/132/2 115/148/2 111/148/2
f 95/135/77 96/138/77 116/149/77 115/150/77
f 92/129/78 91/141/78 111/147/78 112/146/78
f 89/118/2 93/118/2 113/145/2 109/145/2
f 121/151/79 119/151/79 144/151/79 146/151/79
f 124/152/80 126/153/80 151/153/80 149/152/80
f 125/151/81 123/151/81 148/151/81 150/151/81
f 128/154/82 130/155/82 155/155/82 153/154/82
f 129/151/83 127/151/83 152/151/83 154/151/83
f 118/156/84 120/157/84 145/157/84 143/156/84
f 118/158/85 132/159/85 140/160/85 133/161/85
f 132/162/86 118/156/86 143/156/86 157/162/86
f 122/163/87 124/152/87 149/152/87 147/163/87
f 128/164/88 126/165/88 137/166/88 138/167/88
f 120/168/89 118/158/89 133/161/89 134/169/89
f 124/170/90 122/171/90 135/172/90 136/173/90
f 130/174/91 128/164/91 138/167/91 139/175/91
f 126/165/92 124/170/92 136/173/92 137/166/92
f 132/159/93 130/174/93 139/175/93 140/160/93
f 122/171/94 120/168/94 134/169/94 135/172/94
f 135/172/95 134/169/95 141/176/95
f 140/160/96 139/175/96 141/176/96
f 138/167/97 137/166/97 141/176/97
f 136/173/98 135/172/98 141/176/98
f 134/169/99 133/161/99 141/176/99
f 133/161/100 140/160/100 141/176/100
f 139/175/101 138/167/101 141/176/101
f 137/166/102 136/173/102 141/176/102
f 142/177/103 143/177/103 145/178/103 144/178/103
f 144/178/104 145/178/104 147/179/104 146/179/104
f 146/179/105 147/179/105 149/180/105 148/180/105
f 148/180/106 149/180/106 151/181/106 150/181/106
f 150/181/107 151/181/107 153/182/107 152/182/107
f 152/182/108 153/182/108 155/183/108 154/183/108
f 154/183/109 155/183/109 157/184/109 156/184/109
f 156/184/110 157/184/110 143/177/110 142/177/110
f 131/151/111 129/151/111 154/151/111 156/151/111
f 120/157/112 122/163/112 147/163/112 145/157/112
f 130/155/113 132/162/113 157/162/113 155/155/113
f 127/151/114 125/151/114 150/151/114 152/151/114
f 126/153/115 128/154/115 153/154/115 151/153/115
f 123/151/116 121/151/116 146/151/116 148/151/116
f 117/151/117 131/151/117 156/151/117 142/151/117
f 119/151/118 117/151/118 142/151/118 144/151/118
f 168/116/59 169/117/59 158/118/59 159/119/59
f 174/120/60 163/121/60 162/122/60 175/123/60
f 168/124/61 159/125/61 163/125/61 174/124/61
f 162/122/62 163/121/62 183/126/62 182/127/62
f 171/128/63 161/129/63 165/129/63 177/128/63
f 163/125/6 159/125/6 179/130/6 183/130/6
f 158/118/64 169/117/64 175/117/64 162/118/64
f 169/117/65 170/131/65 176/131/65 175/117/65
f 170/131/66 171/128/66 177/128/66 176/131/66
f 160/132/67 166/133/67 172/133/67 164/132/67
f 166/133/68 167/134/68 173/134/68 172/133/68
f 167/134/69 168/124/69 174/124/69 173/134/69
f 164/135/70 172/136/70 177/137/70 165/138/70
f 172/136/71 173/139/71 176/140/71 177/137/71
f 173/139/72 174/120/72 175/123/72 176/140/72
f 160/141/73 161/129/73 171/128/73 166/142/73
f 166/142/74 171/128/74 170/131/74 167/143/74
f 167/143/75 170/131/75 169/117/75 168/116/75
f 179/144/54 178/145/54 182/145/54 183/144/54
f 181/146/54 180/147/54 184/147/54 185/146/54
f 165/129/6 161/129/6 181/146/6 185/146/6
f 159/119/76 158/118/76 178/145/76 179/144/76
f 160/132/2 164/132/2 184/148/2 180/148/2
f 164/135/77 165/138/77 185/149/77 184/150/77
f 161/129/78 160/141/78 180/147/78 181/146/78
f 158/118/2 162/118/2 182/145/2 178/145/2
f 190/151/79 188/151/79 213/151/79 215/151/79
f 193/152/80 195/153/80 220/153/80 218/152/80
f 194/151/81 192/151/81 217/151/81 219/151/81
f 197/154/82 199/155/82 224/155/82 222/154/82
f 198/151/83 196/151/83 221/151/83 223/151/83
f 187/156/84 189/157/84 214/157/84 212/156/84
f 187/185/85 201/186/85 209/187/85 202/188/85
f 201/162/86 187/156/86 212/156/86 226/162/86
f 191/163/87 193/152/87 218/152/87 216/163/87
f 197/189/88 195/190/88 206/191/88 207/192/88
f 189/193/89 187/185/89 202/188/89 203/194/89
f 193/195/90 191/196/90 204/197/90 205/198/90
f 199/199/91 197/189/91 207/192/91 208/200/91
f 195/190/92 193/195/92 205/198/92 206/191/92
f 201/186/93 199/199/93 208/200/93 209/187/93
f 191/196/94 189/193/94 203/194/94 204/197/94
f 204/197/95 203/194/95 210/201/95
f 209/187/96 208/200/96 210/201/96
f 207/192/97 206/191/97 210/201/97
f 205/198/98 204/197/98 210/201/98
f 203/194/99 202/188/99 210/201/99
f 202/188/100 209/187/100 210/201/100
f 208/200/101 207/192/101 210/201/101
f 206/191/102 205/198/102 210/201/102
f 211/177/103 212/177/103 214/178/103 213/178/103
f 213/178/104 214/178/104 216/179/104 215/179/104
f 215/179/105 216/179/105 218/180/105 217/180/105
f 217/180/106 218/180/106 220/181/106 219/181/106
f 219/181/107 220/181/107 222/182/107 221/182/107
f 221/182/108 222/182/108 224/183/108 223/183/108
f 223/183/109 224/183/109 226/184/109 225/184/109
f 225/184/110 226/184/110 212/177/110 211/177/110
f 200/151/111 198/151/111 223/151/111 225/151/111
f 189/157/112 191/163/112 216/163/112 214/157/112
f 199/155/113 201/162/113 226/162/113 224/155/113
f 196/151/114 194/151/114 219/151/114 221/151/114
f 195/153/115 197/154/115 222/154/115 220/153/115
f 192/151/116 190/151/116 215/151/116 217/151/116
f 186/151/117 200/151/117 225/151/117 211/151/117
f 188/151/118 186/151/118 211/151/118 213/151/118
f 71/115/2 233/110/2 236/110/2 85/115/2
f 85/108/119 236/104/119 235/107/119 82/109/119
f 60/99/120 227/100/120 235/100/120 83/99/120
f 73/79/121 233/96/121 234/97/121 74/80/121
f 79/85/122 231/92/122 232/63/122 80/62/122
f 67/61/123 229/60/123 230/91/123 68/74/123
f 58/65/124 227/88/124 228/89/124 59/66/124
f 65/72/125 229/60/125 232/63/125 76/82/125
f 59/87/6 228/58/6 230/58/6 64/87/6
f 77/94/2 231/56/2 234/56/2 70/94/2
f 1/7/126 247/202/126 238/203/126 3/8/126
f 255/204/127 248/13/127 237/17/127 256/205/127
f 3/8/128 238/203/128 240/203/128 5/8/128
f 256/205/129 237/17/129 239/17/129 257/205/129
f 5/8/130 240/203/130 242/202/130 7/7/130
f 257/205/131 239/17/131 241/16/131 258/206/131
f 7/7/132 242/202/132 244/207/132 9/9/132
f 258/206/133 241/16/133 243/14/133 259/208/133
f 9/9/134 244/207/134 246/207/134 11/9/134
f 259/208/135 243/14/135 245/10/135 260/209/135
f 11/9/136 246/207/136 247/202/136 1/7/136
f 260/209/137 245/10/137 248/13/137 255/204/137
f 246/207/138 253/210/138 254/211/138 247/202/138
f 244/207/139 252/210/139 253/210/139 246/207/139
f 242/202/140 251/212/140 252/210/140 244/207/140
f 240/203/141 250/213/141 251/212/141 242/202/141
f 238/203/142 249/213/142 250/213/142 240/203/142
f 247/202/143 254/211/143 249/213/143 238/203/143
f 253/210/144 260/209/144 255/204/144 254/211/144
f 252/210/145 259/208/145 260/209/145 253/210/145
f 251/212/146 258/206/146 259/208/146 252/210/146
f 250/213/147 257/205/147 258/206/147 251/212/147
f 249/213/148 256/205/148 257/205/148 250/213/148
f 254/211/149 255/204/149 256/205/149 249/213/149
