# Blender 5.1.0
# www.blender.org
mtllib traffic_light.mtl
o traffic_light
v -0.012402 -0.315544 -0.863328
v -0.012402 11.557636 -0.863328
v 0.256472 -0.315544 -0.708093
v 0.256472 11.557636 -0.708093
v 0.256472 -0.315544 -0.397625
v 0.256472 11.557636 -0.397625
v -0.012402 -0.315544 -0.242390
v -0.012402 11.557636 -0.242390
v -0.281275 -0.315544 -0.397625
v -0.281275 11.557636 -0.397625
v -0.281275 -0.315544 -0.708093
v -0.281275 11.557636 -0.708093
v -0.012402 8.492995 -0.863328
v 0.256472 8.492995 -0.708093
v 0.256472 8.492995 -0.397625
v -0.012402 8.492995 -0.242390
v -0.281275 8.492995 -0.397625
v -0.281275 8.492995 -0.708093
v -0.012402 8.781693 -0.863328
v 0.256472 8.781693 -0.708093
v 0.256472 8.781693 -0.397625
v -0.012402 8.781693 -0.242390
v -0.281275 8.781693 -0.397625
v -0.281275 8.781693 -0.708093
v -0.012402 10.021161 -0.863328
v -0.012402 10.318168 -0.863328
v 0.256472 10.318168 -0.708093
v 0.256472 10.021161 -0.708093
v 0.256472 10.318168 -0.397625
v 0.256472 10.021161 -0.397625
v -0.012402 10.318168 -0.242390
v -0.012402 10.021161 -0.242390
v -0.281275 10.318168 -0.397625
v -0.281275 10.021161 -0.397625
v -0.281275 10.318168 -0.708093
v -0.281275 10.021161 -0.708093
v 0.371445 8.791935 -0.724688
v 0.371445 8.482753 -0.724688
v 0.371445 8.791935 -0.281460
v 0.371445 8.482753 -0.281460
v -0.396248 8.791935 -0.281460
v -0.396248 8.482753 -0.281460
v -0.396248 8.791935 -0.724688
v -0.396248 8.482753 -0.724688
v -0.012402 8.482753 -0.946302
v -0.012402 8.791935 -0.946302
v -0.012402 10.010625 -0.946302
v -0.012402 10.328704 -0.946302
v 0.371445 10.328704 -0.724688
v 0.371445 10.010625 -0.724688
v 0.371445 10.328704 -0.281460
v 0.371445 10.010625 -0.281460
v -0.396248 10.328704 -0.281460
v -0.396248 10.010625 -0.281460
v -0.396248 10.328704 -0.724688
v -0.396248 10.010625 -0.724688
v -0.776623 7.336448 -0.155612
v -0.776623 7.597931 -0.137199
v -0.893471 7.597931 -0.155612
v -0.831770 11.311958 -0.131945
v -0.831770 11.591871 -0.151655
v -0.956854 11.311958 -0.151655
v -0.776623 7.336448 -0.402206
v -0.893471 7.597931 -0.402206
v -0.776623 7.597931 -0.420619
v -0.831770 11.591871 -0.415629
v -0.831770 11.311958 -0.435340
v -0.956854 11.311958 -0.415629
v 0.788262 7.336448 -0.155612
v 0.905110 7.597931 -0.155612
v 0.788262 7.597931 -0.137199
v 0.843409 11.591871 -0.151655
v 0.843409 11.311958 -0.131945
v 0.968493 11.311958 -0.151655
v 0.788262 7.336448 -0.402206
v 0.788262 7.597931 -0.420619
v 0.905110 7.597931 -0.402206
v 0.843409 11.591871 -0.415629
v 0.968493 11.311958 -0.415629
v 0.843409 11.311958 -0.435340
v -0.776623 7.336448 0.011522
v -0.776623 7.597931 0.029935
v -0.831770 11.311958 0.046969
v -0.831770 11.591871 0.027258
v 0.788262 7.597931 0.029935
v 0.788262 7.336448 0.011522
v 0.843409 11.591871 0.027258
v 0.843409 11.311958 0.046969
v -0.725950 10.685460 0.079786
v -0.831770 10.685460 0.060076
v 0.843409 10.685460 0.060076
v 0.733748 10.685460 0.079786
v -0.725950 10.685460 0.822866
v -0.831770 10.685460 0.803155
v 0.843409 10.685460 0.803155
v 0.733748 10.685460 0.822866
v 0.424614 11.233516 0.060076
v 0.005820 11.339319 0.060076
v -0.412975 11.233516 0.060076
v -0.412975 10.953603 0.079787
v 0.005820 11.059406 0.079787
v 0.424614 10.953603 0.079787
v 0.424614 11.233516 0.803155
v 0.005820 11.339319 0.803155
v -0.412975 11.233516 0.803155
v -0.412975 10.953603 0.822866
v 0.005820 11.059406 0.822866
v 0.424614 10.953603 0.822866
v -0.725950 10.477077 0.079786
v -0.831770 10.477077 0.060076
v 0.843409 10.477077 0.060076
v 0.733748 10.477077 0.079786
v -0.725950 10.477077 0.822866
v -0.831770 10.477077 0.803155
v 0.843409 10.477077 0.803155
v 0.733748 10.477077 0.822866
v 0.001889 11.070784 0.029238
v 0.001889 11.070784 0.233848
v 0.497377 10.865546 0.029238
v 0.497377 10.865546 0.233848
v 0.702615 10.370058 0.029238
v 0.702615 10.370058 0.233848
v 0.497377 9.874570 0.029238
v 0.497377 9.874570 0.233848
v 0.001889 9.669332 0.029238
v 0.001889 9.669332 0.233848
v -0.493599 9.874570 0.029238
v -0.493599 9.874570 0.233848
v -0.698837 10.370058 0.029238
v -0.698837 10.370058 0.233848
v -0.493599 10.865546 0.029238
v -0.493599 10.865546 0.233848
v 0.001889 10.910522 0.394981
v 0.384055 10.752224 0.394981
v 0.542354 10.370058 0.394981
v 0.384055 9.987891 0.394981
v 0.001889 9.829593 0.394981
v -0.380277 9.987891 0.394981
v -0.538576 10.370058 0.394981
v -0.380277 10.752224 0.394981
v 0.001889 10.370058 0.483600
v 0.001889 11.149665 0.017722
v 0.001889 11.149665 0.245364
v 0.553155 10.921324 0.017722
v 0.553155 10.921324 0.245364
v 0.781497 10.370058 0.017722
v 0.781497 10.370058 0.245364
v 0.553155 9.818792 0.017722
v 0.553155 9.818792 0.245364
v 0.001889 9.590450 0.017722
v 0.001889 9.590450 0.245364
v -0.549377 9.818792 0.017722
v -0.549377 9.818792 0.245364
v -0.777719 10.370058 0.017722
v -0.777719 10.370058 0.245364
v -0.549377 10.921324 0.017722
v -0.549377 10.921324 0.245364
v -0.725950 8.760098 0.079786
v -0.831770 8.760098 0.060076
v 0.843409 8.760098 0.060076
v 0.733748 8.760098 0.079786
v -0.725950 8.760098 0.822866
v -0.831770 8.760098 0.803155
v 0.843409 8.760098 0.803155
v 0.733748 8.760098 0.822866
v 0.424614 9.308154 0.060076
v 0.005820 9.413958 0.060076
v -0.412975 9.308154 0.060076
v -0.412975 9.028241 0.079787
v 0.005820 9.134045 0.079787
v 0.424614 9.028241 0.079787
v 0.424614 9.308154 0.803155
v 0.005820 9.413958 0.803155
v -0.412975 9.308154 0.803155
v -0.412975 9.028241 0.822866
v 0.005820 9.134045 0.822866
v 0.424614 9.028241 0.822866
v -0.725950 8.551715 0.079786
v -0.831770 8.551715 0.060076
v 0.843409 8.551715 0.060076
v 0.733748 8.551715 0.079786
v -0.725950 8.551715 0.822866
v -0.831770 8.551715 0.803155
v 0.843409 8.551715 0.803155
v 0.733748 8.551715 0.822866
v 0.001889 9.145421 0.029238
v 0.001889 9.145421 0.233848
v 0.497377 8.940184 0.029238
v 0.497377 8.940184 0.233848
v 0.702615 8.444695 0.029238
v 0.702615 8.444695 0.233848
v 0.497377 7.949207 0.029238
v 0.497377 7.949207 0.233848
v 0.001889 7.743969 0.029238
v 0.001889 7.743969 0.233848
v -0.493599 7.949207 0.029238
v -0.493599 7.949207 0.233848
v -0.698837 8.444695 0.029238
v -0.698837 8.444695 0.233848
v -0.493599 8.940184 0.029238
v -0.493599 8.940184 0.233848
v 0.001889 8.985161 0.394981
v 0.384055 8.826861 0.394981
v 0.542354 8.444695 0.394981
v 0.384055 8.062529 0.394981
v 0.001889 7.904231 0.394981
v -0.380277 8.062529 0.394981
v -0.538576 8.444695 0.394981
v -0.380277 8.826861 0.394981
v 0.001889 8.444695 0.483600
v 0.001889 9.224303 0.017722
v 0.001889 9.224303 0.245364
v 0.553155 8.995961 0.017722
v 0.553155 8.995961 0.245364
v 0.781497 8.444695 0.017722
v 0.781497 8.444695 0.245364
v 0.553155 7.893430 0.017722
v 0.553155 7.893430 0.245364
v 0.001889 7.665088 0.017722
v 0.001889 7.665088 0.245364
v -0.549377 7.893430 0.017722
v -0.549377 7.893430 0.245364
v -0.777719 8.444695 0.017722
v -0.777719 8.444695 0.245364
v -0.549377 8.995961 0.017722
v -0.549377 8.995961 0.245364
v -0.776623 9.348877 -0.137199
v -0.893471 9.348877 -0.155612
v -0.776623 9.348877 -0.420619
v -0.893471 9.348877 -0.402206
v 0.905110 9.348877 -0.402206
v 0.788262 9.348877 -0.420619
v 0.788262 9.348877 -0.137199
v 0.905110 9.348877 -0.155612
v -0.776623 9.348877 0.029935
v 0.788262 9.348877 0.029935
vn 0.5000 -0.0000 -0.8660
vn 1.0000 -0.0000 -0.0000
vn 0.5000 -0.0000 0.8660
vn -0.5000 -0.0000 0.8660
vn -0.0000 1.0000 -0.0000
vn -1.0000 -0.0000 -0.0000
vn -0.5000 -0.0000 -0.8660
vn -0.0000 -1.0000 -0.0000
vn -0.0913 -0.9958 -0.0000
vn -0.7107 -0.0000 0.7035
vn 0.0725 -0.9894 0.1256
vn 0.0706 -0.9900 0.1222
vn 0.0887 0.9961 -0.0000
vn 0.7107 -0.0000 0.7035
vn -0.0706 -0.9900 0.1222
vn 0.0887 -0.9961 -0.0000
vn -0.0887 0.9961 -0.0000
vn 0.0725 0.9894 0.1256
vn -0.0913 0.9958 -0.0000
vn -0.0706 0.9900 0.1222
vn 0.0913 -0.9958 -0.0000
vn -0.0725 -0.9894 0.1256
vn 0.0913 0.9958 -0.0000
vn -0.0725 0.9894 0.1256
vn -0.0887 -0.9961 -0.0000
vn 0.0706 0.9900 0.1222
vn 0.9995 -0.0323 -0.0000
vn -0.9995 -0.0323 -0.0000
vn -0.0000 -0.0075 -1.0000
vn -0.1553 -0.0694 0.9854
vn -0.1553 0.0694 0.9854
vn -0.1553 -0.0694 -0.9854
vn -0.1553 0.0694 -0.9854
vn 0.1553 -0.0694 0.9854
vn 0.1553 0.0694 0.9854
vn 0.1553 -0.0694 -0.9854
vn 0.1553 0.0694 -0.9854
vn -0.9130 -0.4080 -0.0000
vn -0.1557 -0.0070 0.9878
vn -0.9130 0.4080 -0.0000
vn -0.1557 -0.0000 -0.9878
vn -0.0000 -0.0702 -0.9975
vn -0.0000 0.0702 -0.9975
vn 0.1557 -0.0000 -0.9878
vn 0.9130 -0.4080 -0.0000
vn 0.9130 0.4080 -0.0000
vn 0.1557 -0.0000 0.9878
vn -0.0000 -0.0087 1.0000
vn -0.0000 -0.0702 0.9975
vn -0.0000 0.0702 0.9975
vn 0.9996 -0.0281 -0.0000
vn 0.1093 -0.0980 -0.9892
vn -0.1093 0.0980 0.9892
vn -0.7946 0.6072 -0.0000
vn -0.1831 -0.0000 0.9831
vn -0.6552 -0.7554 -0.0000
vn 0.6506 -0.7594 -0.0000
vn 0.2449 -0.9695 -0.0000
vn -0.2449 -0.9695 -0.0000
vn 0.7946 0.6072 -0.0000
vn 0.2449 0.9695 -0.0000
vn -0.2449 0.9695 -0.0000
vn 0.1086 0.0968 0.9894
vn 0.0177 0.0702 0.9974
vn -0.0177 0.0702 0.9974
vn -0.1086 -0.0968 -0.9894
vn -0.0177 -0.0702 -0.9974
vn 0.0177 -0.0702 -0.9974
vn 0.1831 -0.0000 -0.9831
vn 0.1769 -0.0000 0.9842
vn -0.1769 -0.0000 -0.9842
vn -0.1442 -0.0597 -0.9877
vn -0.0597 0.1442 0.9877
vn -0.0597 0.1442 -0.9877
vn 0.1442 0.0597 0.9877
vn 0.1442 0.0597 -0.9877
vn -0.0597 -0.1442 0.9877
vn -0.2818 0.6803 0.6766
vn 0.0597 -0.1442 0.9877
vn -0.1442 0.0597 0.9877
vn -0.2818 -0.6803 0.6766
vn 0.2818 0.6803 0.6766
vn 0.6803 -0.2818 0.6766
vn -0.6803 -0.2818 0.6766
vn 0.2818 -0.6803 0.6766
vn -0.6803 0.2818 0.6766
vn 0.6803 0.2818 0.6766
vn 0.1614 0.0669 0.9846
vn -0.1614 0.0669 0.9846
vn -0.0669 -0.1614 0.9846
vn 0.1614 -0.0669 0.9846
vn 0.0669 0.1614 0.9846
vn -0.0669 0.1614 0.9846
vn -0.1614 -0.0669 0.9846
vn 0.0669 -0.1614 0.9846
vn 0.3827 0.9239 -0.0000
vn 0.9239 0.3827 -0.0000
vn 0.9239 -0.3827 -0.0000
vn 0.3827 -0.9239 -0.0000
vn -0.3827 -0.9239 -0.0000
vn -0.9239 -0.3827 -0.0000
vn -0.9239 0.3827 -0.0000
vn -0.3827 0.9239 -0.0000
vn 0.1442 -0.0597 -0.9877
vn -0.1442 -0.0597 0.9877
vn 0.1442 -0.0597 0.9877
vn 0.0597 0.1442 -0.9877
vn 0.0597 0.1442 0.9877
vn -0.1442 0.0597 -0.9877
vn 0.0597 -0.1442 -0.9877
vn -0.0597 -0.1442 -0.9877
vn -0.0000 -0.0000 1.0000
vn -0.9996 -0.0281 -0.0000
vn 0.1557 -0.0070 0.9878
vn 0.1556 -0.0118 -0.9877
vn -0.1556 -0.0118 -0.9877
vn -0.1557 -0.0000 0.9878
vn -0.0000 -0.0000 -1.0000
vt 0.676834 0.608506
vt 0.676834 0.644317
vt 0.679190 0.644317
vt 0.679190 0.608506
vt 0.674478 0.644317
vt 0.674478 0.608506
vt 0.676834 0.212710
vt 0.679190 0.212710
vt 0.674478 0.212710
vt 0.674478 0.525711
vt 0.676834 0.525711
vt 0.674478 0.525711
vt 0.679190 0.525711
vt 0.682553 0.456791
vt 0.679190 0.572695
vt 0.676834 0.536884
vt 0.674478 0.536884
vt 0.679190 0.536884
vt 0.680198 0.456791
vt 0.677842 0.456791
vt 0.680198 0.409807
vt 0.677842 0.409807
vt 0.674478 0.572695
vt 0.676834 0.572695
vt 0.676497 0.426924
vt 0.682553 0.409807
vt 0.168442 0.335640
vt 0.168442 0.379726
vt 0.170797 0.379726
vt 0.170797 0.335640
vt 0.168442 0.335641
vt 0.168442 0.379726
vt 0.173153 0.335641
vt 0.173153 0.379726
vt 0.168442 0.521026
vt 0.168442 0.662326
vt 0.170797 0.662326
vt 0.170797 0.521026
vt 0.168442 0.521026
vt 0.168442 0.662326
vt 0.173153 0.521026
vt 0.173153 0.662326
vt 0.677842 0.409807
vt 0.681208 0.426924
vt 0.676497 0.498546
vt 0.678852 0.498546
vt 0.681208 0.498546
vt 0.678852 0.426924
vt 0.707109 0.839535
vt 0.684913 0.839535
vt 0.696552 0.485885
vt 0.696552 0.595599
vt 0.671041 0.485885
vt 0.671041 0.595599
vt 0.675902 0.202830
vt 0.675902 0.312544
vt 0.698099 0.312544
vt 0.698099 0.202830
vt 0.678038 0.336198
vt 0.678038 0.352583
vt 0.676381 0.352583
vt 0.678038 0.572011
vt 0.678038 0.588396
vt 0.676381 0.572011
vt 0.675902 0.076731
vt 0.674245 0.093116
vt 0.675902 0.093116
vt 0.675902 0.328929
vt 0.674245 0.312544
vt 0.700234 0.336198
vt 0.701892 0.352583
vt 0.700234 0.352583
vt 0.700234 0.588396
vt 0.700234 0.572011
vt 0.701892 0.572011
vt 0.698099 0.076731
vt 0.698099 0.093116
vt 0.699756 0.093116
vt 0.698099 0.328929
vt 0.699756 0.312544
vt 0.672699 0.359786
vt 0.671041 0.376171
vt 0.678038 0.462297
vt 0.676381 0.462297
vt 0.672699 0.611984
vt 0.674245 0.202830
vt 0.699756 0.202830
vt 0.694895 0.359786
vt 0.696552 0.376171
vt 0.694895 0.611984
vt 0.700234 0.462297
vt 0.701892 0.462297
vt 0.674835 0.498762
vt 0.674835 0.482377
vt 0.674835 0.372663
vt 0.674835 0.262949
vt 0.669495 0.067296
vt 0.691691 0.067296
vt 0.694895 0.485885
vt 0.694895 0.595599
vt 0.672699 0.595599
vt 0.672699 0.485885
vt 0.694895 0.376171
vt 0.672699 0.376171
vt 0.697031 0.372663
vt 0.697031 0.482377
vt 0.697031 0.498762
vt 0.674835 0.246564
vt 0.697031 0.246564
vt 0.697031 0.262949
vt 0.684302 0.526429
vt 0.684302 0.460411
vt 0.680155 0.397169
vt 0.678753 0.397169
vt 0.684044 0.767903
vt 0.678495 0.646980
vt 0.679897 0.646980
vt 0.684044 0.706143
vt 0.678959 0.542080
vt 0.673410 0.421158
vt 0.678495 0.601002
vt 0.679897 0.601002
vt 0.695400 0.460411
vt 0.699496 0.397169
vt 0.673410 0.375180
vt 0.689851 0.485365
vt 0.695606 0.421158
vt 0.690057 0.542080
vt 0.684508 0.565424
vt 0.700692 0.646980
vt 0.695142 0.767903
vt 0.695142 0.706143
vt 0.699238 0.646980
vt 0.689593 0.791247
vt 0.689593 0.729487
vt 0.700949 0.397169
vt 0.695400 0.526429
vt 0.689851 0.551383
vt 0.678753 0.348021
vt 0.680155 0.348021
vt 0.699496 0.348021
vt 0.700949 0.348021
vt 0.695606 0.375180
vt 0.699238 0.601002
vt 0.700692 0.601002
vt 0.000000 0.000000
vt 0.701971 0.517402
vt 0.688158 0.492126
vt 0.674345 0.517402
vt 0.668624 0.578423
vt 0.688158 0.664720
vt 0.701971 0.639444
vt 0.186809 0.493888
vt 0.154979 0.441866
vt 0.162259 0.413143
vt 0.186809 0.453267
vt 0.674345 0.639444
vt 0.707693 0.578423
vt 0.154979 0.190685
vt 0.186809 0.138663
vt 0.186809 0.179285
vt 0.162259 0.219409
vt 0.218639 0.441866
vt 0.211359 0.413143
vt 0.218639 0.190685
vt 0.231823 0.316275
vt 0.221528 0.316275
vt 0.211359 0.219409
vt 0.141795 0.316275
vt 0.152090 0.316275
vt 0.183709 0.976869
vt 0.688158 0.569620
vt 0.701971 0.544344
vt 0.707693 0.483323
vt 0.701971 0.422302
vt 0.688158 0.397026
vt 0.674345 0.422302
vt 0.668624 0.483323
vt 0.674345 0.544344
vt 0.055042 0.486021
vt 0.023213 0.433996
vt 0.030492 0.405271
vt 0.055042 0.445397
vt 0.023213 0.182800
vt 0.055042 0.130775
vt 0.055042 0.171399
vt 0.030492 0.211525
vt 0.086872 0.433996
vt 0.079593 0.405271
vt 0.086872 0.182800
vt 0.100057 0.308398
vt 0.089762 0.308398
vt 0.079593 0.211525
vt 0.010028 0.308398
vt 0.020323 0.308398
vt 0.051942 0.969031
s 0
usemtl Material.001
f 26/1/1 2/2/1 4/3/1 27/4/1
f 27/4/2 4/3/2 6/3/2 29/4/2
f 29/4/3 6/3/3 8/2/3 31/1/3
f 31/1/4 8/2/4 10/5/4 33/6/4
f 4/3/5 2/2/5 12/5/5 10/5/5 8/2/5 6/3/5
f 33/6/6 10/5/6 12/5/6 35/6/6
f 35/6/7 12/5/7 2/2/7 26/1/7
f 1/7/8 3/8/8 5/8/8 7/7/8 9/9/8 11/9/8
f 11/9/7 18/10/7 13/11/7 1/7/7
f 9/9/6 17/12/6 18/10/6 11/9/6
f 7/7/4 16/11/4 17/12/4 9/9/4
f 5/8/3 15/13/3 16/11/3 7/7/3
f 3/8/2 14/13/2 15/13/2 5/8/2
f 1/7/1 13/11/1 14/13/1 3/8/1
f 30/14/9 28/14/9 50/14/9 52/14/9
f 29/4/10 30/15/10 52/15/10 51/4/10
f 16/11/4 22/16/4 23/17/4 17/12/4
f 15/13/3 21/18/3 22/16/3 16/11/3
f 25/19/11 36/20/11 56/20/11 47/19/11
f 13/21/12 18/22/12 44/22/12 45/21/12
f 24/17/7 36/23/7 25/24/7 19/16/7
f 23/25/13 24/25/13 43/25/13 41/25/13
f 23/17/6 34/23/6 36/23/6 24/17/6
f 17/12/14 23/17/14 41/17/14 42/12/14
f 22/16/4 32/24/4 34/23/4 23/17/4
f 32/24/4 31/1/4 33/6/4 34/23/4
f 21/18/3 30/15/3 32/24/3 22/16/3
f 30/15/3 29/4/3 31/1/3 32/24/3
f 20/18/2 28/15/2 30/15/2 21/18/2
f 14/26/15 13/21/15 45/21/15 38/26/15
f 19/16/1 25/24/1 28/15/1 20/18/1
f 34/23/14 33/6/14 53/6/14 54/23/14
f 44/27/7 43/28/7 46/29/7 45/30/7
f 42/31/6 41/32/6 43/28/6 44/27/6
f 38/33/2 37/34/2 39/34/2 40/33/2
f 45/30/1 46/29/1 37/34/1 38/33/1
f 56/35/7 55/36/7 48/37/7 47/38/7
f 54/39/6 53/40/6 55/36/6 56/35/6
f 50/41/2 49/42/2 51/42/2 52/41/2
f 47/38/1 48/37/1 49/42/1 50/41/1
f 18/22/16 17/43/16 42/43/16 44/22/16
f 20/44/17 21/44/17 39/44/17 37/44/17
f 35/45/18 26/46/18 48/46/18 55/45/18
f 27/47/19 29/47/19 51/47/19 49/47/19
f 19/48/20 20/44/20 37/44/20 46/48/20
f 36/20/21 34/20/21 54/20/21 56/20/21
f 28/14/22 25/19/22 47/19/22 50/14/22
f 33/45/23 35/45/23 55/45/23 53/45/23
f 21/18/10 15/13/10 40/13/10 39/18/10
f 26/46/24 27/47/24 49/47/24 48/46/24
f 15/26/25 14/26/25 38/26/25 40/26/25
f 24/25/26 19/48/26 46/48/26 43/25/26
f 72/49/5 61/50/5 84/50/5 87/49/5
f 231/51/27 79/52/27 74/52/27 234/51/27
f 78/49/5 66/50/5 61/50/5 72/49/5
f 228/53/28 62/54/28 68/54/28 230/53/28
f 229/55/29 67/56/29 80/57/29 232/58/29
f 57/59/30 58/60/30 59/61/30
f 60/62/31 61/63/31 62/64/31
f 63/65/32 64/66/32 65/67/32
f 66/68/33 67/56/33 68/69/33
f 69/70/34 70/71/34 71/72/34
f 72/73/35 73/74/35 74/75/35
f 75/76/36 76/77/36 77/78/36
f 78/79/37 79/80/37 80/57/37
f 63/81/38 57/81/38 59/82/38 64/82/38
f 227/83/39 60/62/39 62/64/39 228/84/39
f 61/85/40 66/85/40 68/54/40 62/54/40
f 229/55/41 65/67/41 64/66/41 230/86/41
f 75/76/42 63/65/42 65/67/42 76/77/42
f 66/68/43 78/79/43 80/57/43 67/56/43
f 231/87/44 77/78/44 76/77/44 232/58/44
f 69/88/45 75/88/45 77/89/45 70/89/45
f 78/90/46 72/90/46 74/52/46 79/52/46
f 233/91/47 71/72/47 70/71/47 234/92/47
f 61/93/6 60/94/6 83/94/6 84/93/6
f 227/95/6 58/96/6 82/96/6 235/95/6
f 63/97/8 75/98/8 69/98/8 57/97/8
f 236/99/48 88/100/48 83/101/48 235/102/48
f 81/81/49 86/88/49 85/103/49 82/104/49
f 87/90/50 84/85/50 83/101/50 88/100/50
f 57/97/8 69/98/8 86/98/8 81/97/8
f 233/105/51 73/106/51 88/106/51 236/105/51
f 73/106/2 72/107/2 87/107/2 88/106/2
f 58/96/6 57/108/6 81/108/6 82/96/6
f 69/109/2 71/110/2 85/110/2 86/109/2
f 99/111/52 100/112/52 89/113/52 90/114/52
f 105/115/53 94/116/53 93/117/53 106/118/53
f 99/119/54 90/120/54 94/120/54 105/119/54
f 93/117/55 94/116/55 114/121/55 113/122/55
f 102/123/56 92/124/56 96/124/56 108/123/56
f 94/120/6 90/120/6 110/125/6 114/125/6
f 89/113/57 100/112/57 106/112/57 93/113/57
f 100/112/58 101/126/58 107/126/58 106/112/58
f 101/126/59 102/123/59 108/123/59 107/126/59
f 91/127/60 97/128/60 103/128/60 95/127/60
f 97/128/61 98/129/61 104/129/61 103/128/61
f 98/129/62 99/119/62 105/119/62 104/129/62
f 95/130/63 103/131/63 108/132/63 96/133/63
f 103/131/64 104/134/64 107/135/64 108/132/64
f 104/134/65 105/115/65 106/118/65 107/135/65
f 91/136/66 92/124/66 102/123/66 97/137/66
f 97/137/67 102/123/67 101/126/67 98/138/67
f 98/138/68 101/126/68 100/112/68 99/111/68
f 110/139/8 109/140/8 113/140/8 114/139/8
f 112/141/8 111/142/8 115/142/8 116/141/8
f 96/124/6 92/124/6 112/141/6 116/141/6
f 90/114/69 89/113/69 109/140/69 110/139/69
f 91/127/2 95/127/2 115/143/2 111/143/2
f 95/130/70 96/133/70 116/144/70 115/145/70
f 92/124/71 91/136/71 111/142/71 112/141/71
f 89/113/2 93/113/2 113/140/2 109/140/2
f 121/146/72 119/146/72 144/146/72 146/146/72
f 124/147/73 126/148/73 151/148/73 149/147/73
f 125/146/74 123/146/74 148/146/74 150/146/74
f 128/149/75 130/150/75 155/150/75 153/149/75
f 129/146/76 127/146/76 152/146/76 154/146/76
f 118/151/77 120/152/77 145/152/77 143/151/77
f 118/153/78 132/154/78 140/155/78 133/156/78
f 132/157/79 118/151/79 143/151/79 157/157/79
f 122/158/80 124/147/80 149/147/80 147/158/80
f 128/159/81 126/160/81 137/161/81 138/162/81
f 120/163/82 118/153/82 133/156/82 134/164/82
f 124/165/83 122/166/83 135/167/83 136/168/83
f 130/169/84 128/159/84 138/162/84 139/170/84
f 126/160/85 124/165/85 136/168/85 137/161/85
f 132/154/86 130/169/86 139/170/86 140/155/86
f 122/166/87 120/163/87 134/164/87 135/167/87
f 135/167/88 134/164/88 141/171/88
f 140/155/89 139/170/89 141/171/89
f 138/162/90 137/161/90 141/171/90
f 136/168/91 135/167/91 141/171/91
f 134/164/92 133/156/92 141/171/92
f 133/156/93 140/155/93 141/171/93
f 139/170/94 138/162/94 141/171/94
f 137/161/95 136/168/95 141/171/95
f 142/172/96 143/172/96 145/173/96 144/173/96
f 144/173/97 145/173/97 147/174/97 146/174/97
f 146/174/98 147/174/98 149/175/98 148/175/98
f 148/175/99 149/175/99 151/176/99 150/176/99
f 150/176/100 151/176/100 153/177/100 152/177/100
f 152/177/101 153/177/101 155/178/101 154/178/101
f 154/178/102 155/178/102 157/179/102 156/179/102
f 156/179/103 157/179/103 143/172/103 142/172/103
f 131/146/104 129/146/104 154/146/104 156/146/104
f 120/152/105 122/158/105 147/158/105 145/152/105
f 130/150/106 132/157/106 157/157/106 155/150/106
f 127/146/107 125/146/107 150/146/107 152/146/107
f 126/148/108 128/149/108 153/149/108 151/148/108
f 123/146/109 121/146/109 146/146/109 148/146/109
f 117/146/110 131/146/110 156/146/110 142/146/110
f 119/146/111 117/146/111 142/146/111 144/146/111
f 168/111/52 169/112/52 158/113/52 159/114/52
f 174/115/53 163/116/53 162/117/53 175/118/53
f 168/119/54 159/120/54 163/120/54 174/119/54
f 162/117/55 163/116/55 183/121/55 182/122/55
f 171/123/56 161/124/56 165/124/56 177/123/56
f 163/120/6 159/120/6 179/125/6 183/125/6
f 158/113/57 169/112/57 175/112/57 162/113/57
f 169/112/58 170/126/58 176/126/58 175/112/58
f 170/126/59 171/123/59 177/123/59 176/126/59
f 160/127/60 166/128/60 172/128/60 164/127/60
f 166/128/61 167/129/61 173/129/61 172/128/61
f 167/129/62 168/119/62 174/119/62 173/129/62
f 164/130/63 172/131/63 177/132/63 165/133/63
f 172/131/64 173/134/64 176/135/64 177/132/64
f 173/134/65 174/115/65 175/118/65 176/135/65
f 160/136/66 161/124/66 171/123/66 166/137/66
f 166/137/67 171/123/67 170/126/67 167/138/67
f 167/138/68 170/126/68 169/112/68 168/111/68
f 179/139/8 178/140/8 182/140/8 183/139/8
f 181/141/8 180/142/8 184/142/8 185/141/8
f 165/124/6 161/124/6 181/141/6 185/141/6
f 159/114/69 158/113/69 178/140/69 179/139/69
f 160/127/2 164/127/2 184/143/2 180/143/2
f 164/130/70 165/133/70 185/144/70 184/145/70
f 161/124/71 160/136/71 180/142/71 181/141/71
f 158/113/2 162/113/2 182/140/2 178/140/2
f 190/146/72 188/146/72 213/146/72 215/146/72
f 193/147/73 195/148/73 220/148/73 218/147/73
f 194/146/74 192/146/74 217/146/74 219/146/74
f 197/149/75 199/150/75 224/150/75 222/149/75
f 198/146/76 196/146/76 221/146/76 223/146/76
f 187/151/77 189/152/77 214/152/77 212/151/77
f 187/180/78 201/181/78 209/182/78 202/183/78
f 201/157/79 187/151/79 212/151/79 226/157/79
f 191/158/80 193/147/80 218/147/80 216/158/80
f 197/184/81 195/185/81 206/186/81 207/187/81
f 189/188/82 187/180/82 202/183/82 203/189/82
f 193/190/83 191/191/83 204/192/83 205/193/83
f 199/194/84 197/184/84 207/187/84 208/195/84
f 195/185/85 193/190/85 205/193/85 206/186/85
f 201/181/86 199/194/86 208/195/86 209/182/86
f 191/191/87 189/188/87 203/189/87 204/192/87
f 204/192/88 203/189/88 210/196/88
f 209/182/89 208/195/89 210/196/89
f 207/187/90 206/186/90 210/196/90
f 205/193/91 204/192/91 210/196/91
f 203/189/92 202/183/92 210/196/92
f 202/183/93 209/182/93 210/196/93
f 208/195/94 207/187/94 210/196/94
f 206/186/95 205/193/95 210/196/95
f 211/172/96 212/172/96 214/173/96 213/173/96
f 213/173/97 214/173/97 216/174/97 215/174/97
f 215/174/98 216/174/98 218/175/98 217/175/98
f 217/175/99 218/175/99 220/176/99 219/176/99
f 219/176/100 220/176/100 222/177/100 221/177/100
f 221/177/101 222/177/101 224/178/101 223/178/101
f 223/178/102 224/178/102 226/179/102 225/179/102
f 225/179/103 226/179/103 212/172/103 211/172/103
f 200/146/104 198/146/104 223/146/104 225/146/104
f 189/152/105 191/158/105 216/158/105 214/152/105
f 199/150/106 201/157/106 226/157/106 224/150/106
f 196/146/107 194/146/107 219/146/107 221/146/107
f 195/148/108 197/149/108 222/149/108 220/148/108
f 192/146/109 190/146/109 215/146/109 217/146/109
f 186/146/110 200/146/110 225/146/110 211/146/110
f 188/146/111 186/146/111 211/146/111 213/146/111
f 71/110/2 233/105/2 236/105/2 85/110/2
f 85/103/112 236/99/112 235/102/112 82/104/112
f 60/94/113 227/95/113 235/95/113 83/94/113
f 73/74/114 233/91/114 234/92/114 74/75/114
f 79/80/115 231/87/115 232/58/115 80/57/115
f 67/56/116 229/55/116 230/86/116 68/69/116
f 58/60/117 227/83/117 228/84/117 59/61/117
f 65/67/118 229/55/118 232/58/118 76/77/118
f 59/82/6 228/53/6 230/53/6 64/82/6
f 77/89/2 231/51/2 234/51/2 70/89/2
