# Blender 5.1.0
# www.blender.org
mtllib trash_can001.mtl
o trash_can.001
v -1.944026 2.617625 0.073666
v -1.967159 2.541042 0.073666
v -1.978725 2.502751 0.004384
v -1.967159 2.541042 -0.064898
v -1.944026 2.617625 -0.064898
v -1.932460 2.655916 0.004384
v -1.794023 2.556152 0.073666
v -1.830911 2.485164 0.073666
v -1.849355 2.449670 0.004384
v -1.830911 2.485164 -0.064898
v -1.794023 2.556152 -0.064898
v -1.775579 2.591646 0.004384
v -1.516359 2.342829 0.073666
v -1.574390 2.287761 0.073666
v -1.603405 2.260227 0.004384
v -1.574390 2.287761 -0.064898
v -1.516359 2.342829 -0.064898
v -1.487344 2.370363 0.004384
v -1.386307 2.174186 0.073666
v -1.465524 2.163028 0.073666
v -1.505134 2.157449 0.004384
v -1.465524 2.163028 -0.064898
v -1.386307 2.174186 -0.064898
v -1.346697 2.179765 0.004384
v -1.386307 1.835640 0.073666
v -1.465524 1.835640 0.073666
v -1.505134 1.835640 0.004384
v -1.465524 1.835640 -0.064898
v -1.386307 1.835640 -0.064898
v -1.346697 1.835640 0.004384
v -1.386307 -0.019454 0.073666
v -1.465524 -0.019454 0.073666
v -1.505134 -0.019454 0.004384
v -1.465524 -0.019454 -0.064898
v -1.386307 -0.019454 -0.064898
v -1.346697 -0.019454 0.004384
v -1.664381 1.461795 0.023402
v -1.664381 1.509424 0.023402
v -1.664381 1.461795 -0.023404
v -1.664381 1.509424 -0.023404
v -1.416829 1.461795 0.023402
v -1.416829 1.509424 0.023402
v -1.416829 1.461795 -0.023404
v -1.416829 1.509424 -0.023404
v -2.167695 2.617624 0.073666
v -2.167695 2.541041 0.073666
v -2.167695 2.502750 0.004384
v -2.167695 2.541041 -0.064898
v -2.167695 2.617624 -0.064898
v -2.167695 2.655915 0.004384
v -2.391363 2.617625 0.073666
v -2.368231 2.541042 0.073666
v -2.356664 2.502751 0.004384
v -2.368231 2.541042 -0.064898
v -2.391363 2.617625 -0.064898
v -2.402930 2.655916 0.004384
v -2.541366 2.556152 0.073666
v -2.504478 2.485164 0.073666
v -2.486034 2.449670 0.004384
v -2.504478 2.485164 -0.064898
v -2.541366 2.556152 -0.064898
v -2.559810 2.591646 0.004384
v -2.819030 2.342829 0.073666
v -2.760999 2.287761 0.073666
v -2.731984 2.260227 0.004384
v -2.760999 2.287761 -0.064898
v -2.819030 2.342829 -0.064898
v -2.848045 2.370363 0.004384
v -2.949083 2.174186 0.073666
v -2.869865 2.163028 0.073666
v -2.830256 2.157449 0.004384
v -2.869865 2.163028 -0.064898
v -2.949083 2.174186 -0.064898
v -2.988692 2.179765 0.004384
v -2.949083 1.835640 0.073666
v -2.869865 1.835640 0.073666
v -2.830256 1.835640 0.004384
v -2.869865 1.835640 -0.064898
v -2.949083 1.835640 -0.064898
v -2.988692 1.835640 0.004384
v -2.949083 -0.019454 0.073666
v -2.869865 -0.019454 0.073666
v -2.830256 -0.019454 0.004384
v -2.869865 -0.019454 -0.064898
v -2.949083 -0.019454 -0.064898
v -2.988692 -0.019454 0.004384
v -2.789248 -0.087222 0.206395
v -2.789248 0.017226 0.206395
v -2.789248 -0.087222 -0.206397
v -2.789248 0.017226 -0.206397
v -3.038474 -0.087222 0.206395
v -3.038474 0.017226 0.206395
v -3.038474 -0.087222 -0.206397
v -3.038474 0.017226 -0.206397
v -2.671008 1.461795 0.023402
v -2.671008 1.509424 0.023402
v -2.671008 1.461795 -0.023404
v -2.671008 1.509424 -0.023404
v -2.918561 1.461795 0.023402
v -2.918561 1.509424 0.023402
v -2.918561 1.461795 -0.023404
v -2.918561 1.509424 -0.023404
v -2.180486 0.392662 -0.476129
v -2.180486 1.773045 -0.700368
v -1.776959 0.392662 -0.243153
v -1.582763 1.773045 -0.355272
v -1.776959 0.392662 0.222800
v -1.582763 1.773045 0.334919
v -2.180486 0.392662 0.455777
v -2.180486 1.773045 0.680015
v -2.584013 0.392662 0.222800
v -2.778209 1.773045 0.334919
v -2.584013 0.392662 -0.243153
v -2.778209 1.773045 -0.355272
v -2.180486 1.773045 -0.576147
v -1.690342 1.773045 -0.293161
v -1.690342 1.773045 0.272809
v -2.180486 1.773045 0.555794
v -2.670631 1.773045 0.272809
v -2.670631 1.773045 -0.293161
v -2.180486 1.314487 -0.522368
v -1.736916 1.314487 -0.266272
v -1.736916 1.314487 0.245919
v -2.180486 1.314487 0.502015
v -2.624057 1.314487 0.245919
v -2.624057 1.314487 -0.266272
v -2.180486 0.519924 -0.379422
v -1.860710 0.519924 -0.194799
v -1.860710 0.519924 0.174447
v -2.180486 0.519924 0.359070
v -2.500263 0.519924 0.174447
v -2.500263 0.519924 -0.194799
v -2.180486 0.697298 -0.592021
v -1.676594 0.697298 -0.301099
v -1.676594 0.697298 0.280746
v -2.180486 0.697298 0.571668
v -2.684378 0.697298 0.280746
v -2.684378 0.697298 -0.301099
v -2.180486 1.652951 -0.647521
v -1.628529 1.652951 -0.328849
v -1.628529 1.652951 0.308496
v -2.180486 1.652951 0.627169
v -2.732443 1.652951 0.308496
v -2.732443 1.652951 -0.328849
v -1.944026 2.617625 0.073666
v -1.967159 2.541042 0.073666
v -1.978725 2.502751 0.004384
v -1.967159 2.541042 -0.064898
v -1.944026 2.617625 -0.064898
v -1.932460 2.655916 0.004384
v -1.794023 2.556152 0.073666
v -1.830911 2.485164 0.073666
v -1.849355 2.449670 0.004384
v -1.830911 2.485164 -0.064898
v -1.794023 2.556152 -0.064898
v -1.775579 2.591646 0.004384
v -1.516359 2.342829 0.073666
v -1.574390 2.287761 0.073666
v -1.603405 2.260227 0.004384
v -1.574390 2.287761 -0.064898
v -1.516359 2.342829 -0.064898
v -1.487344 2.370363 0.004384
v -1.386307 2.174186 0.073666
v -1.465524 2.163028 0.073666
v -1.505134 2.157449 0.004384
v -1.465524 2.163028 -0.064898
v -1.386307 2.174186 -0.064898
v -1.346697 2.179765 0.004384
v -1.386307 1.835640 0.073666
v -1.465524 1.835640 0.073666
v -1.505134 1.835640 0.004384
v -1.465524 1.835640 -0.064898
v -1.386307 1.835640 -0.064898
v -1.346697 1.835640 0.004384
v -1.386307 -0.019454 0.073666
v -1.465524 -0.019454 0.073666
v -1.505134 -0.019454 0.004384
v -1.465524 -0.019454 -0.064898
v -1.386307 -0.019454 -0.064898
v -1.346697 -0.019454 0.004384
v -2.167695 2.617624 0.073666
v -2.167695 2.541041 0.073666
v -2.167695 2.502750 0.004384
v -2.167695 2.541041 -0.064898
v -2.167695 2.617624 -0.064898
v -2.167695 2.655915 0.004384
v -2.391363 2.617625 0.073666
v -2.368231 2.541042 0.073666
v -2.356664 2.502751 0.004384
v -2.368231 2.541042 -0.064898
v -2.391363 2.617625 -0.064898
v -2.402930 2.655916 0.004384
v -2.541366 2.556152 0.073666
v -2.504478 2.485164 0.073666
v -2.486034 2.449670 0.004384
v -2.504478 2.485164 -0.064898
v -2.541366 2.556152 -0.064898
v -2.559810 2.591646 0.004384
v -2.819030 2.342829 0.073666
v -2.760999 2.287761 0.073666
v -2.731984 2.260227 0.004384
v -2.760999 2.287761 -0.064898
v -2.819030 2.342829 -0.064898
v -2.848045 2.370363 0.004384
v -2.949083 2.174186 0.073666
v -2.869865 2.163028 0.073666
v -2.830256 2.157449 0.004384
v -2.869865 2.163028 -0.064898
v -2.949083 2.174186 -0.064898
v -2.988692 2.179765 0.004384
v -2.949083 1.835640 0.073666
v -2.869865 1.835640 0.073666
v -2.830256 1.835640 0.004384
v -2.869865 1.835640 -0.064898
v -2.949083 1.835640 -0.064898
v -2.988692 1.835640 0.004384
v -2.949083 -0.019454 0.073666
v -2.869865 -0.019454 0.073666
v -2.830256 -0.019454 0.004384
v -2.869865 -0.019454 -0.064898
v -2.949083 -0.019454 -0.064898
v -2.988692 -0.019454 0.004384
v -0.017192 1.461795 0.023402
v -0.017192 1.509424 0.023402
v -0.017192 1.461795 -0.023404
v -0.017192 1.509424 -0.023404
v 0.230361 1.461795 0.023402
v 0.230361 1.509424 0.023402
v 0.230361 1.461795 -0.023404
v 0.230361 1.509424 -0.023404
v -1.023819 1.461795 0.023402
v -1.023819 1.509424 0.023402
v -1.023819 1.461795 -0.023404
v -1.023819 1.509424 -0.023404
v -1.271371 1.461795 0.023402
v -1.271371 1.509424 0.023402
v -1.271371 1.461795 -0.023404
v -1.271371 1.509424 -0.023404
v -0.533297 0.392662 -0.476129
v -0.533297 1.773045 -0.700368
v -0.129770 0.392662 -0.243153
v 0.064426 1.773045 -0.355272
v -0.129770 0.392662 0.222800
v 0.064426 1.773045 0.334919
v -0.533297 0.392662 0.455777
v -0.533297 1.773045 0.680015
v -0.936824 0.392662 0.222800
v -1.131020 1.773045 0.334919
v -0.936824 0.392662 -0.243153
v -1.131020 1.773045 -0.355272
v -0.533297 1.773045 -0.576147
v -0.043153 1.773045 -0.293161
v -0.043153 1.773045 0.272809
v -0.533297 1.773045 0.555794
v -1.023442 1.773045 0.272809
v -1.023442 1.773045 -0.293161
v -0.533297 1.314487 -0.522368
v -0.089726 1.314487 -0.266272
v -0.089726 1.314487 0.245919
v -0.533297 1.314487 0.502015
v -0.976868 1.314487 0.245919
v -0.976868 1.314487 -0.266272
v -0.533297 0.519924 -0.379422
v -0.213520 0.519924 -0.194799
v -0.213520 0.519924 0.174447
v -0.533297 0.519924 0.359070
v -0.853074 0.519924 0.174447
v -0.853074 0.519924 -0.194799
v -0.533297 0.697298 -0.592021
v -0.029405 0.697298 -0.301099
v -0.029405 0.697298 0.280746
v -0.533297 0.697298 0.571668
v -1.037189 0.697298 0.280746
v -1.037189 0.697298 -0.301099
v -0.533297 1.652951 -0.647521
v 0.018660 1.652951 -0.328849
v 0.018660 1.652951 0.308496
v -0.533297 1.652951 0.627169
v -1.085254 1.652951 0.308496
v -1.085254 1.652951 -0.328849
v -0.296837 2.617625 0.073666
v -0.319969 2.541042 0.073666
v -0.331536 2.502751 0.004384
v -0.319969 2.541042 -0.064898
v -0.296837 2.617625 -0.064898
v -0.285270 2.655916 0.004384
v -0.146834 2.556152 0.073666
v -0.183722 2.485164 0.073666
v -0.202166 2.449670 0.004384
v -0.183722 2.485164 -0.064898
v -0.146834 2.556152 -0.064898
v -0.128390 2.591646 0.004384
v 0.130830 2.342829 0.073666
v 0.072799 2.287761 0.073666
v 0.043784 2.260227 0.004384
v 0.072799 2.287761 -0.064898
v 0.130830 2.342829 -0.064898
v 0.159845 2.370363 0.004384
v 0.260883 2.174186 0.073666
v 0.181665 2.163028 0.073666
v 0.142056 2.157449 0.004384
v 0.181665 2.163028 -0.064898
v 0.260883 2.174186 -0.064898
v 0.300492 2.179765 0.004384
v 0.260883 1.835640 0.073666
v 0.181665 1.835640 0.073666
v 0.142056 1.835640 0.004384
v 0.181665 1.835640 -0.064898
v 0.260883 1.835640 -0.064898
v 0.300492 1.835640 0.004384
v 0.260883 -0.019454 0.073666
v 0.181665 -0.019454 0.073666
v 0.142056 -0.019454 0.004384
v 0.181665 -0.019454 -0.064898
v 0.260883 -0.019454 -0.064898
v 0.300492 -0.019454 0.004384
v -0.520505 2.617624 0.073666
v -0.520505 2.541041 0.073666
v -0.520505 2.502750 0.004384
v -0.520505 2.541041 -0.064898
v -0.520505 2.617624 -0.064898
v -0.520505 2.655915 0.004384
v -0.744174 2.617625 0.073666
v -0.721041 2.541042 0.073666
v -0.709475 2.502751 0.004384
v -0.721041 2.541042 -0.064898
v -0.744174 2.617625 -0.064898
v -0.755740 2.655916 0.004384
v -0.894177 2.556152 0.073666
v -0.857289 2.485164 0.073666
v -0.838845 2.449670 0.004384
v -0.857289 2.485164 -0.064898
v -0.894177 2.556152 -0.064898
v -0.912621 2.591646 0.004384
v -1.171841 2.342829 0.073666
v -1.113810 2.287761 0.073666
v -1.084795 2.260227 0.004384
v -1.113810 2.287761 -0.064898
v -1.171841 2.342829 -0.064898
v -1.200856 2.370363 0.004384
v -1.301893 2.174186 0.073666
v -1.222676 2.163028 0.073666
v -1.183066 2.157449 0.004384
v -1.222676 2.163028 -0.064898
v -1.301893 2.174186 -0.064898
v -1.341503 2.179765 0.004384
v -1.301893 1.835640 0.073666
v -1.222676 1.835640 0.073666
v -1.183066 1.835640 0.004384
v -1.222676 1.835640 -0.064898
v -1.301893 1.835640 -0.064898
v -1.341503 1.835640 0.004384
v -1.301893 -0.019454 0.073666
v -1.222676 -0.019454 0.073666
v -1.183066 -0.019454 0.004384
v -1.222676 -0.019454 -0.064898
v -1.301893 -0.019454 -0.064898
v -1.341503 -0.019454 0.004384
v 1.629997 1.461795 0.023402
v 1.629997 1.509424 0.023402
v 1.629997 1.461795 -0.023404
v 1.629997 1.509424 -0.023404
v 1.877550 1.461795 0.023402
v 1.877550 1.509424 0.023402
v 1.877550 1.461795 -0.023404
v 1.877550 1.509424 -0.023404
v 0.623370 1.461795 0.023402
v 0.623370 1.509424 0.023402
v 0.623370 1.461795 -0.023404
v 0.623370 1.509424 -0.023404
v 0.375818 1.461795 0.023402
v 0.375818 1.509424 0.023402
v 0.375818 1.461795 -0.023404
v 0.375818 1.509424 -0.023404
v 1.113892 0.392662 -0.476129
v 1.113892 1.773045 -0.700368
v 1.517419 0.392662 -0.243153
v 1.711615 1.773045 -0.355272
v 1.517419 0.392662 0.222800
v 1.711615 1.773045 0.334919
v 1.113892 0.392662 0.455777
v 1.113892 1.773045 0.680015
v 0.710365 0.392662 0.222800
v 0.516169 1.773045 0.334919
v 0.710365 0.392662 -0.243153
v 0.516169 1.773045 -0.355272
v 1.113892 1.773045 -0.576147
v 1.604037 1.773045 -0.293161
v 1.604037 1.773045 0.272809
v 1.113892 1.773045 0.555794
v 0.623748 1.773045 0.272809
v 0.623748 1.773045 -0.293161
v 1.113892 1.314487 -0.522368
v 1.557463 1.314487 -0.266272
v 1.557463 1.314487 0.245919
v 1.113892 1.314487 0.502015
v 0.670321 1.314487 0.245919
v 0.670321 1.314487 -0.266272
v 1.113892 0.519924 -0.379422
v 1.433669 0.519924 -0.194799
v 1.433669 0.519924 0.174447
v 1.113892 0.519924 0.359070
v 0.794116 0.519924 0.174447
v 0.794116 0.519924 -0.194799
v 1.113892 0.697298 -0.592021
v 1.617784 0.697298 -0.301099
v 1.617784 0.697298 0.280746
v 1.113892 0.697298 0.571668
v 0.610000 0.697298 0.280746
v 0.610000 0.697298 -0.301099
v 1.113892 1.652951 -0.647521
v 1.665849 1.652951 -0.328849
v 1.665849 1.652951 0.308496
v 1.113892 1.652951 0.627169
v 0.561935 1.652951 0.308496
v 0.561935 1.652951 -0.328849
v 1.350352 2.617625 0.073666
v 1.327220 2.541042 0.073666
v 1.315653 2.502751 0.004384
v 1.327220 2.541042 -0.064898
v 1.350352 2.617625 -0.064898
v 1.361919 2.655916 0.004384
v 1.500355 2.556152 0.073666
v 1.463467 2.485164 0.073666
v 1.445023 2.449670 0.004384
v 1.463467 2.485164 -0.064898
v 1.500355 2.556152 -0.064898
v 1.518799 2.591646 0.004384
v 1.778019 2.342829 0.073666
v 1.719988 2.287761 0.073666
v 1.690973 2.260227 0.004384
v 1.719988 2.287761 -0.064898
v 1.778019 2.342829 -0.064898
v 1.807034 2.370363 0.004384
v 1.908072 2.174186 0.073666
v 1.828854 2.163028 0.073666
v 1.789245 2.157449 0.004384
v 1.828854 2.163028 -0.064898
v 1.908072 2.174186 -0.064898
v 1.947681 2.179765 0.004384
v 1.908072 1.835640 0.073666
v 1.828854 1.835640 0.073666
v 1.789245 1.835640 0.004384
v 1.828854 1.835640 -0.064898
v 1.908072 1.835640 -0.064898
v 1.947681 1.835640 0.004384
v 1.908072 -0.019454 0.073666
v 1.828854 -0.019454 0.073666
v 1.789245 -0.019454 0.004384
v 1.828854 -0.019454 -0.064898
v 1.908072 -0.019454 -0.064898
v 1.947681 -0.019454 0.004384
v 1.126684 2.617624 0.073666
v 1.126684 2.541041 0.073666
v 1.126684 2.502750 0.004384
v 1.126684 2.541041 -0.064898
v 1.126684 2.617624 -0.064898
v 1.126684 2.655915 0.004384
v 0.903015 2.617625 0.073666
v 0.926148 2.541042 0.073666
v 0.937714 2.502751 0.004384
v 0.926148 2.541042 -0.064898
v 0.903015 2.617625 -0.064898
v 0.891449 2.655916 0.004384
v 0.753012 2.556152 0.073666
v 0.789900 2.485164 0.073666
v 0.808344 2.449670 0.004384
v 0.789900 2.485164 -0.064898
v 0.753012 2.556152 -0.064898
v 0.734568 2.591646 0.004384
v 0.475349 2.342829 0.073666
v 0.533379 2.287761 0.073666
v 0.562394 2.260227 0.004384
v 0.533379 2.287761 -0.064898
v 0.475349 2.342829 -0.064898
v 0.446333 2.370363 0.004384
v 0.345296 2.174186 0.073666
v 0.424514 2.163028 0.073666
v 0.464123 2.157449 0.004384
v 0.424514 2.163028 -0.064898
v 0.345296 2.174186 -0.064898
v 0.305687 2.179765 0.004384
v 0.345296 1.835640 0.073666
v 0.424514 1.835640 0.073666
v 0.464123 1.835640 0.004384
v 0.424514 1.835640 -0.064898
v 0.345296 1.835640 -0.064898
v 0.305687 1.835640 0.004384
v 0.345296 -0.019454 0.073666
v 0.424514 -0.019454 0.073666
v 0.464123 -0.019454 0.004384
v 0.424514 -0.019454 -0.064898
v 0.345296 -0.019454 -0.064898
v 0.305687 -0.019454 0.004384
v 3.267323 1.461795 0.023402
v 3.267323 1.509424 0.023402
v 3.267323 1.461795 -0.023404
v 3.267323 1.509424 -0.023404
v 3.514875 1.461795 0.023402
v 3.514875 1.509424 0.023402
v 3.514875 1.461795 -0.023404
v 3.514875 1.509424 -0.023404
v 2.260695 1.461795 0.023402
v 2.260695 1.509424 0.023402
v 2.260695 1.461795 -0.023404
v 2.260695 1.509424 -0.023404
v 2.013143 1.461795 0.023402
v 2.013143 1.509424 0.023402
v 2.013143 1.461795 -0.023404
v 2.013143 1.509424 -0.023404
v 2.751217 0.392662 -0.476129
v 2.751217 1.773045 -0.700368
v 3.154745 0.392662 -0.243153
v 3.348940 1.773045 -0.355272
v 3.154745 0.392662 0.222800
v 3.348940 1.773045 0.334919
v 2.751217 0.392662 0.455777
v 2.751217 1.773045 0.680015
v 2.347690 0.392662 0.222800
v 2.153494 1.773045 0.334919
v 2.347690 0.392662 -0.243153
v 2.153494 1.773045 -0.355272
v 2.751217 1.773045 -0.576147
v 3.241362 1.773045 -0.293161
v 3.241362 1.773045 0.272809
v 2.751217 1.773045 0.555794
v 2.261073 1.773045 0.272809
v 2.261073 1.773045 -0.293161
v 2.751217 1.314487 -0.522368
v 3.194788 1.314487 -0.266272
v 3.194788 1.314487 0.245919
v 2.751217 1.314487 0.502015
v 2.307647 1.314487 0.245919
v 2.307647 1.314487 -0.266272
v 2.751217 0.519924 -0.379422
v 3.070994 0.519924 -0.194799
v 3.070994 0.519924 0.174447
v 2.751217 0.519924 0.359070
v 2.431441 0.519924 0.174447
v 2.431441 0.519924 -0.194799
v 2.751217 0.697298 -0.592021
v 3.255109 0.697298 -0.301099
v 3.255109 0.697298 0.280746
v 2.751217 0.697298 0.571668
v 2.247325 0.697298 0.280746
v 2.247325 0.697298 -0.301099
v 2.751217 1.652951 -0.647521
v 3.303174 1.652951 -0.328849
v 3.303174 1.652951 0.308496
v 2.751217 1.652951 0.627169
v 2.199260 1.652951 0.308496
v 2.199260 1.652951 -0.328849
v 2.987678 2.617625 0.073666
v 2.964545 2.541042 0.073666
v 2.952979 2.502751 0.004384
v 2.964545 2.541042 -0.064898
v 2.987678 2.617625 -0.064898
v 2.999244 2.655916 0.004384
v 3.137681 2.556152 0.073666
v 3.100792 2.485164 0.073666
v 3.082348 2.449670 0.004384
v 3.100792 2.485164 -0.064898
v 3.137681 2.556152 -0.064898
v 3.156125 2.591646 0.004384
v 3.415344 2.342829 0.073666
v 3.357314 2.287761 0.073666
v 3.328299 2.260227 0.004384
v 3.357314 2.287761 -0.064898
v 3.415344 2.342829 -0.064898
v 3.444360 2.370363 0.004384
v 3.545397 2.174186 0.073666
v 3.466179 2.163028 0.073666
v 3.426570 2.157449 0.004384
v 3.466179 2.163028 -0.064898
v 3.545397 2.174186 -0.064898
v 3.585006 2.179765 0.004384
v 3.545397 1.835640 0.073666
v 3.466179 1.835640 0.073666
v 3.426570 1.835640 0.004384
v 3.466179 1.835640 -0.064898
v 3.545397 1.835640 -0.064898
v 3.585006 1.835640 0.004384
v 3.545397 -0.019454 0.073666
v 3.466179 -0.019454 0.073666
v 3.426570 -0.019454 0.004384
v 3.466179 -0.019454 -0.064898
v 3.545397 -0.019454 -0.064898
v 3.585006 -0.019454 0.004384
v 2.764009 2.617624 0.073666
v 2.764009 2.541041 0.073666
v 2.764009 2.502750 0.004384
v 2.764009 2.541041 -0.064898
v 2.764009 2.617624 -0.064898
v 2.764009 2.655915 0.004384
v 2.540340 2.617625 0.073666
v 2.563473 2.541042 0.073666
v 2.575039 2.502751 0.004384
v 2.563473 2.541042 -0.064898
v 2.540340 2.617625 -0.064898
v 2.528774 2.655916 0.004384
v 2.390337 2.556152 0.073666
v 2.427226 2.485164 0.073666
v 2.445670 2.449670 0.004384
v 2.427226 2.485164 -0.064898
v 2.390337 2.556152 -0.064898
v 2.371893 2.591646 0.004384
v 2.112674 2.342829 0.073666
v 2.170704 2.287761 0.073666
v 2.199719 2.260227 0.004384
v 2.170704 2.287761 -0.064898
v 2.112674 2.342829 -0.064898
v 2.083658 2.370363 0.004384
v 1.982621 2.174186 0.073666
v 2.061839 2.163028 0.073666
v 2.101448 2.157449 0.004384
v 2.061839 2.163028 -0.064898
v 1.982621 2.174186 -0.064898
v 1.943012 2.179765 0.004384
v 1.982621 1.835640 0.073666
v 2.061839 1.835640 0.073666
v 2.101448 1.835640 0.004384
v 2.061839 1.835640 -0.064898
v 1.982621 1.835640 -0.064898
v 1.943012 1.835640 0.004384
v 1.982621 -0.019454 0.073666
v 2.061839 -0.019454 0.073666
v 2.101448 -0.019454 0.004384
v 2.061839 -0.019454 -0.064898
v 1.982621 -0.019454 -0.064898
v 1.943012 -0.019454 0.004384
v 3.639287 -0.087222 0.206395
v 3.639287 0.017226 0.206395
v 3.639287 -0.087222 -0.206397
v 3.639287 0.017226 -0.206397
v 3.390060 -0.087222 0.206395
v 3.390060 0.017226 0.206395
v 3.390060 -0.087222 -0.206397
v 3.390060 0.017226 -0.206397
v 3.552110 -0.087222 0.087070
v 3.552110 0.017226 0.087070
v 3.552110 -0.087222 -0.087072
v 3.552110 0.017226 -0.087072
v -2.831102 -0.087222 0.087070
v -2.831102 0.017226 0.087070
v -2.831102 -0.087222 -0.087072
v -2.831102 0.017226 -0.087072
vn 0.5293 0.6892 0.4948
vn -0.0000 0.8752 0.4837
vn -0.0000 -0.0000 1.0000
vn -0.0000 -0.8752 0.4837
vn -0.0000 -0.8752 -0.4837
vn -0.0000 -0.0000 -1.0000
vn -0.0000 0.8752 -0.4837
vn 0.3287 0.8022 0.4984
vn -0.3290 -0.8021 0.4984
vn -0.3290 -0.8021 -0.4984
vn 0.3287 0.8022 -0.4984
vn -0.5301 -0.6886 0.4948
vn -0.5301 -0.6886 -0.4948
vn 0.5293 0.6892 -0.4948
vn 0.7029 0.5297 0.4747
vn -0.6541 -0.5956 0.4663
vn -0.6541 -0.5956 -0.4663
vn 0.7029 0.5297 -0.4747
vn 0.8681 -0.0000 -0.4963
vn 0.8681 -0.0000 0.4963
vn -0.8681 -0.0000 -0.4963
vn -0.8681 -0.0000 0.4963
vn -1.0000 -0.0000 -0.0000
vn 1.0000 -0.0000 -0.0000
vn -0.0000 -1.0000 -0.0000
vn -0.0000 1.0000 -0.0000
vn -0.5293 0.6892 0.4948
vn -0.3287 0.8022 0.4984
vn 0.3290 -0.8021 0.4984
vn 0.3290 -0.8021 -0.4984
vn -0.3287 0.8022 -0.4984
vn 0.5301 -0.6886 0.4948
vn 0.5301 -0.6886 -0.4948
vn -0.5293 0.6892 -0.4948
vn -0.7029 0.5297 0.4747
vn 0.6541 -0.5956 0.4663
vn 0.6541 -0.5956 -0.4663
vn -0.7029 0.5297 -0.4747
vn 0.4672 -0.3561 -0.8093
vn 0.9344 -0.3561 -0.0000
vn 0.4672 -0.3561 0.8093
vn -0.4672 -0.3561 0.8093
vn -0.9344 -0.3561 -0.0000
vn -0.4672 -0.3561 -0.8093
vn 0.9949 0.1010 -0.0000
vn -0.4974 0.1010 -0.8616
vn -0.4974 0.1010 0.8616
vn 0.4974 0.1010 0.8616
vn 0.4974 0.1010 -0.8616
vn -0.9949 0.1010 -0.0000
vn 0.4940 0.1539 0.8557
vn 0.4940 0.1539 -0.8557
vn -0.9881 0.1539 -0.0000
vn 0.9881 0.1539 -0.0000
vn -0.4940 0.1539 -0.8557
vn -0.4940 0.1539 0.8557
vn -0.4749 -0.3129 -0.8225
vn -0.9498 -0.3129 -0.0000
vn -0.4749 -0.3129 0.8225
vn 0.4749 -0.3129 0.8225
vn 0.9498 -0.3129 -0.0000
vn 0.4749 -0.3129 -0.8225
vn -0.4994 -0.0502 -0.8649
vn -0.9987 -0.0502 -0.0000
vn -0.4994 -0.0502 0.8649
vn 0.4994 -0.0502 0.8649
vn 0.9987 -0.0502 -0.0000
vn 0.4994 -0.0502 -0.8649
vt 0.306275 0.807288
vt 0.331162 0.788168
vt 0.333763 0.790636
vt 0.307928 0.810470
vt 0.272783 0.812798
vt 0.292830 0.812798
vt 0.293867 0.816230
vt 0.272783 0.816230
vt 0.272783 0.805934
vt 0.290757 0.805934
vt 0.272783 0.802502
vt 0.289720 0.802502
vt 0.302969 0.800926
vt 0.301316 0.797744
vt 0.325961 0.783232
vt 0.323360 0.780765
vt 0.342819 0.773053
vt 0.346369 0.773553
vt 0.335718 0.772053
vt 0.332168 0.771553
vt 0.342819 0.742709
vt 0.335718 0.742709
vt 0.346369 0.742709
vt 0.332168 0.742709
vt 0.346369 0.576437
vt 0.342819 0.576437
vt 0.332168 0.576437
vt 0.335718 0.576437
vt 0.317895 0.709201
vt 0.317895 0.713470
vt 0.340083 0.713470
vt 0.340083 0.709201
vt 0.308052 0.586162
vt 0.330240 0.586162
vt 0.330240 0.634725
vt 0.308052 0.634725
vt 0.322300 0.398707
vt 0.322300 0.416381
vt 0.333732 0.398707
vt 0.333732 0.416381
vt 0.332473 0.695128
vt 0.321040 0.695128
vt 0.195825 0.323821
vt 0.195825 0.341744
vt 0.247709 0.341744
vt 0.243736 0.323821
vt 0.243736 0.323821
vt 0.195825 0.323821
vt 0.143942 0.341744
vt 0.147914 0.323821
vt 0.139020 0.422950
vt 0.148358 0.422950
vt 0.147914 0.323821
vt 0.190904 0.216944
vt 0.225931 0.216944
vt 0.190904 0.216944
vt 0.155877 0.216944
vt 0.242787 0.422950
vt 0.190904 0.422950
vt 0.233449 0.422950
vt 0.136054 0.267920
vt 0.140097 0.199486
vt 0.140097 0.199486
vt 0.178600 0.267920
vt 0.221146 0.267920
vt 0.217103 0.199486
vt 0.178600 0.199486
vt 0.178600 0.199486
vt 0.217103 0.199486
vt 0.150843 0.080907
vt 0.178600 0.080907
vt 0.206357 0.080907
vt 0.147165 0.262408
vt 0.190904 0.262408
vt 0.234643 0.262408
vt 0.142993 0.405027
vt 0.190904 0.405027
vt 0.142993 0.405027
vt 0.190904 0.405027
vt 0.238815 0.405027
vt 0.238815 0.405027
vt 0.310929 0.846005
vt 0.323666 0.809907
vt 0.324997 0.814567
vt 0.311775 0.852011
vt 0.293788 0.856407
vt 0.304048 0.856407
vt 0.304578 0.862886
vt 0.293788 0.862886
vt 0.293788 0.843448
vt 0.302987 0.843448
vt 0.293788 0.836968
vt 0.302456 0.836969
vt 0.309237 0.833993
vt 0.308391 0.827986
vt 0.321004 0.800589
vt 0.319673 0.795930
vt 0.329632 0.781371
vt 0.331449 0.782314
vt 0.325998 0.779482
vt 0.324181 0.778538
vt 0.329632 0.724084
vt 0.325998 0.724084
vt 0.331449 0.724084
vt 0.324181 0.724084
vt 0.331449 0.410174
vt 0.329632 0.410174
vt 0.324181 0.410174
vt 0.325998 0.410174
vt 0.071845 0.574679
vt 0.071845 0.602133
vt 0.102427 0.602133
vt 0.100086 0.574679
vt 0.041262 0.602133
vt 0.043604 0.574679
vt 0.038801 0.913206
vt 0.044306 0.913206
vt 0.069384 0.597649
vt 0.090030 0.597649
vt 0.048737 0.597649
vt 0.099966 0.913206
vt 0.069384 0.913206
vt 0.094462 0.913206
vt 0.032002 0.459557
vt 0.034385 0.354730
vt 0.057080 0.459557
vt 0.082158 0.459557
vt 0.079775 0.354730
vt 0.057080 0.354730
vt 0.040719 0.173092
vt 0.057080 0.173092
vt 0.073441 0.173092
vt 0.043602 0.667289
vt 0.069384 0.667289
vt 0.095165 0.667289
vt 0.041143 0.885752
vt 0.069384 0.885752
vt 0.097625 0.885752
vt 0.441064 0.684787
vt 0.441064 0.721849
vt 0.475387 0.721849
vt 0.472759 0.684787
vt 0.406742 0.721849
vt 0.409370 0.684787
vt 0.401820 0.977020
vt 0.407998 0.977020
vt 0.436143 0.551028
vt 0.459315 0.551028
vt 0.412971 0.551028
vt 0.470466 0.977020
vt 0.436143 0.977020
vt 0.464288 0.977020
vt 0.404897 0.554483
vt 0.407572 0.412970
vt 0.433042 0.554483
vt 0.461188 0.554483
vt 0.458513 0.412970
vt 0.433042 0.412970
vt 0.414680 0.167765
vt 0.433042 0.167765
vt 0.451405 0.167765
vt 0.407208 0.645040
vt 0.436143 0.645040
vt 0.465078 0.645040
vt 0.404448 0.939958
vt 0.436143 0.939958
vt 0.467838 0.939958
vt 0.299070 0.590029
vt 0.299070 0.628242
vt 0.336606 0.628242
vt 0.333732 0.590029
vt 0.299070 0.628242
vt 0.299070 0.590029
vt 0.261534 0.628242
vt 0.264408 0.590029
vt 0.267735 0.924211
vt 0.274491 0.924211
vt 0.305271 0.484983
vt 0.330612 0.484983
vt 0.279930 0.484983
vt 0.342807 0.924211
vt 0.305271 0.924210
vt 0.305271 0.924211
vt 0.336051 0.924211
vt 0.274491 0.575626
vt 0.277415 0.429716
vt 0.277415 0.429716
vt 0.305271 0.575626
vt 0.336051 0.575626
vt 0.333126 0.429716
vt 0.305271 0.429716
vt 0.305271 0.575626
vt 0.305271 0.429716
vt 0.333126 0.429716
vt 0.285189 0.176892
vt 0.305271 0.176892
vt 0.325352 0.176892
vt 0.273627 0.581916
vt 0.305271 0.581916
vt 0.305271 0.581916
vt 0.336914 0.581916
vt 0.270609 0.885997
vt 0.305271 0.885997
vt 0.305271 0.885998
vt 0.339933 0.885997
s 0
usemtl Material.001
f 7/1/1 13/2/1 18/3/1 12/4/1
f 45/5/2 1/6/2 6/7/2 50/8/2
f 46/9/3 2/10/3 1/6/3 45/5/3
f 47/11/4 3/12/4 2/10/4 46/9/4
f 48/9/5 4/10/5 3/12/5 47/11/5
f 49/5/6 5/6/6 4/10/6 48/9/6
f 50/8/7 6/7/7 5/6/7 49/5/7
f 1/6/8 7/1/8 12/4/8 6/7/8
f 2/10/3 8/13/3 7/1/3 1/6/3
f 3/12/9 9/14/9 8/13/9 2/10/9
f 4/10/10 10/13/10 9/14/10 3/12/10
f 5/6/6 11/1/6 10/13/6 4/10/6
f 6/7/11 12/4/11 11/1/11 5/6/11
f 8/13/3 14/15/3 13/2/3 7/1/3
f 9/14/12 15/16/12 14/15/12 8/13/12
f 10/13/13 16/15/13 15/16/13 9/14/13
f 11/1/6 17/2/6 16/15/6 10/13/6
f 12/4/14 18/3/14 17/2/14 11/1/14
f 13/2/15 19/17/15 24/18/15 18/3/15
f 14/15/3 20/19/3 19/17/3 13/2/3
f 15/16/16 21/20/16 20/19/16 14/15/16
f 16/15/17 22/19/17 21/20/17 15/16/17
f 17/2/6 23/17/6 22/19/6 16/15/6
f 18/3/18 24/18/18 23/17/18 17/2/18
f 22/19/6 23/17/6 29/21/6 28/22/6
f 19/17/3 20/19/3 26/22/3 25/21/3
f 23/17/19 24/18/19 30/23/19 29/21/19
f 24/18/20 19/17/20 25/21/20 30/23/20
f 21/20/21 22/19/21 28/22/21 27/24/21
f 20/19/22 21/20/22 27/24/22 26/22/22
f 29/21/19 30/23/19 36/25/19 35/26/19
f 26/22/22 27/24/22 33/27/22 32/28/22
f 27/24/21 28/22/21 34/28/21 33/27/21
f 30/23/20 25/21/20 31/26/20 36/25/20
f 28/22/6 29/21/6 35/26/6 34/28/6
f 25/21/3 26/22/3 32/28/3 31/26/3
f 37/29/23 38/30/23 40/30/23 39/29/23
f 39/29/6 40/30/6 44/31/6 43/32/6
f 43/32/24 44/31/24 42/31/24 41/32/24
f 41/32/3 42/31/3 38/30/3 37/29/3
f 39/33/25 43/34/25 41/34/25 37/33/25
f 44/35/26 40/36/26 38/36/26 42/35/26
f 57/1/27 62/4/27 68/3/27 63/2/27
f 45/5/2 50/8/2 56/7/2 51/6/2
f 46/9/3 45/5/3 51/6/3 52/10/3
f 47/11/4 46/9/4 52/10/4 53/12/4
f 48/9/5 47/11/5 53/12/5 54/10/5
f 49/5/6 48/9/6 54/10/6 55/6/6
f 50/8/7 49/5/7 55/6/7 56/7/7
f 51/6/28 56/7/28 62/4/28 57/1/28
f 52/10/3 51/6/3 57/1/3 58/13/3
f 53/12/29 52/10/29 58/13/29 59/14/29
f 54/10/30 53/12/30 59/14/30 60/13/30
f 55/6/6 54/10/6 60/13/6 61/1/6
f 56/7/31 55/6/31 61/1/31 62/4/31
f 58/13/3 57/1/3 63/2/3 64/15/3
f 59/14/32 58/13/32 64/15/32 65/16/32
f 60/13/33 59/14/33 65/16/33 66/15/33
f 61/1/6 60/13/6 66/15/6 67/2/6
f 62/4/34 61/1/34 67/2/34 68/3/34
f 63/2/35 68/3/35 74/18/35 69/17/35
f 64/15/3 63/2/3 69/17/3 70/19/3
f 65/16/36 64/15/36 70/19/36 71/20/36
f 66/15/37 65/16/37 71/20/37 72/19/37
f 67/2/6 66/15/6 72/19/6 73/17/6
f 68/3/38 67/2/38 73/17/38 74/18/38
f 72/19/6 78/22/6 79/21/6 73/17/6
f 69/17/3 75/21/3 76/22/3 70/19/3
f 73/17/21 79/21/21 80/23/21 74/18/21
f 74/18/22 80/23/22 75/21/22 69/17/22
f 71/20/19 77/24/19 78/22/19 72/19/19
f 70/19/20 76/22/20 77/24/20 71/20/20
f 79/21/21 85/26/21 86/25/21 80/23/21
f 76/22/20 82/28/20 83/27/20 77/24/20
f 77/24/19 83/27/19 84/28/19 78/22/19
f 80/23/22 86/25/22 81/26/22 75/21/22
f 78/22/6 84/28/6 85/26/6 79/21/6
f 75/21/3 81/26/3 82/28/3 76/22/3
f 87/37/24 89/37/24 90/38/24 88/38/24
f 89/37/6 93/39/6 94/40/6 90/38/6
f 93/39/23 91/39/23 92/40/23 94/40/23
f 91/39/3 87/37/3 88/38/3 92/40/3
f 89/37/25 87/37/25 91/39/25 93/39/25
f 94/41/26 92/41/26 88/42/26 90/42/26
f 95/29/24 97/29/24 98/30/24 96/30/24
f 97/29/6 101/32/6 102/31/6 98/30/6
f 101/32/23 99/32/23 100/31/23 102/31/23
f 99/32/3 95/29/3 96/30/3 100/31/3
f 97/33/25 95/33/25 99/34/25 101/34/25
f 102/35/26 100/35/26 96/36/26 98/36/26
f 139/43/39 104/44/39 106/45/39 140/46/39
f 140/46/40 106/45/40 108/45/40 141/47/40
f 141/47/41 108/45/41 110/44/41 142/48/41
f 142/48/42 110/44/42 112/49/42 143/50/42
f 114/51/26 112/51/26 119/52/26 120/52/26
f 143/50/43 112/49/43 114/49/43 144/53/43
f 144/53/44 114/49/44 104/44/44 139/43/44
f 103/54/25 105/55/25 107/55/25 109/56/25
f 109/56/25 111/57/25 113/57/25 103/54/25
f 106/58/26 104/59/26 115/59/26 116/60/26
f 110/59/26 108/58/26 117/60/26 118/59/26
f 104/59/26 114/51/26 120/52/26 115/59/26
f 112/51/26 110/59/26 118/59/26 119/52/26
f 108/58/26 106/58/26 116/60/26 117/60/26
f 120/61/45 119/61/45 125/62/45 126/63/45
f 118/64/46 117/65/46 123/66/46 124/67/46
f 116/65/47 115/64/47 121/68/47 122/69/47
f 115/64/48 120/61/48 126/63/48 121/68/48
f 119/61/49 118/64/49 124/67/49 125/62/49
f 117/65/50 116/65/50 122/69/50 123/66/50
f 121/68/51 126/63/51 132/70/51 127/71/51
f 125/62/52 124/67/52 130/71/52 131/70/52
f 123/66/53 122/69/53 128/72/53 129/72/53
f 126/63/54 125/62/54 131/70/54 132/70/54
f 124/67/55 123/66/55 129/72/55 130/71/55
f 122/69/56 121/68/56 127/71/56 128/72/56
f 128/72/26 127/71/26 130/71/26 129/72/26
f 131/70/26 130/71/26 127/71/26 132/70/26
f 113/57/57 138/73/57 133/74/57 103/54/57
f 111/57/58 137/73/58 138/73/58 113/57/58
f 109/56/59 136/74/59 137/73/59 111/57/59
f 107/55/60 135/75/60 136/74/60 109/56/60
f 105/55/61 134/75/61 135/75/61 107/55/61
f 103/54/62 133/74/62 134/75/62 105/55/62
f 138/73/63 144/76/63 139/77/63 133/74/63
f 137/73/64 143/78/64 144/76/64 138/73/64
f 136/74/65 142/79/65 143/78/65 137/73/65
f 135/75/66 141/80/66 142/79/66 136/74/66
f 134/75/67 140/81/67 141/80/67 135/75/67
f 133/74/68 139/77/68 140/81/68 134/75/68
f 151/82/1 157/83/1 162/84/1 156/85/1
f 181/86/2 145/87/2 150/88/2 186/89/2
f 182/90/3 146/91/3 145/87/3 181/86/3
f 183/92/4 147/93/4 146/91/4 182/90/4
f 184/90/5 148/91/5 147/93/5 183/92/5
f 185/86/6 149/87/6 148/91/6 184/90/6
f 186/89/7 150/88/7 149/87/7 185/86/7
f 145/87/8 151/82/8 156/85/8 150/88/8
f 146/91/3 152/94/3 151/82/3 145/87/3
f 147/93/9 153/95/9 152/94/9 146/91/9
f 148/91/10 154/94/10 153/95/10 147/93/10
f 149/87/6 155/82/6 154/94/6 148/91/6
f 150/88/11 156/85/11 155/82/11 149/87/11
f 152/94/3 158/96/3 157/83/3 151/82/3
f 153/95/12 159/97/12 158/96/12 152/94/12
f 154/94/13 160/96/13 159/97/13 153/95/13
f 155/82/6 161/83/6 160/96/6 154/94/6
f 156/85/14 162/84/14 161/83/14 155/82/14
f 157/83/15 163/98/15 168/99/15 162/84/15
f 158/96/3 164/100/3 163/98/3 157/83/3
f 159/97/16 165/101/16 164/100/16 158/96/16
f 160/96/17 166/100/17 165/101/17 159/97/17
f 161/83/6 167/98/6 166/100/6 160/96/6
f 162/84/18 168/99/18 167/98/18 161/83/18
f 166/100/6 167/98/6 173/102/6 172/103/6
f 163/98/3 164/100/3 170/103/3 169/102/3
f 167/98/19 168/99/19 174/104/19 173/102/19
f 168/99/20 163/98/20 169/102/20 174/104/20
f 165/101/21 166/100/21 172/103/21 171/105/21
f 164/100/22 165/101/22 171/105/22 170/103/22
f 173/102/19 174/104/19 180/106/19 179/107/19
f 170/103/22 171/105/22 177/108/22 176/109/22
f 171/105/21 172/103/21 178/109/21 177/108/21
f 174/104/20 169/102/20 175/107/20 180/106/20
f 172/103/6 173/102/6 179/107/6 178/109/6
f 169/102/3 170/103/3 176/109/3 175/107/3
f 193/82/27 198/85/27 204/84/27 199/83/27
f 181/86/2 186/89/2 192/88/2 187/87/2
f 182/90/3 181/86/3 187/87/3 188/91/3
f 183/92/4 182/90/4 188/91/4 189/93/4
f 184/90/5 183/92/5 189/93/5 190/91/5
f 185/86/6 184/90/6 190/91/6 191/87/6
f 186/89/7 185/86/7 191/87/7 192/88/7
f 187/87/28 192/88/28 198/85/28 193/82/28
f 188/91/3 187/87/3 193/82/3 194/94/3
f 189/93/29 188/91/29 194/94/29 195/95/29
f 190/91/30 189/93/30 195/95/30 196/94/30
f 191/87/6 190/91/6 196/94/6 197/82/6
f 192/88/31 191/87/31 197/82/31 198/85/31
f 194/94/3 193/82/3 199/83/3 200/96/3
f 195/95/32 194/94/32 200/96/32 201/97/32
f 196/94/33 195/95/33 201/97/33 202/96/33
f 197/82/6 196/94/6 202/96/6 203/83/6
f 198/85/34 197/82/34 203/83/34 204/84/34
f 199/83/35 204/84/35 210/99/35 205/98/35
f 200/96/3 199/83/3 205/98/3 206/100/3
f 201/97/36 200/96/36 206/100/36 207/101/36
f 202/96/37 201/97/37 207/101/37 208/100/37
f 203/83/6 202/96/6 208/100/6 209/98/6
f 204/84/38 203/83/38 209/98/38 210/99/38
f 208/100/6 214/103/6 215/102/6 209/98/6
f 205/98/3 211/102/3 212/103/3 206/100/3
f 209/98/21 215/102/21 216/104/21 210/99/21
f 210/99/22 216/104/22 211/102/22 205/98/22
f 207/101/19 213/105/19 214/103/19 208/100/19
f 206/100/20 212/103/20 213/105/20 207/101/20
f 215/102/21 221/107/21 222/106/21 216/104/21
f 212/103/20 218/109/20 219/108/20 213/105/20
f 213/105/19 219/108/19 220/109/19 214/103/19
f 216/104/22 222/106/22 217/107/22 211/102/22
f 214/103/6 220/109/6 221/107/6 215/102/6
f 211/102/3 217/107/3 218/109/3 212/103/3
f 223/29/23 224/30/23 226/30/23 225/29/23
f 225/29/6 226/30/6 230/31/6 229/32/6
f 229/32/24 230/31/24 228/31/24 227/32/24
f 227/32/3 228/31/3 224/30/3 223/29/3
f 225/33/25 229/34/25 227/34/25 223/33/25
f 230/35/26 226/36/26 224/36/26 228/35/26
f 231/29/24 233/29/24 234/30/24 232/30/24
f 233/29/6 237/32/6 238/31/6 234/30/6
f 237/32/23 235/32/23 236/31/23 238/31/23
f 235/32/3 231/29/3 232/30/3 236/31/3
f 233/33/25 231/33/25 235/34/25 237/34/25
f 238/35/26 236/35/26 232/36/26 234/36/26
f 275/110/39 240/111/39 242/112/39 276/113/39
f 276/113/40 242/112/40 244/112/40 277/113/40
f 277/113/41 244/112/41 246/111/41 278/110/41
f 278/110/42 246/111/42 248/114/42 279/115/42
f 250/116/26 248/116/26 255/117/26 256/117/26
f 279/115/43 248/114/43 250/114/43 280/115/43
f 280/115/44 250/114/44 240/111/44 275/110/44
f 239/118/25 241/119/25 243/119/25 245/118/25
f 245/118/25 247/120/25 249/120/25 239/118/25
f 242/121/26 240/122/26 251/122/26 252/123/26
f 246/122/26 244/121/26 253/123/26 254/122/26
f 240/122/26 250/116/26 256/117/26 251/122/26
f 248/116/26 246/122/26 254/122/26 255/117/26
f 244/121/26 242/121/26 252/123/26 253/123/26
f 256/124/45 255/124/45 261/125/45 262/125/45
f 254/126/46 253/127/46 259/128/46 260/129/46
f 252/127/47 251/126/47 257/129/47 258/128/47
f 251/126/48 256/124/48 262/125/48 257/129/48
f 255/124/49 254/126/49 260/129/49 261/125/49
f 253/127/50 252/127/50 258/128/50 259/128/50
f 257/129/51 262/125/51 268/130/51 263/131/51
f 261/125/52 260/129/52 266/131/52 267/130/52
f 259/128/53 258/128/53 264/132/53 265/132/53
f 262/125/54 261/125/54 267/130/54 268/130/54
f 260/129/55 259/128/55 265/132/55 266/131/55
f 258/128/56 257/129/56 263/131/56 264/132/56
f 264/132/26 263/131/26 266/131/26 265/132/26
f 267/130/26 266/131/26 263/131/26 268/130/26
f 249/120/57 274/133/57 269/134/57 239/118/57
f 247/120/58 273/133/58 274/133/58 249/120/58
f 245/118/59 272/134/59 273/133/59 247/120/59
f 243/119/60 271/135/60 272/134/60 245/118/60
f 241/119/61 270/135/61 271/135/61 243/119/61
f 239/118/62 269/134/62 270/135/62 241/119/62
f 274/133/63 280/136/63 275/137/63 269/134/63
f 273/133/64 279/136/64 280/136/64 274/133/64
f 272/134/65 278/137/65 279/136/65 273/133/65
f 271/135/66 277/138/66 278/137/66 272/134/66
f 270/135/67 276/138/67 277/138/67 271/135/67
f 269/134/68 275/137/68 276/138/68 270/135/68
f 287/82/1 293/83/1 298/84/1 292/85/1
f 317/86/2 281/87/2 286/88/2 322/89/2
f 318/90/3 282/91/3 281/87/3 317/86/3
f 319/92/4 283/93/4 282/91/4 318/90/4
f 320/90/5 284/91/5 283/93/5 319/92/5
f 321/86/6 285/87/6 284/91/6 320/90/6
f 322/89/7 286/88/7 285/87/7 321/86/7
f 281/87/8 287/82/8 292/85/8 286/88/8
f 282/91/3 288/94/3 287/82/3 281/87/3
f 283/93/9 289/95/9 288/94/9 282/91/9
f 284/91/10 290/94/10 289/95/10 283/93/10
f 285/87/6 291/82/6 290/94/6 284/91/6
f 286/88/11 292/85/11 291/82/11 285/87/11
f 288/94/3 294/96/3 293/83/3 287/82/3
f 289/95/12 295/97/12 294/96/12 288/94/12
f 290/94/13 296/96/13 295/97/13 289/95/13
f 291/82/6 297/83/6 296/96/6 290/94/6
f 292/85/14 298/84/14 297/83/14 291/82/14
f 293/83/15 299/98/15 304/99/15 298/84/15
f 294/96/3 300/100/3 299/98/3 293/83/3
f 295/97/16 301/101/16 300/100/16 294/96/16
f 296/96/17 302/100/17 301/101/17 295/97/17
f 297/83/6 303/98/6 302/100/6 296/96/6
f 298/84/18 304/99/18 303/98/18 297/83/18
f 302/100/6 303/98/6 309/102/6 308/103/6
f 299/98/3 300/100/3 306/103/3 305/102/3
f 303/98/19 304/99/19 310/104/19 309/102/19
f 304/99/20 299/98/20 305/102/20 310/104/20
f 301/101/21 302/100/21 308/103/21 307/105/21
f 300/100/22 301/101/22 307/105/22 306/103/22
f 309/102/19 310/104/19 316/106/19 315/107/19
f 306/103/22 307/105/22 313/108/22 312/109/22
f 307/105/21 308/103/21 314/109/21 313/108/21
f 310/104/20 305/102/20 311/107/20 316/106/20
f 308/103/6 309/102/6 315/107/6 314/109/6
f 305/102/3 306/103/3 312/109/3 311/107/3
f 329/82/27 334/85/27 340/84/27 335/83/27
f 317/86/2 322/89/2 328/88/2 323/87/2
f 318/90/3 317/86/3 323/87/3 324/91/3
f 319/92/4 318/90/4 324/91/4 325/93/4
f 320/90/5 319/92/5 325/93/5 326/91/5
f 321/86/6 320/90/6 326/91/6 327/87/6
f 322/89/7 321/86/7 327/87/7 328/88/7
f 323/87/28 328/88/28 334/85/28 329/82/28
f 324/91/3 323/87/3 329/82/3 330/94/3
f 325/93/29 324/91/29 330/94/29 331/95/29
f 326/91/30 325/93/30 331/95/30 332/94/30
f 327/87/6 326/91/6 332/94/6 333/82/6
f 328/88/31 327/87/31 333/82/31 334/85/31
f 330/94/3 329/82/3 335/83/3 336/96/3
f 331/95/32 330/94/32 336/96/32 337/97/32
f 332/94/33 331/95/33 337/97/33 338/96/33
f 333/82/6 332/94/6 338/96/6 339/83/6
f 334/85/34 333/82/34 339/83/34 340/84/34
f 335/83/35 340/84/35 346/99/35 341/98/35
f 336/96/3 335/83/3 341/98/3 342/100/3
f 337/97/36 336/96/36 342/100/36 343/101/36
f 338/96/37 337/97/37 343/101/37 344/100/37
f 339/83/6 338/96/6 344/100/6 345/98/6
f 340/84/38 339/83/38 345/98/38 346/99/38
f 344/100/6 350/103/6 351/102/6 345/98/6
f 341/98/3 347/102/3 348/103/3 342/100/3
f 345/98/21 351/102/21 352/104/21 346/99/21
f 346/99/22 352/104/22 347/102/22 341/98/22
f 343/101/19 349/105/19 350/103/19 344/100/19
f 342/100/20 348/103/20 349/105/20 343/101/20
f 351/102/21 357/107/21 358/106/21 352/104/21
f 348/103/20 354/109/20 355/108/20 349/105/20
f 349/105/19 355/108/19 356/109/19 350/103/19
f 352/104/22 358/106/22 353/107/22 347/102/22
f 350/103/6 356/109/6 357/107/6 351/102/6
f 347/102/3 353/107/3 354/109/3 348/103/3
f 359/29/23 360/30/23 362/30/23 361/29/23
f 361/29/6 362/30/6 366/31/6 365/32/6
f 365/32/24 366/31/24 364/31/24 363/32/24
f 363/32/3 364/31/3 360/30/3 359/29/3
f 361/33/25 365/34/25 363/34/25 359/33/25
f 366/35/26 362/36/26 360/36/26 364/35/26
f 367/29/24 369/29/24 370/30/24 368/30/24
f 369/29/6 373/32/6 374/31/6 370/30/6
f 373/32/23 371/32/23 372/31/23 374/31/23
f 371/32/3 367/29/3 368/30/3 372/31/3
f 369/33/25 367/33/25 371/34/25 373/34/25
f 374/35/26 372/35/26 368/36/26 370/36/26
f 411/139/39 376/140/39 378/141/39 412/142/39
f 412/142/40 378/141/40 380/141/40 413/142/40
f 413/142/41 380/141/41 382/140/41 414/139/41
f 414/139/42 382/140/42 384/143/42 415/144/42
f 386/145/26 384/145/26 391/146/26 392/146/26
f 415/144/43 384/143/43 386/143/43 416/144/43
f 416/144/44 386/143/44 376/140/44 411/139/44
f 375/147/25 377/148/25 379/148/25 381/147/25
f 381/147/25 383/149/25 385/149/25 375/147/25
f 378/150/26 376/151/26 387/151/26 388/152/26
f 382/151/26 380/150/26 389/152/26 390/151/26
f 376/151/26 386/145/26 392/146/26 387/151/26
f 384/145/26 382/151/26 390/151/26 391/146/26
f 380/150/26 378/150/26 388/152/26 389/152/26
f 392/153/45 391/153/45 397/154/45 398/154/45
f 390/155/46 389/156/46 395/157/46 396/158/46
f 388/156/47 387/155/47 393/158/47 394/157/47
f 387/155/48 392/153/48 398/154/48 393/158/48
f 391/153/49 390/155/49 396/158/49 397/154/49
f 389/156/50 388/156/50 394/157/50 395/157/50
f 393/158/51 398/154/51 404/159/51 399/160/51
f 397/154/52 396/158/52 402/160/52 403/159/52
f 395/157/53 394/157/53 400/161/53 401/161/53
f 398/154/54 397/154/54 403/159/54 404/159/54
f 396/158/55 395/157/55 401/161/55 402/160/55
f 394/157/56 393/158/56 399/160/56 400/161/56
f 400/161/26 399/160/26 402/160/26 401/161/26
f 403/159/26 402/160/26 399/160/26 404/159/26
f 385/149/57 410/162/57 405/163/57 375/147/57
f 383/149/58 409/162/58 410/162/58 385/149/58
f 381/147/59 408/163/59 409/162/59 383/149/59
f 379/148/60 407/164/60 408/163/60 381/147/60
f 377/148/61 406/164/61 407/164/61 379/148/61
f 375/147/62 405/163/62 406/164/62 377/148/62
f 410/162/63 416/165/63 411/166/63 405/163/63
f 409/162/64 415/165/64 416/165/64 410/162/64
f 408/163/65 414/166/65 415/165/65 409/162/65
f 407/164/66 413/167/66 414/166/66 408/163/66
f 406/164/67 412/167/67 413/167/67 407/164/67
f 405/163/68 411/166/68 412/167/68 406/164/68
f 423/82/1 429/83/1 434/84/1 428/85/1
f 453/86/2 417/87/2 422/88/2 458/89/2
f 454/90/3 418/91/3 417/87/3 453/86/3
f 455/92/4 419/93/4 418/91/4 454/90/4
f 456/90/5 420/91/5 419/93/5 455/92/5
f 457/86/6 421/87/6 420/91/6 456/90/6
f 458/89/7 422/88/7 421/87/7 457/86/7
f 417/87/8 423/82/8 428/85/8 422/88/8
f 418/91/3 424/94/3 423/82/3 417/87/3
f 419/93/9 425/95/9 424/94/9 418/91/9
f 420/91/10 426/94/10 425/95/10 419/93/10
f 421/87/6 427/82/6 426/94/6 420/91/6
f 422/88/11 428/85/11 427/82/11 421/87/11
f 424/94/3 430/96/3 429/83/3 423/82/3
f 425/95/12 431/97/12 430/96/12 424/94/12
f 426/94/13 432/96/13 431/97/13 425/95/13
f 427/82/6 433/83/6 432/96/6 426/94/6
f 428/85/14 434/84/14 433/83/14 427/82/14
f 429/83/15 435/98/15 440/99/15 434/84/15
f 430/96/3 436/100/3 435/98/3 429/83/3
f 431/97/16 437/101/16 436/100/16 430/96/16
f 432/96/17 438/100/17 437/101/17 431/97/17
f 433/83/6 439/98/6 438/100/6 432/96/6
f 434/84/18 440/99/18 439/98/18 433/83/18
f 438/100/6 439/98/6 445/102/6 444/103/6
f 435/98/3 436/100/3 442/103/3 441/102/3
f 439/98/19 440/99/19 446/104/19 445/102/19
f 440/99/20 435/98/20 441/102/20 446/104/20
f 437/101/21 438/100/21 444/103/21 443/105/21
f 436/100/22 437/101/22 443/105/22 442/103/22
f 445/102/19 446/104/19 452/106/19 451/107/19
f 442/103/22 443/105/22 449/108/22 448/109/22
f 443/105/21 444/103/21 450/109/21 449/108/21
f 446/104/20 441/102/20 447/107/20 452/106/20
f 444/103/6 445/102/6 451/107/6 450/109/6
f 441/102/3 442/103/3 448/109/3 447/107/3
f 465/82/27 470/85/27 476/84/27 471/83/27
f 453/86/2 458/89/2 464/88/2 459/87/2
f 454/90/3 453/86/3 459/87/3 460/91/3
f 455/92/4 454/90/4 460/91/4 461/93/4
f 456/90/5 455/92/5 461/93/5 462/91/5
f 457/86/6 456/90/6 462/91/6 463/87/6
f 458/89/7 457/86/7 463/87/7 464/88/7
f 459/87/28 464/88/28 470/85/28 465/82/28
f 460/91/3 459/87/3 465/82/3 466/94/3
f 461/93/29 460/91/29 466/94/29 467/95/29
f 462/91/30 461/93/30 467/95/30 468/94/30
f 463/87/6 462/91/6 468/94/6 469/82/6
f 464/88/31 463/87/31 469/82/31 470/85/31
f 466/94/3 465/82/3 471/83/3 472/96/3
f 467/95/32 466/94/32 472/96/32 473/97/32
f 468/94/33 467/95/33 473/97/33 474/96/33
f 469/82/6 468/94/6 474/96/6 475/83/6
f 470/85/34 469/82/34 475/83/34 476/84/34
f 471/83/35 476/84/35 482/99/35 477/98/35
f 472/96/3 471/83/3 477/98/3 478/100/3
f 473/97/36 472/96/36 478/100/36 479/101/36
f 474/96/37 473/97/37 479/101/37 480/100/37
f 475/83/6 474/96/6 480/100/6 481/98/6
f 476/84/38 475/83/38 481/98/38 482/99/38
f 480/100/6 486/103/6 487/102/6 481/98/6
f 477/98/3 483/102/3 484/103/3 478/100/3
f 481/98/21 487/102/21 488/104/21 482/99/21
f 482/99/22 488/104/22 483/102/22 477/98/22
f 479/101/19 485/105/19 486/103/19 480/100/19
f 478/100/20 484/103/20 485/105/20 479/101/20
f 487/102/21 493/107/21 494/106/21 488/104/21
f 484/103/20 490/109/20 491/108/20 485/105/20
f 485/105/19 491/108/19 492/109/19 486/103/19
f 488/104/22 494/106/22 489/107/22 483/102/22
f 486/103/6 492/109/6 493/107/6 487/102/6
f 483/102/3 489/107/3 490/109/3 484/103/3
f 495/29/23 496/30/23 498/30/23 497/29/23
f 497/29/6 498/30/6 502/31/6 501/32/6
f 501/32/24 502/31/24 500/31/24 499/32/24
f 499/32/3 500/31/3 496/30/3 495/29/3
f 497/33/25 501/34/25 499/34/25 495/33/25
f 502/35/26 498/36/26 496/36/26 500/35/26
f 503/29/24 505/29/24 506/30/24 504/30/24
f 505/29/6 509/32/6 510/31/6 506/30/6
f 509/32/23 507/32/23 508/31/23 510/31/23
f 507/32/3 503/29/3 504/30/3 508/31/3
f 505/33/25 503/33/25 507/34/25 509/34/25
f 510/35/26 508/35/26 504/36/26 506/36/26
f 547/168/39 512/169/39 514/170/39 548/171/39
f 548/171/40 514/170/40 516/170/40 549/171/40
f 549/171/41 516/170/41 518/172/41 550/173/41
f 550/173/42 518/172/42 520/174/42 551/175/42
f 522/176/26 520/176/26 527/177/26 528/177/26
f 551/175/43 520/174/43 522/174/43 552/175/43
f 552/175/44 522/174/44 512/169/44 547/168/44
f 511/178/25 513/179/25 515/179/25 517/178/25
f 517/178/25 519/180/25 521/180/25 511/178/25
f 514/181/26 512/182/26 523/183/26 524/184/26
f 518/183/26 516/181/26 525/184/26 526/183/26
f 512/182/26 522/176/26 528/177/26 523/183/26
f 520/176/26 518/183/26 526/183/26 527/177/26
f 516/181/26 514/181/26 524/184/26 525/184/26
f 528/185/45 527/185/45 533/186/45 534/187/45
f 526/188/46 525/189/46 531/190/46 532/191/46
f 524/189/47 523/192/47 529/193/47 530/194/47
f 523/192/48 528/185/48 534/187/48 529/193/48
f 527/185/49 526/188/49 532/191/49 533/186/49
f 525/189/50 524/189/50 530/194/50 531/190/50
f 529/193/51 534/187/51 540/195/51 535/196/51
f 533/186/52 532/191/52 538/196/52 539/195/52
f 531/190/53 530/194/53 536/197/53 537/197/53
f 534/187/54 533/186/54 539/195/54 540/195/54
f 532/191/55 531/190/55 537/197/55 538/196/55
f 530/194/56 529/193/56 535/196/56 536/197/56
f 536/197/26 535/196/26 538/196/26 537/197/26
f 539/195/26 538/196/26 535/196/26 540/195/26
f 521/180/57 546/198/57 541/199/57 511/178/57
f 519/180/58 545/198/58 546/198/58 521/180/58
f 517/178/59 544/200/59 545/198/59 519/180/59
f 515/179/60 543/201/60 544/200/60 517/178/60
f 513/179/61 542/201/61 543/201/61 515/179/61
f 511/178/62 541/199/62 542/201/62 513/179/62
f 546/198/63 552/202/63 547/203/63 541/199/63
f 545/198/64 551/202/64 552/202/64 546/198/64
f 544/200/65 550/204/65 551/202/65 545/198/65
f 543/201/66 549/205/66 550/204/66 544/200/66
f 542/201/67 548/205/67 549/205/67 543/201/67
f 541/199/68 547/203/68 548/205/68 542/201/68
f 559/82/1 565/83/1 570/84/1 564/85/1
f 589/86/2 553/87/2 558/88/2 594/89/2
f 590/90/3 554/91/3 553/87/3 589/86/3
f 591/92/4 555/93/4 554/91/4 590/90/4
f 592/90/5 556/91/5 555/93/5 591/92/5
f 593/86/6 557/87/6 556/91/6 592/90/6
f 594/89/7 558/88/7 557/87/7 593/86/7
f 553/87/8 559/82/8 564/85/8 558/88/8
f 554/91/3 560/94/3 559/82/3 553/87/3
f 555/93/9 561/95/9 560/94/9 554/91/9
f 556/91/10 562/94/10 561/95/10 555/93/10
f 557/87/6 563/82/6 562/94/6 556/91/6
f 558/88/11 564/85/11 563/82/11 557/87/11
f 560/94/3 566/96/3 565/83/3 559/82/3
f 561/95/12 567/97/12 566/96/12 560/94/12
f 562/94/13 568/96/13 567/97/13 561/95/13
f 563/82/6 569/83/6 568/96/6 562/94/6
f 564/85/14 570/84/14 569/83/14 563/82/14
f 565/83/15 571/98/15 576/99/15 570/84/15
f 566/96/3 572/100/3 571/98/3 565/83/3
f 567/97/16 573/101/16 572/100/16 566/96/16
f 568/96/17 574/100/17 573/101/17 567/97/17
f 569/83/6 575/98/6 574/100/6 568/96/6
f 570/84/18 576/99/18 575/98/18 569/83/18
f 574/100/6 575/98/6 581/102/6 580/103/6
f 571/98/3 572/100/3 578/103/3 577/102/3
f 575/98/19 576/99/19 582/104/19 581/102/19
f 576/99/20 571/98/20 577/102/20 582/104/20
f 573/101/21 574/100/21 580/103/21 579/105/21
f 572/100/22 573/101/22 579/105/22 578/103/22
f 581/102/19 582/104/19 588/106/19 587/107/19
f 578/103/22 579/105/22 585/108/22 584/109/22
f 579/105/21 580/103/21 586/109/21 585/108/21
f 582/104/20 577/102/20 583/107/20 588/106/20
f 580/103/6 581/102/6 587/107/6 586/109/6
f 577/102/3 578/103/3 584/109/3 583/107/3
f 601/82/27 606/85/27 612/84/27 607/83/27
f 589/86/2 594/89/2 600/88/2 595/87/2
f 590/90/3 589/86/3 595/87/3 596/91/3
f 591/92/4 590/90/4 596/91/4 597/93/4
f 592/90/5 591/92/5 597/93/5 598/91/5
f 593/86/6 592/90/6 598/91/6 599/87/6
f 594/89/7 593/86/7 599/87/7 600/88/7
f 595/87/28 600/88/28 606/85/28 601/82/28
f 596/91/3 595/87/3 601/82/3 602/94/3
f 597/93/29 596/91/29 602/94/29 603/95/29
f 598/91/30 597/93/30 603/95/30 604/94/30
f 599/87/6 598/91/6 604/94/6 605/82/6
f 600/88/31 599/87/31 605/82/31 606/85/31
f 602/94/3 601/82/3 607/83/3 608/96/3
f 603/95/32 602/94/32 608/96/32 609/97/32
f 604/94/33 603/95/33 609/97/33 610/96/33
f 605/82/6 604/94/6 610/96/6 611/83/6
f 606/85/34 605/82/34 611/83/34 612/84/34
f 607/83/35 612/84/35 618/99/35 613/98/35
f 608/96/3 607/83/3 613/98/3 614/100/3
f 609/97/36 608/96/36 614/100/36 615/101/36
f 610/96/37 609/97/37 615/101/37 616/100/37
f 611/83/6 610/96/6 616/100/6 617/98/6
f 612/84/38 611/83/38 617/98/38 618/99/38
f 616/100/6 622/103/6 623/102/6 617/98/6
f 613/98/3 619/102/3 620/103/3 614/100/3
f 617/98/21 623/102/21 624/104/21 618/99/21
f 618/99/22 624/104/22 619/102/22 613/98/22
f 615/101/19 621/105/19 622/103/19 616/100/19
f 614/100/20 620/103/20 621/105/20 615/101/20
f 623/102/21 629/107/21 630/106/21 624/104/21
f 620/103/20 626/109/20 627/108/20 621/105/20
f 621/105/19 627/108/19 628/109/19 622/103/19
f 624/104/22 630/106/22 625/107/22 619/102/22
f 622/103/6 628/109/6 629/107/6 623/102/6
f 619/102/3 625/107/3 626/109/3 620/103/3
f 631/37/24 633/37/24 634/38/24 632/38/24
f 633/37/6 637/39/6 638/40/6 634/38/6
f 637/39/23 635/39/23 636/40/23 638/40/23
f 635/39/3 631/37/3 632/38/3 636/40/3
f 633/37/25 631/37/25 635/39/25 637/39/25
f 638/41/26 636/41/26 632/42/26 634/42/26
f 639/37/24 641/37/24 642/38/24 640/38/24
f 641/37/6 645/39/6 646/40/6 642/38/6
f 645/39/23 643/39/23 644/40/23 646/40/23
f 643/39/3 639/37/3 640/38/3 644/40/3
f 641/37/25 639/37/25 643/39/25 645/39/25
f 646/41/26 644/41/26 640/42/26 642/42/26
