# Blender 5.1.0
# www.blender.org
mtllib trash_can.mtl
o trash_can
v 0.227203 2.609754 0.074228
v 0.204071 2.533171 0.074228
v 0.192504 2.494880 0.004946
v 0.204071 2.533171 -0.064336
v 0.227203 2.609754 -0.064336
v 0.238770 2.648045 0.004946
v 0.377206 2.548281 0.074228
v 0.340318 2.477293 0.074228
v 0.321874 2.441799 0.004946
v 0.340318 2.477293 -0.064336
v 0.377206 2.548281 -0.064336
v 0.395650 2.583775 0.004946
v 0.654870 2.334958 0.074228
v 0.596839 2.279890 0.074228
v 0.567824 2.252357 0.004946
v 0.596839 2.279890 -0.064336
v 0.654870 2.334958 -0.064336
v 0.683885 2.362492 0.004946
v 0.784923 2.166315 0.074228
v 0.705705 2.155157 0.074228
v 0.666096 2.149578 0.004946
v 0.705705 2.155157 -0.064336
v 0.784923 2.166315 -0.064336
v 0.824532 2.171894 0.004946
v 0.784923 1.827770 0.074228
v 0.705705 1.827770 0.074228
v 0.666096 1.827770 0.004946
v 0.705705 1.827770 -0.064336
v 0.784923 1.827770 -0.064336
v 0.824532 1.827770 0.004946
v 0.784923 -0.027325 0.074228
v 0.705705 -0.027325 0.074228
v 0.666096 -0.027325 0.004946
v 0.705705 -0.027325 -0.064336
v 0.784923 -0.027325 -0.064336
v 0.824532 -0.027325 0.004946
v 0.625088 -0.095093 0.206957
v 0.625088 0.009355 0.206957
v 0.625088 -0.095093 -0.205834
v 0.625088 0.009355 -0.205834
v 0.874314 -0.095093 0.206957
v 0.874314 0.009355 0.206957
v 0.874314 -0.095093 -0.205834
v 0.874314 0.009355 -0.205834
v 0.506848 1.453924 0.023964
v 0.506848 1.501553 0.023964
v 0.506848 1.453924 -0.022841
v 0.506848 1.501553 -0.022841
v 0.754400 1.453924 0.023964
v 0.754400 1.501553 0.023964
v 0.754400 1.453924 -0.022841
v 0.754400 1.501553 -0.022841
v 0.003535 2.609753 0.074228
v 0.003535 2.533170 0.074228
v 0.003535 2.494879 0.004946
v 0.003535 2.533170 -0.064336
v 0.003535 2.609753 -0.064336
v 0.003535 2.648044 0.004946
v -0.220134 2.609754 0.074228
v -0.197001 2.533171 0.074228
v -0.185435 2.494880 0.004946
v -0.197001 2.533171 -0.064336
v -0.220134 2.609754 -0.064336
v -0.231700 2.648045 0.004946
v -0.370137 2.548281 0.074228
v -0.333249 2.477293 0.074228
v -0.314805 2.441799 0.004946
v -0.333249 2.477293 -0.064336
v -0.370137 2.548281 -0.064336
v -0.388581 2.583775 0.004946
v -0.647801 2.334958 0.074228
v -0.589770 2.279890 0.074228
v -0.560755 2.252357 0.004946
v -0.589770 2.279890 -0.064336
v -0.647801 2.334958 -0.064336
v -0.676816 2.362492 0.004946
v -0.777853 2.166315 0.074228
v -0.698636 2.155157 0.074228
v -0.659026 2.149578 0.004946
v -0.698636 2.155157 -0.064336
v -0.777853 2.166315 -0.064336
v -0.817463 2.171894 0.004946
v -0.777853 1.827770 0.074228
v -0.698636 1.827770 0.074228
v -0.659026 1.827770 0.004946
v -0.698636 1.827770 -0.064336
v -0.777853 1.827770 -0.064336
v -0.817463 1.827770 0.004946
v -0.777853 -0.027325 0.074228
v -0.698636 -0.027325 0.074228
v -0.659026 -0.027325 0.004946
v -0.698636 -0.027325 -0.064336
v -0.777853 -0.027325 -0.064336
v -0.817463 -0.027325 0.004946
v -0.618018 -0.095093 0.206957
v -0.618018 0.009355 0.206957
v -0.618018 -0.095093 -0.205834
v -0.618018 0.009355 -0.205834
v -0.867245 -0.095093 0.206957
v -0.867245 0.009355 0.206957
v -0.867245 -0.095093 -0.205834
v -0.867245 0.009355 -0.205834
v -0.499779 1.453924 0.023964
v -0.499779 1.501553 0.023964
v -0.499779 1.453924 -0.022841
v -0.499779 1.501553 -0.022841
v -0.747331 1.453924 0.023964
v -0.747331 1.501553 0.023964
v -0.747331 1.453924 -0.022841
v -0.747331 1.501553 -0.022841
v -0.009257 0.384791 -0.475567
v -0.009257 1.765174 -0.699805
v 0.394270 0.384791 -0.242590
v 0.588466 1.765174 -0.354709
v 0.394270 0.384791 0.223363
v 0.588466 1.765174 0.335482
v -0.009257 0.384791 0.456339
v -0.009257 1.765174 0.680577
v -0.412784 0.384791 0.223363
v -0.606980 1.765174 0.335482
v -0.412784 0.384791 -0.242590
v -0.606980 1.765174 -0.354709
v -0.009257 1.765174 -0.575584
v 0.480888 1.765174 -0.292599
v 0.480887 1.765174 0.273371
v -0.009257 1.765174 0.556356
v -0.499402 1.765174 0.273371
v -0.499402 1.765174 -0.292599
v -0.009257 1.306616 -0.521805
v 0.434314 1.306616 -0.265710
v 0.434314 1.306616 0.246482
v -0.009257 1.306616 0.502577
v -0.452828 1.306616 0.246482
v -0.452828 1.306616 -0.265710
v -0.009257 0.512053 -0.378860
v 0.310520 0.512053 -0.194237
v 0.310519 0.512053 0.175009
v -0.009257 0.512053 0.359632
v -0.329034 0.512053 0.175009
v -0.329034 0.512053 -0.194237
v -0.009257 0.689427 -0.591459
v 0.494635 0.689427 -0.300536
v 0.494635 0.689427 0.281308
v -0.009257 0.689427 0.572231
v -0.513149 0.689427 0.281308
v -0.513149 0.689427 -0.300536
v -0.009257 1.645080 -0.646959
v 0.542700 1.645080 -0.328286
v 0.542700 1.645080 0.309059
v -0.009257 1.645080 0.627731
v -0.561214 1.645080 0.309059
v -0.561214 1.645080 -0.328286
vn 0.5293 0.6892 0.4948
vn -0.0000 0.8752 0.4837
vn -0.0000 -0.0000 1.0000
vn -0.0000 -0.8752 0.4837
vn -0.0000 -0.8752 -0.4837
vn -0.0000 -0.0000 -1.0000
vn -0.0000 0.8752 -0.4837
vn 0.3287 0.8022 0.4984
vn -0.3290 -0.8021 0.4984
vn -0.3290 -0.8021 -0.4984
vn 0.3287 0.8022 -0.4984
vn -0.5301 -0.6886 0.4948
vn -0.5301 -0.6886 -0.4948
vn 0.5293 0.6892 -0.4948
vn 0.7029 0.5297 0.4747
vn -0.6541 -0.5956 0.4663
vn -0.6541 -0.5956 -0.4663
vn 0.7029 0.5297 -0.4747
vn 0.8681 -0.0000 -0.4963
vn 0.8681 -0.0000 0.4963
vn -0.8681 -0.0000 -0.4963
vn -0.8681 -0.0000 0.4963
vn -1.0000 -0.0000 -0.0000
vn 1.0000 -0.0000 -0.0000
vn -0.0000 -1.0000 -0.0000
vn -0.0000 1.0000 -0.0000
vn -0.5293 0.6892 0.4948
vn -0.3287 0.8022 0.4984
vn 0.3290 -0.8021 0.4984
vn 0.3290 -0.8021 -0.4984
vn -0.3287 0.8022 -0.4984
vn 0.5301 -0.6886 0.4948
vn 0.5301 -0.6886 -0.4948
vn -0.5293 0.6892 -0.4948
vn -0.7029 0.5297 0.4747
vn 0.6541 -0.5956 0.4663
vn 0.6541 -0.5956 -0.4663
vn -0.7029 0.5297 -0.4747
vn 0.4672 -0.3561 -0.8093
vn 0.9344 -0.3561 -0.0000
vn 0.4672 -0.3561 0.8093
vn -0.4672 -0.3561 0.8093
vn -0.9344 -0.3561 -0.0000
vn -0.4672 -0.3561 -0.8093
vn 0.9949 0.1010 -0.0000
vn -0.4974 0.1010 -0.8616
vn -0.4974 0.1010 0.8616
vn 0.4974 0.1010 0.8616
vn 0.4974 0.1010 -0.8616
vn -0.9949 0.1010 -0.0000
vn 0.4940 0.1539 0.8557
vn 0.4940 0.1539 -0.8557
vn -0.9881 0.1539 -0.0000
vn 0.9881 0.1539 -0.0000
vn -0.4940 0.1539 -0.8557
vn -0.4940 0.1539 0.8557
vn -0.4749 -0.3129 -0.8225
vn -0.9498 -0.3129 -0.0000
vn -0.4749 -0.3129 0.8225
vn 0.4749 -0.3129 0.8225
vn 0.9498 -0.3129 -0.0000
vn 0.4749 -0.3129 -0.8225
vn -0.4994 -0.0502 -0.8649
vn -0.9987 -0.0502 -0.0000
vn -0.4994 -0.0502 0.8649
vn 0.4994 -0.0502 0.8649
vn 0.9987 -0.0502 -0.0000
vn 0.4994 -0.0502 -0.8649
vt 0.306275 0.807288
vt 0.331162 0.788168
vt 0.333763 0.790636
vt 0.307928 0.810470
vt 0.272783 0.812798
vt 0.292830 0.812798
vt 0.293867 0.816230
vt 0.272783 0.816230
vt 0.272783 0.805934
vt 0.290757 0.805934
vt 0.272783 0.802502
vt 0.289720 0.802502
vt 0.302969 0.800926
vt 0.301316 0.797744
vt 0.325961 0.783232
vt 0.323360 0.780765
vt 0.342819 0.773053
vt 0.346369 0.773553
vt 0.335718 0.772053
vt 0.332168 0.771553
vt 0.342819 0.742709
vt 0.335718 0.742709
vt 0.346369 0.742709
vt 0.332168 0.742709
vt 0.346369 0.576437
vt 0.342819 0.576437
vt 0.332168 0.576437
vt 0.335718 0.576437
vt 0.328493 0.570363
vt 0.328493 0.579724
vt 0.350831 0.579724
vt 0.350831 0.570363
vt 0.348370 0.727371
vt 0.326032 0.727371
vt 0.317895 0.709201
vt 0.317895 0.713470
vt 0.340083 0.713470
vt 0.340083 0.709201
vt 0.308052 0.586162
vt 0.330240 0.586162
vt 0.330240 0.634725
vt 0.308052 0.634725
vt 0.307425 0.496179
vt 0.307425 0.510112
vt 0.344322 0.510112
vt 0.343676 0.496179
vt 0.343675 0.496179
vt 0.307425 0.496179
vt 0.270527 0.510112
vt 0.271174 0.496179
vt 0.262544 0.408748
vt 0.269185 0.408748
vt 0.293241 0.226896
vt 0.318150 0.226896
vt 0.268331 0.226896
vt 0.336339 0.408748
vt 0.299442 0.408748
vt 0.329698 0.408748
vt 0.278842 0.289434
vt 0.280799 0.281117
vt 0.280799 0.281117
vt 0.299442 0.289434
vt 0.320041 0.289434
vt 0.318084 0.281117
vt 0.299442 0.281117
vt 0.299442 0.281117
vt 0.318084 0.281117
vt 0.286002 0.218356
vt 0.299442 0.218356
vt 0.312881 0.218356
vt 0.275307 0.230772
vt 0.269886 0.246737
vt 0.300992 0.246737
vt 0.300217 0.230772
vt 0.277663 0.314851
vt 0.272242 0.330817
vt 0.327482 0.314851
vt 0.334453 0.330817
vt 0.303348 0.330817
vt 0.302573 0.314851
vt 0.325126 0.230772
vt 0.332097 0.246737
vt 0.298666 0.267976
vt 0.299442 0.283942
vt 0.330547 0.283942
vt 0.323576 0.267976
vt 0.264741 0.357610
vt 0.300992 0.357610
vt 0.267097 0.441690
vt 0.300992 0.357610
vt 0.339599 0.441689
vt 0.303348 0.441690
vt 0.337243 0.357610
vt 0.337242 0.357610
vt 0.299442 0.394815
vt 0.335692 0.394815
s 0
usemtl Material.001
f 7/1/1 13/2/1 18/3/1 12/4/1
f 53/5/2 1/6/2 6/7/2 58/8/2
f 54/9/3 2/10/3 1/6/3 53/5/3
f 55/11/4 3/12/4 2/10/4 54/9/4
f 56/9/5 4/10/5 3/12/5 55/11/5
f 57/5/6 5/6/6 4/10/6 56/9/6
f 58/8/7 6/7/7 5/6/7 57/5/7
f 1/6/8 7/1/8 12/4/8 6/7/8
f 2/10/3 8/13/3 7/1/3 1/6/3
f 3/12/9 9/14/9 8/13/9 2/10/9
f 4/10/10 10/13/10 9/14/10 3/12/10
f 5/6/6 11/1/6 10/13/6 4/10/6
f 6/7/11 12/4/11 11/1/11 5/6/11
f 8/13/3 14/15/3 13/2/3 7/1/3
f 9/14/12 15/16/12 14/15/12 8/13/12
f 10/13/13 16/15/13 15/16/13 9/14/13
f 11/1/6 17/2/6 16/15/6 10/13/6
f 12/4/14 18/3/14 17/2/14 11/1/14
f 13/2/15 19/17/15 24/18/15 18/3/15
f 14/15/3 20/19/3 19/17/3 13/2/3
f 15/16/16 21/20/16 20/19/16 14/15/16
f 16/15/17 22/19/17 21/20/17 15/16/17
f 17/2/6 23/17/6 22/19/6 16/15/6
f 18/3/18 24/18/18 23/17/18 17/2/18
f 22/19/6 23/17/6 29/21/6 28/22/6
f 19/17/3 20/19/3 26/22/3 25/21/3
f 23/17/19 24/18/19 30/23/19 29/21/19
f 24/18/20 19/17/20 25/21/20 30/23/20
f 21/20/21 22/19/21 28/22/21 27/24/21
f 20/19/22 21/20/22 27/24/22 26/22/22
f 29/21/19 30/23/19 36/25/19 35/26/19
f 26/22/22 27/24/22 33/27/22 32/28/22
f 27/24/21 28/22/21 34/28/21 33/27/21
f 30/23/20 25/21/20 31/26/20 36/25/20
f 28/22/6 29/21/6 35/26/6 34/28/6
f 25/21/3 26/22/3 32/28/3 31/26/3
f 37/29/23 38/30/23 40/30/23 39/29/23
f 39/29/6 40/30/6 44/31/6 43/32/6
f 43/32/24 44/31/24 42/31/24 41/32/24
f 41/32/3 42/31/3 38/30/3 37/29/3
f 39/29/25 43/32/25 41/32/25 37/29/25
f 44/33/26 40/34/26 38/34/26 42/33/26
f 45/35/23 46/36/23 48/36/23 47/35/23
f 47/35/6 48/36/6 52/37/6 51/38/6
f 51/38/24 52/37/24 50/37/24 49/38/24
f 49/38/3 50/37/3 46/36/3 45/35/3
f 47/39/25 51/40/25 49/40/25 45/39/25
f 52/41/26 48/42/26 46/42/26 50/41/26
f 65/1/27 70/4/27 76/3/27 71/2/27
f 53/5/2 58/8/2 64/7/2 59/6/2
f 54/9/3 53/5/3 59/6/3 60/10/3
f 55/11/4 54/9/4 60/10/4 61/12/4
f 56/9/5 55/11/5 61/12/5 62/10/5
f 57/5/6 56/9/6 62/10/6 63/6/6
f 58/8/7 57/5/7 63/6/7 64/7/7
f 59/6/28 64/7/28 70/4/28 65/1/28
f 60/10/3 59/6/3 65/1/3 66/13/3
f 61/12/29 60/10/29 66/13/29 67/14/29
f 62/10/30 61/12/30 67/14/30 68/13/30
f 63/6/6 62/10/6 68/13/6 69/1/6
f 64/7/31 63/6/31 69/1/31 70/4/31
f 66/13/3 65/1/3 71/2/3 72/15/3
f 67/14/32 66/13/32 72/15/32 73/16/32
f 68/13/33 67/14/33 73/16/33 74/15/33
f 69/1/6 68/13/6 74/15/6 75/2/6
f 70/4/34 69/1/34 75/2/34 76/3/34
f 71/2/35 76/3/35 82/18/35 77/17/35
f 72/15/3 71/2/3 77/17/3 78/19/3
f 73/16/36 72/15/36 78/19/36 79/20/36
f 74/15/37 73/16/37 79/20/37 80/19/37
f 75/2/6 74/15/6 80/19/6 81/17/6
f 76/3/38 75/2/38 81/17/38 82/18/38
f 80/19/6 86/22/6 87/21/6 81/17/6
f 77/17/3 83/21/3 84/22/3 78/19/3
f 81/17/21 87/21/21 88/23/21 82/18/21
f 82/18/22 88/23/22 83/21/22 77/17/22
f 79/20/19 85/24/19 86/22/19 80/19/19
f 78/19/20 84/22/20 85/24/20 79/20/20
f 87/21/21 93/26/21 94/25/21 88/23/21
f 84/22/20 90/28/20 91/27/20 85/24/20
f 85/24/19 91/27/19 92/28/19 86/22/19
f 88/23/22 94/25/22 89/26/22 83/21/22
f 86/22/6 92/28/6 93/26/6 87/21/6
f 83/21/3 89/26/3 90/28/3 84/22/3
f 95/29/24 97/29/24 98/30/24 96/30/24
f 97/29/6 101/32/6 102/31/6 98/30/6
f 101/32/23 99/32/23 100/31/23 102/31/23
f 99/32/3 95/29/3 96/30/3 100/31/3
f 97/29/25 95/29/25 99/32/25 101/32/25
f 102/33/26 100/33/26 96/34/26 98/34/26
f 103/35/24 105/35/24 106/36/24 104/36/24
f 105/35/6 109/38/6 110/37/6 106/36/6
f 109/38/23 107/38/23 108/37/23 110/37/23
f 107/38/3 103/35/3 104/36/3 108/37/3
f 105/39/25 103/39/25 107/40/25 109/40/25
f 110/41/26 108/41/26 104/42/26 106/42/26
f 147/43/39 112/44/39 114/45/39 148/46/39
f 148/46/40 114/45/40 116/45/40 149/47/40
f 149/47/41 116/45/41 118/44/41 150/48/41
f 150/48/42 118/44/42 120/49/42 151/50/42
f 122/51/26 120/51/26 127/52/26 128/52/26
f 151/50/43 120/49/43 122/49/43 152/50/43
f 152/50/44 122/49/44 112/44/44 147/43/44
f 111/53/25 113/54/25 115/54/25 117/53/25
f 117/53/25 119/55/25 121/55/25 111/53/25
f 114/56/26 112/57/26 123/57/26 124/58/26
f 118/57/26 116/56/26 125/58/26 126/57/26
f 112/57/26 122/51/26 128/52/26 123/57/26
f 120/51/26 118/57/26 126/57/26 127/52/26
f 116/56/26 114/56/26 124/58/26 125/58/26
f 128/59/45 127/59/45 133/60/45 134/61/45
f 126/62/46 125/63/46 131/64/46 132/65/46
f 124/63/47 123/62/47 129/66/47 130/67/47
f 123/62/48 128/59/48 134/61/48 129/66/48
f 127/59/49 126/62/49 132/65/49 133/60/49
f 125/63/50 124/63/50 130/67/50 131/64/50
f 129/66/51 134/61/51 140/68/51 135/69/51
f 133/60/52 132/65/52 138/69/52 139/68/52
f 131/64/53 130/67/53 136/70/53 137/70/53
f 134/61/54 133/60/54 139/68/54 140/68/54
f 132/65/55 131/64/55 137/70/55 138/69/55
f 130/67/56 129/66/56 135/69/56 136/70/56
f 136/70/26 135/69/26 138/69/26 137/70/26
f 139/68/26 138/69/26 135/69/26 140/68/26
f 121/71/57 146/72/57 141/73/57 111/74/57
f 119/75/58 145/76/58 146/76/58 121/75/58
f 117/74/59 144/73/59 145/72/59 119/71/59
f 115/77/60 143/78/60 144/79/60 117/80/60
f 113/81/61 142/82/61 143/82/61 115/81/61
f 111/83/62 141/84/62 142/85/62 113/86/62
f 146/72/63 152/87/63 147/88/63 141/73/63
f 145/76/64 151/89/64 152/89/64 146/76/64
f 144/73/65 150/90/65 151/87/65 145/72/65
f 143/78/66 149/91/66 150/92/66 144/79/66
f 142/82/67 148/93/67 149/94/67 143/82/67
f 141/84/68 147/95/68 148/96/68 142/85/68
