# Blender 5.1.0
# www.blender.org
mtllib duck.mtl
o ALAS
v 3.000000 4.000000 1.000000
v 3.000000 6.000000 1.000000
v 3.000000 4.000000 4.000000
v 3.000000 6.000000 4.000000
v 4.000000 4.000000 1.000000
v 4.000000 6.000000 1.000000
v 4.000000 4.000000 4.000000
v 4.000000 6.000000 4.000000
v 3.000000 6.000000 2.500000
v 4.000000 6.000000 2.500000
v 4.000000 4.000000 2.500000
v 3.000000 6.000000 3.250000
v 3.000000 4.000000 3.250000
v 4.000000 6.000000 3.250000
v 4.000000 4.000000 3.250000
v 3.000000 6.000000 1.750000
v 4.000000 6.000000 1.750000
v 4.000000 4.000000 1.750000
v 3.000000 7.000000 4.000000
v 4.000000 7.000000 4.000000
v 3.000000 7.000000 3.250000
v 3.000000 7.000000 2.500000
v 4.000000 7.000000 3.250000
v 4.000000 7.000000 2.500000
v 3.000000 7.000000 1.750000
v 4.000000 7.000000 1.750000
v 3.000000 6.000000 5.000000
v 4.000000 6.000000 5.000000
v 3.000000 7.000000 5.000000
v 4.000000 7.000000 5.000000
v 3.000000 3.000000 1.000000
v 3.000000 3.000000 -0.000000
v 2.000000 3.000000 -0.000000
v 2.000000 3.000000 1.000000
v 3.000000 4.000000 1.000000
v 3.000000 4.000000 -0.000000
v 2.000000 4.000000 -0.000000
v 1.000000 6.000000 -0.000000
v 2.000000 3.000000 -2.000000
v 3.000000 3.000000 -2.000000
v 2.000000 4.000000 -2.000000
v 3.000000 4.000000 -2.000000
v 3.000000 6.000000 1.000000
v 3.000000 6.000000 -0.000000
v 2.000000 6.000000 -0.000000
v 2.000000 6.000000 1.000000
v 2.000000 6.000000 -2.000000
v 3.000000 6.000000 -2.000000
v 0.000000 3.000000 0.000000
v 0.000000 4.000000 0.000000
v -0.000000 3.000000 -2.000000
v -0.000000 4.000000 -2.000000
v -0.000000 4.000000 -2.000000
v 0.000000 4.000000 0.000000
v -0.000000 6.000000 -2.000000
v 0.000000 6.000000 0.000000
v 3.000000 4.000000 -3.000000
v 3.000000 6.000000 -3.000000
v 2.000000 4.000000 -3.000000
v 2.000000 6.000000 -3.000000
v -0.000000 6.000000 -3.000000
v -0.000000 4.000000 -3.000000
v 2.000000 3.000000 4.000000
v 3.000000 3.000000 4.000000
v 2.000000 4.000000 4.000000
v 3.000000 4.000000 4.000000
v 2.000000 6.000000 4.000000
v 3.000000 6.000000 4.000000
v 0.000000 3.000000 1.000000
v 0.000000 3.000000 0.000000
v 0.000000 3.000000 4.000000
v 0.000000 4.000000 1.000000
v 0.000000 4.000000 0.000000
v 0.000000 6.000000 1.000000
v 0.000000 6.000000 0.000000
v 0.000000 4.000000 4.000000
v 0.000000 6.000000 4.000000
v 1.000000 4.000000 -0.000000
v 1.000000 3.000000 -0.000000
v 1.000000 3.000000 1.000000
v 1.000000 6.000000 1.000000
v 1.000000 6.000000 4.000000
v 1.000000 4.000000 4.000000
v 1.000000 3.000000 4.000000
v 1.000000 4.000000 -0.000000
v 1.000000 4.000000 -2.000000
v 1.000000 6.000000 -2.000000
v 1.000000 4.000000 -3.000000
v 1.000000 6.000000 -3.000000
v 2.000000 3.000000 -1.000000
v 3.000000 3.000000 -1.000000
v 3.000000 4.000000 -1.000000
v 2.000000 4.000000 -1.000000
v 3.000000 6.000000 -1.000000
v 2.000000 6.000000 -1.000000
v -0.000000 3.000000 -1.000000
v -0.000000 4.000000 -1.000000
v -0.000000 4.000000 -1.000000
v -0.000000 6.000000 -1.000000
v 1.000000 4.000000 -1.000000
v 1.000000 6.000000 -1.000000
v -0.000000 7.000000 -3.000000
v -0.000000 7.000000 -2.000000
v 1.000000 7.000000 -2.000000
v 1.000000 7.000000 -3.000000
v -0.000000 7.000000 -1.000000
v 1.000000 7.000000 -1.000000
v -0.000000 8.000000 -3.000000
v -0.000000 8.000000 -2.000000
v -0.000000 10.000000 -2.000000
v -0.000000 8.000000 -1.000000
v -0.000000 10.000000 -3.000000
v -0.000000 7.000000 -4.000000
v 1.000000 7.000000 -4.000000
v -0.000000 8.000000 -4.000000
v 1.000000 8.000000 -4.000000
v 2.000000 7.000000 -1.000000
v 2.000000 8.000000 -1.000000
v 2.000000 7.000000 -2.000000
v 2.000000 7.000000 -3.000000
v 2.000000 8.000000 -2.000000
v 2.000000 8.000000 -3.000000
v 2.000000 8.000000 -4.000000
v 2.000000 7.000000 -4.000000
v 1.000000 7.000000 -0.000000
v 1.000000 8.000000 -0.000000
v 0.000000 7.000000 0.000000
v 0.000000 8.000000 0.000000
v 2.000000 7.000000 -0.000000
v 2.000000 8.000000 -0.000000
v -0.000000 9.000000 -3.000000
v -0.000000 9.000000 -2.000000
v 1.000000 11.000000 -2.000000
v -0.000000 11.000000 -2.000000
v -0.000000 9.000000 -1.000000
v -0.000000 11.000000 -3.000000
v 2.000000 9.000000 -4.000000
v 1.000000 9.000000 -4.000000
v 2.000000 9.000000 -3.000000
v -0.000000 9.000000 -4.000000
v 2.000000 9.000000 -2.000000
v 2.000000 9.000000 -1.000000
v 1.000000 9.000000 -0.000000
v 0.000000 9.000000 0.000000
v 2.000000 9.000000 -0.000000
v -0.000000 10.000000 -1.000000
v -0.000000 8.000000 -6.000000
v 2.000000 10.000000 -4.000000
v 1.000000 10.000000 -4.000000
v 2.000000 10.000000 -3.000000
v -0.000000 10.000000 -4.000000
v 2.000000 10.000000 -2.000000
v 2.000000 10.000000 -1.000000
v 1.000000 10.000000 -0.000000
v 0.000000 10.000000 0.000000
v 2.000000 10.000000 -0.000000
v 1.000000 11.000000 -3.000000
v -0.000000 11.000000 -1.000000
v 1.000000 11.000000 -1.000000
v 2.000000 11.000000 -4.000000
v 1.000000 11.000000 -4.000000
v 2.000000 11.000000 -3.000000
v -0.000000 11.000000 -4.000000
v 2.000000 11.000000 -2.000000
v 2.000000 11.000000 -1.000000
v 1.000000 11.000000 -0.000000
v 0.000000 11.000000 0.000000
v 2.000000 11.000000 -0.000000
v -0.000000 9.000000 -6.000000
v 2.000000 4.000000 5.000000
v 2.000000 6.000000 5.000000
v 0.000000 4.000000 5.000000
v 0.000000 6.000000 5.000000
v 1.000000 6.000000 5.000000
v 1.000000 4.000000 5.000000
v 0.000000 4.000000 6.000000
v 0.000000 6.000000 6.000000
v 0.000000 7.000000 5.000000
v 0.000000 7.000000 6.000000
v 4.000000 4.000000 1.000000
v 4.000000 6.000000 4.000000
v 2.000000 3.000000 2.500000
v 2.000000 6.000000 2.500000
v 3.000000 6.000000 2.500000
v 3.000000 4.000000 2.500000
v 3.000000 3.000000 2.500000
v 0.000000 3.000000 2.500000
v 0.000000 4.000000 2.500000
v 0.000000 6.000000 2.500000
v 1.000000 6.000000 2.500000
v 1.000000 3.000000 2.500000
v 4.000000 4.000000 2.500000
v 2.000000 3.000000 3.250000
v 2.000000 6.000000 3.250000
v 3.000000 3.000000 3.250000
v 0.000000 3.000000 3.250000
v 0.000000 6.000000 3.250000
v 1.000000 6.000000 3.250000
v 3.000000 6.000000 3.250000
v 3.000000 4.000000 3.250000
v 0.000000 4.000000 3.250000
v 1.000000 3.000000 3.250000
v 4.000000 4.000000 3.250000
v 3.000000 6.000000 1.750000
v 3.000000 4.000000 1.750000
v 0.000000 4.000000 1.750000
v 1.000000 3.000000 1.750000
v 4.000000 4.000000 1.750000
v 2.000000 3.000000 1.750000
v 2.000000 6.000000 1.750000
v 3.000000 3.000000 1.750000
v 0.000000 3.000000 1.750000
v 0.000000 6.000000 1.750000
v 1.000000 6.000000 1.750000
v 3.000000 6.000000 5.000000
v 4.000000 6.000000 5.000000
v 2.000000 9.000000 -4.000000
v 1.000000 9.000000 -4.000000
v 2.000000 9.000000 -3.000000
v 2.000000 10.000000 -4.000000
v 1.000000 10.000000 -4.000000
v 2.000000 10.000000 -3.000000
v 1.000000 9.000000 -6.000000
v -0.000000 8.000000 -4.000000
v 1.000000 8.000000 -4.000000
v 1.000000 9.000000 -4.000000
v -0.000000 9.000000 -4.000000
v 1.000000 8.000000 -6.000000
v -0.000000 8.000000 -6.000000
v -0.000000 9.000000 -6.000000
v 4.000000 0.000000 -0.000000
v 4.000000 1.000000 -0.000000
v 4.000000 0.000000 -2.000000
v 4.000000 1.000000 -2.000000
v 4.000000 1.000000 -1.000000
v 4.000000 0.000000 -1.000000
v 4.000000 0.000000 1.000000
v 4.000000 1.000000 1.000000
v 3.000000 3.000000 1.000000
v 3.000000 3.000000 -0.000000
v 2.000000 3.000000 -0.000000
v 2.000000 3.000000 1.000000
v 2.000000 1.000000 -0.000000
v 2.000000 0.000000 -0.000000
v 2.000000 1.000000 -2.000000
v 2.000000 0.000000 -2.000000
v 2.000000 0.000000 -1.000000
v 2.000000 1.000000 -1.000000
v 2.000000 1.000000 1.000000
v 2.000000 0.000000 1.000000
v 1.000000 1.000000 -0.000000
v 1.000000 0.000000 -0.000000
v 1.000000 1.000000 -2.000000
v 1.000000 0.000000 -2.000000
v 1.000000 0.000000 -1.000000
v 1.000000 1.000000 -1.000000
v 1.000000 1.000000 1.000000
v 1.000000 0.000000 1.000000
v 3.000000 1.000000 -0.000000
v 3.000000 0.000000 -0.000000
v 3.000000 1.000000 -2.000000
v 3.000000 0.000000 -2.000000
v 3.000000 0.000000 -1.000000
v 3.000000 1.000000 -1.000000
v 3.000000 1.000000 1.000000
v 3.000000 0.000000 1.000000
v 2.000000 2.000000 1.000000
v 2.000000 2.000000 -0.000000
v 3.000000 2.000000 -0.000000
v 3.000000 2.000000 1.000000
v 0.000000 4.000000 5.000000
v 0.000000 6.000000 5.000000
v 1.000000 6.000000 5.000000
v 1.000000 4.000000 5.000000
v 0.000000 4.000000 6.000000
v 0.000000 6.000000 6.000000
v 1.000000 6.000000 6.000000
v 1.000000 4.000000 6.000000
v 1.000000 7.000000 5.000000
v 0.000000 7.000000 5.000000
v 1.000000 7.000000 6.000000
v 0.000000 7.000000 6.000000
v -3.000000 4.000000 1.000000
v -3.000000 6.000000 1.000000
v -3.000000 4.000000 4.000000
v -3.000000 6.000000 4.000000
v -4.000000 4.000000 1.000000
v -4.000000 6.000000 1.000000
v -4.000000 4.000000 4.000000
v -4.000000 6.000000 4.000000
v -3.000000 6.000000 2.500000
v -4.000000 6.000000 2.500000
v -4.000000 4.000000 2.500000
v -3.000000 6.000000 3.250000
v -3.000000 4.000000 3.250000
v -4.000000 6.000000 3.250000
v -4.000000 4.000000 3.250000
v -3.000000 6.000000 1.750000
v -4.000000 6.000000 1.750000
v -4.000000 4.000000 1.750000
v -3.000000 7.000000 4.000000
v -4.000000 7.000000 4.000000
v -3.000000 7.000000 3.250000
v -3.000000 7.000000 2.500000
v -4.000000 7.000000 3.250000
v -4.000000 7.000000 2.500000
v -3.000000 7.000000 1.750000
v -4.000000 7.000000 1.750000
v -3.000000 6.000000 5.000000
v -4.000000 6.000000 5.000000
v -3.000000 7.000000 5.000000
v -4.000000 7.000000 5.000000
v -3.000000 3.000000 1.000000
v -3.000000 3.000000 0.000000
v -2.000000 3.000000 0.000000
v -2.000000 3.000000 1.000000
v -3.000000 4.000000 1.000000
v -3.000000 4.000000 0.000000
v -2.000000 4.000000 0.000000
v -1.000000 6.000000 0.000000
v -2.000000 3.000000 -2.000000
v -3.000000 3.000000 -2.000000
v -2.000000 4.000000 -2.000000
v -3.000000 4.000000 -2.000000
v -3.000000 6.000000 1.000000
v -3.000000 6.000000 0.000000
v -2.000000 6.000000 0.000000
v -2.000000 6.000000 1.000000
v -2.000000 6.000000 -2.000000
v -3.000000 6.000000 -2.000000
v -3.000000 4.000000 -3.000000
v -3.000000 6.000000 -3.000000
v -2.000000 4.000000 -3.000000
v -2.000000 6.000000 -3.000000
v -2.000000 3.000000 4.000000
v -3.000000 3.000000 4.000000
v -2.000000 4.000000 4.000000
v -3.000000 4.000000 4.000000
v -2.000000 6.000000 4.000000
v -3.000000 6.000000 4.000000
v -1.000000 4.000000 0.000000
v -1.000000 3.000000 0.000000
v -1.000000 3.000000 1.000000
v -1.000000 6.000000 1.000000
v -1.000000 6.000000 4.000000
v -1.000000 4.000000 4.000000
v -1.000000 3.000000 4.000000
v -1.000000 4.000000 0.000000
v -1.000000 4.000000 -2.000000
v -1.000000 6.000000 -2.000000
v -1.000000 4.000000 -3.000000
v -1.000000 6.000000 -3.000000
v -2.000000 3.000000 -1.000000
v -3.000000 3.000000 -1.000000
v -3.000000 4.000000 -1.000000
v -2.000000 4.000000 -1.000000
v -3.000000 6.000000 -1.000000
v -2.000000 6.000000 -1.000000
v -1.000000 4.000000 -1.000000
v -1.000000 6.000000 -1.000000
v -1.000000 7.000000 -2.000000
v -1.000000 7.000000 -3.000000
v -1.000000 7.000000 -1.000000
v -1.000000 7.000000 -4.000000
v -1.000000 8.000000 -4.000000
v -2.000000 7.000000 -1.000000
v -2.000000 8.000000 -1.000000
v -2.000000 7.000000 -2.000000
v -2.000000 7.000000 -3.000000
v -2.000000 8.000000 -2.000000
v -2.000000 8.000000 -3.000000
v -2.000000 8.000000 -4.000000
v -2.000000 7.000000 -4.000000
v -1.000000 7.000000 0.000000
v -1.000000 8.000000 0.000000
v -2.000000 7.000000 0.000000
v -2.000000 8.000000 0.000000
v -1.000000 11.000000 -2.000000
v -2.000000 9.000000 -4.000000
v -1.000000 9.000000 -4.000000
v -2.000000 9.000000 -3.000000
v -2.000000 9.000000 -2.000000
v -2.000000 9.000000 -1.000000
v -1.000000 9.000000 0.000000
v -2.000000 9.000000 0.000000
v -2.000000 10.000000 -4.000000
v -1.000000 10.000000 -4.000000
v -2.000000 10.000000 -3.000000
v -2.000000 10.000000 -2.000000
v -2.000000 10.000000 -1.000000
v -1.000000 10.000000 0.000000
v -2.000000 10.000000 0.000000
v -1.000000 11.000000 -3.000000
v -1.000000 11.000000 -1.000000
v -2.000000 11.000000 -4.000000
v -1.000000 11.000000 -4.000000
v -2.000000 11.000000 -3.000000
v -2.000000 11.000000 -2.000000
v -2.000000 11.000000 -1.000000
v -1.000000 11.000000 0.000000
v -2.000000 11.000000 0.000000
v -2.000000 4.000000 5.000000
v -2.000000 6.000000 5.000000
v -1.000000 6.000000 5.000000
v -1.000000 4.000000 5.000000
v -4.000000 4.000000 1.000000
v -4.000000 6.000000 4.000000
v -2.000000 3.000000 2.500000
v -2.000000 6.000000 2.500000
v -3.000000 6.000000 2.500000
v -3.000000 4.000000 2.500000
v -3.000000 3.000000 2.500000
v -1.000000 6.000000 2.500000
v -1.000000 3.000000 2.500000
v -4.000000 4.000000 2.500000
v -2.000000 3.000000 3.250000
v -2.000000 6.000000 3.250000
v -3.000000 3.000000 3.250000
v -1.000000 6.000000 3.250000
v -3.000000 6.000000 3.250000
v -3.000000 4.000000 3.250000
v -1.000000 3.000000 3.250000
v -4.000000 4.000000 3.250000
v -3.000000 6.000000 1.750000
v -3.000000 4.000000 1.750000
v -1.000000 3.000000 1.750000
v -4.000000 4.000000 1.750000
v -2.000000 3.000000 1.750000
v -2.000000 6.000000 1.750000
v -3.000000 3.000000 1.750000
v -1.000000 6.000000 1.750000
v -3.000000 6.000000 5.000000
v -4.000000 6.000000 5.000000
v -2.000000 9.000000 -4.000000
v -1.000000 9.000000 -4.000000
v -2.000000 9.000000 -3.000000
v -2.000000 10.000000 -4.000000
v -1.000000 10.000000 -4.000000
v -2.000000 10.000000 -3.000000
v -1.000000 9.000000 -6.000000
v -1.000000 8.000000 -4.000000
v -1.000000 9.000000 -4.000000
v -1.000000 8.000000 -6.000000
v -4.000000 0.000000 0.000000
v -4.000000 1.000000 0.000000
v -4.000000 0.000000 -2.000000
v -4.000000 1.000000 -2.000000
v -4.000000 1.000000 -1.000000
v -4.000000 0.000000 -1.000000
v -4.000000 0.000000 1.000000
v -4.000000 1.000000 1.000000
v -3.000000 3.000000 1.000000
v -3.000000 3.000000 0.000000
v -2.000000 3.000000 0.000000
v -2.000000 3.000000 1.000000
v -2.000000 1.000000 0.000000
v -2.000000 0.000000 0.000000
v -2.000000 1.000000 -2.000000
v -2.000000 0.000000 -2.000000
v -2.000000 0.000000 -1.000000
v -2.000000 1.000000 -1.000000
v -2.000000 1.000000 1.000000
v -2.000000 0.000000 1.000000
v -1.000000 1.000000 0.000000
v -1.000000 0.000000 0.000000
v -1.000000 1.000000 -2.000000
v -1.000000 0.000000 -2.000000
v -1.000000 0.000000 -1.000000
v -1.000000 1.000000 -1.000000
v -1.000000 1.000000 1.000000
v -1.000000 0.000000 1.000000
v -3.000000 1.000000 0.000000
v -3.000000 0.000000 0.000000
v -3.000000 1.000000 -2.000000
v -3.000000 0.000000 -2.000000
v -3.000000 0.000000 -1.000000
v -3.000000 1.000000 -1.000000
v -3.000000 1.000000 1.000000
v -3.000000 0.000000 1.000000
v -2.000000 2.000000 1.000000
v -2.000000 2.000000 0.000000
v -3.000000 2.000000 0.000000
v -3.000000 2.000000 1.000000
v -1.000000 6.000000 5.000000
v -1.000000 4.000000 5.000000
v -1.000000 6.000000 6.000000
v -1.000000 4.000000 6.000000
v -1.000000 7.000000 5.000000
v -1.000000 7.000000 6.000000
vn -0.0000 -0.0000 -1.0000
vn 1.0000 -0.0000 -0.0000
vn -0.0000 -0.0000 1.0000
vn -1.0000 -0.0000 -0.0000
vn -0.0000 -1.0000 -0.0000
vn -0.0000 1.0000 -0.0000
vt 0.486980 1.658713
vt 0.507427 1.658713
vt 0.507427 1.822286
vt 0.486980 1.822286
vt 0.706782 1.254892
vt 0.706782 1.582038
vt 0.691447 1.582038
vt 0.691447 1.254892
vt 0.507427 1.316232
vt 0.507427 1.643378
vt 0.486980 1.643378
vt 0.486980 1.316232
vt 0.507427 1.582038
vt 0.507427 1.254892
vt 0.527874 1.254892
vt 0.527874 1.582038
vt 0.737452 1.254892
vt 0.737452 1.582038
vt 0.722117 1.582038
vt 0.722117 1.254892
vt 0.824350 1.582038
vt 0.839685 1.582038
vt 0.839685 1.745611
vt 0.824350 1.745611
vt 0.507427 1.254892
vt 0.507427 1.270227
vt 0.486980 1.270227
vt 0.486980 1.254892
vt 0.737452 1.745611
vt 0.722117 1.745611
vt 0.752787 1.254892
vt 0.752787 1.582038
vt 0.527874 1.796728
vt 0.527874 1.812062
vt 0.507427 1.812062
vt 0.507427 1.796728
vt 0.527874 1.766058
vt 0.527874 1.781392
vt 0.507427 1.781392
vt 0.507427 1.766058
vt 0.793680 1.582038
vt 0.809015 1.582038
vt 0.809015 1.745611
vt 0.793680 1.745611
vt 0.527874 1.832509
vt 0.507427 1.832509
vt 0.706782 1.745611
vt 0.691447 1.745611
vt 0.507427 1.602485
vt 0.527874 1.602485
vt 0.671000 1.745611
vt 0.671000 1.582038
vt 0.860131 1.582038
vt 0.860131 1.745611
vt 0.302447 1.303291
vt 0.286106 1.319767
vt 0.269650 1.304121
vt 0.285681 1.287220
vt 0.793680 1.582038
vt 0.793680 1.909184
vt 0.773233 1.909184
vt 0.773233 1.582038
vt 0.589214 1.254892
vt 0.609660 1.254892
vt 0.609660 1.418465
vt 0.589214 1.418465
vt 0.353423 1.850132
vt 0.326563 1.842910
vt 0.342512 1.824388
vt 0.359289 1.829953
vt 0.400200 1.897581
vt 0.400890 1.876316
vt 0.416658 1.876883
vt 0.416039 1.898104
vt 0.167109 1.333654
vt 0.191134 1.333269
vt 0.198813 1.529944
vt 0.170188 1.525852
vt 0.630107 1.418465
vt 0.630107 1.254892
vt 0.650554 1.254892
vt 0.650553 1.418465
vt 0.650553 1.745611
vt 0.630107 1.745611
vt 0.302482 1.336971
vt 0.273277 1.358423
vt 0.256156 1.347990
vt 0.320702 1.874168
vt 0.350083 1.874241
vt 0.352077 1.897684
vt 0.329023 1.901263
vt 0.293286 1.890622
vt 0.307064 1.913672
vt 0.285384 1.928540
vt 0.270173 1.906588
vt 0.269763 1.557694
vt 0.298244 1.845787
vt 0.275402 1.834035
vt 0.255945 1.578155
vt 0.309591 1.521227
vt 0.333872 1.521360
vt 0.609660 1.745611
vt 0.589213 1.745611
vt 0.253733 1.884775
vt 0.248291 1.922414
vt 0.232192 1.900873
vt 0.238828 1.464502
vt 0.225617 1.462432
vt 0.239238 1.337598
vt 0.288090 1.520682
vt 0.253187 1.464135
vt 0.240306 1.522023
vt 0.240720 1.574808
vt 0.254011 1.845784
vt 0.241773 1.552433
vt 0.671000 1.418465
vt 0.671000 1.745611
vt 0.234137 1.846509
vt 0.262202 2.025695
vt 0.239713 2.026718
vt 0.161119 1.551082
vt 0.179364 1.556744
vt 0.174532 1.846553
vt 0.156150 1.846263
vt 0.192910 1.846825
vt 0.197740 1.571261
vt 0.211727 1.583251
vt 0.210920 1.847005
vt 0.224963 1.576572
vt 0.216472 1.557632
vt 0.263774 1.944024
vt 0.464720 1.342062
vt 0.486980 1.342062
vt 0.486980 1.520148
vt 0.464720 1.520148
vt 0.486980 1.876318
vt 0.464720 1.876318
vt 0.389872 1.289732
vt 0.381797 1.260656
vt 0.403910 1.254892
vt 0.411595 1.284376
vt 0.543209 1.254892
vt 0.543209 1.418465
vt 0.527874 1.418465
vt 0.527874 1.254892
vt 0.323794 1.352083
vt 0.342617 1.336824
vt 0.353834 1.356053
vt 0.338794 1.361769
vt 0.357977 1.520871
vt 0.404560 1.520174
vt 0.402018 1.343866
vt 0.420198 1.342062
vt 0.420198 1.520148
vt 0.403320 1.834862
vt 0.418399 1.835593
vt 0.442459 1.342062
vt 0.442459 1.520148
vt 0.397075 1.317751
vt 0.417620 1.313994
vt 0.370268 1.852676
vt 0.373588 1.832229
vt 0.368176 1.874904
vt 0.326420 1.313273
vt 0.314875 1.844017
vt 0.417505 1.856079
vt 0.438143 1.856847
vt 0.437385 1.877698
vt 0.275203 1.868062
vt 0.276500 1.844760
vt 0.298989 1.843736
vt 0.307179 2.023647
vt 0.284690 2.024671
vt 0.319341 1.319908
vt 0.140238 1.889290
vt 0.120413 1.889290
vt 0.120413 1.730691
vt 0.140238 1.730691
vt 0.691447 1.806951
vt 0.711893 1.806951
vt 0.711893 1.827397
vt 0.691447 1.827397
vt 0.217117 2.027745
vt 0.321478 1.842712
vt 0.329668 2.022623
vt 0.188301 1.847778
vt 0.194488 2.028728
vt 0.199712 1.730691
vt 0.179887 1.730691
vt 0.179887 1.572091
vt 0.199712 1.572091
vt 0.259187 1.730691
vt 0.239362 1.730691
vt 0.239362 1.572091
vt 0.259187 1.572091
vt 0.711893 1.766058
vt 0.691447 1.766058
vt 0.691447 1.745611
vt 0.711893 1.745611
vt 0.160062 1.889290
vt 0.160062 1.730691
vt 0.298837 1.730691
vt 0.279012 1.730691
vt 0.279012 1.572091
vt 0.298837 1.572091
vt 0.120413 1.572091
vt 0.140238 1.572091
vt 0.378137 2.047890
vt 0.358312 2.047890
vt 0.358312 1.889290
vt 0.378137 1.889290
vt 0.219537 1.730691
vt 0.219537 1.572091
vt 0.179887 1.889290
vt 0.239362 1.889290
vt 0.219537 1.889290
vt 0.199712 1.889290
vt 0.732340 1.745611
vt 0.732340 1.766058
vt 0.397962 1.889290
vt 0.397962 2.047890
vt 0.711893 1.786504
vt 0.732340 1.786504
vt 0.732340 1.806951
vt 0.100588 1.889290
vt 0.100588 1.730691
vt 0.298837 1.889290
vt 0.279012 1.889290
vt 0.259187 1.889290
vt 0.160062 1.572091
vt 0.378137 1.730691
vt 0.397962 1.730691
vt 0.732340 1.827397
vt 0.160062 1.413492
vt 0.179887 1.413492
vt 0.120413 1.413492
vt 0.140238 1.413492
vt 0.239362 1.413492
vt 0.259187 1.413492
vt 0.279012 1.413492
vt 0.298837 1.413492
vt 0.219537 1.413492
vt 0.100588 1.572091
vt 0.839067 1.889290
vt 0.839067 1.730691
vt 0.878716 1.730691
vt 0.878716 1.889290
vt 0.160062 1.254892
vt 0.179887 1.254892
vt 0.120413 1.254892
vt 0.140238 1.254892
vt 0.239362 1.254892
vt 0.259187 1.254892
vt 0.199712 1.413492
vt 0.199712 1.254892
vt 0.437612 1.889290
vt 0.417787 1.889290
vt 0.417787 1.730691
vt 0.437612 1.730691
vt 0.279012 1.254892
vt 0.298837 1.254892
vt 0.219537 1.254892
vt 0.100588 1.413492
vt 0.417787 2.047890
vt 0.397962 1.889290
vt 0.893585 2.028065
vt 0.893585 2.008240
vt 0.913410 2.008240
vt 0.913410 2.028065
vt 0.893585 1.988415
vt 0.913410 1.988415
vt 0.873760 2.008240
vt 0.873760 1.988415
vt 0.873760 2.028065
vt 0.893585 1.968590
vt 0.873760 1.968590
vt 0.913410 1.968590
vt 0.893585 2.047890
vt 0.873760 2.047890
vt 0.913410 2.047890
vt 0.100588 1.254892
vt 0.752787 1.909184
vt 0.752787 1.582038
vt 0.438711 1.836094
vt 0.420275 1.500406
vt 0.440017 1.500483
vt 0.439940 1.520225
vt 0.420352 1.480664
vt 0.440094 1.480741
vt 0.100588 2.007777
vt 0.116019 1.272410
vt 0.110078 2.006018
vt 0.116481 2.103013
vt 0.115915 2.104226
vt 0.507427 1.300897
vt 0.486980 1.300897
vt 0.507427 1.285562
vt 0.486980 1.285562
vt 0.347833 1.303404
vt 0.368754 1.295862
vt 0.377758 1.322598
vt 0.359510 1.328799
vt 0.384841 1.875634
vt 0.386299 1.854254
vt 0.401975 1.855324
vt 0.388348 1.833783
vt 0.384658 1.347013
vt 0.368436 1.351170
vt 0.373443 1.520561
vt 0.388970 1.520319
vt 0.573879 1.254892
vt 0.573879 1.418465
vt 0.558544 1.418465
vt 0.558544 1.254892
vt 0.336903 1.274449
vt 0.359474 1.266976
vt 0.368329 1.896997
vt 0.384329 1.897137
vt 0.314250 1.283291
vt 1.162732 2.047890
vt 1.142907 2.047890
vt 1.142907 1.889290
vt 1.162732 1.889290
vt 1.182557 2.047890
vt 1.182557 1.889290
vt 1.222362 2.320947
vt 1.202537 2.320947
vt 1.202537 2.162348
vt 1.222362 2.162348
vt 1.162887 2.162348
vt 1.162887 2.320947
vt 1.123237 2.320947
vt 1.123237 2.162348
vt 1.243232 2.162580
vt 1.263057 2.162580
vt 1.263057 2.202230
vt 1.243232 2.202230
vt 1.263057 2.241879
vt 1.243232 2.241879
vt 0.732340 1.847844
vt 0.711893 1.847844
vt 0.732340 1.827397
vt 0.711893 1.888737
vt 0.711893 1.909184
vt 0.691447 1.909184
vt 0.691447 1.888737
vt 0.527874 1.950077
vt 0.691447 1.950077
vt 0.691447 1.970524
vt 0.527874 1.970524
vt 0.711893 1.929631
vt 0.711893 1.950077
vt 0.691447 1.950077
vt 0.691447 1.929631
vt 0.527874 1.929631
vt 0.691447 1.929631
vt 0.752787 1.847844
vt 0.752787 1.827397
vt 0.691447 1.990970
vt 0.527874 1.990970
vt 0.691447 1.847844
vt 0.691447 1.827397
vt 0.752787 1.418465
vt 0.773233 1.418465
vt 0.773233 1.582038
vt 0.752787 1.582038
vt 0.691447 1.868291
vt 0.711893 1.868291
vt 0.752787 1.888737
vt 0.732340 1.888737
vt 0.732340 1.868291
vt 0.752787 1.868291
vt 0.752787 1.929631
vt 0.732340 1.929631
vt 0.732340 1.909184
vt 0.752787 1.950077
vt 0.732340 1.950077
vt 0.752787 1.888737
vt 0.732340 1.888737
vt 0.814126 1.418465
vt 0.834573 1.418465
vt 0.834573 1.582038
vt 0.814126 1.582038
vt 0.773233 1.254892
vt 0.793680 1.254892
vt 0.793680 1.418465
vt 0.527874 1.909184
vt 0.691447 1.909184
vt 0.527874 1.888737
vt 0.691447 1.888737
vt 0.527874 1.868291
vt 0.691447 1.868291
vt 0.527874 1.847844
vt 0.527874 1.827397
vt 0.527874 1.806951
vt 0.691447 1.786504
vt 0.527874 1.786504
vt 0.527874 1.745611
vt 0.814126 1.254892
vt 0.834573 1.254892
vt 0.156150 1.262693
vt 0.137459 1.275323
vt 0.119493 2.006215
vt 0.128801 2.008337
vt 0.116772 2.107365
vt 0.117203 2.104137
s 0
usemtl YELLOW2
f 17/1/1 16/2/1 25/3/1 26/4/1
f 15/5/2 14/6/2 8/7/2 7/8/2
f 1/9/1 2/10/1 6/11/1 5/12/1
f 4/13/3 3/14/3 7/15/3 8/16/3
f 18/17/2 17/18/2 10/19/2 11/20/2
f 12/21/4 4/22/4 19/23/4 21/24/4
f 3/25/5 13/26/5 15/27/5 7/28/5
f 11/20/2 10/19/2 14/6/2 15/5/2
f 10/19/2 17/18/2 26/29/2 24/30/2
f 2/10/6 16/2/6 17/1/6 6/11/6
f 5/31/2 6/32/2 17/18/2 18/17/2
f 21/33/6 19/34/6 20/35/6 23/36/6
f 25/37/6 22/38/6 24/39/6 26/40/6
f 22/38/6 21/33/6 23/36/6 24/39/6
f 16/41/4 9/42/4 22/43/4 25/44/4
f 9/42/4 12/21/4 21/24/4 22/43/4
f 20/35/6 19/34/6 29/45/6 30/46/6
f 8/7/2 14/6/2 23/47/2 20/48/2
f 14/6/2 10/19/2 24/30/2 23/47/2
f 27/49/3 28/50/3 30/37/3 29/40/3
f 8/7/2 20/48/2 30/51/2 28/52/2
f 19/23/4 4/22/4 27/53/4 29/54/4
f 271/281/5 274/401/5 278/402/5 275/291/5
f 278/402/3 277/403/3 276/292/3 275/291/3
f 274/401/2 273/404/2 277/403/2 278/402/2
f 279/405/6 280/294/6 282/293/6 281/406/6
f 277/403/2 273/404/2 279/405/2 281/406/2
f 273/404/1 272/290/1 280/294/1 279/405/1
f 276/292/3 277/403/3 281/406/3 282/293/3
f 299/1/1 308/4/1 307/3/1 298/2/1
f 297/5/4 289/8/4 290/7/4 296/6/4
f 283/9/1 287/12/1 288/11/1 284/10/1
f 286/13/3 290/16/3 289/15/3 285/14/3
f 300/17/4 293/20/4 292/19/4 299/18/4
f 294/21/2 303/24/2 301/23/2 286/22/2
f 285/25/5 289/28/5 297/27/5 295/26/5
f 293/20/4 297/5/4 296/6/4 292/19/4
f 292/19/4 306/30/4 308/29/4 299/18/4
f 284/10/6 288/11/6 299/1/6 298/2/6
f 287/31/4 300/17/4 299/18/4 288/32/4
f 303/33/6 305/36/6 302/35/6 301/34/6
f 307/37/6 308/40/6 306/39/6 304/38/6
f 304/38/6 306/39/6 305/36/6 303/33/6
f 298/41/2 307/44/2 304/43/2 291/42/2
f 291/42/2 304/43/2 303/24/2 294/21/2
f 302/35/6 312/46/6 311/45/6 301/34/6
f 290/7/4 302/48/4 305/47/4 296/6/4
f 296/6/4 305/47/4 306/30/4 292/19/4
f 309/49/3 311/40/3 312/37/3 310/50/3
f 290/7/4 310/52/4 312/51/4 302/48/4
f 301/23/2 311/54/2 309/53/2 286/22/2
f 271/281/5 275/291/5 487/402/5 485/401/5
f 487/402/3 275/291/3 276/292/3 486/403/3
f 485/401/4 487/402/4 486/403/4 484/404/4
f 488/405/6 489/406/6 282/293/6 280/294/6
f 486/403/4 489/406/4 488/405/4 484/404/4
f 484/404/1 488/405/1 280/294/1 272/290/1
f 276/292/3 282/293/3 489/406/3 486/403/3
usemtl YELLOW
f 91/55/5 90/56/5 39/57/5 40/58/5
f 65/59/2 67/60/2 171/61/2 170/62/2
f 31/63/2 32/64/2 36/65/2 35/66/2
f 81/67/6 38/68/6 75/69/6 74/70/6
f 199/71/6 194/72/6 67/73/6 68/74/6
f 40/75/1 39/76/1 41/77/1 42/78/1
f 92/79/2 91/80/2 40/81/2 42/82/2
f 92/79/2 42/82/2 48/83/2 94/84/2
f 90/56/5 33/85/5 49/86/5 96/87/5
f 45/88/6 46/89/6 43/90/6 44/91/6
f 95/92/6 94/93/6 48/94/6 47/95/6
f 85/96/3 38/97/3 56/98/3 54/99/3
f 38/68/1 78/100/1 73/101/1 75/69/1
f 35/66/2 36/65/2 44/102/2 43/103/2
f 87/104/6 47/95/6 60/105/6 89/106/6
f 96/87/4 97/107/4 52/108/4 51/109/4
f 41/77/1 39/76/1 51/109/1 52/108/1
f 33/85/3 37/110/3 50/111/3 49/86/3
f 93/112/6 41/77/6 52/108/6 97/107/6
f 98/113/4 54/99/4 56/98/4 99/114/4
f 100/115/5 85/96/5 54/99/5 98/113/5
f 48/83/2 42/82/2 57/116/2 58/117/2
f 55/118/4 99/114/4 106/119/4 103/120/4
f 57/121/1 59/122/1 60/123/1 58/124/1
f 89/125/1 88/126/1 62/127/1 61/128/1
f 53/129/4 55/118/4 61/128/4 62/127/4
f 86/130/5 53/129/5 62/127/5 88/126/5
f 42/78/5 41/77/5 59/122/5 57/121/5
f 47/95/6 48/94/6 58/131/6 60/105/6
f 63/132/3 64/133/3 66/134/3 65/135/3
f 65/135/3 66/134/3 68/136/3 67/137/3
f 193/138/5 195/139/5 64/140/5 63/141/5
f 195/142/2 200/143/2 66/144/2 64/145/2
f 79/146/5 80/147/5 69/148/5 70/149/5
f 73/101/4 72/150/4 74/70/4 75/69/4
f 70/149/4 69/148/4 72/150/4 73/101/4
f 201/151/4 196/152/4 71/153/4 76/154/4
f 197/155/4 201/151/4 76/154/4 77/156/4
f 84/157/3 83/158/3 76/154/3 71/153/3
f 78/100/1 79/146/1 70/149/1 73/101/1
f 202/159/5 84/160/5 71/153/5 196/152/5
f 214/161/6 81/67/6 74/70/6 213/162/6
f 210/163/6 46/89/6 81/67/6 214/161/6
f 193/138/5 63/141/5 84/160/5 202/159/5
f 37/110/1 33/85/1 79/146/1 78/100/1
f 63/132/3 65/135/3 83/158/3 84/157/3
f 33/85/5 34/164/5 80/147/5 79/146/5
f 45/165/1 37/110/1 78/100/1 38/68/1
f 46/89/6 45/88/6 38/68/6 81/67/6
f 67/73/6 82/166/6 174/167/6 171/168/6
f 41/77/5 86/130/5 88/126/5 59/122/5
f 60/123/1 59/122/1 88/126/1 89/125/1
f 95/92/6 47/95/6 87/104/6 101/169/6
f 93/112/5 37/110/5 85/96/5 100/115/5
f 101/170/2 87/171/2 104/172/2 107/173/2
f 37/110/3 45/165/3 38/97/3 85/96/3
f 41/77/5 93/112/5 100/115/5 86/130/5
f 45/88/6 95/92/6 101/169/6 38/97/6
f 38/97/6 101/169/6 99/114/6 56/98/6
f 86/130/5 100/115/5 98/113/5 53/129/5
f 53/129/4 98/113/4 99/114/4 55/118/4
f 37/110/6 93/112/6 97/107/6 50/111/6
f 49/86/4 50/111/4 97/107/4 96/87/4
f 45/88/6 44/91/6 94/93/6 95/92/6
f 39/57/5 90/56/5 96/87/5 51/109/5
f 36/65/2 92/79/2 94/84/2 44/102/2
f 36/65/2 32/64/2 91/80/2 92/79/2
f 32/174/5 33/85/5 90/56/5 91/55/5
f 103/175/4 106/176/4 111/177/4 109/178/4
f 106/179/5 107/180/5 125/181/5 127/182/5
f 61/128/4 55/118/4 103/120/4 102/183/4
f 87/171/2 89/184/2 105/185/2 104/172/2
f 99/114/3 101/170/3 107/173/3 106/119/3
f 89/186/1 61/128/1 102/183/1 105/187/1
f 122/188/2 123/189/2 137/190/2 139/191/2
f 130/192/2 118/193/2 142/194/2 145/195/2
f 105/196/5 102/197/5 113/198/5 114/199/5
f 102/200/4 103/175/4 109/178/4 108/201/4
f 128/202/3 126/203/3 143/204/3 144/205/3
f 109/178/4 111/177/4 135/206/4 132/207/4
f 114/208/1 113/209/1 115/210/1 116/211/1
f 118/193/2 121/212/2 141/213/2 142/194/2
f 126/203/3 130/192/3 145/195/3 143/204/3
f 102/200/4 108/201/4 115/189/4 113/214/4
f 117/215/2 119/216/2 121/212/2 118/193/2
f 119/216/2 120/217/2 122/188/2 121/212/2
f 122/188/2 120/217/2 124/214/2 123/189/2
f 105/196/5 114/199/5 124/218/5 120/219/5
f 114/208/1 116/211/1 123/220/1 124/221/1
f 107/180/5 104/222/5 119/223/5 117/224/5
f 104/222/5 105/196/5 120/219/5 119/223/5
f 111/177/4 106/176/4 127/225/4 128/226/4
f 127/227/3 125/228/3 126/203/3 128/202/3
f 126/203/3 125/228/3 129/229/3 130/192/3
f 108/201/4 109/178/4 132/207/4 131/230/4
f 123/220/1 116/211/1 138/231/1 137/232/1
f 107/180/5 117/224/5 129/233/5 125/181/5
f 117/215/2 118/193/2 130/192/2 129/229/2
f 140/190/4 131/230/4 112/234/4 151/235/4
f 132/207/4 135/206/4 146/236/4 110/237/4
f 145/195/2 142/194/2 153/238/2 156/239/2
f 144/205/3 143/204/3 154/240/3 155/241/3
f 131/230/4 132/207/4 110/237/4 112/234/4
f 142/194/2 141/213/2 152/242/2 153/238/2
f 115/189/4 108/201/4 131/230/4 140/190/4
f 111/177/4 128/226/4 144/243/4 135/206/4
f 121/212/2 122/188/2 139/191/2 141/213/2
f 115/244/4 140/245/4 169/246/4 147/247/4
f 151/235/4 112/234/4 136/248/4 163/249/4
f 110/237/4 146/236/4 158/250/4 134/251/4
f 156/239/2 153/238/2 165/252/2 168/253/2
f 150/254/2 148/235/2 160/249/2 162/255/2
f 148/256/1 149/257/1 161/258/1 160/259/1
f 155/241/3 154/240/3 166/260/3 167/261/3
f 112/234/4 110/237/4 134/251/4 136/248/4
f 153/238/2 152/242/2 164/262/2 165/252/2
f 143/204/3 145/195/3 156/239/3 154/240/3
f 141/213/2 139/191/2 150/254/2 152/242/2
f 135/206/4 144/243/4 155/263/4 146/236/4
f 138/264/1 140/221/1 151/265/1 149/257/1
f 159/266/6 133/267/6 134/268/6 158/269/6
f 134/268/6 133/267/6 157/270/6 136/271/6
f 157/270/6 133/267/6 164/272/6 162/273/6
f 133/267/6 159/266/6 165/274/6 164/272/6
f 161/275/6 157/270/6 162/273/6 160/276/6
f 136/271/6 157/270/6 161/275/6 163/277/6
f 165/274/6 159/266/6 166/278/6 168/279/6
f 159/266/6 158/269/6 167/280/6 166/278/6
f 154/240/3 156/239/3 168/253/3 166/260/3
f 152/242/2 150/254/2 162/255/2 164/262/2
f 146/236/4 155/263/4 167/281/4 158/250/4
f 149/257/1 151/265/1 163/232/1 161/258/1
f 170/62/3 171/61/3 174/282/3 175/283/3
f 82/166/6 77/156/6 173/284/6 174/167/6
f 76/154/5 83/285/5 175/286/5 172/287/5
f 77/156/4 76/154/4 172/287/4 173/284/4
f 83/285/5 65/288/5 170/289/5 175/286/5
f 173/290/4 172/281/4 176/291/4 177/292/4
f 173/290/4 177/292/4 179/293/4 178/294/4
f 205/295/5 35/9/5 180/12/5 208/296/5
f 200/26/5 185/297/5 192/298/5 203/27/5
f 209/299/5 182/300/5 191/301/5 207/302/5
f 194/72/6 183/303/6 190/304/6 198/305/6
f 198/305/6 190/304/6 189/306/6 197/155/6
f 207/302/5 191/301/5 187/307/5 212/308/5
f 213/162/4 206/309/4 188/310/4 189/306/4
f 206/309/4 212/308/4 187/307/4 188/310/4
f 211/311/2 205/312/2 185/313/2 186/314/2
f 209/299/5 211/315/5 186/316/5 182/300/5
f 204/317/6 210/163/6 183/303/6 184/318/6
f 82/166/6 198/305/6 197/155/6 77/156/6
f 67/73/6 194/72/6 198/305/6 82/166/6
f 182/300/5 193/138/5 202/159/5 191/301/5
f 191/301/5 202/159/5 196/152/5 187/307/5
f 189/306/4 188/310/4 201/151/4 197/155/4
f 188/310/4 187/307/4 196/152/4 201/151/4
f 186/314/2 185/313/2 200/143/2 195/142/2
f 182/300/5 186/316/5 195/139/5 193/138/5
f 184/318/6 183/303/6 194/72/6 199/71/6
f 43/90/6 46/89/6 210/163/6 204/317/6
f 34/164/5 31/319/5 211/315/5 209/299/5
f 31/63/2 35/66/2 205/312/2 211/311/2
f 72/150/4 69/148/4 212/308/4 206/309/4
f 74/70/4 72/150/4 206/309/4 213/162/4
f 80/147/5 207/302/5 212/308/5 69/148/5
f 34/164/5 209/299/5 207/302/5 80/147/5
f 185/297/5 205/295/5 208/296/5 192/298/5
f 183/303/6 210/163/6 214/161/6 190/304/6
f 190/304/6 214/161/6 213/162/6 189/306/6
f 68/13/5 181/16/5 216/50/5 215/49/5
f 354/55/5 322/58/5 321/57/5 353/56/5
f 337/59/4 402/62/4 403/61/4 339/60/4
f 313/63/4 317/66/4 318/65/4 314/64/4
f 344/67/6 74/70/6 75/69/6 320/68/6
f 420/71/6 340/74/6 339/73/6 417/72/6
f 322/75/1 324/78/1 323/77/1 321/76/1
f 355/79/4 324/82/4 322/81/4 354/80/4
f 355/79/4 357/84/4 330/83/4 324/82/4
f 353/56/5 96/87/5 49/86/5 315/85/5
f 327/88/6 326/91/6 325/90/6 328/89/6
f 358/92/6 329/95/6 330/94/6 357/93/6
f 348/96/3 54/99/3 56/98/3 320/97/3
f 320/68/1 75/69/1 73/101/1 341/100/1
f 317/66/4 325/103/4 326/102/4 318/65/4
f 350/104/6 352/106/6 334/105/6 329/95/6
f 323/77/1 52/108/1 51/109/1 321/76/1
f 315/85/3 49/86/3 50/111/3 319/110/3
f 356/112/6 97/107/6 52/108/6 323/77/6
f 359/115/5 98/113/5 54/99/5 348/96/5
f 330/83/4 332/117/4 331/116/4 324/82/4
f 331/121/1 332/124/1 334/123/1 333/122/1
f 352/125/1 61/128/1 62/127/1 351/126/1
f 349/130/5 351/126/5 62/127/5 53/129/5
f 324/78/5 331/121/5 333/122/5 323/77/5
f 329/95/6 334/105/6 332/131/6 330/94/6
f 335/132/3 337/135/3 338/134/3 336/133/3
f 337/135/3 339/137/3 340/136/3 338/134/3
f 416/138/5 335/141/5 336/140/5 418/139/5
f 418/142/4 336/145/4 338/144/4 421/143/4
f 342/146/5 70/149/5 69/148/5 343/147/5
f 347/157/3 71/153/3 76/154/3 346/158/3
f 341/100/1 73/101/1 70/149/1 342/146/1
f 422/159/5 196/152/5 71/153/5 347/160/5
f 431/161/6 213/162/6 74/70/6 344/67/6
f 429/163/6 431/161/6 344/67/6 328/89/6
f 416/138/5 422/159/5 347/160/5 335/141/5
f 319/110/1 341/100/1 342/146/1 315/85/1
f 335/132/3 347/157/3 346/158/3 337/135/3
f 315/85/5 342/146/5 343/147/5 316/164/5
f 327/165/1 320/68/1 341/100/1 319/110/1
f 328/89/6 344/67/6 320/68/6 327/88/6
f 339/73/6 403/168/6 404/167/6 345/166/6
f 323/77/5 333/122/5 351/126/5 349/130/5
f 334/123/1 352/125/1 351/126/1 333/122/1
f 358/92/6 360/169/6 350/104/6 329/95/6
f 356/112/5 359/115/5 348/96/5 319/110/5
f 360/170/4 363/173/4 361/172/4 350/171/4
f 319/110/3 348/96/3 320/97/3 327/165/3
f 323/77/5 349/130/5 359/115/5 356/112/5
f 327/88/6 320/97/6 360/169/6 358/92/6
f 320/97/6 56/98/6 99/114/6 360/169/6
f 349/130/5 53/129/5 98/113/5 359/115/5
f 319/110/6 50/111/6 97/107/6 356/112/6
f 327/88/6 358/92/6 357/93/6 326/91/6
f 321/57/5 51/109/5 96/87/5 353/56/5
f 318/65/4 326/102/4 357/84/4 355/79/4
f 318/65/4 355/79/4 354/80/4 314/64/4
f 314/174/5 354/55/5 353/56/5 315/85/5
f 106/179/5 127/182/5 374/181/5 363/180/5
f 350/171/4 361/172/4 362/185/4 352/184/4
f 99/114/3 106/119/3 363/173/3 360/170/3
f 352/186/1 362/187/1 102/183/1 61/128/1
f 371/188/4 381/191/4 379/190/4 372/189/4
f 377/192/4 385/195/4 383/194/4 367/193/4
f 362/196/5 364/199/5 113/198/5 102/197/5
f 128/202/3 144/205/3 384/204/3 375/203/3
f 364/208/1 365/211/1 115/210/1 113/209/1
f 367/193/4 383/194/4 382/213/4 370/212/4
f 375/203/3 384/204/3 385/195/3 377/192/3
f 366/215/4 367/193/4 370/212/4 368/216/4
f 368/216/4 370/212/4 371/188/4 369/217/4
f 371/188/4 372/189/4 373/214/4 369/217/4
f 362/196/5 369/219/5 373/218/5 364/199/5
f 364/208/1 373/221/1 372/220/1 365/211/1
f 363/180/5 366/224/5 368/223/5 361/222/5
f 361/222/5 368/223/5 369/219/5 362/196/5
f 127/227/3 128/202/3 375/203/3 374/228/3
f 375/203/3 377/192/3 376/229/3 374/228/3
f 372/220/1 379/232/1 380/231/1 365/211/1
f 363/180/5 374/181/5 376/233/5 366/224/5
f 366/215/4 376/229/4 377/192/4 367/193/4
f 385/195/4 392/239/4 390/238/4 383/194/4
f 144/205/3 155/241/3 391/240/3 384/204/3
f 383/194/4 390/238/4 389/242/4 382/213/4
f 370/212/4 382/213/4 381/191/4 371/188/4
f 392/239/4 401/253/4 399/252/4 390/238/4
f 388/254/4 397/255/4 395/249/4 386/235/4
f 386/256/1 395/259/1 396/258/1 387/257/1
f 155/241/3 167/261/3 400/260/3 391/240/3
f 390/238/4 399/252/4 398/262/4 389/242/4
f 384/204/3 391/240/3 392/239/3 385/195/3
f 382/213/4 389/242/4 388/254/4 381/191/4
f 380/264/1 387/257/1 151/265/1 140/221/1
f 394/266/6 158/269/6 134/268/6 378/267/6
f 134/268/6 136/271/6 393/270/6 378/267/6
f 393/270/6 397/273/6 398/272/6 378/267/6
f 378/267/6 398/272/6 399/274/6 394/266/6
f 396/275/6 395/276/6 397/273/6 393/270/6
f 136/271/6 163/277/6 396/275/6 393/270/6
f 399/274/6 401/279/6 400/278/6 394/266/6
f 394/266/6 400/278/6 167/280/6 158/269/6
f 391/240/3 400/260/3 401/253/3 392/239/3
f 389/242/4 398/262/4 397/255/4 388/254/4
f 387/257/1 396/258/1 163/232/1 151/265/1
f 402/62/3 405/283/3 404/282/3 403/61/3
f 345/166/6 404/167/6 173/284/6 77/156/6
f 76/154/5 172/287/5 405/286/5 346/285/5
f 346/285/5 405/286/5 402/289/5 337/288/5
f 425/295/5 427/296/5 406/12/5 317/9/5
f 421/26/5 423/27/5 415/298/5 411/297/5
f 428/299/5 426/302/5 414/301/5 408/300/5
f 417/72/6 419/305/6 413/304/6 409/303/6
f 419/305/6 197/155/6 189/306/6 413/304/6
f 426/302/5 212/308/5 187/307/5 414/301/5
f 430/311/4 412/314/4 411/313/4 425/312/4
f 428/299/5 408/300/5 412/316/5 430/315/5
f 424/317/6 410/318/6 409/303/6 429/163/6
f 345/166/6 77/156/6 197/155/6 419/305/6
f 339/73/6 345/166/6 419/305/6 417/72/6
f 408/300/5 414/301/5 422/159/5 416/138/5
f 414/301/5 187/307/5 196/152/5 422/159/5
f 412/314/4 418/142/4 421/143/4 411/313/4
f 408/300/5 416/138/5 418/139/5 412/316/5
f 410/318/6 420/71/6 417/72/6 409/303/6
f 325/90/6 424/317/6 429/163/6 328/89/6
f 316/164/5 428/299/5 430/315/5 313/319/5
f 313/63/4 430/311/4 425/312/4 317/66/4
f 343/147/5 69/148/5 212/308/5 426/302/5
f 316/164/5 343/147/5 426/302/5 428/299/5
f 411/297/5 415/298/5 427/296/5 425/295/5
f 409/303/6 413/304/6 431/161/6 429/163/6
f 413/304/6 189/306/6 213/162/6 431/161/6
f 340/13/5 432/49/5 433/50/5 407/16/5
usemtl Material.001
f 219/320/2 217/321/2 220/322/2 222/323/2
f 217/324/1 218/320/1 221/323/1 220/325/1
f 436/320/4 439/323/4 437/322/4 434/321/4
f 434/324/1 437/325/1 438/323/1 435/320/1
usemtl ORANGE
f 228/326/1 229/327/1 230/328/1 223/329/1
f 226/330/2 225/331/2 228/332/2 223/333/2
f 225/334/5 224/335/5 229/336/5 228/337/5
f 227/338/6 226/339/6 223/337/6 230/336/6
f 264/340/6 259/341/6 232/181/6 235/342/6
f 266/343/5 260/344/5 231/345/5 237/346/5
f 236/347/2 235/348/2 232/349/2 231/350/2
f 263/351/5 262/352/5 233/353/5 236/354/5
f 260/344/5 263/351/5 236/354/5 231/345/5
f 233/355/2 234/356/2 235/348/2 236/347/2
f 261/357/6 264/340/6 235/342/6 234/358/6
f 231/350/2 232/349/2 238/359/2 237/360/2
f 259/341/6 265/361/6 238/362/6 232/181/6
f 269/363/1 268/364/1 241/365/1 240/366/1
f 251/343/6 257/346/6 249/367/6 243/368/6
f 253/369/6 256/370/6 248/371/6 245/372/6
f 252/282/5 255/373/5 247/374/5 244/375/5
f 255/373/5 254/376/5 246/377/5 247/374/5
f 258/378/5 252/282/5 244/375/5 250/379/5
f 256/370/6 251/343/6 243/368/6 248/371/6
f 270/380/2 269/381/2 240/382/2 239/383/2
f 243/384/4 249/385/4 267/386/4 268/364/4
f 245/372/6 248/371/6 264/340/6 261/357/6
f 244/375/5 247/374/5 263/351/5 260/344/5
f 247/374/5 246/377/5 262/352/5 263/351/5
f 250/379/5 244/375/5 260/344/5 266/343/5
f 248/371/6 243/368/6 259/341/6 264/340/6
f 267/386/3 270/380/3 239/383/3 242/41/3
f 233/355/1 262/387/1 261/388/1 234/356/1
f 261/388/1 262/387/1 246/389/1 245/390/1
f 245/390/1 246/389/1 254/391/1 253/392/1
f 254/391/4 255/393/4 256/361/4 253/392/4
f 251/182/4 256/361/4 255/393/4 252/394/4
f 252/394/4 258/395/4 257/179/4 251/182/4
f 249/396/3 257/179/3 258/395/3 250/397/3
f 265/197/3 249/396/3 250/397/3 266/37/3
f 237/398/3 238/198/3 265/197/3 266/37/3
f 268/364/4 267/386/4 242/41/4 241/365/4
f 265/399/2 259/400/2 269/381/2 270/380/2
f 249/385/3 265/399/3 270/380/3 267/386/3
f 259/31/1 243/384/1 268/364/1 269/363/1
f 443/326/1 440/329/1 230/328/1 229/327/1
f 442/330/4 440/333/4 443/332/4 441/331/4
f 441/334/5 443/337/5 229/336/5 224/335/5
f 227/338/6 230/336/6 440/337/6 442/339/6
f 477/340/6 448/342/6 445/181/6 472/341/6
f 479/343/5 450/346/5 444/345/5 473/344/5
f 449/347/4 444/350/4 445/349/4 448/348/4
f 476/351/5 449/354/5 446/353/5 475/352/5
f 473/344/5 444/345/5 449/354/5 476/351/5
f 446/355/4 449/347/4 448/348/4 447/356/4
f 474/357/6 447/358/6 448/342/6 477/340/6
f 444/350/4 450/360/4 451/359/4 445/349/4
f 472/341/6 445/181/6 451/362/6 478/361/6
f 482/363/1 453/366/1 454/365/1 481/364/1
f 464/343/6 456/368/6 462/367/6 470/346/6
f 466/369/6 458/372/6 461/371/6 469/370/6
f 465/282/5 457/375/5 460/374/5 468/373/5
f 468/373/5 460/374/5 459/377/5 467/376/5
f 471/378/5 463/379/5 457/375/5 465/282/5
f 469/370/6 461/371/6 456/368/6 464/343/6
f 483/380/4 452/383/4 453/382/4 482/381/4
f 456/384/2 481/364/2 480/386/2 462/385/2
f 458/372/6 474/357/6 477/340/6 461/371/6
f 457/375/5 473/344/5 476/351/5 460/374/5
f 460/374/5 476/351/5 475/352/5 459/377/5
f 463/379/5 479/343/5 473/344/5 457/375/5
f 461/371/6 477/340/6 472/341/6 456/368/6
f 480/386/3 455/41/3 452/383/3 483/380/3
f 446/355/1 447/356/1 474/388/1 475/387/1
f 474/388/1 458/390/1 459/389/1 475/387/1
f 458/390/1 466/392/1 467/391/1 459/389/1
f 467/391/2 466/392/2 469/361/2 468/393/2
f 464/182/2 465/394/2 468/393/2 469/361/2
f 465/394/2 464/182/2 470/179/2 471/395/2
f 462/396/3 463/397/3 471/395/3 470/179/3
f 478/197/3 479/37/3 463/397/3 462/396/3
f 450/398/3 479/37/3 478/197/3 451/198/3
f 481/364/2 454/365/2 455/41/2 480/386/2
f 478/399/4 483/380/4 482/381/4 472/400/4
f 462/385/3 480/386/3 483/380/3 478/399/3
f 472/31/1 482/363/1 481/364/1 456/384/1
