# Blender 5.1.0
# www.blender.org
mtllib lantern001.mtl
o Lantern.001
v 0.614088 1.117593 -0.191964
v 0.614088 1.117593 0.227331
v 0.250968 1.117593 0.436978
v -0.112152 1.117593 0.227331
v -0.112152 1.117593 -0.191964
v 0.250968 1.117593 -0.401611
v 0.554056 12.795713 0.936044
v 1.179141 10.713862 0.633296
v -1.158488 12.007351 -0.949245
v 0.016613 10.178697 -0.646497
v -1.158488 12.007351 0.936044
v 0.016613 10.178697 0.633296
v 0.962528 0.013148 -0.393136
v 0.962528 0.013148 0.428506
v 0.250965 0.013148 0.839326
v -0.460597 0.013148 0.428505
v -0.460597 0.013148 -0.393136
v 0.250965 0.013148 -0.803957
v 0.250965 0.258580 -0.803957
v -0.460597 0.258580 -0.393136
v -0.460597 0.258580 0.428505
v 0.250965 0.258580 0.839326
v 0.962528 0.258580 0.428506
v 0.962528 0.258580 -0.393136
v 0.752006 0.258580 -0.271591
v 0.752006 0.258580 0.306960
v 0.250966 0.258580 0.596235
v -0.250073 0.258580 0.306960
v -0.250073 0.258580 -0.271591
v 0.250966 0.258580 -0.560866
v 0.250966 0.422202 -0.560866
v -0.250073 0.422202 -0.271591
v -0.250073 0.422202 0.306960
v 0.250966 0.422202 0.596235
v 0.752006 0.422202 0.306960
v 0.752006 0.422202 -0.271591
v 0.250968 1.117593 -0.292785
v -0.017906 1.117593 -0.137551
v -0.017906 1.117593 0.172918
v 0.250968 1.117593 0.328152
v 0.519842 1.117593 0.172918
v 0.519842 1.117593 -0.137551
v 0.966754 10.323320 -0.137551
v 0.966754 10.323320 0.172918
v 0.722517 10.210887 0.328152
v 0.478279 10.098454 0.172918
v 0.478279 10.098454 -0.137551
v 0.722517 10.210887 -0.292785
v 1.179141 10.713862 -0.646497
v 0.554056 12.795713 -0.949245
v 0.880253 11.761074 0.799702
v 0.880253 11.761074 -0.812903
v -0.584593 11.086738 -0.812903
v -0.584593 11.086738 0.799702
v -1.000867 11.695895 0.923105
v 0.688170 12.473436 0.923105
v 0.688170 12.473436 -0.936305
v -1.000867 11.695895 -0.936305
v 1.116776 10.685153 0.564641
v 0.078978 10.207407 -0.577841
v 0.078978 10.207407 0.564641
v 1.116776 10.685153 -0.577841
v 1.153768 10.604797 0.564641
v 0.115969 10.127051 -0.577841
v 0.115969 10.127051 0.564641
v 1.153768 10.604797 -0.577841
v 1.136046 10.489517 0.500337
v 0.215072 10.065550 -0.513537
v 0.215072 10.065550 0.500337
v 1.136046 10.489517 -0.513537
v 1.170908 10.349750 0.473558
v 0.298583 9.948178 -0.486759
v 0.298583 9.948178 0.473558
v 1.170908 10.349750 -0.486759
v 0.573597 12.830311 0.968262
v -1.197479 12.015002 -0.981462
v -1.197479 12.015002 0.968262
v 0.573597 12.830311 -0.981462
v 0.496753 12.997236 0.968262
v -1.274323 12.181929 -0.981462
v -1.274323 12.181929 0.968262
v 0.496753 12.997236 -0.981462
v 0.751952 13.012809 1.206589
v -1.452104 11.998180 -1.219790
v -1.452104 11.998180 1.206589
v 0.751952 13.012809 -1.219790
v 0.669771 13.191328 1.206589
v -1.534285 12.176701 -1.219790
v -1.534285 12.176701 1.206589
v 0.669771 13.191328 -1.219790
v 0.448015 13.226923 1.020036
v -1.417122 12.368315 -1.033237
v -1.417122 12.368315 1.020036
v 0.448015 13.226923 -1.033237
v 0.064071 13.178020 0.650824
v -1.130299 12.628196 -0.664024
v -1.130299 12.628196 0.650824
v 0.064071 13.178020 -0.664024
v 0.044458 13.220627 0.650824
v -1.149913 12.670803 -0.664024
v -1.149913 12.670803 0.650824
v 0.044458 13.220627 -0.664024
v -0.039377 13.182034 0.558532
v -1.066077 12.709396 -0.571732
v -1.066077 12.709396 0.558532
v -0.039377 13.182034 -0.571732
v -0.175653 13.262733 0.468487
v -1.038766 12.865402 -0.481687
v -1.038766 12.865402 0.468487
v -0.175653 13.262733 -0.481687
v -0.486053 13.274748 0.191551
v -0.846044 13.109027 -0.204752
v -0.846044 13.109027 0.191551
v -0.486053 13.274748 -0.204752
v -0.546599 13.246876 0.124897
v -0.785496 13.136900 -0.138098
v -0.785496 13.136900 0.124897
v -0.546599 13.246876 -0.138098
v -0.678793 13.335191 0.041744
v -0.766622 13.294759 -0.054945
v -0.766622 13.294759 0.041744
v -0.678793 13.335191 -0.054945
v -0.745252 13.277703 0.108978
v -0.626237 13.332491 0.066405
v -0.689416 13.383140 0.177860
v -0.570401 13.437928 -0.002476
v -0.626237 13.332491 -0.071358
v -0.818810 13.243841 -0.002476
v -0.881991 13.294489 0.108978
v -0.745252 13.277703 -0.113930
v -0.881991 13.294489 -0.113930
v -0.689416 13.383140 -0.182812
v -0.599074 13.553741 0.066405
v -0.599074 13.553741 -0.071358
v -0.791649 13.465090 0.220433
v -0.672632 13.519879 0.177862
v -0.984224 13.376438 0.066405
v -0.910667 13.410300 0.177862
v -0.910667 13.410300 -0.182814
v -0.984224 13.376438 -0.071358
v -0.672632 13.519879 -0.182814
v -0.791649 13.465090 -0.225385
v -0.701308 13.635691 0.108978
v -0.893883 13.547041 0.177860
v -1.012897 13.492252 -0.002476
v -0.893883 13.547041 -0.182812
v -0.701308 13.635691 -0.113930
v -0.838047 13.652477 0.108978
v -0.764488 13.686338 -0.002476
v -0.957062 13.597689 0.066405
v -0.957062 13.597689 -0.071358
v -0.838047 13.652477 -0.113930
v -0.884862 13.667575 -0.002476
v -0.652228 13.639016 -0.002476
v -0.777372 13.581408 -0.192094
v -0.979855 13.488195 -0.119665
v -0.979855 13.488195 0.114713
v -0.777372 13.581408 0.187142
v -0.603443 13.441985 -0.119665
v -0.805926 13.348772 -0.192094
v -0.931071 13.291163 -0.002476
v -0.805926 13.348772 0.187142
v -0.603443 13.441985 0.114713
v -0.698436 13.262606 -0.002476
v 0.734747 10.148965 -0.006600
v 0.503868 12.670146 0.924284
v -1.030459 11.963825 0.924284
v 0.022354 10.325471 0.653041
v 1.063903 10.804944 0.653041
v 0.796120 11.743176 0.802131
v -0.889240 11.684781 0.912691
v 0.624026 12.381407 0.912691
v -0.516286 11.139016 0.802131
v 0.874612 11.779069 0.716766
v 1.142756 10.839574 0.567476
v 0.581967 12.707285 -0.852284
v 0.581967 12.707285 0.839084
v 1.142756 10.839574 -0.580677
v 0.874612 11.779069 -0.729967
v 0.702286 12.418159 0.827475
v 0.702286 12.418159 -0.840676
v 0.791463 11.742187 -0.815466
v 1.057524 10.809985 -0.667335
v -1.023371 11.961415 -0.936834
v 0.501090 12.663195 -0.936834
v 0.022673 10.333596 -0.667335
v -0.512505 11.141911 -0.815466
v 0.620475 12.376312 -0.925315
v -0.883061 11.684166 -0.925315
v -0.593459 11.100911 -0.739378
v -0.047076 10.275672 -0.588146
v -1.115023 11.937576 0.850087
v -1.115023 11.937576 -0.863288
v -0.971774 11.654521 0.838328
v -0.047076 10.275672 0.574946
v -0.971774 11.654521 -0.851528
v -0.593459 11.100911 0.726178
v 0.462209 12.565918 0.834534
v -0.924187 11.927696 0.834534
v 0.027120 10.447302 0.589443
v 0.968249 10.880548 0.589443
v 0.726284 11.728321 0.724158
v -0.796584 11.675556 0.824059
v 0.570782 12.305017 0.824059
v -0.459588 11.182410 0.724158
v 0.797208 11.760754 0.647023
v 1.039499 10.911839 0.512127
v 0.532779 12.599476 -0.770748
v 0.532779 12.599476 0.757548
v 1.039499 10.911839 -0.525328
v 0.797208 11.760754 -0.660224
v 0.641497 12.338225 0.747059
v 0.641497 12.338225 -0.760259
v 0.722076 11.727427 -0.737480
v 0.962485 10.885103 -0.603631
v -0.917783 11.925519 -0.847146
v 0.459699 12.559637 -0.847146
v 0.027408 10.454643 -0.603631
v -0.456171 11.185025 -0.737480
v 0.567574 12.300415 -0.836738
v -0.791000 11.675000 -0.836738
v -0.529321 11.147980 -0.668728
v -0.035616 10.402305 -0.532077
v -1.000598 11.903977 0.767491
v -1.000598 11.903977 -0.780691
v -0.871161 11.648213 0.756865
v -0.035616 10.402305 0.518877
v -0.871161 11.648213 -0.770065
v -0.529321 11.147980 0.655528
v 1.072147 7.044201 -0.137551
v 1.072147 4.080897 -0.137551
v 1.072147 7.044201 0.172918
v 1.072147 4.080897 0.172918
v 1.341021 7.044201 0.328152
v 1.341021 4.080897 0.328152
v 1.609894 7.044201 0.172918
v 1.609894 4.080897 0.172918
v 1.609894 7.044201 -0.137551
v 1.609894 4.080897 -0.137551
v 1.341021 4.080896 -0.292785
v 1.341021 7.044201 -0.292785
v 1.699475 5.562549 -0.137551
v 1.699475 5.562549 0.172918
v 1.968349 5.562549 0.328152
v 2.237222 5.562549 0.172918
v 2.237222 5.562549 -0.137551
v 1.968349 5.562549 -0.292785
vn 0.4904 0.1945 0.8495
vn -0.1926 -0.9813 -0.0000
vn 0.0774 -0.1469 0.9861
vn 0.9185 0.3857 0.0874
vn -0.0653 -0.0671 -0.9956
vn -0.8488 -0.5287 -0.0000
vn -0.0000 -1.0000 -0.0000
vn 1.0000 -0.0000 -0.0000
vn -0.5000 -0.0000 0.8660
vn -0.5000 -0.0000 -0.8660
vn 0.5000 -0.0000 -0.8660
vn 0.5000 -0.0000 0.8660
vn -1.0000 -0.0000 -0.0000
vn -0.0000 1.0000 -0.0000
vn -0.4904 0.1945 -0.8495
vn -0.9809 0.1945 -0.0000
vn 0.4904 0.1945 -0.8495
vn 0.9809 0.1945 -0.0000
vn -0.4904 0.1945 0.8495
vn 0.4994 0.0978 -0.8608
vn 0.9813 0.1925 -0.0000
vn 0.4994 0.0978 0.8608
vn -0.4995 -0.0973 0.8608
vn -0.9816 -0.1909 -0.0000
vn -0.4995 -0.0973 -0.8608
vn -0.8359 -0.5490 -0.0000
vn 0.0613 -0.1543 -0.9861
vn 0.9606 0.2780 -0.0000
vn 0.0584 -0.1404 0.9884
vn -0.8343 -0.5513 -0.0057
vn 0.0524 -0.1139 -0.9921
vn 0.9651 0.2618 0.0088
vn 0.0687 -0.1357 0.9884
vn 0.4182 -0.9084 -0.0000
vn -0.9084 -0.4182 -0.0000
vn 0.9084 0.4182 -0.0000
vn -0.0000 -0.0000 -1.0000
vn -0.0000 -0.0000 1.0000
vn 0.2305 -0.5008 -0.8343
vn 0.2305 -0.5008 0.8343
vn -0.5273 -0.8497 -0.0000
vn 0.9884 -0.1519 -0.0000
vn 0.0777 -0.1689 -0.9826
vn 0.0777 -0.1689 0.9826
vn -0.8148 -0.5797 -0.0000
vn 0.9703 0.2420 -0.0000
vn 0.3391 -0.7365 0.5853
vn 0.8707 -0.4918 -0.0000
vn 0.3391 -0.7365 -0.5853
vn 0.3898 -0.8467 -0.3621
vn 0.7187 -0.6953 -0.0000
vn 0.0609 -0.9981 -0.0000
vn 0.3898 -0.8467 0.3621
vn -0.3473 0.7545 -0.5568
vn -0.3473 0.7545 0.5568
vn -0.8532 0.5217 -0.0000
vn 0.1585 0.9874 -0.0000
vn -0.6714 0.7411 -0.0000
vn -0.1263 0.9920 -0.0000
vn -0.3989 0.8665 -0.3000
vn -0.3989 0.8665 0.3000
vn -0.4182 0.9084 -0.0000
vn -0.9850 0.1724 -0.0000
vn 0.5095 0.8604 -0.0000
vn -0.2377 0.5164 -0.8227
vn -0.2377 0.5164 0.8227
vn -0.3728 0.8098 -0.4530
vn -0.3728 0.8098 0.4530
vn -0.7843 0.6204 -0.0000
vn 0.0387 0.9993 -0.0000
vn -0.9929 0.1187 -0.0000
vn 0.5555 0.8315 -0.0000
vn -0.2187 0.4751 -0.8523
vn -0.2187 0.4751 0.8523
vn 0.0948 0.7721 -0.6284
vn 0.1138 0.9272 -0.3568
vn -0.1511 0.9692 -0.1947
vn -0.7048 0.4040 -0.5831
vn -0.5027 0.6434 -0.5773
vn -0.4875 0.8143 -0.3151
vn -0.9128 0.3083 0.2680
vn -0.8837 0.4680 -0.0000
vn -0.6955 0.7185 -0.0000
vn -0.2417 0.6172 0.7488
vn -0.5027 0.6434 0.5773
vn -0.4875 0.8143 0.3151
vn 0.3810 0.9038 0.1947
vn 0.1138 0.9272 0.3568
vn -0.1511 0.9692 0.1947
vn 0.3838 0.5404 -0.7488
vn 0.6434 0.5027 -0.5773
vn 0.6700 0.6722 -0.3151
vn -0.6238 0.0766 -0.7779
vn -0.3542 0.0435 -0.9342
vn -0.1606 0.2898 -0.9435
vn -0.9602 -0.0783 0.2680
vn -0.9707 -0.2403 -0.0000
vn -0.9602 -0.0783 -0.2680
vn -0.1606 0.2898 0.9435
vn -0.3542 0.0435 0.9342
vn -0.6238 0.0766 0.7779
vn 0.6700 0.6722 0.3151
vn 0.6434 0.5027 0.5773
vn 0.3838 0.5404 0.7488
vn 0.1606 -0.2898 -0.9435
vn 0.3542 -0.0435 -0.9342
vn 0.2259 0.2423 -0.9435
vn -0.6700 -0.6722 -0.3151
vn -0.6434 -0.5027 -0.5773
vn -0.7816 -0.2215 -0.5831
vn -0.3838 -0.5404 0.7488
vn -0.6434 -0.5027 0.5773
vn -0.7816 -0.2215 0.5831
vn 0.6238 -0.0766 0.7779
vn 0.3542 -0.0435 0.9342
vn 0.2259 0.2423 0.9435
vn 0.9602 0.0783 -0.2680
vn 0.9707 0.2403 -0.0000
vn 0.8486 0.5290 -0.0000
vn 0.2417 -0.6172 -0.7488
vn 0.5027 -0.6434 -0.5773
vn 0.7048 -0.4040 -0.5831
vn -0.3810 -0.9038 -0.1947
vn -0.1138 -0.9272 -0.3568
vn -0.0948 -0.7721 -0.6284
vn -0.0948 -0.7721 0.6284
vn -0.1138 -0.9272 0.3568
vn -0.3810 -0.9038 0.1947
vn 0.6955 -0.7185 -0.0000
vn 0.8837 -0.4680 -0.0000
vn 0.9128 -0.3083 -0.2680
vn 0.7048 -0.4040 0.5831
vn 0.5027 -0.6434 0.5773
vn 0.2417 -0.6172 0.7488
vn 0.3810 0.9038 -0.1947
vn -0.2417 0.6172 -0.7488
vn -0.9128 0.3083 -0.2680
vn -0.7048 0.4040 0.5831
vn 0.0948 0.7721 0.6284
vn 0.7816 0.2215 -0.5831
vn -0.2259 -0.2423 -0.9435
vn -0.8486 -0.5290 -0.0000
vn -0.2259 -0.2423 0.9435
vn 0.7816 0.2215 0.5831
vn 0.6238 -0.0766 -0.7779
vn -0.3838 -0.5404 -0.7488
vn -0.6700 -0.6722 0.3151
vn 0.1606 -0.2898 0.9435
vn 0.9602 0.0783 0.2680
vn 0.4875 -0.8143 -0.3151
vn 0.1511 -0.9691 -0.1947
vn 0.1511 -0.9692 0.1947
vn 0.9128 -0.3083 0.2680
vn 0.4875 -0.8143 0.3151
vn 0.6724 0.3247 -0.6652
vn -0.6146 -0.2804 -0.7373
vn 0.6086 0.2830 -0.7413
vn 0.0524 -0.1139 0.9921
vn 0.0935 0.0059 0.9956
vn 0.0613 -0.1543 0.9861
vn -0.0653 -0.0671 0.9956
vn 0.0624 -0.1355 0.9888
vn -0.6839 -0.2996 -0.6652
vn -0.2817 -0.9595 -0.0000
vn 0.6730 0.3237 -0.6651
vn 0.9613 0.2753 -0.0057
vn 0.9613 0.2753 0.0057
vn 0.9651 0.2618 -0.0088
vn 0.9536 0.3010 -0.0000
vn 0.9185 0.3857 -0.0874
vn -0.6749 -0.3078 0.6707
vn -0.6154 -0.2719 0.7398
vn 0.6015 0.2911 0.7440
vn 0.0624 -0.1355 -0.9888
vn 0.0774 -0.1469 -0.9861
vn 0.0584 -0.1404 -0.9884
vn 0.0935 0.0059 -0.9956
vn 0.0687 -0.1357 -0.9884
vn -0.2125 0.4616 -0.8613
vn 0.6708 0.3231 0.6676
vn 0.6015 0.2911 -0.7440
vn -0.8264 -0.5630 -0.0089
vn -0.8264 -0.5630 0.0089
vn -0.8903 -0.4469 -0.0874
vn -0.8903 -0.4469 0.0874
vn -0.8343 -0.5513 0.0057
vn 0.0155 -0.0337 0.9993
vn 0.0639 -0.1388 0.9883
vn 0.0699 -0.1519 0.9859
vn 0.9232 0.3842 -0.0000
vn 0.9616 0.2745 -0.0000
vn 0.9655 0.2603 -0.0000
vn 0.0155 -0.0337 -0.9993
vn 0.0639 -0.1388 -0.9883
vn 0.0699 -0.1519 -0.9859
vn -0.8922 -0.4515 -0.0000
vn -0.8338 -0.5521 -0.0000
vn -0.8256 -0.5642 -0.0000
vn 0.6086 0.2830 0.7413
vn -0.9959 0.0901 -0.0000
vn -0.6159 -0.2710 0.7397
vn -0.6767 -0.3085 -0.6685
vn -0.6154 -0.2719 -0.7398
vn 0.6744 0.3135 -0.6685
vn 0.3169 -0.6884 0.6524
vn -0.2112 0.4588 0.8631
vn -0.6159 -0.2710 -0.7397
vn -0.6813 -0.3005 0.6675
vn -0.6146 -0.2804 0.7373
vn 0.6018 0.2900 -0.7441
vn 0.6727 0.3126 0.6707
vn 0.9098 -0.4151 -0.0000
vn -0.6817 -0.2994 0.6676
vn 0.5734 0.8193 -0.0000
vn 0.6713 0.3222 0.6675
vn -0.6835 -0.3008 -0.6651
vn 0.6018 0.2900 0.7441
vn 0.3177 -0.6901 -0.6502
vn -0.4918 0.1809 -0.8517
vn -0.4892 -0.2071 -0.8472
vn -0.9385 0.3452 -0.0000
vn -0.9209 -0.3899 -0.0000
vn -0.4918 0.1809 0.8517
vn -0.4892 -0.2071 0.8472
vn 0.4918 -0.1809 0.8517
vn 0.4892 0.2071 0.8472
vn 0.9385 -0.3452 -0.0000
vn 0.9209 0.3899 -0.0000
vn 0.4918 -0.1809 -0.8517
vn 0.4892 0.2071 -0.8472
vn 0.4892 -0.2071 -0.8472
vn 0.9209 -0.3899 -0.0000
vn 0.4892 -0.2071 0.8472
vn -0.4892 0.2071 0.8472
vn -0.9209 0.3899 -0.0000
vn -0.4892 0.2071 -0.8472
vt 0.679190 0.228006
vt 0.676834 0.228006
vt 0.676832 0.294899
vt 0.676338 0.296885
vt 0.671945 0.691962
vt 0.673837 0.629836
vt 0.675124 0.631452
vt 0.673428 0.687113
vt 0.700458 0.691962
vt 0.700656 0.721755
vt 0.700478 0.713898
vt 0.700300 0.687169
vt 0.698892 0.686845
vt 0.699069 0.713366
vt 0.671746 0.721755
vt 0.671905 0.714789
vt 0.674478 0.228006
vt 0.689616 0.216119
vt 0.687260 0.216119
vt 0.691971 0.216119
vt 0.679188 0.569774
vt 0.681543 0.569774
vt 0.683899 0.569774
vt 0.676834 0.486561
vt 0.679190 0.486561
vt 0.674478 0.486561
vt 0.676834 0.393720
vt 0.676834 0.476577
vt 0.679190 0.476577
vt 0.679190 0.393720
vt 0.676834 0.393720
vt 0.674478 0.476577
vt 0.674478 0.393720
vt 0.674478 0.476577
vt 0.674478 0.393720
vt 0.676389 0.537917
vt 0.676124 0.547715
vt 0.698566 0.629836
vt 0.697208 0.631542
vt 0.696014 0.537917
vt 0.696313 0.548969
vt 0.697279 0.631452
vt 0.694993 0.549099
vt 0.673805 0.631252
vt 0.673334 0.713366
vt 0.698602 0.631433
vt 0.677410 0.549099
vt 0.696014 0.312053
vt 0.694961 0.312053
vt 0.676389 0.312053
vt 0.677442 0.312053
vt 0.677442 0.537917
vt 0.677442 0.530362
vt 0.694961 0.537917
vt 0.694961 0.530362
vt 0.677442 0.459036
vt 0.694961 0.459036
vt 0.693975 0.450725
vt 0.678428 0.450725
vt 0.678428 0.522051
vt 0.693975 0.522051
vt 0.693564 0.509962
vt 0.678838 0.509962
vt 0.705742 0.294899
vt 0.706236 0.296885
vt 0.704541 0.536524
vt 0.674643 0.536524
vt 0.674643 0.552219
vt 0.704541 0.552219
vt 0.672948 0.544730
vt 0.702846 0.544730
vt 0.706500 0.536824
vt 0.669293 0.536824
vt 0.667221 0.534666
vt 0.667221 0.551451
vt 0.704429 0.534666
vt 0.704429 0.551451
vt 0.704805 0.473857
vt 0.667598 0.473857
vt 0.670458 0.537353
vt 0.701944 0.537353
vt 0.676120 0.596313
vt 0.696283 0.596313
vt 0.696283 0.679050
vt 0.696283 0.683056
vt 0.676120 0.679050
vt 0.676120 0.683056
vt 0.696283 0.620127
vt 0.676120 0.620127
vt 0.677535 0.620127
vt 0.694867 0.620127
vt 0.678916 0.686277
vt 0.693487 0.686277
vt 0.683163 0.757718
vt 0.689240 0.757718
vt 0.684185 0.757718
vt 0.688218 0.757718
vt 0.685460 0.826514
vt 0.686943 0.826514
vt 0.701508 0.796040
vt 0.693265 0.775237
vt 0.690985 0.882123
vt 0.698256 0.882123
vt 0.687733 0.921689
vt 0.682471 0.796040
vt 0.673248 0.775237
vt 0.679219 0.882123
vt 0.670705 0.796040
vt 0.705636 0.775237
vt 0.699498 0.656753
vt 0.706770 0.656753
vt 0.675967 0.656753
vt 0.687733 0.656753
vt 0.668696 0.656753
vt 0.692995 0.517467
vt 0.682201 0.538268
vt 0.673957 0.517467
vt 0.669829 0.538270
vt 0.702217 0.538268
vt 0.704760 0.517467
vt 0.684481 0.431385
vt 0.696246 0.431385
vt 0.677209 0.431385
vt 0.687733 0.391818
vt 0.676148 0.099841
vt 0.683511 0.099841
vt 0.690874 0.099841
vt 0.673500 0.579121
vt 0.671815 0.634424
vt 0.670390 0.635293
vt 0.670209 0.662368
vt 0.698783 0.661477
vt 0.698605 0.634749
vt 0.673251 0.713806
vt 0.699152 0.713806
vt 0.698974 0.687113
vt 0.697197 0.634424
vt 0.695513 0.579121
vt 0.675771 0.497297
vt 0.697279 0.634693
vt 0.697457 0.661385
vt 0.672109 0.578831
vt 0.674428 0.495294
vt 0.696907 0.579013
vt 0.677467 0.549718
vt 0.694936 0.549718
vt 0.673511 0.686845
vt 0.675195 0.631542
vt 0.693241 0.497297
vt 0.671733 0.634693
vt 0.673429 0.579031
vt 0.672085 0.687713
vt 0.465609 0.729253
vt 0.466019 0.803187
vt 0.406332 0.803187
vt 0.406742 0.729253
vt 0.456434 0.346971
vt 0.461702 0.575079
vt 0.410649 0.575079
vt 0.415917 0.346971
vt 0.468664 0.729408
vt 0.469074 0.803442
vt 0.459477 0.346612
vt 0.464752 0.575027
vt 0.406931 0.728510
vt 0.406524 0.801968
vt 0.465827 0.801968
vt 0.465420 0.728510
vt 0.416047 0.348685
vt 0.410813 0.575327
vt 0.461538 0.575327
vt 0.456304 0.348685
vt 0.403646 0.730915
vt 0.403230 0.805912
vt 0.412953 0.343137
vt 0.407609 0.574524
vt 0.697374 0.660945
vt 0.671639 0.660945
vt 0.671556 0.661385
vt 0.675715 0.496678
vt 0.693298 0.496678
vt 0.695584 0.579031
vt 0.694618 0.496548
vt 0.674478 0.310863
vt 0.676834 0.310863
vt 0.674478 0.352291
vt 0.676834 0.352291
vt 0.674478 0.352292
vt 0.679190 0.310863
vt 0.679190 0.352291
s 0
usemtl Material.001
f 2/1/1 3/2/1 34/2/1 35/1/1
f 9/3/2 11/3/2 77/4/2 76/4/2
f 55/5/3 54/6/3 173/7/3 171/8/3
f 57/9/4 50/10/4 176/11/4 181/12/4
f 50/10/5 57/9/5 188/13/5 185/14/5
f 11/15/6 9/15/6 193/16/6 192/16/6
f 18/2/7 15/2/7 16/17/7 17/17/7
f 15/2/7 18/2/7 13/1/7 14/1/7
f 24/1/8 23/1/8 14/1/8 13/1/8
f 22/18/9 21/19/9 16/19/9 15/18/9
f 20/17/10 19/2/10 18/2/10 17/17/10
f 19/2/11 24/1/11 13/1/11 18/2/11
f 23/20/12 22/18/12 15/18/12 14/20/12
f 21/17/13 20/17/13 17/17/13 16/17/13
f 29/21/14 30/22/14 19/22/14 20/21/14
f 27/22/14 28/21/14 21/21/14 22/22/14
f 25/23/14 26/23/14 23/23/14 24/23/14
f 28/21/14 29/21/14 20/21/14 21/21/14
f 26/23/14 27/22/14 22/22/14 23/23/14
f 30/22/14 25/23/14 24/23/14 19/22/14
f 36/1/8 35/1/8 26/1/8 25/1/8
f 34/2/9 33/17/9 28/17/9 27/2/9
f 32/17/10 31/2/10 30/2/10 29/17/10
f 31/2/11 36/1/11 25/1/11 30/2/11
f 35/1/12 34/2/12 27/2/12 26/1/12
f 33/17/13 32/17/13 29/17/13 28/17/13
f 5/17/15 6/2/15 31/2/15 32/17/15
f 4/17/16 5/17/16 32/17/16 33/17/16
f 6/2/17 1/1/17 36/1/17 31/2/17
f 1/1/18 2/1/18 35/1/18 36/1/18
f 3/2/19 4/17/19 33/17/19 34/2/19
f 37/24/14 42/25/14 1/25/14 6/24/14
f 41/25/14 40/24/14 3/24/14 2/25/14
f 39/26/14 38/26/14 5/26/14 4/26/14
f 42/25/14 41/25/14 2/25/14 1/25/14
f 40/24/14 39/26/14 4/26/14 3/24/14
f 38/26/14 37/24/14 6/24/14 5/26/14
f 241/27/20 48/28/20 43/29/20 238/30/20
f 238/30/21 43/29/21 44/29/21 236/30/21
f 236/30/22 44/29/22 45/28/22 234/31/22
f 234/31/23 45/28/23 46/32/23 232/33/23
f 232/33/24 46/32/24 47/34/24 230/35/24
f 230/35/25 47/34/25 48/28/25 241/27/25
f 10/36/26 12/36/26 195/37/26 191/37/26
f 57/9/27 52/38/27 182/39/27 188/13/27
f 8/40/28 49/40/28 178/41/28 175/41/28
f 8/40/29 51/38/29 170/42/29 169/43/29
f 12/36/30 54/6/30 197/44/30 195/37/30
f 9/15/31 50/10/31 185/14/31 184/45/31
f 52/38/32 57/9/32 181/12/32 179/46/32
f 54/6/33 12/36/33 168/47/33 173/7/33
f 49/48/34 8/48/34 59/49/34 62/49/34
f 10/50/34 49/48/34 62/49/34 60/51/34
f 8/48/34 12/50/34 61/51/34 59/49/34
f 12/50/34 10/50/34 60/51/34 61/51/34
f 61/52/35 60/52/35 64/53/35 65/53/35
f 62/54/36 59/54/36 63/55/36 66/55/36
f 60/52/37 62/54/37 66/55/37 64/53/37
f 59/54/38 61/52/38 65/53/38 63/55/38
f 64/56/39 66/57/39 70/58/39 68/59/39
f 63/57/40 65/56/40 69/59/40 67/58/40
f 65/56/41 64/56/41 68/59/41 69/59/41
f 66/57/42 63/57/42 67/58/42 70/58/42
f 68/60/43 70/61/43 74/62/43 72/63/43
f 67/61/44 69/60/44 73/63/44 71/62/44
f 69/60/45 68/60/45 72/63/45 73/63/45
f 70/61/46 67/61/46 71/62/46 74/62/46
f 11/3/47 7/64/47 75/65/47 77/4/47
f 7/64/48 50/64/48 78/65/48 75/65/48
f 50/64/49 9/3/49 76/4/49 78/65/49
f 78/66/37 76/67/37 80/68/37 82/69/37
f 77/67/38 75/66/38 79/69/38 81/68/38
f 76/67/35 77/67/35 81/68/35 80/68/35
f 75/66/36 78/66/36 82/69/36 79/69/36
f 81/70/50 79/71/50 83/72/50 85/73/50
f 80/70/51 81/70/51 85/73/51 84/73/51
f 79/71/52 82/71/52 86/72/52 83/72/52
f 82/71/53 80/70/53 84/73/53 86/72/53
f 84/74/35 85/74/35 89/75/35 88/75/35
f 83/76/36 86/76/36 90/77/36 87/77/36
f 86/76/37 84/74/37 88/75/37 90/77/37
f 85/74/38 83/76/38 87/77/38 89/75/38
f 90/78/54 88/79/54 92/80/54 94/81/54
f 89/79/55 87/78/55 91/81/55 93/80/55
f 88/79/56 89/79/56 93/80/56 92/80/56
f 87/78/57 90/78/57 94/81/57 91/81/57
f 92/80/58 93/80/58 97/82/58 96/82/58
f 91/81/59 94/81/59 98/83/59 95/83/59
f 94/81/60 92/80/60 96/82/60 98/83/60
f 93/80/61 91/81/61 95/83/61 97/82/61
f 95/84/36 98/84/36 102/85/36 99/85/36
f 98/84/37 96/86/37 100/87/37 102/85/37
f 97/86/38 95/84/38 99/85/38 101/87/38
f 96/86/35 97/86/35 101/87/35 100/87/35
f 102/88/62 100/89/62 104/90/62 106/91/62
f 101/89/62 99/88/62 103/91/62 105/90/62
f 100/89/62 101/89/62 105/90/62 104/90/62
f 99/88/62 102/88/62 106/91/62 103/91/62
f 104/90/63 105/90/63 109/92/63 108/92/63
f 103/91/64 106/91/64 110/93/64 107/93/64
f 106/91/65 104/90/65 108/92/65 110/93/65
f 105/90/66 103/91/66 107/93/66 109/92/66
f 110/93/67 108/92/67 112/94/67 114/95/67
f 109/92/68 107/93/68 111/95/68 113/94/68
f 108/92/69 109/92/69 113/94/69 112/94/69
f 107/93/70 110/93/70 114/95/70 111/95/70
f 114/95/62 112/94/62 116/96/62 118/97/62
f 113/94/62 111/95/62 115/97/62 117/96/62
f 112/94/62 113/94/62 117/96/62 116/96/62
f 111/95/62 114/95/62 118/97/62 115/97/62
f 116/96/71 117/96/71 121/98/71 120/98/71
f 115/97/72 118/97/72 122/99/72 119/99/72
f 118/97/73 116/96/73 120/98/73 122/99/73
f 117/96/74 115/97/74 119/99/74 121/98/74
f 147/100/75 155/101/75 152/102/75
f 149/103/76 147/100/76 152/102/76
f 149/103/77 152/102/77 153/104/77
f 146/105/78 156/106/78 151/107/78
f 152/102/79 146/105/79 151/107/79
f 152/102/80 151/107/80 153/104/80
f 145/108/81 157/106/81 150/107/81
f 151/107/82 145/108/82 150/107/82
f 151/107/83 150/107/83 153/104/83
f 144/105/84 158/101/84 148/102/84
f 150/107/85 144/105/85 148/102/85
f 150/107/86 148/102/86 153/104/86
f 143/100/87 154/109/87 149/103/87
f 148/102/88 143/100/88 149/103/88
f 148/102/89 149/103/89 153/104/89
f 141/110/90 155/101/90 147/100/90
f 134/111/91 141/110/91 147/100/91
f 134/111/92 147/100/92 154/109/92
f 139/112/93 156/106/93 146/105/93
f 142/113/94 139/112/94 146/105/94
f 142/113/95 146/105/95 155/101/95
f 137/114/96 157/106/96 145/108/96
f 140/114/97 137/114/97 145/108/97
f 140/114/98 145/108/98 156/106/98
f 135/113/99 158/101/99 144/105/99
f 138/112/100 135/113/100 144/105/100
f 138/112/101 144/105/101 157/106/101
f 133/111/102 154/109/102 143/100/102
f 136/110/103 133/111/103 143/100/103
f 136/110/104 143/100/104 158/101/104
f 132/115/105 160/116/105 142/113/105
f 141/110/106 132/115/106 142/113/106
f 141/110/107 142/113/107 155/101/107
f 131/117/108 161/118/108 140/114/108
f 139/112/109 131/117/109 140/114/109
f 139/112/110 140/114/110 156/106/110
f 129/117/111 162/116/111 138/112/111
f 137/114/112 129/117/112 138/112/112
f 137/114/113 138/112/113 157/106/113
f 125/115/114 163/119/114 136/110/114
f 135/113/115 125/115/115 136/110/115
f 135/113/116 136/110/116 158/101/116
f 126/120/117 159/119/117 134/111/117
f 133/111/118 126/120/118 134/111/118
f 133/111/119 134/111/119 154/109/119
f 130/121/120 160/116/120 132/115/120
f 127/122/121 130/121/121 132/115/121
f 127/122/122 132/115/122 159/119/122
f 128/123/123 161/118/123 131/117/123
f 130/121/124 128/123/124 131/117/124
f 130/121/125 131/117/125 160/116/125
f 123/121/126 162/116/126 129/117/126
f 128/123/127 123/121/127 129/117/127
f 128/123/128 129/117/128 161/118/128
f 124/122/129 164/124/129 127/122/129
f 126/120/130 124/122/130 127/122/130
f 126/120/131 127/122/131 159/119/131
f 124/122/132 163/119/132 125/115/132
f 123/121/133 124/122/133 125/115/133
f 123/121/134 125/115/134 162/116/134
f 154/109/135 147/100/135 149/103/135
f 155/101/136 146/105/136 152/102/136
f 156/106/137 145/108/137 151/107/137
f 157/106/138 144/105/138 150/107/138
f 158/101/139 143/100/139 148/102/139
f 159/119/140 141/110/140 134/111/140
f 160/116/141 139/112/141 142/113/141
f 161/118/142 137/114/142 140/114/142
f 162/116/143 135/113/143 138/112/143
f 163/119/144 133/111/144 136/110/144
f 159/119/145 132/115/145 141/110/145
f 160/116/146 131/117/146 139/112/146
f 161/118/147 129/117/147 137/114/147
f 162/116/148 125/115/148 135/113/148
f 163/119/149 126/120/149 133/111/149
f 164/124/150 130/121/150 127/122/150
f 164/124/151 128/123/151 130/121/151
f 164/124/152 123/121/152 128/123/152
f 163/119/153 124/122/153 126/120/153
f 164/124/154 124/122/154 123/121/154
f 73/125/34 72/125/34 165/126/34
f 74/127/34 71/127/34 165/126/34
f 72/125/34 74/127/34 165/126/34
f 71/127/34 73/125/34 165/126/34
f 187/128/155 189/129/155 221/129/155 219/128/155
f 194/130/156 192/131/156 224/131/156 226/130/156
f 177/132/157 180/133/157 212/133/157 209/132/157
f 7/10/158 11/15/158 167/134/158 166/135/158
f 11/15/159 55/5/159 171/8/159 167/134/159
f 51/38/160 56/9/160 172/136/160 170/42/160
f 56/9/161 7/10/161 166/135/161 172/136/161
f 12/36/162 8/40/162 169/43/162 168/47/162
f 188/137/163 182/138/163 214/138/163 220/137/163
f 192/131/164 193/131/164 225/131/164 224/131/164
f 186/139/165 187/128/165 219/128/165 218/139/165
f 51/38/166 8/40/166 175/41/166 174/46/166
f 49/40/167 52/38/167 179/46/167 178/41/167
f 56/9/168 51/38/168 174/46/168 180/12/168
f 50/10/169 7/10/169 177/11/169 176/11/169
f 7/10/170 56/9/170 180/12/170 177/11/170
f 172/140/171 166/141/171 198/141/171 204/140/171
f 190/142/172 191/143/172 223/143/172 222/142/172
f 179/144/173 181/133/173 213/133/173 211/144/173
f 49/40/174 10/36/174 186/145/174 183/146/174
f 53/6/175 58/5/175 189/147/175 187/148/175
f 52/38/176 49/40/176 183/146/176 182/39/176
f 58/5/177 9/15/177 184/45/177 189/147/177
f 10/36/178 53/6/178 187/148/178 186/145/178
f 183/149/179 186/139/179 218/139/179 215/149/179
f 171/150/180 173/151/180 205/151/180 203/150/180
f 180/133/181 174/144/181 206/144/181 212/133/181
f 54/6/182 55/5/182 194/152/182 197/44/182
f 58/5/183 53/6/183 190/44/183 196/152/183
f 55/5/184 11/15/184 192/16/184 194/152/184
f 9/15/185 58/5/185 196/152/185 193/16/185
f 53/6/186 10/36/186 191/37/186 190/44/186
f 204/153/187 198/154/187 199/155/187 203/156/187
f 201/157/188 202/158/188 205/159/188 200/160/188
f 202/158/189 204/153/189 203/156/189 205/159/189
f 213/161/190 208/162/190 209/162/190 212/161/190
f 210/163/191 211/164/191 206/164/191 207/163/191
f 211/164/192 213/161/192 212/161/192 206/164/192
f 221/165/193 216/166/193 217/167/193 220/168/193
f 218/169/194 219/170/194 214/171/194 215/172/194
f 219/170/195 221/165/195 220/168/195 214/171/195
f 226/173/196 224/174/196 225/174/196 228/173/196
f 227/175/197 229/176/197 222/176/197 223/175/197
f 229/176/198 226/173/198 228/173/198 222/176/198
f 181/133/199 176/132/199 208/132/199 213/133/199
f 191/143/200 195/143/200 227/143/200 223/143/200
f 196/130/201 190/142/201 222/142/201 228/130/201
f 185/177/202 188/137/202 220/137/202 217/177/202
f 195/143/203 197/142/203 229/142/203 227/143/203
f 189/129/204 184/178/204 216/178/204 221/129/204
f 166/141/205 167/179/205 199/179/205 198/141/205
f 168/180/206 169/181/206 201/181/206 200/180/206
f 197/142/207 194/130/207 226/130/207 229/142/207
f 169/181/208 170/182/208 202/182/208 201/181/208
f 193/131/209 196/130/209 228/130/209 225/131/209
f 174/144/210 175/183/210 207/183/210 206/144/210
f 167/179/211 171/150/211 203/150/211 199/179/211
f 176/132/212 177/132/212 209/132/212 208/132/212
f 170/182/213 172/140/213 204/140/213 202/182/213
f 175/183/214 178/183/214 210/183/214 207/183/214
f 173/151/215 168/180/215 200/180/215 205/151/215
f 182/138/216 183/149/216 215/149/216 214/138/216
f 178/183/217 179/144/217 211/144/217 210/183/217
f 184/178/218 185/177/218 217/177/218 216/178/218
f 38/17/219 231/184/219 240/185/219 37/2/219
f 242/186/220 230/35/220 241/27/220 247/187/220
f 39/17/221 233/184/221 231/184/221 38/17/221
f 243/188/222 232/33/222 230/35/222 242/186/222
f 40/2/223 235/185/223 233/184/223 39/17/223
f 244/187/224 234/31/224 232/33/224 243/188/224
f 41/1/225 237/189/225 235/185/225 40/2/225
f 245/190/226 236/30/226 234/31/226 244/187/226
f 42/1/227 239/189/227 237/189/227 41/1/227
f 246/190/228 238/30/228 236/30/228 245/190/228
f 37/2/229 240/185/229 239/189/229 42/1/229
f 247/187/230 241/27/230 238/30/230 246/190/230
f 240/185/231 247/187/231 246/190/231 239/189/231
f 239/189/232 246/190/232 245/190/232 237/189/232
f 237/189/233 245/190/233 244/187/233 235/185/233
f 235/185/234 244/187/234 243/188/234 233/184/234
f 233/184/235 243/188/235 242/186/235 231/184/235
f 231/184/236 242/186/236 247/187/236 240/185/236
