# Blender 5.1.0
# www.blender.org
mtllib lantern002.mtl
o Lantern.002
v 0.723876 1.000441 -0.209020
v 0.723876 1.000441 0.210275
v 0.360756 1.000441 0.419922
v -0.002364 1.000441 0.210275
v -0.002364 1.000441 -0.209020
v 0.360756 1.000441 -0.418667
v 1.072316 -0.104004 -0.410192
v 1.072316 -0.104004 0.411449
v 0.360753 -0.104004 0.822270
v -0.350809 -0.104004 0.411449
v -0.350809 -0.104004 -0.410192
v 0.360753 -0.104004 -0.821013
v 0.360753 0.141428 -0.821013
v -0.350809 0.141428 -0.410192
v -0.350809 0.141428 0.411449
v 0.360753 0.141428 0.822270
v 1.072316 0.141428 0.411449
v 1.072316 0.141428 -0.410192
v 0.861793 0.141428 -0.288647
v 0.861793 0.141428 0.289904
v 0.360754 0.141428 0.579179
v -0.140286 0.141428 0.289903
v -0.140286 0.141428 -0.288647
v 0.360754 0.141428 -0.577922
v 0.360754 0.305049 -0.577922
v -0.140286 0.305049 -0.288647
v -0.140286 0.305049 0.289903
v 0.360754 0.305049 0.579179
v 0.861793 0.305049 0.289904
v 0.861793 0.305049 -0.288647
v 0.360756 1.000441 -0.309842
v 0.091882 1.000441 -0.154607
v 0.091882 1.000441 0.155861
v 0.360756 1.000441 0.311096
v 0.629630 1.000441 0.155862
v 0.629630 1.000441 -0.154607
v -0.040715 10.008643 -0.135436
v -0.040715 10.008643 0.136450
v -0.269754 9.954028 0.272393
v -0.498792 9.899414 0.136450
v -0.498792 9.899414 -0.135436
v -0.269754 9.954028 -0.271379
v 0.442737 10.414334 -0.461269
v 0.442737 10.414334 0.462291
v -0.335277 10.228816 0.924071
v -1.113291 10.043298 0.462291
v -1.113291 10.043298 -0.461269
v -0.335277 10.228816 -0.923050
v 0.257779 10.370231 -0.351491
v 0.257779 10.370231 0.352511
v -0.335277 10.228816 0.704512
v -0.928333 10.087401 0.352511
v -0.928333 10.087401 -0.351491
v -0.335277 10.228816 -0.703491
v 0.547096 10.719322 -0.560720
v -0.398475 10.493851 -1.121951
v 0.547095 10.719322 0.561742
v -0.398475 10.493851 1.122973
v -1.344045 10.268377 0.561742
v -1.344045 10.268377 -0.560720
v 0.322304 10.665721 -0.427299
v -0.398475 10.493851 -0.855108
v 0.322304 10.665721 0.428320
v -0.398475 10.493851 0.856129
v -1.119254 10.321980 0.428320
v -1.119254 10.321980 -0.427299
v -0.277445 10.088646 -0.001436
v 0.405248 10.925376 0.622041
v -0.748341 10.650301 1.007380
v -1.461306 10.480299 -0.001436
v -0.748341 10.650301 -1.010252
v 0.405248 10.925376 -0.624913
v -0.356701 11.834175 1.007380
v -1.510289 11.559099 0.622041
v -1.510289 11.559099 -0.624913
v -0.356701 11.834175 -1.010252
v 0.356264 12.004177 -0.001436
v -0.827597 12.395830 -0.001436
v -0.505935 10.216242 0.591525
v 0.172122 10.377926 0.365032
v -0.104658 10.708059 0.957999
v 0.573398 10.869746 -0.001436
v 0.172122 10.377926 -0.367904
v -0.925006 10.116318 -0.001436
v -1.201794 10.446449 0.591528
v -0.505935 10.216242 -0.594397
v -1.201794 10.446449 -0.594400
v -0.104658 10.708059 -0.960871
v 0.544614 11.503851 0.365032
v 0.544614 11.503851 -0.367904
v -0.552521 11.242237 1.184501
v 0.125544 11.403923 0.958005
v -1.649656 10.980625 0.365032
v -1.230586 11.080553 0.958005
v -1.230586 11.080553 -0.960877
v -1.649656 10.980625 -0.367904
v 0.125544 11.403923 -0.960877
v -0.552521 11.242237 -1.187372
v 0.096752 12.038027 0.591528
v -1.000383 11.776415 0.957999
v -1.678440 11.614731 -0.001436
v -1.000383 11.776415 -0.960871
v 0.096752 12.038027 -0.594400
v -0.599107 12.268234 0.591525
v -0.180036 12.368158 -0.001436
v -1.277163 12.106550 0.365032
v -1.277163 12.106550 -0.367904
v -0.599107 12.268234 -0.594397
v -0.205160 8.668002 -0.135436
v -0.205160 8.668002 0.136450
v 0.023878 8.722616 0.272393
v 0.252917 8.777231 0.136450
v 0.252917 8.777231 -0.135436
v 0.023878 8.722616 -0.271379
v -0.023430 8.921016 -0.271379
v -0.252469 8.866402 -0.135436
v -0.252469 8.866402 0.136450
v -0.023430 8.921016 0.272393
v 0.205609 8.975630 0.136450
v 0.205609 8.975630 -0.135436
v -0.340987 8.707420 -0.206436
v -0.340987 8.707420 0.207454
v 0.007677 8.790560 0.414399
v 0.356341 8.873699 0.207454
v 0.356341 8.873699 -0.206436
v 0.007677 8.790560 -0.413381
v -0.007229 8.853073 -0.413381
v -0.355893 8.769933 -0.206436
v -0.355893 8.769933 0.207454
v -0.007229 8.853073 0.414399
v 0.341435 8.936212 0.207454
v 0.341435 8.936212 -0.206436
v 0.659241 6.759995 -0.140229
v 1.443886 4.840144 -0.145022
v 0.579855 2.920292 -0.149814
v 0.659241 6.759995 0.141303
v 1.443886 4.840144 0.146156
v 0.579855 2.920292 0.151009
v 0.903055 6.759995 0.282069
v 1.696053 4.840144 0.291744
v 0.840375 2.920292 0.301420
v 1.146868 6.759995 0.141303
v 1.948220 4.840144 0.146156
v 1.100896 2.920292 0.151009
v 1.146868 6.759995 -0.140229
v 1.948220 4.840144 -0.145022
v 1.100896 2.920292 -0.149814
v 0.840375 2.920292 -0.300226
v 1.696053 4.840144 -0.290610
v 0.903055 6.759995 -0.280995
vn 0.4904 0.1945 0.8495
vn -0.0000 -1.0000 -0.0000
vn 1.0000 -0.0000 -0.0000
vn -0.5000 -0.0000 0.8660
vn -0.5000 -0.0000 -0.8660
vn 0.5000 -0.0000 -0.8660
vn 0.5000 -0.0000 0.8660
vn -1.0000 -0.0000 -0.0000
vn -0.0000 1.0000 -0.0000
vn -0.4904 0.1945 -0.8495
vn -0.9809 0.1945 -0.0000
vn 0.4904 0.1945 -0.8495
vn 0.9809 0.1945 -0.0000
vn -0.4904 0.1945 0.8495
vn 0.4864 0.1160 -0.8660
vn 0.9727 0.2319 -0.0000
vn 0.4864 0.1160 0.8660
vn -0.4864 -0.1160 0.8660
vn -0.9727 -0.2319 -0.0000
vn -0.4864 -0.1160 -0.8660
vn -0.0103 -0.9218 -0.3876
vn -0.0103 -0.9218 0.3876
vn 0.6428 -0.7660 -0.0000
vn -0.2280 -0.9737 -0.0000
vn 0.4251 -0.8179 0.3876
vn 0.4251 -0.8179 -0.3876
vn -0.6982 -0.7159 -0.0000
vn -0.5388 0.3178 -0.7802
vn 0.5350 -0.4218 -0.7320
vn 0.3374 0.5268 0.7802
vn -0.2872 -0.6178 0.7320
vn -0.9770 0.2133 -0.0000
vn -0.2319 0.9727 -0.0000
vn -0.2320 0.9727 -0.0000
vn 0.9461 -0.3237 -0.0000
vn 0.3374 0.5268 -0.7802
vn -0.2872 -0.6178 -0.7320
vn -0.5388 0.3178 0.7802
vn 0.5350 -0.4218 0.7320
vn 0.7756 0.6312 -0.0000
vn 0.3184 -0.8940 0.3151
vn 0.8346 -0.4812 0.2680
vn -0.0419 -0.9800 0.1947
vn -0.0419 -0.9800 -0.1947
vn 0.3184 -0.8940 -0.3151
vn 0.9569 -0.1115 0.2680
vn 0.1007 -0.3156 0.9435
vn -0.7888 -0.5277 0.3151
vn -0.4823 -0.4547 -0.7488
vn 0.5966 -0.1974 -0.7779
vn 0.8099 0.0640 0.5831
vn -0.2691 -0.1933 0.9435
vn -0.9359 -0.3523 -0.0000
vn -0.2691 -0.1933 -0.9435
vn 0.8099 0.0640 -0.5831
vn 0.2443 0.7385 0.6284
vn -0.6119 0.5343 0.5831
vn -0.8346 0.4812 -0.2680
vn -0.1160 0.6526 -0.7488
vn 0.5508 0.8116 -0.1947
vn 0.0419 0.9800 -0.1947
vn 0.2934 0.8869 -0.3568
vn 0.2443 0.7385 -0.6284
vn -0.3184 0.8940 -0.3151
vn -0.3668 0.7295 -0.5773
vn -0.6119 0.5343 -0.5831
vn -0.5411 0.8409 -0.0000
vn -0.7748 0.6322 -0.0000
vn -0.8346 0.4812 0.2680
vn -0.3184 0.8940 0.3151
vn -0.3668 0.7295 0.5773
vn -0.1160 0.6526 0.7488
vn 0.0419 0.9800 0.1947
vn 0.2934 0.8869 0.3568
vn 0.5508 0.8116 0.1947
vn 0.7888 0.5277 -0.3151
vn 0.7295 0.3668 -0.5773
vn 0.4823 0.4547 -0.7488
vn -0.1007 0.3156 -0.9435
vn -0.3388 0.1121 -0.9342
vn -0.5966 0.1974 -0.7779
vn -0.9569 0.1115 -0.2680
vn -0.9990 -0.0453 -0.0000
vn -0.9569 0.1115 0.2680
vn -0.5966 0.1974 0.7779
vn -0.3388 0.1121 0.9342
vn -0.1007 0.3156 0.9435
vn 0.4823 0.4547 0.7488
vn 0.7295 0.3668 0.5773
vn 0.7888 0.5277 0.3151
vn 0.2691 0.1933 -0.9435
vn 0.3388 -0.1121 -0.9342
vn 0.1007 -0.3156 -0.9435
vn -0.8099 -0.0640 -0.5831
vn -0.7295 -0.3668 -0.5773
vn -0.7888 -0.5277 -0.3151
vn -0.8099 -0.0640 0.5831
vn -0.7295 -0.3668 0.5773
vn -0.4823 -0.4547 0.7488
vn 0.2691 0.1933 0.9435
vn 0.3388 -0.1121 0.9342
vn 0.5966 -0.1974 0.7779
vn 0.9359 0.3523 -0.0000
vn 0.9990 0.0453 -0.0000
vn 0.9569 -0.1115 -0.2680
vn 0.6119 -0.5343 -0.5831
vn 0.3668 -0.7295 -0.5773
vn 0.1160 -0.6526 -0.7488
vn -0.2443 -0.7385 -0.6284
vn -0.2934 -0.8869 -0.3568
vn -0.5508 -0.8116 -0.1947
vn -0.5508 -0.8116 0.1947
vn -0.2934 -0.8869 0.3568
vn -0.2443 -0.7385 0.6284
vn 0.8346 -0.4812 -0.2680
vn 0.7748 -0.6322 -0.0000
vn 0.5411 -0.8409 -0.0000
vn 0.1160 -0.6526 0.7488
vn 0.3668 -0.7295 0.5773
vn 0.6119 -0.5343 0.5831
vn -0.4754 -0.2110 -0.8541
vn -0.9109 -0.4127 -0.0000
vn -0.4754 -0.2110 0.8541
vn 0.4747 0.2146 0.8536
vn 0.9142 0.4052 -0.0000
vn 0.4747 0.2146 -0.8536
vn -0.4419 0.7886 0.4277
vn -0.0385 -0.9031 -0.4277
vn 0.0385 0.9031 -0.4277
vn 0.4419 -0.7885 0.4277
vn -0.6821 0.7313 -0.0000
vn 0.2787 0.9604 -0.0000
vn -0.9727 -0.2320 -0.0000
vn 0.6821 -0.7313 -0.0000
vn -0.2787 -0.9604 -0.0000
vn 0.0385 0.9031 0.4277
vn 0.4419 -0.7885 -0.4277
vn -0.4419 0.7885 -0.4277
vn -0.0385 -0.9031 0.4277
vn 0.4964 -0.1197 -0.8598
vn 0.4885 -0.2135 -0.8461
vn 0.4892 0.2063 -0.8474
vn 0.9712 -0.2384 -0.0000
vn 0.9149 -0.4038 -0.0000
vn 0.9228 0.3852 -0.0000
vn 0.4964 -0.1197 0.8598
vn 0.4885 -0.2135 0.8461
vn 0.4892 0.2064 0.8474
vn -0.4959 0.1282 0.8589
vn -0.4876 0.2216 0.8445
vn -0.4901 -0.1982 0.8489
vn -0.9692 0.2463 -0.0000
vn -0.9119 0.4104 -0.0000
vn -0.9257 -0.3783 -0.0000
vn -0.4959 0.1282 -0.8589
vn -0.4876 0.2215 -0.8445
vn -0.4901 -0.1982 -0.8488
vt 0.679190 0.228006
vt 0.676834 0.228006
vt 0.674478 0.228006
vt 0.689616 0.216119
vt 0.687260 0.216119
vt 0.691971 0.216119
vt 0.679188 0.569774
vt 0.681543 0.569774
vt 0.683899 0.569774
vt 0.676834 0.486561
vt 0.679190 0.486561
vt 0.674478 0.486561
vt 0.676834 0.414434
vt 0.676834 0.476577
vt 0.679190 0.476577
vt 0.679190 0.414434
vt 0.679190 0.414434
vt 0.674478 0.476577
vt 0.674478 0.414434
vt 0.674478 0.476577
vt 0.678399 0.250772
vt 0.432121 0.190659
vt 0.447377 0.233774
vt 0.426294 0.233774
vt 0.458076 0.350244
vt 0.462633 0.327577
vt 0.413263 0.233775
vt 0.470885 0.859593
vt 0.422207 0.350244
vt 0.441550 0.327576
vt 0.436771 0.859593
vt 0.400038 0.350245
vt 0.407436 0.327577
vt 0.402658 0.859593
vt 0.415688 0.859593
vt 0.457855 0.859593
vt 0.442035 0.608465
vt 0.456806 0.631132
vt 0.437948 0.724935
vt 0.406165 0.608465
vt 0.422692 0.631133
vt 0.416865 0.724935
vt 0.401609 0.631132
vt 0.464203 0.608464
vt 0.450979 0.724934
vt 0.432121 0.768050
vt 0.674478 0.321220
vt 0.674478 0.352292
vt 0.676834 0.352291
vt 0.676834 0.321220
vt 0.674478 0.321220
vt 0.676834 0.321220
vt 0.679190 0.321220
vt 0.679190 0.352291
vt 0.674143 0.491703
vt 0.671788 0.491703
vt 0.686925 0.188838
vt 0.684569 0.188838
vt 0.676499 0.491703
vt 0.689280 0.188838
vt 0.676499 0.491703
vt 0.671115 0.477111
vt 0.671115 0.539254
vt 0.673470 0.539254
vt 0.673470 0.477111
vt 0.675826 0.477111
vt 0.675826 0.539254
vt 0.675826 0.477111
vt 0.689280 0.188837
vt 0.676834 0.259078
vt 0.679190 0.259078
vt 0.676834 0.290149
vt 0.679190 0.290149
vt 0.676834 0.259078
vt 0.676834 0.290149
vt 0.674478 0.259078
vt 0.674478 0.290149
s 0
usemtl Material.001
f 2/1/1 3/2/1 28/2/1 29/1/1
f 12/2/2 9/2/2 10/3/2 11/3/2
f 9/2/2 12/2/2 7/1/2 8/1/2
f 18/1/3 17/1/3 8/1/3 7/1/3
f 16/4/4 15/5/4 10/5/4 9/4/4
f 14/3/5 13/2/5 12/2/5 11/3/5
f 13/2/6 18/1/6 7/1/6 12/2/6
f 17/6/7 16/4/7 9/4/7 8/6/7
f 15/3/8 14/3/8 11/3/8 10/3/8
f 23/7/9 24/8/9 13/8/9 14/7/9
f 21/8/9 22/7/9 15/7/9 16/8/9
f 19/9/9 20/9/9 17/9/9 18/9/9
f 22/7/9 23/7/9 14/7/9 15/7/9
f 20/9/9 21/8/9 16/8/9 17/9/9
f 24/8/9 19/9/9 18/9/9 13/8/9
f 30/1/3 29/1/3 20/1/3 19/1/3
f 28/2/4 27/3/4 22/3/4 21/2/4
f 26/3/5 25/2/5 24/2/5 23/3/5
f 25/2/6 30/1/6 19/1/6 24/2/6
f 29/1/7 28/2/7 21/2/7 20/1/7
f 27/3/8 26/3/8 23/3/8 22/3/8
f 5/3/10 6/2/10 25/2/10 26/3/10
f 4/3/11 5/3/11 26/3/11 27/3/11
f 6/2/12 1/1/12 30/1/12 25/2/12
f 1/1/13 2/1/13 29/1/13 30/1/13
f 3/2/14 4/3/14 27/3/14 28/2/14
f 31/10/9 36/11/9 1/11/9 6/10/9
f 35/11/9 34/10/9 3/10/9 2/11/9
f 33/12/9 32/12/9 5/12/9 4/12/9
f 36/11/9 35/11/9 2/11/9 1/11/9
f 34/10/9 33/12/9 4/12/9 3/10/9
f 32/12/9 31/10/9 6/10/9 5/12/9
f 115/13/15 42/14/15 37/15/15 120/16/15
f 120/16/16 37/15/16 38/15/16 119/17/16
f 119/17/17 38/15/17 39/14/17 118/13/17
f 118/13/18 39/14/18 40/18/18 117/19/18
f 117/19/19 40/18/19 41/20/19 116/19/19
f 116/19/20 41/20/20 42/14/20 115/13/20
f 42/14/21 41/20/21 47/20/21 48/14/21
f 40/18/22 39/14/22 45/14/22 46/18/22
f 38/15/23 37/15/23 43/15/23 44/15/23
f 41/20/24 40/18/24 46/18/24 47/20/24
f 39/14/25 38/15/25 44/15/25 45/14/25
f 37/15/26 42/14/26 48/14/26 43/15/26
f 47/20/27 46/18/27 59/18/27 60/20/27
f 50/21/28 51/21/28 64/21/28 63/21/28
f 43/15/29 48/14/29 56/14/29 55/15/29
f 53/21/30 54/21/30 62/21/30 66/21/30
f 46/18/31 45/14/31 58/14/31 59/18/31
f 49/21/32 50/21/32 63/21/32 61/21/32
f 57/15/33 55/15/33 61/15/33 63/15/33
f 60/20/34 59/18/34 65/18/34 66/20/34
f 58/14/33 57/15/33 63/15/33 64/14/33
f 55/15/33 56/14/33 62/14/33 61/15/33
f 56/14/33 60/20/33 66/20/33 62/14/33
f 59/18/33 58/14/33 64/14/33 65/18/33
f 44/15/35 43/15/35 55/15/35 57/15/35
f 51/21/36 52/21/36 65/21/36 64/21/36
f 48/14/37 47/20/37 60/20/37 56/14/37
f 54/21/38 49/21/38 61/21/38 62/21/38
f 45/14/39 44/15/39 57/15/39 58/14/39
f 52/21/40 53/21/40 66/21/40 65/21/40
f 67/22/41 80/23/41 79/24/41
f 68/25/42 80/23/42 82/26/42
f 67/22/43 79/24/43 84/27/43
f 67/22/44 84/27/44 86/24/44
f 67/22/45 86/24/45 83/23/45
f 68/25/46 82/26/46 89/28/46
f 69/29/47 81/30/47 91/31/47
f 70/32/48 85/33/48 93/34/48
f 71/29/49 87/33/49 95/35/49
f 72/25/50 88/30/50 97/36/50
f 68/25/51 89/28/51 92/36/51
f 69/29/52 91/31/52 94/35/52
f 70/32/53 93/34/53 96/34/53
f 71/29/54 95/35/54 98/31/54
f 72/25/55 97/36/55 90/28/55
f 73/37/56 99/38/56 104/39/56
f 74/40/57 100/41/57 106/42/57
f 75/40/58 101/43/58 107/42/58
f 76/37/59 102/41/59 108/39/59
f 77/44/60 103/38/60 105/45/60
f 105/45/61 108/39/61 78/46/61
f 105/45/62 103/38/62 108/39/62
f 103/38/63 76/37/63 108/39/63
f 108/39/64 107/42/64 78/46/64
f 108/39/65 102/41/65 107/42/65
f 102/41/66 75/40/66 107/42/66
f 107/42/67 106/42/67 78/46/67
f 107/42/68 101/43/68 106/42/68
f 101/43/69 74/40/69 106/42/69
f 106/42/70 104/39/70 78/46/70
f 106/42/71 100/41/71 104/39/71
f 100/41/72 73/37/72 104/39/72
f 104/39/73 105/45/73 78/46/73
f 104/39/74 99/38/74 105/45/74
f 99/38/75 77/44/75 105/45/75
f 90/28/76 103/38/76 77/44/76
f 90/28/77 97/36/77 103/38/77
f 97/36/78 76/37/78 103/38/78
f 98/31/79 102/41/79 76/37/79
f 98/31/80 95/35/80 102/41/80
f 95/35/81 75/40/81 102/41/81
f 96/34/82 101/43/82 75/40/82
f 96/34/83 93/34/83 101/43/83
f 93/34/84 74/40/84 101/43/84
f 94/35/85 100/41/85 74/40/85
f 94/35/86 91/31/86 100/41/86
f 91/31/87 73/37/87 100/41/87
f 92/36/88 99/38/88 73/37/88
f 92/36/89 89/28/89 99/38/89
f 89/28/90 77/44/90 99/38/90
f 97/36/91 98/31/91 76/37/91
f 97/36/92 88/30/92 98/31/92
f 88/30/93 71/29/93 98/31/93
f 95/35/94 96/34/94 75/40/94
f 95/35/95 87/33/95 96/34/95
f 87/33/96 70/32/96 96/34/96
f 93/34/97 94/35/97 74/40/97
f 93/34/98 85/33/98 94/35/98
f 85/33/99 69/29/99 94/35/99
f 91/31/100 92/36/100 73/37/100
f 91/31/101 81/30/101 92/36/101
f 81/30/102 68/25/102 92/36/102
f 89/28/103 90/28/103 77/44/103
f 89/28/104 82/26/104 90/28/104
f 82/26/105 72/25/105 90/28/105
f 83/23/106 88/30/106 72/25/106
f 83/23/107 86/24/107 88/30/107
f 86/24/108 71/29/108 88/30/108
f 86/24/109 87/33/109 71/29/109
f 86/24/110 84/27/110 87/33/110
f 84/27/111 70/32/111 87/33/111
f 84/27/112 85/33/112 70/32/112
f 84/27/113 79/24/113 85/33/113
f 79/24/114 69/29/114 85/33/114
f 82/26/115 83/23/115 72/25/115
f 82/26/116 80/23/116 83/23/116
f 80/23/117 67/22/117 83/23/117
f 79/24/118 81/30/118 69/29/118
f 79/24/119 80/23/119 81/30/119
f 80/23/120 68/25/120 81/30/120
f 133/47/121 109/48/121 114/49/121 150/50/121
f 136/51/122 110/48/122 109/48/122 133/47/122
f 139/52/123 111/49/123 110/48/123 136/51/123
f 142/53/124 112/54/124 111/49/124 139/52/124
f 145/53/125 113/54/125 112/54/125 142/53/125
f 150/50/126 114/49/126 113/54/126 145/53/126
f 118/55/127 117/56/127 129/56/127 130/55/127
f 114/57/128 109/58/128 121/58/128 126/57/128
f 115/55/129 120/59/129 132/59/129 127/55/129
f 111/57/130 112/60/130 124/60/130 123/57/130
f 117/56/131 116/56/131 128/56/131 129/56/131
f 120/59/132 119/61/132 131/61/132 132/59/132
f 121/62/20 128/63/20 127/64/20 126/65/20
f 122/62/133 129/63/133 128/63/133 121/62/133
f 123/65/18 130/64/18 129/63/18 122/62/18
f 124/66/17 131/67/17 130/64/17 123/65/17
f 125/68/16 132/67/16 131/67/16 124/66/16
f 126/65/15 127/64/15 132/67/15 125/68/15
f 112/60/134 113/69/134 125/69/134 124/60/134
f 109/58/135 110/58/135 122/58/135 121/58/135
f 119/61/136 118/55/136 130/55/136 131/61/136
f 113/69/137 114/57/137 126/57/137 125/69/137
f 116/56/138 115/55/138 127/55/138 128/56/138
f 110/58/139 111/57/139 123/57/139 122/58/139
f 31/2/140 148/70/140 147/71/140 36/1/140
f 148/70/141 149/72/141 146/73/141 147/71/141
f 149/72/142 150/50/142 145/53/142 146/73/142
f 36/1/143 147/71/143 144/71/143 35/1/143
f 147/71/144 146/73/144 143/73/144 144/71/144
f 146/73/145 145/53/145 142/53/145 143/73/145
f 35/1/146 144/71/146 141/74/146 34/2/146
f 144/71/147 143/73/147 140/75/147 141/74/147
f 143/73/148 142/53/148 139/52/148 140/75/148
f 34/2/149 141/74/149 138/76/149 33/3/149
f 141/74/150 140/75/150 137/77/150 138/76/150
f 140/75/151 139/52/151 136/51/151 137/77/151
f 33/3/152 138/76/152 135/76/152 32/3/152
f 138/76/153 137/77/153 134/77/153 135/76/153
f 137/77/154 136/51/154 133/47/154 134/77/154
f 32/3/155 135/76/155 148/70/155 31/2/155
f 135/76/156 134/77/156 149/72/156 148/70/156
f 134/77/157 133/47/157 150/50/157 149/72/157
