# Blender 5.1.0
# www.blender.org
mtllib lantern003.mtl
o Lantern.003
v 0.354493 1.123245 -0.208942
v 0.354493 1.123245 0.210352
v -0.008626 1.123245 0.419999
v -0.371746 1.123245 0.210352
v -0.371746 1.123245 -0.208942
v -0.008626 1.123245 -0.418590
v 0.702933 0.018800 -0.410115
v 0.702933 0.018800 0.411527
v -0.008629 0.018800 0.822347
v -0.720191 0.018800 0.411527
v -0.720191 0.018800 -0.410115
v -0.008629 0.018800 -0.820936
v -0.008629 0.264233 -0.820936
v -0.720191 0.264233 -0.410115
v -0.720191 0.264233 0.411527
v -0.008629 0.264233 0.822347
v 0.702933 0.264233 0.411527
v 0.702933 0.264233 -0.410115
v 0.492411 0.264233 -0.288570
v 0.492411 0.264233 0.289981
v -0.008628 0.264233 0.579256
v -0.509668 0.264233 0.289981
v -0.509668 0.264233 -0.288570
v -0.008628 0.264233 -0.577845
v -0.008628 0.427854 -0.577845
v -0.509668 0.427854 -0.288570
v -0.509668 0.427854 0.289981
v -0.008628 0.427854 0.579256
v 0.492411 0.427854 0.289981
v 0.492411 0.427854 -0.288570
v -0.008626 1.123245 -0.309764
v -0.277500 1.123245 -0.154530
v -0.277500 1.123245 0.155939
v -0.008626 1.123245 0.311173
v 0.260247 1.123245 0.155939
v 0.260247 1.123245 -0.154530
v 0.228308 10.068587 -0.135359
v 0.228308 10.068587 0.136527
v -0.007152 10.068587 0.272470
v -0.242612 10.068587 0.136527
v -0.242612 10.068587 -0.135359
v -0.007152 10.068587 -0.271302
v 0.792675 10.351079 -0.461192
v 0.792674 10.351079 0.462368
v -0.007152 10.351079 0.924148
v -0.806978 10.351079 0.462368
v -0.806978 10.351079 -0.461192
v -0.007152 10.351079 -0.922972
v 0.602531 10.351079 -0.351413
v 0.602531 10.351079 0.352588
v -0.007152 10.351079 0.704589
v -0.616835 10.351079 0.352588
v -0.616835 10.351079 -0.351413
v -0.007152 10.351079 -0.703414
v 0.964929 10.623543 -0.560643
v -0.007152 10.623543 -1.121874
v 0.964929 10.623543 0.561819
v -0.007152 10.623543 1.123050
v -0.979232 10.623543 0.561819
v -0.979232 10.623543 -0.560643
v 0.733835 10.623544 -0.427221
v -0.007152 10.623544 -0.855031
v 0.733835 10.623544 0.428397
v -0.007152 10.623544 0.856206
v -0.748139 10.623544 0.428397
v -0.748139 10.623544 -0.427221
v 0.016591 10.201318 -0.001359
v 0.874743 10.856879 0.622118
v -0.311188 10.856878 1.007458
v -1.044141 10.856884 -0.001359
v -0.311188 10.856878 -1.010175
v 0.874743 10.856879 -0.624835
v 0.344369 11.917625 1.007458
v -0.841562 11.917625 0.622118
v -0.841562 11.917625 -0.624835
v 0.344369 11.917625 -1.010175
v 1.077322 11.917621 -0.001359
v 0.016591 12.573187 -0.001359
v -0.176072 10.378431 0.591603
v 0.520994 10.378431 0.365110
v 0.328337 10.763762 0.958076
v 1.025404 10.763764 -0.001359
v 0.520994 10.378431 -0.367827
v -0.606892 10.378435 -0.001359
v -0.799557 10.763763 0.591605
v -0.176072 10.378431 -0.594320
v -0.799557 10.763763 -0.594323
v 0.328337 10.763762 -0.960793
v 1.144485 11.387253 0.365110
v 1.144485 11.387253 -0.367827
v 0.016591 11.387253 1.184578
v 0.713666 11.387253 0.958082
v -1.111304 11.387253 0.365110
v -0.680485 11.387253 0.958082
v -0.680485 11.387253 -0.960799
v -1.111304 11.387253 -0.367827
v 0.713666 11.387253 -0.960799
v 0.016591 11.387253 -1.187295
v 0.832738 12.010741 0.591605
v -0.295156 12.010742 0.958076
v -0.992223 12.010741 -0.001359
v -0.295156 12.010742 -0.960793
v 0.832738 12.010741 -0.594323
v 0.209253 12.396072 0.591603
v 0.640073 12.396070 -0.001359
v -0.487813 12.396072 0.365110
v -0.487813 12.396072 -0.367827
v 0.209253 12.396072 -0.594320
v -0.242612 8.802651 -0.135359
v -0.242612 8.802651 0.136527
v -0.007152 8.802651 0.272470
v 0.228308 8.802651 0.136527
v 0.228308 8.802651 -0.135359
v -0.007152 8.802651 -0.271302
v -0.007152 9.006613 -0.271302
v -0.242612 9.006613 -0.135359
v -0.242612 9.006613 0.136527
v -0.007152 9.006613 0.272470
v 0.228308 9.006613 0.136527
v 0.228308 9.006613 -0.135359
v -0.365591 8.872499 -0.206358
v -0.365591 8.872499 0.207531
v -0.007152 8.872499 0.414476
v 0.351287 8.872499 0.207531
v 0.351287 8.872499 -0.206358
v -0.007152 8.872499 -0.413303
v -0.007152 8.936765 -0.413303
v -0.365591 8.936765 -0.206358
v -0.365591 8.936765 0.207531
v -0.007152 8.936765 0.414476
v 0.351287 8.936765 0.207531
v 0.351287 8.936765 -0.206358
vn 0.4904 0.1945 0.8495
vn -0.0000 -1.0000 -0.0000
vn 1.0000 -0.0000 -0.0000
vn -0.5000 -0.0000 0.8660
vn -0.5000 -0.0000 -0.8660
vn 0.5000 -0.0000 -0.8660
vn 0.5000 -0.0000 0.8660
vn -1.0000 -0.0000 -0.0000
vn -0.0000 1.0000 -0.0000
vn -0.4904 0.1945 -0.8495
vn -0.9809 0.1945 -0.0000
vn 0.4904 0.1945 -0.8495
vn 0.9809 0.1945 -0.0000
vn -0.4904 0.1945 0.8495
vn -0.2238 -0.8942 -0.3876
vn -0.2238 -0.8942 0.3876
vn 0.4476 -0.8942 -0.0000
vn -0.4476 -0.8942 -0.0000
vn 0.2238 -0.8942 0.3876
vn 0.2238 -0.8942 -0.3876
vn -0.8452 -0.5344 -0.0000
vn -0.4504 0.4341 -0.7802
vn 0.4226 -0.5344 -0.7320
vn 0.4504 0.4341 0.7802
vn -0.4226 -0.5344 0.7320
vn -0.9008 0.4341 -0.0000
vn 0.8452 -0.5344 -0.0000
vn 0.4504 0.4341 -0.7802
vn -0.4226 -0.5344 -0.7320
vn -0.4504 0.4341 0.7802
vn 0.4226 -0.5344 0.7320
vn 0.9008 0.4341 -0.0000
vn 0.1024 -0.9435 0.3151
vn 0.7002 -0.6617 0.2680
vn -0.2680 -0.9435 0.1947
vn -0.2680 -0.9435 -0.1947
vn 0.1024 -0.9435 -0.3151
vn 0.9050 -0.3304 0.2680
vn 0.0247 -0.3304 0.9435
vn -0.8897 -0.3304 0.3151
vn -0.5746 -0.3304 -0.7488
vn 0.5346 -0.3304 -0.7779
vn 0.8026 -0.1256 0.5831
vn -0.3066 -0.1256 0.9435
vn -0.9921 -0.1256 -0.0000
vn -0.3066 -0.1256 -0.9435
vn 0.8026 -0.1256 -0.5831
vn 0.4089 0.6617 0.6284
vn -0.4713 0.6617 0.5831
vn -0.7002 0.6617 -0.2680
vn 0.0385 0.6617 -0.7488
vn 0.7240 0.6617 -0.1947
vn 0.2680 0.9435 -0.1947
vn 0.4911 0.7947 -0.3568
vn 0.4089 0.6617 -0.6284
vn -0.1024 0.9435 -0.3151
vn -0.1876 0.7947 -0.5773
vn -0.4713 0.6617 -0.5831
vn -0.3313 0.9435 -0.0000
vn -0.6071 0.7947 -0.0000
vn -0.7002 0.6617 0.2680
vn -0.1024 0.9435 0.3151
vn -0.1876 0.7947 0.5773
vn 0.0385 0.6617 0.7488
vn 0.2680 0.9435 0.1947
vn 0.4911 0.7947 0.3568
vn 0.7240 0.6617 0.1947
vn 0.8897 0.3304 -0.3151
vn 0.7947 0.1876 -0.5773
vn 0.5746 0.3304 -0.7488
vn -0.0247 0.3304 -0.9435
vn -0.3035 0.1876 -0.9342
vn -0.5346 0.3304 -0.7779
vn -0.9050 0.3304 -0.2680
vn -0.9822 0.1876 -0.0000
vn -0.9050 0.3304 0.2680
vn -0.5346 0.3304 0.7779
vn -0.3035 0.1876 0.9342
vn -0.0247 0.3304 0.9435
vn 0.5746 0.3304 0.7488
vn 0.7947 0.1876 0.5773
vn 0.8897 0.3304 0.3151
vn 0.3066 0.1256 -0.9435
vn 0.3035 -0.1876 -0.9342
vn 0.0247 -0.3304 -0.9435
vn -0.8026 0.1256 -0.5831
vn -0.7947 -0.1876 -0.5773
vn -0.8897 -0.3304 -0.3151
vn -0.8026 0.1256 0.5831
vn -0.7947 -0.1876 0.5773
vn -0.5746 -0.3304 0.7488
vn 0.3066 0.1256 0.9435
vn 0.3035 -0.1876 0.9342
vn 0.5346 -0.3304 0.7779
vn 0.9921 0.1256 -0.0000
vn 0.9822 -0.1876 -0.0000
vn 0.9050 -0.3304 -0.2680
vn 0.4713 -0.6617 -0.5831
vn 0.1876 -0.7947 -0.5773
vn -0.0385 -0.6617 -0.7488
vn -0.4089 -0.6617 -0.6284
vn -0.4911 -0.7947 -0.3568
vn -0.7240 -0.6617 -0.1947
vn -0.7240 -0.6617 0.1947
vn -0.4911 -0.7947 0.3568
vn -0.4089 -0.6617 0.6284
vn 0.7002 -0.6617 -0.2680
vn 0.6071 -0.7947 -0.0000
vn 0.3313 -0.9435 -0.0000
vn -0.0385 -0.6617 0.7488
vn 0.1876 -0.7947 0.5773
vn 0.4713 -0.6617 0.5831
vn -0.5000 0.0044 -0.8660
vn -1.0000 0.0045 -0.0000
vn -0.5000 0.0045 0.8660
vn 0.5000 0.0043 0.8660
vn 1.0000 0.0042 -0.0000
vn 0.5000 0.0042 -0.8660
vn -0.2469 0.8695 0.4277
vn -0.2469 -0.8695 -0.4277
vn 0.2469 0.8695 -0.4277
vn 0.2469 -0.8695 0.4277
vn -0.4939 0.8695 -0.0000
vn 0.4939 0.8695 -0.0000
vn 0.4939 -0.8695 -0.0000
vn -0.4939 -0.8695 -0.0000
vn 0.2469 0.8695 0.4277
vn 0.2469 -0.8695 -0.4277
vn -0.2469 0.8695 -0.4277
vn -0.2469 -0.8695 0.4277
vt 0.679190 0.228006
vt 0.676834 0.228006
vt 0.674478 0.228006
vt 0.689616 0.216119
vt 0.687260 0.216119
vt 0.691971 0.216119
vt 0.679188 0.569774
vt 0.681543 0.569774
vt 0.683899 0.569774
vt 0.676834 0.486561
vt 0.679190 0.486561
vt 0.674478 0.486561
vt 0.676834 0.414434
vt 0.676834 0.476577
vt 0.679190 0.476577
vt 0.679190 0.414434
vt 0.679190 0.414434
vt 0.674478 0.476577
vt 0.674478 0.414434
vt 0.674478 0.476577
vt 0.678399 0.250772
vt 0.432121 0.190659
vt 0.447377 0.233774
vt 0.426294 0.233774
vt 0.458076 0.350244
vt 0.462633 0.327577
vt 0.413263 0.233775
vt 0.470885 0.859593
vt 0.422207 0.350244
vt 0.441550 0.327576
vt 0.436771 0.859593
vt 0.400038 0.350245
vt 0.407436 0.327577
vt 0.402658 0.859593
vt 0.415688 0.859593
vt 0.457855 0.859593
vt 0.442035 0.608465
vt 0.456806 0.631132
vt 0.437948 0.724935
vt 0.406165 0.608465
vt 0.422692 0.631133
vt 0.416865 0.724935
vt 0.401609 0.631132
vt 0.464203 0.608464
vt 0.450979 0.724934
vt 0.432121 0.768050
vt 0.674478 0.352292
vt 0.676834 0.352291
vt 0.679190 0.352291
vt 0.674143 0.491703
vt 0.671788 0.491703
vt 0.686925 0.188838
vt 0.684569 0.188838
vt 0.676499 0.491703
vt 0.689280 0.188838
vt 0.676499 0.491703
vt 0.671115 0.477111
vt 0.671115 0.539254
vt 0.673470 0.539254
vt 0.673470 0.477111
vt 0.675826 0.477111
vt 0.675826 0.539254
vt 0.675826 0.477111
vt 0.689280 0.188837
s 0
usemtl Material.001
f 2/1/1 3/2/1 28/2/1 29/1/1
f 12/2/2 9/2/2 10/3/2 11/3/2
f 9/2/2 12/2/2 7/1/2 8/1/2
f 18/1/3 17/1/3 8/1/3 7/1/3
f 16/4/4 15/5/4 10/5/4 9/4/4
f 14/3/5 13/2/5 12/2/5 11/3/5
f 13/2/6 18/1/6 7/1/6 12/2/6
f 17/6/7 16/4/7 9/4/7 8/6/7
f 15/3/8 14/3/8 11/3/8 10/3/8
f 23/7/9 24/8/9 13/8/9 14/7/9
f 21/8/9 22/7/9 15/7/9 16/8/9
f 19/9/9 20/9/9 17/9/9 18/9/9
f 22/7/9 23/7/9 14/7/9 15/7/9
f 20/9/9 21/8/9 16/8/9 17/9/9
f 24/8/9 19/9/9 18/9/9 13/8/9
f 30/1/3 29/1/3 20/1/3 19/1/3
f 28/2/4 27/3/4 22/3/4 21/2/4
f 26/3/5 25/2/5 24/2/5 23/3/5
f 25/2/6 30/1/6 19/1/6 24/2/6
f 29/1/7 28/2/7 21/2/7 20/1/7
f 27/3/8 26/3/8 23/3/8 22/3/8
f 5/3/10 6/2/10 25/2/10 26/3/10
f 4/3/11 5/3/11 26/3/11 27/3/11
f 6/2/12 1/1/12 30/1/12 25/2/12
f 1/1/13 2/1/13 29/1/13 30/1/13
f 3/2/14 4/3/14 27/3/14 28/2/14
f 31/10/9 36/11/9 1/11/9 6/10/9
f 35/11/9 34/10/9 3/10/9 2/11/9
f 33/12/9 32/12/9 5/12/9 4/12/9
f 36/11/9 35/11/9 2/11/9 1/11/9
f 34/10/9 33/12/9 4/12/9 3/10/9
f 32/12/9 31/10/9 6/10/9 5/12/9
f 115/13/6 42/14/6 37/15/6 120/16/6
f 120/16/3 37/15/3 38/15/3 119/17/3
f 119/17/7 38/15/7 39/14/7 118/13/7
f 118/13/4 39/14/4 40/18/4 117/19/4
f 117/19/8 40/18/8 41/20/8 116/19/8
f 116/19/5 41/20/5 42/14/5 115/13/5
f 42/14/15 41/20/15 47/20/15 48/14/15
f 40/18/16 39/14/16 45/14/16 46/18/16
f 38/15/17 37/15/17 43/15/17 44/15/17
f 41/20/18 40/18/18 46/18/18 47/20/18
f 39/14/19 38/15/19 44/15/19 45/14/19
f 37/15/20 42/14/20 48/14/20 43/15/20
f 47/20/21 46/18/21 59/18/21 60/20/21
f 50/21/22 51/21/22 64/21/22 63/21/22
f 43/15/23 48/14/23 56/14/23 55/15/23
f 53/21/24 54/21/24 62/21/24 66/21/24
f 46/18/25 45/14/25 58/14/25 59/18/25
f 49/21/26 50/21/26 63/21/26 61/21/26
f 57/15/9 55/15/9 61/15/9 63/15/9
f 60/20/9 59/18/9 65/18/9 66/20/9
f 58/14/9 57/15/9 63/15/9 64/14/9
f 55/15/9 56/14/9 62/14/9 61/15/9
f 56/14/9 60/20/9 66/20/9 62/14/9
f 59/18/9 58/14/9 64/14/9 65/18/9
f 44/15/27 43/15/27 55/15/27 57/15/27
f 51/21/28 52/21/28 65/21/28 64/21/28
f 48/14/29 47/20/29 60/20/29 56/14/29
f 54/21/30 49/21/30 61/21/30 62/21/30
f 45/14/31 44/15/31 57/15/31 58/14/31
f 52/21/32 53/21/32 66/21/32 65/21/32
f 67/22/33 80/23/33 79/24/33
f 68/25/34 80/23/34 82/26/34
f 67/22/35 79/24/35 84/27/35
f 67/22/36 84/27/36 86/24/36
f 67/22/37 86/24/37 83/23/37
f 68/25/38 82/26/38 89/28/38
f 69/29/39 81/30/39 91/31/39
f 70/32/40 85/33/40 93/34/40
f 71/29/41 87/33/41 95/35/41
f 72/25/42 88/30/42 97/36/42
f 68/25/43 89/28/43 92/36/43
f 69/29/44 91/31/44 94/35/44
f 70/32/45 93/34/45 96/34/45
f 71/29/46 95/35/46 98/31/46
f 72/25/47 97/36/47 90/28/47
f 73/37/48 99/38/48 104/39/48
f 74/40/49 100/41/49 106/42/49
f 75/40/50 101/43/50 107/42/50
f 76/37/51 102/41/51 108/39/51
f 77/44/52 103/38/52 105/45/52
f 105/45/53 108/39/53 78/46/53
f 105/45/54 103/38/54 108/39/54
f 103/38/55 76/37/55 108/39/55
f 108/39/56 107/42/56 78/46/56
f 108/39/57 102/41/57 107/42/57
f 102/41/58 75/40/58 107/42/58
f 107/42/59 106/42/59 78/46/59
f 107/42/60 101/43/60 106/42/60
f 101/43/61 74/40/61 106/42/61
f 106/42/62 104/39/62 78/46/62
f 106/42/63 100/41/63 104/39/63
f 100/41/64 73/37/64 104/39/64
f 104/39/65 105/45/65 78/46/65
f 104/39/66 99/38/66 105/45/66
f 99/38/67 77/44/67 105/45/67
f 90/28/68 103/38/68 77/44/68
f 90/28/69 97/36/69 103/38/69
f 97/36/70 76/37/70 103/38/70
f 98/31/71 102/41/71 76/37/71
f 98/31/72 95/35/72 102/41/72
f 95/35/73 75/40/73 102/41/73
f 96/34/74 101/43/74 75/40/74
f 96/34/75 93/34/75 101/43/75
f 93/34/76 74/40/76 101/43/76
f 94/35/77 100/41/77 74/40/77
f 94/35/78 91/31/78 100/41/78
f 91/31/79 73/37/79 100/41/79
f 92/36/80 99/38/80 73/37/80
f 92/36/81 89/28/81 99/38/81
f 89/28/82 77/44/82 99/38/82
f 97/36/83 98/31/83 76/37/83
f 97/36/84 88/30/84 98/31/84
f 88/30/85 71/29/85 98/31/85
f 95/35/86 96/34/86 75/40/86
f 95/35/87 87/33/87 96/34/87
f 87/33/88 70/32/88 96/34/88
f 93/34/89 94/35/89 74/40/89
f 93/34/90 85/33/90 94/35/90
f 85/33/91 69/29/91 94/35/91
f 91/31/92 92/36/92 73/37/92
f 91/31/93 81/30/93 92/36/93
f 81/30/94 68/25/94 92/36/94
f 89/28/95 90/28/95 77/44/95
f 89/28/96 82/26/96 90/28/96
f 82/26/97 72/25/97 90/28/97
f 83/23/98 88/30/98 72/25/98
f 83/23/99 86/24/99 88/30/99
f 86/24/100 71/29/100 88/30/100
f 86/24/101 87/33/101 71/29/101
f 86/24/102 84/27/102 87/33/102
f 84/27/103 70/32/103 87/33/103
f 84/27/104 85/33/104 70/32/104
f 84/27/105 79/24/105 85/33/105
f 79/24/106 69/29/106 85/33/106
f 82/26/107 83/23/107 72/25/107
f 82/26/108 80/23/108 83/23/108
f 80/23/109 67/22/109 83/23/109
f 79/24/110 81/30/110 69/29/110
f 79/24/111 80/23/111 81/30/111
f 80/23/112 68/25/112 81/30/112
f 32/3/113 109/47/113 114/48/113 31/2/113
f 33/3/114 110/47/114 109/47/114 32/3/114
f 34/2/115 111/48/115 110/47/115 33/3/115
f 35/1/116 112/49/116 111/48/116 34/2/116
f 36/1/117 113/49/117 112/49/117 35/1/117
f 31/2/118 114/48/118 113/49/118 36/1/118
f 118/50/119 117/51/119 129/51/119 130/50/119
f 114/52/120 109/53/120 121/53/120 126/52/120
f 115/50/121 120/54/121 132/54/121 127/50/121
f 111/52/122 112/55/122 124/55/122 123/52/122
f 117/51/123 116/51/123 128/51/123 129/51/123
f 120/54/124 119/56/124 131/56/124 132/54/124
f 121/57/5 128/58/5 127/59/5 126/60/5
f 122/57/8 129/58/8 128/58/8 121/57/8
f 123/60/4 130/59/4 129/58/4 122/57/4
f 124/61/7 131/62/7 130/59/7 123/60/7
f 125/63/3 132/62/3 131/62/3 124/61/3
f 126/60/6 127/59/6 132/62/6 125/63/6
f 112/55/125 113/64/125 125/64/125 124/55/125
f 109/53/126 110/53/126 122/53/126 121/53/126
f 119/56/127 118/50/127 130/50/127 131/56/127
f 113/64/128 114/52/128 126/52/128 125/64/128
f 116/51/129 115/50/129 127/50/129 128/51/129
f 110/53/130 111/52/130 123/52/130 122/53/130
