# Blender 5.1.0
# www.blender.org
mtllib lantern005.mtl
o Lantern.005
v 0.211969 0.599172 -0.107674
v 0.211969 0.599172 0.129228
v 0.006806 0.599172 0.247679
v -0.198357 0.599172 0.129228
v -0.198357 0.599172 -0.107674
v 0.006806 0.599172 -0.226125
v 0.531048 2.073894 0.529652
v 0.359994 0.857738 0.358598
v -0.534145 2.073894 -0.535539
v -0.363091 0.857738 -0.364486
v -0.534145 2.073894 0.529652
v -0.363091 0.857738 0.358598
v 0.408838 -0.024841 -0.221337
v 0.408838 -0.024841 0.242892
v 0.006804 -0.024841 0.475006
v -0.395229 -0.024841 0.242892
v -0.395229 -0.024841 -0.221337
v 0.006804 -0.024841 -0.453451
v 0.006804 0.113829 -0.453451
v -0.395229 0.113829 -0.221337
v -0.395229 0.113829 0.242892
v 0.006804 0.113829 0.475006
v 0.408838 0.113829 0.242892
v 0.408838 0.113829 -0.221337
v 0.289893 0.113829 -0.152664
v 0.289893 0.113829 0.174218
v 0.006805 0.113829 0.337659
v -0.276283 0.113829 0.174218
v -0.276283 0.113829 -0.152664
v 0.006805 0.113829 -0.316105
v 0.006805 0.206275 -0.316105
v -0.276283 0.206275 -0.152664
v -0.276283 0.206275 0.174218
v 0.006805 0.206275 0.337659
v 0.289893 0.206275 0.174218
v 0.289893 0.206275 -0.152664
v 0.006806 0.612510 -0.164639
v -0.145108 0.612510 -0.076931
v -0.145108 0.612510 0.098484
v 0.006806 0.612510 0.186192
v 0.158720 0.612510 0.098484
v 0.158720 0.612510 -0.076931
v 0.158720 1.003479 -0.076931
v 0.158720 1.003479 0.098484
v 0.006806 1.003479 0.186192
v -0.145108 1.003479 0.098484
v -0.145108 1.003479 -0.076931
v 0.006806 1.003479 -0.164639
v 0.359994 0.857738 -0.364486
v 0.531048 2.073894 -0.535539
v 0.454014 1.465816 0.452618
v 0.454014 1.465816 -0.458506
v -0.457111 1.465816 -0.458506
v -0.457111 1.465816 0.452618
v -0.526834 1.876805 0.522341
v 0.523737 1.876805 0.522341
v 0.523737 1.876805 -0.528229
v -0.526834 1.876805 -0.528229
v 0.321204 0.857738 0.319808
v -0.324300 0.857738 -0.325696
v -0.324300 0.857738 0.319808
v 0.321204 0.857738 -0.325696
v 0.321204 0.807758 0.319808
v -0.324300 0.807758 -0.325696
v -0.324300 0.807758 0.319808
v 0.321204 0.807758 -0.325696
v 0.284872 0.752779 0.283476
v -0.287968 0.752779 -0.289364
v -0.287968 0.752779 0.283476
v 0.284872 0.752779 -0.289364
v 0.269743 0.672809 0.268346
v -0.272839 0.672809 -0.274234
v -0.272839 0.672809 0.268346
v 0.269743 0.672809 -0.274234
v 0.549251 2.087033 0.547855
v -0.552348 2.087033 -0.553742
v -0.552348 2.087033 0.547855
v 0.549251 2.087033 -0.553742
v 0.549251 2.190861 0.547855
v -0.552348 2.190861 -0.553742
v -0.552348 2.190861 0.547855
v 0.549251 2.190861 -0.553742
v 0.683906 2.138558 0.682510
v -0.687004 2.138558 -0.688398
v -0.687004 2.138558 0.682510
v 0.683906 2.138558 -0.688398
v 0.683906 2.249597 0.682510
v -0.687004 2.249597 -0.688398
v -0.687004 2.249597 0.682510
v 0.683906 2.249597 -0.688398
v 0.578503 2.320258 0.577107
v -0.581601 2.320258 -0.582995
v -0.581601 2.320258 0.577107
v 0.578503 2.320258 -0.582995
v 0.369898 2.385871 0.368502
v -0.372994 2.385871 -0.374389
v -0.372994 2.385871 0.368502
v 0.369898 2.385871 -0.374389
v 0.369898 2.412372 0.368502
v -0.372994 2.412372 -0.374389
v -0.372994 2.412372 0.368502
v 0.369898 2.412372 -0.374389
v 0.317753 2.412372 0.316357
v -0.320849 2.412372 -0.322244
v -0.320849 2.412372 0.316357
v 0.317753 2.412372 -0.322244
v 0.266878 2.485987 0.265481
v -0.269973 2.485987 -0.271369
v -0.269973 2.485987 0.265481
v 0.266878 2.485987 -0.271369
v 0.110410 2.565490 0.109012
v -0.113502 2.565490 -0.114900
v -0.113502 2.565490 0.109012
v 0.110410 2.565490 -0.114900
v 0.072751 2.565490 0.071352
v -0.075842 2.565490 -0.077240
v -0.075842 2.565490 0.071352
v 0.072751 2.565490 -0.077240
v 0.025770 2.642048 0.024371
v -0.028859 2.642048 -0.030258
v -0.028859 2.642048 0.024371
v 0.025770 2.642048 -0.030258
v -0.021921 2.628246 0.062358
v 0.052106 2.628246 0.038305
v 0.031647 2.669167 0.101277
v 0.105673 2.669167 -0.000614
v 0.052106 2.628246 -0.039532
v -0.067673 2.628246 -0.000614
v -0.088134 2.669167 0.062358
v -0.021921 2.628246 -0.063585
v -0.088134 2.669167 -0.063585
v 0.031647 2.669167 -0.102504
v 0.118320 2.735380 0.038305
v 0.118320 2.735380 -0.039532
v -0.001461 2.735380 0.125330
v 0.072568 2.735380 0.101277
v -0.121241 2.735380 0.038305
v -0.075489 2.735380 0.101277
v -0.075489 2.735380 -0.102505
v -0.121241 2.735380 -0.039532
v 0.072568 2.735380 -0.102505
v -0.001461 2.735380 -0.126558
v 0.085213 2.801594 0.062358
v -0.034568 2.801594 0.101277
v -0.108594 2.801594 -0.000614
v -0.034568 2.801594 -0.102504
v 0.085213 2.801594 -0.063585
v 0.019000 2.842515 0.062358
v 0.064752 2.842515 -0.000614
v -0.055027 2.842515 0.038305
v -0.055027 2.842515 -0.039532
v 0.019000 2.842515 -0.063585
v -0.001461 2.861324 -0.000614
v 0.111187 2.791704 -0.000614
v 0.033349 2.791705 -0.107748
v -0.092595 2.791705 -0.066826
v -0.092595 2.791705 0.065598
v 0.033349 2.791705 0.106521
v 0.089674 2.679056 -0.066826
v -0.036270 2.679056 -0.107748
v -0.114108 2.679056 -0.000614
v -0.036270 2.679056 0.106521
v 0.089674 2.679056 0.065598
v -0.001461 2.609437 -0.000614
v -0.001547 0.672810 -0.002944
v 0.475623 2.021306 0.523007
v -0.478720 2.021306 0.523007
v -0.325467 0.931711 0.369755
v 0.322370 0.931711 0.369755
v 0.406606 1.476508 0.453990
v -0.472170 1.844728 0.516457
v 0.469073 1.844728 0.516457
v -0.409703 1.476508 0.453990
v 0.455371 1.476385 0.405759
v 0.371022 0.930854 0.321410
v 0.524480 2.021915 -0.480756
v 0.524480 2.021915 0.474869
v 0.371022 0.930854 -0.327298
v 0.455371 1.476385 -0.411647
v 0.517921 1.845099 0.468310
v 0.517921 1.845099 -0.474198
v 0.403982 1.477100 -0.459954
v 0.320288 0.935805 -0.376260
v -0.475651 2.018395 -0.528527
v 0.472555 2.018395 -0.528527
v -0.323384 0.935805 -0.376260
v -0.407078 1.477100 -0.459954
v 0.466047 1.842952 -0.522019
v -0.469144 1.842952 -0.522019
v -0.458313 1.475185 -0.416965
v -0.372867 0.922556 -0.331518
v -0.528322 2.027814 0.481086
v -0.528322 2.027814 -0.486973
v -0.521678 1.848697 0.474442
v -0.372867 0.922556 0.325630
v -0.521678 1.848697 -0.480329
v -0.458313 1.475185 0.411077
v 0.429617 1.977656 0.472298
v -0.432714 1.977656 0.472298
v -0.294237 0.993112 0.333821
v 0.291140 0.993112 0.333821
v 0.367254 1.485384 0.409936
v -0.426795 1.818102 0.466380
v 0.423698 1.818102 0.466380
v -0.370351 1.485384 0.409936
v 0.411317 1.485272 0.366354
v 0.335101 0.992338 0.290138
v 0.473764 1.978206 -0.434689
v 0.473764 1.978206 0.428801
v 0.335101 0.992338 -0.296026
v 0.411317 1.485272 -0.372242
v 0.467837 1.818437 0.422875
v 0.467837 1.818437 -0.428762
v 0.364883 1.485919 -0.415892
v 0.289258 0.996812 -0.340267
v -0.429941 1.975025 -0.477853
v 0.426845 1.975025 -0.477853
v -0.292355 0.996812 -0.340267
v -0.367980 1.485919 -0.415892
v 0.420964 1.816497 -0.471973
v -0.424061 1.816497 -0.471973
v -0.414275 1.484188 -0.377047
v -0.337066 0.984840 -0.299839
v -0.477534 1.983536 0.434419
v -0.477534 1.983536 -0.440306
v -0.471530 1.821688 0.428415
v -0.337066 0.984840 0.293951
v -0.471530 1.821688 -0.434303
v -0.414275 1.484188 0.371160
vn 0.4904 0.1945 0.8495
vn -0.5853 -0.8108 -0.0000
vn 0.0089 -0.1658 0.9861
vn 0.9956 -0.0337 0.0874
vn -0.0874 -0.0337 -0.9956
vn -0.9921 -0.1254 -0.0000
vn -0.0000 -1.0000 -0.0000
vn 1.0000 -0.0000 -0.0000
vn -0.5000 -0.0000 0.8660
vn -0.5000 -0.0000 -0.8660
vn 0.5000 -0.0000 -0.8660
vn 0.5000 -0.0000 0.8660
vn -1.0000 -0.0000 -0.0000
vn -0.0000 1.0000 -0.0000
vn -0.4904 0.1945 -0.8495
vn -0.9809 0.1945 -0.0000
vn 0.4904 0.1945 -0.8495
vn 0.9809 0.1945 -0.0000
vn -0.4904 0.1945 0.8495
vn 0.1215 0.9700 -0.2104
vn 0.1215 0.9700 0.2104
vn -0.2430 0.9700 -0.0000
vn 0.2430 0.9700 -0.0000
vn -0.1215 0.9700 0.2104
vn -0.1215 0.9700 -0.2104
vn -0.9888 -0.1491 -0.0000
vn -0.0089 -0.1658 -0.9861
vn 0.9888 -0.1491 -0.0000
vn -0.0057 -0.1519 0.9884
vn -0.9884 -0.1519 -0.0057
vn -0.0000 -0.1254 -0.9921
vn 0.9861 -0.1658 0.0088
vn 0.0057 -0.1519 0.9884
vn -0.0000 -0.0000 -1.0000
vn -0.0000 -0.0000 1.0000
vn -0.0000 -0.5513 -0.8343
vn -0.0000 -0.5513 0.8343
vn -0.8343 -0.5513 -0.0000
vn 0.8343 -0.5513 -0.0000
vn -0.0000 -0.1859 -0.9826
vn -0.0000 -0.1859 0.9826
vn -0.9826 -0.1859 -0.0000
vn 0.9826 -0.1859 -0.0000
vn -0.0000 -0.8108 0.5853
vn 0.5853 -0.8108 -0.0000
vn -0.0000 -0.8108 -0.5853
vn -0.0000 -0.9322 -0.3621
vn 0.3621 -0.9322 -0.0000
vn -0.3621 -0.9322 -0.0000
vn -0.0000 -0.9322 0.3621
vn -0.0000 0.8306 -0.5568
vn -0.0000 0.8306 0.5568
vn -0.5568 0.8306 -0.0000
vn 0.5568 0.8306 -0.0000
vn -0.3000 0.9539 -0.0000
vn 0.3000 0.9539 -0.0000
vn -0.0000 0.9539 -0.3000
vn -0.0000 0.9539 0.3000
vn -0.8227 0.5685 -0.0000
vn 0.8227 0.5685 -0.0000
vn -0.0000 0.5685 -0.8227
vn -0.0000 0.5685 0.8227
vn -0.0000 0.8915 -0.4530
vn -0.0000 0.8915 0.4530
vn -0.4530 0.8915 -0.0000
vn 0.4530 0.8915 -0.0000
vn -0.8523 0.5230 -0.0000
vn 0.8523 0.5230 -0.0000
vn -0.0000 0.5230 -0.8523
vn -0.0000 0.5230 0.8523
vn 0.4089 0.6617 -0.6284
vn 0.4911 0.7947 -0.3568
vn 0.2680 0.9435 -0.1947
vn -0.4713 0.6617 -0.5831
vn -0.1876 0.7947 -0.5773
vn -0.1024 0.9435 -0.3151
vn -0.7002 0.6617 0.2680
vn -0.6071 0.7947 -0.0000
vn -0.3313 0.9435 -0.0000
vn 0.0385 0.6617 0.7488
vn -0.1876 0.7947 0.5773
vn -0.1024 0.9435 0.3151
vn 0.7240 0.6617 0.1947
vn 0.4911 0.7947 0.3568
vn 0.2680 0.9435 0.1947
vn 0.5746 0.3304 -0.7488
vn 0.7947 0.1876 -0.5773
vn 0.8897 0.3304 -0.3151
vn -0.5346 0.3304 -0.7779
vn -0.3035 0.1876 -0.9342
vn -0.0247 0.3304 -0.9435
vn -0.9050 0.3304 0.2680
vn -0.9822 0.1876 -0.0000
vn -0.9050 0.3304 -0.2680
vn -0.0247 0.3304 0.9435
vn -0.3035 0.1876 0.9342
vn -0.5346 0.3304 0.7779
vn 0.8897 0.3304 0.3151
vn 0.7947 0.1876 0.5773
vn 0.5746 0.3304 0.7488
vn 0.0247 -0.3304 -0.9435
vn 0.3035 -0.1876 -0.9342
vn 0.3066 0.1256 -0.9435
vn -0.8897 -0.3304 -0.3151
vn -0.7947 -0.1876 -0.5773
vn -0.8026 0.1256 -0.5831
vn -0.5746 -0.3304 0.7488
vn -0.7947 -0.1876 0.5773
vn -0.8026 0.1256 0.5831
vn 0.5346 -0.3304 0.7779
vn 0.3035 -0.1876 0.9342
vn 0.3066 0.1256 0.9435
vn 0.9050 -0.3304 -0.2680
vn 0.9822 -0.1876 -0.0000
vn 0.9921 0.1256 -0.0000
vn -0.0385 -0.6617 -0.7488
vn 0.1876 -0.7947 -0.5773
vn 0.4713 -0.6617 -0.5831
vn -0.7240 -0.6617 -0.1947
vn -0.4911 -0.7947 -0.3568
vn -0.4089 -0.6617 -0.6284
vn -0.4089 -0.6617 0.6284
vn -0.4911 -0.7947 0.3568
vn -0.7240 -0.6617 0.1947
vn 0.3313 -0.9435 -0.0000
vn 0.6071 -0.7947 -0.0000
vn 0.7002 -0.6617 -0.2680
vn 0.4713 -0.6617 0.5831
vn 0.1876 -0.7947 0.5773
vn -0.0385 -0.6617 0.7488
vn 0.7240 0.6617 -0.1947
vn 0.0385 0.6617 -0.7488
vn -0.7002 0.6617 -0.2680
vn -0.4713 0.6617 0.5831
vn 0.4089 0.6617 0.6284
vn 0.8026 -0.1256 -0.5831
vn -0.3066 -0.1256 -0.9435
vn -0.9921 -0.1256 -0.0000
vn -0.3066 -0.1256 0.9435
vn 0.8026 -0.1256 0.5831
vn 0.5346 -0.3304 -0.7779
vn -0.5746 -0.3304 -0.7488
vn -0.8897 -0.3304 0.3151
vn 0.0247 -0.3304 0.9435
vn 0.9050 -0.3304 0.2680
vn 0.1024 -0.9435 -0.3151
vn -0.2680 -0.9435 -0.1947
vn -0.2680 -0.9435 0.1947
vn 0.7002 -0.6617 0.2680
vn 0.1024 -0.9435 0.3151
vn 0.7465 0.0138 -0.6652
vn -0.6755 0.0023 -0.7373
vn 0.6711 0.0026 -0.7413
vn -0.0000 -0.1254 0.9921
vn 0.0874 -0.0337 0.9956
vn -0.0089 -0.1658 0.9861
vn -0.0874 -0.0337 0.9956
vn -0.0000 -0.1491 0.9888
vn -0.7465 0.0138 -0.6652
vn -0.6571 -0.7538 -0.0000
vn 0.7467 0.0126 -0.6651
vn 0.9884 -0.1519 -0.0057
vn 0.9884 -0.1519 0.0057
vn 0.9861 -0.1658 -0.0088
vn 0.9921 -0.1254 -0.0000
vn 0.9956 -0.0337 -0.0874
vn -0.7417 0.0026 0.6707
vn -0.6727 0.0104 0.7398
vn 0.6681 0.0129 0.7440
vn -0.0000 -0.1491 -0.9888
vn 0.0089 -0.1658 -0.9861
vn -0.0057 -0.1519 -0.9884
vn 0.0874 -0.0337 -0.9956
vn 0.0057 -0.1519 -0.9884
vn -0.0000 0.5081 -0.8613
vn 0.7444 0.0130 0.6676
vn 0.6681 0.0129 -0.7440
vn -0.9861 -0.1658 -0.0089
vn -0.9861 -0.1658 0.0089
vn -0.9956 -0.0337 -0.0874
vn -0.9956 -0.0337 0.0874
vn -0.9884 -0.1519 0.0057
vn -0.0000 -0.0371 0.9993
vn -0.0000 -0.1528 0.9883
vn -0.0000 -0.1673 0.9859
vn 0.9993 -0.0371 -0.0000
vn 0.9883 -0.1528 -0.0000
vn 0.9859 -0.1673 -0.0000
vn -0.0000 -0.0371 -0.9993
vn -0.0000 -0.1528 -0.9883
vn -0.0000 -0.1673 -0.9859
vn -0.9993 -0.0371 -0.0000
vn -0.9883 -0.1528 -0.0000
vn -0.9859 -0.1673 -0.0000
vn 0.6711 0.0026 0.7413
vn -0.8670 0.4983 -0.0000
vn -0.6728 0.0113 0.7397
vn -0.7437 0.0028 -0.6685
vn -0.6727 0.0104 -0.7398
vn 0.7437 0.0028 -0.6685
vn -0.0000 -0.7579 0.6524
vn -0.0000 0.5051 0.8631
vn -0.6728 0.0113 -0.7397
vn -0.7445 0.0119 0.6675
vn -0.6755 0.0023 0.7373
vn 0.6680 0.0118 -0.7441
vn 0.7417 0.0026 0.6707
vn 0.6528 -0.7575 -0.0000
vn -0.7444 0.0130 0.6676
vn 0.8634 0.5044 -0.0000
vn 0.7445 0.0119 0.6675
vn -0.7467 0.0126 -0.6651
vn 0.6680 0.0118 0.7441
vn -0.0000 -0.7597 -0.6502
vt 0.679190 0.228006
vt 0.676834 0.228006
vt 0.676832 0.294899
vt 0.676338 0.296885
vt 0.671945 0.691962
vt 0.673837 0.629836
vt 0.675124 0.631452
vt 0.673428 0.687113
vt 0.700458 0.691962
vt 0.700656 0.721755
vt 0.700478 0.713898
vt 0.700300 0.687169
vt 0.698892 0.686845
vt 0.699069 0.713366
vt 0.671746 0.721755
vt 0.671905 0.714789
vt 0.674478 0.228006
vt 0.689616 0.216119
vt 0.687260 0.216119
vt 0.691971 0.216119
vt 0.679188 0.569774
vt 0.681543 0.569774
vt 0.683899 0.569774
vt 0.676834 0.486561
vt 0.679190 0.486561
vt 0.674478 0.486561
vt 0.676834 0.476577
vt 0.679190 0.476577
vt 0.674478 0.476577
vt 0.674478 0.476577
vt 0.676389 0.537917
vt 0.676124 0.547715
vt 0.698566 0.629836
vt 0.697208 0.631542
vt 0.696014 0.537917
vt 0.696313 0.548969
vt 0.697279 0.631452
vt 0.694993 0.549099
vt 0.673805 0.631252
vt 0.673334 0.713366
vt 0.698602 0.631433
vt 0.677410 0.549099
vt 0.696014 0.312053
vt 0.694961 0.312053
vt 0.676389 0.312053
vt 0.677442 0.312053
vt 0.677442 0.537917
vt 0.677442 0.530362
vt 0.694961 0.537917
vt 0.694961 0.530362
vt 0.677442 0.459036
vt 0.694961 0.459036
vt 0.693975 0.450725
vt 0.678428 0.450725
vt 0.678428 0.522051
vt 0.693975 0.522051
vt 0.693564 0.509962
vt 0.678838 0.509962
vt 0.705742 0.294899
vt 0.706236 0.296885
vt 0.704541 0.536524
vt 0.674643 0.536524
vt 0.674643 0.552219
vt 0.704541 0.552219
vt 0.672948 0.544730
vt 0.702846 0.544730
vt 0.706500 0.536824
vt 0.669293 0.536824
vt 0.667221 0.534666
vt 0.667221 0.551451
vt 0.704429 0.534666
vt 0.704429 0.551451
vt 0.704805 0.473857
vt 0.667598 0.473857
vt 0.670458 0.537353
vt 0.701944 0.537353
vt 0.676120 0.596313
vt 0.696283 0.596313
vt 0.696283 0.679050
vt 0.696283 0.683056
vt 0.676120 0.679050
vt 0.676120 0.683056
vt 0.696283 0.620127
vt 0.676120 0.620127
vt 0.677535 0.620127
vt 0.694867 0.620127
vt 0.678916 0.686277
vt 0.693487 0.686277
vt 0.683163 0.757718
vt 0.689240 0.757718
vt 0.684185 0.757718
vt 0.688218 0.757718
vt 0.685460 0.826514
vt 0.686943 0.826514
vt 0.701508 0.796040
vt 0.693265 0.775237
vt 0.690985 0.882123
vt 0.698256 0.882123
vt 0.687733 0.921689
vt 0.682471 0.796040
vt 0.673248 0.775237
vt 0.679219 0.882123
vt 0.670705 0.796040
vt 0.705636 0.775237
vt 0.699498 0.656753
vt 0.706770 0.656753
vt 0.675967 0.656753
vt 0.687733 0.656753
vt 0.668696 0.656753
vt 0.692995 0.517467
vt 0.682201 0.538268
vt 0.673957 0.517467
vt 0.669829 0.538270
vt 0.702217 0.538268
vt 0.704760 0.517467
vt 0.684481 0.431385
vt 0.696246 0.431385
vt 0.677209 0.431385
vt 0.687733 0.391818
vt 0.676148 0.099841
vt 0.683511 0.099841
vt 0.690874 0.099841
vt 0.673500 0.579121
vt 0.671815 0.634424
vt 0.670390 0.635293
vt 0.670209 0.662368
vt 0.698783 0.661477
vt 0.698605 0.634749
vt 0.673251 0.713806
vt 0.699152 0.713806
vt 0.698974 0.687113
vt 0.697197 0.634424
vt 0.695513 0.579121
vt 0.675771 0.497297
vt 0.697279 0.634693
vt 0.697457 0.661385
vt 0.672109 0.578831
vt 0.674428 0.495294
vt 0.696907 0.579013
vt 0.677467 0.549718
vt 0.694936 0.549718
vt 0.673511 0.686845
vt 0.675195 0.631542
vt 0.693241 0.497297
vt 0.671733 0.634693
vt 0.673429 0.579031
vt 0.672085 0.687713
vt 0.465609 0.729253
vt 0.466019 0.803187
vt 0.406332 0.803187
vt 0.406742 0.729253
vt 0.456434 0.346971
vt 0.461702 0.575079
vt 0.410649 0.575079
vt 0.415917 0.346971
vt 0.468664 0.729408
vt 0.469074 0.803442
vt 0.459477 0.346612
vt 0.464752 0.575027
vt 0.406931 0.728510
vt 0.406524 0.801968
vt 0.465827 0.801968
vt 0.465420 0.728510
vt 0.416047 0.348685
vt 0.410813 0.575327
vt 0.461538 0.575327
vt 0.456304 0.348685
vt 0.403646 0.730915
vt 0.403230 0.805912
vt 0.412953 0.343137
vt 0.407609 0.574524
vt 0.697374 0.660945
vt 0.671639 0.660945
vt 0.671556 0.661385
vt 0.675715 0.496678
vt 0.693298 0.496678
vt 0.695584 0.579031
vt 0.694618 0.496548
s 0
usemtl Material.001
f 2/1/1 3/2/1 34/2/1 35/1/1
f 9/3/2 11/3/2 77/4/2 76/4/2
f 55/5/3 54/6/3 173/7/3 171/8/3
f 57/9/4 50/10/4 176/11/4 181/12/4
f 50/10/5 57/9/5 188/13/5 185/14/5
f 11/15/6 9/15/6 193/16/6 192/16/6
f 18/2/7 15/2/7 16/17/7 17/17/7
f 15/2/7 18/2/7 13/1/7 14/1/7
f 24/1/8 23/1/8 14/1/8 13/1/8
f 22/18/9 21/19/9 16/19/9 15/18/9
f 20/17/10 19/2/10 18/2/10 17/17/10
f 19/2/11 24/1/11 13/1/11 18/2/11
f 23/20/12 22/18/12 15/18/12 14/20/12
f 21/17/13 20/17/13 17/17/13 16/17/13
f 29/21/14 30/22/14 19/22/14 20/21/14
f 27/22/14 28/21/14 21/21/14 22/22/14
f 25/23/14 26/23/14 23/23/14 24/23/14
f 28/21/14 29/21/14 20/21/14 21/21/14
f 26/23/14 27/22/14 22/22/14 23/23/14
f 30/22/14 25/23/14 24/23/14 19/22/14
f 36/1/8 35/1/8 26/1/8 25/1/8
f 34/2/9 33/17/9 28/17/9 27/2/9
f 32/17/10 31/2/10 30/2/10 29/17/10
f 31/2/11 36/1/11 25/1/11 30/2/11
f 35/1/12 34/2/12 27/2/12 26/1/12
f 33/17/13 32/17/13 29/17/13 28/17/13
f 5/17/15 6/2/15 31/2/15 32/17/15
f 4/17/16 5/17/16 32/17/16 33/17/16
f 6/2/17 1/1/17 36/1/17 31/2/17
f 1/1/18 2/1/18 35/1/18 36/1/18
f 3/2/19 4/17/19 33/17/19 34/2/19
f 37/24/20 42/25/20 1/25/20 6/24/20
f 41/25/21 40/24/21 3/24/21 2/25/21
f 39/26/22 38/26/22 5/26/22 4/26/22
f 42/25/23 41/25/23 2/25/23 1/25/23
f 40/24/24 39/26/24 4/26/24 3/24/24
f 38/26/25 37/24/25 6/24/25 5/26/25
f 37/2/11 48/27/11 43/28/11 42/1/11
f 42/1/8 43/28/8 44/28/8 41/1/8
f 41/1/12 44/28/12 45/27/12 40/2/12
f 40/2/9 45/27/9 46/29/9 39/17/9
f 39/17/13 46/29/13 47/30/13 38/17/13
f 38/17/10 47/30/10 48/27/10 37/2/10
f 10/31/26 12/31/26 195/32/26 191/32/26
f 57/9/27 52/33/27 182/34/27 188/13/27
f 8/35/28 49/35/28 178/36/28 175/36/28
f 8/35/29 51/33/29 170/37/29 169/38/29
f 12/31/30 54/6/30 197/39/30 195/32/30
f 9/15/31 50/10/31 185/14/31 184/40/31
f 52/33/32 57/9/32 181/12/32 179/41/32
f 54/6/33 12/31/33 168/42/33 173/7/33
f 49/43/7 8/43/7 59/44/7 62/44/7
f 10/45/7 49/43/7 62/44/7 60/46/7
f 8/43/7 12/45/7 61/46/7 59/44/7
f 12/45/7 10/45/7 60/46/7 61/46/7
f 61/47/13 60/47/13 64/48/13 65/48/13
f 62/49/8 59/49/8 63/50/8 66/50/8
f 60/47/34 62/49/34 66/50/34 64/48/34
f 59/49/35 61/47/35 65/48/35 63/50/35
f 64/51/36 66/52/36 70/53/36 68/54/36
f 63/52/37 65/51/37 69/54/37 67/53/37
f 65/51/38 64/51/38 68/54/38 69/54/38
f 66/52/39 63/52/39 67/53/39 70/53/39
f 68/55/40 70/56/40 74/57/40 72/58/40
f 67/56/41 69/55/41 73/58/41 71/57/41
f 69/55/42 68/55/42 72/58/42 73/58/42
f 70/56/43 67/56/43 71/57/43 74/57/43
f 11/3/44 7/59/44 75/60/44 77/4/44
f 7/59/45 50/59/45 78/60/45 75/60/45
f 50/59/46 9/3/46 76/4/46 78/60/46
f 78/61/34 76/62/34 80/63/34 82/64/34
f 77/62/35 75/61/35 79/64/35 81/63/35
f 76/62/13 77/62/13 81/63/13 80/63/13
f 75/61/8 78/61/8 82/64/8 79/64/8
f 81/65/47 79/66/47 83/67/47 85/68/47
f 80/65/48 81/65/48 85/68/48 84/68/48
f 79/66/49 82/66/49 86/67/49 83/67/49
f 82/66/50 80/65/50 84/68/50 86/67/50
f 84/69/13 85/69/13 89/70/13 88/70/13
f 83/71/8 86/71/8 90/72/8 87/72/8
f 86/71/34 84/69/34 88/70/34 90/72/34
f 85/69/35 83/71/35 87/72/35 89/70/35
f 90/73/51 88/74/51 92/75/51 94/76/51
f 89/74/52 87/73/52 91/76/52 93/75/52
f 88/74/53 89/74/53 93/75/53 92/75/53
f 87/73/54 90/73/54 94/76/54 91/76/54
f 92/75/55 93/75/55 97/77/55 96/77/55
f 91/76/56 94/76/56 98/78/56 95/78/56
f 94/76/57 92/75/57 96/77/57 98/78/57
f 93/75/58 91/76/58 95/78/58 97/77/58
f 95/79/8 98/79/8 102/80/8 99/80/8
f 98/79/34 96/81/34 100/82/34 102/80/34
f 97/81/35 95/79/35 99/80/35 101/82/35
f 96/81/13 97/81/13 101/82/13 100/82/13
f 102/83/14 100/84/14 104/85/14 106/86/14
f 101/84/14 99/83/14 103/86/14 105/85/14
f 100/84/14 101/84/14 105/85/14 104/85/14
f 99/83/14 102/83/14 106/86/14 103/86/14
f 104/85/59 105/85/59 109/87/59 108/87/59
f 103/86/60 106/86/60 110/88/60 107/88/60
f 106/86/61 104/85/61 108/87/61 110/88/61
f 105/85/62 103/86/62 107/88/62 109/87/62
f 110/88/63 108/87/63 112/89/63 114/90/63
f 109/87/64 107/88/64 111/90/64 113/89/64
f 108/87/65 109/87/65 113/89/65 112/89/65
f 107/88/66 110/88/66 114/90/66 111/90/66
f 114/90/14 112/89/14 116/91/14 118/92/14
f 113/89/14 111/90/14 115/92/14 117/91/14
f 112/89/14 113/89/14 117/91/14 116/91/14
f 111/90/14 114/90/14 118/92/14 115/92/14
f 116/91/67 117/91/67 121/93/67 120/93/67
f 115/92/68 118/92/68 122/94/68 119/94/68
f 118/92/69 116/91/69 120/93/69 122/94/69
f 117/91/70 115/92/70 119/94/70 121/93/70
f 147/95/71 155/96/71 152/97/71
f 149/98/72 147/95/72 152/97/72
f 149/98/73 152/97/73 153/99/73
f 146/100/74 156/101/74 151/102/74
f 152/97/75 146/100/75 151/102/75
f 152/97/76 151/102/76 153/99/76
f 145/103/77 157/101/77 150/102/77
f 151/102/78 145/103/78 150/102/78
f 151/102/79 150/102/79 153/99/79
f 144/100/80 158/96/80 148/97/80
f 150/102/81 144/100/81 148/97/81
f 150/102/82 148/97/82 153/99/82
f 143/95/83 154/104/83 149/98/83
f 148/97/84 143/95/84 149/98/84
f 148/97/85 149/98/85 153/99/85
f 141/105/86 155/96/86 147/95/86
f 134/106/87 141/105/87 147/95/87
f 134/106/88 147/95/88 154/104/88
f 139/107/89 156/101/89 146/100/89
f 142/108/90 139/107/90 146/100/90
f 142/108/91 146/100/91 155/96/91
f 137/109/92 157/101/92 145/103/92
f 140/109/93 137/109/93 145/103/93
f 140/109/94 145/103/94 156/101/94
f 135/108/95 158/96/95 144/100/95
f 138/107/96 135/108/96 144/100/96
f 138/107/97 144/100/97 157/101/97
f 133/106/98 154/104/98 143/95/98
f 136/105/99 133/106/99 143/95/99
f 136/105/100 143/95/100 158/96/100
f 132/110/101 160/111/101 142/108/101
f 141/105/102 132/110/102 142/108/102
f 141/105/103 142/108/103 155/96/103
f 131/112/104 161/113/104 140/109/104
f 139/107/105 131/112/105 140/109/105
f 139/107/106 140/109/106 156/101/106
f 129/112/107 162/111/107 138/107/107
f 137/109/108 129/112/108 138/107/108
f 137/109/109 138/107/109 157/101/109
f 125/110/110 163/114/110 136/105/110
f 135/108/111 125/110/111 136/105/111
f 135/108/112 136/105/112 158/96/112
f 126/115/113 159/114/113 134/106/113
f 133/106/114 126/115/114 134/106/114
f 133/106/115 134/106/115 154/104/115
f 130/116/116 160/111/116 132/110/116
f 127/117/117 130/116/117 132/110/117
f 127/117/118 132/110/118 159/114/118
f 128/118/119 161/113/119 131/112/119
f 130/116/120 128/118/120 131/112/120
f 130/116/121 131/112/121 160/111/121
f 123/116/122 162/111/122 129/112/122
f 128/118/123 123/116/123 129/112/123
f 128/118/124 129/112/124 161/113/124
f 124/117/125 164/119/125 127/117/125
f 126/115/126 124/117/126 127/117/126
f 126/115/127 127/117/127 159/114/127
f 124/117/128 163/114/128 125/110/128
f 123/116/129 124/117/129 125/110/129
f 123/116/130 125/110/130 162/111/130
f 154/104/131 147/95/131 149/98/131
f 155/96/132 146/100/132 152/97/132
f 156/101/133 145/103/133 151/102/133
f 157/101/134 144/100/134 150/102/134
f 158/96/135 143/95/135 148/97/135
f 159/114/136 141/105/136 134/106/136
f 160/111/137 139/107/137 142/108/137
f 161/113/138 137/109/138 140/109/138
f 162/111/139 135/108/139 138/107/139
f 163/114/140 133/106/140 136/105/140
f 159/114/141 132/110/141 141/105/141
f 160/111/142 131/112/142 139/107/142
f 161/113/143 129/112/143 137/109/143
f 162/111/144 125/110/144 135/108/144
f 163/114/145 126/115/145 133/106/145
f 164/119/146 130/116/146 127/117/146
f 164/119/147 128/118/147 130/116/147
f 164/119/148 123/116/148 128/118/148
f 163/114/149 124/117/149 126/115/149
f 164/119/150 124/117/150 123/116/150
f 73/120/7 72/120/7 165/121/7
f 74/122/7 71/122/7 165/121/7
f 72/120/7 74/122/7 165/121/7
f 71/122/7 73/120/7 165/121/7
f 187/123/151 189/124/151 221/124/151 219/123/151
f 194/125/152 192/126/152 224/126/152 226/125/152
f 177/127/153 180/128/153 212/128/153 209/127/153
f 7/10/154 11/15/154 167/129/154 166/130/154
f 11/15/155 55/5/155 171/8/155 167/129/155
f 51/33/156 56/9/156 172/131/156 170/37/156
f 56/9/157 7/10/157 166/130/157 172/131/157
f 12/31/158 8/35/158 169/38/158 168/42/158
f 188/132/159 182/133/159 214/133/159 220/132/159
f 192/126/160 193/126/160 225/126/160 224/126/160
f 186/134/161 187/123/161 219/123/161 218/134/161
f 51/33/162 8/35/162 175/36/162 174/41/162
f 49/35/163 52/33/163 179/41/163 178/36/163
f 56/9/164 51/33/164 174/41/164 180/12/164
f 50/10/165 7/10/165 177/11/165 176/11/165
f 7/10/166 56/9/166 180/12/166 177/11/166
f 172/135/167 166/136/167 198/136/167 204/135/167
f 190/137/168 191/138/168 223/138/168 222/137/168
f 179/139/169 181/128/169 213/128/169 211/139/169
f 49/35/170 10/31/170 186/140/170 183/141/170
f 53/6/171 58/5/171 189/142/171 187/143/171
f 52/33/172 49/35/172 183/141/172 182/34/172
f 58/5/173 9/15/173 184/40/173 189/142/173
f 10/31/174 53/6/174 187/143/174 186/140/174
f 183/144/175 186/134/175 218/134/175 215/144/175
f 171/145/176 173/146/176 205/146/176 203/145/176
f 180/128/177 174/139/177 206/139/177 212/128/177
f 54/6/178 55/5/178 194/147/178 197/39/178
f 58/5/179 53/6/179 190/39/179 196/147/179
f 55/5/180 11/15/180 192/16/180 194/147/180
f 9/15/181 58/5/181 196/147/181 193/16/181
f 53/6/182 10/31/182 191/32/182 190/39/182
f 204/148/183 198/149/183 199/150/183 203/151/183
f 201/152/184 202/153/184 205/154/184 200/155/184
f 202/153/185 204/148/185 203/151/185 205/154/185
f 213/156/186 208/157/186 209/157/186 212/156/186
f 210/158/187 211/159/187 206/159/187 207/158/187
f 211/159/188 213/156/188 212/156/188 206/159/188
f 221/160/189 216/161/189 217/162/189 220/163/189
f 218/164/190 219/165/190 214/166/190 215/167/190
f 219/165/191 221/160/191 220/163/191 214/166/191
f 226/168/192 224/169/192 225/169/192 228/168/192
f 227/170/193 229/171/193 222/171/193 223/170/193
f 229/171/194 226/168/194 228/168/194 222/171/194
f 181/128/195 176/127/195 208/127/195 213/128/195
f 191/138/196 195/138/196 227/138/196 223/138/196
f 196/125/197 190/137/197 222/137/197 228/125/197
f 185/172/198 188/132/198 220/132/198 217/172/198
f 195/138/199 197/137/199 229/137/199 227/138/199
f 189/124/200 184/173/200 216/173/200 221/124/200
f 166/136/201 167/174/201 199/174/201 198/136/201
f 168/175/202 169/176/202 201/176/202 200/175/202
f 197/137/203 194/125/203 226/125/203 229/137/203
f 169/176/204 170/177/204 202/177/204 201/176/204
f 193/126/205 196/125/205 228/125/205 225/126/205
f 174/139/206 175/178/206 207/178/206 206/139/206
f 167/174/207 171/145/207 203/145/207 199/174/207
f 176/127/208 177/127/208 209/127/208 208/127/208
f 170/177/209 172/135/209 204/135/209 202/177/209
f 175/178/210 178/178/210 210/178/210 207/178/210
f 173/146/211 168/175/211 200/175/211 205/146/211
f 182/133/212 183/144/212 215/144/212 214/133/212
f 178/178/213 179/139/213 211/139/213 210/178/213
f 184/173/214 185/172/214 217/172/214 216/173/214
