# Blender 5.1.0
# www.blender.org
mtllib lantern.mtl
o Lantern
v 0.375165 1.060753 -0.190574
v 0.375165 1.060753 0.228721
v 0.012046 1.060753 0.438368
v -0.351074 1.060753 0.228721
v -0.351074 1.060753 -0.190574
v 0.012046 1.060753 -0.400221
v 0.939905 12.369091 0.937434
v 0.637156 10.216609 0.634686
v -0.945386 12.369091 -0.947855
v -0.642637 10.216609 -0.645107
v -0.945386 12.369091 0.937434
v -0.642637 10.216609 0.634686
v 0.723605 -0.043692 -0.391746
v 0.723605 -0.043692 0.429896
v 0.012043 -0.043692 0.840716
v -0.699519 -0.043692 0.429895
v -0.699519 -0.043692 -0.391746
v 0.012043 -0.043692 -0.802567
v 0.012043 0.201740 -0.802567
v -0.699519 0.201740 -0.391746
v -0.699519 0.201740 0.429895
v 0.012043 0.201740 0.840716
v 0.723605 0.201740 0.429896
v 0.723605 0.201740 -0.391746
v 0.513083 0.201740 -0.270201
v 0.513083 0.201740 0.308350
v 0.012044 0.201740 0.597625
v -0.488996 0.201740 0.308350
v -0.488996 0.201740 -0.270201
v 0.012044 0.201740 -0.559476
v 0.012044 0.365361 -0.559476
v -0.488996 0.365361 -0.270201
v -0.488996 0.365361 0.308350
v 0.012044 0.365361 0.597625
v 0.513083 0.365361 0.308350
v 0.513083 0.365361 -0.270201
v 0.012046 1.060753 -0.291395
v -0.256828 1.060753 -0.136161
v -0.256828 1.060753 0.174308
v 0.012046 1.060753 0.329542
v 0.280919 1.060753 0.174308
v 0.280919 1.060753 -0.136161
v 0.280919 9.950665 -0.136161
v 0.280919 9.950665 0.174308
v 0.012046 9.950665 0.329542
v -0.256828 9.950665 0.174308
v -0.256828 9.950665 -0.136161
v 0.012046 9.950665 -0.291395
v 0.637156 10.216609 -0.645107
v 0.939905 12.369091 -0.947855
v 0.803563 11.292850 0.801092
v 0.803563 11.292850 -0.811513
v -0.809044 11.292850 -0.811513
v -0.809044 11.292850 0.801092
v -0.932447 12.020262 0.924495
v 0.926965 12.020262 0.924495
v 0.926965 12.020262 -0.934915
v -0.932447 12.020262 -0.934915
v 0.568501 10.216609 0.566030
v -0.573982 10.216609 -0.576451
v -0.573982 10.216609 0.566030
v 0.568501 10.216609 -0.576451
v 0.568501 10.128147 0.566030
v -0.573982 10.128147 -0.576451
v -0.573982 10.128147 0.566030
v 0.568501 10.128147 -0.576451
v 0.504197 10.030841 0.501726
v -0.509677 10.030841 -0.512147
v -0.509677 10.030841 0.501726
v 0.504197 10.030841 -0.512147
v 0.477419 9.889302 0.474948
v -0.482899 9.889302 -0.485369
v -0.482899 9.889302 0.474948
v 0.477419 9.889302 -0.485369
v 0.972122 12.392345 0.969652
v -0.977604 12.392345 -0.980072
v -0.977604 12.392345 0.969652
v 0.972122 12.392345 -0.980072
v 0.972122 12.576111 0.969652
v -0.977604 12.576111 -0.980072
v -0.977604 12.576111 0.969652
v 0.972122 12.576111 -0.980072
v 1.210449 12.483541 1.207979
v -1.215933 12.483541 -1.218400
v -1.215933 12.483541 1.207979
v 1.210449 12.483541 -1.218400
v 1.210449 12.680068 1.207979
v -1.215933 12.680068 -1.218400
v -1.215933 12.680068 1.207979
v 1.210449 12.680068 -1.218400
v 1.023896 12.805132 1.021426
v -1.029379 12.805132 -1.031847
v -1.029379 12.805132 1.021426
v 1.023896 12.805132 -1.031847
v 0.654684 12.921261 0.652214
v -0.660165 12.921261 -0.662634
v -0.660165 12.921261 0.652214
v 0.654684 12.921261 -0.662634
v 0.654684 12.968165 0.652214
v -0.660165 12.968165 -0.662634
v -0.660165 12.968165 0.652214
v 0.654684 12.968165 -0.662634
v 0.562393 12.968165 0.559922
v -0.567872 12.968165 -0.570342
v -0.567872 12.968165 0.559922
v 0.562393 12.968165 -0.570342
v 0.472349 13.098456 0.469877
v -0.477827 13.098456 -0.480297
v -0.477827 13.098456 0.469877
v 0.472349 13.098456 -0.480297
v 0.195415 13.239169 0.192941
v -0.200888 13.239169 -0.203362
v -0.200888 13.239169 0.192941
v 0.195415 13.239169 -0.203362
v 0.128762 13.239169 0.126287
v -0.134233 13.239169 -0.136708
v -0.134233 13.239169 0.126287
v 0.128762 13.239169 -0.136708
v 0.045611 13.374670 0.043134
v -0.051078 13.374670 -0.053555
v -0.051078 13.374670 0.043134
v 0.045611 13.374670 -0.053555
v -0.038797 13.350242 0.110368
v 0.092223 13.350242 0.067795
v 0.056012 13.422668 0.179250
v 0.187032 13.422668 -0.001086
v 0.092223 13.350242 -0.069968
v -0.119776 13.350242 -0.001086
v -0.155988 13.422668 0.110368
v -0.038797 13.350242 -0.112540
v -0.155988 13.422668 -0.112540
v 0.056012 13.422668 -0.181422
v 0.209415 13.539860 0.067795
v 0.209415 13.539860 -0.069968
v -0.002585 13.539860 0.221823
v 0.128438 13.539860 0.179252
v -0.214585 13.539860 0.067795
v -0.133608 13.539860 0.179252
v -0.133608 13.539860 -0.181424
v -0.214585 13.539860 -0.069968
v 0.128438 13.539860 -0.181424
v -0.002585 13.539860 -0.223995
v 0.150818 13.657051 0.110368
v -0.061182 13.657051 0.179250
v -0.192202 13.657051 -0.001086
v -0.061182 13.657051 -0.181422
v 0.150818 13.657051 -0.112540
v 0.033627 13.729479 0.110368
v 0.114606 13.729478 -0.001086
v -0.097393 13.729479 0.067795
v -0.097393 13.729479 -0.069968
v 0.033627 13.729479 -0.112540
v -0.002585 13.762769 -0.001086
v 0.196791 13.639548 -0.001086
v 0.059024 13.639549 -0.190704
v -0.163884 13.639549 -0.118275
v -0.163884 13.639549 0.116103
v 0.059024 13.639549 0.188532
v 0.158714 13.440170 -0.118275
v -0.064194 13.440170 -0.190704
v -0.201961 13.440171 -0.001086
v -0.064194 13.440170 0.188532
v 0.158714 13.440170 0.116103
v -0.002585 13.316951 -0.001086
v -0.002738 9.889302 -0.005210
v 0.841808 12.276015 0.925674
v -0.847289 12.276015 0.925674
v -0.576046 10.347532 0.654431
v 0.570565 10.347532 0.654431
v 0.719655 11.311774 0.803521
v -0.835697 11.963488 0.914081
v 0.830215 11.963488 0.914081
v -0.725136 11.311774 0.803521
v 0.805963 11.311555 0.718156
v 0.656673 10.346017 0.568866
v 0.928281 12.277094 -0.850894
v 0.928281 12.277094 0.840473
v 0.656673 10.346017 -0.579287
v 0.805963 11.311555 -0.728577
v 0.916673 11.964146 0.828865
v 0.916673 11.964146 -0.839286
v 0.715010 11.312822 -0.814076
v 0.566879 10.354780 -0.665945
v -0.841859 12.270863 -0.935444
v 0.836378 12.270863 -0.935444
v -0.572360 10.354780 -0.665945
v -0.720491 11.312822 -0.814076
v 0.824860 11.960345 -0.923925
v -0.830341 11.960345 -0.923925
v -0.811172 11.309432 -0.737989
v -0.659939 10.331330 -0.586756
v -0.935081 12.287534 0.851477
v -0.935081 12.287534 -0.861898
v -0.923322 11.970513 0.839718
v -0.659939 10.331330 0.576336
v -0.923322 11.970513 -0.850138
v -0.811172 11.309432 0.727568
v 0.760382 12.198758 0.835924
v -0.765863 12.198758 0.835924
v -0.520771 10.456208 0.590833
v 0.515291 10.456208 0.590833
v 0.650006 11.327483 0.725548
v -0.755388 11.916363 0.825449
v 0.749907 11.916363 0.825449
v -0.655487 11.327483 0.725548
v 0.727993 11.327285 0.648413
v 0.593097 10.454838 0.513517
v 0.838518 12.199732 -0.769358
v 0.838518 12.199732 0.758938
v 0.593097 10.454838 -0.523938
v 0.727993 11.327285 -0.658834
v 0.828028 11.916957 0.748449
v 0.828028 11.916957 -0.758869
v 0.645809 11.328430 -0.736090
v 0.511960 10.462756 -0.602241
v -0.760956 12.194102 -0.845756
v 0.755475 12.194102 -0.845756
v -0.517440 10.462756 -0.602241
v -0.651289 11.328430 -0.736090
v 0.745067 11.913523 -0.835348
v -0.750548 11.913523 -0.835348
v -0.733228 11.325367 -0.667338
v -0.596576 10.441567 -0.530687
v -0.845190 12.209166 0.768880
v -0.845190 12.209166 -0.779301
v -0.834565 11.922710 0.758255
v -0.596576 10.441567 0.520266
v -0.834565 11.922710 -0.768675
v -0.733228 11.325367 0.656918
vn 0.4904 0.1945 0.8495
vn -0.5853 -0.8108 -0.0000
vn 0.0089 -0.1658 0.9861
vn 0.9956 -0.0337 0.0874
vn -0.0874 -0.0337 -0.9956
vn -0.9921 -0.1254 -0.0000
vn -0.0000 -1.0000 -0.0000
vn 1.0000 -0.0000 -0.0000
vn -0.5000 -0.0000 0.8660
vn -0.5000 -0.0000 -0.8660
vn 0.5000 -0.0000 -0.8660
vn 0.5000 -0.0000 0.8660
vn -1.0000 -0.0000 -0.0000
vn -0.0000 1.0000 -0.0000
vn -0.4904 0.1945 -0.8495
vn -0.9809 0.1945 -0.0000
vn 0.4904 0.1945 -0.8495
vn 0.9809 0.1945 -0.0000
vn -0.4904 0.1945 0.8495
vn -0.9888 -0.1491 -0.0000
vn -0.0089 -0.1658 -0.9861
vn 0.9888 -0.1491 -0.0000
vn -0.0057 -0.1519 0.9884
vn -0.9884 -0.1519 -0.0057
vn -0.0000 -0.1254 -0.9921
vn 0.9861 -0.1658 0.0088
vn 0.0057 -0.1519 0.9884
vn -0.0000 -0.0000 -1.0000
vn -0.0000 -0.0000 1.0000
vn -0.0000 -0.5513 -0.8343
vn -0.0000 -0.5513 0.8343
vn -0.8343 -0.5513 -0.0000
vn 0.8343 -0.5513 -0.0000
vn -0.0000 -0.1859 -0.9826
vn -0.0000 -0.1859 0.9826
vn -0.9826 -0.1859 -0.0000
vn 0.9826 -0.1859 -0.0000
vn -0.0000 -0.8108 0.5853
vn 0.5853 -0.8108 -0.0000
vn -0.0000 -0.8108 -0.5853
vn -0.0000 -0.9322 -0.3621
vn 0.3621 -0.9322 -0.0000
vn -0.3621 -0.9322 -0.0000
vn -0.0000 -0.9322 0.3621
vn -0.0000 0.8306 -0.5568
vn -0.0000 0.8306 0.5568
vn -0.5568 0.8306 -0.0000
vn 0.5568 0.8306 -0.0000
vn -0.3000 0.9539 -0.0000
vn 0.3000 0.9539 -0.0000
vn -0.0000 0.9539 -0.3000
vn -0.0000 0.9539 0.3000
vn -0.8227 0.5685 -0.0000
vn 0.8227 0.5685 -0.0000
vn -0.0000 0.5685 -0.8227
vn -0.0000 0.5685 0.8227
vn -0.0000 0.8915 -0.4530
vn -0.0000 0.8915 0.4530
vn -0.4530 0.8915 -0.0000
vn 0.4530 0.8915 -0.0000
vn -0.8523 0.5230 -0.0000
vn 0.8523 0.5230 -0.0000
vn -0.0000 0.5230 -0.8523
vn -0.0000 0.5230 0.8523
vn 0.4089 0.6617 -0.6284
vn 0.4911 0.7947 -0.3568
vn 0.2680 0.9435 -0.1947
vn -0.4713 0.6617 -0.5831
vn -0.1876 0.7947 -0.5773
vn -0.1024 0.9435 -0.3151
vn -0.7002 0.6617 0.2680
vn -0.6071 0.7947 -0.0000
vn -0.3313 0.9435 -0.0000
vn 0.0385 0.6617 0.7488
vn -0.1876 0.7947 0.5773
vn -0.1024 0.9435 0.3151
vn 0.7240 0.6617 0.1947
vn 0.4911 0.7947 0.3568
vn 0.2680 0.9435 0.1947
vn 0.5746 0.3304 -0.7488
vn 0.7947 0.1876 -0.5773
vn 0.8897 0.3304 -0.3151
vn -0.5346 0.3304 -0.7779
vn -0.3035 0.1876 -0.9342
vn -0.0247 0.3304 -0.9435
vn -0.9050 0.3304 0.2680
vn -0.9822 0.1876 -0.0000
vn -0.9050 0.3304 -0.2680
vn -0.0247 0.3304 0.9435
vn -0.3035 0.1876 0.9342
vn -0.5346 0.3304 0.7779
vn 0.8897 0.3304 0.3151
vn 0.7947 0.1876 0.5773
vn 0.5746 0.3304 0.7488
vn 0.0248 -0.3304 -0.9435
vn 0.3035 -0.1876 -0.9342
vn 0.3066 0.1256 -0.9435
vn -0.8897 -0.3304 -0.3151
vn -0.7947 -0.1876 -0.5773
vn -0.8026 0.1256 -0.5831
vn -0.5746 -0.3304 0.7488
vn -0.7947 -0.1876 0.5773
vn -0.8026 0.1256 0.5831
vn 0.5346 -0.3304 0.7779
vn 0.3035 -0.1876 0.9342
vn 0.3066 0.1256 0.9435
vn 0.9050 -0.3304 -0.2680
vn 0.9822 -0.1876 -0.0000
vn 0.9921 0.1256 -0.0000
vn -0.0385 -0.6617 -0.7488
vn 0.1876 -0.7947 -0.5773
vn 0.4713 -0.6617 -0.5831
vn -0.7240 -0.6617 -0.1947
vn -0.4911 -0.7947 -0.3568
vn -0.4089 -0.6617 -0.6284
vn -0.4089 -0.6617 0.6284
vn -0.4911 -0.7947 0.3568
vn -0.7240 -0.6617 0.1947
vn 0.3313 -0.9435 -0.0000
vn 0.6071 -0.7947 -0.0000
vn 0.7002 -0.6617 -0.2680
vn 0.4713 -0.6617 0.5831
vn 0.1876 -0.7947 0.5773
vn -0.0385 -0.6617 0.7488
vn 0.7240 0.6617 -0.1947
vn 0.0385 0.6617 -0.7488
vn -0.7002 0.6617 -0.2680
vn -0.4713 0.6617 0.5831
vn 0.4089 0.6617 0.6284
vn 0.8026 -0.1256 -0.5831
vn -0.3066 -0.1256 -0.9435
vn -0.9921 -0.1256 -0.0000
vn -0.3066 -0.1256 0.9435
vn 0.8026 -0.1256 0.5831
vn 0.5346 -0.3304 -0.7779
vn -0.5746 -0.3304 -0.7488
vn -0.8897 -0.3304 0.3151
vn 0.0247 -0.3304 0.9435
vn 0.9050 -0.3304 0.2680
vn 0.1024 -0.9435 -0.3151
vn -0.2680 -0.9435 -0.1947
vn -0.2680 -0.9435 0.1947
vn 0.7002 -0.6617 0.2680
vn 0.1024 -0.9435 0.3151
vn 0.7465 0.0138 -0.6652
vn -0.6755 0.0023 -0.7373
vn 0.6711 0.0026 -0.7413
vn -0.0000 -0.1254 0.9921
vn 0.0874 -0.0337 0.9956
vn -0.0089 -0.1658 0.9861
vn -0.0874 -0.0337 0.9956
vn -0.0000 -0.1491 0.9888
vn -0.7465 0.0138 -0.6652
vn -0.6571 -0.7538 -0.0000
vn 0.7467 0.0126 -0.6651
vn 0.9884 -0.1519 -0.0057
vn 0.9884 -0.1519 0.0057
vn 0.9861 -0.1658 -0.0088
vn 0.9921 -0.1254 -0.0000
vn 0.9956 -0.0337 -0.0874
vn -0.7417 0.0026 0.6707
vn -0.6727 0.0104 0.7398
vn 0.6681 0.0129 0.7440
vn -0.0000 -0.1491 -0.9888
vn 0.0089 -0.1658 -0.9861
vn -0.0057 -0.1519 -0.9884
vn 0.0874 -0.0337 -0.9956
vn 0.0057 -0.1519 -0.9884
vn -0.0000 0.5081 -0.8613
vn 0.7444 0.0130 0.6676
vn 0.6681 0.0129 -0.7440
vn -0.9861 -0.1658 -0.0089
vn -0.9861 -0.1658 0.0089
vn -0.9956 -0.0337 -0.0874
vn -0.9956 -0.0337 0.0874
vn -0.9884 -0.1519 0.0057
vn -0.0000 -0.0371 0.9993
vn -0.0000 -0.1528 0.9883
vn -0.0000 -0.1673 0.9859
vn 0.9993 -0.0371 -0.0000
vn 0.9883 -0.1528 -0.0000
vn 0.9859 -0.1673 -0.0000
vn -0.0000 -0.0371 -0.9993
vn -0.0000 -0.1528 -0.9883
vn -0.0000 -0.1673 -0.9859
vn -0.9993 -0.0371 -0.0000
vn -0.9883 -0.1528 -0.0000
vn -0.9859 -0.1673 -0.0000
vn 0.6711 0.0026 0.7413
vn -0.8670 0.4983 -0.0000
vn -0.6728 0.0113 0.7397
vn -0.7437 0.0028 -0.6685
vn -0.6727 0.0104 -0.7398
vn 0.7437 0.0028 -0.6685
vn -0.0000 -0.7579 0.6524
vn -0.0000 0.5051 0.8631
vn -0.6728 0.0113 -0.7397
vn -0.7445 0.0119 0.6675
vn -0.6755 0.0023 0.7373
vn 0.6680 0.0118 -0.7441
vn 0.7417 0.0026 0.6707
vn 0.6528 -0.7575 -0.0000
vn -0.7444 0.0130 0.6676
vn 0.8634 0.5044 -0.0000
vn 0.7445 0.0119 0.6675
vn -0.7467 0.0126 -0.6651
vn 0.6680 0.0118 0.7441
vn -0.0000 -0.7597 -0.6502
vt 0.679190 0.228006
vt 0.676834 0.228006
vt 0.676832 0.294899
vt 0.676338 0.296885
vt 0.671945 0.691962
vt 0.673837 0.629836
vt 0.675124 0.631452
vt 0.673428 0.687113
vt 0.700458 0.691962
vt 0.700656 0.721755
vt 0.700478 0.713898
vt 0.700300 0.687169
vt 0.698892 0.686845
vt 0.699069 0.713366
vt 0.671746 0.721755
vt 0.671905 0.714789
vt 0.674478 0.228006
vt 0.689616 0.216119
vt 0.687260 0.216119
vt 0.691971 0.216119
vt 0.679188 0.569774
vt 0.681543 0.569774
vt 0.683899 0.569774
vt 0.676834 0.486561
vt 0.679190 0.486561
vt 0.674478 0.486561
vt 0.676834 0.476577
vt 0.679190 0.476577
vt 0.674478 0.476577
vt 0.674478 0.476577
vt 0.676389 0.537917
vt 0.676124 0.547715
vt 0.698566 0.629836
vt 0.697208 0.631542
vt 0.696014 0.537917
vt 0.696313 0.548969
vt 0.697279 0.631452
vt 0.694993 0.549099
vt 0.673805 0.631252
vt 0.673334 0.713366
vt 0.698602 0.631433
vt 0.677410 0.549099
vt 0.696014 0.312053
vt 0.694961 0.312053
vt 0.676389 0.312053
vt 0.677442 0.312053
vt 0.677442 0.537917
vt 0.677442 0.530362
vt 0.694961 0.537917
vt 0.694961 0.530362
vt 0.677442 0.459036
vt 0.694961 0.459036
vt 0.693975 0.450725
vt 0.678428 0.450725
vt 0.678428 0.522051
vt 0.693975 0.522051
vt 0.693564 0.509962
vt 0.678838 0.509962
vt 0.705742 0.294899
vt 0.706236 0.296885
vt 0.704541 0.536524
vt 0.674643 0.536524
vt 0.674643 0.552219
vt 0.704541 0.552219
vt 0.672948 0.544730
vt 0.702846 0.544730
vt 0.706500 0.536824
vt 0.669293 0.536824
vt 0.667221 0.534666
vt 0.667221 0.551451
vt 0.704429 0.534666
vt 0.704429 0.551451
vt 0.704805 0.473857
vt 0.667598 0.473857
vt 0.670458 0.537353
vt 0.701944 0.537353
vt 0.676120 0.596313
vt 0.696283 0.596313
vt 0.696283 0.679050
vt 0.696283 0.683056
vt 0.676120 0.679050
vt 0.676120 0.683056
vt 0.696283 0.620127
vt 0.676120 0.620127
vt 0.677535 0.620127
vt 0.694867 0.620127
vt 0.678916 0.686277
vt 0.693487 0.686277
vt 0.683163 0.757718
vt 0.689240 0.757718
vt 0.684185 0.757718
vt 0.688218 0.757718
vt 0.685460 0.826514
vt 0.686943 0.826514
vt 0.701508 0.796040
vt 0.693265 0.775237
vt 0.690985 0.882123
vt 0.698256 0.882123
vt 0.687733 0.921689
vt 0.682471 0.796040
vt 0.673248 0.775237
vt 0.679219 0.882123
vt 0.670705 0.796040
vt 0.705636 0.775237
vt 0.699498 0.656753
vt 0.706770 0.656753
vt 0.675967 0.656753
vt 0.687733 0.656753
vt 0.668696 0.656753
vt 0.692995 0.517467
vt 0.682201 0.538268
vt 0.673957 0.517467
vt 0.669829 0.538270
vt 0.702217 0.538268
vt 0.704760 0.517467
vt 0.684481 0.431385
vt 0.696246 0.431385
vt 0.677209 0.431385
vt 0.687733 0.391818
vt 0.676148 0.099841
vt 0.683511 0.099841
vt 0.690874 0.099841
vt 0.673500 0.579121
vt 0.671815 0.634424
vt 0.670390 0.635293
vt 0.670209 0.662368
vt 0.698783 0.661477
vt 0.698605 0.634749
vt 0.673251 0.713806
vt 0.699152 0.713806
vt 0.698974 0.687113
vt 0.697197 0.634424
vt 0.695513 0.579121
vt 0.675771 0.497297
vt 0.697279 0.634693
vt 0.697457 0.661385
vt 0.672109 0.578831
vt 0.674428 0.495294
vt 0.696907 0.579013
vt 0.677467 0.549718
vt 0.694936 0.549718
vt 0.673511 0.686845
vt 0.675195 0.631542
vt 0.693241 0.497297
vt 0.671733 0.634693
vt 0.673429 0.579031
vt 0.672085 0.687713
vt 0.465609 0.729253
vt 0.466019 0.803187
vt 0.406332 0.803187
vt 0.406742 0.729253
vt 0.456434 0.346971
vt 0.461702 0.575079
vt 0.410649 0.575079
vt 0.415917 0.346971
vt 0.468664 0.729408
vt 0.469074 0.803442
vt 0.459477 0.346612
vt 0.464752 0.575027
vt 0.406931 0.728510
vt 0.406524 0.801968
vt 0.465827 0.801968
vt 0.465420 0.728510
vt 0.416047 0.348685
vt 0.410813 0.575327
vt 0.461538 0.575327
vt 0.456304 0.348685
vt 0.403646 0.730915
vt 0.403230 0.805912
vt 0.412953 0.343137
vt 0.407609 0.574524
vt 0.697374 0.660945
vt 0.671639 0.660945
vt 0.671556 0.661385
vt 0.675715 0.496678
vt 0.693298 0.496678
vt 0.695584 0.579031
vt 0.694618 0.496548
s 0
usemtl Material.001
f 2/1/1 3/2/1 34/2/1 35/1/1
f 9/3/2 11/3/2 77/4/2 76/4/2
f 55/5/3 54/6/3 173/7/3 171/8/3
f 57/9/4 50/10/4 176/11/4 181/12/4
f 50/10/5 57/9/5 188/13/5 185/14/5
f 11/15/6 9/15/6 193/16/6 192/16/6
f 18/2/7 15/2/7 16/17/7 17/17/7
f 15/2/7 18/2/7 13/1/7 14/1/7
f 24/1/8 23/1/8 14/1/8 13/1/8
f 22/18/9 21/19/9 16/19/9 15/18/9
f 20/17/10 19/2/10 18/2/10 17/17/10
f 19/2/11 24/1/11 13/1/11 18/2/11
f 23/20/12 22/18/12 15/18/12 14/20/12
f 21/17/13 20/17/13 17/17/13 16/17/13
f 29/21/14 30/22/14 19/22/14 20/21/14
f 27/22/14 28/21/14 21/21/14 22/22/14
f 25/23/14 26/23/14 23/23/14 24/23/14
f 28/21/14 29/21/14 20/21/14 21/21/14
f 26/23/14 27/22/14 22/22/14 23/23/14
f 30/22/14 25/23/14 24/23/14 19/22/14
f 36/1/8 35/1/8 26/1/8 25/1/8
f 34/2/9 33/17/9 28/17/9 27/2/9
f 32/17/10 31/2/10 30/2/10 29/17/10
f 31/2/11 36/1/11 25/1/11 30/2/11
f 35/1/12 34/2/12 27/2/12 26/1/12
f 33/17/13 32/17/13 29/17/13 28/17/13
f 5/17/15 6/2/15 31/2/15 32/17/15
f 4/17/16 5/17/16 32/17/16 33/17/16
f 6/2/17 1/1/17 36/1/17 31/2/17
f 1/1/18 2/1/18 35/1/18 36/1/18
f 3/2/19 4/17/19 33/17/19 34/2/19
f 37/24/14 42/25/14 1/25/14 6/24/14
f 41/25/14 40/24/14 3/24/14 2/25/14
f 39/26/14 38/26/14 5/26/14 4/26/14
f 42/25/14 41/25/14 2/25/14 1/25/14
f 40/24/14 39/26/14 4/26/14 3/24/14
f 38/26/14 37/24/14 6/24/14 5/26/14
f 37/2/11 48/27/11 43/28/11 42/1/11
f 42/1/8 43/28/8 44/28/8 41/1/8
f 41/1/12 44/28/12 45/27/12 40/2/12
f 40/2/9 45/27/9 46/29/9 39/17/9
f 39/17/13 46/29/13 47/30/13 38/17/13
f 38/17/10 47/30/10 48/27/10 37/2/10
f 10/31/20 12/31/20 195/32/20 191/32/20
f 57/9/21 52/33/21 182/34/21 188/13/21
f 8/35/22 49/35/22 178/36/22 175/36/22
f 8/35/23 51/33/23 170/37/23 169/38/23
f 12/31/24 54/6/24 197/39/24 195/32/24
f 9/15/25 50/10/25 185/14/25 184/40/25
f 52/33/26 57/9/26 181/12/26 179/41/26
f 54/6/27 12/31/27 168/42/27 173/7/27
f 49/43/7 8/43/7 59/44/7 62/44/7
f 10/45/7 49/43/7 62/44/7 60/46/7
f 8/43/7 12/45/7 61/46/7 59/44/7
f 12/45/7 10/45/7 60/46/7 61/46/7
f 61/47/13 60/47/13 64/48/13 65/48/13
f 62/49/8 59/49/8 63/50/8 66/50/8
f 60/47/28 62/49/28 66/50/28 64/48/28
f 59/49/29 61/47/29 65/48/29 63/50/29
f 64/51/30 66/52/30 70/53/30 68/54/30
f 63/52/31 65/51/31 69/54/31 67/53/31
f 65/51/32 64/51/32 68/54/32 69/54/32
f 66/52/33 63/52/33 67/53/33 70/53/33
f 68/55/34 70/56/34 74/57/34 72/58/34
f 67/56/35 69/55/35 73/58/35 71/57/35
f 69/55/36 68/55/36 72/58/36 73/58/36
f 70/56/37 67/56/37 71/57/37 74/57/37
f 11/3/38 7/59/38 75/60/38 77/4/38
f 7/59/39 50/59/39 78/60/39 75/60/39
f 50/59/40 9/3/40 76/4/40 78/60/40
f 78/61/28 76/62/28 80/63/28 82/64/28
f 77/62/29 75/61/29 79/64/29 81/63/29
f 76/62/13 77/62/13 81/63/13 80/63/13
f 75/61/8 78/61/8 82/64/8 79/64/8
f 81/65/41 79/66/41 83/67/41 85/68/41
f 80/65/42 81/65/42 85/68/42 84/68/42
f 79/66/43 82/66/43 86/67/43 83/67/43
f 82/66/44 80/65/44 84/68/44 86/67/44
f 84/69/13 85/69/13 89/70/13 88/70/13
f 83/71/8 86/71/8 90/72/8 87/72/8
f 86/71/28 84/69/28 88/70/28 90/72/28
f 85/69/29 83/71/29 87/72/29 89/70/29
f 90/73/45 88/74/45 92/75/45 94/76/45
f 89/74/46 87/73/46 91/76/46 93/75/46
f 88/74/47 89/74/47 93/75/47 92/75/47
f 87/73/48 90/73/48 94/76/48 91/76/48
f 92/75/49 93/75/49 97/77/49 96/77/49
f 91/76/50 94/76/50 98/78/50 95/78/50
f 94/76/51 92/75/51 96/77/51 98/78/51
f 93/75/52 91/76/52 95/78/52 97/77/52
f 95/79/8 98/79/8 102/80/8 99/80/8
f 98/79/28 96/81/28 100/82/28 102/80/28
f 97/81/29 95/79/29 99/80/29 101/82/29
f 96/81/13 97/81/13 101/82/13 100/82/13
f 102/83/14 100/84/14 104/85/14 106/86/14
f 101/84/14 99/83/14 103/86/14 105/85/14
f 100/84/14 101/84/14 105/85/14 104/85/14
f 99/83/14 102/83/14 106/86/14 103/86/14
f 104/85/53 105/85/53 109/87/53 108/87/53
f 103/86/54 106/86/54 110/88/54 107/88/54
f 106/86/55 104/85/55 108/87/55 110/88/55
f 105/85/56 103/86/56 107/88/56 109/87/56
f 110/88/57 108/87/57 112/89/57 114/90/57
f 109/87/58 107/88/58 111/90/58 113/89/58
f 108/87/59 109/87/59 113/89/59 112/89/59
f 107/88/60 110/88/60 114/90/60 111/90/60
f 114/90/14 112/89/14 116/91/14 118/92/14
f 113/89/14 111/90/14 115/92/14 117/91/14
f 112/89/14 113/89/14 117/91/14 116/91/14
f 111/90/14 114/90/14 118/92/14 115/92/14
f 116/91/61 117/91/61 121/93/61 120/93/61
f 115/92/62 118/92/62 122/94/62 119/94/62
f 118/92/63 116/91/63 120/93/63 122/94/63
f 117/91/64 115/92/64 119/94/64 121/93/64
f 147/95/65 155/96/65 152/97/65
f 149/98/66 147/95/66 152/97/66
f 149/98/67 152/97/67 153/99/67
f 146/100/68 156/101/68 151/102/68
f 152/97/69 146/100/69 151/102/69
f 152/97/70 151/102/70 153/99/70
f 145/103/71 157/101/71 150/102/71
f 151/102/72 145/103/72 150/102/72
f 151/102/73 150/102/73 153/99/73
f 144/100/74 158/96/74 148/97/74
f 150/102/75 144/100/75 148/97/75
f 150/102/76 148/97/76 153/99/76
f 143/95/77 154/104/77 149/98/77
f 148/97/78 143/95/78 149/98/78
f 148/97/79 149/98/79 153/99/79
f 141/105/80 155/96/80 147/95/80
f 134/106/81 141/105/81 147/95/81
f 134/106/82 147/95/82 154/104/82
f 139/107/83 156/101/83 146/100/83
f 142/108/84 139/107/84 146/100/84
f 142/108/85 146/100/85 155/96/85
f 137/109/86 157/101/86 145/103/86
f 140/109/87 137/109/87 145/103/87
f 140/109/88 145/103/88 156/101/88
f 135/108/89 158/96/89 144/100/89
f 138/107/90 135/108/90 144/100/90
f 138/107/91 144/100/91 157/101/91
f 133/106/92 154/104/92 143/95/92
f 136/105/93 133/106/93 143/95/93
f 136/105/94 143/95/94 158/96/94
f 132/110/95 160/111/95 142/108/95
f 141/105/96 132/110/96 142/108/96
f 141/105/97 142/108/97 155/96/97
f 131/112/98 161/113/98 140/109/98
f 139/107/99 131/112/99 140/109/99
f 139/107/100 140/109/100 156/101/100
f 129/112/101 162/111/101 138/107/101
f 137/109/102 129/112/102 138/107/102
f 137/109/103 138/107/103 157/101/103
f 125/110/104 163/114/104 136/105/104
f 135/108/105 125/110/105 136/105/105
f 135/108/106 136/105/106 158/96/106
f 126/115/107 159/114/107 134/106/107
f 133/106/108 126/115/108 134/106/108
f 133/106/109 134/106/109 154/104/109
f 130/116/110 160/111/110 132/110/110
f 127/117/111 130/116/111 132/110/111
f 127/117/112 132/110/112 159/114/112
f 128/118/113 161/113/113 131/112/113
f 130/116/114 128/118/114 131/112/114
f 130/116/115 131/112/115 160/111/115
f 123/116/116 162/111/116 129/112/116
f 128/118/117 123/116/117 129/112/117
f 128/118/118 129/112/118 161/113/118
f 124/117/119 164/119/119 127/117/119
f 126/115/120 124/117/120 127/117/120
f 126/115/121 127/117/121 159/114/121
f 124/117/122 163/114/122 125/110/122
f 123/116/123 124/117/123 125/110/123
f 123/116/124 125/110/124 162/111/124
f 154/104/125 147/95/125 149/98/125
f 155/96/126 146/100/126 152/97/126
f 156/101/127 145/103/127 151/102/127
f 157/101/128 144/100/128 150/102/128
f 158/96/129 143/95/129 148/97/129
f 159/114/130 141/105/130 134/106/130
f 160/111/131 139/107/131 142/108/131
f 161/113/132 137/109/132 140/109/132
f 162/111/133 135/108/133 138/107/133
f 163/114/134 133/106/134 136/105/134
f 159/114/135 132/110/135 141/105/135
f 160/111/136 131/112/136 139/107/136
f 161/113/137 129/112/137 137/109/137
f 162/111/138 125/110/138 135/108/138
f 163/114/139 126/115/139 133/106/139
f 164/119/140 130/116/140 127/117/140
f 164/119/141 128/118/141 130/116/141
f 164/119/142 123/116/142 128/118/142
f 163/114/143 124/117/143 126/115/143
f 164/119/144 124/117/144 123/116/144
f 73/120/7 72/120/7 165/121/7
f 74/122/7 71/122/7 165/121/7
f 72/120/7 74/122/7 165/121/7
f 71/122/7 73/120/7 165/121/7
f 187/123/145 189/124/145 221/124/145 219/123/145
f 194/125/146 192/126/146 224/126/146 226/125/146
f 177/127/147 180/128/147 212/128/147 209/127/147
f 7/10/148 11/15/148 167/129/148 166/130/148
f 11/15/149 55/5/149 171/8/149 167/129/149
f 51/33/150 56/9/150 172/131/150 170/37/150
f 56/9/151 7/10/151 166/130/151 172/131/151
f 12/31/152 8/35/152 169/38/152 168/42/152
f 188/132/153 182/133/153 214/133/153 220/132/153
f 192/126/154 193/126/154 225/126/154 224/126/154
f 186/134/155 187/123/155 219/123/155 218/134/155
f 51/33/156 8/35/156 175/36/156 174/41/156
f 49/35/157 52/33/157 179/41/157 178/36/157
f 56/9/158 51/33/158 174/41/158 180/12/158
f 50/10/159 7/10/159 177/11/159 176/11/159
f 7/10/160 56/9/160 180/12/160 177/11/160
f 172/135/161 166/136/161 198/136/161 204/135/161
f 190/137/162 191/138/162 223/138/162 222/137/162
f 179/139/163 181/128/163 213/128/163 211/139/163
f 49/35/164 10/31/164 186/140/164 183/141/164
f 53/6/165 58/5/165 189/142/165 187/143/165
f 52/33/166 49/35/166 183/141/166 182/34/166
f 58/5/167 9/15/167 184/40/167 189/142/167
f 10/31/168 53/6/168 187/143/168 186/140/168
f 183/144/169 186/134/169 218/134/169 215/144/169
f 171/145/170 173/146/170 205/146/170 203/145/170
f 180/128/171 174/139/171 206/139/171 212/128/171
f 54/6/172 55/5/172 194/147/172 197/39/172
f 58/5/173 53/6/173 190/39/173 196/147/173
f 55/5/174 11/15/174 192/16/174 194/147/174
f 9/15/175 58/5/175 196/147/175 193/16/175
f 53/6/176 10/31/176 191/32/176 190/39/176
f 204/148/177 198/149/177 199/150/177 203/151/177
f 201/152/178 202/153/178 205/154/178 200/155/178
f 202/153/179 204/148/179 203/151/179 205/154/179
f 213/156/180 208/157/180 209/157/180 212/156/180
f 210/158/181 211/159/181 206/159/181 207/158/181
f 211/159/182 213/156/182 212/156/182 206/159/182
f 221/160/183 216/161/183 217/162/183 220/163/183
f 218/164/184 219/165/184 214/166/184 215/167/184
f 219/165/185 221/160/185 220/163/185 214/166/185
f 226/168/186 224/169/186 225/169/186 228/168/186
f 227/170/187 229/171/187 222/171/187 223/170/187
f 229/171/188 226/168/188 228/168/188 222/171/188
f 181/128/189 176/127/189 208/127/189 213/128/189
f 191/138/190 195/138/190 227/138/190 223/138/190
f 196/125/191 190/137/191 222/137/191 228/125/191
f 185/172/192 188/132/192 220/132/192 217/172/192
f 195/138/193 197/137/193 229/137/193 227/138/193
f 189/124/194 184/173/194 216/173/194 221/124/194
f 166/136/195 167/174/195 199/174/195 198/136/195
f 168/175/196 169/176/196 201/176/196 200/175/196
f 197/137/197 194/125/197 226/125/197 229/137/197
f 169/176/198 170/177/198 202/177/198 201/176/198
f 193/126/199 196/125/199 228/125/199 225/126/199
f 174/139/200 175/178/200 207/178/200 206/139/200
f 167/174/201 171/145/201 203/145/201 199/174/201
f 176/127/202 177/127/202 209/127/202 208/127/202
f 170/177/203 172/135/203 204/135/203 202/177/203
f 175/178/204 178/178/204 210/178/204 207/178/204
f 173/146/205 168/175/205 200/175/205 205/146/205
f 182/133/206 183/144/206 215/144/206 214/133/206
f 178/178/207 179/139/207 211/139/207 210/178/207
f 184/173/208 185/172/208 217/172/208 216/173/208
